<?xml version="1.0" encoding="utf-8"?>
<!-- Generator: Adobe Illustrator 17.1.0, SVG Export Plug-In . SVG Version: 6.00 Build 0)  -->
<!DOCTYPE svg PUBLIC "-//W3C//DTD SVG 1.1//EN" "http://www.w3.org/Graphics/SVG/1.1/DTD/svg11.dtd">
<svg version="1.1" id="Lager_1" xmlns="http://www.w3.org/2000/svg" xmlns:xlink="http://www.w3.org/1999/xlink" x="0px" y="0px"
	 viewBox="0 0 1700.156 581.31" enable-background="new 0 0 1700.156 581.31" xml:space="preserve">
<g>
	<g>
		<path fill="#FFFFFF" d="M202.311,300.062c0,0,41.895,118.85,1.895,248.081l33.846,12.308L64.206,572.759L83.961,427.23
			c0,0-11.207,5.173-23.276,1.724s-13.793-7.759-13.793-7.759s18.914-3.889,22.252-6.52s7.675-16.204,7.675-16.204
			s-65.677-30.847-68.115-64.294c-2.33-31.95,55.663-69.299,97.041-73.726c0,0-27.953-54.032-23.077-89.231
			c3.009-21.721,30.811-44.699,63.077-36.923c19.512,4.702,44.615,16.923,75.385,52.308l-15.385,7.692l-3.077,60
			c0,0,73.402,80.769,170.402,100.244"/>
		<g>
			<path d="M197.972,301.258c8.21,23.368,12.594,48.556,15.624,73.038c6.983,56.419,3.525,114.227-12.576,168.852
				c-0.377,1.268-0.762,2.534-1.153,3.798c-0.762,2.485,0.893,4.717,3.143,5.536c11.282,4.103,22.564,8.205,33.846,12.308
				c0.399-2.946,0.798-5.893,1.196-8.839c-49.749,3.522-99.499,7.044-149.248,10.566c-8.199,0.581-16.399,1.161-24.598,1.741
				c1.446,1.899,2.893,3.797,4.339,5.696c6.418-47.279,12.836-94.558,19.254-141.837c0.167-1.231,0.334-2.462,0.501-3.692
				c0.548-4.037-2.776-6.799-6.61-5.082c-4.466,2-13.473,2.867-19.809,1.271c-3.443-0.868-6.772-2.275-9.719-4.254
				c-0.527-0.353-0.968-0.856-1.39-1.323c0.638,0.708,0.122,0.151,0.005-0.113c-0.896,2.203-1.793,4.407-2.689,6.611
				c7.363-1.523,14.911-3.122,21.829-6.122c6.624-2.873,9.232-13.513,11.241-19.745c0.575-1.783-0.321-4.259-2.068-5.082
				c-9.79-4.613-19.193-10.211-28.196-16.195c-14.025-9.323-30.657-21.653-36.387-38.228c-6.227-18.013,10.444-34.712,23.033-45.05
				c17.595-14.45,39.755-24.89,62.088-29.234c2.026-0.394,4.067-0.693,6.116-0.927c3.418-0.39,5.567-3.511,3.886-6.771
				c-5.996-11.626-10.855-23.922-14.962-36.325c-6.045-18.255-13.599-43.237-3.497-61.291c5.484-9.8,15.3-16.94,25.745-20.638
				c11.076-3.921,22.508-3.009,33.567,0.335c20.121,6.085,37.394,19.091,52.349,33.493c5.292,5.097,10.278,10.505,15.116,16.032
				c0.304-2.356,0.607-4.712,0.911-7.068c-5.128,2.564-10.256,5.128-15.385,7.692c-1.444,0.722-2.151,2.362-2.229,3.886
				c-0.589,11.479-1.177,22.957-1.766,34.436c-0.353,6.884-0.706,13.768-1.059,20.652c-0.149,2.907-0.879,5.989,1.284,8.331
				c17.603,19.063,38.326,35.675,59.538,50.491c33.867,23.654,71.985,42.367,112.631,50.673c5.665,1.158,8.077-7.517,2.393-8.678
				c-44.087-9.009-84.555-30.365-120.501-56.972c-16.966-12.558-33.665-26.465-47.915-42.115c0.439,1.061,0.879,2.121,1.318,3.182
				c1.026-20,2.051-40,3.077-60c-0.743,1.295-1.486,2.59-2.229,3.886c5.128-2.564,10.256-5.128,15.385-7.692
				c2.745-1.373,2.704-5.019,0.911-7.068c-27.113-30.974-71.99-69.245-116.113-49.629c-9.904,4.403-18.388,12.081-24.175,21.185
				c-5.431,8.544-6.685,18.369-6.36,28.293c0.686,20.935,7.814,41.705,15.758,60.882c2.598,6.273,5.324,12.53,8.438,18.568
				c1.295-2.257,2.59-4.514,3.886-6.771c-22.376,2.555-43.875,11.751-62.618,24.016C27.18,290.402,9.831,305.276,5.065,324.59
				c-4.287,17.374,7.331,32.988,19.2,44.303c12.267,11.694,26.914,21.036,41.761,29.092c2.804,1.521,5.635,3.012,8.522,4.372
				c-0.689-1.694-1.379-3.388-2.068-5.082c-1.351,4.19-3.165,12.808-7.471,14.508c-6.14,2.424-12.863,3.739-19.313,5.073
				c-3.105,0.642-3.783,4.138-2.689,6.611c2.504,5.662,11.272,8.255,16.483,9.827c8.586,2.59,18.611,1.465,26.744-2.178
				c-2.203-1.694-4.407-3.388-6.61-5.082c-6.418,47.279-12.836,94.558-19.254,141.837c-0.167,1.231-0.334,2.462-0.501,3.692
				c-0.362,2.669,1.107,5.925,4.339,5.696c49.749-3.522,99.499-7.044,149.248-10.566c8.199-0.581,16.399-1.161,24.598-1.741
				c5.16-0.365,6.01-7.089,1.196-8.839c-11.282-4.103-22.564-8.205-33.846-12.308c1.048,1.845,2.095,3.69,3.143,5.536
				c16.79-54.772,20.869-112.782,14.683-169.61c-2.946-27.062-7.661-54.706-16.472-80.558c-0.035-0.102-0.07-0.204-0.106-0.306
				C204.74,293.428,196.043,295.768,197.972,301.258L197.972,301.258z"/>
		</g>
	</g>
	<g>
		<line fill="#FFFFFF" x1="151.898" y1="441.99" x2="139.591" y2="565.066"/>
		<g>
			<path d="M147.398,441.99c-4.103,41.026-8.205,82.051-12.308,123.077c-0.577,5.774,8.428,5.719,9,0
				c4.103-41.026,8.205-82.051,12.308-123.077C156.976,436.215,147.97,436.271,147.398,441.99L147.398,441.99z"/>
		</g>
	</g>
	<g>
		<line fill="#FFFFFF" x1="367.58" y1="379.821" x2="336.659" y2="369.07"/>
		<g>
			<path d="M368.776,375.482c-10.307-3.584-20.614-7.167-30.921-10.751c-5.497-1.911-7.838,6.785-2.393,8.678
				c10.307,3.584,20.614,7.167,30.921,10.751C371.88,386.072,374.222,377.375,368.776,375.482L368.776,375.482z"/>
		</g>
	</g>
	<g>
		<g>
			<path d="M207.923,333.75c3.654,3.935,9.138,6.994,13.493,10.054c10.823,7.607,22.01,14.696,33.422,21.383
				c31.369,18.379,65.351,34.008,101.127,41.31c5.665,1.156,8.077-7.518,2.393-8.678c-35.13-7.17-68.137-22.45-98.977-40.402
				c-11.186-6.511-22.104-13.496-32.723-20.894c-3.19-2.223-6.347-4.495-9.456-6.829c-1.373-1.031-1.585-0.876-2.914-2.307
				C210.33,323.124,203.98,329.504,207.923,333.75L207.923,333.75z"/>
		</g>
	</g>
	<g>
		<g>
			<path d="M119.867,193.955c2.969,8.46,9.337,15.97,16.076,21.663c17.58,14.851,41.313,18.566,63.648,17.025
				c5.757-0.397,5.796-9.4,0-9c-20.218,1.395-41.893-1.387-57.887-14.898c-4.069-3.437-7.606-7.464-10.426-11.98
				c-0.864-1.384-1.644-2.822-2.344-4.295c-0.763-1.606,0.117,0.533-0.388-0.908C126.637,186.124,117.94,188.464,119.867,193.955
				L119.867,193.955z"/>
		</g>
	</g>
	<g>
		<ellipse fill="#FFFFFF" cx="169.225" cy="186.323" rx="0.488" ry="0.651"/>
		<g>
			<path d="M165.213,186.323c-0.004,0.05-0.009,0.099-0.013,0.149c0.054-0.399,0.107-0.798,0.161-1.196
				c-0.012,0.046-0.024,0.091-0.037,0.137c0.151-0.358,0.302-0.717,0.454-1.075c-0.03,0.083-0.074,0.157-0.133,0.222
				c0.235-0.304,0.469-0.607,0.704-0.911c-0.03,0.026-0.06,0.051-0.091,0.077c0.304-0.235,0.607-0.469,0.911-0.704
				c-0.034,0.016-0.068,0.033-0.103,0.049c0.358-0.151,0.717-0.302,1.075-0.454c-0.037,0.006-0.075,0.011-0.112,0.017
				c0.798,0,1.595,0,2.393,0c-0.037-0.006-0.075-0.011-0.112-0.017c0.358,0.151,0.717,0.302,1.075,0.454
				c-0.034-0.016-0.068-0.033-0.103-0.049c0.304,0.235,0.607,0.469,0.911,0.704c-0.03-0.026-0.06-0.051-0.091-0.077
				c0.235,0.304,0.469,0.607,0.704,0.911c-0.059-0.065-0.103-0.139-0.133-0.222c0.151,0.358,0.302,0.717,0.454,1.075
				c-0.012-0.046-0.024-0.091-0.037-0.137c0.054,0.399,0.107,0.798,0.161,1.196c-0.017-0.099-0.017-0.199,0-0.298
				c-0.054,0.399-0.107,0.798-0.161,1.196c0.012-0.046,0.024-0.091,0.037-0.137c-0.151,0.358-0.302,0.717-0.454,1.075
				c0.03-0.083,0.074-0.157,0.133-0.222c-0.235,0.304-0.469,0.607-0.704,0.911c0.03-0.026,0.06-0.051,0.091-0.077
				c-0.304,0.235-0.607,0.469-0.911,0.704c0.034-0.016,0.068-0.033,0.103-0.049c-0.358,0.151-0.717,0.302-1.075,0.454
				c0.037-0.006,0.075-0.011,0.112-0.017c-0.798,0-1.595,0-2.393,0c0.037,0.006,0.075,0.011,0.112,0.017
				c-0.358-0.151-0.717-0.302-1.075-0.454c0.034,0.016,0.068,0.033,0.103,0.049c-0.304-0.235-0.607-0.469-0.911-0.704
				c0.03,0.026,0.06,0.051,0.091,0.077c-0.235-0.304-0.469-0.607-0.704-0.911c0.059,0.065,0.103,0.139,0.133,0.222
				c-0.151-0.358-0.302-0.717-0.454-1.075c0.012,0.046,0.024,0.091,0.037,0.137c-0.054-0.399-0.107-0.798-0.161-1.196
				C165.204,186.223,165.208,186.273,165.213,186.323c0.106,1.231,0.419,2.283,1.318,3.182c0.84,0.84,1.993,1.318,3.182,1.318
				c1.189,0,2.342-0.478,3.182-1.318c0.781-0.781,1.416-2.046,1.318-3.182c-0.083-0.958-0.196-1.977-0.797-2.779
				c-0.477-0.636-0.952-1.332-1.705-1.691c-0.875-0.417-1.498-0.68-2.486-0.68c-1.386,0-2.462,0.592-3.487,1.461
				c-1.058,0.897-1.389,2.396-1.501,3.69c-0.072,0.833,0.296,2.11,0.797,2.779c0.477,0.636,0.952,1.332,1.705,1.691
				c0.875,0.417,1.498,0.681,2.486,0.681c1.386,0,2.462-0.592,3.487-1.461c1.058-0.897,1.389-2.396,1.501-3.69
				c0.098-1.136-0.537-2.401-1.318-3.182c-0.84-0.84-1.993-1.318-3.182-1.318c-1.189,0-2.342,0.478-3.182,1.318
				C165.632,184.04,165.319,185.092,165.213,186.323z"/>
		</g>
	</g>
</g>
<g>
	<path fill="#FFFFFF" d="M257.497,245.096c87.66,37.651,194.725-15.954,194.725-15.954V23.613c0-6.627,6.539-12,14.604-12h1202.658
		c8.066,0,14.604,5.373,14.604,12v527.313c0,6.627-6.539,12-14.604,12H466.827c-8.066,0-14.604-5.373-14.604-12v-261.98
		c0,0-58.882,2.353-109.734-7.686C291.636,271.221,257.497,245.096,257.497,245.096z"/>
	<g>
		<path d="M256.7,247.989c41.189,17.322,87.08,16.055,130.025,6.553c22.827-5.051,46.019-12.341,67.012-22.809
			c0.927-0.462,1.486-1.588,1.486-2.59c0-67.314,0-134.628,0-201.942c0-14.485,14.395-12.587,24.758-12.587
			c17.194,0,34.388,0,51.582,0c64.415,0,128.829,0,193.244,0c88.607,0,177.214,0,265.821,0c93.788,0,187.575,0,281.363,0
			c79.957,0,159.913,0,239.87,0c47.114,0,94.228,0,141.342,0c7.875,0,27.887-2.61,27.887,9.326c0,17.269,0,34.538,0,51.807
			c0,84.939,0,169.878,0,254.817c0,69.886,0,139.773,0,209.659c0,6.735,1.521,14.035-5.166,18.181
			c-3.167,1.963-7.842,1.524-11.501,1.524c-13.49,0-26.981,0-40.471,0c-59.146,0-118.292,0-177.438,0c-86.19,0-172.38,0-258.57,0
			c-94.222,0-188.445,0-282.667,0c-83.243,0-166.487,0-249.73,0c-53.252,0-106.505,0-159.757,0c-9.438,0-18.877,0-28.315,0
			c-11.981,0-12.25-8.094-12.25-16.542c0-14.468,0-28.935,0-43.403c0-70.345,0-140.69,0-211.035c0-1.587-1.365-3.064-3-3
			c-35.415,1.377-71.669-0.674-106.509-7.11c-30.245-5.588-61.982-17.529-86.702-36.33c-3.081-2.344-6.065,2.871-3.028,5.181
			c25.16,19.137,57.434,31.006,88.135,36.935c35.256,6.808,72.233,8.719,108.104,7.325c-1-1-2-2-3-3c0,71.109,0,142.218,0,213.326
			c0,14.039,0,28.078,0,42.117c0,2.175,0,4.351,0,6.526c0,9.263,9.263,15.01,17.714,15.01c8.083,0,16.165,0,24.248,0
			c51.254,0,102.507,0,153.761,0c82.195,0,164.391,0,246.586,0c94.125,0,188.25,0,282.375,0c87.043,0,174.086,0,261.13,0
			c60.95,0,121.899,0,182.849,0c14.749,0,29.497,0,44.246,0c2.403,0,4.806,0,7.209,0c11.121,0,17.748-7.811,17.748-18.113
			c0-62.205,0-124.409,0-186.614c0-88.115,0-176.23,0-264.344c0-22.928,0-45.857,0-68.785c0-10.581-5.411-19.456-17.625-19.456
			c-2.045,0-4.091,0-6.136,0c-39.64,0-79.28,0-118.92,0c-75.715,0-151.429,0-227.144,0c-92.778,0-185.555,0-278.333,0
			c-90.829,0-181.658,0-272.487,0c-69.869,0-139.737,0-209.606,0c-29.896,0-59.793,0-89.689,0c-7.15,0-13.834,3.414-16.899,10.02
			c-1.44,3.105-1.028,7.031-1.028,10.382c0,15.402,0,30.805,0,46.207c0,43.376,0,86.752,0,130.128c0,7.93,0,15.861,0,23.791
			c0.495-0.863,0.991-1.727,1.486-2.59c-19.482,9.715-40.89,16.323-61.986,21.376c-42.872,10.268-89.187,11.62-130.428-5.725
			C254.73,240.704,253.189,246.512,256.7,247.989z"/>
	</g>
</g>
<g>
	<path fill="#FFFFFF" d="M632.237,40.732c30.072,0.249,44.846,6.881,47.612,61.074c1.659,32.516-3.996,89.29-29.957,123.319v80.705
		l-35.755,0.248v-80.705c-25.961-34.029-31.617-90.803-29.957-123.319C586.945,47.861,602.165,40.482,632.237,40.732z"/>
	<g>
		<path d="M632.237,43.732c13.193,0.141,27.215,1.339,34.964,13.466c4.779,7.48,6.559,16.723,7.882,25.356
			c1.718,11.21,2.153,22.682,2,34.011c-0.319,23.567-3.763,47.309-11.011,69.76c-3.735,11.57-8.82,22.695-15.567,32.822
			c-1.358,2.038-3.614,3.972-3.614,6.545c0,1.565,0,3.131,0,4.696c0,25.147,0,50.295,0,75.442c1-1,2-2,3-3
			c-11.918,0.083-23.837,0.165-35.755,0.248c1,1,2,2,3,3c0-24.593,0-49.185,0-73.778c0-3.132,0.735-6.917-1.231-9.534
			c-7.244-9.642-12.455-20.729-16.529-32.028c-8.074-22.395-11.56-46.486-12.345-70.202c-0.364-10.993,0.099-22.002,1.303-32.934
			c1.085-9.852,2.977-20.177,7.801-28.952C603.53,45.199,618.329,43.654,632.237,43.732c3.87,0.021,3.868-5.979,0-6
			c-13.128-0.073-27.219,1.17-36.644,11.403c-12.627,13.71-13.621,36.484-14.464,53.965c-1.05,21.765,1.114,43.873,5.674,65.155
			c2.517,11.748,6.108,23.219,10.805,34.275c2.226,5.24,4.84,10.308,7.743,15.203c1.415,2.386,2.965,4.687,4.565,6.951
			c1.177,1.665,1.22,0.148,1.22,1.255c0,26.713,0,53.426,0,80.138c0,1.627,1.365,3.011,3,3c11.918-0.083,23.837-0.165,35.755-0.248
			c1.635-0.011,3-1.356,3-3c0-24.593,0-49.185,0-73.778c0-1.796,0-3.593,0-5.389c0-0.428,0-0.855,0-1.283c0-0.079,0-0.159,0-0.238
			c0,1.182,2.588-2.665,2.795-2.966c6.609-9.632,11.381-20.486,15.235-31.474c7.748-22.091,11.147-45.826,12.033-69.152
			c0.487-12.822-0.074-25.716-1.783-38.435c-1.341-9.977-3.505-20.238-8.79-28.946c-8.623-14.211-24.92-16.274-40.145-16.437
			C628.367,37.69,628.371,43.69,632.237,43.732z"/>
	</g>
</g>
<g>
	<path fill="#FFFFFF" d="M622.288,307.135v138.356c0,0-1.066,34.165,11.028,34.921c12.094,0.756,10.229-34.921,10.229-34.921V306.5
		L622.288,307.135z"/>
	<g>
		<path d="M619.288,307.135c0,45.919,0,91.839,0,137.758c0,10.022,0.01,21.028,4.191,30.331c2.355,5.24,7.575,10.21,13.697,7.425
			c5.871-2.671,7.466-10.615,8.372-16.302c1.258-7.901,0.998-15.816,0.998-23.771c0-10.55,0-21.1,0-31.651
			c0-34.809,0-69.617,0-104.425c0-1.598-1.365-3.049-3-3c-7.086,0.212-14.172,0.423-21.258,0.635c-3.86,0.115-3.871,6.116,0,6
			c7.086-0.212,14.172-0.423,21.258-0.635c-1-1-2-2-3-3c0,46.08,0,92.16,0,138.24c0,9.555,0.89,20.275-3.2,29.189
			c-3.715,8.095-8.481-0.544-9.793-5.144c-1.913-6.705-2.247-13.909-2.287-20.846c-0.113-19.572,0.023-39.151,0.023-58.723
			c0-27.36,0-54.721,0-82.081C625.288,303.266,619.288,303.266,619.288,307.135z"/>
	</g>
</g>
<g>
	<line fill="#FFFFFF" x1="632.909" y1="457.427" x2="632.909" y2="480.412"/>
	<g>
		<path d="M629.909,457.427c0,7.662,0,15.323,0,22.985c0,3.869,6,3.869,6,0c0-7.662,0-15.323,0-22.985
			C635.909,453.558,629.909,453.558,629.909,457.427L629.909,457.427z"/>
	</g>
</g>
<g>
	<ellipse fill="#FFFFFF" cx="634.781" cy="520.793" rx="31.582" ry="11.279"/>
	<g>
		<path d="M663.363,520.793c-0.277,3.426-7.129,5.152-9.627,5.909c-6.116,1.853-12.602,2.305-18.955,2.371
			c-6.394,0.066-12.785-0.699-18.955-2.371c-2.496-0.676-9.354-2.536-9.627-5.909c-0.26-3.217,7.575-5.287,9.627-5.909
			c6.116-1.853,12.602-2.305,18.955-2.371c6.394-0.066,12.785,0.699,18.955,2.371C656.232,515.561,663.09,517.42,663.363,520.793
			c0.31,3.829,6.312,3.859,6,0c-0.415-5.131-4.73-8.091-9.141-9.947c-7.986-3.362-16.851-4.243-25.441-4.332
			c-8.516-0.088-17.547,1.009-25.441,4.332c-4.411,1.857-8.726,4.817-9.141,9.947c-0.4,4.941,5.349,8.351,9.141,9.947
			c7.986,3.362,16.851,4.243,25.441,4.332c8.515,0.088,17.547-1.009,25.441-4.332c4.411-1.857,8.726-4.817,9.141-9.947
			C669.675,516.934,663.673,516.964,663.363,520.793z"/>
	</g>
</g>
<g>
	<line fill="#FFFFFF" x1="625.586" y1="517.427" x2="645.263" y2="524.139"/>
	<g>
		<path d="M624.789,520.319c6.559,2.237,13.118,4.475,19.677,6.712c3.672,1.253,5.235-4.544,1.595-5.786
			c-6.559-2.237-13.118-4.475-19.677-6.712C622.711,513.281,621.148,519.078,624.789,520.319L624.789,520.319z"/>
	</g>
</g>
<g>
	<line fill="#FFFFFF" x1="644.205" y1="517.359" x2="624.528" y2="524.071"/>
	<g>
		<path d="M643.407,514.466c-6.559,2.237-13.118,4.475-19.677,6.712c-3.64,1.242-2.077,7.038,1.595,5.786
			c6.559-2.237,13.118-4.475,19.677-6.712C648.643,519.01,647.08,513.213,643.407,514.466L643.407,514.466z"/>
	</g>
</g>
<rect x="783.166" y="63.463" fill="none" width="850.193" height="495.749"/>
<text transform="matrix(1 0 0 1 783.1656 252.1768)"><tspan x="0" y="0" font-family="'TwCenMT-Bold'" font-size="230">SCREW </tspan><tspan x="0" y="200" font-family="'TwCenMT-Bold'" font-size="230">SWEDEN</tspan></text>
</svg>
