<?xml version="1.0" encoding="utf-8"?>
<!-- Generator: Adobe Illustrator 17.1.0, SVG Export Plug-In . SVG Version: 6.00 Build 0)  -->
<!DOCTYPE svg PUBLIC "-//W3C//DTD SVG 1.1//EN" "http://www.w3.org/Graphics/SVG/1.1/DTD/svg11.dtd">
<svg version="1.1" xmlns="http://www.w3.org/2000/svg" xmlns:xlink="http://www.w3.org/1999/xlink" x="0px" y="0px"
	 viewBox="0 0 389.7 140" enable-background="new 0 0 389.7 140" xml:space="preserve">
<g id="Layer_1" display="none">
	<g display="inline">
		<g id="Layer_1_2_">
			<path fill="#459AD5" stroke="#1D71B8" stroke-width="0.5" stroke-miterlimit="10" d="M175.9,146.6c2.3,0,4.7,0,7,0"/>
			<path fill="#459AD5" stroke="#1D71B8" stroke-width="0.5" stroke-miterlimit="10" d="M42.8,146.7c37.5,0,75,0,112.5-0.1"/>
			<line fill="none" stroke="#1D71B8" stroke-width="0.5" stroke-miterlimit="10" x1="42.4" y1="215.1" x2="182.5" y2="215"/>
			<line fill="none" stroke="#1D71B8" stroke-width="0.5" stroke-miterlimit="10" x1="42.5" y1="180.8" x2="182.6" y2="180.6"/>
			<line fill="none" stroke="#1D71B8" stroke-width="0.5" stroke-miterlimit="10" x1="42.8" y1="249.2" x2="182.9" y2="249"/>
			<line fill="none" stroke="#1D71B8" stroke-width="0.5" stroke-miterlimit="10" x1="75.7" y1="278.5" x2="215.9" y2="278.3"/>
			<line fill="none" stroke="#1D71B8" stroke-width="0.5" stroke-miterlimit="10" x1="42.4" y1="78.6" x2="182.5" y2="78.5"/>
			<line fill="none" stroke="#1D71B8" stroke-width="0.5" stroke-miterlimit="10" x1="76.2" y1="278.5" x2="76.2" y2="78.5"/>
			<line fill="none" stroke="#1D71B8" stroke-width="0.5" stroke-miterlimit="10" x1="178.4" y1="278.5" x2="178.4" y2="78.5"/>
			<line fill="none" stroke="#1D71B8" stroke-width="0.5" stroke-miterlimit="10" x1="110.5" y1="278.5" x2="110.5" y2="78.5"/>
			<line fill="none" stroke="#1D71B8" stroke-width="0.5" stroke-miterlimit="10" x1="144.5" y1="278.5" x2="144.5" y2="78.5"/>
			<line fill="none" stroke="#1D71B8" stroke-width="0.25" stroke-miterlimit="10" x1="50.2" y1="278.5" x2="50.2" y2="78.5"/>
			<line fill="none" stroke="#1D71B8" stroke-width="0.25" stroke-miterlimit="10" x1="59.2" y1="278.5" x2="59.2" y2="78.5"/>
			<line fill="none" stroke="#1D71B8" stroke-width="0.25" stroke-miterlimit="10" x1="67.9" y1="278.5" x2="67.9" y2="78.5"/>
			<line fill="none" stroke="#1D71B8" stroke-width="0.25" stroke-miterlimit="10" x1="84.8" y1="278.5" x2="84.8" y2="78.5"/>
			<line fill="none" stroke="#1D71B8" stroke-width="0.25" stroke-miterlimit="10" x1="93.6" y1="278.5" x2="93.6" y2="78.5"/>
			<line fill="none" stroke="#1D71B8" stroke-width="0.25" stroke-miterlimit="10" x1="101.6" y1="278.5" x2="101.6" y2="78.5"/>
			<line fill="none" stroke="#1D71B8" stroke-width="0.25" stroke-miterlimit="10" x1="118.7" y1="278.8" x2="118.7" y2="78.8"/>
			<line fill="none" stroke="#1D71B8" stroke-width="0.25" stroke-miterlimit="10" x1="127.2" y1="278.5" x2="127.2" y2="78.5"/>
			<line fill="none" stroke="#1D71B8" stroke-width="0.25" stroke-miterlimit="10" x1="42.5" y1="87" x2="182.6" y2="86.9"/>
			<line fill="none" x1="42" y1="95.5" x2="182.1" y2="95.4"/>
			<line fill="none" x1="42.8" y1="104.7" x2="182.9" y2="104.5"/>
			<line fill="none" x1="42.8" y1="133.4" x2="182.9" y2="133.2"/>
			
				<text transform="matrix(1 -1.125058e-03 1.125058e-03 1 59.0702 133.3828)" font-family="'Noteworthy-Light'" font-size="6.6288">5</text>
			<text transform="matrix(1 -1.125058e-03 1.125058e-03 1 63.521 133.377)" font-family="'Noteworthy-Light'" font-size="6.6288">8</text>
			
				<text transform="matrix(1 -1.125058e-03 1.125058e-03 1 67.9244 133.3721)" font-family="'Noteworthy-Light'" font-size="6.6288">%</text>
			
				<text transform="matrix(1 -1.125058e-03 1.125058e-03 1 73.2748 133.3662)" font-family="'Noteworthy-Light'" font-size="6.6288"> </text>
			
				<text transform="matrix(1 -1.125058e-03 1.125058e-03 1 74.9796 133.3643)" font-family="'Noteworthy-Light'" font-size="6.6288">o</text>
			
				<text transform="matrix(1 -1.125058e-03 1.125058e-03 1 78.0572 133.3608)" font-family="'Noteworthy-Light'" font-size="6.6288">f</text>
			
				<text transform="matrix(1 -1.125058e-03 1.125058e-03 1 80.4242 133.3579)" font-family="'Noteworthy-Light'" font-size="6.6288"> </text>
			<text transform="matrix(1 -1.125058e-03 1.125058e-03 1 82.1761 133.356)" font-family="'Noteworthy-Light'" font-size="6.6288">S</text>
			
				<text transform="matrix(1 -1.125058e-03 1.125058e-03 1 85.9168 133.3521)" font-family="'Noteworthy-Light'" font-size="6.6288">w</text>
			
				<text transform="matrix(1 -1.125058e-03 1.125058e-03 1 90.1308 133.3472)" font-family="'Noteworthy-Light'" font-size="6.6288">e</text>
			
				<text transform="matrix(1 -1.125058e-03 1.125058e-03 1 92.9245 133.3448)" font-family="'Noteworthy-Light'" font-size="6.6288">d</text>
			
				<text transform="matrix(1 -1.125058e-03 1.125058e-03 1 96.0021 133.3413)" font-family="'Noteworthy-Light'" font-size="6.6288">e</text>
			
				<text transform="matrix(1 -1.125058e-03 1.125058e-03 1 98.7958 133.3374)" font-family="'Noteworthy-Light'" font-size="6.6288">n</text>
			
				<text transform="matrix(1 -1.125058e-03 1.125058e-03 1 101.8263 133.334)" font-family="'Noteworthy-Light'" font-size="6.6288"> </text>
			
				<text transform="matrix(1 -1.125058e-03 1.125058e-03 1 103.5782 133.332)" font-family="'Noteworthy-Light'" font-size="6.6288">=</text>
			
				<text transform="matrix(1 -1.125058e-03 1.125058e-03 1 106.8446 133.3291)" font-family="'Noteworthy-Light'" font-size="6.6288"> </text>
			
				<text transform="matrix(1 -1.125058e-03 1.125058e-03 1 108.5966 133.3262)" font-family="'Noteworthy-Light'" font-size="6.6288">5</text>
			
				<text transform="matrix(1 -1.125058e-03 1.125058e-03 1 113.0474 133.3213)" font-family="'Noteworthy-Light'" font-size="6.6288"> </text>
			
				<text transform="matrix(1 -1.125058e-03 1.125058e-03 1 114.7994 133.3193)" font-family="'Noteworthy-Light'" font-size="6.6288">5</text>
			
				<text transform="matrix(1 -1.125058e-03 1.125058e-03 1 119.2498 133.3145)" font-family="'Noteworthy-Light'" font-size="6.6288">9</text>
			
				<text transform="matrix(1 -1.125058e-03 1.125058e-03 1 123.1328 133.3101)" font-family="'Noteworthy-Light'" font-size="6.6288">1</text>
			
				<text transform="matrix(1 -1.125058e-03 1.125058e-03 1 124.6007 133.3086)" font-family="'Noteworthy-Light'" font-size="6.6288"> </text>
			
				<text transform="matrix(1 -1.125058e-03 1.125058e-03 1 126.3526 133.3072)" font-family="'Noteworthy-Light'" font-size="6.6288">0</text>
			
				<text transform="matrix(1 -1.125058e-03 1.125058e-03 1 130.9453 133.3013)" font-family="'Noteworthy-Light'" font-size="6.6288">5</text>
			
				<text transform="matrix(1 -1.125058e-03 1.125058e-03 1 135.3961 133.2964)" font-family="'Noteworthy-Light'" font-size="6.6288">0</text>
			
				<text transform="matrix(1 -1.125058e-03 1.125058e-03 1 139.9888 133.291)" font-family="'Noteworthy-Light'" font-size="6.6288"> </text>
			
				<text transform="matrix(1 -1.125058e-03 1.125058e-03 1 141.7407 133.2891)" font-family="'Noteworthy-Light'" font-size="6.6288">p</text>
			
				<text transform="matrix(1 -1.125058e-03 1.125058e-03 1 144.629 133.2856)" font-family="'Noteworthy-Light'" font-size="6.6288">e</text>
			
				<text transform="matrix(1 -1.125058e-03 1.125058e-03 1 147.4222 133.2827)" font-family="'Noteworthy-Light'" font-size="6.6288">o</text>
			
				<text transform="matrix(1 -1.125058e-03 1.125058e-03 1 150.4998 133.2793)" font-family="'Noteworthy-Light'" font-size="6.6288">p</text>
			
				<text transform="matrix(1 -1.125058e-03 1.125058e-03 1 153.3886 133.2759)" font-family="'Noteworthy-Light'" font-size="6.6288">l</text>
			
				<text transform="matrix(1 -1.125058e-03 1.125058e-03 1 154.4303 133.2749)" font-family="'Noteworthy-Light'" font-size="6.6288">e</text>
			<line fill="none" stroke="#1D71B8" stroke-width="0.25" stroke-miterlimit="10" x1="42" y1="121.3" x2="182.1" y2="121.1"/>
			<line fill="none" stroke="#1D71B8" stroke-width="0.25" stroke-miterlimit="10" x1="42.8" y1="113.3" x2="182.9" y2="113.1"/>
			<line fill="none" x1="42.8" y1="138.2" x2="182.9" y2="138"/>
			<line fill="none" stroke="#1D71B8" stroke-width="0.25" stroke-miterlimit="10" x1="42.8" y1="155.2" x2="182.9" y2="155.1"/>
			<line fill="none" stroke="#1D71B8" stroke-width="0.25" stroke-miterlimit="10" x1="42.5" y1="163.7" x2="182.6" y2="163.6"/>
			<line fill="none" stroke="#1D71B8" stroke-width="0.25" stroke-miterlimit="10" x1="42.8" y1="170.7" x2="182.9" y2="170.5"/>
			<line fill="none" stroke="#1D71B8" stroke-width="0.25" stroke-miterlimit="10" x1="136" y1="278.5" x2="136" y2="78.5"/>
			<line fill="none" stroke="#1D71B8" stroke-width="0.25" stroke-miterlimit="10" x1="42.5" y1="189.4" x2="182.6" y2="189.3"/>
			<line fill="none" stroke="#1D71B8" stroke-width="0.25" stroke-miterlimit="10" x1="42" y1="198" x2="182.1" y2="197.8"/>
			<line fill="none" stroke="#1D71B8" stroke-width="0.25" stroke-miterlimit="10" x1="42.5" y1="206.3" x2="182.6" y2="206.2"/>
			<line fill="none" stroke="#1D71B8" stroke-width="0.25" stroke-miterlimit="10" x1="152.8" y1="278.8" x2="152.8" y2="78.8"/>
			<line fill="none" stroke="#1D71B8" stroke-width="0.25" stroke-miterlimit="10" x1="42" y1="223.5" x2="182.1" y2="223.4"/>
			<line fill="none" stroke="#1D71B8" stroke-width="0.25" stroke-miterlimit="10" x1="42" y1="232.4" x2="182.1" y2="232.2"/>
			<line fill="none" stroke="#1D71B8" stroke-width="0.25" stroke-miterlimit="10" x1="42" y1="240.6" x2="182.1" y2="240.4"/>
			<line fill="none" stroke="#1D71B8" stroke-width="0.25" stroke-miterlimit="10" x1="42.5" y1="257.6" x2="182.6" y2="257.5"/>
			<line fill="none" stroke="#1D71B8" stroke-width="0.25" stroke-miterlimit="10" x1="42.5" y1="266" x2="182.6" y2="265.9"/>
			<line fill="none" stroke="#1D71B8" stroke-width="0.25" stroke-miterlimit="10" x1="42" y1="274.5" x2="182.1" y2="274.4"/>
			<line fill="none" stroke="#1D71B8" stroke-width="0.25" stroke-miterlimit="10" x1="161.3" y1="278.8" x2="161.3" y2="78.8"/>
			<line fill="none" stroke="#1D71B8" stroke-width="0.25" stroke-miterlimit="10" x1="169.6" y1="278.5" x2="169.6" y2="78.5"/>
			<line fill="none" stroke="#1D71B8" stroke-width="0.25" stroke-miterlimit="10" x1="42" y1="95.8" x2="182.1" y2="95.6"/>
			<text transform="matrix(1 0 0 1 63.2971 159.4652)" font-family="'Noteworthy-Light'" font-size="6.6288">3.65 x 5 591 050 ?</text>
		</g>
		<g id="Layer_2_1_">
			<g id="Vector_Grime_1_" opacity="0.9">
				<path d="M144.8,184.1c-0.3-0.3-0.9-0.1-0.9,0.2c-0.1,0.3,0.5,0.4,0.5,0.7c0.9,0.2,0.9-0.6,1.2-0.9c0,0-0.1-0.1-0.1-0.2
					C145.1,183.9,145,184,144.8,184.1z"/>
				<path d="M158.9,136c-0.3,0-0.3,0.1-0.6,0.1c-0.3-0.1-0.3-0.4-0.5-0.6c-0.3,0-0.2,0.1-0.6,0.1c-0.2,0-0.3-0.2-0.4-0.3
					c-0.6,0.1-0.8-0.1-1.1-0.3c-0.1,0.1-0.1,0.2-0.3,0.2c-0.7-0.2-0.7,0.4-1.4,0.2c-0.2,0.5-0.9,0.9-1.7,0.8c0,0.3,0.5,0.2,0.6,0.4
					c0.1,0.4-0.2,0.5-0.3,0.8c0.2,0.3,0.4,0.7,0.5,1.1c0.3,0,0.4,0.2,0.6,0.3c0.4,0,0.6,0,0.7,0.2c0.1,0.2-0.1,0.3-0.1,0.5
					c0.3-0.1,0.6-0.3,1-0.3c0.3,0.1,0.5,0.4,1.2,0.3c0-0.1,0.1-0.2,0.3-0.3c0.2,0,0.2,0.3,0.5,0.3c0.2-0.1-0.1-0.5,0.3-0.6
					c0.3,0,0.2,0.2,0.6,0.2c0.1-0.2,0.1-0.3,0-0.5c0.5-0.2,0.6,0.2,0.8,0.1c0-0.2-0.3-0.2-0.3-0.4c0.3-0.3-0.1-0.9,0.3-1.1
					c0.3-0.1,1.3,0.1,1.7-0.1C159.2,137.7,158.1,136.8,158.9,136z"/>
				<path d="M155.2,182.8c0.5,0,1,0.1,1.5,0.1C156.5,182.7,155.6,182.7,155.2,182.8z"/>
				<path d="M167.4,153.3c0.3,0,0.6,0,0.4,0.3c0.3,0,0.7,0.1,0.9,0.2c0.5-0.1,0.8,0,1.2,0.1c0.1-0.4,0.7-0.5,1.2-0.7
					c-0.1-0.2,0-0.4,0.3-0.5c0.1-0.5-0.4-0.7-0.1-1.1c-0.7-0.1-0.9-0.5-1.4-0.8c0,0.1-0.1,0.2-0.3,0.2c-0.2,0-0.2-0.2-0.4-0.2
					c-0.1,0.2-0.5,0.3-0.8,0.2c-0.2,0.3-0.6,0.6-1,0.7c0.4,0.2,0,0.6-0.2,0.7C167.1,152.8,167.5,152.9,167.4,153.3z"/>
				<path d="M169,180.9c0.3,0.3,0.9,0.1,1.7,0.2C170.5,180.8,169.5,180.8,169,180.9z"/>
				<path d="M156.3,179.4c0.5-0.3,1.1-0.5,1.4-0.9C157.2,178.8,156.5,179.1,156.3,179.4z"/>
				<path d="M165.7,142c0.1,0.1,0.1,0.2,0.3,0.2c0.2-0.3,0.6-0.3,0.9-0.6c0.3-0.2,0.5-0.7,0.8-0.8c0-0.2,0-0.5,0.3-0.7
					c-0.2-0.3,0.2-0.9-0.2-1.1c0.1-0.1,0.1-0.2,0.1-0.2c-0.1-0.1-0.2,0.1-0.3,0c0-0.1,0.1-0.3,0-0.4c-0.3,0.3-0.6,0-0.9,0
					c-0.3,0.3-0.7,0.1-1,0.5c0.2-0.5,0.3-1,0-1.3c-1.3,0.9,0,2-1.2,3.1c0.2,0.6,0.1,1.4,0.9,1.4c0,0.1-0.1,0.3,0,0.4
					C165.4,142.4,165.5,142,165.7,142z"/>
				<path d="M173.3,139.6v-0.2c-0.4-0.1-0.3,0-0.7,0.1c-0.2-0.1-0.4,0-0.7-0.1c-0.1,0.2-0.3,0.3-0.8,0.3c-0.2,0.4-0.9,0.7-0.9,1.2
					c0,0.3,0.4,0.5,0.1,0.8c-1.1-0.8-3.8,0-5.2-0.2c0.2-0.4,0.4-0.7,0.6-1c0.2,0,0.6-0.2,0.3-0.5c-0.9,0.2-0.9,1.1-1.8,1.3
					c-0.4-0.3-0.8-0.4-1.2-0.7c0-0.7-0.5-1-0.9-1.5c-0.1-0.2-0.1-0.4-0.5-0.4c0,0-0.1,0.1-0.2,0.1c0,0.3,0.2,0.3,0.1,0.6
					c-0.7,0.3-1.9-0.1-2.7-0.3c-0.1,0.3,0.1,0.4,0.1,0.6c-0.7,0.2-1.2-0.1-1.8,0.1c-0.4-0.1-0.5-0.5-1-0.6c-0.5-0.3-0.5-0.8-1.1-1
					c0,0.3,0.2,0.4,0.4,0.6c0.2,0.2,0.4,0.7,0.7,0.9c0.3,0.3,0.7,0.3,0.7,0.6c0,0.4-0.7,0.4-1.1,0.6c-0.4,1.3-2.6,0.9-4.1,0.6
					c0.9,0.3,2,0.4,2.8,0.9c-0.5,0.3-1,0.6-1.3,1c-0.4,0-0.5-0.2-1-0.2c0,0.3,0.4,0.2,0.5,0.3c-1,0.2-1.5-0.5-2.7-0.3
					c0,0-0.1-0.1-0.1-0.1c0-0.2,0.1-0.2,0.1-0.3c-0.3-0.1-0.5-0.4-0.5-0.7c-0.5-0.1-0.9-0.4-0.9-0.8c-0.3,0-0.2,0.2-0.6,0.2
					c-0.2-0.4-0.5-0.1-1-0.3c-0.1,0-0.1,0.2-0.2,0.2c-0.8-0.1-0.8,0.3-1.2,0.4c-0.5-0.1-0.7-0.4-1.2-0.2c0,0.2,0.7,0.1,0.8,0.3
					c-0.2,0.4-0.4,0.9-0.8,1.3c0.3,0.1,0.5,0.4,0.3,0.7c0.4,0.3,0.9,0.6,1,0.9c0.2,0,0.3-0.1,0.5-0.1c0.2,0.1,0.4,0.2,0.5,0.4
					c0.7-0.2,1.4-0.2,2.1-0.3c0.1,0,0-0.3,0.1-0.3c0.2,0,0.4,0,0.6-0.1s0-0.2,0-0.2c0.9,0.1,2.4,0,3.2,0.4c0.2,0.5,0.4,1,0,1.5
					c-0.1,0-0.5,0-0.8,0c-0.2,0-0.1-0.2-0.3-0.2c-1.2,0.1-2,0.6-2.4,1.3c0.1,0.2,0.1,0.5,0.1,0.8c0.3,0.5,1,0.7,1.5,1
					c0.1-0.2,0.7-0.1,0.9,0c0.8-0.3,1.5-0.6,1.8-1.2c1,0,1,0.7,1.7,0.9c-0.2,0.7-0.5,1.3-0.8,2c0.5-0.3,0.7-0.9,0.8-1.5
					c0.3,0,0.5-0.2,0.8-0.2c0.2,0.1,0.5,0.1,0.5,0.4c0,0.2-0.2,0.2-0.3,0.3c0.8,0,2.1-0.1,2,0.8c0.4,0.1,0.2-0.2,0.6-0.2
					c0.7,0.3,0.8,1.7,0.4,2.1c-0.4-0.3-0.4-0.9-1.2-0.9c-0.8,0-0.9,0.9-0.4,1.3c0.7,0.1,1.3,0.5,1.7-0.1c0.7,0.4,0.3,1.5-0.4,1.8
					c-0.3,0-0.6,0.1-0.6,0.3c0,0,0.1,0,0,0.1c0.2,0.1,0.8,0,1.1,0c0.2,0.2,0.5,0.4,0.5,0.8c-0.2,0.1-0.8,0.3-0.6,0.5
					c0.2-0.2,0.9-0.3,1.3-0.1c0,0.2,0.1,0.3,0.1,0.5c0.5,0.1,0.9,0.4,1.5,0.3c0.2,0.1,0.1,0.5,0.3,0.6c0.4,0,0.3-0.3,0.7-0.3
					c0.1,0.1,0,0.6,0.3,0.5c0.3,0,0.1-0.4,0.3-0.5c0.6-0.1,0.9,0,1.4,0c0.1,0,0.1,0.2,0.2,0.2c0-0.1-0.2-0.2,0-0.2
					c0.3,0,0.3,0.2,0.7,0.1c0,0,0-0.1,0-0.2c-1.2-1.3-0.6-4,1.7-4c0.1,0,0.3,0,0.4,0c0-0.3,0-0.3,0.1-0.6c-0.5-0.1-0.9-0.2-0.8-0.7
					c-0.5,0-1-0.1-0.9-0.6c-0.1-0.1-0.5-0.1-0.6-0.2c0.1,0,0.2-0.2,0-0.2c-0.1,0.3-0.9,0.1-1.2,0c-0.3,0-0.3,0.2-0.6,0.2
					c0-0.1-0.1-0.1-0.1-0.2c0.5-0.2,1.4-0.1,1.9-0.3c0-0.5-0.3-1,0-1.5c0,0,0.1,0,0.1,0c0.1,0.1,0.3,0.1,0.6,0.1
					c0.6,0.6,1.7,0.6,2.5,1c-0.4-0.6-2.3-0.5-2-1.7c-0.4-0.1-0.4,0.4-0.7,0.3c0.1-0.4,0.8-0.5,1-0.8c1.7-0.3,2.7,0.7,4.3,0.3
					c0.5-1.3-3-1-3.1-2c-0.1-0.6,0.7-0.4,1.2-0.6c-0.2-0.4-1-0.1-1.2-0.3c0-0.4,0.6-0.4,0.9-0.6c-0.1-0.5,0.4-0.5,0.7-0.8
					c-0.2-0.2-0.8-0.2-0.9-0.5c0.4-0.4,0.9-1.2,1.8-0.8c0.4-0.2,0.7,0,0.9,0.2c0.2-0.2,0.5-0.1,0.9,0c0.5-0.4,1.6-0.7,1.2-1.4
					c0-0.2,0.3-0.2,0.3-0.4C174.1,140.3,174,139.7,173.3,139.6z M162.4,150.4c0.2,0,0.7,0,0.6,0.2
					C162.8,150.8,162.5,150.6,162.4,150.4z M167,148.1c0.3,0.1,0.3,0.4,0.5,0.6C167.1,148.6,166.6,148.4,167,148.1z"/>
				<path fill="none" d="M168.6,180.6c0,0.5,0,1,0,1.6"/>
				<path fill="none" d="M164.6,180.6c0,0.7,0,1.5,0,2.2"/>
			</g>
		</g>
		<g id="Layer_4_1_">
			<text transform="matrix(1 0 0 1 59.036 108.3293)" font-family="'Noteworthy-Light'" font-size="6.6288">6.42 - 2.53 = 3.65</text>
			<text transform="matrix(1 0 0 1 116.0434 108.3293)" font-family="'Noteworthy-Light'" font-size="6.6288" letter-spacing="8"> </text>
			<text transform="matrix(1 0 0 1 127.2174 108.3293)" font-family="'Noteworthy-Light'" font-size="6.6288">GAP!!!</text>
		</g>
	</g>
</g>
<g id="Layer_2" display="none">
	<g display="inline">
		<g>
			<path d="M35.8,29.9c-2.3-2.9-6.5,0-8.5,1.8c-2.7,2.4-6.1,7.1-4.4,10.9c1.4,3.1,7.2,4.4,8.4,0.4c0.5-1.8-1.2-3.7-2.9-3.8
				c-2.3-0.1-4.7,0.9-6,2.8c-0.4,0.5,0.5,1,0.9,0.5c1.1-1.7,3.5-2.6,5.5-2.2c1.9,0.4,1.9,2.8,0.6,3.7c-0.7,0.5-1.6,0.5-2.4,0.5
				c-3.6-0.1-3.8-4.2-2.9-6.7c1-2.6,7.8-11.2,11-7.2C35.5,31.1,36.2,30.4,35.8,29.9L35.8,29.9z"/>
		</g>
	</g>
	<g display="inline">
		<g>
			<path d="M37.7,42.3c-0.2,0.4-0.5,0.8-0.4,1.2c0.1,0.7,0.9,0.3,1.2,0.1c0.5-0.4-0.2-1.1-0.7-0.7c-0.2,0.1-0.1,0.1,0.3,0.1
				c0.1,0.1,0.2,0.2,0.2,0.3c0,0.2,0,0,0.1,0c0.1-0.1,0.1-0.3,0.2-0.4C38.8,42.2,38,41.7,37.7,42.3L37.7,42.3z"/>
		</g>
	</g>
	<g display="inline">
		<g>
			<path d="M45,32.5c0.2,0.4-0.8,2-1,2.4c-0.4,0.9-0.7,1.7-0.6,2.7c0.1,1.5,1.7,2,2.9,2c3.3,0.1,8-3.5,8.3-6.9
				c0-0.5-0.7-0.7-0.9-0.3c-2.2,3.6-3,7.6-4,11.7c-0.2,0.6,0.8,0.9,1,0.3c1-4,1.8-7.9,3.9-11.5c-0.3-0.1-0.6-0.2-0.9-0.3
				c-0.2,3.1-5,6.3-8,5.9c-3.4-0.5,1.1-4.9,0.3-6.5C45.6,31.4,44.7,31.9,45,32.5L45,32.5z"/>
		</g>
	</g>
	<g display="inline">
		<g>
			<path d="M57.2,34.7c0.4-0.1,4.4-0.4,4.1,0.9C61,36.9,59.9,38,59,38.9c-1.4,1.5-2.8,2.9-3.5,4.8c-0.1,0.2,0,0.5,0.2,0.6
				c3.9,1.8,8.2,0.2,12.3,0.7c0.6,0.1,0.6-0.9,0-1c-1.7-0.2-3.4-0.1-5.1,0.1c-0.7,0.1-6.8,0.5-6-1c1.5-2.9,4.7-4.4,5.4-7.8
				c0.1-0.2,0-0.4-0.2-0.6c-1.6-1.1-3.3-1.5-5.2-1C56.3,33.9,56.6,34.9,57.2,34.7L57.2,34.7z"/>
		</g>
	</g>
	<g display="inline">
		<g>
			<path d="M71.8,38.3c2.7-0.6,5.7-0.8,8.4,0c0.6,0.2,0.9-0.8,0.3-1c-2.9-0.9-6-0.7-8.9,0C70.9,37.5,71.2,38.5,71.8,38.3L71.8,38.3z
				"/>
		</g>
	</g>
	<g display="inline">
		<g>
			<path d="M88.7,32.8c1.2-2.3,3.8-0.2,3.4,1.6c-0.3,1.1-0.9,2.2-1.4,3.2c-0.9,1.7-2,3.3-2.8,5c-0.1,0.2-0.1,0.6,0.2,0.7
				c3.9,1.7,7.8,0,11.9,0c0.6,0,0.6-1,0-1c-3.8,0-7.7,1.7-11.4,0.1c0.1,0.2,0.1,0.5,0.2,0.7c1.4-3.1,4.3-6.1,4.5-9.7
				c0.1-2.8-4.2-3.4-5.4-1.2C87.6,32.9,88.4,33.4,88.7,32.8L88.7,32.8z"/>
		</g>
	</g>
	<g display="inline">
		<g>
			<path d="M104.6,42.3c0.6,0,0.6-1,0-1S103.9,42.3,104.6,42.3L104.6,42.3z"/>
		</g>
	</g>
	<g display="inline">
		<g>
			<path d="M111,29.9c0,1.9-1.5,3.3-1.3,5.3c0,0.2,0.1,0.4,0.4,0.5c2.2,0.7,4.5,0.9,6.7,1.7c1.9,0.7,3.1,2.4,1,3.9
				c-1.4,0.9-3.5,0.9-4.5-0.4c-0.4-0.5-1.1,0.2-0.7,0.7c2.3,2.9,9.3,0.4,7.1-3.4c-1-1.8-4.1-2.2-5.8-2.6c-0.6-0.1-3-0.4-3.1-0.9
				c-0.1-1.6,1.3-3.1,1.3-4.7C112.1,29.2,111.1,29.2,111,29.9L111,29.9z"/>
		</g>
	</g>
	<g display="inline">
		<g>
			<path d="M110.7,30.7c4-0.9,10-1.2,13.6,1.3c0.5,0.4,1-0.5,0.5-0.9c-3.8-2.7-10.1-2.4-14.3-1.4C109.8,29.9,110.1,30.8,110.7,30.7
				L110.7,30.7z"/>
		</g>
	</g>
	<g display="inline">
		<g>
			<path d="M129.2,31.1c1.7-2.6,6.6-1,5.1,2.3c-0.8,1.7-3.1,2.6-4.7,3.2c-0.5,0.2-0.5,0.8,0,1c1.2,0.5,3.3,1.5,2.4,3.4
				c-0.7,1.6-2.7,1.5-4,1.2c-1.4-0.3-2.7-1.1-4-1.8c-0.6-0.3-1.1,0.6-0.5,0.9c2.8,1.5,6.1,3.3,8.9,0.8c2.4-2.1-0.7-4.7-2.6-5.5
				c0,0.3,0,0.6,0,1c2.7-1,6.3-2.8,5.6-6.3c-0.7-3.4-5.5-3-7.1-0.7C128,31.2,128.9,31.7,129.2,31.1L129.2,31.1z"/>
		</g>
	</g>
	<g display="inline">
		<g>
			<path d="M139.1,34.4c2.8,0,5.5-0.1,8.2,0.6c0.6,0.2,0.9-0.8,0.3-1c-2.8-0.8-5.6-0.7-8.4-0.7C138.5,33.4,138.5,34.4,139.1,34.4
				L139.1,34.4z"/>
		</g>
	</g>
	<g display="inline">
		<g>
			<path d="M138.5,38.7c2.8,0,5.5,0.3,8.3,0.3c0.6,0,0.6-1,0-1c-2.8,0-5.5-0.3-8.3-0.3C137.8,37.7,137.8,38.7,138.5,38.7L138.5,38.7
				z"/>
		</g>
	</g>
	<g display="inline">
		<g>
			<path d="M155,30.6c1.5-1,3.9-1.1,5.6-0.3c2.7,1.3-2.5,5-3.3,5.8c-0.2,0.3-0.2,0.6,0.1,0.8c1.9,1.4,3.2,3.4,0.6,5
				c-1.5,0.9-3.5,1.1-5.3,1.1c-0.6,0-0.6,1,0,1c2.3,0,5.7-0.3,7.2-2.4c1.6-2.2-0.3-4.2-2.1-5.5c0,0.3,0.1,0.5,0.1,0.8
				c1.6-1.8,5.6-3.8,3.9-6.7c-1.3-2.2-5.7-1.6-7.4-0.4C153.9,30.1,154.4,31,155,30.6L155,30.6z"/>
		</g>
	</g>
	<g display="inline">
		<g>
			<path d="M164,43.3c0.6,0,0.6-1,0-1S163.4,43.3,164,43.3L164,43.3z"/>
		</g>
	</g>
	<g display="inline">
		<g>
			<path d="M177.3,29.5c-5.3-5.2-13.3,8-9.4,12.4c2.1,2.4,7.7,2.1,8.2-1.5c0.5-3.7-5.4-3.9-7.6-3.1c-0.6,0.2-0.3,1.2,0.3,1
				c1.8-0.7,8.6-0.2,5.9,3.2c-0.9,1.1-2.9,1-4.2,0.8c-1.7-0.3-2.3-1.5-2.4-3.1c-0.2-3.3,4.4-13.1,8.6-8.9
				C177.1,30.7,177.8,30,177.3,29.5L177.3,29.5z"/>
		</g>
	</g>
	<g display="inline">
		<g>
			<path d="M183.4,30.4c-1.4,0.5-2.5,3.8-2.9,5.3c-0.1,0.3,0.1,0.6,0.5,0.6c2.2-0.1,6.1-0.8,7.6,1.2c1.9,2.5-5.3,7.2-6.5,3.9
				c-0.2-0.6-1.2-0.3-1,0.3c1.4,4,7.5,0.7,8.5-2.1c1.8-4.9-6-4.4-8.6-4.3c0.2,0.2,0.3,0.4,0.5,0.6c0.4-1.5,1.1-3,2-4.3
				c0.4-0.6,0.9-1.2,0.8-2c0-0.2-0.2-0.3-0.3-0.3c-0.3-0.1-0.4,0-0.8,0.1C182.6,29.6,182.8,30.6,183.4,30.4L183.4,30.4z"/>
		</g>
	</g>
	<g display="inline">
		<g>
			<path d="M182.4,30.7c3.3-1,7.8-0.5,10.9,0.9c0.6,0.3,1.1-0.6,0.5-0.9c-3.3-1.5-8.1-2.2-11.7-1C181.6,29.9,181.8,30.9,182.4,30.7
				L182.4,30.7z"/>
		</g>
	</g>
	<g display="inline">
		<g>
			<path d="M77.5,55.3c-1.4-3.3-6.1-0.6-8,0.7c-3.3,2.3-6.5,6.9-4.5,11c1.1,2.2,3.3,4.4,5.8,4.7c2.4,0.2,5.3-1.4,7.3-2.7
				c1.6-1,2.3-2.3,0.8-3.8c-1.6-1.6-4.7-1.8-6.9-2c-0.6-0.1-0.6,0.9,0,1c1.6,0.2,3.2,0.4,4.7,0.9c1,0.3,2.8,1.3,1.6,2.5
				c-0.7,0.7-1.7,1.1-2.6,1.6c-1.7,0.9-4.1,2-6.1,1.1c-1.9-0.8-3.6-3-4.1-5c-0.8-3.1,1.7-6.2,3.9-8c1.1-0.9,6.1-4.2,7.1-1.8
				C76.8,56.2,77.7,55.9,77.5,55.3L77.5,55.3z"/>
		</g>
	</g>
	<g display="inline">
		<g>
			<path d="M86.5,69.8c-0.2-2.7,1.2-5.3,2.4-7.6c1.5-2.7,3.4-5.5,6-7.3c-0.2-0.1-0.5-0.1-0.7-0.2c2.8,5.1,9.2,9.5,8.9,15.7
				c0,0.6,1,0.6,1,0c0.3-6.5-6.2-11-9.1-16.2c-0.1-0.2-0.5-0.3-0.7-0.2c-2.6,1.7-4.4,4.4-6,7c-1.5,2.5-3,5.7-2.9,8.7
				C85.5,70.4,86.5,70.4,86.5,69.8L86.5,69.8z"/>
		</g>
	</g>
	<g display="inline">
		<g>
			<path d="M88.6,61.3c3.2,0.4,6.4-0.2,9.5,0.6c0.6,0.2,0.9-0.8,0.3-1c-3.2-0.9-6.5-0.3-9.8-0.7C88,60.2,88,61.2,88.6,61.3
				L88.6,61.3z"/>
		</g>
	</g>
	<g display="inline">
		<g>
			<path d="M110.7,69.2c0.1,0.3,0.2,0.6,0.3,0.9c0.2,0.5,1,0.5,1-0.1c-0.1-2.5-0.2-5-0.2-7.5c0.1-2.8,0.3-7.1,3-8.7
				c2.8-1.6,8.1,3.3,7.6,6.1c-0.5,2.5-7.5,2.2-9.4,2.4c-0.6,0.1-0.6,1.1,0,1c2.9-0.3,8.3,0.2,10.1-2.6c1.9-3-3.1-6.8-5.4-7.7
				c-8.5-3.2-7,12.8-6.9,17c0.3,0,0.7-0.1,1-0.1c-0.1-0.3-0.2-0.6-0.3-0.9C111.5,68.3,110.5,68.6,110.7,69.2L110.7,69.2z"/>
		</g>
	</g>
	<g display="inline">
		<g>
			<path d="M130,64.4c0-4-0.6-9,1.9-12.4c0.4-0.5-0.5-1-0.9-0.5c-2.6,3.5-2.1,8.8-2.1,12.9C129,65.1,130,65.1,130,64.4L130,64.4z"/>
		</g>
	</g>
	<g display="inline">
		<g>
			<path d="M128.8,71.2c0.1,0,0.2,0,0.3,0c0.6,0,0.6-1,0-1c-0.1,0-0.2,0-0.3,0C128.2,70.2,128.2,71.2,128.8,71.2L128.8,71.2z"/>
		</g>
	</g>
	<g display="inline">
		<g>
			<path d="M139.7,64.7c0.1,0.2,0.2,0.3,0.3,0.5c0.2,0.4,0.7,0.3,0.9,0c0.3-0.4,0-1.1,0-1.4c-0.1-1.1,0-2.2,0.1-3.3
				c0.3-2.7,1-5.3,2-7.8c0.2-0.6-0.7-0.9-1-0.3c-0.8,2.1-1.4,4.3-1.8,6.5c-0.2,1-0.3,2-0.3,2.9c0,0.4,0.4,2.6,0.2,2.8
				c0.3,0,0.6,0,0.9,0c-0.1-0.2-0.2-0.3-0.3-0.5C140.2,63.7,139.3,64.2,139.7,64.7L139.7,64.7z"/>
		</g>
	</g>
	<g display="inline">
		<g>
			<path d="M140.5,70.7c0.3-0.4,0.3-0.9-0.1-1.3c-0.4-0.5-1.1,0.2-0.7,0.7c0,0-0.1,0-0.1,0.1C139.3,70.7,140.2,71.2,140.5,70.7
				L140.5,70.7z"/>
		</g>
	</g>
	<g display="inline">
		<g>
			<path d="M151.6,63.4c0-3.4,1.2-7.7,3.3-10.4c0.4-0.5-0.5-1-0.9-0.5c-2.1,2.9-3.4,7.3-3.4,10.9C150.6,64.1,151.6,64.1,151.6,63.4
				L151.6,63.4z"/>
		</g>
	</g>
	<g display="inline">
		<g>
			<path d="M148.4,72.2c0.5,0,0.8-0.3,0.8-0.8c0-0.6-1-0.6-1,0c0.1-0.1,0.1-0.1,0.2-0.2C147.8,71.2,147.8,72.2,148.4,72.2
				L148.4,72.2z"/>
		</g>
	</g>
	<g display="inline">
		<g>
			<path d="M31,88.8c-0.7,1.3-1.7,2.5-2.6,3.6c-0.2,0.2-0.2,0.6,0.1,0.8c2.1,1,4.7,0.8,7,1.5c1.6,0.5,3.6,1.9,2,3.6
				c-1.2,1.3-3.8,1.6-5.4,1c-0.6-0.3-1.1,0.6-0.5,0.9c2.6,1.1,8.4-0.1,7.4-4c-1-3.6-7.3-2.7-9.9-3.8c0,0.3,0.1,0.5,0.1,0.8
				c1-1.2,2-2.5,2.8-3.8C32.2,88.7,31.4,88.2,31,88.8L31,88.8z"/>
		</g>
	</g>
	<g display="inline">
		<g>
			<path d="M31.4,89.8c2.7-1.2,7.4-1.3,10.2-0.6c0.6,0.2,0.9-0.8,0.3-1c-3.2-0.8-8-0.7-11,0.7C30.3,89.2,30.8,90,31.4,89.8
				L31.4,89.8z"/>
		</g>
	</g>
	<g display="inline">
		<g>
			<path d="M46.9,93.1c-1.6-2.3-0.9-8.2,2.8-5c2.2,1.9-1.6,4.3-3,5.2c-2.8,1.9-6.6,3.6-6.1,7.6c0.5,4.2,5.3,2.6,7.3,0.8
				c3.3-2.8,1-6.9-1.9-8.8c-0.5-0.4-1,0.5-0.5,0.9c3.2,2.1,4.2,5.5,0.7,8c-4.1,2.9-6-2.2-3-4.9c2.3-2,6.7-3.4,7.9-6.5
				c0.9-2.4-1.7-4.6-4-4.2c-3.3,0.5-2.4,5.7-1.2,7.4C46.4,94.1,47.2,93.6,46.9,93.1L46.9,93.1z"/>
		</g>
	</g>
	<g display="inline">
		<g>
			<path d="M59.6,88.5c0.5-0.2,0.7-0.3,1.1-0.8c0.2-0.3,0-0.6-0.3-0.7c-3.1-1-7.9,2.6-4.5,5.5c2.8,2.3,6.7-2,5.6-4.9
				c-0.2-0.6-1.2-0.3-1,0.3c0.7,1.9-1.5,5-3.7,4c-1.4-0.6-1.3-2.2-0.4-3.2c0.9-0.9,2.4-1.2,3.6-0.8c-0.1-0.2-0.2-0.5-0.3-0.7
				c-0.1,0.2-0.5,0.3-0.7,0.4C58.6,87.9,59.1,88.8,59.6,88.5L59.6,88.5z"/>
		</g>
	</g>
	<g display="inline">
		<g>
			<path d="M54.4,104c3.3-2.9,6.2-6.3,9.2-9.5c1.6-1.7,3.4-3.4,5.1-5c0.9-0.8,1.8-1.7,2.7-2.5c0.2-0.2,0.4-0.4,0.5-0.6
				c0.4-0.4,0.4-0.5,0-0.5c0.3,0.6,1.2,0.1,0.9-0.5c-0.1-0.1-0.1-0.2-0.2-0.3c-0.1-0.2-0.4-0.3-0.6-0.2c-1,0.3-1.9,1.9-2.7,2.6
				c-1.8,1.6-3.5,3.3-5.2,5c-3.5,3.5-6.6,7.4-10.4,10.8C53.2,103.7,53.9,104.4,54.4,104L54.4,104z"/>
		</g>
	</g>
	<g display="inline">
		<g>
			<path d="M70,95.3c-3.1-3.8-8.5,2.4-6.5,6c1.1,2,3.3,2.3,5,0.9c1.7-1.5,1.7-4,0.2-5.6c-0.5-0.5-1.2,0.2-0.7,0.7
				c1.2,1.2,1.1,2.8,0,4c-1.3,1.4-3.2,0.6-3.8-1.1c-1-2.5,2.9-7,5.2-4.3C69.7,96.5,70.4,95.8,70,95.3L70,95.3z"/>
		</g>
	</g>
	<g display="inline">
		<g>
			<path d="M84.4,91.2c0.9-0.1,1.4,0,1.9-0.8c0.2-0.3,0-0.7-0.3-0.7c-4.2-0.7-5.3,6-1.6,7.3c4.5,1.6,5.2-5,2.5-7.3
				c-0.5-0.4-1.2,0.3-0.7,0.7c1,0.9,1.4,2.1,1.4,3.4c-0.1,1.4-0.9,2.7-2.4,2.4c-2.9-0.6-2.6-6.1,0.6-5.6c-0.1-0.2-0.2-0.5-0.3-0.7
				c-0.3,0.4-0.9,0.3-1.3,0.4C83.5,90.3,83.8,91.3,84.4,91.2L84.4,91.2z"/>
		</g>
	</g>
	<g display="inline">
		<g>
			<path d="M94.7,101.8c-0.8-3.3-1.2-6.7-1-10c0.2-2.5,1.1-4.2,3.8-4.4c1.9-0.1,3.8,0.4,5.6,0.4c0.6,0,0.6-1,0-1
				c-3-0.1-8.5-1.8-9.9,2.1C92,93,92.8,98,93.8,102.1C93.9,102.7,94.9,102.5,94.7,101.8L94.7,101.8z"/>
		</g>
	</g>
	<g display="inline">
		<g>
			<path d="M93.4,92.5c2.1-0.6,4.3-0.3,6.5-0.3c0.6,0,0.6-1,0-1c-2.3,0-4.5-0.2-6.8,0.4C92.5,91.7,92.8,92.7,93.4,92.5L93.4,92.5z"
				/>
		</g>
	</g>
	<g display="inline">
		<g>
			<path d="M123.6,87.5c0.5-0.2,0.7,0,1-0.5c0.1-0.2,0.1-0.4,0-0.5c-2.2-3.3-8.1-2.5-8.4,1.8c-0.4,5,6.4,3.9,8.4,6.9
				c0-0.2,0.1-0.4,0.1-0.6c-2.1,2.1-5.6,1.9-8,0.3c-0.5-0.4-1,0.5-0.5,0.9c2.7,1.8,6.8,1.9,9.2-0.5c0.2-0.2,0.2-0.4,0.1-0.6
				c-1.6-2.5-5.2-2.3-7.4-4.1c-1.7-1.5-1-4.1,1-4.9c0.9-0.4,1.9-0.3,2.8-0.1c0.6,0.2,1.1,0.5,1.5,0.9c0.2,0.2,0.6-0.2-0.1,0
				C122.8,86.7,123,87.7,123.6,87.5L123.6,87.5z"/>
		</g>
	</g>
	<g display="inline">
		<g>
			<path d="M127,86.7c-0.1,2.7-0.1,6,1.1,8.5c1.6,3.4,4.2-1.6,4.8-2.6c-0.2,0.1-0.5,0.1-0.7,0.2c2.1,1.5,3.9,5.3,6.7,2.5
				c2.2-2.2,2.1-6.3,2.7-9.1c0.1-0.6-0.8-0.9-1-0.3c-0.5,2.1-0.7,4.3-1.3,6.3c-0.6,1.9-2.1,4.2-4.2,2.2c-0.9-0.8-1.5-1.8-2.4-2.5
				c-0.2-0.2-0.5,0-0.7,0.2c-0.5,0.8-0.9,1.7-1.4,2.5c-1.5,2.6-2.4-2.6-2.4-2.9c-0.2-1.6-0.3-3.4-0.2-5C128,86,127,86.1,127,86.7
				L127,86.7z"/>
		</g>
	</g>
	<g display="inline">
		<g>
			<path d="M146.9,95.6c0.8-1.9,0.5-4.1,0.7-6.1c0.1-1.1,0.2-2.5,1-3.3c1.1-1.2,3.3,0.1,4.3,0.7c0.6,0.3,1.1-0.6,0.5-0.9
				c-2.2-1.2-5.1-2.2-6.3,0.8c-1,2.6,0.1,5.8-1,8.3C145.7,95.7,146.6,96.2,146.9,95.6L146.9,95.6z"/>
		</g>
	</g>
	<g display="inline">
		<g>
			<path d="M145.3,89.8c1.9,0.5,3.8,0.6,5.6,1.3c0.6,0.2,0.9-0.7,0.3-1c-1.8-0.7-3.8-0.9-5.6-1.3C144.9,88.7,144.7,89.7,145.3,89.8
				L145.3,89.8z"/>
		</g>
	</g>
	<g display="inline">
		<g>
			<path d="M145.1,97.2c2.9,0,5.6-1.1,8.5-0.7c0.6,0.1,0.9-0.9,0.3-1c-3-0.5-5.8,0.6-8.8,0.6C144.5,96.2,144.5,97.2,145.1,97.2
				L145.1,97.2z"/>
		</g>
	</g>
	<g display="inline">
		<g>
			<path d="M158.9,96.3c-0.1-3.6-1.4-7.8,0.6-11c-0.2,0.1-0.5,0.1-0.7,0.2c2,1.3,8.4,4.7,5.9,7.8c-1.2,1.5-5.6,2.9-7.5,2.2
				c-0.6-0.2-0.9,0.8-0.3,1c2.4,0.8,7.5-0.7,8.8-2.9c2.5-4-3.8-7.3-6.4-9c-0.2-0.2-0.5,0-0.7,0.2c-2.1,3.4-0.9,7.8-0.8,11.5
				C157.9,97,158.9,97,158.9,96.3L158.9,96.3z"/>
		</g>
	</g>
	<g display="inline">
		<g>
			<path d="M170,97c-1.4-1.9-0.6-5.1-0.1-7.1c0.2-1.1,0.5-2.1,0.8-3.2c0.2-0.6,4.3,1,4.7,1.1c0.6,0.3,1.1-0.6,0.5-0.9
				c-1.8-0.8-3.6-1.2-5.5-1.4c-0.2,0-0.4,0.2-0.5,0.4c-0.9,3.3-3,8.7-0.6,11.7C169.7,98.2,170.4,97.5,170,97L170,97z"/>
		</g>
	</g>
	<g display="inline">
		<g>
			<path d="M168,92.2c1.6-0.1,3.2,0.1,4.9,0.3c0.6,0.1,0.9-0.9,0.3-1c-1.7-0.3-3.4-0.4-5.1-0.4C167.4,91.2,167.4,92.2,168,92.2
				L168,92.2z"/>
		</g>
	</g>
	<g display="inline">
		<g>
			<path d="M167.6,97.5c2.7,1,5.7-0.1,8.4,0c0.6,0,0.6-1,0-1c-2.7-0.1-5.6,0.9-8.2,0C167.2,96.3,167,97.3,167.6,97.5L167.6,97.5z"/>
		</g>
	</g>
	<g display="inline">
		<g>
			<path d="M178.5,98c0-2.9,0.2-5.7,0.7-8.5c-0.3,0.1-0.6,0.1-0.8,0.2c3,3.2,5.3,7.4,9.1,9.8c0.2,0.1,0.6,0.1,0.7-0.2
				c1.9-3.6,2.5-8.7,2.3-12.7c0-0.6-1-0.6-1,0c0.2,3.9-0.3,8.7-2.2,12.2c0.2-0.1,0.5-0.1,0.7-0.2c-3.7-2.4-5.9-6.5-8.9-9.7
				c-0.2-0.3-0.8-0.2-0.8,0.2c-0.5,2.9-0.7,5.8-0.7,8.7C177.5,98.6,178.5,98.6,178.5,98L178.5,98z"/>
		</g>
	</g>
	<g display="inline">
		<g>
			<path d="M110.5,103.7c1.5,1.2,0.9,4.7,0.8,6.4c-0.1,1.9-0.3,3.8-0.3,5.7c0,0.6,1,0.6,1,0c0-0.3,0-0.5,0-0.8c0-0.6-1-0.6-1,0
				c0,0.3,0,0.5,0,0.8c0,0.6,1,0.6,1,0c0-2.5,0.3-5,0.4-7.5c0-1.6,0.2-4.2-1.2-5.3C110.7,102.5,110,103.2,110.5,103.7L110.5,103.7z"
				/>
		</g>
	</g>
	<g display="inline">
		<g>
			<path d="M101,110c3.8,2.4,6.6,6.1,9.8,9.2c0.2,0.2,0.4,0.2,0.6,0.1c3.3-2.1,6.3-4.7,9.4-7c0.5-0.4,0-1.2-0.5-0.9
				c-1.4,1-2.7,2.1-4.1,3.2c-1.3,1-4.3,4.3-5.8,2.8c-2.9-2.9-5.4-6.1-8.9-8.3C101,108.8,100.4,109.7,101,110L101,110z"/>
		</g>
	</g>
	<g display="inline">
		<g>
			<path d="M49.6,132.8c0.3,0.5-1.3,1.7-1.6,2c-0.3,0.3-0.1,0.8,0.4,0.9c2.3,0.1,4.9-0.3,6.9,1c1.6,1,0.9,3.2-0.6,3.8
				c-1.2,0.5-2.7,0.3-3.9,0c-0.6-0.2-0.9,0.8-0.3,1c2.9,0.9,7.4,0,6.5-4c-0.8-3.3-6.2-2.6-8.6-2.7c0.1,0.3,0.2,0.6,0.4,0.9
				c0.7-0.7,2.6-2,1.7-3.2C50.1,131.8,49.3,132.3,49.6,132.8L49.6,132.8z"/>
		</g>
	</g>
	<g display="inline">
		<g>
			<path d="M50.7,131.4c3.9-0.3,7.7-0.6,11.6-0.7c0.6,0,0.6-1,0-1c-3.9,0-7.8,0.4-11.6,0.7C50.1,130.4,50.1,131.4,50.7,131.4
				L50.7,131.4z"/>
		</g>
	</g>
	<g display="inline">
		<g>
			<path d="M68.6,130.6c-1,1.5-2.1,3-3.2,4.5c-0.3,0.4-0.1,0.8,0.4,0.9c2,0.3,4.2,0.5,6,1.6c3.5,2.1-1.6,6.4-3.5,3.1
				c-0.3-0.6-1.2-0.1-0.9,0.5c1.7,3,6.3,1.7,6.6-1.6c0.3-3.7-5.7-4.3-8.2-4.6c0.1,0.3,0.2,0.6,0.4,0.9c1.2-1.5,2.3-3.1,3.4-4.7
				C69.8,130.6,68.9,130.1,68.6,130.6L68.6,130.6z"/>
		</g>
	</g>
	<g display="inline">
		<g>
			<path d="M69,131.4c2.4,0,5.3-0.8,7.4,0.6c0.5,0.4,1-0.5,0.5-0.9c-2.3-1.5-5.3-0.8-7.9-0.7C68.4,130.4,68.4,131.4,69,131.4
				L69,131.4z"/>
		</g>
	</g>
	<g display="inline">
		<g>
			<path d="M87.2,131.1c-2.3-1.1-8.3-2.3-7.6,2.3c0.4,2.5,6-0.5,7-1c-0.2-0.2-0.5-0.4-0.7-0.6c-1,3.1-2.9,6.1-2.8,9.4
				c0,0.6,1,0.6,1,0c-0.1-3.2,1.8-6.2,2.7-9.1c0.1-0.4-0.4-0.8-0.7-0.6c-1.5,0.8-3.1,1.6-4.8,1.8c-0.9,0.1-0.8-0.6-0.5-1.3
				c0.4-0.9,1.4-1,2.2-1c1.2,0,2.6,0.5,3.6,1C87.3,132.3,87.8,131.4,87.2,131.1L87.2,131.1z"/>
		</g>
	</g>
	<g display="inline">
		<g>
			<path d="M93.1,139.8c0.2-3.7,2.4-7.3,4.3-10.4c0.3-0.6-0.5-1.1-0.9-0.5c-1.9,3.3-4.2,7-4.4,10.9
				C92.1,140.5,93.1,140.5,93.1,139.8L93.1,139.8z"/>
		</g>
	</g>
	<g display="inline">
		<g>
			<path d="M108,131.3c0.2-0.6,0.2-0.8-0.1-1.3c-0.1-0.2-0.3-0.2-0.4-0.2c-2.5,0-4.7,1.5-5.5,3.9c-0.9,2.5,1.1,4.6,3.4,5.2
				c4.5,1.3,10.4-6.1,5.1-8.7c-0.6-0.3-1.1,0.6-0.5,0.9c4.3,2.2-0.9,7.6-4.3,6.9c-2.1-0.4-3.3-2.3-2.6-4.3c0.3-0.9,1.1-1.7,1.9-2.2
				c0.4-0.3,2.3-1.2,2.1-0.3C106.9,131.7,107.9,132,108,131.3L108,131.3z"/>
		</g>
	</g>
	<g display="inline">
		<g>
			<path d="M120.8,131.2c-1.1,1.3-2.5,2.3-3.5,3.7c-0.2,0.3-0.2,0.8,0.2,0.8c2.1,0.3,5.9-0.2,6.8,2.3c1.1,3.2-3.5,3.1-5.4,3.1
				c-0.6,0-0.6,1,0,1c2.5,0.1,6.5,0.1,6.6-3.3c0.1-3.9-5-3.6-7.6-4c0.1,0.3,0.1,0.6,0.2,0.8c1.1-1.3,2.4-2.4,3.5-3.7
				C122,131.4,121.3,130.7,120.8,131.2L120.8,131.2z"/>
		</g>
	</g>
	<g display="inline">
		<g>
			<path d="M118.5,131c6,0,12.1-0.7,18,0.7c0-0.3,0-0.6,0-1c-2.1,0.6-4.7,2.4-4.3,4.9c0.4,2.5,3.2,3.2,5.5,2.9
				c3.9-0.6,10.8-7.1,3.8-8.5c-0.6-0.1-0.9,0.8-0.3,1c5.2,1.1,0,5.2-2.4,6.2c-1.7,0.7-3.7,0.7-5.1-0.6c-2.2-2,1.4-4.5,3-4.9
				c0.5-0.1,0.5-0.8,0-1c-6-1.5-12.2-0.8-18.3-0.7C117.9,130.1,117.9,131.1,118.5,131L118.5,131z"/>
		</g>
	</g>
	<g display="inline">
		<g>
			<path d="M81.5,160.2c1.2-3.9-0.8-8.2,0.8-11.9c0.5-1.2,1.6-1.8,2.8-1.8c0.4,0,3.2,1,2.8,1.9c-0.9,1.8-3.9,2.1-5.7,2.6
				c-0.6,0.2-0.4,1.2,0.3,1c2.4-0.7,5.2-1.1,6.5-3.6c0.1-0.2,0.1-0.4-0.1-0.6c-1.9-2.4-5-3.2-7.1-0.6c-2.7,3.4,0,8.9-1.3,12.8
				C80.3,160.6,81.3,160.9,81.5,160.2L81.5,160.2z"/>
		</g>
	</g>
	<g display="inline">
		<g>
			<path d="M94.7,155c-1.9-4.7,0.2-13.1,6.6-9.4c0.6,0.3,1.1-0.5,0.5-0.9c-7.1-4.1-10.3,4.9-8,10.5C94,155.9,95,155.6,94.7,155
				L94.7,155z"/>
		</g>
	</g>
	<g display="inline">
		<g>
			<path d="M93.3,148.3c1.8,0.1,3.5,0.3,5.1,1.3c0.5,0.3,1-0.5,0.5-0.9c-1.7-1.1-3.6-1.2-5.6-1.4C92.6,147.3,92.6,148.3,93.3,148.3
				L93.3,148.3z"/>
		</g>
	</g>
	<g display="inline">
		<g>
			<path d="M93.9,153c3.4,0,6.8-0.1,10.2,0.3c0.6,0.1,0.9-0.9,0.3-1c-3.5-0.5-6.9-0.4-10.4-0.4C93.3,152,93.3,153,93.9,153L93.9,153
				z"/>
		</g>
	</g>
	<g display="inline">
		<g>
			<path d="M113.5,144.7c-4.3-2.2-7.9,6.7-2.7,7.8c1.9,0.4,3.9-0.9,4.8-2.5C116.7,147.9,115.3,145.9,113.5,144.7
				c-0.6-0.3-1.1,0.5-0.5,0.9c1.4,0.9,2.5,2.3,1.7,3.9c-0.6,1.2-1.9,2-3.2,2c-4.3,0.1-1.7-7.6,1.5-6
				C113.5,145.9,114,145,113.5,144.7L113.5,144.7z"/>
		</g>
	</g>
	<g display="inline">
		<g>
			<path d="M123.3,156.1c-0.1-3.1-1-6.8,0.3-9.7c0.5-1.1,1.6-1.7,2.9-1.5c1.3,0.2,2.2,1.2,1.2,2.3c-1.2,1.3-3.4,1.6-5,2.2
				c-0.6,0.2-0.3,1.2,0.3,1c2.5-0.9,5-1.4,6.5-3.8c0.1-0.1,0.1-0.4,0-0.5c-1.5-2-4.8-3.3-6.4-0.5c-1.9,3.2-0.8,7.3-0.7,10.7
				C122.3,156.8,123.3,156.8,123.3,156.1L123.3,156.1z"/>
		</g>
	</g>
	<g display="inline">
		<g>
			<path d="M130.7,146c-0.9,2.4-1.4,4.9-1.7,7.5c0,0.2,0.2,0.4,0.4,0.5c3.3,0.8,6.7,0.7,10.1,0.6c0.6,0,0.6-1,0-1
				c-2.8,0-5.7,0.1-8.5-0.3c-1.4-0.2-0.7-2-0.5-3.1c0.3-1.4,0.7-2.7,1.1-4C131.9,145.7,130.9,145.4,130.7,146L130.7,146z"/>
		</g>
	</g>
	<g display="inline">
		<g>
			<path d="M143.6,156.1c-0.5-4.2,0.2-12.4,6.3-10.1c0.6,0.2,0.9-0.7,0.3-1c-6.9-2.5-8.2,6.2-7.6,11.1
				C142.7,156.8,143.7,156.8,143.6,156.1L143.6,156.1z"/>
		</g>
	</g>
	<g display="inline">
		<g>
			<path d="M141.1,150.3c2.5,0,5-0.3,7.5,0.3c0.6,0.2,0.9-0.8,0.3-1c-2.6-0.7-5.2-0.4-7.8-0.4C140.5,149.3,140.5,150.3,141.1,150.3
				L141.1,150.3z"/>
		</g>
	</g>
	<g display="inline">
		<g>
			<path d="M141.6,156.3c4.2,1.2,8.8-0.3,13.1-0.3c0.6,0,0.6-1,0-1c-4.2,0-8.7,1.5-12.8,0.4C141.3,155.1,141,156.1,141.6,156.3
				L141.6,156.3z"/>
		</g>
	</g>
	<g display="inline">
		<g>
			<path d="M159,155.8c-0.5,0.4-0.5,1.1,0.2,1.2c0.6,0.1,0.9-0.9,0.3-1c0,0,0.1,0.1,0.1,0.1c0,0.1,0,0.3,0.1,0.4
				c-0.1,0.1,0,0.1,0.1,0C160.2,156.1,159.5,155.4,159,155.8L159,155.8z"/>
		</g>
	</g>
	<g display="inline">
		<g>
			<path d="M167.5,158.5c0-0.1,0-0.1,0-0.2c0-0.6-1-0.6-1,0c0,0.1,0,0.1,0,0.2C166.5,159.1,167.5,159.1,167.5,158.5
				c0-0.1,0-0.1,0-0.2c0-0.6-1-0.6-1,0c0,0.1,0,0.1,0,0.2C166.5,159.1,167.5,159.1,167.5,158.5L167.5,158.5z"/>
		</g>
	</g>
	<g display="inline">
		<g>
			<path d="M173,158c0.1,0,0.2,0,0.3,0c0.6,0,0.6-1,0-1c-0.1,0-0.2,0-0.3,0C172.4,157,172.4,158,173,158L173,158z"/>
		</g>
	</g>
	<g display="inline">
		<g>
			<path d="M26,176.2c0.6-2,2.7-2.6,4.6-2.4c0.6,0.1-0.8,1.7-0.9,1.9c-0.9,1.1-1.5,1.9-1.2,3.4c0.4,1.8,4.4,2.2,2.2,4.6
				c-1.4,1.5-4.3,1.8-6.2,2.1c-0.6,0.1-0.4,1.1,0.3,1c2.5-0.5,5.8-0.8,7.3-3.1c1.9-3-3.9-3.9-2.1-6.5c0.7-1,2.9-3,1.4-4.2
				c-0.8-0.6-2.7-0.1-3.5,0.1c-1.4,0.3-2.3,1.5-2.7,2.8C24.8,176.5,25.8,176.8,26,176.2L26,176.2z"/>
		</g>
	</g>
	<g display="inline">
		<g>
			<path d="M37.6,185c0-0.3,0-0.7,0-1c0-0.6-1-0.6-1,0c0,0.3,0,0.7,0,1C36.6,185.7,37.6,185.7,37.6,185L37.6,185z"/>
		</g>
	</g>
	<g display="inline">
		<g>
			<path d="M47.9,173.3c0,0.1,0.4-0.2,0.5-0.5c0.1-0.3-0.2-0.9-0.5-0.9c-1.4-0.2-2.5,0.2-3.5,1.1c-2,1.6-3.6,5.6-1.5,7.8
				c1.1,1.1,5.4,2.8,5.5-0.1c0.1-1.9-2-3.7-3.7-2.4c-0.5,0.4,0,1.3,0.5,0.9c1.1-0.8,2.1,0.2,2.2,1.4c0.1,1-1.2,0.8-1.8,0.6
				c-1.1-0.2-2.1-0.8-2.5-1.9c-0.6-1.6,0.3-3.6,1.3-4.8c0.5-0.7,1.3-1.2,2.1-1.5c0.1,0,0.2,0,0.3-0.1c0.3,0.1,0.6,0,0.7-0.4
				c-0.2,0.1-0.3,0.2-0.4,0.3C46.6,173.3,47.5,173.8,47.9,173.3L47.9,173.3z"/>
		</g>
	</g>
	<g display="inline">
		<g>
			<path d="M57,171.8c-1.2,1.9-2.6,3.6-3.6,5.6c-0.1,0.2-0.1,0.5,0.2,0.7c1.3,0.7,2.9,0.7,4.3,0.8c1.8,0.1,4.2,1.4,2.2,3.5
				c-0.8,0.8-2,1.3-3.1,1.5c-0.6,0.1-0.4,1.1,0.3,1c2.4-0.5,5.3-2.2,4.5-5c-0.8-2.9-5.8-1.5-7.7-2.6c0.1,0.2,0.1,0.5,0.2,0.7
				c0.9-2,2.4-3.7,3.6-5.6C58.2,171.8,57.3,171.3,57,171.8L57,171.8z"/>
		</g>
	</g>
	<g display="inline">
		<g>
			<path d="M57.3,174.2c2.8-1.6,6.6-1.4,9.6-0.6c0.6,0.2,0.9-0.8,0.3-1c-3.3-0.9-7.3-1-10.4,0.7C56.2,173.6,56.7,174.5,57.3,174.2
				L57.3,174.2z"/>
		</g>
	</g>
	<g display="inline">
		<g>
			<path d="M72.4,181.1c2.5-2.3,5.1-4.3,7.9-6.2c0.5-0.4,0-1.2-0.5-0.9c-2.8,2-5.5,4.1-8.1,6.4C71.2,180.8,71.9,181.5,72.4,181.1
				L72.4,181.1z"/>
		</g>
	</g>
	<g display="inline">
		<g>
			<path d="M78.8,180.9c-0.5-3.4-1.8-6.6-2.7-10c-0.2-0.6-1.1-0.4-1,0.3c0.9,3.3,2.2,6.5,2.7,10C77.9,181.8,78.9,181.5,78.8,180.9
				L78.8,180.9z"/>
		</g>
	</g>
	<g display="inline">
		<g>
			<path d="M90.8,172.5c-0.8,1.7-2.2,3.1-3.3,4.6c-0.2,0.3,0.1,0.7,0.4,0.8c2.2,0.1,4.8-0.6,6.8,0.5c1.9,1-0.2,2.6-1.3,2.9
				c-1.1,0.3-2.4,0.3-3.4,0c-0.6-0.2-0.9,0.8-0.3,1c2,0.6,7.2,0.3,6.6-2.9c-0.6-3.5-6-2.3-8.4-2.4c0.1,0.3,0.3,0.5,0.4,0.8
				c1.1-1.5,2.5-2.9,3.3-4.6C92,172.4,91.1,171.9,90.8,172.5L90.8,172.5z"/>
		</g>
	</g>
	<g display="inline">
		<g>
			<path d="M92.2,173.5c2.3-1.4,5.8-1,8.3-0.3c0.6,0.2,0.9-0.8,0.3-1c-2.8-0.8-6.5-1.2-9,0.4C91.1,173,91.6,173.8,92.2,173.5
				L92.2,173.5z"/>
		</g>
	</g>
	<g display="inline">
		<g>
			<path d="M106.1,173.5c0.2-0.1,0.3-0.2,0.5-0.2c0.4-0.2,0.3-0.7,0-0.9c0,0-0.1,0-0.1-0.1c-0.2-0.1-0.4-0.1-0.6,0.1
				c-1.3,1.1-2.6,2.3-3.6,3.6c-0.2,0.3-0.2,0.8,0.2,0.8c1.8,0.4,3.6,0.5,5.3,1.2c1.2,0.5,2.1,1.5,2.2,2.8c0.2,1.9-2.4,1.4-3.2,0.8
				c-0.5-0.4-1,0.5-0.5,0.9c1.7,1.3,5.4,0.7,4.7-2.1c-1-3.7-5.1-3.9-8.2-4.5c0.1,0.3,0.1,0.6,0.2,0.8c1.1-1.3,2.4-2.4,3.6-3.6
				c-0.2,0-0.4,0.1-0.6,0.1c0,0,0.1,0,0.1,0.1c0-0.3,0-0.6,0-0.9c-0.2,0.1-0.3,0.2-0.5,0.2C105.1,172.9,105.6,173.8,106.1,173.5
				L106.1,173.5z"/>
		</g>
	</g>
	<g display="inline">
		<g>
			<path d="M106.4,173.6c5.5-1.6,11.2,0.2,16.8,0.7c0.6,0.1,0.6-0.9,0-1c-2.5-0.2-5.2,0.3-6.4,2.9c-0.1,0.2-0.1,0.4,0,0.5
				c2,2.8,4.8,0.9,7-0.6c-0.3-0.1-0.5-0.3-0.8-0.4c0.3,2.2-0.5,4.2-1.3,6.2c-0.2,0.6,0.6,1.1,0.9,0.5c0.9-2.2,1.7-4.3,1.5-6.7
				c0-0.3-0.4-0.7-0.8-0.4c-0.5,0.3-0.9,0.6-1.4,0.9c-0.3,0.2-0.7,0.4-1,0.6c-1,0.7-2,0.5-3-0.6c0.8-1.9,3.6-1.9,5.2-1.8
				c0-0.3,0-0.7,0-1c-5.7-0.4-11.4-2.3-17-0.6C105.5,172.8,105.7,173.7,106.4,173.6L106.4,173.6z"/>
		</g>
	</g>
	<g display="inline">
		<g>
			<path d="M129.3,182.5c1-3.8,2.4-7.4,4.3-10.8c0.3-0.6-0.6-1.1-0.9-0.5c-1.9,3.5-3.4,7.2-4.4,11.1
				C128.2,182.9,129.1,183.1,129.3,182.5L129.3,182.5z"/>
		</g>
	</g>
	<g display="inline">
		<g>
			<path d="M143.9,174.1c0.3-2.4-3.8-1.1-4.7-0.7c-2.6,1.2-3.7,4-1.7,6.4c4.2,5.1,10.7-5.3,5.1-6.9c-0.6-0.2-0.9,0.8-0.3,1
				c3.8,1.1-0.8,8.9-4,5.4c-1.6-1.8-0.8-3.8,1.1-4.8c0.4-0.2,3.7-1.5,3.5-0.4C142.9,174.7,143.9,174.7,143.9,174.1L143.9,174.1z"/>
		</g>
	</g>
	<g display="inline">
		<g>
			<path d="M151.2,173.6c-1.3,0.9-2.5,1.9-3.4,3.2c-0.2,0.2,0,0.7,0.3,0.7c1.7,0.3,3.3,0.2,4.9,0.7c1.8,0.6,1.2,2.1-0.2,2.7
				c-0.9,0.4-2,0.5-3,0.5c-0.6,0-0.6,1,0,1c2-0.1,5.9-0.7,5.4-3.5c-0.5-2.6-5-2.2-6.8-2.5c0.1,0.2,0.2,0.5,0.3,0.7
				c0.8-1.2,1.9-2,3.1-2.9C152.2,174.1,151.7,173.3,151.2,173.6L151.2,173.6z"/>
		</g>
	</g>
	<g display="inline">
		<g>
			<path d="M151.2,172.9c4.1-1.4,8.5,0.2,12.7,0.4c-0.1-0.3-0.2-0.6-0.4-0.9c-2,1.8-5.7,8.1-0.8,8.6c6.1,0.7,6.7-6.8,1.4-8.5
				c-0.6-0.2-0.9,0.8-0.3,1c1.7,0.6,2.9,1.8,3.1,3.7c0.2,2.3-3.3,3.5-5.1,2.7c-2.3-1,1.5-5.9,2.4-6.7c0.3-0.3,0.1-0.8-0.4-0.9
				c-4.3-0.2-8.7-1.8-13-0.4C150.3,172.1,150.6,173.1,151.2,172.9L151.2,172.9z"/>
		</g>
	</g>
	<g display="inline">
		<g>
			<path d="M172,175.2c2-0.1,3.9,0.3,5.8,0.6c0.6,0.1,0.9-0.8,0.3-1c-2-0.4-4-0.8-6.1-0.7C171.4,174.3,171.4,175.3,172,175.2
				L172,175.2z"/>
		</g>
	</g>
	<g display="inline">
		<g>
			<path d="M172.3,180.2c1.9-0.1,4.3,0.1,6.1,0.9c0.6,0.3,1.1-0.6,0.5-0.9c-1.9-0.9-4.5-1.2-6.6-1.1
				C171.7,179.2,171.7,180.2,172.3,180.2L172.3,180.2z"/>
		</g>
	</g>
	<g display="inline">
		<g>
			<path d="M103,193.6c1.9-2.9,6.3-2.9,9.3-2.4c2.2,0.4,8.1,3.2,3.3,5.1c-1.8,0.7-5.5,0.4-5.8,3c-0.3,3.1,5.1,4,7.1,4.8
				c0.6,0.2,0.9-0.7,0.3-1c-2-0.8-6.1-1.3-6.4-3.8c-0.2-1.4,4.5-1.9,5.4-2.2c1.7-0.7,3-2.8,1.6-4.4c-3.4-3.9-12.9-4.1-15.8,0.4
				C101.8,193.6,102.7,194.1,103,193.6L103,193.6z"/>
		</g>
	</g>
	<g display="inline">
		<g>
			<path d="M113,208.6c0-0.3,0-0.7,0-1c0-0.6-1-0.6-1,0c0,0.3,0,0.7,0,1C112,209.3,113,209.3,113,208.6L113,208.6z"/>
		</g>
	</g>
</g>
<g id="Layer_3">
	<g>
		<g>
			<path d="M26,7.5c-0.1-0.7-0.2-1-0.7-1.4c-0.1-0.1-0.3-0.2-0.5-0.1c-3.8,1.4-6,6.4-7.4,9.8C16,19.1,14,25,17,28.1
				c0.1,0.1,0.3,0.2,0.5,0.1c2.6-0.7,5.5-4.2,4-6.9c-1.7-3.1-6.1,0.1-6.7,2.4c-0.2,0.6,0.8,0.9,1,0.3c0.7-2.6,6.1-4.1,5.1-0.3
				c-0.1,0.5-2.6,4.1-3.3,3.4c-1.7-1.8-0.8-5.4-0.3-7.5c0.7-2.8,1.9-5.5,3.4-8c0.4-0.7,4.2-5.9,4.5-3.9C25.1,8.4,26.1,8.1,26,7.5
				L26,7.5z"/>
		</g>
	</g>
	<g>
		<g>
			<path d="M27.2,25.7c0.1,0,0.2,0,0.3,0c0.6,0,0.6-1,0-1c-0.1,0-0.2,0-0.3,0C26.5,24.7,26.5,25.7,27.2,25.7L27.2,25.7z"/>
		</g>
	</g>
	<g>
		<g>
			<path d="M40.9,9.9c-3.5,2-1.7,5.8,1.3,7.2c1.4,0.7,3.4,0.6,4.7-0.3c1.3-1,1.4-3.3,1.8-4.7c-0.3,0-0.7-0.1-1-0.1
				c0.2,4.6-1.1,9.1-2.4,13.5c-0.2,0.6,0.8,0.9,1,0.3c1.3-4.5,2.6-9.1,2.5-13.8c0-0.6-0.8-0.7-1-0.1c-0.6,1.8-0.5,4.4-2.9,4.7
				c-3,0.4-7.3-3.6-3.5-5.8C41.9,10.4,41.4,9.5,40.9,9.9L40.9,9.9z"/>
		</g>
	</g>
	<g>
		<g>
			<path d="M56.4,14.6c1-0.9,3-2.7,4-0.8c0.8,1.4,0.5,3.4,0.3,4.8c-0.4,2.6-2.3,8.2-5.8,5.9c-0.1,0.3-0.3,0.6-0.4,0.9
				c2.9,0.9,5.5,2.8,8.6,1.9c0.6-0.2,0.4-1.1-0.3-1c-2.9,0.9-5.4-1.1-8.1-1.9c-0.6-0.2-0.9,0.6-0.4,0.9c4.6,2.9,6.9-4,7.4-7.3
				c0.2-1.8,0.3-4.2-1.1-5.6c-1.5-1.6-3.9,0.3-5,1.4C55.2,14.4,55.9,15.1,56.4,14.6L56.4,14.6z"/>
		</g>
	</g>
	<g>
		<g>
			<path d="M74.5,21.4c1.9-0.6,4-0.6,6-1c0.6-0.1,0.4-1.1-0.3-1c-2,0.4-4,0.4-6,1C73.6,20.6,73.8,21.6,74.5,21.4L74.5,21.4z"/>
		</g>
	</g>
	<g>
		<g>
			<path d="M87.8,12.4c0.8-1.9,3.3,0.1,4,0.8c1,0.9,1.2,2.1,0.9,3.4c-0.4,1.6-1.2,3.2-1.7,4.8c-1,3.6,2.1,3.6,4.7,2.7
				c0.6-0.2,0.3-1.2-0.3-1c-0.8,0.3-2.9,1.2-3.6,0.3c-0.5-0.7,0.2-2.1,0.4-2.7c0.5-1.7,1.4-3.3,1.6-5c0.3-3-5.5-7.2-7-3.4
				C86.6,12.7,87.5,13,87.8,12.4L87.8,12.4z"/>
		</g>
	</g>
	<g>
		<g>
			<path d="M99.6,28.1c0.5,0,0.8-0.3,0.8-0.8c0-0.6-1-0.6-1,0c0.1-0.1,0.1-0.1,0.2-0.2C98.9,27,98.9,28,99.6,28.1L99.6,28.1z"/>
		</g>
	</g>
	<g>
		<g>
			<path d="M111.6,11.2c-1,0.4-1.7,1-2.5,1.7c-0.2,0.2-0.2,0.6,0.1,0.8c1.6,1,3.5,1.7,5,2.9c1.1,0.9,2.1,2.9,1.1,4.2
				c-0.7,0.9-2.4,0.7-3.5,0.6c-0.6-0.1-0.6,0.9,0,1c2.2,0.2,5.3-0.3,4.8-3.3c-0.6-3.7-4.1-4.6-6.9-6.3c0,0.3,0.1,0.5,0.1,0.8
				c0.7-0.7,1.4-1.2,2.3-1.6C112.7,11.8,112.2,10.9,111.6,11.2L111.6,11.2z"/>
		</g>
	</g>
	<g>
		<g>
			<path d="M111.5,11.8c3.5,0.1,7,0,10.4-0.7c0.6-0.1,0.4-1.1-0.3-1c-3.4,0.7-6.8,0.7-10.2,0.6C110.9,10.8,110.9,11.8,111.5,11.8
				L111.5,11.8z"/>
		</g>
	</g>
	<g>
		<g>
			<path d="M127.3,10.4c0.7-0.2,1.4-0.3,2.1-0.4c2.1-0.1,3.6,1.6,1.6,3c-1,0.7-1.9,1.3-2.3,2.4c-0.3,1,0.7,2.1,1.2,2.8
				c2.4,3.4-2.4,5.5-5.2,4.2c-0.6-0.3-1.1,0.6-0.5,0.9c2.2,1.1,4.9,0.5,6.6-1.1c2.7-2.6-2.4-5.3-0.7-7.2c1.1-1.2,4.3-2.4,2.7-4.6
				c-1.2-1.8-4.1-1.5-5.9-0.9C126.4,9.7,126.7,10.6,127.3,10.4L127.3,10.4z"/>
		</g>
	</g>
	<g>
		<g>
			<path d="M143.4,17.4c1.3-0.6,3.1-1,4.5-0.3c0.6,0.3,1.1-0.6,0.5-0.9c-1.7-0.8-3.8-0.4-5.5,0.3C142.3,16.8,142.8,17.6,143.4,17.4
				L143.4,17.4z"/>
		</g>
	</g>
	<g>
		<g>
			<path d="M143.1,21.7c1.7,0,3.3-0.2,5-0.3c0.6-0.1,0.6-1.1,0-1c-1.7,0.1-3.3,0.4-5,0.3C142.5,20.7,142.5,21.7,143.1,21.7
				L143.1,21.7z"/>
		</g>
	</g>
	<g>
		<g>
			<path d="M161.2,14.1c1.2-0.3,2.3-0.5,3.5-0.2c1.5,0.4-1.3,3-1.6,3.3c-0.2,0.2-0.2,0.5,0,0.7c1,0.8,1.9,1.8,2.5,3
				c0.3,0.6,0.6,1.3,0.4,2c-0.2,1.1-2.1,0.8-2.8,0.7c-0.6-0.1-0.9,0.9-0.3,1c1.8,0.2,4,0.2,4.1-2.1c0.1-2-1.8-4.2-3.2-5.4
				c0,0.2,0,0.5,0,0.7c1.2-1.1,2.1-2.2,2.7-3.8c0.1-0.2,0-0.4-0.2-0.6c-1.7-1.1-3.4-1-5.3-0.5C160.3,13.3,160.6,14.3,161.2,14.1
				L161.2,14.1z"/>
		</g>
	</g>
	<g>
		<g>
			<path d="M175.5,25.9c0-0.2,0.1-0.2,0.2-0.3c0.5-0.4-0.2-1.1-0.7-0.7c-0.3,0.3-0.5,0.6-0.5,1C174.5,26.5,175.5,26.5,175.5,25.9
				L175.5,25.9z"/>
		</g>
	</g>
	<g>
		<g>
			<path d="M185.4,3.5c-2.5,1.2-2.9,5-3.1,7.4c-0.4,3.2-0.4,7.4,1.4,10.2c1.1,1.8,4.2,1.5,4.3-0.9c0-2.8-4.2-3.1-5.3-0.9
				c-0.3,0.6,0.6,1.1,0.9,0.5c0.8-1.5,2.5-1.1,3.3,0.1c0.9,1.3-1.6,1.6-2.3,0.7c-1-1.5-1.2-3.7-1.3-5.4c-0.2-2.8-0.4-9.3,2.7-10.9
				C186.5,4.1,186,3.3,185.4,3.5L185.4,3.5z"/>
		</g>
	</g>
	<g>
		<g>
			<path d="M194.6,9.3c-1.4,1.4-1.6,2.7-0.3,4.2c1,1.1,2.2,1.9,3,3.2c1.8,2.9-1.2,4.4-3.6,4.4c-0.6,0-0.6,1,0,1
				c2.4,0,4.9-0.9,5.1-3.7c0.1-1.2-0.7-2.6-1.5-3.5c-1.4-1.5-4.1-2.8-2-5C195.7,9.5,195,8.8,194.6,9.3L194.6,9.3z"/>
		</g>
	</g>
	<g>
		<g>
			<path d="M193.3,12.1c2.4,0,4.9,0,7.3,0c0.6,0,0.6-1,0-1c-2.4,0-4.9,0-7.3,0C192.6,11.1,192.6,12.1,193.3,12.1L193.3,12.1z"/>
		</g>
	</g>
	<g>
		<g>
			<path d="M166.3,31.8c-0.1,0-0.1-0.1-0.2-0.1c0.4,0.5,0.9,0.7,1.5,0.4c1.3,0,2.5,0,3.8,0c2.6,0,5.1,0,7.7,0c5.1,0,10.2,0,15.3-0.4
				c0.5,0,0.7-0.7,0.3-0.9c-0.4-0.2-0.7-0.4-1.1-0.6c-0.6-0.3-1.1,0.6-0.5,0.9c0.4,0.2,0.7,0.4,1.1,0.6c0.1-0.3,0.2-0.6,0.3-0.9
				c-9.6,0.8-19.1,0.2-28.7,0.5c-0.3,0-0.5,0.2-0.5,0.5c0,0.1,0,0.2,0,0.3c0,0.2,0.1,0.3,0.2,0.4c0.1,0.1,0.3,0.2,0.4,0.3
				C166.3,33,166.8,32.1,166.3,31.8L166.3,31.8z"/>
		</g>
	</g>
	<g>
		<g>
			<path d="M161.2,35c5.2,1.7,10.7,0.8,16,0.6c3.5-0.1,7,0,10.5,0.1c1.6,0,3.2,0.1,4.9,0.1c1.2,0,2.3,0.3,3.5-0.1
				c0.3-0.1,0.5-0.5,0.3-0.7c-0.3-0.4-0.3-0.5-0.7-0.8c-0.5-0.4-1.2,0.3-0.7,0.7c0.2,0.2,0.4,0.4,0.5,0.6c0.1-0.2,0.2-0.5,0.3-0.7
				c-1.1,0.3-2.1,0.1-3.2,0c-1.6-0.1-3.2-0.1-4.9-0.1c-3.2-0.1-6.5-0.1-9.7-0.1c-5.5,0.1-11.1,1.2-16.5-0.6
				C160.9,33.8,160.6,34.8,161.2,35L161.2,35z"/>
		</g>
	</g>
	<g>
		<g>
			<path d="M163.9,36.7C171,38,178,37,185.2,36.9c2.3,0,4.6,0.1,7,0.1c1.4,0,3.5,0.1,4.7-0.7c0.5-0.4,0-1.2-0.5-0.9
				c-1.4,0.9-3.8,0.6-5.4,0.6c-2,0-4.1-0.1-6.1-0.1c-6.9,0-13.8,1.1-20.7-0.2C163.5,35.6,163.3,36.6,163.9,36.7L163.9,36.7z"/>
		</g>
	</g>
	<g>
		<g>
			<path d="M214.8,22.8c-7.2-3.5-14,4.1-12.4,11.3c1.5,6.7,10,4.8,13.2,0.8c0.2-0.2,0.2-0.6-0.1-0.8c-2.6-1.4-6.2-1-9-0.4
				c-0.6,0.1-0.4,1.1,0.3,1c2.5-0.6,5.9-1,8.2,0.3c0-0.3-0.1-0.5-0.1-0.8c-2.6,3.2-8.3,5.3-11,1c-3.8-6.3,4-14.6,10.4-11.5
				C214.9,24,215.4,23.1,214.8,22.8L214.8,22.8z"/>
		</g>
	</g>
	<g>
		<g>
			<path d="M224.4,25.6c-2.5,3.6-4.1,7.6-5.3,11.8c-0.2,0.5,0.7,0.9,0.9,0.4c1.5-3.4,1.5-8.4,4.6-10.8c-0.3,0-0.5-0.1-0.8-0.1
				c2,3.5,3.2,7.3,4.6,11.1c0.2,0.6,1.2,0.3,1-0.3c-1.3-3.9-2.6-7.7-4.7-11.3c-0.2-0.3-0.5-0.3-0.8-0.1c-3.2,2.5-3.1,7.5-4.7,11
				c0.3,0.1,0.6,0.3,0.9,0.4c1.2-4.1,2.8-8,5.2-11.5C225.6,25.6,224.8,25.1,224.4,25.6L224.4,25.6z"/>
		</g>
	</g>
	<g>
		<g>
			<path d="M218.2,32c2.8,0.1,5.7-0.1,8.4-0.7c0.6-0.1,0.4-1.1-0.3-1c-2.7,0.6-5.4,0.7-8.2,0.6C217.5,31,217.5,32,218.2,32L218.2,32
				z"/>
		</g>
	</g>
	<g>
		<g>
			<path d="M232.3,24.7c1.5,4.4,2.1,8.9,2.3,13.5c0,0.6,1,0.6,1,0c-0.3-4.7-0.8-9.3-2.3-13.8C233.1,23.8,232.1,24.1,232.3,24.7
				L232.3,24.7z"/>
		</g>
	</g>
	<g>
		<g>
			<path d="M230.2,24.2c1.5-2.4,4.8-3.1,7.4-2.7c1.4,0.2,3.5,1.1,2.2,2.6c-1.2,1.4-3.3,2-5,1.3c-0.6-0.2-0.9,0.7-0.3,1
				c2.7,1,9.6-2.4,5.5-5c-3.2-2-8.7-1.1-10.8,2.3C229,24.2,229.9,24.7,230.2,24.2L230.2,24.2z"/>
		</g>
	</g>
	<g>
		<g>
			<path d="M247.9,17.9c0,4.9,0,9.7,0,14.6c0,0.6,1,0.6,1,0c0-4.9,0-9.7,0-14.6C248.9,17.3,247.9,17.3,247.9,17.9L247.9,17.9z"/>
		</g>
	</g>
	<g>
		<g>
			<path d="M249.6,38.5c0-0.2,0-0.4,0-0.7c0-0.6-1-0.6-1,0c0,0.2,0,0.4,0,0.7C248.6,39.2,249.6,39.2,249.6,38.5L249.6,38.5z"/>
		</g>
	</g>
	<g>
		<g>
			<path d="M253.5,17c-0.1-0.1-0.2-0.3-0.3-0.4c-0.2-0.2-0.4-0.3-0.7-0.2c-1.4,0.9-0.7,4.4-0.7,5.8c0.1,2.9,0.3,5.7,0.4,8.6
				c0,0.6,1,0.6,1,0c0-2.1-0.2-4.1-0.3-6.2c-0.1-1.3-0.1-2.6-0.1-3.9c0-0.5-0.3-3.1,0.2-3.4c-0.2-0.1-0.5-0.1-0.7-0.2
				c0.1,0.1,0.2,0.3,0.3,0.4C253,18,253.9,17.5,253.5,17L253.5,17z"/>
		</g>
	</g>
	<g>
		<g>
			<path d="M253.7,37.4c0.6,0,0.6-1,0-1S253.1,37.4,253.7,37.4L253.7,37.4z"/>
		</g>
	</g>
	<g>
		<g>
			<path d="M15.1,58.5c-1,2.3-2.4,4.3-1.3,6.8c0.4,1,1.3,1.7,2.1,2.3c0.7,0.6,1.5,1,2,1.8c1.4,2-0.8,5.5-3.5,4.2
				c-0.6-0.3-1.1,0.6-0.5,0.9c3.1,1.5,5.5-1.2,5.2-4.3c-0.1-1.2-1.1-2.1-2-2.8c-1-0.8-1.9-1.4-2.6-2.5C13.5,63,15.2,60.7,16,59
				C16.2,58.5,15.4,57.9,15.1,58.5L15.1,58.5z"/>
		</g>
	</g>
	<g>
		<g>
			<path d="M12.7,58.9c3.1,0.6,6.3,0.7,9.4,0.7c0.6,0,0.6-1,0-1c-3.1,0.1-6.1,0-9.2-0.6C12.4,57.8,12.1,58.8,12.7,58.9L12.7,58.9z"
				/>
		</g>
	</g>
	<g>
		<g>
			<path d="M26.1,58.4c-1.6,1.5-2.8,3.4-2.3,5.7c0.6,2.7,4.9,5.5,1.3,7.7c0.2,0.1,0.5,0.2,0.7,0.3c-1.1-3.4,6.6-12.1-0.7-12.5
				c-0.6,0-0.6,1,0,1c5.4,0.3-1.2,8.8-0.2,11.8c0.1,0.3,0.4,0.5,0.7,0.3c1.6-0.9,2.9-2.3,1.8-4.2c-0.6-1.1-1.5-2.1-2.2-3.1
				c-1.5-2.3-0.2-4.6,1.5-6.2C27.3,58.7,26.6,58,26.1,58.4L26.1,58.4z"/>
		</g>
	</g>
	<g>
		<g>
			<path d="M32.5,60.6c0.6,0,0.6-1,0-1C31.8,59.6,31.8,60.6,32.5,60.6L32.5,60.6z"/>
		</g>
	</g>
	<g>
		<g>
			<path d="M39.6,56.7c-1.7,6.6-6,12.1-8.6,18.3c-0.2,0.6,0.7,0.9,1,0.3c2.6-6.2,7-11.6,8.6-18.3C40.8,56.3,39.8,56,39.6,56.7
				L39.6,56.7z"/>
		</g>
	</g>
	<g>
		<g>
			<path d="M41.8,69.6c0.6,0,0.6-1,0-1C41.1,68.6,41.1,69.6,41.8,69.6L41.8,69.6z"/>
		</g>
	</g>
	<g>
		<g>
			<path d="M63.8,65.5c-1.2-1.6-2.5-0.2-3.1,1.2c-0.8,2-1.5,4.8-0.9,7c0.4,1.4,2.5,4.3,4,2.3c1.5-2.1,0.3-5-1.4-6.5
				c-0.5-0.4-1.2,0.3-0.7,0.7c1.3,1.2,2.1,2.9,1.6,4.6c-0.6,2.4-2.6-1-2.7-2c-0.1-1.3,0.1-2.8,0.5-4.1c0.1-0.5,1-3.7,1.8-2.6
				C63.3,66.5,64.2,66,63.8,65.5L63.8,65.5z"/>
		</g>
	</g>
	<g>
		<g>
			<path d="M69.5,63.1c0,9.3,0,18.6-0.3,27.9c0,0.6,1,0.6,1,0c0.3-9.3,0.3-18.6,0.3-27.9C70.5,62.5,69.5,62.5,69.5,63.1L69.5,63.1z"
				/>
		</g>
	</g>
	<g>
		<g>
			<path d="M65.5,76.9c4.3-0.8,8.4-2.2,12.6-3.3c0.6-0.2,0.4-1.1-0.3-1c-4.2,1.1-8.3,2.5-12.6,3.3C64.6,76,64.9,77,65.5,76.9
				L65.5,76.9z"/>
		</g>
	</g>
	<g>
		<g>
			<path d="M99.8,56c-4.3,0.8-3.1,5.4-1.9,8.4c0.7,1.7,1.6,3.4,2.3,5.1c0.5,1.4,0.9,2.8,0.9,4.3c0,1.4-0.6,2.5-1.9,3
				c-1.2,0.5-4.7-0.4-2.8-2.7c0.4-0.5-0.3-1.2-0.7-0.7c-3.4,4.4,6.1,7,6.4,0.4c0.1-2.6-1.2-5.2-2.3-7.4c-1.2-2.5-4.2-8.6,0.3-9.4
				C100.7,56.8,100.4,55.9,99.8,56L99.8,56z"/>
		</g>
	</g>
	<g>
		<g>
			<path d="M104.4,70.5c1,4.2,1.7,8.9,4.8,12.1c0.3,0.3,0.7,0.1,0.8-0.2c1.2-3,0.7-6.3,2.1-9.3c-0.2,0.1-0.5,0.1-0.7,0.2
				c2.1,1.3,5.7,8.9,8.9,6.4c3.6-2.9,2.5-8.9,1.6-12.8c-0.1-0.6-1.1-0.4-1,0.3c0.8,3.8,1.8,8.7-1.4,11.8c-1.6,1.6-6.3-5.7-7.7-6.6
				c-0.2-0.1-0.6-0.1-0.7,0.2c-1.4,3.1-1,6.5-2.2,9.5c0.3-0.1,0.6-0.1,0.8-0.2c-3-3.1-3.6-7.7-4.6-11.7
				C105.2,69.7,104.3,69.9,104.4,70.5L104.4,70.5z"/>
		</g>
	</g>
	<g>
		<g>
			<path d="M130.4,76.5c1.7-1.3,3.6-3.4,3.7-5.6c0-0.9-0.7-1.7-1.5-2c-1.4-0.4-2.7,0.3-3.7,1.2c-1.9,1.7-1.8,4.4,0.2,5.9
				c1.9,1.4,5,1.4,7.3,1.2c0.6-0.1,0.6-1.1,0-1c-2.4,0.2-7.7,0.4-7.9-3.1c-0.1-1.3,0.9-2.3,2-3c1.3-0.8,2.9-0.1,2.5,1.5
				c-0.4,1.5-1.9,3.1-3.1,4C129.4,76,129.9,76.9,130.4,76.5L130.4,76.5z"/>
		</g>
	</g>
	<g>
		<g>
			<path d="M146.9,69.3c-3.7-1.1-5.8,3.4-5.2,6.4c0.4,2.2,2.7,2.9,4,1.1c2.1-2.7,2.7-6.6,3.5-9.8c0.6-2.9,1.4-6,1.4-8.9
				c0-0.6-0.8-0.6-1-0.1c-1.9,5.2-1.5,12.2,0.5,17.3c2.5,6.1,8.3,1.7,10.6-2c1.1-1.7,1.7-4.3,0.2-6c-1.7-1.8-4.3,1.2-5.1,2.3
				c-1.2,1.7-1.6,4.6,0,6.2c2,2,4.5,1.3,6.5-0.2c0.5-0.4,0-1.3-0.5-0.9c-2,1.5-4.8,2.1-5.9-0.8c-0.4-1,0-2.2,0.4-3.2
				c0.4-0.8,3.4-4.8,4.4-1.8c1.1,3.4-4,9-7.4,8.5c-3.1-0.5-3.6-7.3-3.7-9.5c-0.3-3.2-0.2-6.6,1-9.6c-0.3,0-0.7-0.1-1-0.1
				c-0.1,4.1-1.2,8.5-2.3,12.4c-0.6,2-1.2,4.6-2.7,6.1c-1.2,1.2-1.9-1.2-2-2c-0.1-2.2,1.6-5.1,4.1-4.4
				C147.2,70.4,147.5,69.5,146.9,69.3L146.9,69.3z"/>
		</g>
	</g>
	<g>
		<g>
			<path d="M165.9,67.8c0,3.3-1.7,7.8,0.7,10.6c0.2,0.2,0.5,0.2,0.7,0c1.9-2.5,3.9-7.5,7.6-7.6c3.7-0.1,2.7,8.2,4.4,10.5
				c0.4,0.5,1.2,0,0.9-0.5c-1.7-2.5-0.7-13.5-6.8-10.7c-2.6,1.2-4.1,3.9-5.7,6.2c-0.6,0.9-0.8,0.9-1.1-0.2c-0.3-0.9-0.2-2-0.1-2.9
				c0.1-1.8,0.5-3.6,0.5-5.5C166.9,67.1,165.9,67.1,165.9,67.8L165.9,67.8z"/>
		</g>
	</g>
	<g>
		<g>
			<path d="M189.9,69.6c2,0,3.9-0.5,5.8,0c0.6,0.1,0.9-0.8,0.3-1c-2-0.5-4.1,0-6.1,0C189.3,68.6,189.3,69.6,189.9,69.6L189.9,69.6z"
				/>
		</g>
	</g>
	<g>
		<g>
			<path d="M191.6,72.9c1.5,0.1,3.4-0.2,4.8-0.7c0.6-0.2,0.3-1.2-0.3-1c-1.3,0.5-3.1,0.8-4.5,0.6C191,71.9,191,72.9,191.6,72.9
				L191.6,72.9z"/>
		</g>
	</g>
	<g>
		<g>
			<path d="M211.7,56c-0.6,2.1-1.2,3.9,1,5c2.7,1.4,8.6,7.1,3,8.9c-0.6,0.2-0.3,1.2,0.3,1c3.3-1.1,3.5-3.9,1.9-6.7
				c-0.8-1.5-2.1-2.6-3.5-3.4c-0.6-0.3-1.2-0.6-1.8-0.9c-1.1-0.6-0.2-2.7,0.1-3.6C212.9,55.6,211.9,55.4,211.7,56L211.7,56z"/>
		</g>
	</g>
	<g>
		<g>
			<path d="M213.8,58.6c3.6-2.1,7.9-2,11.8-2.6c0.6-0.1,0.4-1.1-0.3-1c-4.1,0.6-8.4,0.6-12.1,2.7C212.7,58,213.2,58.9,213.8,58.6
				L213.8,58.6z"/>
		</g>
	</g>
	<g>
		<g>
			<path d="M234,56.3c-0.7,2.2-2.8,5.8-1.4,8c0.5,0.8,1,1.7,1.9,2.3c0.5,0.4,1.1,0.7,1.7,1.1c2.3,1.5,1.4,5.2-1.8,3.9
				c-0.6-0.2-0.9,0.7-0.3,1c3.1,1.2,5.9-1.6,3.9-4.6c-1-1.5-3-1.8-4-3.4c-0.7-1.1-0.9-1.6-0.5-2.9c0.4-1.7,1.1-3.4,1.6-5
				C235.1,56,234.2,55.7,234,56.3L234,56.3z"/>
		</g>
	</g>
	<g>
		<g>
			<path d="M234.9,60.6c3.6-1,7.4-1.7,11.2-1.6c0.6,0,0.6-1,0-1c-3.9,0-7.7,0.6-11.4,1.7C234,59.8,234.3,60.8,234.9,60.6L234.9,60.6
				z"/>
		</g>
	</g>
	<g>
		<g>
			<path d="M255.2,55.3c-4.3-1.5-7.5,4.2-6.6,7.9c0.1,0.2,0.3,0.4,0.5,0.4c3.1-0.2,4.4-3.2,5.7-5.6c-0.3,0-0.6,0-0.9,0
				c2.3,4.7,0.9,10.7,1.3,15.8c0,0.6,1,0.6,1,0c-0.4-5.3,1-11.3-1.4-16.3c-0.2-0.3-0.7-0.3-0.9,0c-0.5,0.9-1,1.8-1.5,2.7
				c-0.4,0.6-3,3.5-3,1.4c0-2.7,2.5-6.4,5.5-5.3C255.5,56.5,255.8,55.5,255.2,55.3L255.2,55.3z"/>
		</g>
	</g>
	<g>
		<g>
			<path d="M264.9,54.6c0.6,4.6,0,9.3,0.7,14c0.1,0.6,1.1,0.4,1-0.3c-0.6-4.6,0-9.3-0.7-14C265.8,53.7,264.8,54,264.9,54.6
				L264.9,54.6z"/>
		</g>
	</g>
	<g>
		<g>
			<path d="M284.1,55c-5.3-1.7-6,6.6-4.4,9.8c1.1,2.3,4.1,3.2,5.9,1.3c2.9-3.1,0.5-7.1-0.9-10.2c-0.3-0.6-1.1-0.1-0.9,0.5
				c1.2,2.8,2.9,5.2,1.5,8.3c-1.4,3.1-4.6,0.8-5.2-1.5c-0.7-2.4-0.1-8.5,3.7-7.2C284.5,56.1,284.7,55.2,284.1,55L284.1,55z"/>
		</g>
	</g>
	<g>
		<g>
			<path d="M292,54.4c-3,1.9-2,3.8-0.2,6.2c0.6,0.8,1.2,1.7,1.7,2.5c0.6,1,2.1,3.3-0.2,2.5c-0.6-0.2-0.9,0.7-0.3,1
				c2,0.7,3.1-0.2,2.2-2.3c-0.5-1.2-1.2-2.3-2-3.3c-1.3-1.9-3.7-3.9-0.8-5.7C293.1,54.9,292.6,54,292,54.4L292,54.4z"/>
		</g>
	</g>
	<g>
		<g>
			<path d="M291.1,53.3c4.1-0.7,8.3-0.9,12.5-1c0.6,0,0.6-1,0-1c-4.3,0-8.5,0.3-12.8,1C290.2,52.4,290.4,53.4,291.1,53.3L291.1,53.3
				z"/>
		</g>
	</g>
	<g>
		<g>
			<path d="M313.8,50.7c-6-3.3-10.5,10.9-6.3,14.5c2.6,2.1,4.8,0,5.6-2.5c1-3.1,0.8-8-1.9-10.2c-0.5-0.4-1.2,0.3-0.7,0.7
				c1.9,1.6,2.2,4.4,2.1,6.7c-0.1,2.1-1.2,6.5-4.1,4.8c-4.4-2.5,0.2-15.6,4.8-13.1C313.9,51.9,314.4,51,313.8,50.7L313.8,50.7z"/>
		</g>
	</g>
	<g>
		<g>
			<path d="M334,54.7c-0.1-0.7-0.1-0.6-0.5-1.1c-0.2-0.3-0.8-0.3-0.9,0.1c-0.5,3-0.1,6.1-0.1,9.1c0,1.9,0,3.9-0.1,5.8
				c0,0.8,0,4.1-1,4.4c-0.6,0.2-0.4,1.2,0.3,1c2.2-0.7,1.8-5.7,1.9-7.4c0.1-4.1-0.6-8.5,0.1-12.6c-0.3,0-0.6,0.1-0.9,0.1
				c0.1,0.3,0.2,0.6,0.4,0.9C333.1,55.6,334.1,55.3,334,54.7L334,54.7z"/>
		</g>
	</g>
	<g>
		<g>
			<path d="M328.9,49.7c2.4-3.6,7.6-1.7,8.6,2c1.1,4-4.1,6.8-7.2,7.6c-0.6,0.1-0.4,1.1,0.3,1c4.1-1,10-5,7.5-10
				c-1.9-3.8-7.6-4.9-10.1-1.1C327.7,49.8,328.6,50.3,328.9,49.7L328.9,49.7z"/>
		</g>
	</g>
	<g>
		<g>
			<path d="M337.6,58.6c1.1,3.3,5.1,3.7,7.9,2.4c2.2-1,4.1-4.9,1.7-6.7c-1.7-1.3-4.3,1-5.1,2.5c-1.6,3,1.7,4.6,4.1,5.1
				c0.6,0.1,0.9-0.8,0.3-1c-1.7-0.3-4.4-1.1-3.6-3.4c0.4-1.3,1.9-2.5,3.3-2.5c0.9,0,1.1,1,1.1,1.7c0,1.4-0.7,2.5-1.9,3.2
				c-2.1,1.3-5.8,1-6.8-1.7C338.4,57.7,337.4,58,337.6,58.6L337.6,58.6z"/>
		</g>
	</g>
	<g>
		<g>
			<path d="M352.9,53c-3.7,0.6-4.1,7.6-0.3,8.3c5,0.8,2.2-6.1,0.4-7.8c-0.5-0.4-1.2,0.3-0.7,0.7c1.2,1.1,3.9,6.1,0.8,6.1
				c-3.1,0-2.7-5.9,0.1-6.3C353.8,53.9,353.6,52.9,352.9,53L352.9,53z"/>
		</g>
	</g>
	<g>
		<g>
			<path d="M356.9,53c-2.2,6.1,2.3,13.3-1.7,18.8c0.3,0,0.6,0,0.9,0c-2.3-3.4,0.3-9.6,1.9-12.7c1-1.9,2.4-4.1,4.4-4.9
				c2.2-0.9,1.8,1.7,1.1,2.9c-1,2-3.6,2.9-5.6,1.9c-0.6-0.3-1.1,0.6-0.5,0.9c3.2,1.7,6.8-0.6,7.6-3.9c0.9-3.5-2.3-3.5-4.4-1.9
				c-2.8,2.2-4.3,5.8-5.4,9.1c-0.8,2.6-1.8,6.6,0,9.1c0.2,0.3,0.6,0.3,0.9,0c4.1-5.8-0.5-12.9,1.8-19.1
				C358.1,52.7,357.1,52.4,356.9,53L356.9,53z"/>
		</g>
	</g>
	<g>
		<g>
			<path d="M366.6,44.1c2.1,3.8,1.7,8.5,1.6,12.7c0,0.6,1,0.6,1,0c0.1-4.4,0.4-9.2-1.7-13.2C367.1,43,366.3,43.5,366.6,44.1
				L366.6,44.1z"/>
		</g>
	</g>
	<g>
		<g>
			<path d="M370.1,58.6c3.1-0.6,7.7-2.8,6.3-6.6c-0.1-0.2-0.2-0.3-0.5-0.4c-2.9-0.3-5,2.6-3.9,5.4c1,2.6,4.8,3,7.1,3.3
				c0.6,0.1,0.9-0.9,0.3-1c-2.7-0.4-9.5-2-5.8-6c1.1-1.2,2.3-0.9,2,0.7c-0.2,0.9-1,1.6-1.7,2.1c-1.2,0.8-2.7,1.3-4.1,1.6
				C369.2,57.8,369.5,58.7,370.1,58.6L370.1,58.6z"/>
		</g>
	</g>
	<g>
		<g>
			<path d="M123.4,112c2.1-1.1,7.7-3.4,6.9,1.5c-0.3,2.3-2.4,4.1-3.2,6.3c-0.1,0.2,0.1,0.6,0.3,0.6c1.9,0.4,4,0.6,5.6,1.9
				c3.2,2.7-2.7,5.9-4.9,6.1c-0.6,0-0.6,1,0,1c2.3-0.2,6.8-2.2,6.7-5.2c-0.2-3.7-4.2-4.2-7.1-4.8c0.1,0.2,0.2,0.4,0.3,0.6
				c1.2-3,4.8-6,2.6-9.4c-1.7-2.6-5.8-0.5-7.7,0.5C122.3,111.5,122.9,112.3,123.4,112L123.4,112z"/>
		</g>
	</g>
	<g>
		<g>
			<path d="M139.1,128.4c0.6,0,0.6-1,0-1S138.5,128.4,139.1,128.4L139.1,128.4z"/>
		</g>
	</g>
	<g>
		<g>
			<path d="M147.3,107.5c-3.2,0.4-4.3,4.9-4.7,7.5c-0.6,3.2-0.6,7.9,2.2,10.1c1.8,1.4,5.2,1.1,4.7-1.8c-0.4-2.9-3-3.6-5.1-1.8
				c-0.1,0.1-0.2,0.3-0.1,0.5c0,0.1,0.1,0.3,0.1,0.4c0.1,0.2,0.3,0.4,0.5,0.4c0.2,0,0.4,0,0.5,0c0.6,0,0.6-1,0-1
				c1-0.1,1.5-0.7,2.4,0.2c0.6,0.6,0.9,1.7,0.5,2.5c-0.6,1.3-2.8,0-3.4-0.5c-0.8-0.8-1.1-2-1.4-3c-0.7-3.1-0.3-11.8,4-12.4
				C148.2,108.3,147.9,107.4,147.3,107.5L147.3,107.5z"/>
		</g>
	</g>
	<g>
		<g>
			<path d="M154.4,113.3c-1.3,1.6-1,2.8,0.6,4c1.3,0.9,2.6,1.3,3.3,3c0.9,2.3-3.3,3-4.7,3.2c-0.6,0.1-0.4,1.1,0.3,1
				c1.9-0.3,6.1-1.2,5.5-4c-0.3-1.2-0.9-2.1-1.9-2.8c-1.3-0.9-4-1.6-2.4-3.6C155.5,113.5,154.8,112.8,154.4,113.3L154.4,113.3z"/>
		</g>
	</g>
	<g>
		<g>
			<path d="M153.1,111.1c3.8,0.4,7.7,0.6,11.5,1.3c0.6,0.1,0.9-0.8,0.3-1c-3.9-0.7-7.8-1-11.8-1.3
				C152.4,110.1,152.4,111.1,153.1,111.1L153.1,111.1z"/>
		</g>
	</g>
	<g>
		<g>
			<path d="M169.7,116.2c-0.9,1-1.5,2.1-2.1,3.3c-0.4,0.8-1.4,3.4-2.5,3.6c-0.6,0.1-0.6,1.1,0,1c1.2-0.1,1.8-1.3,2.4-2.2
				c1-1.6,1.7-3.5,3-4.9C170.8,116.5,170.1,115.8,169.7,116.2L169.7,116.2z"/>
		</g>
	</g>
	<g>
		<g>
			<path d="M164.9,117.8c1,1.4,2,2.9,3.4,4.1c0.5,0.4,1.2-0.3,0.7-0.7c-1.3-1.1-2.2-2.5-3.2-3.9
				C165.4,116.8,164.5,117.3,164.9,117.8L164.9,117.8z"/>
		</g>
	</g>
	<g>
		<g>
			<path d="M178.9,109.4c-1.8,2.3-2.9,4.7-0.5,6.9c1.3,1.2,2.9,2.1,4.3,3.3c3.5,3.2-0.3,6.3-3.7,6.5c-0.6,0-0.6,1,0,1
				c3.3-0.2,6.7-2.1,5.9-5.8c-0.4-1.8-2.3-3.1-3.6-4.1c-1-0.8-2.2-1.4-3-2.5c-1.1-1.5,0.6-3.6,1.5-4.7
				C180.1,109.4,179.3,108.9,178.9,109.4L178.9,109.4z"/>
		</g>
	</g>
	<g>
		<g>
			<path d="M180.4,110.1c2.8-1,5.8-0.9,8.7-0.3c0.6,0.1,0.9-0.8,0.3-1c-3-0.6-6.3-0.7-9.2,0.3C179.6,109.4,179.8,110.3,180.4,110.1
				L180.4,110.1z"/>
		</g>
	</g>
	<g>
		<g>
			<path d="M194.2,109.4c-1.1,2.1-0.9,3.6,0.9,5.2c1,0.8,2.1,1.5,3,2.5c3.2,3.4-1.1,5.6-4.1,5.7c-0.6,0-0.6,1,0,1
				c2.8-0.1,6.2-1.3,6.1-4.7c-0.1-4.2-7.3-4.7-5-9.2C195.3,109.3,194.5,108.8,194.2,109.4L194.2,109.4z"/>
		</g>
	</g>
	<g>
		<g>
			<path d="M193.4,109.4c3.4-0.5,6.8-0.4,10.2-0.3c0.6,0,0.6-1,0-1c-3.5,0-7-0.2-10.4,0.4C192.5,108.6,192.8,109.5,193.4,109.4
				L193.4,109.4z"/>
		</g>
	</g>
	<g>
		<g>
			<path d="M213.7,109.3c0-4.8-7.2-1.8-8,1.2c-0.6,2.3,1.1,4.1,3.2,4.3c2.7,0.2,3.4-3.6,4.4-5.2c-0.3-0.1-0.6-0.2-0.9-0.3
				c0.4,5.2-0.7,10.4-1,15.6c0,0.6,1,0.6,1,0c0.3-5.2,1.4-10.4,1-15.6c0-0.5-0.7-0.7-0.9-0.3c-0.5,0.9-0.9,1.9-1.3,2.8
				c-1.2,2.6-4.5,2.3-4.5-0.7c0-2.7,6.1-5,6.1-1.9C212.7,109.9,213.7,109.9,213.7,109.3L213.7,109.3z"/>
		</g>
	</g>
	<g>
		<g>
			<path d="M219.7,105.2c2.8,4.6,0.8,10.5,1.6,15.5c0.1,0.6,1.1,0.4,1-0.3c-0.9-5.2,1.1-11-1.7-15.7
				C220.3,104.2,219.4,104.7,219.7,105.2L219.7,105.2z"/>
		</g>
	</g>
	<g>
		<g>
			<path d="M243.3,110.1c0.8,2.5,4.4,4.6,3.9,7.4c-0.5,2.8-4.6,2.6-4.9-0.2c-0.1-0.6-1.1-0.6-1,0c0.4,3,3.5,4.1,5.8,2.2
				c3.7-3-1.9-7-2.8-9.7C244,109.2,243.1,109.5,243.3,110.1L243.3,110.1z"/>
		</g>
	</g>
	<g>
		<g>
			<path d="M245.2,107.8c3.2-1.3,6.8-1.1,10.2-1c0.6,0,0.6-1,0-1c-3.5-0.1-7.1-0.3-10.4,1C244.4,107.1,244.6,108,245.2,107.8
				L245.2,107.8z"/>
		</g>
	</g>
	<g>
		<g>
			<path d="M262.7,104.6c-2.4-2.1-4.9,1.4-5.9,3.2c-1.7,2.8-3.4,7.5-1.6,10.7c2,3.4,5.8,0.7,6.9-1.8c1.4-3.3,1.7-8.5-0.7-11.4
				c-0.4-0.5-1.1,0.2-0.7,0.7c1.8,2.2,1.6,5.9,1,8.5c-0.5,2.4-3.7,7-5.9,3.2c-1.6-2.8,3-15.2,6.2-12.4
				C262.5,105.8,263.2,105,262.7,104.6L262.7,104.6z"/>
		</g>
	</g>
	<g>
		<g>
			<path d="M270.1,110.4c1.2-0.5,2.5-0.6,3.7-0.7c0.6-0.1,1.2-0.1,1.8-0.1c0.2,0,0.5,0,0.7,0c0.6,0,0.4,0.2,0.4-0.3c0,0.6,1,0.6,1,0
				c-0.1-1.7-6.9-0.2-7.9,0.2C269.3,109.7,269.5,110.7,270.1,110.4L270.1,110.4z"/>
		</g>
	</g>
	<g>
		<g>
			<path d="M268.6,114.4c2.6,0.4,5.3,0.1,7.7-1c0.6-0.3,0.1-1.1-0.5-0.9c-2.1,1.1-4.6,1.3-6.9,0.9
				C268.2,113.4,267.9,114.3,268.6,114.4L268.6,114.4z"/>
		</g>
	</g>
	<g>
		<g>
			<path d="M286.9,105.4c1.8-1.1,4-1.4,6-1.6c0.4,0,2.2,0.2,2.1-0.4c0,0.3-0.3,0.8-0.5,1.1c-1.2,2.2-2.7,4.2-3.9,6.3
				c-1.5,2.5-3.3,6.9,1.4,6.3c0.6-0.1,0.4-1.1-0.3-1c-4.1,0.6-0.1-5.2,0.9-6.7c0.9-1.4,3.6-4.2,3.3-6.1c0-0.3-0.2-0.5-0.5-0.5
				c-3-0.2-6.5,0.2-9.1,1.7C285.8,104.9,286.3,105.7,286.9,105.4L286.9,105.4z"/>
		</g>
	</g>
	<g>
		<g>
			<path d="M286.6,121.4c0.4,0,0.9,0,1.3,0c0.6,0,0.6-1,0-1c-0.4,0-0.9,0-1.3,0C286,120.4,286,121.4,286.6,121.4L286.6,121.4z"/>
		</g>
	</g>
	<g>
		<g>
			<path d="M302.8,107.7c0.3-0.2,4.7-1.5,4.6-1.2c-0.1,0.6-0.6,1.2-0.9,1.7c-0.9,1.3-2.1,2.5-3,3.8c-1.4,1.9-2,4.2,0.5,5.3
				c0.6,0.3,1.1-0.6,0.5-0.9c-4.3-1.9,4-7.4,4-10.2c0-0.2-0.1-0.5-0.4-0.5c-2.1-0.3-3.9,0.1-5.8,1.1
				C301.8,107.2,302.3,108,302.8,107.7L302.8,107.7z"/>
		</g>
	</g>
	<g>
		<g>
			<path d="M300.7,121c0.4,0.3,0.9,0.3,1.3-0.1c0.5-0.4-0.2-1.1-0.7-0.7c0,0,0-0.1-0.1-0.1C300.6,119.8,300.1,120.6,300.7,121
				L300.7,121z"/>
		</g>
	</g>
	<g>
		<g>
			<path d="M234.6,107c-2.7-3.8-6.2-2-8.3,1.3c-2.3,3.6-3.6,9.3-0.7,12.9c3.1,3.9,7.9,1.6,9.9-1.9c2.4-4.1,1.6-9.5-2.8-11.8
				c-0.6-0.3-1.1,0.6-0.5,0.9c8.3,4.3,0.2,18.7-5.9,12.2c-4.3-4.6,2.9-19.4,7.5-13C234.1,108,235,107.5,234.6,107L234.6,107z"/>
		</g>
	</g>
</g>
</svg>
