<?xml version="1.0" encoding="utf-8"?>
<!-- Generator: Adobe Illustrator 17.1.0, SVG Export Plug-In . SVG Version: 6.00 Build 0)  -->
<!DOCTYPE svg PUBLIC "-//W3C//DTD SVG 1.1//EN" "http://www.w3.org/Graphics/SVG/1.1/DTD/svg11.dtd">
<svg version="1.1" xmlns="http://www.w3.org/2000/svg" xmlns:xlink="http://www.w3.org/1999/xlink" x="0px" y="0px"
	 viewBox="0 0 297.6 422.4" enable-background="new 0 0 297.6 422.4" xml:space="preserve">
<g id="Layer_1">
	<path fill="#459AD5" stroke="#1D71B8" stroke-width="0.5" stroke-miterlimit="10" d="M282.8,143.8c4.9,0,9.9,0,14.8,0"/>
	<path fill="#459AD5" stroke="#1D71B8" stroke-width="0.5" stroke-miterlimit="10" d="M1.7,144.1C81,144,160,144,239.4,143.8"/>
	<line fill="#459AD5" stroke="#1D71B8" stroke-width="0.5" stroke-miterlimit="10" x1="0.8" y1="288.6" x2="296.8" y2="288.3"/>
	<line fill="#459AD5" stroke="#1D71B8" stroke-width="0.5" stroke-miterlimit="10" x1="1" y1="216" x2="297" y2="215.7"/>
	<line fill="#459AD5" stroke="#1D71B8" stroke-width="0.5" stroke-miterlimit="10" x1="1.7" y1="360.6" x2="297.6" y2="360.2"/>
	<line fill="none" stroke="#1D71B8" stroke-width="0.5" stroke-miterlimit="10" x1="71.3" y1="422.4" x2="367.3" y2="422"/>
	<line fill="none" stroke="#1D71B8" stroke-width="0.5" stroke-miterlimit="10" x1="0.8" y1="0.3" x2="296.8" y2="0"/>
	<line fill="none" stroke="#1D71B8" stroke-width="0.5" stroke-miterlimit="10" x1="72.3" y1="422.4" x2="72.3" y2="0"/>
	<line fill="none" stroke="#1D71B8" stroke-width="0.5" stroke-miterlimit="10" x1="288" y1="422.4" x2="288" y2="0"/>
	<line fill="none" stroke="#1D71B8" stroke-width="0.5" stroke-miterlimit="10" x1="144.7" y1="422.4" x2="144.7" y2="0"/>
	<line fill="none" stroke="#1D71B8" stroke-width="0.5" stroke-miterlimit="10" x1="216.4" y1="422.4" x2="216.4" y2="0"/>
	<line fill="none" stroke="#1D71B8" stroke-width="0.25" stroke-miterlimit="10" x1="17.3" y1="422.4" x2="17.3" y2="0"/>
	<line fill="none" stroke="#1D71B8" stroke-width="0.25" stroke-miterlimit="10" x1="36.3" y1="422.4" x2="36.3" y2="0"/>
	<line fill="none" stroke="#1D71B8" stroke-width="0.25" stroke-miterlimit="10" x1="54.7" y1="422.4" x2="54.7" y2="0"/>
	<line fill="none" stroke="#1D71B8" stroke-width="0.25" stroke-miterlimit="10" x1="90.5" y1="422.4" x2="90.5" y2="0"/>
	<line fill="none" stroke="#1D71B8" stroke-width="0.25" stroke-miterlimit="10" x1="109" y1="422.4" x2="109" y2="0"/>
	<line fill="none" stroke="#1D71B8" stroke-width="0.25" stroke-miterlimit="10" x1="126" y1="422.4" x2="126" y2="0"/>
	<line fill="none" stroke="#1D71B8" stroke-width="0.25" stroke-miterlimit="10" x1="162" y1="423" x2="162" y2="0.6"/>
	<line fill="none" stroke="#1D71B8" stroke-width="0.25" stroke-miterlimit="10" x1="180" y1="422.4" x2="180" y2="0"/>
	<line fill="#459AD5" stroke="#1D71B8" stroke-width="0.25" stroke-miterlimit="10" x1="1" y1="18" x2="297" y2="17.7"/>
	<line fill="none" x1="0" y1="36" x2="296" y2="35.7"/>
	<line fill="none" x1="1.7" y1="55.3" x2="297.6" y2="55"/>
	<line fill="none" x1="1.7" y1="115.9" x2="297.6" y2="115.6"/>
	<text transform="matrix(1 -1.125059e-03 1.125059e-03 1 36.062 115.9023)"><tspan x="0" y="0" font-family="'Noteworthy-Light'" font-size="14">5</tspan><tspan x="9.4" y="0" font-family="'Noteworthy-Light'" font-size="14">8</tspan><tspan x="18.7" y="0" font-family="'Noteworthy-Light'" font-size="14">%</tspan><tspan x="30" y="0" font-family="'Noteworthy-Light'" font-size="14"> </tspan><tspan x="33.6" y="0" font-family="'Noteworthy-Light'" font-size="14">o</tspan><tspan x="40.1" y="0" font-family="'Noteworthy-Light'" font-size="14">f</tspan><tspan x="45.1" y="0" font-family="'Noteworthy-Light'" font-size="14"> </tspan><tspan x="48.8" y="0" font-family="'Noteworthy-Light'" font-size="14">S</tspan><tspan x="56.7" y="0" font-family="'Noteworthy-Light'" font-size="14">w</tspan><tspan x="65.6" y="0" font-family="'Noteworthy-Light'" font-size="14">e</tspan><tspan x="71.5" y="0" font-family="'Noteworthy-Light'" font-size="14">d</tspan><tspan x="78" y="0" font-family="'Noteworthy-Light'" font-size="14">e</tspan><tspan x="83.9" y="0" font-family="'Noteworthy-Light'" font-size="14">n</tspan><tspan x="90.3" y="0" font-family="'Noteworthy-Light'" font-size="14"> </tspan><tspan x="94" y="0" font-family="'Noteworthy-Light'" font-size="14">=</tspan><tspan x="100.9" y="0" font-family="'Noteworthy-Light'" font-size="14"> </tspan><tspan x="104.6" y="0" font-family="'Noteworthy-Light'" font-size="14">5</tspan><tspan x="114" y="0" font-family="'Noteworthy-Light'" font-size="14"> </tspan><tspan x="117.7" y="0" font-family="'Noteworthy-Light'" font-size="14">5</tspan><tspan x="127.1" y="0" font-family="'Noteworthy-Light'" font-size="14">9</tspan><tspan x="135.3" y="0" font-family="'Noteworthy-Light'" font-size="14">1</tspan><tspan x="138.4" y="0" font-family="'Noteworthy-Light'" font-size="14"> </tspan><tspan x="142.1" y="0" font-family="'Noteworthy-Light'" font-size="14">0</tspan><tspan x="151.8" y="0" font-family="'Noteworthy-Light'" font-size="14">5</tspan><tspan x="161.2" y="0" font-family="'Noteworthy-Light'" font-size="14">0</tspan><tspan x="170.9" y="0" font-family="'Noteworthy-Light'" font-size="14"> </tspan><tspan x="174.6" y="0" font-family="'Noteworthy-Light'" font-size="14">p</tspan><tspan x="180.7" y="0" font-family="'Noteworthy-Light'" font-size="14">e</tspan><tspan x="186.6" y="0" font-family="'Noteworthy-Light'" font-size="14">o</tspan><tspan x="193.1" y="0" font-family="'Noteworthy-Light'" font-size="14">p</tspan><tspan x="199.2" y="0" font-family="'Noteworthy-Light'" font-size="14">l</tspan><tspan x="201.4" y="0" font-family="'Noteworthy-Light'" font-size="14">e</tspan></text>
	<line fill="#459AD5" stroke="#1D71B8" stroke-width="0.25" stroke-miterlimit="10" x1="0" y1="90.3" x2="296" y2="90"/>
	<line fill="#459AD5" stroke="#1D71B8" stroke-width="0.25" stroke-miterlimit="10" x1="1.7" y1="73.5" x2="297.6" y2="73.1"/>
	<line fill="none" x1="1.7" y1="126" x2="297.6" y2="125.7"/>
	<line fill="#459AD5" stroke="#1D71B8" stroke-width="0.25" stroke-miterlimit="10" x1="1.7" y1="162" x2="297.6" y2="161.7"/>
	<line fill="#459AD5" stroke="#1D71B8" stroke-width="0.25" stroke-miterlimit="10" x1="1" y1="180" x2="297" y2="179.7"/>
	<line fill="#459AD5" stroke="#1D71B8" stroke-width="0.25" stroke-miterlimit="10" x1="1.7" y1="194.7" x2="297.6" y2="194.3"/>
	<line fill="none" stroke="#1D71B8" stroke-width="0.25" stroke-miterlimit="10" x1="198.6" y1="422.4" x2="198.6" y2="0"/>
	<line fill="#459AD5" stroke="#1D71B8" stroke-width="0.25" stroke-miterlimit="10" x1="1" y1="234.3" x2="297" y2="234"/>
	<line fill="#459AD5" stroke="#1D71B8" stroke-width="0.25" stroke-miterlimit="10" x1="0" y1="252.3" x2="296" y2="252"/>
	<line fill="#459AD5" stroke="#1D71B8" stroke-width="0.25" stroke-miterlimit="10" x1="1" y1="270" x2="297" y2="269.7"/>
	<line fill="none" stroke="#1D71B8" stroke-width="0.25" stroke-miterlimit="10" x1="234" y1="423" x2="234" y2="0.6"/>
	<line fill="#459AD5" stroke="#1D71B8" stroke-width="0.25" stroke-miterlimit="10" x1="0" y1="306.3" x2="296" y2="306"/>
	<line fill="#459AD5" stroke="#1D71B8" stroke-width="0.25" stroke-miterlimit="10" x1="0" y1="325" x2="296" y2="324.7"/>
	<line fill="#459AD5" stroke="#1D71B8" stroke-width="0.25" stroke-miterlimit="10" x1="0" y1="342.3" x2="296" y2="342"/>
	<line fill="#459AD5" stroke="#1D71B8" stroke-width="0.25" stroke-miterlimit="10" x1="1" y1="378.3" x2="297" y2="378"/>
	<line fill="#459AD5" stroke="#1D71B8" stroke-width="0.25" stroke-miterlimit="10" x1="1" y1="396" x2="297" y2="395.7"/>
	<line fill="#459AD5" stroke="#1D71B8" stroke-width="0.25" stroke-miterlimit="10" x1="0" y1="414" x2="296" y2="413.7"/>
	<line fill="none" stroke="#1D71B8" stroke-width="0.25" stroke-miterlimit="10" x1="252" y1="423" x2="252" y2="0.6"/>
	<line fill="none" stroke="#1D71B8" stroke-width="0.25" stroke-miterlimit="10" x1="269.5" y1="422.4" x2="269.5" y2="0"/>
	<line fill="#459AD5" stroke="#1D71B8" stroke-width="0.25" stroke-miterlimit="10" x1="0" y1="36.5" x2="296" y2="36.2"/>
	<text transform="matrix(1 0 0 1 45 171)" font-family="'Noteworthy-Light'" font-size="14">3.65 x 5 591 050 ?</text>
</g>
<g id="Layer_2">
	<g id="Vector_Grime" opacity="0.9">
		<path d="M217.2,223c-0.6-0.7-1.9-0.2-2,0.4c-0.2,0.7,1,0.9,1,1.5c1.9,0.4,1.8-1.2,2.6-1.8c-0.1-0.1-0.2-0.3-0.3-0.4
			C217.8,222.6,217.5,222.8,217.2,223z"/>
		<path d="M246.9,121.5c-0.6-0.1-0.6,0.3-1.2,0.3c-0.7-0.2-0.7-0.8-1-1.2c-0.6-0.1-0.5,0.3-1.2,0.2c-0.4-0.1-0.6-0.4-0.9-0.7
			c-1.3,0.2-1.6-0.3-2.3-0.6c-0.3,0.2-0.3,0.5-0.7,0.5c-1.4-0.4-1.5,0.9-3,0.4c-0.5,1.1-1.8,1.8-3.6,1.7c-0.1,0.6,1,0.5,1.2,0.9
			c0.3,0.9-0.5,1.1-0.6,1.7c0.5,0.6,0.8,1.4,1,2.4c0.7,0,0.9,0.4,1.2,0.7c0.8-0.1,1.3,0.1,1.4,0.4c0.2,0.5-0.3,0.7-0.3,1.1
			c0.7-0.2,1.2-0.6,2.2-0.6c0.6,0.3,1.1,0.8,2.5,0.6c0.1-0.3,0.3-0.5,0.7-0.6c0.4,0.1,0.4,0.6,1,0.6c0.5-0.2-0.2-1.1,0.7-1.2
			c0.6,0,0.4,0.5,1.2,0.4c0.2-0.5,0.2-0.6,0-1.1c1-0.4,1.2,0.5,1.7,0.3c0-0.4-0.7-0.4-0.7-0.8c0.7-0.6-0.2-1.8,0.7-2.3
			c0.6-0.2,2.7,0.3,3.6-0.2C247.6,125,245.3,123.2,246.9,121.5z"/>
		<path d="M239,220.2c1,0.1,2.1,0.2,3.2,0.3C241.8,220,239.9,220,239,220.2z"/>
		<path d="M264.9,158c0.6,0.1,1.2,0.1,0.9,0.7c0.7-0.1,1.5,0.2,2,0.5c1.1-0.2,1.7,0,2.5,0.2c0.3-0.8,1.5-1.1,2.5-1.5
			c-0.2-0.5-0.1-0.9,0.6-1c0.2-1-0.9-1.4-0.3-2.3c-1.5-0.2-1.9-1.1-3-1.6c-0.1,0.2-0.3,0.4-0.7,0.4c-0.4-0.1-0.4-0.4-0.9-0.4
			c-0.2,0.5-1,0.6-1.7,0.4c-0.4,0.7-1.2,1.2-2.2,1.5c0.8,0.5-0.1,1.2-0.4,1.5C264.3,157,265,157.2,264.9,158z"/>
		<path d="M268.3,216.2c0.7,0.7,1.9,0.2,3.5,0.4C271.4,216,269.4,216.1,268.3,216.2z"/>
		<path d="M241.4,213.1c1.1-0.6,2.3-1,3-1.8C243.3,211.8,241.8,212.5,241.4,213.1z"/>
		<path d="M261.2,134.2c0.3,0.2,0.2,0.4,0.6,0.4c0.5-0.6,1.2-0.6,1.8-1.2c0.6-0.5,1-1.5,1.7-1.6c-0.1-0.4,0.1-1,0.7-1.4
			c-0.5-0.7,0.4-1.8-0.5-2.4c0.2-0.2,0.3-0.4,0.3-0.5c-0.2-0.3-0.4,0.2-0.6-0.1c-0.1-0.3,0.2-0.7,0-0.9c-0.7,0.6-1.3,0.1-2,0
			c-0.7,0.6-1.4,0.3-2.1,1c0.5-1.1,0.7-2.1-0.1-2.8c-2.8,1.9,0,4.2-2.5,6.5c0.4,1.2,0.2,3,1.8,3c0.1,0.3-0.3,0.7,0,0.9
			C260.6,134.9,260.9,134.2,261.2,134.2z"/>
		<path d="M277.3,129.1v-0.4c-0.8-0.2-0.7-0.1-1.4,0.2c-0.5-0.3-0.9-0.1-1.4-0.3c-0.2,0.4-0.7,0.7-1.7,0.6c-0.5,0.8-1.9,1.4-1.9,2.5
			c0,0.6,0.8,1.1,0.3,1.6c-2.4-1.7-8.1,0.1-11-0.5c0.4-0.8,0.9-1.4,1.3-2.2c0.5-0.1,1.2-0.5,0.7-1c-1.9,0.5-1.9,2.3-3.9,2.7
			c-0.8-0.6-1.7-0.8-2.6-1.4c-0.1-1.5-1.1-2.2-1.9-3.1c-0.3-0.4-0.2-0.9-1-0.9c-0.1,0.1-0.2,0.2-0.4,0.3c-0.1,0.6,0.4,0.7,0.3,1.3
			c-1.5,0.6-4-0.2-5.7-0.7c-0.2,0.6,0.3,0.8,0.3,1.3c-1.5,0.5-2.5-0.2-3.9,0.2c-0.8-0.3-1.1-1-2.2-1.2c-1-0.6-1.1-1.7-2.3-2.1
			c0,0.7,0.4,0.8,0.9,1.2c0.5,0.5,0.9,1.4,1.4,1.8c0.7,0.6,1.5,0.7,1.4,1.3c-0.1,0.8-1.4,0.8-2.3,1.2c-0.9,2.8-5.5,1.9-8.7,1.2
			c1.9,0.7,4.3,0.9,5.9,1.8c-1.1,0.6-2.1,1.2-2.8,2.1c-0.9,0-1.1-0.5-2.2-0.4c-0.1,0.6,0.8,0.4,1,0.7c-2.2,0.4-3.2-1-5.7-0.7
			c0-0.1-0.2-0.2-0.3-0.3c-0.1-0.4,0.3-0.4,0.3-0.7c-0.6-0.3-1.1-0.8-1-1.4c-1-0.3-1.9-0.8-2-1.7c-0.7-0.1-0.4,0.5-1.2,0.4
			c-0.4-0.8-1.1-0.3-2.2-0.6c-0.2,0.1-0.2,0.4-0.4,0.5c-1.6-0.2-1.6,0.6-2.5,0.8c-1-0.3-1.5-0.8-2.6-0.5c0,0.5,1.4,0.2,1.6,0.6
			c-0.5,0.9-0.9,2-1.6,2.8c0.6,0.3,1,0.8,0.6,1.5c0.9,0.6,1.8,1.2,2.2,1.9c0.5,0.1,0.6-0.2,1-0.2c0.5,0.2,0.9,0.4,1,0.9
			c1.4-0.5,3-0.5,4.5-0.7c0.2-0.1,0-0.6,0.3-0.7c0.4,0,0.8-0.1,1.2-0.2c0.4-0.1-0.1-0.5,0.1-0.5c2,0.2,5.1,0,6.7,0.9
			c0.5,1.1,0.8,2.1,0,3.2c-0.3,0.1-1-0.1-1.6,0c-0.4-0.1-0.2-0.5-0.7-0.5c-2.5,0.3-4.3,1.2-5.1,2.7c0.2,0.5,0.3,1.1,0.3,1.7
			c0.7,1,2.2,1.4,3.2,2.2c0.3-0.4,1.4-0.3,1.9-0.1c1.6-0.6,3.2-1.2,3.8-2.5c2.2,0,2.2,1.4,3.6,2c-0.4,1.5-1.1,2.8-1.6,4.2
			c1.1-0.6,1.5-1.8,1.7-3.2c0.6-0.1,1-0.4,1.6-0.5c0.4,0.2,1,0.3,1,0.8c0,0.4-0.5,0.4-0.6,0.7c1.7-0.1,4.4-0.2,4.2,1.6
			c0.8,0.2,0.5-0.4,1.2-0.4c1.4,0.7,1.7,3.5,0.9,4.5c-0.9-0.7-0.8-1.9-2.5-1.8c-1.7,0.1-2,1.8-0.9,2.8c1.5,0.3,2.8,1,3.6-0.2
			c1.5,0.9,0.6,3.2-0.9,3.8c-0.6,0.1-1.2,0.2-1.3,0.6c0.1,0,0.2,0.1,0.1,0.2c0.5,0.2,1.6,0.1,2.3,0.1c0.4,0.5,1,0.9,1,1.6
			c-0.4,0.3-1.6,0.6-1.3,1.1c0.4-0.5,2-0.7,2.8-0.3c0.1,0.4,0.2,0.7,0.3,1c1,0.3,1.9,0.9,3.2,0.7c0.4,0.3,0.2,1,0.7,1.2
			c0.8,0,0.6-0.7,1.4-0.6c0.3,0.3-0.1,1.2,0.7,1.1c0.6-0.1,0.3-0.8,0.7-1.1c1.2-0.2,1.9,0,3,0c0.2,0.1,0.2,0.4,0.4,0.5
			c0.1-0.2-0.4-0.4,0-0.5c0.6,0,0.6,0.4,1.4,0.3c0-0.1,0-0.3-0.1-0.4c-2.5-2.8-1.3-8.5,3.6-8.5c0.3,0,0.6,0,0.8,0.1
			c-0.1-0.6,0.1-0.7,0.2-1.3c-1-0.2-1.8-0.5-1.7-1.4c-1.1-0.1-2.1-0.3-2-1.3c-0.3-0.3-1-0.2-1.2-0.5c0.2,0,0.5-0.4,0.1-0.5
			c-0.3,0.6-2,0.2-2.5-0.1c-0.6,0.1-0.6,0.5-1.3,0.5c-0.1-0.2-0.3-0.2-0.3-0.5c1-0.5,3-0.3,4.1-0.7c0-1.1-0.7-2.1,0.1-3.2
			c0.1,0,0.2-0.1,0.3-0.1c0.2,0.2,0.6,0.2,1.2,0.2c1.3,1.2,3.5,1.3,5.2,2.1c-0.9-1.2-4.9-1.1-4.3-3.6c-0.9-0.2-0.8,0.9-1.4,0.6
			c0.3-0.8,1.6-1,2.2-1.6c3.5-0.7,5.8,1.5,9.1,0.7c1-2.7-6.3-2.2-6.5-4.2c-0.2-1.2,1.5-0.9,2.6-1.2c-0.4-0.8-2.1-0.2-2.6-0.7
			c-0.1-0.9,1.2-0.9,1.9-1.2c-0.2-1,0.9-1,1.4-1.7c-0.4-0.5-1.7-0.4-1.9-1c0.8-0.8,1.9-2.5,3.8-1.6c0.8-0.5,1.4,0,2,0.4
			c0.5-0.4,1.1-0.2,1.9-0.1c1-0.9,3.3-1.5,2.5-3c0-0.4,0.6-0.5,0.6-0.9C279,130.5,278.9,129.3,277.3,129.1z M254.4,151.8
			c0.4-0.1,1.4,0,1.3,0.5C255.2,152.6,254.5,152.2,254.4,151.8z M264,147.1c0.7,0.2,0.7,0.8,1,1.2
			C264.3,148.1,263.2,147.6,264,147.1z"/>
		<path fill="none" d="M267.4,215.6c0,1.1,0,2.2,0,3.3"/>
		<path fill="none" d="M258.9,215.6c0,1.5,0,3.1,0,4.6"/>
	</g>
</g>
<g id="Layer_4">
	<text transform="matrix(1 0 0 1 36 63)"><tspan x="0" y="0" font-family="'Noteworthy-Light'" font-size="14">6.42 - 2.53 = 3.65</tspan><tspan x="120.4" y="0" font-family="'Noteworthy-Light'" font-size="14" letter-spacing="19">	</tspan><tspan x="144" y="0" font-family="'Noteworthy-Light'" font-size="14">GAP!!!</tspan></text>
</g>
</svg>
