<?xml version="1.0" encoding="utf-8"?>
<!-- Generator: Adobe Illustrator 17.1.0, SVG Export Plug-In . SVG Version: 6.00 Build 0)  -->
<!DOCTYPE svg PUBLIC "-//W3C//DTD SVG 1.1//EN" "http://www.w3.org/Graphics/SVG/1.1/DTD/svg11.dtd">
<svg version="1.1" id="Lager_1" xmlns="http://www.w3.org/2000/svg" xmlns:xlink="http://www.w3.org/1999/xlink" x="0px" y="0px"
	 viewBox="210.5 50 770 770" enable-background="new 210.5 50 770 770" xml:space="preserve">
<g>
	<g>
		<g>
			<path fill="#FFFFFF" d="M562.624,453.986c0,0,10.917-0.475,6.645-9.968c-2.119-4.708-4.957-12.112-1.898-19.461
				c3.057-7.348,8.927-12.925,18.967-10.552c0,0-6.633-12.823-5.477-21.176c0.714-5.154,7.312-10.608,14.97-8.762
				c4.63,1.116,10.588,4.017,17.89,12.414l-3.651,1.826l-0.73,14.24c0,0,13.025,5.782,16.064,15.335
				c2.556,8.032,2.68,13.552-7.667,26.288"/>
			<g>
				<path d="M562.624,455.681c4.775-0.281,9.138-2.82,9.325-7.97c0.087-2.385-1.374-4.845-2.233-6.961
					c-1.804-4.447-2.422-9.017-1.404-13.737c1.816-8.413,9.433-12.961,17.575-11.371c1.48,0.289,2.615-1.116,1.914-2.489
					c-3.071-6.021-6.571-14.226-5.039-21.062c1.54-6.868,10.316-7.349,15.555-5.474c5.704,2.041,10.259,6.668,14.205,11.065
					c0.114-0.887,0.228-1.775,0.344-2.662c-1.217,0.609-2.434,1.217-3.651,1.826c-0.543,0.272-0.81,0.889-0.839,1.463
					c-0.243,4.747-0.487,9.493-0.73,14.24c-0.028,0.541,0.332,1.233,0.84,1.463c5.754,2.61,11.211,6.7,14.398,12.216
					c5.582,9.664-0.289,19.137-6.343,26.745c-1.346,1.691,1.036,4.107,2.396,2.396c4.719-5.931,9.565-12.37,9.606-20.269
					c0.036-7.203-3.831-13.539-9.107-18.11c-2.273-1.969-4.856-3.598-7.491-5.034c-0.547-0.298-1.106-0.573-1.67-0.836
					c0.54,1.476,0.801,1.806,0.783,0.988c0.034-0.667,0.068-1.333,0.103-1.999c0.16-3.121,0.32-6.24,0.48-9.361
					c0.025-0.496,0.051-0.991,0.076-1.487c0.084-1.63,0.223,0.003-0.52,0.375c1.126-0.564,2.254-1.126,3.381-1.69
					c1.026-0.513,1.029-1.897,0.344-2.662c-7.893-8.795-20.856-18.715-32.096-9.299c-8.18,6.853-1.806,21.318,2.051,28.878
					c0.638-0.829,1.276-1.66,1.914-2.49c-10.846-2.117-18.264,3.672-21.745,13.739c-1.929,5.577-0.089,12.252,2.172,17.415
					c2.106,4.81,0.859,8.446-4.591,8.767C560.453,452.419,560.44,455.809,562.624,455.681L562.624,455.681z"/>
			</g>
		</g>
		<g>
			<path fill="#FFFFFF" d="M608.245,418.752c0,0,10.953,32.86,1.461,63.529l8.032,2.921l-41.257,2.921c0,0,7.667-48.56,6.206-63.164
				c0,0-7.613-0.036-7.247,9.091c0.366,9.127,14.613,23.714-10.442,29.427"/>
			<g>
				<path d="M606.611,419.203c6.502,19.767,7.333,42.706,1.461,62.629c-0.277,0.939,0.329,1.774,1.184,2.085
					c2.678,0.974,5.354,1.947,8.032,2.921c0.15-1.11,0.301-2.219,0.451-3.329c-13.753,0.974-27.506,1.947-41.257,2.921
					c0.545,0.715,1.089,1.43,1.634,2.146c1.324-8.41,2.483-16.846,3.553-25.292c1.582-12.481,3.818-25.715,2.714-38.323
					c-0.079-0.904-0.711-1.716-1.695-1.695c-7.989,0.171-9.97,8.56-8.169,14.987c1.148,4.096,3.198,7.922,3.568,12.216
					c0.641,7.436-7.823,9.967-13.539,11.378c-2.122,0.523-1.221,3.792,0.902,3.269c8.895-2.195,17.235-6.454,15.774-16.796
					c-0.733-5.193-9.587-21.428,1.465-21.663c-0.565-0.565-1.13-1.13-1.695-1.695c1.033,11.791-0.981,24.104-2.399,35.784
					c-1.093,8.995-2.338,17.978-3.748,26.929c-0.158,1.007,0.434,2.23,1.634,2.146c13.753-0.974,27.506-1.947,41.257-2.921
					c1.943-0.138,2.263-2.67,0.451-3.329c-2.678-0.974-5.354-1.947-8.032-2.921c0.394,0.695,0.789,1.39,1.184,2.085
					c6.037-20.477,5.223-44.114-1.461-64.431C609.2,416.236,605.925,417.121,606.611,419.203L606.611,419.203z"/>
			</g>
		</g>
		<g>
			<line fill="none" x1="597.292" y1="457.089" x2="594.371" y2="486.298"/>
			<g>
				<path d="M595.597,457.089c-0.974,9.736-1.947,19.472-2.921,29.209c-0.217,2.175,3.174,2.154,3.39,0
					c0.974-9.736,1.947-19.472,2.921-29.209C599.204,454.915,595.812,454.935,595.597,457.089L595.597,457.089z"/>
			</g>
		</g>
		<g>
			<line fill="none" x1="617.738" y1="446.136" x2="613.356" y2="451.612"/>
			<g>
				<path d="M616.539,444.937c-1.461,1.826-2.921,3.651-4.382,5.476c-0.576,0.721-0.707,1.69,0,2.396
					c0.599,0.599,1.819,0.722,2.396,0c1.461-1.826,2.921-3.651,4.382-5.477c0.576-0.721,0.707-1.69,0-2.396
					C618.338,444.338,617.118,444.215,616.539,444.937L616.539,444.937z"/>
			</g>
		</g>
		<g>
			<g>
				<path d="M609.945,429.709c1.288,0.818,2.415,1.877,3.418,3.019c2.528,2.876,1.738,5.743-1.227,7.928
					c-1.74,1.281-0.052,4.226,1.711,2.926c3.746-2.759,5.688-6.406,3.576-10.858c-1.154-2.431-3.523-4.518-5.767-5.943
					C609.805,425.607,608.106,428.542,609.945,429.709L609.945,429.709z"/>
			</g>
		</g>
		<g>
			<g>
				<path d="M609.82,406.527c-2.45-1.737-6.256-1.451-9.088-1.354c-2.648,0.09-5.304,0.372-7.925,0.755
					c-2.156,0.314-1.236,3.581,0.902,3.269c1.883-0.275,3.786-0.437,5.684-0.564c2.53-0.169,6.515-0.739,8.716,0.821
					C609.897,410.721,611.588,407.78,609.82,406.527L609.82,406.527z"/>
			</g>
		</g>
		<g>
			<ellipse fill="#FFFFFF" cx="601.404" cy="396.414" rx="0.115" ry="0.155"/>
			<g>
				<path d="M599.885,395.963c-0.011,0.036-0.023,0.072-0.034,0.11c0.26-0.338,0.52-0.676,0.778-1.012
					c-0.027,0.015-0.054,0.031-0.081,0.045c0.571,0,1.14,0,1.711,0c-0.027-0.015-0.054-0.031-0.081-0.045
					c0.26,0.338,0.52,0.676,0.779,1.012c-0.011-0.036-0.023-0.072-0.034-0.11c0,0.301,0,0.601,0,0.902
					c0.011-0.036,0.023-0.072,0.034-0.11c-0.26,0.338-0.52,0.676-0.779,1.012c0.027-0.015,0.054-0.031,0.081-0.045
					c-0.571,0-1.14,0-1.711,0c0.027,0.015,0.054,0.031,0.081,0.045c-0.26-0.338-0.52-0.676-0.778-1.012
					c0.011,0.036,0.023,0.072,0.034,0.11c0.273,0.881,1.173,1.435,2.085,1.184c0.869-0.238,1.458-1.202,1.184-2.085
					c-0.245-0.788-0.886-1.399-1.75-1.399c-0.995,0-1.81,0.867-1.81,1.85c0,0.824,0.566,1.571,1.36,1.789
					c1.015,0.279,1.909-0.402,2.201-1.338c0.275-0.882-0.315-1.846-1.184-2.085C601.058,394.529,600.16,395.082,599.885,395.963z"/>
			</g>
		</g>
	</g>
	<g>
		<g>
			<path d="M563.545,460.568c2.935-0.245,5.911-2.123,8.403-3.505c1.912-1.06,0.202-3.987-1.711-2.926
				c-1.77,0.981-3.569,1.945-5.473,2.643c-0.384,0.141-0.775,0.262-1.172,0.364c-0.276,0.07-0.708,0.09-0.047,0.035
				C561.384,457.359,561.365,460.75,563.545,460.568L563.545,460.568z"/>
		</g>
	</g>
</g>
<g>
	<g>
		<g>
			<path fill="#FFFFFF" d="M647.364,500.311c0,0,10.917-0.475,6.645-9.968c-2.119-4.708-4.957-12.112-1.898-19.461
				c3.057-7.348,8.927-12.925,18.967-10.552c0,0-6.633-12.823-5.477-21.176c0.714-5.154,7.312-10.608,14.97-8.762
				c4.63,1.116,10.588,4.017,17.89,12.414l-3.651,1.826l-0.73,14.24c0,0,13.025,5.782,16.065,15.335
				c2.556,8.032,2.68,13.552-7.667,26.288"/>
			<g>
				<path d="M647.364,502.006c4.775-0.281,9.138-2.82,9.325-7.97c0.087-2.385-1.374-4.845-2.233-6.961
					c-1.804-4.447-2.422-9.017-1.404-13.737c1.816-8.413,9.433-12.961,17.575-11.371c1.48,0.289,2.615-1.116,1.914-2.489
					c-3.071-6.021-6.571-14.226-5.039-21.062c1.54-6.868,10.316-7.349,15.555-5.474c5.704,2.041,10.259,6.668,14.205,11.065
					c0.114-0.887,0.228-1.775,0.343-2.662c-1.217,0.609-2.434,1.217-3.651,1.826c-0.543,0.272-0.81,0.889-0.84,1.463
					c-0.243,4.747-0.487,9.493-0.73,14.24c-0.028,0.541,0.332,1.233,0.839,1.463c5.754,2.61,11.211,6.7,14.398,12.216
					c5.582,9.664-0.289,19.137-6.343,26.745c-1.346,1.691,1.036,4.107,2.396,2.396c4.719-5.931,9.565-12.37,9.606-20.269
					c0.036-7.203-3.831-13.539-9.107-18.11c-2.273-1.969-4.856-3.598-7.491-5.034c-0.547-0.298-1.106-0.573-1.67-0.836
					c0.54,1.476,0.801,1.806,0.783,0.988c0.034-0.667,0.068-1.333,0.103-1.999c0.16-3.121,0.32-6.24,0.48-9.361
					c0.025-0.496,0.051-0.991,0.076-1.487c0.084-1.63,0.223,0.003-0.52,0.375c1.127-0.564,2.254-1.126,3.381-1.69
					c1.026-0.513,1.029-1.897,0.343-2.662c-7.893-8.795-20.856-18.715-32.096-9.299c-8.18,6.853-1.805,21.318,2.051,28.878
					c0.638-0.829,1.276-1.66,1.914-2.49c-10.846-2.117-18.264,3.672-21.745,13.739c-1.929,5.577-0.089,12.252,2.172,17.415
					c2.106,4.81,0.859,8.446-4.591,8.767C645.193,498.744,645.18,502.133,647.364,502.006L647.364,502.006z"/>
			</g>
		</g>
		<g>
			<path fill="#FFFFFF" d="M692.985,465.077c0,0,10.953,32.86,1.461,63.529l8.032,2.921l-41.257,2.921c0,0,7.667-48.56,6.206-63.164
				c0,0-7.613-0.036-7.247,9.091c0.366,9.127,14.613,23.714-10.442,29.427"/>
			<g>
				<path d="M691.351,465.528c6.502,19.767,7.333,42.706,1.461,62.629c-0.277,0.939,0.329,1.774,1.184,2.085
					c2.678,0.974,5.354,1.947,8.032,2.921c0.15-1.11,0.301-2.219,0.451-3.329c-13.753,0.974-27.506,1.947-41.257,2.921
					c0.545,0.715,1.089,1.43,1.634,2.146c1.324-8.41,2.483-16.846,3.553-25.292c1.582-12.481,3.818-25.715,2.714-38.323
					c-0.079-0.904-0.711-1.716-1.695-1.695c-7.989,0.171-9.97,8.56-8.169,14.987c1.148,4.096,3.198,7.922,3.568,12.216
					c0.641,7.436-7.823,9.967-13.539,11.378c-2.122,0.523-1.221,3.792,0.902,3.269c8.895-2.195,17.235-6.454,15.774-16.796
					c-0.733-5.193-9.587-21.428,1.465-21.663c-0.565-0.565-1.13-1.13-1.695-1.695c1.033,11.791-0.981,24.104-2.399,35.784
					c-1.093,8.995-2.338,17.978-3.748,26.929c-0.158,1.007,0.434,2.23,1.634,2.146c13.753-0.974,27.506-1.947,41.257-2.921
					c1.943-0.138,2.263-2.67,0.451-3.329c-2.678-0.974-5.354-1.947-8.032-2.921c0.394,0.695,0.789,1.39,1.184,2.085
					c6.037-20.477,5.223-44.113-1.461-64.431C693.94,462.561,690.666,463.446,691.351,465.528L691.351,465.528z"/>
			</g>
		</g>
		<g>
			<line fill="none" x1="682.032" y1="503.414" x2="679.112" y2="532.623"/>
			<g>
				<path d="M680.337,503.414c-0.974,9.736-1.947,19.472-2.921,29.209c-0.217,2.175,3.174,2.154,3.39,0
					c0.974-9.736,1.947-19.472,2.921-29.209C683.944,501.24,680.552,501.26,680.337,503.414L680.337,503.414z"/>
			</g>
		</g>
		<g>
			<line fill="none" x1="702.478" y1="492.461" x2="698.097" y2="497.937"/>
			<g>
				<path d="M701.28,491.262c-1.461,1.826-2.921,3.651-4.382,5.476c-0.576,0.721-0.707,1.69,0,2.396
					c0.599,0.599,1.819,0.722,2.396,0c1.461-1.826,2.921-3.651,4.382-5.477c0.576-0.721,0.707-1.69,0-2.396
					C703.078,490.663,701.858,490.54,701.28,491.262L701.28,491.262z"/>
			</g>
		</g>
		<g>
			<g>
				<path d="M694.686,476.033c1.288,0.818,2.414,1.877,3.418,3.019c2.528,2.876,1.738,5.743-1.227,7.928
					c-1.74,1.281-0.052,4.226,1.711,2.926c3.746-2.759,5.688-6.406,3.576-10.858c-1.154-2.431-3.523-4.518-5.767-5.943
					C694.546,471.932,692.846,474.866,694.686,476.033L694.686,476.033z"/>
			</g>
		</g>
		<g>
			<g>
				<path d="M694.56,452.852c-2.45-1.737-6.256-1.451-9.088-1.354c-2.648,0.09-5.304,0.372-7.925,0.755
					c-2.156,0.314-1.236,3.581,0.902,3.269c1.883-0.275,3.786-0.437,5.684-0.564c2.53-0.169,6.515-0.739,8.716,0.821
					C694.637,457.046,696.328,454.105,694.56,452.852L694.56,452.852z"/>
			</g>
		</g>
		<g>
			<ellipse fill="#FFFFFF" cx="686.144" cy="442.738" rx="0.115" ry="0.155"/>
			<g>
				<path d="M684.625,442.288c-0.011,0.036-0.023,0.072-0.034,0.11c0.26-0.338,0.52-0.676,0.779-1.012
					c-0.027,0.015-0.054,0.031-0.081,0.045c0.571,0,1.14,0,1.711,0c-0.027-0.015-0.054-0.031-0.081-0.045
					c0.26,0.338,0.52,0.676,0.778,1.012c-0.011-0.036-0.023-0.072-0.034-0.11c0,0.301,0,0.601,0,0.902
					c0.011-0.036,0.023-0.072,0.034-0.11c-0.26,0.338-0.52,0.676-0.778,1.012c0.027-0.015,0.054-0.031,0.081-0.045
					c-0.571,0-1.14,0-1.711,0c0.027,0.015,0.054,0.031,0.081,0.045c-0.26-0.338-0.52-0.676-0.779-1.012
					c0.011,0.036,0.023,0.072,0.034,0.11c0.273,0.881,1.173,1.435,2.085,1.184c0.869-0.238,1.458-1.202,1.184-2.085
					c-0.245-0.788-0.886-1.399-1.75-1.399c-0.995,0-1.81,0.867-1.81,1.85c0,0.824,0.566,1.571,1.36,1.789
					c1.015,0.279,1.909-0.402,2.201-1.338c0.275-0.882-0.315-1.846-1.184-2.085C685.798,440.854,684.9,441.406,684.625,442.288z"/>
			</g>
		</g>
	</g>
	<g>
		<g>
			<path d="M648.285,506.892c2.935-0.245,5.911-2.123,8.403-3.505c1.912-1.06,0.202-3.987-1.711-2.926
				c-1.771,0.981-3.569,1.944-5.473,2.643c-0.384,0.141-0.775,0.262-1.172,0.364c-0.276,0.07-0.708,0.09-0.047,0.035
				C646.124,503.684,646.106,507.074,648.285,506.892L648.285,506.892z"/>
		</g>
	</g>
</g>
<g>
	<g>
		<g>
			<path fill="#FFFFFF" d="M624.857,378.126c0,0,10.917-0.475,6.645-9.968c-2.119-4.708-4.957-12.112-1.898-19.461
				c3.057-7.348,8.927-12.925,18.967-10.552c0,0-6.633-12.823-5.476-21.176c0.714-5.154,7.312-10.608,14.97-8.762
				c4.63,1.116,10.588,4.017,17.89,12.414l-3.651,1.826l-0.73,14.24c0,0,13.025,5.782,16.064,15.335
				c2.556,8.032,2.68,13.552-7.667,26.288"/>
			<g>
				<path d="M624.857,379.821c4.775-0.281,9.138-2.82,9.325-7.97c0.087-2.385-1.374-4.845-2.233-6.961
					c-1.804-4.447-2.422-9.017-1.404-13.737c1.816-8.413,9.433-12.961,17.575-11.371c1.48,0.289,2.615-1.116,1.914-2.489
					c-3.071-6.021-6.571-14.226-5.039-21.062c1.54-6.868,10.316-7.349,15.555-5.474c5.704,2.041,10.259,6.668,14.205,11.065
					c0.114-0.887,0.228-1.775,0.343-2.662c-1.217,0.609-2.434,1.217-3.651,1.826c-0.543,0.272-0.81,0.889-0.84,1.463
					c-0.243,4.747-0.487,9.493-0.73,14.24c-0.028,0.541,0.332,1.233,0.839,1.463c5.754,2.61,11.212,6.7,14.398,12.216
					c5.582,9.664-0.289,19.137-6.343,26.745c-1.346,1.691,1.036,4.107,2.396,2.396c4.719-5.931,9.565-12.37,9.606-20.269
					c0.036-7.203-3.831-13.539-9.107-18.11c-2.273-1.969-4.856-3.598-7.491-5.034c-0.547-0.298-1.106-0.573-1.67-0.836
					c0.54,1.476,0.801,1.806,0.783,0.987c0.034-0.667,0.068-1.333,0.103-1.999c0.16-3.121,0.32-6.24,0.48-9.361
					c0.025-0.496,0.051-0.991,0.076-1.487c0.084-1.63,0.223,0.003-0.52,0.375c1.127-0.564,2.254-1.126,3.381-1.69
					c1.026-0.513,1.029-1.897,0.343-2.662c-7.893-8.795-20.856-18.715-32.096-9.299c-8.18,6.853-1.805,21.318,2.051,28.878
					c0.638-0.829,1.276-1.66,1.914-2.489c-10.846-2.117-18.264,3.672-21.745,13.739c-1.929,5.577-0.089,12.252,2.172,17.415
					c2.106,4.81,0.86,8.446-4.591,8.767C622.685,376.56,622.672,379.949,624.857,379.821L624.857,379.821z"/>
			</g>
		</g>
		<g>
			<path fill="#FFFFFF" d="M670.478,342.893c0,0,10.953,32.86,1.461,63.529l8.032,2.921l-41.257,2.921c0,0,7.667-48.56,6.206-63.164
				c0,0-7.613-0.036-7.247,9.091c0.366,9.127,14.613,23.714-10.442,29.427"/>
			<g>
				<path d="M668.843,343.344c6.502,19.767,7.333,42.706,1.461,62.629c-0.277,0.939,0.329,1.774,1.184,2.085
					c2.678,0.974,5.354,1.947,8.032,2.921c0.15-1.11,0.301-2.219,0.451-3.329c-13.753,0.974-27.506,1.947-41.257,2.921
					c0.545,0.715,1.089,1.43,1.634,2.146c1.324-8.41,2.483-16.846,3.553-25.292c1.582-12.481,3.818-25.715,2.714-38.323
					c-0.079-0.904-0.711-1.716-1.695-1.695c-7.989,0.171-9.97,8.56-8.169,14.987c1.148,4.096,3.198,7.922,3.568,12.216
					c0.641,7.436-7.823,9.967-13.539,11.378c-2.122,0.523-1.221,3.793,0.902,3.269c8.895-2.195,17.235-6.453,15.774-16.796
					c-0.733-5.193-9.587-21.428,1.465-21.664c-0.565-0.565-1.13-1.13-1.695-1.695c1.033,11.791-0.981,24.104-2.399,35.784
					c-1.093,8.995-2.338,17.978-3.748,26.929c-0.158,1.007,0.434,2.23,1.634,2.146c13.753-0.974,27.506-1.947,41.257-2.921
					c1.943-0.138,2.263-2.67,0.451-3.329c-2.678-0.974-5.354-1.947-8.032-2.921c0.394,0.695,0.789,1.39,1.184,2.085
					c6.037-20.477,5.223-44.114-1.461-64.431C671.432,340.376,668.159,341.261,668.843,343.344L668.843,343.344z"/>
			</g>
		</g>
		<g>
			<line fill="none" x1="659.524" y1="381.229" x2="656.603" y2="410.439"/>
			<g>
				<path d="M657.829,381.229c-0.974,9.736-1.947,19.472-2.921,29.209c-0.217,2.175,3.174,2.154,3.39,0
					c0.974-9.736,1.947-19.472,2.921-29.209C661.437,379.054,658.045,379.076,657.829,381.229L657.829,381.229z"/>
			</g>
		</g>
		<g>
			<line fill="none" x1="679.97" y1="370.277" x2="675.59" y2="375.753"/>
			<g>
				<path d="M678.773,369.078c-1.461,1.826-2.921,3.651-4.382,5.477c-0.576,0.721-0.707,1.69,0,2.396
					c0.599,0.599,1.819,0.722,2.396,0c1.461-1.826,2.921-3.651,4.382-5.476c0.576-0.721,0.707-1.69,0-2.396
					C680.57,368.479,679.35,368.356,678.773,369.078L678.773,369.078z"/>
			</g>
		</g>
		<g>
			<g>
				<path d="M672.179,353.849c1.288,0.818,2.415,1.877,3.418,3.019c2.527,2.876,1.738,5.743-1.227,7.928
					c-1.74,1.281-0.052,4.226,1.711,2.926c3.745-2.759,5.688-6.406,3.576-10.858c-1.154-2.431-3.523-4.518-5.767-5.943
					C672.037,349.748,670.338,352.682,672.179,353.849L672.179,353.849z"/>
			</g>
		</g>
		<g>
			<g>
				<path d="M672.053,330.668c-2.45-1.737-6.256-1.451-9.088-1.354c-2.648,0.09-5.304,0.372-7.925,0.755
					c-2.156,0.314-1.236,3.581,0.902,3.269c1.883-0.275,3.786-0.437,5.684-0.564c2.53-0.169,6.515-0.739,8.716,0.821
					C672.13,334.862,673.82,331.921,672.053,330.668L672.053,330.668z"/>
			</g>
		</g>
		<g>
			<ellipse fill="#FFFFFF" cx="663.637" cy="320.554" rx="0.115" ry="0.155"/>
			<g>
				<path d="M662.118,320.103c-0.011,0.036-0.023,0.072-0.034,0.11c0.26-0.338,0.52-0.676,0.779-1.012
					c-0.027,0.015-0.054,0.031-0.081,0.045c0.571,0,1.14,0,1.711,0c-0.027-0.015-0.054-0.031-0.081-0.045
					c0.26,0.338,0.52,0.676,0.779,1.012c-0.011-0.036-0.023-0.072-0.034-0.11c0,0.301,0,0.601,0,0.902
					c0.011-0.036,0.023-0.072,0.034-0.11c-0.26,0.338-0.52,0.676-0.779,1.012c0.027-0.015,0.054-0.031,0.081-0.045
					c-0.571,0-1.14,0-1.711,0c0.027,0.015,0.054,0.031,0.081,0.045c-0.26-0.338-0.52-0.676-0.779-1.012
					c0.011,0.036,0.023,0.072,0.034,0.11c0.273,0.881,1.173,1.435,2.085,1.184c0.869-0.238,1.458-1.202,1.184-2.085
					c-0.245-0.788-0.886-1.399-1.75-1.399c-0.995,0-1.81,0.867-1.81,1.85c0,0.824,0.566,1.571,1.36,1.789
					c1.015,0.279,1.909-0.402,2.201-1.338c0.275-0.882-0.315-1.846-1.184-2.085C663.29,318.669,662.392,319.222,662.118,320.103z"/>
			</g>
		</g>
	</g>
	<g>
		<g>
			<path d="M625.778,384.708c2.935-0.245,5.911-2.123,8.403-3.505c1.912-1.06,0.202-3.987-1.711-2.926
				c-1.77,0.981-3.569,1.944-5.473,2.643c-0.384,0.141-0.775,0.262-1.172,0.364c-0.276,0.07-0.708,0.09-0.047,0.035
				C623.616,381.499,623.599,384.89,625.778,384.708L625.778,384.708z"/>
		</g>
	</g>
</g>
<g>
	<g>
		<g>
			<path fill="#FFFFFF" d="M550.327,326.131c0,0,10.917-0.475,6.645-9.968c-2.119-4.708-4.957-12.112-1.898-19.461
				c3.059-7.349,8.927-12.925,18.967-10.552c0,0-6.633-12.823-5.477-21.176c0.714-5.154,7.312-10.608,14.97-8.762
				c4.63,1.116,10.588,4.017,17.89,12.414l-3.651,1.826l-0.73,14.24c0,0,13.025,5.782,16.064,15.335
				c2.556,8.032,2.68,13.552-7.667,26.288"/>
			<g>
				<path d="M550.327,327.826c4.775-0.281,9.138-2.82,9.325-7.97c0.087-2.385-1.374-4.845-2.233-6.961
					c-1.804-4.447-2.422-9.017-1.404-13.737c1.816-8.413,9.433-12.961,17.575-11.371c1.48,0.289,2.615-1.116,1.914-2.489
					c-3.071-6.021-6.571-14.226-5.039-21.062c1.54-6.868,10.316-7.349,15.555-5.474c5.704,2.041,10.259,6.668,14.205,11.065
					c0.114-0.887,0.228-1.775,0.343-2.662c-1.217,0.609-2.434,1.217-3.651,1.826c-0.543,0.272-0.81,0.889-0.839,1.463
					c-0.243,4.747-0.487,9.493-0.73,14.24c-0.028,0.541,0.332,1.233,0.839,1.463c5.754,2.61,11.211,6.7,14.398,12.216
					c5.582,9.664-0.289,19.137-6.343,26.745c-1.346,1.691,1.036,4.107,2.396,2.396c4.719-5.931,9.565-12.37,9.606-20.269
					c0.036-7.203-3.831-13.539-9.107-18.11c-2.273-1.969-4.856-3.598-7.491-5.034c-0.547-0.298-1.106-0.573-1.67-0.836
					c0.54,1.476,0.801,1.806,0.783,0.987c0.034-0.667,0.068-1.333,0.103-1.999c0.16-3.121,0.32-6.24,0.48-9.361
					c0.025-0.496,0.051-0.991,0.076-1.487c0.084-1.63,0.223,0.003-0.52,0.375c1.126-0.564,2.254-1.126,3.381-1.69
					c1.026-0.513,1.029-1.897,0.343-2.662c-7.893-8.795-20.856-18.715-32.096-9.299c-8.18,6.853-1.806,21.318,2.051,28.878
					c0.638-0.829,1.276-1.66,1.914-2.489c-10.846-2.117-18.264,3.672-21.745,13.739c-1.929,5.577-0.089,12.252,2.172,17.415
					c2.106,4.81,0.86,8.446-4.591,8.767C548.155,324.564,548.143,327.955,550.327,327.826L550.327,327.826z"/>
			</g>
		</g>
		<g>
			<path fill="#FFFFFF" d="M595.947,290.899c0,0,10.953,32.86,1.461,63.529l8.032,2.921l-41.257,2.921c0,0,7.667-48.56,6.206-63.164
				c0,0-7.613-0.036-7.247,9.091c0.365,9.128,14.613,23.714-10.442,29.427"/>
			<g>
				<path d="M594.314,291.348c6.502,19.767,7.333,42.706,1.461,62.629c-0.277,0.939,0.329,1.774,1.184,2.085
					c2.678,0.974,5.354,1.947,8.032,2.921c0.15-1.11,0.301-2.219,0.451-3.329c-13.753,0.974-27.506,1.947-41.257,2.921
					c0.545,0.715,1.089,1.43,1.634,2.146c1.324-8.41,2.483-16.846,3.553-25.292c1.582-12.481,3.818-25.715,2.714-38.323
					c-0.079-0.904-0.711-1.716-1.695-1.695c-7.989,0.171-9.97,8.56-8.169,14.987c1.148,4.096,3.198,7.922,3.568,12.216
					c0.641,7.436-7.823,9.967-13.539,11.378c-2.122,0.523-1.221,3.792,0.902,3.269c8.895-2.195,17.235-6.454,15.774-16.796
					c-0.733-5.193-9.587-21.428,1.465-21.663c-0.565-0.565-1.13-1.13-1.695-1.695c1.033,11.791-0.981,24.104-2.399,35.784
					c-1.093,8.995-2.338,17.978-3.748,26.929c-0.158,1.007,0.434,2.23,1.634,2.146c13.753-0.974,27.506-1.947,41.257-2.921
					c1.943-0.138,2.263-2.67,0.451-3.329c-2.678-0.974-5.354-1.947-8.032-2.921c0.394,0.695,0.789,1.39,1.184,2.085
					c6.037-20.477,5.223-44.113-1.461-64.431C596.902,288.381,593.628,289.266,594.314,291.348L594.314,291.348z"/>
			</g>
		</g>
		<g>
			<line fill="none" x1="584.994" y1="329.235" x2="582.074" y2="358.443"/>
			<g>
				<path d="M583.3,329.235c-0.974,9.736-1.947,19.472-2.921,29.209c-0.217,2.175,3.174,2.154,3.39,0
					c0.974-9.736,1.947-19.472,2.921-29.209C586.906,327.06,583.514,327.082,583.3,329.235L583.3,329.235z"/>
			</g>
		</g>
		<g>
			<line fill="none" x1="605.441" y1="318.282" x2="601.059" y2="323.759"/>
			<g>
				<path d="M604.242,317.083c-1.461,1.826-2.921,3.651-4.382,5.477c-0.576,0.721-0.707,1.69,0,2.396
					c0.599,0.599,1.819,0.722,2.396,0c1.461-1.826,2.921-3.651,4.382-5.477c0.576-0.721,0.707-1.69,0-2.396
					C606.041,316.484,604.82,316.36,604.242,317.083L604.242,317.083z"/>
			</g>
		</g>
		<g>
			<g>
				<path d="M597.648,301.855c1.288,0.818,2.414,1.877,3.418,3.019c2.528,2.876,1.738,5.743-1.227,7.928
					c-1.74,1.281-0.052,4.226,1.711,2.926c3.746-2.759,5.688-6.406,3.576-10.858c-1.154-2.431-3.523-4.518-5.767-5.943
					C597.508,297.752,595.808,300.687,597.648,301.855L597.648,301.855z"/>
			</g>
		</g>
		<g>
			<g>
				<path d="M597.522,278.673c-2.45-1.737-6.256-1.451-9.088-1.354c-2.648,0.09-5.304,0.372-7.925,0.755
					c-2.157,0.314-1.236,3.581,0.902,3.269c1.883-0.275,3.786-0.437,5.684-0.564c2.53-0.169,6.515-0.739,8.716,0.821
					C597.599,282.867,599.291,279.926,597.522,278.673L597.522,278.673z"/>
			</g>
		</g>
		<g>
			<ellipse fill="#FFFFFF" cx="589.106" cy="268.56" rx="0.115" ry="0.155"/>
			<g>
				<path d="M587.588,268.109c-0.011,0.036-0.023,0.072-0.034,0.11c0.26-0.338,0.52-0.676,0.778-1.012
					c-0.027,0.015-0.054,0.031-0.081,0.045c0.571,0,1.14,0,1.711,0c-0.027-0.015-0.054-0.03-0.081-0.045
					c0.26,0.338,0.52,0.676,0.778,1.012c-0.011-0.036-0.023-0.072-0.034-0.11c0,0.301,0,0.601,0,0.902
					c0.011-0.036,0.023-0.072,0.034-0.11c-0.26,0.338-0.52,0.676-0.778,1.012c0.027-0.015,0.054-0.031,0.081-0.045
					c-0.571,0-1.14,0-1.711,0c0.027,0.015,0.054,0.03,0.081,0.045c-0.26-0.338-0.52-0.676-0.778-1.012
					c0.011,0.036,0.023,0.072,0.034,0.11c0.273,0.881,1.173,1.435,2.085,1.184c0.869-0.238,1.458-1.202,1.184-2.085
					c-0.245-0.788-0.886-1.399-1.75-1.399c-0.995,0-1.81,0.867-1.81,1.85c0,0.824,0.566,1.571,1.36,1.789
					c1.015,0.279,1.909-0.402,2.201-1.338c0.275-0.882-0.315-1.846-1.184-2.085C588.76,266.674,587.862,267.228,587.588,268.109z"/>
			</g>
		</g>
	</g>
	<g>
		<g>
			<path d="M551.247,332.714c2.935-0.245,5.911-2.123,8.403-3.505c1.912-1.06,0.202-3.987-1.711-2.926
				c-1.771,0.981-3.569,1.945-5.473,2.643c-0.384,0.141-0.775,0.262-1.172,0.364c-0.276,0.07-0.708,0.09-0.047,0.035
				C549.086,329.505,549.068,332.896,551.247,332.714L551.247,332.714z"/>
		</g>
	</g>
</g>
<g>
	<g>
		<g>
			<path fill="#FFFFFF" d="M488.144,438.607c0,0,10.917-0.475,6.645-9.968c-2.118-4.708-4.957-12.112-1.898-19.461
				c3.057-7.348,8.927-12.925,18.967-10.552c0,0-6.633-12.823-5.477-21.176c0.714-5.154,7.312-10.608,14.97-8.762
				c4.63,1.116,10.588,4.017,17.89,12.414l-3.651,1.826l-0.73,14.24c0,0,13.025,5.782,16.064,15.335
				c2.556,8.032,2.68,13.552-7.667,26.288"/>
			<g>
				<path d="M488.144,440.301c4.775-0.281,9.138-2.82,9.325-7.97c0.087-2.385-1.374-4.845-2.233-6.961
					c-1.804-4.447-2.422-9.017-1.404-13.737c1.816-8.413,9.433-12.961,17.575-11.371c1.48,0.289,2.615-1.116,1.914-2.489
					c-3.071-6.021-6.571-14.226-5.039-21.062c1.54-6.868,10.316-7.349,15.555-5.474c5.704,2.041,10.259,6.668,14.205,11.065
					c0.114-0.887,0.228-1.775,0.344-2.662c-1.217,0.609-2.434,1.217-3.651,1.826c-0.543,0.272-0.81,0.889-0.839,1.463
					c-0.243,4.747-0.487,9.493-0.73,14.24c-0.028,0.541,0.332,1.233,0.84,1.463c5.754,2.61,11.211,6.7,14.398,12.216
					c5.582,9.664-0.289,19.137-6.343,26.745c-1.346,1.691,1.036,4.107,2.396,2.396c4.719-5.931,9.565-12.37,9.606-20.269
					c0.036-7.203-3.831-13.539-9.107-18.11c-2.273-1.969-4.856-3.598-7.491-5.034c-0.547-0.298-1.106-0.573-1.67-0.836
					c0.54,1.476,0.801,1.806,0.783,0.988c0.034-0.667,0.068-1.333,0.103-1.999c0.16-3.121,0.32-6.24,0.48-9.361
					c0.025-0.496,0.051-0.991,0.076-1.487c0.084-1.63,0.223,0.003-0.52,0.375c1.126-0.564,2.254-1.126,3.381-1.69
					c1.026-0.513,1.029-1.897,0.344-2.662c-7.893-8.795-20.856-18.715-32.096-9.299c-8.18,6.853-1.806,21.318,2.051,28.878
					c0.638-0.829,1.276-1.66,1.914-2.489c-10.846-2.117-18.264,3.672-21.745,13.739c-1.929,5.577-0.089,12.252,2.172,17.415
					c2.106,4.81,0.859,8.446-4.591,8.767C485.973,437.039,485.96,440.429,488.144,440.301L488.144,440.301z"/>
			</g>
		</g>
		<g>
			<path fill="#FFFFFF" d="M533.765,403.373c0,0,10.953,32.86,1.461,63.529l8.032,2.921l-41.257,2.921c0,0,7.667-48.56,6.206-63.164
				c0,0-7.613-0.036-7.247,9.091c0.365,9.128,14.613,23.714-10.442,29.427"/>
			<g>
				<path d="M532.131,403.823c6.502,19.767,7.333,42.706,1.461,62.629c-0.277,0.939,0.329,1.774,1.184,2.085
					c2.678,0.974,5.354,1.947,8.032,2.921c0.15-1.11,0.301-2.219,0.451-3.329c-13.753,0.974-27.506,1.947-41.257,2.921
					c0.545,0.715,1.089,1.43,1.634,2.146c1.324-8.41,2.483-16.846,3.553-25.292c1.582-12.481,3.818-25.715,2.714-38.323
					c-0.079-0.904-0.711-1.716-1.695-1.695c-7.989,0.171-9.97,8.56-8.169,14.987c1.148,4.096,3.198,7.922,3.568,12.216
					c0.641,7.436-7.823,9.967-13.539,11.378c-2.122,0.523-1.221,3.793,0.902,3.269c8.895-2.195,17.235-6.454,15.774-16.796
					c-0.733-5.193-9.587-21.428,1.465-21.664c-0.565-0.565-1.13-1.13-1.695-1.695c1.033,11.791-0.981,24.104-2.399,35.784
					c-1.093,8.995-2.338,17.978-3.748,26.929c-0.158,1.007,0.434,2.23,1.634,2.146c13.753-0.974,27.506-1.947,41.257-2.921
					c1.943-0.138,2.263-2.67,0.451-3.329c-2.678-0.974-5.354-1.947-8.032-2.921c0.394,0.695,0.789,1.39,1.184,2.085
					c6.037-20.477,5.223-44.114-1.461-64.431C534.72,400.855,531.445,401.741,532.131,403.823L532.131,403.823z"/>
			</g>
		</g>
		<g>
			<line fill="none" x1="522.812" y1="441.709" x2="519.891" y2="470.919"/>
			<g>
				<path d="M521.117,441.709c-0.974,9.736-1.947,19.472-2.921,29.209c-0.217,2.175,3.174,2.154,3.39,0
					c0.974-9.736,1.947-19.472,2.921-29.209C524.724,439.535,521.332,439.556,521.117,441.709L521.117,441.709z"/>
			</g>
		</g>
		<g>
			<line fill="none" x1="543.258" y1="430.756" x2="538.877" y2="436.233"/>
			<g>
				<path d="M542.059,429.557c-1.461,1.826-2.921,3.651-4.382,5.477c-0.576,0.721-0.707,1.69,0,2.396
					c0.599,0.599,1.819,0.722,2.396,0c1.461-1.826,2.921-3.651,4.382-5.476c0.576-0.721,0.707-1.69,0-2.396
					C543.857,428.959,542.638,428.835,542.059,429.557L542.059,429.557z"/>
			</g>
		</g>
		<g>
			<g>
				<path d="M535.465,414.329c1.288,0.818,2.415,1.877,3.418,3.019c2.528,2.876,1.738,5.743-1.227,7.928
					c-1.74,1.281-0.052,4.226,1.711,2.926c3.746-2.759,5.688-6.406,3.576-10.858c-1.154-2.431-3.523-4.518-5.767-5.943
					C535.325,410.228,533.626,413.162,535.465,414.329L535.465,414.329z"/>
			</g>
		</g>
		<g>
			<g>
				<path d="M535.34,391.147c-2.45-1.737-6.256-1.451-9.088-1.354c-2.648,0.09-5.304,0.372-7.925,0.755
					c-2.156,0.314-1.236,3.581,0.902,3.269c1.883-0.275,3.786-0.437,5.684-0.564c2.53-0.169,6.515-0.739,8.716,0.821
					C535.417,395.342,537.108,392.4,535.34,391.147L535.34,391.147z"/>
			</g>
		</g>
		<g>
			<ellipse fill="#FFFFFF" cx="526.924" cy="381.034" rx="0.115" ry="0.155"/>
			<g>
				<path d="M525.405,380.583c-0.011,0.036-0.023,0.072-0.034,0.11c0.26-0.338,0.52-0.676,0.778-1.012
					c-0.027,0.015-0.054,0.031-0.081,0.045c0.571,0,1.14,0,1.711,0c-0.027-0.015-0.054-0.031-0.081-0.045
					c0.26,0.338,0.52,0.676,0.779,1.012c-0.011-0.036-0.023-0.072-0.034-0.11c0,0.301,0,0.601,0,0.902
					c0.011-0.036,0.023-0.072,0.034-0.11c-0.26,0.338-0.52,0.676-0.779,1.012c0.027-0.015,0.054-0.031,0.081-0.045
					c-0.571,0-1.14,0-1.711,0c0.027,0.015,0.054,0.031,0.081,0.045c-0.26-0.338-0.52-0.676-0.778-1.012
					c0.011,0.036,0.023,0.072,0.034,0.11c0.273,0.881,1.173,1.435,2.085,1.184c0.869-0.238,1.458-1.202,1.184-2.085
					c-0.245-0.788-0.886-1.399-1.75-1.399c-0.995,0-1.81,0.867-1.81,1.85c0,0.824,0.566,1.571,1.36,1.789
					c1.015,0.279,1.909-0.402,2.201-1.338c0.275-0.882-0.315-1.846-1.184-2.085C526.578,379.148,525.68,379.702,525.405,380.583z"/>
			</g>
		</g>
	</g>
	<g>
		<g>
			<path d="M489.065,445.188c2.935-0.245,5.911-2.123,8.403-3.505c1.912-1.06,0.202-3.987-1.711-2.926
				c-1.77,0.981-3.569,1.945-5.473,2.643c-0.384,0.141-0.775,0.262-1.172,0.364c-0.276,0.07-0.708,0.09-0.047,0.035
				C486.904,441.979,486.886,445.37,489.065,445.188L489.065,445.188z"/>
		</g>
	</g>
</g>
<g>
	<g>
		<g>
			<path fill="#FFFFFF" d="M508.604,555.172c0,0,10.917-0.475,6.645-9.968c-2.119-4.708-4.957-12.112-1.898-19.461
				c3.057-7.348,8.927-12.925,18.967-10.552c0,0-6.633-12.823-5.477-21.176c0.714-5.154,7.312-10.608,14.97-8.762
				c4.63,1.116,10.588,4.017,17.89,12.414l-3.651,1.826l-0.73,14.24c0,0,13.025,5.782,16.064,15.335
				c2.556,8.032,2.68,13.552-7.667,26.288"/>
			<g>
				<path d="M508.604,556.867c4.775-0.281,9.138-2.82,9.325-7.97c0.087-2.385-1.374-4.845-2.233-6.961
					c-1.804-4.447-2.422-9.017-1.404-13.737c1.816-8.413,9.433-12.961,17.575-11.371c1.48,0.289,2.615-1.116,1.914-2.489
					c-3.071-6.021-6.571-14.226-5.039-21.062c1.54-6.868,10.316-7.349,15.555-5.474c5.704,2.041,10.259,6.669,14.205,11.065
					c0.114-0.887,0.228-1.775,0.343-2.662c-1.217,0.609-2.434,1.217-3.651,1.826c-0.543,0.272-0.81,0.889-0.84,1.463
					c-0.243,4.747-0.487,9.493-0.73,14.24c-0.028,0.541,0.332,1.233,0.839,1.463c5.754,2.61,11.211,6.7,14.398,12.216
					c5.582,9.664-0.289,19.137-6.343,26.745c-1.346,1.691,1.036,4.107,2.396,2.396c4.719-5.931,9.565-12.37,9.606-20.269
					c0.036-7.203-3.831-13.539-9.107-18.109c-2.273-1.969-4.856-3.598-7.491-5.034c-0.547-0.298-1.106-0.573-1.67-0.836
					c0.54,1.476,0.801,1.806,0.783,0.987c0.034-0.667,0.068-1.333,0.103-1.999c0.16-3.121,0.32-6.24,0.48-9.361
					c0.025-0.496,0.051-0.991,0.076-1.487c0.084-1.63,0.223,0.003-0.52,0.375c1.126-0.564,2.254-1.126,3.381-1.69
					c1.026-0.513,1.029-1.897,0.343-2.662c-7.893-8.795-20.856-18.715-32.096-9.299c-8.18,6.853-1.806,21.318,2.051,28.878
					c0.638-0.83,1.276-1.66,1.914-2.49c-10.846-2.117-18.264,3.672-21.745,13.739c-1.929,5.577-0.089,12.252,2.172,17.415
					c2.106,4.81,0.859,8.446-4.591,8.767C506.431,553.605,506.419,556.995,508.604,556.867L508.604,556.867z"/>
			</g>
		</g>
		<g>
			<path fill="#FFFFFF" d="M554.225,519.938c0,0,10.953,32.86,1.461,63.529l8.032,2.921l-41.257,2.921c0,0,7.667-48.56,6.206-63.164
				c0,0-7.613-0.036-7.247,9.091c0.366,9.127,14.613,23.714-10.442,29.427"/>
			<g>
				<path d="M552.59,520.389c6.502,19.767,7.333,42.706,1.461,62.629c-0.277,0.939,0.329,1.774,1.184,2.085
					c2.678,0.974,5.354,1.947,8.032,2.921c0.15-1.109,0.301-2.219,0.451-3.329c-13.753,0.974-27.506,1.947-41.257,2.921
					c0.545,0.715,1.089,1.43,1.634,2.146c1.324-8.41,2.483-16.846,3.553-25.292c1.582-12.481,3.818-25.715,2.714-38.323
					c-0.079-0.904-0.711-1.716-1.695-1.695c-7.989,0.171-9.97,8.56-8.169,14.987c1.148,4.096,3.198,7.922,3.568,12.216
					c0.641,7.436-7.823,9.967-13.539,11.378c-2.122,0.523-1.221,3.792,0.902,3.269c8.895-2.195,17.235-6.454,15.774-16.796
					c-0.733-5.193-9.587-21.428,1.465-21.663c-0.565-0.565-1.13-1.13-1.695-1.695c1.033,11.791-0.981,24.104-2.399,35.784
					c-1.093,8.995-2.338,17.979-3.748,26.929c-0.158,1.007,0.434,2.23,1.634,2.146c13.753-0.974,27.506-1.947,41.257-2.921
					c1.943-0.138,2.263-2.67,0.451-3.329c-2.678-0.974-5.354-1.947-8.032-2.921c0.394,0.695,0.789,1.39,1.184,2.085
					c6.037-20.477,5.223-44.114-1.461-64.431C555.178,517.422,551.905,518.306,552.59,520.389L552.59,520.389z"/>
			</g>
		</g>
		<g>
			<line fill="none" x1="543.271" y1="558.274" x2="540.35" y2="587.484"/>
			<g>
				<path d="M541.576,558.274c-0.974,9.736-1.947,19.472-2.921,29.209c-0.217,2.175,3.174,2.154,3.39,0
					c0.974-9.736,1.947-19.472,2.921-29.209C545.183,556.101,541.792,556.121,541.576,558.274L541.576,558.274z"/>
			</g>
		</g>
		<g>
			<line fill="none" x1="563.717" y1="547.322" x2="559.336" y2="552.798"/>
			<g>
				<path d="M562.519,546.123c-1.461,1.826-2.921,3.651-4.382,5.477c-0.576,0.721-0.707,1.69,0,2.396
					c0.599,0.599,1.819,0.722,2.396,0c1.461-1.826,2.921-3.651,4.382-5.477c0.576-0.721,0.707-1.69,0-2.396
					C564.317,545.524,563.096,545.401,562.519,546.123L562.519,546.123z"/>
			</g>
		</g>
		<g>
			<g>
				<path d="M555.925,530.894c1.288,0.818,2.414,1.877,3.418,3.019c2.528,2.876,1.738,5.743-1.227,7.928
					c-1.74,1.281-0.052,4.226,1.711,2.926c3.746-2.759,5.688-6.406,3.576-10.858c-1.154-2.432-3.523-4.518-5.767-5.943
					C555.784,526.793,554.085,529.727,555.925,530.894L555.925,530.894z"/>
			</g>
		</g>
		<g>
			<g>
				<path d="M555.8,507.713c-2.45-1.737-6.256-1.451-9.088-1.354c-2.648,0.09-5.304,0.372-7.925,0.755
					c-2.156,0.314-1.236,3.581,0.902,3.269c1.883-0.275,3.786-0.437,5.684-0.564c2.53-0.169,6.515-0.739,8.716,0.821
					C555.877,511.907,557.567,508.966,555.8,507.713L555.8,507.713z"/>
			</g>
		</g>
		<g>
			<ellipse fill="#FFFFFF" cx="547.383" cy="497.599" rx="0.115" ry="0.155"/>
			<g>
				<path d="M545.865,497.148c-0.011,0.036-0.023,0.072-0.034,0.11c0.26-0.338,0.52-0.676,0.778-1.012
					c-0.027,0.015-0.054,0.031-0.081,0.045c0.571,0,1.14,0,1.711,0c-0.027-0.015-0.054-0.031-0.081-0.045
					c0.26,0.338,0.52,0.676,0.778,1.012c-0.011-0.036-0.023-0.072-0.034-0.11c0,0.301,0,0.601,0,0.902
					c0.011-0.036,0.023-0.072,0.034-0.11c-0.26,0.338-0.52,0.676-0.778,1.012c0.027-0.015,0.054-0.031,0.081-0.045
					c-0.571,0-1.14,0-1.711,0c0.027,0.015,0.054,0.031,0.081,0.045c-0.26-0.338-0.52-0.676-0.778-1.012
					c0.011,0.036,0.023,0.072,0.034,0.11c0.273,0.881,1.173,1.435,2.085,1.184c0.869-0.238,1.458-1.202,1.184-2.085
					c-0.245-0.788-0.886-1.399-1.75-1.399c-0.995,0-1.81,0.867-1.81,1.85c0,0.824,0.566,1.571,1.36,1.789
					c1.015,0.279,1.909-0.402,2.201-1.338c0.275-0.882-0.315-1.846-1.184-2.085C547.036,495.715,546.138,496.267,545.865,497.148z"
					/>
			</g>
		</g>
	</g>
	<g>
		<g>
			<path d="M509.525,561.753c2.935-0.245,5.911-2.123,8.403-3.505c1.912-1.06,0.202-3.987-1.711-2.926
				c-1.771,0.981-3.569,1.945-5.473,2.643c-0.384,0.141-0.775,0.262-1.172,0.364c-0.276,0.07-0.708,0.09-0.047,0.035
				C507.362,558.544,507.345,561.935,509.525,561.753L509.525,561.753z"/>
		</g>
	</g>
</g>
<g>
	<g>
		<g>
			<path fill="#FFFFFF" d="M592.704,577.48c0,0,10.917-0.475,6.645-9.968c-2.119-4.708-4.957-12.112-1.898-19.461
				c3.057-7.348,8.927-12.925,18.967-10.552c0,0-6.633-12.823-5.477-21.176c0.714-5.154,7.312-10.608,14.97-8.762
				c4.63,1.116,10.588,4.017,17.89,12.414l-3.651,1.826l-0.73,14.24c0,0,13.025,5.782,16.064,15.335
				c2.556,8.032,2.68,13.552-7.667,26.288"/>
			<g>
				<path d="M592.704,579.175c4.775-0.281,9.138-2.82,9.325-7.97c0.087-2.385-1.374-4.845-2.233-6.961
					c-1.804-4.447-2.422-9.017-1.404-13.737c1.816-8.413,9.433-12.961,17.575-11.371c1.48,0.289,2.615-1.116,1.914-2.489
					c-3.071-6.021-6.571-14.226-5.039-21.062c1.54-6.868,10.316-7.349,15.555-5.474c5.704,2.041,10.259,6.669,14.205,11.065
					c0.114-0.887,0.228-1.775,0.343-2.662c-1.217,0.609-2.434,1.217-3.651,1.826c-0.543,0.272-0.81,0.889-0.84,1.463
					c-0.243,4.747-0.487,9.493-0.73,14.24c-0.028,0.541,0.332,1.233,0.839,1.463c5.754,2.61,11.211,6.7,14.398,12.216
					c5.582,9.664-0.289,19.137-6.343,26.745c-1.346,1.691,1.036,4.107,2.396,2.396c4.719-5.931,9.565-12.37,9.606-20.269
					c0.036-7.203-3.831-13.539-9.107-18.11c-2.273-1.969-4.856-3.598-7.491-5.034c-0.547-0.298-1.106-0.573-1.67-0.836
					c0.54,1.476,0.801,1.806,0.783,0.988c0.034-0.667,0.068-1.333,0.103-1.999c0.16-3.121,0.32-6.24,0.48-9.361
					c0.025-0.496,0.051-0.991,0.076-1.487c0.084-1.63,0.223,0.003-0.52,0.375c1.126-0.564,2.254-1.126,3.381-1.69
					c1.026-0.513,1.029-1.897,0.343-2.662c-7.893-8.795-20.856-18.715-32.096-9.299c-8.18,6.853-1.806,21.318,2.051,28.878
					c0.638-0.829,1.276-1.66,1.914-2.489c-10.846-2.117-18.264,3.672-21.745,13.739c-1.929,5.577-0.089,12.252,2.172,17.415
					c2.106,4.81,0.86,8.446-4.591,8.767C590.531,575.913,590.518,579.302,592.704,579.175L592.704,579.175z"/>
			</g>
		</g>
		<g>
			<path fill="#FFFFFF" d="M638.324,542.246c0,0,10.953,32.86,1.461,63.529l8.032,2.921l-41.257,2.921c0,0,7.667-48.56,6.206-63.164
				c0,0-7.613-0.036-7.247,9.091c0.365,9.128,14.613,23.714-10.442,29.427"/>
			<g>
				<path d="M636.689,542.697c6.502,19.767,7.333,42.706,1.461,62.629c-0.277,0.939,0.329,1.774,1.184,2.085
					c2.678,0.974,5.354,1.947,8.032,2.921c0.15-1.109,0.301-2.219,0.451-3.329c-13.753,0.974-27.506,1.947-41.257,2.921
					c0.545,0.715,1.089,1.43,1.634,2.146c1.324-8.41,2.483-16.846,3.553-25.292c1.582-12.481,3.818-25.715,2.714-38.323
					c-0.079-0.904-0.711-1.716-1.695-1.695c-7.989,0.171-9.97,8.56-8.169,14.987c1.148,4.096,3.198,7.922,3.568,12.216
					c0.641,7.436-7.823,9.967-13.539,11.378c-2.122,0.523-1.221,3.793,0.902,3.269c8.896-2.195,17.235-6.453,15.774-16.796
					c-0.733-5.193-9.587-21.428,1.465-21.664c-0.565-0.565-1.13-1.13-1.695-1.695c1.033,11.791-0.981,24.104-2.399,35.784
					c-1.093,8.995-2.338,17.977-3.748,26.929c-0.158,1.007,0.434,2.23,1.634,2.146c13.753-0.974,27.506-1.947,41.257-2.921
					c1.943-0.138,2.263-2.67,0.451-3.329c-2.678-0.974-5.354-1.947-8.032-2.921c0.394,0.695,0.789,1.39,1.184,2.085
					c6.037-20.477,5.223-44.114-1.461-64.431C639.278,539.73,636.005,540.615,636.689,542.697L636.689,542.697z"/>
			</g>
		</g>
		<g>
			<line fill="none" x1="627.37" y1="580.583" x2="624.45" y2="609.792"/>
			<g>
				<path d="M625.675,580.583c-0.974,9.736-1.947,19.472-2.921,29.209c-0.217,2.175,3.174,2.154,3.39,0
					c0.974-9.736,1.947-19.472,2.921-29.209C629.283,578.409,625.891,578.429,625.675,580.583L625.675,580.583z"/>
			</g>
		</g>
		<g>
			<line fill="none" x1="647.816" y1="569.63" x2="643.436" y2="575.106"/>
			<g>
				<path d="M646.619,568.431c-1.461,1.826-2.921,3.651-4.382,5.477c-0.576,0.721-0.707,1.69,0,2.396
					c0.599,0.599,1.819,0.722,2.396,0c1.461-1.826,2.921-3.651,4.382-5.477c0.576-0.721,0.707-1.69,0-2.396
					C648.416,567.832,647.196,567.709,646.619,568.431L646.619,568.431z"/>
			</g>
		</g>
		<g>
			<g>
				<path d="M640.025,553.202c1.288,0.818,2.415,1.877,3.418,3.019c2.528,2.876,1.738,5.743-1.227,7.928
					c-1.74,1.281-0.052,4.226,1.711,2.926c3.745-2.759,5.688-6.406,3.576-10.858c-1.154-2.432-3.523-4.518-5.767-5.943
					C639.884,549.101,638.185,552.035,640.025,553.202L640.025,553.202z"/>
			</g>
		</g>
		<g>
			<g>
				<path d="M639.899,530.021c-2.45-1.737-6.256-1.451-9.088-1.354c-2.648,0.09-5.304,0.372-7.925,0.755
					c-2.157,0.314-1.236,3.581,0.902,3.269c1.883-0.275,3.786-0.437,5.684-0.564c2.53-0.169,6.515-0.739,8.716,0.821
					C639.976,534.215,641.666,531.274,639.899,530.021L639.899,530.021z"/>
			</g>
		</g>
		<g>
			<ellipse fill="#FFFFFF" cx="631.483" cy="519.907" rx="0.115" ry="0.155"/>
			<g>
				<path d="M629.964,519.457c-0.011,0.036-0.023,0.072-0.034,0.11c0.26-0.338,0.52-0.676,0.778-1.012
					c-0.027,0.015-0.054,0.031-0.081,0.045c0.571,0,1.14,0,1.711,0c-0.027-0.015-0.054-0.031-0.081-0.045
					c0.26,0.338,0.52,0.676,0.778,1.012c-0.011-0.036-0.023-0.072-0.034-0.11c0,0.301,0,0.601,0,0.902
					c0.011-0.036,0.023-0.072,0.034-0.11c-0.26,0.338-0.52,0.676-0.778,1.012c0.027-0.015,0.054-0.031,0.081-0.045
					c-0.571,0-1.14,0-1.711,0c0.027,0.015,0.054,0.031,0.081,0.045c-0.26-0.338-0.52-0.676-0.778-1.012
					c0.011,0.036,0.023,0.072,0.034,0.11c0.273,0.881,1.173,1.435,2.085,1.184c0.869-0.238,1.458-1.202,1.184-2.085
					c-0.245-0.787-0.886-1.399-1.75-1.399c-0.995,0-1.81,0.867-1.81,1.85c0,0.824,0.566,1.571,1.36,1.789
					c1.015,0.279,1.909-0.402,2.201-1.338c0.275-0.882-0.315-1.846-1.184-2.085C631.136,518.023,630.238,518.575,629.964,519.457z"
					/>
			</g>
		</g>
	</g>
	<g>
		<g>
			<path d="M593.624,584.061c2.935-0.245,5.911-2.123,8.403-3.505c1.912-1.06,0.202-3.987-1.711-2.926
				c-1.771,0.981-3.569,1.945-5.473,2.643c-0.384,0.141-0.775,0.262-1.172,0.364c-0.276,0.07-0.708,0.09-0.047,0.035
				C591.463,580.853,591.445,584.243,593.624,584.061L593.624,584.061z"/>
		</g>
	</g>
</g>
<g>
	<g>
		<g>
			<path fill="#FFFFFF" d="M419.073,501.919c0,0,10.917-0.475,6.645-9.968c-2.118-4.708-4.957-12.112-1.898-19.461
				c3.057-7.348,8.927-12.925,18.967-10.552c0,0-6.633-12.823-5.476-21.176c0.714-5.154,7.312-10.608,14.97-8.762
				c4.63,1.116,10.588,4.017,17.89,12.414l-3.651,1.826l-0.73,14.24c0,0,13.025,5.782,16.064,15.335
				c2.556,8.032,2.68,13.552-7.667,26.288"/>
			<g>
				<path d="M419.073,503.614c4.775-0.281,9.138-2.82,9.325-7.97c0.087-2.385-1.374-4.845-2.233-6.961
					c-1.804-4.447-2.422-9.017-1.404-13.737c1.816-8.413,9.433-12.961,17.575-11.371c1.48,0.289,2.615-1.116,1.914-2.489
					c-3.071-6.021-6.571-14.226-5.039-21.062c1.54-6.868,10.316-7.349,15.555-5.474c5.704,2.041,10.259,6.668,14.205,11.065
					c0.114-0.887,0.228-1.775,0.343-2.662c-1.217,0.609-2.434,1.217-3.651,1.826c-0.543,0.272-0.81,0.889-0.839,1.463
					c-0.243,4.747-0.487,9.493-0.73,14.24c-0.028,0.541,0.332,1.233,0.84,1.463c5.754,2.61,11.211,6.7,14.398,12.216
					c5.582,9.664-0.289,19.137-6.343,26.745c-1.346,1.691,1.036,4.107,2.396,2.396c4.719-5.931,9.565-12.37,9.606-20.269
					c0.036-7.203-3.831-13.539-9.107-18.11c-2.273-1.969-4.856-3.598-7.491-5.034c-0.547-0.298-1.106-0.573-1.67-0.836
					c0.54,1.476,0.801,1.806,0.783,0.988c0.034-0.667,0.068-1.333,0.103-1.999c0.16-3.121,0.32-6.24,0.48-9.361
					c0.025-0.496,0.051-0.991,0.076-1.487c0.084-1.63,0.223,0.003-0.52,0.375c1.126-0.564,2.254-1.126,3.381-1.69
					c1.026-0.513,1.029-1.897,0.343-2.662c-7.893-8.795-20.856-18.715-32.096-9.299c-8.18,6.853-1.806,21.318,2.051,28.878
					c0.638-0.829,1.276-1.66,1.914-2.489c-10.846-2.117-18.264,3.672-21.745,13.739c-1.929,5.577-0.089,12.252,2.172,17.415
					c2.106,4.81,0.86,8.446-4.591,8.767C416.901,500.352,416.888,503.741,419.073,503.614L419.073,503.614z"/>
			</g>
		</g>
		<g>
			<path fill="#FFFFFF" d="M464.694,466.685c0,0,10.953,32.86,1.461,63.529l8.032,2.921l-41.257,2.921c0,0,7.667-48.56,6.206-63.164
				c0,0-7.613-0.036-7.247,9.091c0.366,9.127,14.613,23.714-10.442,29.427"/>
			<g>
				<path d="M463.059,467.136c6.502,19.767,7.333,42.706,1.461,62.629c-0.277,0.939,0.329,1.774,1.184,2.085
					c2.678,0.974,5.354,1.947,8.032,2.921c0.15-1.11,0.301-2.219,0.451-3.329c-13.753,0.974-27.506,1.947-41.257,2.921
					c0.545,0.715,1.089,1.43,1.634,2.146c1.324-8.41,2.483-16.846,3.553-25.292c1.582-12.481,3.818-25.715,2.714-38.323
					c-0.079-0.904-0.711-1.716-1.695-1.695c-7.989,0.171-9.97,8.56-8.169,14.987c1.148,4.096,3.198,7.921,3.568,12.216
					c0.641,7.436-7.823,9.967-13.539,11.378c-2.122,0.523-1.221,3.793,0.902,3.269c8.895-2.195,17.235-6.454,15.774-16.796
					c-0.733-5.193-9.587-21.428,1.465-21.664c-0.565-0.565-1.13-1.13-1.695-1.695c1.033,11.791-0.981,24.104-2.399,35.784
					c-1.093,8.995-2.338,17.978-3.748,26.929c-0.158,1.007,0.434,2.23,1.634,2.146c13.753-0.974,27.506-1.947,41.257-2.921
					c1.943-0.138,2.263-2.67,0.451-3.329c-2.678-0.974-5.354-1.947-8.032-2.921c0.394,0.695,0.789,1.39,1.184,2.085
					c6.037-20.477,5.223-44.114-1.461-64.431C465.649,464.168,462.374,465.053,463.059,467.136L463.059,467.136z"/>
			</g>
		</g>
		<g>
			<line fill="none" x1="453.74" y1="505.021" x2="450.819" y2="534.231"/>
			<g>
				<path d="M452.045,505.021c-0.974,9.736-1.947,19.472-2.921,29.209c-0.217,2.175,3.174,2.154,3.39,0
					c0.974-9.736,1.947-19.472,2.921-29.209C455.653,502.848,452.261,502.868,452.045,505.021L452.045,505.021z"/>
			</g>
		</g>
		<g>
			<line fill="none" x1="474.187" y1="494.068" x2="469.805" y2="499.545"/>
			<g>
				<path d="M472.988,492.87c-1.461,1.826-2.921,3.651-4.382,5.477c-0.576,0.721-0.707,1.69,0,2.396
					c0.599,0.599,1.819,0.722,2.396,0c1.461-1.826,2.921-3.651,4.382-5.477c0.576-0.721,0.707-1.69,0-2.396
					C474.786,492.271,473.566,492.148,472.988,492.87L472.988,492.87z"/>
			</g>
		</g>
		<g>
			<g>
				<path d="M466.394,477.641c1.288,0.818,2.415,1.877,3.418,3.019c2.528,2.876,1.738,5.743-1.227,7.928
					c-1.74,1.281-0.052,4.226,1.711,2.926c3.746-2.759,5.688-6.406,3.576-10.858c-1.154-2.432-3.523-4.518-5.767-5.943
					C466.253,473.54,464.555,476.474,466.394,477.641L466.394,477.641z"/>
			</g>
		</g>
		<g>
			<g>
				<path d="M466.269,454.46c-2.45-1.737-6.256-1.451-9.088-1.354c-2.648,0.09-5.304,0.372-7.925,0.755
					c-2.156,0.314-1.236,3.581,0.902,3.269c1.883-0.275,3.786-0.437,5.684-0.564c2.53-0.169,6.515-0.739,8.716,0.821
					C466.346,458.654,468.036,455.713,466.269,454.46L466.269,454.46z"/>
			</g>
		</g>
		<g>
			<ellipse fill="#FFFFFF" cx="457.852" cy="444.346" rx="0.115" ry="0.155"/>
			<g>
				<path d="M456.334,443.895c-0.011,0.036-0.023,0.072-0.034,0.11c0.26-0.338,0.52-0.676,0.778-1.012
					c-0.027,0.015-0.054,0.031-0.081,0.045c0.571,0,1.14,0,1.711,0c-0.027-0.015-0.054-0.031-0.081-0.045
					c0.26,0.338,0.52,0.676,0.778,1.012c-0.011-0.036-0.023-0.072-0.034-0.11c0,0.301,0,0.601,0,0.902
					c0.011-0.036,0.023-0.072,0.034-0.11c-0.26,0.338-0.52,0.676-0.778,1.012c0.027-0.015,0.054-0.031,0.081-0.045
					c-0.571,0-1.14,0-1.711,0c0.027,0.015,0.054,0.031,0.081,0.045c-0.26-0.338-0.52-0.676-0.778-1.012
					c0.011,0.036,0.023,0.072,0.034,0.11c0.273,0.881,1.173,1.435,2.085,1.184c0.869-0.238,1.458-1.202,1.184-2.085
					c-0.245-0.788-0.886-1.399-1.75-1.399c-0.995,0-1.81,0.867-1.81,1.85c0,0.824,0.566,1.571,1.36,1.789
					c1.015,0.279,1.909-0.402,2.201-1.338c0.275-0.882-0.315-1.846-1.184-2.085C457.506,442.461,456.607,443.014,456.334,443.895z"
					/>
			</g>
		</g>
	</g>
	<g>
		<g>
			<path d="M419.994,508.5c2.935-0.245,5.911-2.123,8.403-3.505c1.912-1.06,0.202-3.987-1.711-2.926
				c-1.771,0.981-3.569,1.945-5.473,2.643c-0.384,0.141-0.775,0.262-1.172,0.364c-0.276,0.07-0.708,0.09-0.047,0.035
				C417.832,505.291,417.814,508.682,419.994,508.5L419.994,508.5z"/>
		</g>
	</g>
</g>
<g>
	<g>
		<g>
			<path fill="#FFFFFF" d="M430.327,355.619c0,0,10.917-0.475,6.645-9.968c-2.118-4.708-4.957-12.112-1.898-19.461
				c3.057-7.348,8.927-12.925,18.967-10.552c0,0-6.633-12.823-5.476-21.176c0.714-5.154,7.313-10.608,14.97-8.762
				c4.63,1.116,10.588,4.017,17.89,12.414l-3.651,1.826l-0.73,14.24c0,0,13.025,5.782,16.064,15.335
				c2.556,8.032,2.68,13.552-7.667,26.288"/>
			<g>
				<path d="M430.327,357.314c4.775-0.281,9.138-2.82,9.325-7.97c0.087-2.385-1.374-4.845-2.233-6.961
					c-1.804-4.447-2.422-9.017-1.404-13.737c1.816-8.413,9.433-12.961,17.575-11.371c1.48,0.289,2.615-1.116,1.914-2.489
					c-3.071-6.021-6.571-14.226-5.039-21.062c1.54-6.868,10.316-7.349,15.555-5.474c5.704,2.041,10.259,6.669,14.205,11.065
					c0.114-0.887,0.228-1.775,0.343-2.662c-1.217,0.609-2.434,1.217-3.651,1.826c-0.543,0.272-0.81,0.889-0.84,1.463
					c-0.243,4.747-0.487,9.493-0.73,14.24c-0.028,0.541,0.332,1.233,0.84,1.463c5.754,2.61,11.211,6.7,14.398,12.216
					c5.582,9.664-0.289,19.137-6.343,26.745c-1.346,1.691,1.036,4.107,2.396,2.396c4.719-5.931,9.565-12.37,9.606-20.269
					c0.036-7.203-3.831-13.539-9.107-18.11c-2.273-1.969-4.856-3.597-7.491-5.034c-0.547-0.298-1.106-0.573-1.67-0.836
					c0.54,1.476,0.801,1.806,0.783,0.987c0.034-0.667,0.068-1.333,0.103-1.999c0.16-3.121,0.32-6.24,0.48-9.361
					c0.025-0.496,0.051-0.991,0.076-1.487c0.084-1.63,0.223,0.003-0.52,0.375c1.126-0.564,2.254-1.126,3.381-1.69
					c1.026-0.513,1.029-1.897,0.343-2.662c-7.893-8.795-20.856-18.715-32.096-9.299c-8.18,6.853-1.806,21.318,2.051,28.878
					c0.638-0.829,1.276-1.66,1.914-2.489c-10.846-2.117-18.264,3.672-21.745,13.739c-1.929,5.577-0.089,12.252,2.172,17.415
					c2.106,4.81,0.86,8.446-4.591,8.767C428.155,354.052,428.142,357.442,430.327,357.314L430.327,357.314z"/>
			</g>
		</g>
		<g>
			<path fill="#FFFFFF" d="M475.947,320.386c0,0,10.953,32.86,1.461,63.529l8.032,2.921l-41.257,2.921c0,0,7.667-48.56,6.206-63.164
				c0,0-7.613-0.036-7.247,9.091c0.366,9.127,14.613,23.714-10.442,29.427"/>
			<g>
				<path d="M474.314,320.836c6.502,19.767,7.333,42.706,1.461,62.629c-0.277,0.939,0.329,1.774,1.184,2.085
					c2.678,0.974,5.354,1.947,8.032,2.921c0.15-1.11,0.301-2.219,0.451-3.329c-13.753,0.974-27.506,1.947-41.257,2.921
					c0.545,0.715,1.089,1.43,1.634,2.146c1.324-8.41,2.483-16.846,3.553-25.292c1.582-12.481,3.818-25.715,2.714-38.323
					c-0.079-0.904-0.711-1.716-1.695-1.695c-7.989,0.171-9.97,8.56-8.169,14.987c1.148,4.096,3.198,7.922,3.568,12.216
					c0.641,7.436-7.823,9.967-13.539,11.378c-2.122,0.523-1.221,3.793,0.902,3.269c8.895-2.195,17.235-6.454,15.774-16.796
					c-0.733-5.193-9.587-21.428,1.465-21.664c-0.565-0.565-1.13-1.13-1.695-1.695c1.033,11.791-0.981,24.104-2.399,35.784
					c-1.093,8.995-2.338,17.978-3.748,26.929c-0.158,1.007,0.434,2.23,1.634,2.146c13.753-0.974,27.506-1.947,41.257-2.921
					c1.943-0.138,2.263-2.67,0.451-3.329c-2.678-0.974-5.354-1.947-8.032-2.921c0.394,0.695,0.789,1.39,1.184,2.085
					c6.037-20.477,5.223-44.114-1.461-64.431C476.902,317.869,473.628,318.753,474.314,320.836L474.314,320.836z"/>
			</g>
		</g>
		<g>
			<line fill="none" x1="464.994" y1="358.722" x2="462.074" y2="387.931"/>
			<g>
				<path d="M463.3,358.722c-0.974,9.736-1.947,19.472-2.921,29.209c-0.217,2.175,3.174,2.154,3.39,0
					c0.974-9.736,1.947-19.472,2.921-29.209C466.906,356.547,463.514,356.568,463.3,358.722L463.3,358.722z"/>
			</g>
		</g>
		<g>
			<line fill="none" x1="485.44" y1="347.768" x2="481.059" y2="353.245"/>
			<g>
				<path d="M484.242,346.571c-1.461,1.826-2.921,3.651-4.382,5.476c-0.576,0.721-0.707,1.69,0,2.396
					c0.599,0.599,1.819,0.722,2.396,0c1.461-1.826,2.921-3.651,4.382-5.477c0.576-0.721,0.707-1.69,0-2.396
					C486.039,345.972,484.82,345.848,484.242,346.571L484.242,346.571z"/>
			</g>
		</g>
		<g>
			<g>
				<path d="M477.648,331.341c1.288,0.818,2.415,1.877,3.418,3.019c2.527,2.876,1.738,5.743-1.227,7.928
					c-1.74,1.281-0.052,4.226,1.711,2.926c3.746-2.759,5.688-6.406,3.576-10.858c-1.154-2.431-3.523-4.518-5.767-5.943
					C477.507,327.24,475.808,330.174,477.648,331.341L477.648,331.341z"/>
			</g>
		</g>
		<g>
			<g>
				<path d="M477.522,308.161c-2.45-1.737-6.256-1.451-9.088-1.354c-2.648,0.09-5.304,0.372-7.925,0.755
					c-2.157,0.314-1.236,3.581,0.902,3.269c1.883-0.275,3.786-0.437,5.684-0.564c2.53-0.169,6.515-0.739,8.716,0.821
					C477.599,312.355,479.291,309.413,477.522,308.161L477.522,308.161z"/>
			</g>
		</g>
		<g>
			<ellipse fill="#FFFFFF" cx="469.106" cy="298.046" rx="0.115" ry="0.155"/>
			<g>
				<path d="M467.587,297.596c-0.011,0.036-0.023,0.072-0.034,0.11c0.26-0.338,0.52-0.676,0.778-1.012
					c-0.027,0.015-0.054,0.031-0.081,0.045c0.571,0,1.14,0,1.711,0c-0.027-0.015-0.054-0.031-0.081-0.045
					c0.26,0.338,0.52,0.676,0.778,1.012c-0.011-0.036-0.023-0.072-0.034-0.11c0,0.301,0,0.601,0,0.902
					c0.011-0.036,0.023-0.072,0.034-0.11c-0.26,0.338-0.52,0.676-0.778,1.012c0.027-0.015,0.054-0.031,0.081-0.045
					c-0.571,0-1.14,0-1.711,0c0.027,0.015,0.054,0.031,0.081,0.045c-0.26-0.338-0.52-0.676-0.778-1.012
					c0.011,0.036,0.023,0.072,0.034,0.11c0.273,0.881,1.173,1.435,2.085,1.184c0.869-0.238,1.458-1.202,1.184-2.085
					c-0.245-0.788-0.886-1.399-1.75-1.399c-0.995,0-1.81,0.867-1.81,1.85c0,0.824,0.566,1.571,1.36,1.789
					c1.015,0.279,1.909-0.402,2.201-1.338c0.275-0.882-0.315-1.846-1.184-2.085C468.76,296.162,467.862,296.715,467.587,297.596z"/>
			</g>
		</g>
	</g>
	<g>
		<g>
			<path d="M431.247,362.2c2.935-0.245,5.911-2.123,8.403-3.505c1.912-1.06,0.202-3.987-1.711-2.926
				c-1.771,0.981-3.569,1.945-5.473,2.643c-0.384,0.141-0.775,0.262-1.172,0.364c-0.276,0.07-0.708,0.09-0.047,0.035
				C429.086,358.991,429.068,362.383,431.247,362.2L431.247,362.2z"/>
		</g>
	</g>
</g>
<g>
	<g>
		<g>
			<path fill="#FFFFFF" d="M703.134,410.48c0,0,10.917-0.475,6.645-9.968c-2.118-4.708-4.957-12.112-1.898-19.461
				c3.057-7.348,8.927-12.925,18.967-10.552c0,0-6.633-12.823-5.477-21.176c0.714-5.154,7.312-10.608,14.97-8.762
				c4.63,1.116,10.588,4.017,17.89,12.414l-3.651,1.826l-0.73,14.24c0,0,13.025,5.782,16.065,15.335
				c2.556,8.032,2.68,13.552-7.667,26.288"/>
			<g>
				<path d="M703.134,412.174c4.775-0.281,9.138-2.82,9.325-7.97c0.087-2.385-1.374-4.845-2.233-6.961
					c-1.804-4.447-2.422-9.017-1.404-13.737c1.816-8.413,9.433-12.961,17.575-11.371c1.48,0.289,2.615-1.116,1.914-2.489
					c-3.071-6.021-6.571-14.226-5.039-21.062c1.54-6.868,10.316-7.349,15.555-5.474c5.704,2.041,10.259,6.669,14.205,11.065
					c0.114-0.887,0.228-1.775,0.344-2.662c-1.217,0.609-2.434,1.217-3.651,1.826c-0.543,0.272-0.81,0.889-0.839,1.463
					c-0.243,4.747-0.487,9.493-0.73,14.24c-0.028,0.541,0.332,1.233,0.839,1.463c5.754,2.61,11.211,6.7,14.398,12.216
					c5.582,9.664-0.289,19.137-6.343,26.745c-1.346,1.691,1.036,4.107,2.396,2.396c4.719-5.931,9.565-12.37,9.606-20.269
					c0.036-7.203-3.831-13.539-9.107-18.11c-2.273-1.969-4.857-3.597-7.491-5.034c-0.547-0.298-1.106-0.573-1.67-0.836
					c0.54,1.476,0.801,1.806,0.783,0.987c0.034-0.667,0.069-1.333,0.103-1.999c0.16-3.121,0.32-6.24,0.48-9.361
					c0.025-0.496,0.051-0.991,0.076-1.487c0.084-1.63,0.223,0.003-0.52,0.375c1.126-0.564,2.254-1.126,3.381-1.69
					c1.025-0.513,1.029-1.897,0.344-2.662c-7.893-8.795-20.856-18.715-32.096-9.299c-8.18,6.853-1.805,21.318,2.051,28.878
					c0.638-0.829,1.276-1.66,1.914-2.489c-10.846-2.117-18.264,3.672-21.745,13.739c-1.929,5.577-0.089,12.252,2.172,17.415
					c2.106,4.81,0.86,8.446-4.591,8.767C700.962,408.912,700.95,412.303,703.134,412.174L703.134,412.174z"/>
			</g>
		</g>
		<g>
			<path fill="#FFFFFF" d="M748.754,375.247c0,0,10.953,32.86,1.461,63.529l8.032,2.921l-41.257,2.921c0,0,7.667-48.56,6.206-63.164
				c0,0-7.613-0.036-7.247,9.091c0.365,9.128,14.613,23.714-10.442,29.427"/>
			<g>
				<path d="M747.121,375.697c6.502,19.767,7.333,42.706,1.461,62.629c-0.277,0.939,0.329,1.774,1.184,2.085
					c2.678,0.974,5.354,1.947,8.032,2.921c0.15-1.11,0.301-2.219,0.451-3.329c-13.753,0.974-27.506,1.947-41.257,2.921
					c0.545,0.715,1.089,1.43,1.634,2.146c1.324-8.41,2.483-16.846,3.553-25.292c1.582-12.481,3.818-25.715,2.714-38.323
					c-0.079-0.904-0.711-1.716-1.695-1.695c-7.989,0.171-9.97,8.56-8.169,14.987c1.148,4.096,3.198,7.922,3.568,12.216
					c0.641,7.436-7.823,9.967-13.539,11.378c-2.122,0.523-1.221,3.793,0.902,3.269c8.895-2.195,17.235-6.453,15.774-16.796
					c-0.733-5.193-9.587-21.428,1.465-21.664c-0.565-0.565-1.13-1.13-1.695-1.695c1.033,11.791-0.981,24.104-2.399,35.784
					c-1.093,8.995-2.338,17.978-3.748,26.929c-0.158,1.007,0.434,2.23,1.634,2.146c13.753-0.974,27.506-1.947,41.257-2.921
					c1.943-0.138,2.263-2.67,0.451-3.329c-2.678-0.974-5.356-1.947-8.032-2.921c0.394,0.695,0.789,1.39,1.184,2.085
					c6.037-20.477,5.223-44.114-1.461-64.431C749.709,372.729,746.435,373.614,747.121,375.697L747.121,375.697z"/>
			</g>
		</g>
		<g>
			<line fill="none" x1="737.802" y1="413.583" x2="734.881" y2="442.792"/>
			<g>
				<path d="M736.107,413.583c-0.974,9.736-1.947,19.472-2.921,29.209c-0.217,2.175,3.174,2.154,3.39,0
					c0.974-9.736,1.947-19.472,2.921-29.209C739.713,411.408,736.321,411.43,736.107,413.583L736.107,413.583z"/>
			</g>
		</g>
		<g>
			<line fill="none" x1="758.248" y1="402.629" x2="753.866" y2="408.107"/>
			<g>
				<path d="M757.049,401.432c-1.461,1.826-2.921,3.651-4.382,5.477c-0.576,0.721-0.707,1.69,0,2.396
					c0.599,0.599,1.819,0.722,2.396,0c1.461-1.826,2.921-3.651,4.382-5.477c0.576-0.721,0.707-1.69,0-2.396
					C758.848,400.833,757.627,400.708,757.049,401.432L757.049,401.432z"/>
			</g>
		</g>
		<g>
			<g>
				<path d="M750.455,386.202c1.288,0.818,2.415,1.877,3.418,3.019c2.528,2.876,1.738,5.743-1.227,7.928
					c-1.739,1.281-0.052,4.226,1.711,2.926c3.746-2.759,5.688-6.406,3.576-10.858c-1.154-2.431-3.523-4.518-5.767-5.943
					C750.315,382.101,748.615,385.035,750.455,386.202L750.455,386.202z"/>
			</g>
		</g>
		<g>
			<g>
				<path d="M750.33,363.022c-2.45-1.737-6.255-1.451-9.088-1.354c-2.648,0.09-5.304,0.372-7.925,0.755
					c-2.156,0.314-1.236,3.581,0.902,3.269c1.883-0.275,3.786-0.437,5.684-0.564c2.53-0.169,6.515-0.739,8.716,0.821
					C750.406,367.216,752.098,364.274,750.33,363.022L750.33,363.022z"/>
			</g>
		</g>
		<g>
			<ellipse fill="#FFFFFF" cx="741.913" cy="352.908" rx="0.115" ry="0.155"/>
			<g>
				<path d="M740.395,352.457c-0.011,0.036-0.023,0.072-0.034,0.11c0.26-0.338,0.52-0.676,0.779-1.012
					c-0.027,0.015-0.054,0.03-0.081,0.045c0.571,0,1.14,0,1.711,0c-0.027-0.015-0.054-0.031-0.082-0.045
					c0.26,0.338,0.52,0.676,0.779,1.012c-0.011-0.036-0.023-0.072-0.034-0.11c0,0.301,0,0.601,0,0.902
					c0.011-0.036,0.023-0.072,0.034-0.11c-0.26,0.338-0.52,0.676-0.779,1.012c0.027-0.015,0.054-0.031,0.082-0.045
					c-0.571,0-1.14,0-1.711,0c0.027,0.015,0.054,0.031,0.081,0.045c-0.26-0.338-0.52-0.676-0.779-1.012
					c0.011,0.036,0.023,0.072,0.034,0.11c0.273,0.881,1.172,1.435,2.085,1.184c0.869-0.238,1.457-1.202,1.184-2.085
					c-0.245-0.788-0.886-1.399-1.75-1.399c-0.995,0-1.81,0.867-1.81,1.85c0,0.824,0.566,1.571,1.36,1.789
					c1.015,0.279,1.909-0.402,2.201-1.338c0.275-0.882-0.315-1.846-1.184-2.085C741.567,351.022,740.669,351.576,740.395,352.457z"
					/>
			</g>
		</g>
	</g>
	<g>
		<g>
			<path d="M704.055,417.061c2.935-0.245,5.911-2.123,8.403-3.505c1.912-1.06,0.202-3.987-1.711-2.926
				c-1.771,0.981-3.569,1.945-5.473,2.643c-0.384,0.141-0.775,0.262-1.172,0.364c-0.276,0.07-0.708,0.09-0.047,0.035
				C701.893,413.852,701.875,417.244,704.055,417.061L704.055,417.061z"/>
		</g>
	</g>
</g>
<g>
	<g>
		<g>
			<path fill="#FFFFFF" d="M695.595,580.694c0,0,10.917-0.474,6.645-9.968c-2.119-4.708-4.957-12.112-1.898-19.461
				c3.057-7.348,8.927-12.925,18.967-10.552c0,0-6.633-12.823-5.476-21.176c0.714-5.154,7.312-10.608,14.97-8.762
				c4.63,1.116,10.588,4.017,17.89,12.414l-3.651,1.826l-0.73,14.24c0,0,13.025,5.782,16.065,15.335
				c2.556,8.032,2.68,13.552-7.667,26.288"/>
			<g>
				<path d="M695.595,582.389c4.775-0.281,9.138-2.82,9.325-7.97c0.087-2.385-1.374-4.845-2.233-6.961
					c-1.804-4.447-2.422-9.018-1.404-13.737c1.816-8.413,9.433-12.961,17.575-11.371c1.48,0.289,2.615-1.116,1.914-2.489
					c-3.071-6.021-6.571-14.226-5.039-21.062c1.54-6.868,10.316-7.349,15.555-5.474c5.704,2.041,10.259,6.668,14.205,11.065
					c0.114-0.887,0.228-1.775,0.344-2.662c-1.217,0.609-2.434,1.217-3.651,1.826c-0.545,0.272-0.81,0.889-0.839,1.463
					c-0.243,4.747-0.487,9.493-0.73,14.24c-0.028,0.541,0.332,1.233,0.839,1.463c5.754,2.61,11.211,6.7,14.398,12.216
					c5.582,9.664-0.289,19.137-6.343,26.745c-1.346,1.691,1.036,4.107,2.396,2.396c4.719-5.931,9.565-12.37,9.606-20.269
					c0.036-7.203-3.831-13.539-9.107-18.11c-2.273-1.969-4.856-3.597-7.491-5.034c-0.547-0.298-1.106-0.573-1.67-0.836
					c0.54,1.476,0.801,1.806,0.783,0.987c0.034-0.667,0.068-1.333,0.103-1.999c0.161-3.121,0.32-6.24,0.48-9.361
					c0.025-0.496,0.051-0.991,0.076-1.487c0.084-1.63,0.223,0.003-0.52,0.375c1.127-0.564,2.254-1.126,3.381-1.69
					c1.025-0.513,1.029-1.897,0.344-2.662c-7.893-8.795-20.856-18.715-32.096-9.299c-8.18,6.853-1.806,21.318,2.051,28.878
					c0.638-0.829,1.276-1.66,1.914-2.489c-10.846-2.117-18.264,3.672-21.745,13.739c-1.929,5.577-0.089,12.252,2.172,17.415
					c2.106,4.81,0.86,8.446-4.591,8.767C693.424,579.128,693.411,582.518,695.595,582.389L695.595,582.389z"/>
			</g>
		</g>
		<g>
			<path fill="#FFFFFF" d="M741.216,545.462c0,0,10.953,32.86,1.461,63.529l8.032,2.921l-41.257,2.921c0,0,7.667-48.56,6.206-63.164
				c0,0-7.613-0.036-7.247,9.091c0.365,9.128,14.613,23.714-10.442,29.427"/>
			<g>
				<path d="M739.582,545.913c6.502,19.767,7.333,42.706,1.461,62.629c-0.277,0.939,0.329,1.774,1.184,2.085
					c2.678,0.974,5.354,1.947,8.032,2.921c0.15-1.109,0.301-2.219,0.451-3.329c-13.753,0.974-27.506,1.947-41.257,2.921
					c0.545,0.715,1.089,1.43,1.634,2.146c1.324-8.41,2.483-16.846,3.553-25.292c1.582-12.481,3.818-25.715,2.714-38.323
					c-0.079-0.904-0.711-1.716-1.695-1.695c-7.989,0.171-9.97,8.56-8.169,14.987c1.148,4.096,3.198,7.922,3.568,12.216
					c0.641,7.436-7.823,9.967-13.539,11.378c-2.122,0.524-1.221,3.793,0.902,3.269c8.895-2.195,17.235-6.454,15.774-16.795
					c-0.733-5.193-9.587-21.428,1.465-21.664c-0.565-0.565-1.13-1.13-1.695-1.695c1.033,11.791-0.981,24.104-2.399,35.784
					c-1.093,8.995-2.338,17.978-3.748,26.929c-0.158,1.007,0.434,2.23,1.634,2.146c13.753-0.974,27.506-1.947,41.257-2.921
					c1.943-0.138,2.263-2.67,0.451-3.329c-2.678-0.974-5.354-1.947-8.032-2.921c0.394,0.695,0.789,1.39,1.184,2.085
					c6.037-20.477,5.223-44.114-1.461-64.431C742.171,542.944,738.896,543.83,739.582,545.913L739.582,545.913z"/>
			</g>
		</g>
		<g>
			<line fill="none" x1="730.263" y1="583.798" x2="727.342" y2="613.008"/>
			<g>
				<path d="M728.568,583.798c-0.974,9.736-1.947,19.472-2.921,29.209c-0.217,2.175,3.174,2.154,3.39,0
					c0.974-9.736,1.947-19.472,2.921-29.209C732.175,581.624,728.783,581.645,728.568,583.798L728.568,583.798z"/>
			</g>
		</g>
		<g>
			<line fill="none" x1="750.709" y1="572.845" x2="746.328" y2="578.322"/>
			<g>
				<path d="M749.51,571.646c-1.461,1.826-2.921,3.651-4.382,5.476c-0.576,0.721-0.707,1.69,0,2.396
					c0.599,0.599,1.819,0.722,2.396,0c1.461-1.826,2.921-3.651,4.382-5.476c0.576-0.721,0.707-1.69,0-2.396
					C751.308,571.048,750.089,570.924,749.51,571.646L749.51,571.646z"/>
			</g>
		</g>
		<g>
			<g>
				<path d="M742.916,556.418c1.288,0.818,2.415,1.877,3.418,3.019c2.528,2.875,1.738,5.743-1.227,7.928
					c-1.74,1.281-0.052,4.226,1.711,2.926c3.746-2.759,5.688-6.406,3.576-10.858c-1.154-2.431-3.523-4.518-5.767-5.943
					C742.775,552.317,741.077,555.251,742.916,556.418L742.916,556.418z"/>
			</g>
		</g>
		<g>
			<g>
				<path d="M742.791,533.237c-2.45-1.737-6.256-1.451-9.088-1.354c-2.648,0.09-5.304,0.372-7.925,0.755
					c-2.157,0.314-1.236,3.581,0.902,3.269c1.883-0.275,3.786-0.437,5.684-0.564c2.53-0.169,6.515-0.739,8.716,0.821
					C742.868,537.431,744.559,534.49,742.791,533.237L742.791,533.237z"/>
			</g>
		</g>
		<g>
			<ellipse fill="#FFFFFF" cx="734.375" cy="523.123" rx="0.115" ry="0.155"/>
			<g>
				<path d="M732.856,522.672c-0.011,0.036-0.023,0.072-0.034,0.11c0.26-0.338,0.52-0.676,0.779-1.012
					c-0.027,0.015-0.054,0.031-0.081,0.045c0.571,0,1.14,0,1.711,0c-0.027-0.015-0.054-0.031-0.081-0.045
					c0.26,0.338,0.52,0.676,0.779,1.012c-0.011-0.036-0.023-0.072-0.034-0.11c0,0.301,0,0.601,0,0.902
					c0.011-0.036,0.023-0.072,0.034-0.11c-0.26,0.338-0.52,0.676-0.779,1.012c0.027-0.015,0.054-0.031,0.081-0.045
					c-0.571,0-1.14,0-1.711,0c0.027,0.015,0.054,0.031,0.081,0.045c-0.26-0.338-0.52-0.676-0.779-1.012
					c0.011,0.036,0.023,0.072,0.034,0.11c0.273,0.881,1.173,1.435,2.085,1.184c0.869-0.238,1.458-1.202,1.184-2.085
					c-0.245-0.788-0.886-1.399-1.75-1.399c-0.995,0-1.81,0.867-1.81,1.85c0,0.824,0.566,1.571,1.36,1.789
					c1.015,0.279,1.909-0.402,2.201-1.338c0.275-0.882-0.315-1.846-1.184-2.085C734.029,521.237,733.129,521.791,732.856,522.672z"
					/>
			</g>
		</g>
	</g>
	<g>
		<g>
			<path d="M696.516,587.277c2.935-0.245,5.911-2.123,8.403-3.505c1.912-1.06,0.202-3.987-1.711-2.926
				c-1.771,0.981-3.569,1.944-5.473,2.643c-0.384,0.141-0.775,0.262-1.172,0.364c-0.276,0.07-0.708,0.09-0.047,0.035
				C694.355,584.068,694.337,587.459,696.516,587.277L696.516,587.277z"/>
		</g>
	</g>
</g>
</svg>
