<?xml version="1.0" encoding="utf-8"?>
<!-- Generator: Adobe Illustrator 17.1.0, SVG Export Plug-In . SVG Version: 6.00 Build 0)  -->
<!DOCTYPE svg PUBLIC "-//W3C//DTD SVG 1.1//EN" "http://www.w3.org/Graphics/SVG/1.1/DTD/svg11.dtd">
<svg version="1.1" id="Lager_1" xmlns="http://www.w3.org/2000/svg" xmlns:xlink="http://www.w3.org/1999/xlink" x="0px" y="0px"
	 viewBox="-425 -425 900 900" enable-background="new -425 -425 900 900" xml:space="preserve">
<g>
	<g>
		<g>
			<path fill="#FFFFFF" d="M-5.634,9.05c0,0,9.966-0.434,6.066-9.1C-1.502-4.348-4.093-11.107-1.3-17.816
				c2.791-6.708,8.149-11.799,17.315-9.633c0,0-6.055-11.706-5-19.331c0.652-4.705,6.675-9.684,13.666-7.999
				c4.227,1.019,9.666,3.667,16.332,11.333l-3.333,1.667l-0.666,13c0,0,11.89,5.278,14.665,13.999
				c2.333,7.332,2.447,12.371-6.999,23.998"/>
			<g>
				<path d="M-5.634,10.597c4.359-0.257,8.342-2.574,8.513-7.276C2.958,1.144,1.625-1.102,0.84-3.033
					c-1.647-4.06-2.211-8.232-1.282-12.54c1.658-7.68,8.611-11.832,16.044-10.38c1.351,0.264,2.387-1.019,1.747-2.272
					c-2.803-5.497-5.999-12.987-4.6-19.227c1.406-6.27,9.417-6.709,14.2-4.997c5.207,1.863,9.365,6.087,12.968,10.101
					c0.104-0.81,0.208-1.62,0.314-2.43c-1.111,0.556-2.222,1.111-3.333,1.667c-0.496,0.248-0.739,0.812-0.766,1.336
					c-0.222,4.333-0.445,8.666-0.666,13c-0.026,0.494,0.303,1.126,0.767,1.336c5.253,2.383,10.234,6.116,13.144,11.152
					c5.096,8.822-0.264,17.47-5.79,24.415c-1.229,1.544,0.946,3.749,2.187,2.187c4.308-5.414,8.732-11.292,8.769-18.503
					c0.033-6.576-3.497-12.36-8.314-16.532c-2.075-1.797-4.433-3.285-6.838-4.595c-0.499-0.272-1.01-0.523-1.525-0.763
					c0.493,1.347,0.731,1.649,0.715,0.902c0.031-0.609,0.062-1.217,0.094-1.825c0.146-2.849,0.292-5.696,0.438-8.546
					c0.023-0.453,0.047-0.905,0.069-1.357c0.077-1.488,0.204,0.003-0.475,0.342c1.028-0.515,2.058-1.028,3.086-1.543
					c0.937-0.468,0.939-1.732,0.314-2.43c-7.205-8.029-19.039-17.085-29.3-8.489c-7.467,6.256-1.649,19.461,1.872,26.362
					c0.582-0.757,1.165-1.515,1.747-2.273C6.527-30.871-0.245-25.586-3.423-16.396C-5.184-11.305-3.504-5.211-1.44-0.498
					c1.923,4.391,0.784,7.71-4.191,8.003C-7.616,7.619-7.628,10.714-5.634,10.597L-5.634,10.597z"/>
			</g>
		</g>
		<g>
			<path fill="#FFFFFF" d="M36.013-23.115c0,0,9.999,29.998,1.334,57.995l7.332,2.667L7.016,40.213c0,0,6.999-44.33,5.665-57.662
				c0,0-6.95-0.033-6.616,8.299C6.4-0.818,19.406,12.499-3.467,17.714"/>
			<g>
				<path d="M34.521-22.703c5.936,18.045,6.694,38.986,1.334,57.173c-0.253,0.857,0.3,1.619,1.081,1.903
					c2.445,0.889,4.888,1.777,7.332,2.667c0.137-1.013,0.275-2.026,0.412-3.039c-12.555,0.889-25.11,1.777-37.663,2.667
					c0.498,0.653,0.994,1.305,1.492,1.959c1.209-7.677,2.267-15.379,3.243-23.089c1.444-11.394,3.485-23.475,2.478-34.985
					c-0.072-0.825-0.649-1.567-1.547-1.547C5.389-18.838,3.581-11.18,5.225-5.313C6.273-1.574,8.144,1.919,8.482,5.839
					c0.585,6.788-7.142,9.099-12.36,10.387c-1.937,0.477-1.115,3.462,0.823,2.984c8.12-2.004,15.734-5.892,14.4-15.333
					c-0.669-4.741-8.752-19.561,1.337-19.776c-0.516-0.516-1.032-1.032-1.547-1.547c0.943,10.764-0.896,22.004-2.19,32.667
					c-0.998,8.211-2.134,16.412-3.421,24.583c-0.144,0.919,0.396,2.036,1.492,1.959c12.555-0.889,25.11-1.777,37.663-2.667
					c1.774-0.126,2.066-2.437,0.412-3.039c-2.445-0.889-4.888-1.777-7.332-2.667c0.36,0.634,0.72,1.269,1.081,1.903
					c5.511-18.693,4.768-40.271-1.334-58.818C36.885-25.412,33.895-24.604,34.521-22.703L34.521-22.703z"/>
			</g>
		</g>
		<g>
			<line fill="none" x1="26.014" y1="11.882" x2="23.348" y2="38.547"/>
			<g>
				<path d="M24.467,11.882c-0.889,8.888-1.777,17.776-2.667,26.665c-0.198,1.986,2.898,1.966,3.095,0
					c0.889-8.888,1.777-17.776,2.667-26.665C27.76,9.898,24.663,9.916,24.467,11.882L24.467,11.882z"/>
			</g>
		</g>
		<g>
			<line fill="none" x1="44.679" y1="1.884" x2="40.679" y2="6.883"/>
			<g>
				<path d="M43.585,0.789c-1.334,1.667-2.667,3.333-4,4.999c-0.526,0.658-0.645,1.543,0,2.187c0.547,0.547,1.661,0.659,2.187,0
					c1.334-1.667,2.667-3.333,4-5c0.526-0.658,0.645-1.543,0-2.187C45.227,0.242,44.113,0.13,43.585,0.789L43.585,0.789z"/>
			</g>
		</g>
		<g>
			<g>
				<path d="M37.565-13.112c1.176,0.747,2.205,1.714,3.12,2.756c2.308,2.625,1.587,5.243-1.12,7.237
					c-1.588,1.169-0.047,3.858,1.562,2.671c3.42-2.519,5.193-5.848,3.264-9.912c-1.053-2.219-3.216-4.124-5.265-5.425
					C37.437-16.857,35.886-14.178,37.565-13.112L37.565-13.112z"/>
			</g>
		</g>
		<g>
			<g>
				<path d="M37.451-34.275c-2.237-1.586-5.711-1.325-8.296-1.236c-2.417,0.082-4.842,0.34-7.235,0.689
					c-1.968,0.287-1.128,3.269,0.823,2.984c1.719-0.251,3.456-0.399,5.189-0.515c2.31-0.154,5.947-0.675,7.957,0.749
					C37.521-30.446,39.065-33.131,37.451-34.275L37.451-34.275z"/>
			</g>
		</g>
		<g>
			<ellipse fill="#FFFFFF" cx="29.768" cy="-43.507" rx="0.105" ry="0.141"/>
			<g>
				<path d="M28.381-43.919c-0.01,0.033-0.021,0.066-0.031,0.1c0.237-0.309,0.475-0.617,0.71-0.924
					c-0.025,0.014-0.049,0.028-0.074,0.041c0.521,0,1.041,0,1.562,0c-0.025-0.014-0.049-0.028-0.074-0.041
					c0.237,0.309,0.475,0.617,0.711,0.924c-0.01-0.033-0.021-0.066-0.031-0.1c0,0.275,0,0.549,0,0.823
					c0.01-0.033,0.021-0.066,0.031-0.1c-0.237,0.309-0.475,0.617-0.711,0.924c0.025-0.014,0.049-0.028,0.074-0.041
					c-0.521,0-1.041,0-1.562,0c0.025,0.014,0.049,0.028,0.074,0.041c-0.237-0.309-0.475-0.617-0.71-0.924
					c0.01,0.033,0.021,0.066,0.031,0.1c0.249,0.804,1.071,1.31,1.903,1.081c0.793-0.217,1.331-1.097,1.081-1.903
					c-0.224-0.719-0.809-1.277-1.598-1.277c-0.908,0-1.652,0.791-1.652,1.689c0,0.752,0.517,1.434,1.242,1.633
					c0.927,0.255,1.743-0.367,2.009-1.221c0.251-0.805-0.288-1.685-1.081-1.903C29.452-45.228,28.632-44.723,28.381-43.919z"/>
			</g>
		</g>
	</g>
	<g>
		<g>
			<path d="M-4.793,15.058c2.679-0.224,5.396-1.938,7.671-3.2c1.745-0.968,0.184-3.64-1.562-2.671
				C-0.3,10.083-1.942,10.963-3.68,11.6c-0.351,0.129-0.708,0.239-1.07,0.332c-0.252,0.064-0.646,0.082-0.043,0.032
				C-6.766,12.129-6.783,15.225-4.793,15.058L-4.793,15.058z"/>
		</g>
	</g>
</g>
<g>
	<g>
		<g>
			<path fill="#FFFFFF" d="M71.724,51.339c0,0,9.966-0.434,6.066-9.1c-1.934-4.298-4.525-11.057-1.733-17.766
				c2.791-6.708,8.149-11.799,17.315-9.633c0,0-6.055-11.706-5-19.331c0.652-4.705,6.675-9.684,13.666-7.999
				c4.227,1.019,9.666,3.667,16.332,11.333l-3.333,1.667l-0.666,13c0,0,11.89,5.278,14.666,13.999
				c2.333,7.332,2.447,12.371-6.999,23.998"/>
			<g>
				<path d="M71.724,52.887c4.359-0.257,8.342-2.574,8.513-7.276c0.079-2.177-1.254-4.423-2.038-6.355
					c-1.647-4.06-2.211-8.232-1.282-12.54c1.658-7.68,8.611-11.832,16.044-10.38c1.351,0.264,2.387-1.019,1.747-2.272
					c-2.803-5.497-5.999-12.987-4.6-19.227c1.406-6.27,9.417-6.709,14.2-4.997c5.207,1.863,9.365,6.087,12.968,10.101
					c0.104-0.81,0.208-1.62,0.313-2.43c-1.111,0.556-2.222,1.111-3.333,1.667c-0.496,0.248-0.739,0.812-0.767,1.336
					c-0.222,4.333-0.445,8.666-0.666,13c-0.026,0.494,0.303,1.126,0.766,1.336c5.253,2.383,10.234,6.116,13.144,11.152
					c5.096,8.822-0.264,17.47-5.79,24.415c-1.229,1.544,0.946,3.749,2.187,2.187c4.308-5.414,8.732-11.292,8.769-18.503
					c0.033-6.576-3.497-12.36-8.314-16.532c-2.075-1.797-4.433-3.285-6.838-4.595c-0.499-0.272-1.01-0.523-1.525-0.763
					c0.493,1.347,0.731,1.649,0.715,0.902c0.031-0.609,0.062-1.217,0.094-1.825c0.146-2.849,0.292-5.696,0.438-8.546
					c0.023-0.453,0.047-0.905,0.069-1.357c0.077-1.488,0.204,0.003-0.475,0.342c1.029-0.515,2.058-1.028,3.086-1.543
					c0.937-0.468,0.939-1.732,0.313-2.43c-7.205-8.029-19.039-17.085-29.3-8.489c-7.467,6.256-1.648,19.461,1.872,26.362
					c0.582-0.757,1.165-1.515,1.747-2.273c-9.901-1.933-16.673,3.352-19.851,12.542c-1.761,5.091-0.081,11.185,1.983,15.898
					c1.923,4.391,0.784,7.71-4.191,8.003C69.743,49.909,69.731,53.003,71.724,52.887L71.724,52.887z"/>
			</g>
		</g>
		<g>
			<path fill="#FFFFFF" d="M113.371,19.175c0,0,9.999,29.998,1.334,57.995l7.332,2.667l-37.663,2.667c0,0,6.999-44.33,5.665-57.662
				c0,0-6.95-0.033-6.616,8.299c0.334,8.332,13.34,21.648-9.532,26.864"/>
			<g>
				<path d="M111.88,19.586c5.936,18.045,6.694,38.986,1.334,57.173c-0.253,0.857,0.3,1.619,1.081,1.903
					c2.445,0.889,4.888,1.777,7.332,2.667c0.137-1.013,0.275-2.026,0.412-3.039c-12.555,0.889-25.11,1.777-37.663,2.667
					c0.498,0.653,0.994,1.305,1.492,1.959c1.209-7.677,2.267-15.379,3.243-23.089c1.444-11.394,3.485-23.475,2.478-34.985
					c-0.072-0.825-0.649-1.567-1.547-1.547c-7.293,0.156-9.101,7.814-7.457,13.681c1.048,3.739,2.919,7.232,3.257,11.152
					c0.585,6.788-7.142,9.099-12.36,10.387c-1.937,0.477-1.115,3.462,0.823,2.984c8.12-2.004,15.734-5.892,14.4-15.333
					c-0.669-4.741-8.752-19.561,1.337-19.776c-0.516-0.516-1.032-1.032-1.547-1.547c0.943,10.764-0.896,22.004-2.19,32.667
					c-0.998,8.211-2.134,16.412-3.422,24.583c-0.144,0.919,0.396,2.036,1.492,1.959c12.555-0.889,25.11-1.777,37.663-2.667
					c1.774-0.126,2.066-2.437,0.412-3.039c-2.445-0.889-4.888-1.777-7.332-2.667c0.36,0.634,0.72,1.269,1.081,1.903
					c5.511-18.693,4.768-40.27-1.334-58.818C114.243,16.878,111.254,17.686,111.88,19.586L111.88,19.586z"/>
			</g>
		</g>
		<g>
			<line fill="none" x1="103.373" y1="54.172" x2="100.707" y2="80.837"/>
			<g>
				<path d="M101.825,54.172c-0.889,8.888-1.777,17.776-2.667,26.665c-0.198,1.986,2.898,1.966,3.095,0
					c0.889-8.888,1.777-17.776,2.667-26.665C105.118,52.187,102.021,52.206,101.825,54.172L101.825,54.172z"/>
			</g>
		</g>
		<g>
			<line fill="none" x1="122.038" y1="44.173" x2="118.038" y2="49.172"/>
			<g>
				<path d="M120.944,43.079c-1.334,1.667-2.667,3.333-4,4.999c-0.526,0.658-0.645,1.543,0,2.187c0.547,0.547,1.661,0.659,2.187,0
					c1.334-1.667,2.667-3.333,4-5c0.526-0.658,0.645-1.543,0-2.187C122.585,42.532,121.471,42.42,120.944,43.079L120.944,43.079z"/>
			</g>
		</g>
		<g>
			<g>
				<path d="M114.924,29.176c1.176,0.747,2.204,1.714,3.12,2.756c2.308,2.625,1.587,5.243-1.12,7.237
					c-1.588,1.169-0.047,3.858,1.562,2.671c3.42-2.519,5.193-5.848,3.264-9.912c-1.053-2.219-3.216-4.124-5.265-5.425
					C114.796,25.433,113.245,28.111,114.924,29.176L114.924,29.176z"/>
			</g>
		</g>
		<g>
			<g>
				<path d="M114.809,8.015c-2.237-1.586-5.711-1.325-8.296-1.236c-2.417,0.082-4.842,0.34-7.235,0.689
					c-1.968,0.287-1.128,3.269,0.823,2.984c1.719-0.251,3.456-0.399,5.189-0.515c2.31-0.154,5.947-0.675,7.957,0.749
					C114.88,11.843,116.423,9.158,114.809,8.015L114.809,8.015z"/>
			</g>
		</g>
		<g>
			<ellipse fill="#FFFFFF" cx="107.126" cy="-1.218" rx="0.105" ry="0.141"/>
			<g>
				<path d="M105.74-1.629c-0.01,0.033-0.021,0.066-0.031,0.1c0.237-0.309,0.475-0.617,0.711-0.924
					c-0.025,0.014-0.049,0.028-0.074,0.041c0.521,0,1.041,0,1.562,0c-0.025-0.014-0.049-0.028-0.074-0.041
					c0.237,0.309,0.475,0.617,0.71,0.924c-0.01-0.033-0.021-0.066-0.031-0.1c0,0.275,0,0.549,0,0.823
					c0.01-0.033,0.021-0.066,0.031-0.1c-0.237,0.309-0.475,0.617-0.71,0.924c0.025-0.014,0.049-0.028,0.074-0.041
					c-0.521,0-1.041,0-1.562,0c0.025,0.014,0.049,0.028,0.074,0.041c-0.237-0.309-0.475-0.617-0.711-0.924
					c0.01,0.033,0.021,0.066,0.031,0.1c0.249,0.804,1.071,1.31,1.903,1.081c0.793-0.217,1.331-1.097,1.081-1.903
					c-0.224-0.719-0.809-1.277-1.598-1.277c-0.908,0-1.652,0.791-1.652,1.689c0,0.752,0.517,1.434,1.242,1.633
					c0.927,0.255,1.743-0.367,2.009-1.221c0.251-0.805-0.288-1.685-1.081-1.903C106.81-2.938,105.991-2.434,105.74-1.629z"/>
			</g>
		</g>
	</g>
	<g>
		<g>
			<path d="M72.565,57.347c2.679-0.224,5.396-1.938,7.671-3.2c1.745-0.968,0.184-3.64-1.562-2.671
				c-1.617,0.896-3.258,1.775-4.996,2.413c-0.351,0.129-0.708,0.239-1.07,0.332c-0.252,0.064-0.646,0.082-0.043,0.032
				C70.592,54.419,70.576,57.513,72.565,57.347L72.565,57.347z"/>
		</g>
	</g>
</g>
<g>
	<g>
		<g>
			<path fill="#FFFFFF" d="M51.178-60.202c0,0,9.966-0.434,6.066-9.1c-1.934-4.298-4.525-11.057-1.733-17.766
				c2.791-6.708,8.149-11.799,17.315-9.633c0,0-6.055-11.706-4.999-19.331c0.652-4.705,6.675-9.684,13.666-7.999
				c4.227,1.019,9.666,3.667,16.332,11.333l-3.333,1.667l-0.666,13c0,0,11.89,5.278,14.665,13.999
				c2.333,7.332,2.447,12.371-6.999,23.998"/>
			<g>
				<path d="M51.178-58.655c4.359-0.257,8.342-2.574,8.513-7.276c0.079-2.177-1.254-4.423-2.038-6.355
					c-1.647-4.06-2.211-8.232-1.282-12.54c1.658-7.68,8.611-11.832,16.044-10.38c1.351,0.264,2.387-1.019,1.747-2.272
					c-2.803-5.497-5.999-12.987-4.6-19.227c1.406-6.27,9.417-6.709,14.2-4.997c5.207,1.863,9.365,6.087,12.968,10.101
					c0.104-0.81,0.208-1.62,0.313-2.43c-1.111,0.556-2.222,1.111-3.333,1.667c-0.496,0.248-0.739,0.812-0.767,1.336
					c-0.222,4.333-0.445,8.666-0.666,13c-0.026,0.494,0.303,1.126,0.766,1.336c5.253,2.383,10.235,6.116,13.144,11.152
					c5.096,8.822-0.264,17.47-5.79,24.415c-1.229,1.544,0.946,3.749,2.187,2.187c4.308-5.414,8.732-11.292,8.769-18.503
					c0.033-6.576-3.497-12.36-8.314-16.532c-2.075-1.797-4.433-3.285-6.838-4.595c-0.499-0.272-1.01-0.523-1.525-0.763
					c0.493,1.347,0.731,1.649,0.715,0.901c0.031-0.609,0.062-1.217,0.094-1.825c0.146-2.849,0.292-5.696,0.438-8.546
					c0.023-0.453,0.047-0.905,0.069-1.357c0.077-1.488,0.204,0.003-0.475,0.342c1.029-0.515,2.058-1.028,3.086-1.543
					c0.937-0.468,0.939-1.732,0.313-2.43c-7.205-8.029-19.039-17.085-29.3-8.489c-7.467,6.256-1.648,19.461,1.872,26.362
					c0.582-0.757,1.165-1.515,1.747-2.272c-9.901-1.933-16.673,3.352-19.851,12.542c-1.761,5.091-0.081,11.185,1.983,15.898
					c1.923,4.391,0.785,7.71-4.191,8.003C49.195-61.632,49.183-58.538,51.178-58.655L51.178-58.655z"/>
			</g>
		</g>
		<g>
			<path fill="#FFFFFF" d="M92.825-92.366c0,0,9.999,29.998,1.334,57.995l7.332,2.667l-37.663,2.667c0,0,6.999-44.33,5.665-57.662
				c0,0-6.95-0.033-6.616,8.299c0.334,8.332,13.34,21.648-9.532,26.864"/>
			<g>
				<path d="M91.332-91.954c5.936,18.045,6.694,38.986,1.334,57.173c-0.253,0.857,0.3,1.619,1.081,1.903
					c2.445,0.889,4.888,1.777,7.332,2.667c0.137-1.013,0.275-2.026,0.412-3.039c-12.555,0.889-25.11,1.777-37.663,2.667
					c0.498,0.653,0.994,1.305,1.492,1.959c1.209-7.677,2.267-15.379,3.243-23.089c1.444-11.394,3.485-23.475,2.478-34.985
					c-0.072-0.825-0.649-1.567-1.547-1.547c-7.293,0.156-9.101,7.814-7.457,13.681c1.048,3.739,2.919,7.232,3.257,11.152
					c0.585,6.788-7.142,9.099-12.36,10.387c-1.937,0.477-1.115,3.463,0.823,2.984c8.12-2.004,15.734-5.891,14.4-15.333
					c-0.669-4.741-8.752-19.561,1.337-19.777c-0.516-0.516-1.032-1.032-1.547-1.547c0.943,10.764-0.896,22.004-2.19,32.667
					c-0.998,8.211-2.134,16.412-3.422,24.583c-0.144,0.919,0.396,2.036,1.492,1.959c12.555-0.889,25.11-1.777,37.663-2.667
					c1.774-0.126,2.066-2.437,0.412-3.039c-2.445-0.889-4.888-1.777-7.332-2.667c0.36,0.634,0.72,1.269,1.081,1.903
					c5.511-18.693,4.768-40.271-1.334-58.818C93.696-94.664,90.708-93.856,91.332-91.954L91.332-91.954z"/>
			</g>
		</g>
		<g>
			<line fill="none" x1="82.825" y1="-57.369" x2="80.159" y2="-30.704"/>
			<g>
				<path d="M81.278-57.369c-0.889,8.888-1.777,17.776-2.667,26.665c-0.198,1.986,2.898,1.966,3.095,0
					c0.889-8.888,1.777-17.776,2.667-26.665C84.572-59.355,81.475-59.335,81.278-57.369L81.278-57.369z"/>
			</g>
		</g>
		<g>
			<line fill="none" x1="101.49" y1="-67.367" x2="97.492" y2="-62.368"/>
			<g>
				<path d="M100.397-68.462c-1.334,1.667-2.667,3.333-4,5c-0.526,0.658-0.645,1.543,0,2.187c0.547,0.547,1.661,0.659,2.187,0
					c1.334-1.667,2.667-3.333,4-4.999c0.526-0.658,0.645-1.543,0-2.187C102.038-69.009,100.924-69.121,100.397-68.462
					L100.397-68.462z"/>
			</g>
		</g>
		<g>
			<g>
				<path d="M94.378-82.364c1.176,0.747,2.205,1.714,3.12,2.756c2.307,2.625,1.587,5.243-1.12,7.237
					c-1.588,1.169-0.047,3.858,1.562,2.671c3.419-2.519,5.193-5.848,3.264-9.912c-1.053-2.219-3.216-4.124-5.265-5.425
					C94.248-86.108,92.697-83.43,94.378-82.364L94.378-82.364z"/>
			</g>
		</g>
		<g>
			<g>
				<path d="M94.263-103.526c-2.237-1.586-5.711-1.325-8.296-1.236c-2.417,0.082-4.842,0.34-7.235,0.689
					c-1.968,0.287-1.128,3.269,0.823,2.984c1.719-0.251,3.456-0.399,5.189-0.515c2.31-0.154,5.947-0.675,7.957,0.749
					C94.333-99.697,95.876-102.382,94.263-103.526L94.263-103.526z"/>
			</g>
		</g>
		<g>
			<ellipse fill="#FFFFFF" cx="86.58" cy="-112.759" rx="0.105" ry="0.141"/>
			<g>
				<path d="M85.193-113.171c-0.01,0.033-0.021,0.066-0.031,0.1c0.237-0.309,0.475-0.617,0.711-0.924
					c-0.025,0.014-0.049,0.028-0.074,0.041c0.521,0,1.041,0,1.562,0c-0.025-0.014-0.049-0.028-0.074-0.041
					c0.237,0.309,0.475,0.617,0.711,0.924c-0.01-0.033-0.021-0.066-0.031-0.1c0,0.275,0,0.549,0,0.823
					c0.01-0.033,0.021-0.066,0.031-0.1c-0.237,0.309-0.475,0.617-0.711,0.924c0.025-0.014,0.049-0.028,0.074-0.041
					c-0.521,0-1.041,0-1.562,0c0.025,0.014,0.049,0.028,0.074,0.041c-0.237-0.309-0.475-0.617-0.711-0.924
					c0.01,0.033,0.021,0.066,0.031,0.1c0.249,0.804,1.071,1.31,1.903,1.081c0.793-0.217,1.331-1.097,1.081-1.903
					c-0.224-0.719-0.809-1.277-1.598-1.277c-0.908,0-1.652,0.791-1.652,1.689c0,0.752,0.517,1.434,1.242,1.633
					c0.927,0.255,1.743-0.367,2.009-1.221c0.251-0.805-0.288-1.685-1.081-1.903C86.263-114.48,85.443-113.975,85.193-113.171z"/>
			</g>
		</g>
	</g>
	<g>
		<g>
			<path d="M52.019-54.193c2.679-0.224,5.396-1.938,7.671-3.2c1.745-0.968,0.184-3.64-1.562-2.671
				c-1.616,0.896-3.258,1.775-4.996,2.413c-0.351,0.129-0.708,0.239-1.07,0.332c-0.252,0.064-0.646,0.082-0.043,0.032
				C50.045-57.123,50.03-54.027,52.019-54.193L52.019-54.193z"/>
		</g>
	</g>
</g>
<g>
	<g>
		<g>
			<path fill="#FFFFFF" d="M-16.86-107.668c0,0,9.966-0.434,6.066-9.1c-1.934-4.298-4.525-11.057-1.733-17.766
				c2.793-6.709,8.149-11.799,17.315-9.633c0,0-6.055-11.706-5-19.331c0.652-4.705,6.675-9.684,13.666-7.999
				c4.227,1.019,9.666,3.667,16.332,11.333l-3.333,1.667l-0.666,13c0,0,11.89,5.278,14.665,13.999
				c2.333,7.332,2.447,12.371-6.999,23.998"/>
			<g>
				<path d="M-16.86-106.12c4.359-0.257,8.342-2.574,8.513-7.276c0.079-2.177-1.254-4.423-2.038-6.355
					c-1.647-4.06-2.211-8.232-1.282-12.54c1.658-7.68,8.611-11.832,16.044-10.38c1.351,0.264,2.387-1.019,1.747-2.272
					c-2.803-5.497-5.999-12.987-4.6-19.227c1.406-6.27,9.417-6.709,14.2-4.997c5.207,1.863,9.365,6.087,12.968,10.101
					c0.104-0.81,0.208-1.62,0.313-2.43c-1.111,0.556-2.222,1.111-3.333,1.667c-0.496,0.248-0.739,0.812-0.766,1.336
					c-0.222,4.333-0.445,8.666-0.666,13c-0.026,0.494,0.303,1.126,0.766,1.336c5.253,2.383,10.234,6.116,13.144,11.152
					c5.096,8.822-0.264,17.47-5.79,24.415c-1.229,1.544,0.946,3.749,2.187,2.187c4.308-5.414,8.732-11.292,8.769-18.503
					c0.033-6.576-3.497-12.36-8.314-16.532c-2.075-1.797-4.433-3.285-6.838-4.595c-0.499-0.272-1.01-0.523-1.525-0.763
					c0.493,1.347,0.731,1.649,0.715,0.901c0.031-0.609,0.062-1.217,0.094-1.825c0.146-2.849,0.292-5.696,0.438-8.546
					c0.023-0.453,0.047-0.905,0.069-1.357c0.077-1.488,0.204,0.003-0.475,0.342c1.028-0.515,2.058-1.028,3.086-1.543
					c0.937-0.468,0.939-1.732,0.313-2.43c-7.205-8.029-19.039-17.085-29.3-8.489c-7.467,6.256-1.649,19.461,1.872,26.362
					c0.582-0.757,1.165-1.515,1.747-2.272c-9.901-1.933-16.673,3.352-19.851,12.542c-1.761,5.091-0.081,11.185,1.983,15.898
					c1.923,4.391,0.785,7.71-4.191,8.003C-18.842-109.098-18.853-106.003-16.86-106.12L-16.86-106.12z"/>
			</g>
		</g>
		<g>
			<path fill="#FFFFFF" d="M24.786-139.831c0,0,9.999,29.998,1.334,57.995l7.332,2.667l-37.663,2.667c0,0,6.999-44.33,5.665-57.662
				c0,0-6.95-0.033-6.616,8.299c0.333,8.333,13.34,21.648-9.532,26.864"/>
			<g>
				<path d="M23.296-139.421c5.936,18.045,6.694,38.986,1.334,57.173c-0.253,0.857,0.3,1.619,1.081,1.903
					c2.445,0.889,4.888,1.777,7.332,2.667c0.137-1.013,0.275-2.026,0.412-3.039c-12.555,0.889-25.11,1.777-37.663,2.667
					c0.498,0.653,0.994,1.305,1.492,1.959c1.209-7.677,2.267-15.379,3.243-23.089c1.444-11.394,3.485-23.475,2.478-34.985
					c-0.072-0.825-0.649-1.567-1.547-1.547c-7.293,0.156-9.101,7.814-7.457,13.681c1.048,3.739,2.919,7.232,3.257,11.152
					c0.585,6.788-7.142,9.099-12.36,10.387c-1.937,0.477-1.115,3.462,0.823,2.984c8.12-2.004,15.734-5.892,14.4-15.333
					c-0.669-4.741-8.752-19.561,1.337-19.776c-0.516-0.516-1.032-1.032-1.547-1.547c0.943,10.764-0.896,22.004-2.19,32.667
					c-0.998,8.211-2.134,16.412-3.421,24.583c-0.144,0.919,0.396,2.036,1.492,1.959c12.555-0.889,25.11-1.777,37.663-2.667
					c1.774-0.126,2.066-2.437,0.412-3.039c-2.445-0.889-4.888-1.777-7.332-2.667c0.36,0.634,0.72,1.269,1.081,1.903
					c5.511-18.693,4.768-40.27-1.334-58.818C25.658-142.129,22.669-141.321,23.296-139.421L23.296-139.421z"/>
			</g>
		</g>
		<g>
			<line fill="none" x1="14.788" y1="-104.834" x2="12.122" y2="-78.17"/>
			<g>
				<path d="M13.241-104.834c-0.889,8.888-1.777,17.776-2.667,26.665c-0.198,1.986,2.898,1.966,3.095,0
					c0.889-8.888,1.777-17.776,2.667-26.665C16.533-106.82,13.436-106.8,13.241-104.834L13.241-104.834z"/>
			</g>
		</g>
		<g>
			<line fill="none" x1="33.453" y1="-114.833" x2="29.453" y2="-109.833"/>
			<g>
				<path d="M32.359-115.928c-1.334,1.667-2.667,3.333-4,5c-0.526,0.658-0.645,1.543,0,2.187c0.547,0.547,1.661,0.659,2.187,0
					c1.334-1.667,2.667-3.333,4-5c0.526-0.658,0.645-1.543,0-2.187C34.001-116.474,32.886-116.588,32.359-115.928L32.359-115.928z"
					/>
			</g>
		</g>
		<g>
			<g>
				<path d="M26.339-129.829c1.176,0.747,2.204,1.714,3.12,2.756c2.308,2.625,1.587,5.243-1.12,7.237
					c-1.588,1.169-0.047,3.858,1.562,2.671c3.42-2.519,5.193-5.848,3.264-9.912c-1.053-2.219-3.216-4.124-5.265-5.425
					C26.211-133.575,24.659-130.895,26.339-129.829L26.339-129.829z"/>
			</g>
		</g>
		<g>
			<g>
				<path d="M26.224-150.992c-2.237-1.586-5.711-1.325-8.296-1.236c-2.417,0.082-4.842,0.34-7.235,0.689
					c-1.969,0.287-1.128,3.269,0.823,2.984c1.719-0.251,3.456-0.399,5.189-0.515c2.31-0.154,5.947-0.675,7.957,0.749
					C26.294-147.163,27.839-149.848,26.224-150.992L26.224-150.992z"/>
			</g>
		</g>
		<g>
			<ellipse fill="#FFFFFF" cx="18.541" cy="-160.224" rx="0.105" ry="0.141"/>
			<g>
				<path d="M17.156-160.635c-0.01,0.033-0.021,0.066-0.031,0.1c0.237-0.309,0.475-0.617,0.71-0.924
					c-0.025,0.014-0.049,0.028-0.074,0.041c0.521,0,1.041,0,1.562,0c-0.025-0.014-0.049-0.027-0.074-0.041
					c0.237,0.309,0.475,0.617,0.71,0.924c-0.01-0.033-0.021-0.066-0.031-0.1c0,0.275,0,0.549,0,0.823
					c0.01-0.033,0.021-0.066,0.031-0.1c-0.237,0.309-0.475,0.617-0.71,0.924c0.025-0.014,0.049-0.028,0.074-0.041
					c-0.521,0-1.041,0-1.562,0c0.025,0.014,0.049,0.027,0.074,0.041c-0.237-0.309-0.475-0.617-0.71-0.924
					c0.01,0.033,0.021,0.066,0.031,0.1c0.249,0.804,1.071,1.31,1.903,1.081c0.793-0.217,1.331-1.097,1.081-1.903
					c-0.224-0.719-0.809-1.277-1.598-1.277c-0.908,0-1.652,0.791-1.652,1.689c0,0.752,0.517,1.434,1.242,1.633
					c0.927,0.255,1.743-0.367,2.009-1.221c0.251-0.805-0.288-1.685-1.081-1.903C18.225-161.945,17.406-161.44,17.156-160.635z"/>
			</g>
		</g>
	</g>
	<g>
		<g>
			<path d="M-16.02-101.658c2.679-0.224,5.396-1.938,7.671-3.2c1.745-0.968,0.184-3.64-1.562-2.671
				c-1.617,0.896-3.258,1.776-4.996,2.413c-0.351,0.129-0.708,0.239-1.07,0.332c-0.252,0.064-0.646,0.082-0.043,0.032
				C-17.993-104.588-18.009-101.492-16.02-101.658L-16.02-101.658z"/>
		</g>
	</g>
</g>
<g>
	<g>
		<g>
			<path fill="#FFFFFF" d="M-73.626-4.99c0,0,9.966-0.434,6.066-9.1c-1.934-4.298-4.525-11.057-1.733-17.766
				c2.791-6.708,8.149-11.799,17.315-9.633c0,0-6.055-11.706-5-19.331c0.652-4.705,6.675-9.684,13.666-7.999
				c4.227,1.019,9.666,3.667,16.332,11.333l-3.333,1.667l-0.666,13c0,0,11.89,5.278,14.665,13.999
				c2.333,7.332,2.447,12.371-6.999,23.998"/>
			<g>
				<path d="M-73.626-3.443c4.359-0.257,8.342-2.574,8.513-7.276c0.079-2.177-1.254-4.423-2.038-6.355
					c-1.647-4.06-2.211-8.232-1.282-12.54c1.658-7.68,8.611-11.832,16.044-10.38c1.351,0.264,2.387-1.019,1.747-2.272
					c-2.803-5.497-5.999-12.987-4.6-19.227c1.406-6.27,9.417-6.709,14.2-4.997c5.207,1.863,9.365,6.087,12.968,10.101
					c0.104-0.81,0.208-1.62,0.314-2.43c-1.111,0.556-2.222,1.111-3.333,1.667c-0.496,0.248-0.739,0.812-0.766,1.336
					c-0.222,4.333-0.445,8.666-0.666,13c-0.026,0.494,0.303,1.126,0.767,1.336c5.253,2.383,10.234,6.116,13.144,11.152
					c5.096,8.822-0.264,17.47-5.79,24.415c-1.229,1.544,0.946,3.749,2.187,2.187c4.308-5.414,8.732-11.292,8.769-18.503
					c0.033-6.576-3.497-12.36-8.314-16.532c-2.075-1.797-4.433-3.285-6.838-4.595c-0.499-0.272-1.01-0.523-1.525-0.763
					c0.493,1.347,0.731,1.649,0.715,0.902c0.031-0.609,0.062-1.217,0.094-1.825c0.146-2.849,0.292-5.696,0.438-8.546
					c0.023-0.453,0.047-0.905,0.069-1.357c0.077-1.488,0.204,0.003-0.475,0.342c1.028-0.515,2.058-1.028,3.086-1.543
					c0.937-0.468,0.939-1.732,0.314-2.43c-7.205-8.029-19.039-17.085-29.3-8.489c-7.467,6.256-1.649,19.461,1.872,26.362
					c0.582-0.757,1.165-1.515,1.747-2.272c-9.901-1.933-16.673,3.352-19.851,12.542c-1.761,5.091-0.081,11.185,1.983,15.898
					c1.923,4.391,0.784,7.71-4.191,8.003C-75.608-6.421-75.62-3.326-73.626-3.443L-73.626-3.443z"/>
			</g>
		</g>
		<g>
			<path fill="#FFFFFF" d="M-31.979-37.154c0,0,9.999,29.998,1.334,57.995l7.332,2.667l-37.663,2.667c0,0,6.999-44.33,5.665-57.662
				c0,0-6.95-0.033-6.616,8.299c0.333,8.333,13.34,21.648-9.532,26.864"/>
			<g>
				<path d="M-33.471-36.744c5.936,18.045,6.694,38.986,1.334,57.173c-0.253,0.857,0.3,1.619,1.081,1.903
					c2.445,0.889,4.888,1.777,7.332,2.667c0.137-1.013,0.275-2.026,0.412-3.039c-12.555,0.889-25.11,1.777-37.663,2.667
					c0.498,0.653,0.994,1.305,1.492,1.959c1.209-7.677,2.267-15.379,3.244-23.089c1.444-11.394,3.485-23.475,2.478-34.985
					c-0.072-0.825-0.649-1.567-1.547-1.547c-7.293,0.156-9.102,7.814-7.457,13.681c1.048,3.739,2.919,7.232,3.257,11.152
					c0.585,6.788-7.142,9.099-12.36,10.387c-1.937,0.477-1.115,3.463,0.823,2.984c8.12-2.004,15.734-5.892,14.4-15.333
					c-0.669-4.741-8.752-19.561,1.337-19.777c-0.516-0.516-1.032-1.032-1.547-1.547c0.943,10.764-0.896,22.004-2.19,32.667
					c-0.998,8.211-2.134,16.412-3.421,24.583c-0.144,0.919,0.396,2.036,1.492,1.959c12.555-0.889,25.11-1.777,37.663-2.667
					c1.774-0.126,2.066-2.437,0.412-3.039c-2.445-0.889-4.888-1.777-7.332-2.667c0.36,0.634,0.72,1.269,1.081,1.903
					c5.511-18.693,4.768-40.271-1.334-58.818C-31.107-39.453-34.097-38.644-33.471-36.744L-33.471-36.744z"/>
			</g>
		</g>
		<g>
			<line fill="none" x1="-41.978" y1="-2.158" x2="-44.644" y2="24.508"/>
			<g>
				<path d="M-43.525-2.158c-0.889,8.888-1.777,17.776-2.667,26.665c-0.198,1.986,2.898,1.966,3.095,0
					c0.889-8.888,1.777-17.776,2.667-26.665C-40.232-4.142-43.329-4.123-43.525-2.158L-43.525-2.158z"/>
			</g>
		</g>
		<g>
			<line fill="none" x1="-23.313" y1="-12.157" x2="-27.312" y2="-7.157"/>
			<g>
				<path d="M-24.407-13.251c-1.334,1.667-2.667,3.333-4,5c-0.526,0.658-0.645,1.543,0,2.187c0.547,0.547,1.661,0.659,2.187,0
					c1.334-1.667,2.667-3.333,4-4.999c0.526-0.658,0.645-1.543,0-2.187C-22.766-13.797-23.879-13.91-24.407-13.251L-24.407-13.251z"
					/>
			</g>
		</g>
		<g>
			<g>
				<path d="M-30.427-27.153c1.176,0.747,2.205,1.714,3.12,2.756c2.308,2.625,1.587,5.243-1.12,7.237
					c-1.588,1.169-0.047,3.858,1.562,2.671c3.42-2.519,5.193-5.848,3.264-9.912c-1.053-2.219-3.216-4.124-5.265-5.425
					C-30.555-30.896-32.106-28.218-30.427-27.153L-30.427-27.153z"/>
			</g>
		</g>
		<g>
			<g>
				<path d="M-30.541-48.315c-2.237-1.586-5.711-1.325-8.296-1.236c-2.417,0.082-4.842,0.34-7.235,0.689
					c-1.968,0.287-1.128,3.269,0.823,2.984c1.719-0.251,3.456-0.399,5.189-0.515c2.31-0.154,5.947-0.675,7.957,0.749
					C-30.471-44.486-28.927-47.171-30.541-48.315L-30.541-48.315z"/>
			</g>
		</g>
		<g>
			<ellipse fill="#FFFFFF" cx="-38.224" cy="-57.547" rx="0.105" ry="0.141"/>
			<g>
				<path d="M-39.611-57.959c-0.01,0.033-0.021,0.066-0.031,0.1c0.237-0.309,0.475-0.617,0.71-0.924
					c-0.025,0.014-0.049,0.028-0.074,0.041c0.521,0,1.041,0,1.562,0c-0.025-0.014-0.049-0.028-0.074-0.041
					c0.237,0.309,0.475,0.617,0.711,0.924c-0.01-0.033-0.021-0.066-0.031-0.1c0,0.275,0,0.549,0,0.823
					c0.01-0.033,0.021-0.066,0.031-0.1c-0.237,0.309-0.475,0.617-0.711,0.924c0.025-0.014,0.049-0.028,0.074-0.041
					c-0.521,0-1.041,0-1.562,0c0.025,0.014,0.049,0.028,0.074,0.041c-0.237-0.309-0.475-0.617-0.71-0.924
					c0.01,0.033,0.021,0.066,0.031,0.1c0.249,0.804,1.071,1.31,1.903,1.081c0.793-0.217,1.331-1.097,1.081-1.903
					c-0.224-0.719-0.809-1.277-1.598-1.277c-0.908,0-1.652,0.791-1.652,1.689c0,0.752,0.517,1.434,1.242,1.633
					c0.927,0.255,1.743-0.367,2.009-1.221c0.251-0.805-0.288-1.685-1.081-1.903C-38.54-59.269-39.36-58.763-39.611-57.959z"/>
			</g>
		</g>
	</g>
	<g>
		<g>
			<path d="M-72.785,1.018c2.679-0.224,5.396-1.938,7.671-3.2c1.745-0.968,0.184-3.64-1.562-2.671
				c-1.616,0.896-3.258,1.776-4.996,2.413c-0.351,0.129-0.707,0.239-1.07,0.332c-0.252,0.064-0.646,0.082-0.043,0.032
				C-74.758-1.911-74.774,1.184-72.785,1.018L-72.785,1.018z"/>
		</g>
	</g>
</g>
<g>
	<g>
		<g>
			<path fill="#FFFFFF" d="M-54.948,101.421c0,0,9.966-0.434,6.066-9.1c-1.934-4.298-4.525-11.057-1.733-17.766
				c2.791-6.708,8.149-11.799,17.315-9.633c0,0-6.055-11.706-5-19.331c0.652-4.705,6.675-9.684,13.666-7.999
				c4.227,1.019,9.666,3.667,16.332,11.333l-3.333,1.667l-0.666,13c0,0,11.89,5.278,14.665,13.999
				c2.333,7.332,2.447,12.371-6.999,23.998"/>
			<g>
				<path d="M-54.948,102.969c4.359-0.257,8.342-2.574,8.513-7.276c0.079-2.177-1.254-4.423-2.038-6.355
					c-1.647-4.06-2.211-8.232-1.282-12.54c1.658-7.68,8.611-11.832,16.044-10.38c1.351,0.264,2.387-1.019,1.747-2.272
					c-2.803-5.497-5.999-12.987-4.6-19.227c1.406-6.27,9.417-6.709,14.2-4.997c5.207,1.863,9.365,6.088,12.968,10.101
					c0.104-0.81,0.208-1.62,0.313-2.43c-1.111,0.556-2.222,1.111-3.333,1.667c-0.496,0.248-0.739,0.812-0.767,1.336
					c-0.222,4.333-0.445,8.666-0.666,13c-0.026,0.494,0.303,1.126,0.766,1.336c5.253,2.383,10.234,6.116,13.144,11.152
					c5.096,8.822-0.264,17.47-5.79,24.415c-1.229,1.544,0.946,3.749,2.187,2.187c4.308-5.414,8.732-11.292,8.769-18.503
					c0.033-6.576-3.497-12.36-8.314-16.532c-2.075-1.797-4.433-3.285-6.838-4.595c-0.499-0.272-1.01-0.523-1.525-0.763
					c0.493,1.347,0.731,1.649,0.715,0.901c0.031-0.609,0.062-1.217,0.094-1.825c0.146-2.849,0.292-5.696,0.438-8.546
					c0.023-0.453,0.047-0.905,0.069-1.357c0.077-1.488,0.204,0.003-0.475,0.342c1.028-0.515,2.058-1.028,3.086-1.543
					c0.937-0.468,0.939-1.732,0.313-2.43c-7.205-8.029-19.039-17.085-29.3-8.489c-7.467,6.256-1.649,19.461,1.872,26.362
					c0.582-0.758,1.165-1.515,1.747-2.273c-9.901-1.933-16.673,3.352-19.851,12.542c-1.761,5.091-0.081,11.185,1.983,15.898
					c1.923,4.391,0.784,7.71-4.191,8.003C-56.932,99.991-56.943,103.086-54.948,102.969L-54.948,102.969z"/>
			</g>
		</g>
		<g>
			<path fill="#FFFFFF" d="M-13.301,69.257c0,0,9.999,29.998,1.334,57.995l7.332,2.667l-37.663,2.667c0,0,6.999-44.33,5.665-57.662
				c0,0-6.95-0.033-6.616,8.299c0.334,8.332,13.34,21.648-9.532,26.864"/>
			<g>
				<path d="M-14.794,69.668c5.936,18.045,6.694,38.986,1.334,57.173c-0.253,0.857,0.3,1.619,1.081,1.903
					c2.445,0.889,4.888,1.777,7.332,2.667c0.137-1.012,0.275-2.026,0.412-3.039c-12.555,0.889-25.11,1.777-37.663,2.667
					c0.498,0.653,0.994,1.305,1.492,1.959c1.209-7.677,2.267-15.379,3.243-23.089c1.444-11.394,3.485-23.475,2.478-34.985
					c-0.072-0.825-0.649-1.567-1.547-1.547c-7.293,0.156-9.101,7.814-7.457,13.681c1.048,3.739,2.919,7.232,3.257,11.152
					c0.585,6.788-7.142,9.099-12.36,10.387c-1.937,0.477-1.115,3.462,0.823,2.984c8.12-2.004,15.734-5.892,14.4-15.333
					c-0.669-4.741-8.752-19.561,1.337-19.776c-0.516-0.516-1.032-1.032-1.547-1.547c0.943,10.764-0.896,22.004-2.19,32.667
					c-0.998,8.211-2.134,16.413-3.421,24.583c-0.144,0.919,0.396,2.036,1.492,1.959c12.555-0.889,25.11-1.777,37.663-2.667
					c1.774-0.126,2.066-2.437,0.412-3.039c-2.445-0.889-4.888-1.777-7.332-2.667c0.36,0.634,0.72,1.269,1.081,1.903
					c5.511-18.693,4.768-40.271-1.334-58.818C-12.431,66.96-15.419,67.767-14.794,69.668L-14.794,69.668z"/>
			</g>
		</g>
		<g>
			<line fill="none" x1="-23.301" y1="104.253" x2="-25.968" y2="130.919"/>
			<g>
				<path d="M-24.848,104.253c-0.889,8.888-1.777,17.776-2.667,26.665c-0.198,1.986,2.898,1.966,3.095,0
					c0.889-8.888,1.777-17.776,2.667-26.665C-21.556,102.27-24.651,102.288-24.848,104.253L-24.848,104.253z"/>
			</g>
		</g>
		<g>
			<line fill="none" x1="-4.636" y1="94.255" x2="-8.635" y2="99.254"/>
			<g>
				<path d="M-5.73,93.161c-1.334,1.667-2.667,3.333-4,5c-0.526,0.658-0.645,1.543,0,2.187c0.547,0.547,1.661,0.659,2.187,0
					c1.334-1.667,2.667-3.333,4-5c0.526-0.658,0.645-1.543,0-2.187C-4.088,92.614-5.203,92.502-5.73,93.161L-5.73,93.161z"/>
			</g>
		</g>
		<g>
			<g>
				<path d="M-11.749,79.258c1.176,0.747,2.204,1.714,3.12,2.756c2.308,2.625,1.587,5.243-1.12,7.237
					c-1.588,1.169-0.047,3.858,1.562,2.671c3.42-2.519,5.193-5.848,3.264-9.912c-1.053-2.22-3.216-4.124-5.265-5.425
					C-11.878,75.515-13.429,78.193-11.749,79.258L-11.749,79.258z"/>
			</g>
		</g>
		<g>
			<g>
				<path d="M-11.863,58.097c-2.237-1.586-5.711-1.325-8.296-1.236c-2.417,0.082-4.842,0.34-7.235,0.689
					c-1.968,0.287-1.128,3.269,0.823,2.984c1.719-0.251,3.456-0.399,5.189-0.515c2.31-0.154,5.947-0.675,7.957,0.749
					C-11.793,61.925-10.25,59.24-11.863,58.097L-11.863,58.097z"/>
			</g>
		</g>
		<g>
			<ellipse fill="#FFFFFF" cx="-19.547" cy="48.864" rx="0.105" ry="0.141"/>
			<g>
				<path d="M-20.933,48.452c-0.01,0.033-0.021,0.066-0.031,0.1c0.237-0.309,0.475-0.617,0.71-0.924
					c-0.025,0.014-0.049,0.028-0.074,0.041c0.521,0,1.041,0,1.562,0c-0.025-0.014-0.049-0.028-0.074-0.041
					c0.237,0.309,0.475,0.617,0.71,0.924c-0.01-0.033-0.021-0.066-0.031-0.1c0,0.275,0,0.549,0,0.823
					c0.01-0.033,0.021-0.066,0.031-0.1c-0.237,0.309-0.475,0.617-0.71,0.924c0.025-0.014,0.049-0.028,0.074-0.041
					c-0.521,0-1.041,0-1.562,0c0.025,0.014,0.049,0.028,0.074,0.041c-0.237-0.309-0.475-0.617-0.71-0.924
					c0.01,0.033,0.021,0.066,0.031,0.1c0.249,0.804,1.071,1.31,1.903,1.081c0.793-0.217,1.331-1.097,1.081-1.903
					c-0.224-0.719-0.809-1.277-1.598-1.277c-0.908,0-1.652,0.791-1.652,1.689c0,0.752,0.517,1.434,1.242,1.633
					c0.927,0.255,1.743-0.367,2.009-1.221c0.251-0.805-0.288-1.685-1.081-1.903C-19.864,47.144-20.684,47.648-20.933,48.452z"/>
			</g>
		</g>
	</g>
	<g>
		<g>
			<path d="M-54.107,107.429c2.679-0.224,5.396-1.938,7.671-3.2c1.745-0.968,0.184-3.64-1.562-2.671
				c-1.617,0.896-3.258,1.776-4.996,2.413c-0.351,0.129-0.707,0.239-1.07,0.332c-0.252,0.064-0.646,0.082-0.043,0.032
				C-56.082,104.5-56.097,107.595-54.107,107.429L-54.107,107.429z"/>
		</g>
	</g>
</g>
<g>
	<g>
		<g>
			<path fill="#FFFFFF" d="M21.826,121.786c0,0,9.966-0.434,6.066-9.1c-1.934-4.298-4.525-11.057-1.733-17.766
				c2.791-6.708,8.149-11.799,17.315-9.633c0,0-6.055-11.706-5-19.331c0.652-4.705,6.675-9.684,13.666-7.999
				c4.227,1.019,9.666,3.667,16.332,11.333l-3.333,1.667l-0.666,13c0,0,11.89,5.278,14.665,13.999
				c2.333,7.332,2.447,12.371-6.999,23.998"/>
			<g>
				<path d="M21.826,123.334c4.359-0.257,8.342-2.574,8.513-7.276c0.079-2.177-1.254-4.423-2.038-6.355
					c-1.647-4.06-2.211-8.232-1.282-12.54c1.658-7.68,8.611-11.832,16.044-10.38c1.351,0.264,2.387-1.019,1.747-2.272
					c-2.803-5.497-5.999-12.987-4.6-19.227c1.406-6.27,9.417-6.709,14.2-4.997c5.207,1.863,9.365,6.088,12.968,10.101
					c0.104-0.81,0.208-1.62,0.313-2.43c-1.111,0.556-2.222,1.111-3.333,1.667c-0.496,0.248-0.739,0.812-0.767,1.336
					c-0.222,4.333-0.445,8.666-0.666,13c-0.026,0.494,0.303,1.126,0.766,1.336c5.253,2.383,10.234,6.116,13.144,11.152
					c5.096,8.822-0.264,17.47-5.79,24.415c-1.229,1.544,0.946,3.749,2.187,2.187c4.308-5.414,8.732-11.292,8.769-18.503
					c0.033-6.576-3.497-12.36-8.314-16.532c-2.075-1.797-4.433-3.285-6.838-4.595c-0.499-0.272-1.01-0.523-1.525-0.763
					c0.493,1.347,0.731,1.649,0.715,0.902c0.031-0.609,0.062-1.217,0.094-1.825c0.146-2.849,0.292-5.696,0.438-8.546
					c0.023-0.453,0.047-0.905,0.069-1.357c0.077-1.488,0.204,0.003-0.475,0.342c1.028-0.515,2.058-1.028,3.086-1.543
					c0.937-0.468,0.939-1.732,0.313-2.43c-7.205-8.029-19.039-17.085-29.3-8.489c-7.467,6.256-1.649,19.461,1.872,26.362
					c0.582-0.757,1.165-1.515,1.747-2.272c-9.901-1.933-16.673,3.352-19.851,12.542c-1.761,5.091-0.081,11.185,1.983,15.898
					c1.923,4.391,0.785,7.71-4.191,8.003C19.842,120.356,19.83,123.45,21.826,123.334L21.826,123.334z"/>
			</g>
		</g>
		<g>
			<path fill="#FFFFFF" d="M63.472,89.621c0,0,9.999,29.998,1.334,57.995l7.332,2.667l-37.663,2.667c0,0,6.999-44.33,5.665-57.662
				c0,0-6.95-0.033-6.616,8.299c0.333,8.333,13.34,21.648-9.532,26.864"/>
			<g>
				<path d="M61.979,90.033c5.936,18.045,6.694,38.986,1.334,57.173c-0.253,0.857,0.3,1.619,1.081,1.903
					c2.445,0.889,4.888,1.777,7.332,2.667c0.137-1.012,0.275-2.026,0.412-3.039c-12.555,0.889-25.11,1.777-37.663,2.667
					c0.498,0.653,0.994,1.305,1.492,1.959c1.209-7.677,2.267-15.379,3.243-23.089c1.444-11.394,3.485-23.475,2.478-34.985
					c-0.072-0.825-0.649-1.567-1.547-1.547c-7.293,0.156-9.101,7.814-7.457,13.681c1.048,3.739,2.919,7.232,3.257,11.152
					c0.585,6.788-7.142,9.099-12.36,10.387c-1.937,0.477-1.115,3.463,0.823,2.984c8.121-2.004,15.734-5.891,14.4-15.333
					c-0.669-4.741-8.752-19.561,1.337-19.777c-0.516-0.516-1.032-1.032-1.547-1.547c0.943,10.764-0.896,22.004-2.19,32.667
					c-0.998,8.211-2.134,16.411-3.422,24.583c-0.144,0.919,0.396,2.036,1.492,1.959c12.555-0.889,25.11-1.777,37.663-2.667
					c1.774-0.126,2.066-2.437,0.412-3.039c-2.445-0.889-4.888-1.777-7.332-2.667c0.36,0.634,0.72,1.269,1.081,1.903
					c5.511-18.693,4.768-40.271-1.334-58.818C64.343,87.325,61.355,88.133,61.979,90.033L61.979,90.033z"/>
			</g>
		</g>
		<g>
			<line fill="none" x1="53.472" y1="124.619" x2="50.807" y2="151.284"/>
			<g>
				<path d="M51.925,124.619c-0.889,8.888-1.777,17.776-2.667,26.665c-0.198,1.986,2.898,1.966,3.095,0
					c0.889-8.888,1.777-17.776,2.667-26.665C55.219,122.634,52.122,122.653,51.925,124.619L51.925,124.619z"/>
			</g>
		</g>
		<g>
			<line fill="none" x1="72.137" y1="114.62" x2="68.139" y2="119.619"/>
			<g>
				<path d="M71.044,113.526c-1.334,1.667-2.667,3.333-4,5c-0.526,0.658-0.645,1.543,0,2.187c0.547,0.547,1.661,0.659,2.187,0
					c1.334-1.667,2.667-3.333,4-5c0.526-0.658,0.645-1.543,0-2.187C72.685,112.979,71.571,112.866,71.044,113.526L71.044,113.526z"
					/>
			</g>
		</g>
		<g>
			<g>
				<path d="M65.025,99.623c1.176,0.747,2.205,1.714,3.12,2.756c2.308,2.625,1.587,5.243-1.12,7.237
					c-1.588,1.169-0.047,3.858,1.562,2.671c3.419-2.519,5.193-5.848,3.264-9.912c-1.053-2.22-3.216-4.124-5.265-5.425
					C64.896,95.879,63.345,98.558,65.025,99.623L65.025,99.623z"/>
			</g>
		</g>
		<g>
			<g>
				<path d="M64.91,78.461c-2.237-1.586-5.711-1.325-8.296-1.236c-2.417,0.082-4.842,0.34-7.235,0.689
					c-1.969,0.287-1.128,3.269,0.823,2.984c1.719-0.251,3.456-0.399,5.189-0.515c2.31-0.154,5.947-0.675,7.957,0.749
					C64.98,82.29,66.523,79.605,64.91,78.461L64.91,78.461z"/>
			</g>
		</g>
		<g>
			<ellipse fill="#FFFFFF" cx="57.227" cy="69.228" rx="0.105" ry="0.142"/>
			<g>
				<path d="M55.84,68.818c-0.01,0.033-0.021,0.066-0.031,0.1c0.237-0.309,0.475-0.617,0.71-0.924
					c-0.025,0.014-0.049,0.028-0.074,0.041c0.521,0,1.041,0,1.562,0c-0.025-0.014-0.049-0.028-0.074-0.041
					c0.237,0.309,0.475,0.617,0.71,0.924c-0.01-0.033-0.021-0.066-0.031-0.1c0,0.275,0,0.549,0,0.823
					c0.01-0.033,0.021-0.066,0.031-0.1c-0.237,0.309-0.475,0.617-0.71,0.924c0.025-0.014,0.049-0.028,0.074-0.041
					c-0.521,0-1.041,0-1.562,0c0.025,0.014,0.049,0.028,0.074,0.041c-0.237-0.309-0.475-0.617-0.71-0.924
					c0.01,0.033,0.021,0.066,0.031,0.1c0.249,0.804,1.071,1.31,1.903,1.081c0.793-0.217,1.331-1.097,1.081-1.903
					c-0.224-0.718-0.809-1.277-1.598-1.277c-0.908,0-1.652,0.791-1.652,1.689c0,0.752,0.517,1.434,1.242,1.633
					c0.927,0.255,1.743-0.367,2.009-1.221c0.251-0.805-0.288-1.685-1.081-1.903C56.91,67.509,56.09,68.012,55.84,68.818z"/>
			</g>
		</g>
	</g>
	<g>
		<g>
			<path d="M22.666,127.794c2.679-0.224,5.396-1.938,7.671-3.2c1.745-0.968,0.184-3.64-1.562-2.671
				c-1.617,0.896-3.258,1.776-4.996,2.413c-0.351,0.129-0.708,0.239-1.07,0.332c-0.252,0.064-0.646,0.082-0.043,0.032
				C20.693,124.865,20.677,127.96,22.666,127.794L22.666,127.794z"/>
		</g>
	</g>
</g>
<g>
	<g>
		<g>
			<path fill="#FFFFFF" d="M-136.68,52.807c0,0,9.966-0.434,6.066-9.1c-1.934-4.298-4.525-11.057-1.733-17.766
				c2.791-6.708,8.149-11.799,17.315-9.633c0,0-6.055-11.706-4.999-19.331c0.652-4.705,6.675-9.684,13.666-7.999
				c4.227,1.019,9.666,3.667,16.332,11.333l-3.333,1.667l-0.666,13c0,0,11.89,5.278,14.665,13.999
				c2.333,7.332,2.447,12.371-6.999,23.998"/>
			<g>
				<path d="M-136.68,54.355c4.359-0.257,8.342-2.574,8.513-7.276c0.079-2.177-1.254-4.423-2.038-6.355
					c-1.647-4.06-2.211-8.232-1.282-12.54c1.658-7.68,8.611-11.832,16.044-10.38c1.351,0.264,2.387-1.019,1.747-2.272
					c-2.803-5.497-5.999-12.987-4.6-19.227c1.406-6.27,9.417-6.709,14.2-4.997c5.207,1.863,9.365,6.087,12.968,10.101
					c0.104-0.81,0.208-1.62,0.313-2.43c-1.111,0.556-2.222,1.111-3.333,1.667c-0.496,0.248-0.739,0.812-0.766,1.336
					c-0.222,4.333-0.445,8.666-0.666,13c-0.026,0.494,0.303,1.126,0.767,1.336c5.253,2.383,10.234,6.116,13.144,11.152
					c5.096,8.822-0.264,17.47-5.79,24.415c-1.229,1.544,0.946,3.749,2.187,2.187c4.308-5.414,8.732-11.292,8.769-18.503
					c0.033-6.576-3.497-12.36-8.314-16.532c-2.075-1.797-4.433-3.285-6.838-4.595c-0.499-0.272-1.01-0.523-1.525-0.763
					c0.493,1.347,0.731,1.649,0.715,0.902c0.031-0.609,0.062-1.217,0.094-1.825c0.146-2.849,0.292-5.696,0.438-8.546
					c0.023-0.453,0.047-0.905,0.069-1.357c0.077-1.488,0.204,0.003-0.475,0.342c1.028-0.515,2.058-1.028,3.086-1.543
					c0.937-0.468,0.939-1.732,0.313-2.43c-7.205-8.029-19.039-17.085-29.3-8.489c-7.467,6.256-1.649,19.461,1.872,26.362
					c0.582-0.757,1.165-1.515,1.747-2.272c-9.901-1.933-16.673,3.352-19.851,12.542c-1.761,5.091-0.081,11.185,1.983,15.898
					c1.923,4.391,0.785,7.71-4.191,8.003C-138.663,51.377-138.675,54.471-136.68,54.355L-136.68,54.355z"/>
			</g>
		</g>
		<g>
			<path fill="#FFFFFF" d="M-95.033,20.643c0,0,9.999,29.998,1.334,57.995l7.332,2.667l-37.663,2.667c0,0,6.999-44.33,5.665-57.662
				c0,0-6.95-0.033-6.616,8.299s13.34,21.648-9.532,26.864"/>
			<g>
				<path d="M-96.526,21.054c5.936,18.045,6.694,38.986,1.334,57.173c-0.253,0.857,0.3,1.619,1.081,1.903
					c2.445,0.889,4.888,1.777,7.332,2.667c0.137-1.013,0.275-2.026,0.412-3.039c-12.555,0.889-25.11,1.777-37.663,2.667
					c0.498,0.653,0.994,1.305,1.492,1.959c1.209-7.677,2.267-15.379,3.244-23.089c1.444-11.394,3.485-23.475,2.478-34.985
					c-0.072-0.825-0.649-1.567-1.547-1.547c-7.293,0.156-9.102,7.814-7.457,13.681c1.048,3.739,2.919,7.231,3.257,11.152
					c0.585,6.788-7.142,9.099-12.36,10.387c-1.937,0.477-1.115,3.463,0.823,2.984c8.12-2.004,15.734-5.892,14.4-15.333
					c-0.669-4.741-8.752-19.561,1.337-19.777c-0.516-0.516-1.032-1.032-1.547-1.547c0.943,10.764-0.896,22.004-2.19,32.667
					c-0.998,8.211-2.134,16.412-3.422,24.583c-0.144,0.919,0.396,2.036,1.492,1.959c12.555-0.889,25.11-1.777,37.663-2.667
					c1.774-0.126,2.066-2.437,0.412-3.039c-2.445-0.889-4.888-1.777-7.332-2.667c0.36,0.634,0.72,1.269,1.081,1.903
					c5.511-18.693,4.768-40.271-1.334-58.818C-94.161,18.345-97.151,19.153-96.526,21.054L-96.526,21.054z"/>
			</g>
		</g>
		<g>
			<line fill="none" x1="-105.033" y1="55.639" x2="-107.7" y2="82.305"/>
			<g>
				<path d="M-106.58,55.639c-0.889,8.888-1.777,17.776-2.667,26.665c-0.198,1.986,2.898,1.966,3.095,0
					c0.889-8.888,1.777-17.776,2.667-26.665C-103.287,53.655-106.383,53.674-106.58,55.639L-106.58,55.639z"/>
			</g>
		</g>
		<g>
			<line fill="none" x1="-86.367" y1="45.64" x2="-90.367" y2="50.64"/>
			<g>
				<path d="M-87.462,44.547c-1.334,1.667-2.667,3.333-4,5c-0.526,0.658-0.645,1.543,0,2.187c0.547,0.547,1.661,0.659,2.187,0
					c1.334-1.667,2.667-3.333,4-5c0.526-0.658,0.645-1.543,0-2.187C-85.82,44-86.934,43.888-87.462,44.547L-87.462,44.547z"/>
			</g>
		</g>
		<g>
			<g>
				<path d="M-93.481,30.644c1.176,0.747,2.205,1.714,3.12,2.756c2.308,2.625,1.587,5.243-1.12,7.237
					c-1.588,1.169-0.047,3.858,1.562,2.671c3.42-2.519,5.193-5.848,3.264-9.912c-1.053-2.22-3.216-4.124-5.265-5.425
					C-93.61,26.9-95.16,29.579-93.481,30.644L-93.481,30.644z"/>
			</g>
		</g>
		<g>
			<g>
				<path d="M-93.595,9.482c-2.237-1.586-5.711-1.325-8.296-1.236c-2.417,0.082-4.842,0.34-7.235,0.689
					c-1.968,0.287-1.128,3.269,0.823,2.984c1.719-0.251,3.456-0.399,5.189-0.515c2.31-0.154,5.947-0.675,7.957,0.749
					C-93.525,13.311-91.982,10.626-93.595,9.482L-93.595,9.482z"/>
			</g>
		</g>
		<g>
			<ellipse fill="#FFFFFF" cx="-101.279" cy="0.25" rx="0.105" ry="0.141"/>
			<g>
				<path d="M-102.665-0.162c-0.01,0.033-0.021,0.066-0.031,0.1c0.237-0.309,0.475-0.617,0.71-0.924
					c-0.025,0.014-0.049,0.028-0.074,0.041c0.521,0,1.041,0,1.562,0c-0.025-0.014-0.049-0.028-0.074-0.041
					c0.237,0.309,0.475,0.617,0.71,0.924c-0.01-0.033-0.021-0.066-0.031-0.1c0,0.275,0,0.549,0,0.823
					c0.01-0.033,0.021-0.066,0.031-0.1c-0.237,0.309-0.475,0.617-0.71,0.924c0.025-0.014,0.049-0.028,0.074-0.041
					c-0.521,0-1.041,0-1.562,0c0.025,0.014,0.049,0.028,0.074,0.041c-0.237-0.309-0.475-0.617-0.71-0.924
					c0.01,0.033,0.021,0.066,0.031,0.1c0.249,0.804,1.071,1.31,1.903,1.081c0.793-0.217,1.331-1.097,1.081-1.903
					c-0.224-0.719-0.809-1.277-1.598-1.277c-0.908,0-1.652,0.791-1.652,1.689c0,0.752,0.517,1.434,1.242,1.633
					c0.927,0.255,1.743-0.367,2.009-1.221c0.251-0.805-0.288-1.685-1.081-1.903C-101.595-1.471-102.416-0.966-102.665-0.162z"/>
			</g>
		</g>
	</g>
	<g>
		<g>
			<path d="M-135.839,58.815c2.679-0.224,5.396-1.938,7.671-3.2c1.745-0.968,0.184-3.64-1.562-2.671
				c-1.617,0.896-3.258,1.776-4.996,2.413c-0.351,0.129-0.707,0.239-1.07,0.332c-0.252,0.064-0.646,0.082-0.043,0.032
				C-137.813,55.886-137.829,58.981-135.839,58.815L-135.839,58.815z"/>
		</g>
	</g>
</g>
<g>
	<g>
		<g>
			<path fill="#FFFFFF" d="M-126.406-80.748c0,0,9.966-0.434,6.066-9.1c-1.934-4.298-4.525-11.057-1.733-17.766
				c2.791-6.708,8.149-11.799,17.315-9.633c0,0-6.055-11.706-4.999-19.331c0.652-4.705,6.676-9.684,13.666-7.999
				c4.227,1.019,9.666,3.667,16.332,11.333l-3.333,1.667l-0.666,13c0,0,11.89,5.278,14.665,13.999
				c2.333,7.332,2.447,12.371-6.999,23.998"/>
			<g>
				<path d="M-126.406-79.201c4.359-0.257,8.342-2.574,8.513-7.276c0.079-2.177-1.254-4.423-2.038-6.355
					c-1.647-4.06-2.211-8.232-1.282-12.54c1.658-7.68,8.611-11.832,16.044-10.38c1.351,0.264,2.387-1.019,1.747-2.272
					c-2.803-5.497-5.999-12.987-4.6-19.227c1.406-6.27,9.417-6.709,14.2-4.997c5.207,1.863,9.365,6.088,12.968,10.101
					c0.104-0.81,0.208-1.62,0.313-2.43c-1.111,0.556-2.222,1.111-3.333,1.667c-0.496,0.248-0.739,0.812-0.767,1.336
					c-0.222,4.334-0.445,8.666-0.666,13c-0.026,0.494,0.303,1.126,0.767,1.336c5.253,2.383,10.234,6.116,13.144,11.152
					c5.096,8.822-0.264,17.47-5.79,24.415c-1.229,1.544,0.946,3.749,2.187,2.187c4.308-5.414,8.732-11.292,8.769-18.503
					c0.033-6.576-3.497-12.36-8.314-16.532c-2.075-1.797-4.433-3.284-6.838-4.595c-0.499-0.272-1.01-0.523-1.525-0.763
					c0.493,1.347,0.731,1.649,0.715,0.901c0.031-0.609,0.062-1.217,0.094-1.825c0.146-2.849,0.292-5.696,0.438-8.546
					c0.023-0.453,0.047-0.905,0.069-1.357c0.077-1.488,0.204,0.003-0.475,0.342c1.028-0.515,2.058-1.028,3.086-1.543
					c0.937-0.468,0.939-1.732,0.313-2.43c-7.205-8.029-19.039-17.085-29.3-8.489c-7.467,6.256-1.649,19.461,1.872,26.362
					c0.582-0.757,1.165-1.515,1.747-2.272c-9.901-1.933-16.673,3.352-19.851,12.542c-1.761,5.091-0.081,11.185,1.983,15.898
					c1.923,4.391,0.785,7.71-4.191,8.003C-128.389-82.179-128.401-79.084-126.406-79.201L-126.406-79.201z"/>
			</g>
		</g>
		<g>
			<path fill="#FFFFFF" d="M-84.76-112.912c0,0,9.999,29.998,1.334,57.995l7.332,2.667l-37.663,2.667c0,0,6.999-44.33,5.665-57.662
				c0,0-6.95-0.033-6.616,8.299s13.34,21.648-9.532,26.864"/>
			<g>
				<path d="M-86.251-112.502c5.936,18.045,6.694,38.986,1.334,57.173c-0.253,0.857,0.3,1.619,1.081,1.903
					c2.445,0.889,4.888,1.777,7.332,2.667c0.137-1.013,0.275-2.026,0.412-3.039c-12.555,0.889-25.11,1.777-37.663,2.667
					c0.498,0.653,0.994,1.305,1.492,1.959c1.209-7.677,2.267-15.379,3.244-23.089c1.444-11.394,3.485-23.475,2.478-34.985
					c-0.072-0.825-0.649-1.567-1.547-1.547c-7.293,0.156-9.102,7.814-7.457,13.681c1.048,3.739,2.919,7.232,3.257,11.152
					c0.585,6.788-7.142,9.099-12.36,10.387c-1.937,0.477-1.115,3.463,0.823,2.984c8.12-2.004,15.734-5.892,14.4-15.333
					c-0.669-4.741-8.752-19.561,1.337-19.777c-0.516-0.516-1.032-1.032-1.547-1.547c0.943,10.764-0.896,22.004-2.19,32.667
					c-0.998,8.211-2.134,16.412-3.422,24.583c-0.144,0.919,0.396,2.036,1.492,1.959c12.555-0.889,25.11-1.777,37.663-2.667
					c1.774-0.126,2.066-2.437,0.412-3.039c-2.445-0.889-4.888-1.777-7.332-2.667c0.36,0.634,0.72,1.269,1.081,1.903
					c5.511-18.693,4.768-40.271-1.334-58.818C-83.889-115.21-86.877-114.403-86.251-112.502L-86.251-112.502z"/>
			</g>
		</g>
		<g>
			<line fill="none" x1="-94.759" y1="-77.916" x2="-97.425" y2="-51.251"/>
			<g>
				<path d="M-96.306-77.916c-0.889,8.888-1.777,17.776-2.667,26.665c-0.198,1.986,2.898,1.966,3.095,0
					c0.889-8.888,1.777-17.776,2.667-26.665C-93.014-79.901-96.11-79.882-96.306-77.916L-96.306-77.916z"/>
			</g>
		</g>
		<g>
			<line fill="none" x1="-76.094" y1="-87.916" x2="-80.094" y2="-82.916"/>
			<g>
				<path d="M-77.188-89.008c-1.334,1.667-2.667,3.333-4,4.999c-0.526,0.658-0.645,1.543,0,2.187c0.547,0.547,1.661,0.659,2.187,0
					c1.334-1.667,2.667-3.333,4-5c0.526-0.658,0.645-1.543,0-2.187C-75.548-89.555-76.66-89.668-77.188-89.008L-77.188-89.008z"/>
			</g>
		</g>
		<g>
			<g>
				<path d="M-83.208-102.912c1.176,0.747,2.205,1.714,3.12,2.756c2.307,2.625,1.587,5.243-1.12,7.237
					c-1.588,1.169-0.047,3.858,1.562,2.671c3.42-2.519,5.193-5.848,3.264-9.912c-1.053-2.219-3.216-4.124-5.265-5.425
					C-83.336-106.655-84.887-103.977-83.208-102.912L-83.208-102.912z"/>
			</g>
		</g>
		<g>
			<g>
				<path d="M-83.323-124.072c-2.237-1.586-5.711-1.325-8.296-1.236c-2.417,0.082-4.842,0.34-7.235,0.689
					c-1.969,0.287-1.128,3.269,0.823,2.984c1.719-0.251,3.456-0.399,5.189-0.515c2.31-0.154,5.947-0.675,7.957,0.749
					C-83.252-120.244-81.708-122.929-83.323-124.072L-83.323-124.072z"/>
			</g>
		</g>
		<g>
			<ellipse fill="#FFFFFF" cx="-91.006" cy="-133.306" rx="0.105" ry="0.141"/>
			<g>
				<path d="M-92.392-133.717c-0.01,0.033-0.021,0.066-0.031,0.1c0.237-0.309,0.475-0.617,0.71-0.924
					c-0.025,0.014-0.049,0.028-0.074,0.041c0.521,0,1.041,0,1.562,0c-0.025-0.014-0.049-0.028-0.074-0.041
					c0.237,0.309,0.475,0.617,0.71,0.924c-0.01-0.033-0.021-0.066-0.031-0.1c0,0.275,0,0.549,0,0.823
					c0.01-0.033,0.021-0.066,0.031-0.1c-0.237,0.309-0.475,0.617-0.71,0.924c0.025-0.014,0.049-0.028,0.074-0.041
					c-0.521,0-1.041,0-1.562,0c0.025,0.014,0.049,0.028,0.074,0.041c-0.237-0.309-0.475-0.617-0.71-0.924
					c0.01,0.033,0.021,0.066,0.031,0.1c0.249,0.804,1.071,1.31,1.903,1.081c0.793-0.217,1.331-1.097,1.081-1.903
					c-0.224-0.719-0.809-1.277-1.598-1.277c-0.908,0-1.652,0.791-1.652,1.689c0,0.752,0.517,1.434,1.242,1.633
					c0.927,0.255,1.743-0.367,2.009-1.221c0.251-0.805-0.288-1.685-1.081-1.903C-91.321-135.026-92.141-134.521-92.392-133.717z"/>
			</g>
		</g>
	</g>
	<g>
		<g>
			<path d="M-125.567-74.741c2.679-0.224,5.396-1.938,7.671-3.2c1.745-0.968,0.184-3.64-1.562-2.671
				c-1.617,0.896-3.258,1.776-4.996,2.413c-0.351,0.129-0.707,0.239-1.07,0.332c-0.252,0.064-0.646,0.082-0.043,0.032
				C-127.539-77.67-127.556-74.574-125.567-74.741L-125.567-74.741z"/>
		</g>
	</g>
</g>
<g>
	<g>
		<g>
			<path fill="#FFFFFF" d="M122.636-30.666c0,0,9.966-0.434,6.066-9.1c-1.933-4.298-4.525-11.057-1.733-17.766
				c2.791-6.708,8.149-11.799,17.315-9.633c0,0-6.055-11.706-5-19.331c0.652-4.705,6.675-9.684,13.666-7.999
				c4.227,1.019,9.666,3.667,16.332,11.333l-3.333,1.667l-0.666,13c0,0,11.89,5.278,14.666,13.999
				c2.333,7.332,2.447,12.371-6.999,23.998"/>
			<g>
				<path d="M122.636-29.12c4.359-0.257,8.342-2.574,8.513-7.276c0.079-2.177-1.254-4.423-2.038-6.355
					c-1.647-4.06-2.211-8.232-1.282-12.54c1.658-7.68,8.611-11.832,16.044-10.38c1.351,0.264,2.387-1.019,1.747-2.272
					c-2.803-5.497-5.999-12.987-4.6-19.227c1.406-6.27,9.417-6.709,14.2-4.997c5.207,1.863,9.365,6.088,12.968,10.101
					c0.104-0.81,0.208-1.62,0.314-2.43c-1.111,0.556-2.222,1.111-3.333,1.667c-0.496,0.248-0.739,0.812-0.766,1.336
					c-0.222,4.333-0.445,8.666-0.666,13c-0.026,0.494,0.303,1.126,0.766,1.336c5.253,2.383,10.234,6.116,13.144,11.152
					c5.096,8.822-0.264,17.47-5.79,24.415c-1.229,1.544,0.946,3.749,2.187,2.187c4.308-5.414,8.732-11.292,8.769-18.503
					c0.033-6.576-3.497-12.36-8.314-16.532c-2.075-1.797-4.434-3.284-6.838-4.595c-0.499-0.272-1.01-0.523-1.525-0.763
					c0.493,1.347,0.731,1.649,0.715,0.901c0.031-0.609,0.063-1.217,0.094-1.825c0.146-2.849,0.292-5.696,0.438-8.546
					c0.023-0.453,0.047-0.905,0.069-1.357c0.077-1.488,0.204,0.003-0.475,0.342c1.028-0.515,2.058-1.028,3.086-1.543
					c0.936-0.468,0.939-1.732,0.314-2.43c-7.205-8.029-19.039-17.085-29.3-8.489c-7.467,6.256-1.648,19.461,1.872,26.362
					c0.582-0.757,1.165-1.515,1.747-2.272c-9.901-1.933-16.673,3.352-19.851,12.542c-1.761,5.091-0.081,11.185,1.983,15.898
					c1.923,4.391,0.785,7.71-4.191,8.003C120.654-32.098,120.643-29.002,122.636-29.12L122.636-29.12z"/>
			</g>
		</g>
		<g>
			<path fill="#FFFFFF" d="M164.282-62.83c0,0,9.999,29.998,1.334,57.995l7.332,2.667l-37.663,2.667c0,0,6.999-44.33,5.665-57.662
				c0,0-6.95-0.033-6.616,8.299c0.333,8.333,13.34,21.648-9.532,26.864"/>
			<g>
				<path d="M162.792-62.419c5.936,18.045,6.694,38.986,1.334,57.173c-0.253,0.857,0.3,1.619,1.081,1.903
					c2.445,0.889,4.888,1.777,7.332,2.667c0.137-1.013,0.275-2.026,0.412-3.039c-12.555,0.889-25.11,1.777-37.663,2.667
					c0.497,0.653,0.994,1.305,1.492,1.959c1.209-7.677,2.267-15.379,3.243-23.089c1.444-11.394,3.485-23.475,2.478-34.985
					c-0.072-0.825-0.649-1.567-1.547-1.547c-7.293,0.156-9.101,7.814-7.457,13.681c1.048,3.739,2.919,7.232,3.257,11.152
					c0.585,6.788-7.142,9.099-12.36,10.387c-1.937,0.477-1.115,3.463,0.823,2.984c8.12-2.004,15.734-5.891,14.4-15.333
					c-0.669-4.741-8.752-19.561,1.337-19.777c-0.516-0.516-1.032-1.032-1.547-1.547c0.943,10.764-0.896,22.004-2.19,32.667
					c-0.998,8.211-2.134,16.412-3.421,24.583c-0.144,0.919,0.396,2.036,1.492,1.959c12.555-0.889,25.11-1.777,37.663-2.667
					c1.774-0.126,2.066-2.437,0.412-3.039c-2.445-0.889-4.889-1.777-7.332-2.667c0.36,0.634,0.72,1.269,1.081,1.903
					c5.511-18.693,4.768-40.271-1.334-58.818C165.154-65.129,162.165-64.321,162.792-62.419L162.792-62.419z"/>
			</g>
		</g>
		<g>
			<line fill="none" x1="154.284" y1="-27.834" x2="151.618" y2="-1.169"/>
			<g>
				<path d="M152.737-27.834c-0.889,8.888-1.777,17.776-2.667,26.665c-0.198,1.986,2.898,1.966,3.095,0
					c0.889-8.888,1.777-17.776,2.667-26.665C156.029-29.819,152.932-29.799,152.737-27.834L152.737-27.834z"/>
			</g>
		</g>
		<g>
			<line fill="none" x1="172.949" y1="-37.834" x2="168.949" y2="-32.833"/>
			<g>
				<path d="M171.855-38.926c-1.334,1.667-2.667,3.333-4,5c-0.526,0.658-0.645,1.543,0,2.187c0.547,0.547,1.661,0.659,2.187,0
					c1.334-1.667,2.667-3.333,4-5c0.526-0.658,0.645-1.543,0-2.187C173.497-39.473,172.382-39.587,171.855-38.926L171.855-38.926z"
					/>
			</g>
		</g>
		<g>
			<g>
				<path d="M165.835-52.83c1.176,0.747,2.205,1.714,3.12,2.756c2.308,2.625,1.587,5.243-1.12,7.237
					c-1.588,1.169-0.047,3.858,1.562,2.671c3.42-2.519,5.193-5.848,3.264-9.912c-1.053-2.219-3.216-4.124-5.265-5.425
					C165.707-56.573,164.155-53.895,165.835-52.83L165.835-52.83z"/>
			</g>
		</g>
		<g>
			<g>
				<path d="M165.721-73.99c-2.237-1.586-5.71-1.325-8.296-1.236c-2.417,0.082-4.842,0.34-7.235,0.689
					c-1.968,0.287-1.128,3.269,0.823,2.984c1.719-0.251,3.456-0.399,5.189-0.515c2.31-0.154,5.947-0.675,7.957,0.749
					C165.79-70.162,167.335-72.847,165.721-73.99L165.721-73.99z"/>
			</g>
		</g>
		<g>
			<ellipse fill="#FFFFFF" cx="158.037" cy="-83.223" rx="0.105" ry="0.141"/>
			<g>
				<path d="M156.652-83.635c-0.01,0.033-0.021,0.066-0.031,0.1c0.237-0.309,0.475-0.617,0.711-0.924
					c-0.025,0.014-0.049,0.027-0.074,0.041c0.521,0,1.041,0,1.562,0c-0.025-0.014-0.049-0.028-0.075-0.041
					c0.237,0.309,0.475,0.617,0.711,0.924c-0.01-0.033-0.021-0.066-0.031-0.1c0,0.275,0,0.549,0,0.823
					c0.01-0.033,0.021-0.066,0.031-0.1c-0.237,0.309-0.475,0.617-0.711,0.924c0.025-0.014,0.049-0.028,0.075-0.041
					c-0.521,0-1.041,0-1.562,0c0.025,0.014,0.049,0.028,0.074,0.041c-0.237-0.309-0.475-0.617-0.711-0.924
					c0.01,0.033,0.021,0.066,0.031,0.1c0.249,0.804,1.07,1.31,1.903,1.081c0.793-0.217,1.33-1.097,1.081-1.903
					c-0.224-0.719-0.809-1.277-1.598-1.277c-0.908,0-1.652,0.791-1.652,1.689c0,0.752,0.517,1.434,1.242,1.633
					c0.927,0.255,1.743-0.367,2.009-1.221c0.251-0.805-0.288-1.685-1.081-1.903C157.721-84.945,156.902-84.439,156.652-83.635z"/>
			</g>
		</g>
	</g>
	<g>
		<g>
			<path d="M123.477-24.659c2.679-0.224,5.396-1.938,7.671-3.2c1.745-0.968,0.184-3.64-1.562-2.671
				c-1.617,0.896-3.258,1.776-4.996,2.413c-0.351,0.129-0.708,0.239-1.07,0.332c-0.252,0.064-0.646,0.082-0.043,0.032
				C121.503-27.588,121.487-24.492,123.477-24.659L123.477-24.659z"/>
		</g>
	</g>
</g>
<g>
	<g>
		<g>
			<path fill="#FFFFFF" d="M115.754,124.72c0,0,9.966-0.433,6.066-9.1c-1.934-4.298-4.525-11.057-1.733-17.766
				c2.791-6.708,8.149-11.799,17.315-9.633c0,0-6.055-11.706-4.999-19.331c0.652-4.705,6.675-9.684,13.666-7.999
				c4.227,1.019,9.666,3.667,16.332,11.333l-3.333,1.667l-0.666,13c0,0,11.89,5.278,14.666,13.999
				c2.333,7.332,2.447,12.371-6.999,23.998"/>
			<g>
				<path d="M115.754,126.268c4.359-0.257,8.342-2.574,8.513-7.276c0.079-2.177-1.254-4.423-2.038-6.355
					c-1.647-4.06-2.211-8.232-1.282-12.54c1.658-7.68,8.611-11.832,16.044-10.38c1.351,0.264,2.387-1.019,1.747-2.272
					c-2.803-5.497-5.999-12.987-4.6-19.227c1.406-6.27,9.417-6.709,14.2-4.997c5.207,1.863,9.365,6.087,12.968,10.101
					c0.104-0.81,0.208-1.62,0.314-2.43c-1.111,0.556-2.222,1.111-3.333,1.667c-0.498,0.248-0.739,0.812-0.766,1.336
					c-0.222,4.333-0.445,8.666-0.666,13c-0.026,0.494,0.303,1.126,0.766,1.336c5.253,2.383,10.234,6.116,13.144,11.152
					c5.096,8.822-0.264,17.47-5.79,24.415c-1.229,1.544,0.946,3.749,2.187,2.187c4.308-5.414,8.732-11.292,8.769-18.503
					c0.033-6.576-3.497-12.36-8.314-16.532c-2.075-1.797-4.433-3.284-6.838-4.595c-0.499-0.272-1.01-0.523-1.525-0.763
					c0.493,1.347,0.731,1.649,0.715,0.901c0.031-0.609,0.062-1.217,0.094-1.825c0.147-2.849,0.292-5.696,0.438-8.546
					c0.023-0.453,0.047-0.905,0.069-1.357c0.077-1.488,0.204,0.003-0.475,0.342c1.029-0.515,2.058-1.028,3.086-1.543
					c0.936-0.468,0.939-1.732,0.314-2.43c-7.205-8.029-19.039-17.085-29.3-8.489c-7.467,6.256-1.649,19.461,1.872,26.362
					c0.582-0.757,1.165-1.515,1.747-2.272c-9.901-1.933-16.673,3.352-19.851,12.542c-1.761,5.091-0.081,11.185,1.983,15.898
					c1.923,4.391,0.785,7.71-4.191,8.003C113.772,123.291,113.76,126.385,115.754,126.268L115.754,126.268z"/>
			</g>
		</g>
		<g>
			<path fill="#FFFFFF" d="M157.401,92.557c0,0,9.999,29.998,1.334,57.995l7.332,2.667l-37.663,2.667c0,0,6.999-44.33,5.665-57.662
				c0,0-6.95-0.033-6.616,8.299c0.333,8.333,13.34,21.648-9.532,26.864"/>
			<g>
				<path d="M155.909,92.969c5.936,18.045,6.694,38.986,1.334,57.173c-0.253,0.857,0.3,1.619,1.081,1.903
					c2.445,0.889,4.888,1.777,7.332,2.667c0.137-1.012,0.275-2.026,0.412-3.039c-12.555,0.889-25.11,1.777-37.663,2.667
					c0.497,0.653,0.994,1.305,1.492,1.959c1.209-7.677,2.267-15.379,3.243-23.089c1.444-11.394,3.485-23.475,2.478-34.985
					c-0.072-0.825-0.649-1.567-1.547-1.547c-7.293,0.156-9.101,7.814-7.457,13.681c1.048,3.739,2.919,7.232,3.257,11.152
					c0.585,6.788-7.142,9.099-12.36,10.387c-1.937,0.478-1.115,3.463,0.823,2.984c8.12-2.004,15.734-5.892,14.4-15.332
					c-0.669-4.741-8.752-19.561,1.337-19.777c-0.516-0.516-1.032-1.032-1.547-1.547c0.943,10.764-0.896,22.004-2.19,32.667
					c-0.998,8.211-2.134,16.412-3.421,24.583c-0.144,0.919,0.396,2.036,1.492,1.959c12.555-0.889,25.11-1.777,37.663-2.667
					c1.774-0.126,2.066-2.437,0.412-3.039c-2.445-0.889-4.888-1.777-7.332-2.667c0.36,0.634,0.72,1.269,1.081,1.903
					c5.511-18.693,4.768-40.271-1.334-58.818C158.273,90.259,155.283,91.067,155.909,92.969L155.909,92.969z"/>
			</g>
		</g>
		<g>
			<line fill="none" x1="147.402" y1="127.554" x2="144.736" y2="154.219"/>
			<g>
				<path d="M145.855,127.554c-0.889,8.888-1.777,17.776-2.667,26.665c-0.198,1.986,2.898,1.966,3.095,0
					c0.889-8.888,1.777-17.776,2.667-26.665C149.148,125.569,146.051,125.588,145.855,127.554L145.855,127.554z"/>
			</g>
		</g>
		<g>
			<line fill="none" x1="166.067" y1="117.555" x2="162.068" y2="122.555"/>
			<g>
				<path d="M164.973,116.46c-1.334,1.667-2.667,3.333-4,4.999c-0.526,0.658-0.645,1.543,0,2.187c0.547,0.547,1.661,0.659,2.187,0
					c1.334-1.667,2.667-3.333,4-4.999c0.526-0.658,0.645-1.543,0-2.187C166.614,115.914,165.501,115.801,164.973,116.46
					L164.973,116.46z"/>
			</g>
		</g>
		<g>
			<g>
				<path d="M158.953,102.559c1.176,0.747,2.205,1.714,3.12,2.756c2.308,2.625,1.587,5.243-1.12,7.237
					c-1.588,1.169-0.047,3.858,1.562,2.671c3.42-2.519,5.193-5.848,3.264-9.912c-1.053-2.219-3.216-4.124-5.265-5.425
					C158.824,98.815,157.274,101.494,158.953,102.559L158.953,102.559z"/>
			</g>
		</g>
		<g>
			<g>
				<path d="M158.839,81.397c-2.237-1.586-5.711-1.325-8.296-1.236c-2.417,0.082-4.842,0.34-7.235,0.689
					c-1.969,0.287-1.128,3.269,0.823,2.984c1.719-0.251,3.456-0.399,5.189-0.515c2.31-0.154,5.947-0.675,7.957,0.749
					C158.909,85.226,160.453,82.541,158.839,81.397L158.839,81.397z"/>
			</g>
		</g>
		<g>
			<ellipse fill="#FFFFFF" cx="151.156" cy="72.164" rx="0.105" ry="0.142"/>
			<g>
				<path d="M149.769,71.753c-0.01,0.033-0.021,0.066-0.031,0.1c0.237-0.309,0.475-0.617,0.711-0.924
					c-0.025,0.014-0.049,0.028-0.074,0.041c0.521,0,1.041,0,1.562,0c-0.025-0.014-0.049-0.028-0.074-0.041
					c0.237,0.309,0.475,0.617,0.711,0.924c-0.01-0.033-0.021-0.066-0.031-0.1c0,0.275,0,0.549,0,0.823
					c0.01-0.033,0.021-0.066,0.031-0.1c-0.237,0.309-0.475,0.617-0.711,0.924c0.025-0.014,0.049-0.028,0.074-0.041
					c-0.521,0-1.041,0-1.562,0c0.025,0.014,0.049,0.028,0.074,0.041c-0.237-0.309-0.475-0.617-0.711-0.924
					c0.01,0.033,0.021,0.066,0.031,0.1c0.249,0.804,1.071,1.31,1.903,1.081c0.793-0.217,1.331-1.097,1.081-1.903
					c-0.224-0.719-0.809-1.277-1.598-1.277c-0.908,0-1.652,0.791-1.652,1.689c0,0.752,0.517,1.434,1.242,1.633
					c0.927,0.255,1.743-0.367,2.009-1.221c0.251-0.805-0.288-1.685-1.081-1.903C150.84,70.443,150.019,70.948,149.769,71.753z"/>
			</g>
		</g>
	</g>
	<g>
		<g>
			<path d="M116.595,130.73c2.679-0.224,5.396-1.938,7.671-3.2c1.745-0.968,0.184-3.64-1.562-2.671
				c-1.617,0.896-3.258,1.775-4.996,2.413c-0.351,0.129-0.708,0.239-1.07,0.332c-0.252,0.064-0.646,0.082-0.043,0.032
				C114.622,127.8,114.606,130.896,116.595,130.73L116.595,130.73z"/>
		</g>
	</g>
</g>
</svg>
