<?xml version="1.0" encoding="utf-8"?>
<!-- Generator: Adobe Illustrator 17.0.2, SVG Export Plug-In . SVG Version: 6.00 Build 0)  -->
<!DOCTYPE svg PUBLIC "-//W3C//DTD SVG 1.1//EN" "http://www.w3.org/Graphics/SVG/1.1/DTD/svg11.dtd">
<svg version="1.1" id="Lager_1" xmlns="http://www.w3.org/2000/svg" xmlns:xlink="http://www.w3.org/1999/xlink" x="0px" y="0px"
	 width="770px" height="770px" viewBox="0 0 770 770" enable-background="new 0 0 770 770" xml:space="preserve">
<g>
	<g>
		<g>
			<path fill="#FFFFFF" d="M355.903,401.804c0,0,9.662-0.42,5.881-8.822c-1.875-4.167-4.387-10.72-1.68-17.224
				c2.706-6.503,7.901-11.439,16.787-9.339c0,0-5.871-11.349-4.847-18.742c0.632-4.562,6.472-9.389,13.249-7.755
				c4.098,0.988,9.371,3.555,15.834,10.987l-3.231,1.616l-0.646,12.603c0,0,11.528,5.117,14.218,13.572
				c2.262,7.109,2.372,11.994-6.786,23.266"/>
			<g>
				<path d="M355.903,403.304c4.226-0.249,8.088-2.496,8.253-7.054c0.077-2.111-1.216-4.288-1.976-6.161
					c-1.597-3.936-2.144-7.981-1.243-12.158c1.607-7.446,8.349-11.471,15.555-10.064c1.31,0.256,2.314-0.988,1.694-2.203
					c-2.718-5.329-5.816-12.591-4.46-18.641c1.363-6.079,9.13-6.504,13.767-4.845c5.048,1.806,9.08,5.902,12.572,9.793
					c0.101-0.785,0.202-1.571,0.304-2.356c-1.077,0.539-2.154,1.077-3.231,1.616c-0.481,0.241-0.717,0.787-0.743,1.295
					c-0.215,4.201-0.431,8.402-0.646,12.603c-0.025,0.479,0.294,1.091,0.743,1.295c5.093,2.31,9.922,5.93,12.743,10.812
					c4.94,8.553-0.256,16.937-5.614,23.671c-1.191,1.497,0.917,3.635,2.121,2.121c4.177-5.249,8.466-10.948,8.502-17.939
					c0.032-6.375-3.391-11.983-8.06-16.028c-2.012-1.743-4.298-3.184-6.63-4.455c-0.484-0.264-0.979-0.507-1.478-0.74
					c0.478,1.306,0.709,1.598,0.693,0.874c0.03-0.59,0.06-1.18,0.091-1.769c0.142-2.762,0.283-5.523,0.425-8.285
					c0.022-0.439,0.045-0.877,0.067-1.316c0.074-1.443,0.197,0.003-0.46,0.332c0.997-0.499,1.995-0.997,2.992-1.496
					c0.908-0.454,0.911-1.679,0.304-2.356c-6.986-7.784-18.459-16.564-28.407-8.23c-7.24,6.065-1.598,18.868,1.815,25.559
					c0.565-0.734,1.129-1.469,1.694-2.204c-9.599-1.874-16.165,3.25-19.246,12.16c-1.707,4.936-0.079,10.844,1.922,15.413
					c1.864,4.257,0.76,7.475-4.063,7.759C353.981,400.417,353.97,403.417,355.903,403.304L355.903,403.304z"/>
			</g>
		</g>
		<g>
			<path fill="#FFFFFF" d="M396.28,370.62c0,0,9.694,29.083,1.293,56.227l7.109,2.585l-36.515,2.585c0,0,6.786-42.978,5.493-55.904
				c0,0-6.738-0.032-6.414,8.046s12.933,20.988-9.242,26.045"/>
			<g>
				<path d="M394.834,371.019c5.755,17.495,6.49,37.797,1.293,55.43c-0.245,0.831,0.291,1.57,1.048,1.845
					c2.37,0.862,4.739,1.723,7.109,2.585c0.133-0.982,0.266-1.964,0.399-2.946c-12.172,0.862-24.344,1.723-36.515,2.585
					c0.482,0.633,0.964,1.266,1.446,1.899c1.172-7.443,2.198-14.91,3.145-22.385c1.4-11.046,3.379-22.759,2.402-33.918
					c-0.07-0.8-0.629-1.519-1.5-1.5c-7.071,0.151-8.824,7.576-7.23,13.264c1.016,3.625,2.83,7.011,3.158,10.812
					c0.567,6.581-6.924,8.821-11.983,10.07c-1.878,0.463-1.081,3.356,0.798,2.893c7.873-1.943,15.254-5.712,13.961-14.865
					c-0.649-4.596-8.485-18.965,1.297-19.173c-0.5-0.5-1-1-1.5-1.5c0.914,10.436-0.868,21.333-2.123,31.671
					c-0.967,7.961-2.069,15.912-3.317,23.834c-0.14,0.891,0.384,1.974,1.446,1.899c12.172-0.862,24.344-1.723,36.515-2.585
					c1.72-0.122,2.003-2.363,0.399-2.946c-2.37-0.862-4.739-1.723-7.109-2.585c0.349,0.615,0.698,1.23,1.048,1.845
					c5.343-18.123,4.623-39.043-1.293-57.025C397.125,368.393,394.227,369.176,394.834,371.019L394.834,371.019z"/>
			</g>
		</g>
		<g>
			<line fill="#FFFFFF" x1="386.586" y1="404.55" x2="384.001" y2="430.402"/>
			<g>
				<path d="M385.086,404.55c-0.862,8.617-1.723,17.234-2.585,25.852c-0.192,1.925,2.809,1.906,3,0
					c0.862-8.617,1.723-17.234,2.585-25.852C388.278,402.626,385.276,402.644,385.086,404.55L385.086,404.55z"/>
			</g>
		</g>
		<g>
			<line fill="#FFFFFF" x1="404.682" y1="394.856" x2="400.804" y2="399.703"/>
			<g>
				<path d="M403.621,393.795c-1.293,1.616-2.585,3.231-3.878,4.847c-0.51,0.638-0.626,1.496,0,2.121c0.53,0.53,1.61,0.639,2.121,0
					c1.293-1.616,2.585-3.231,3.878-4.847c0.51-0.638,0.626-1.496,0-2.121C405.213,393.265,404.133,393.156,403.621,393.795
					L403.621,393.795z"/>
			</g>
		</g>
		<g>
			<g>
				<path d="M397.785,380.317c1.14,0.724,2.137,1.661,3.025,2.672c2.237,2.545,1.538,5.083-1.086,7.017
					c-1.54,1.134-0.046,3.74,1.514,2.59c3.315-2.442,5.034-5.67,3.165-9.61c-1.021-2.152-3.118-3.999-5.104-5.26
					C397.661,376.687,396.157,379.284,397.785,380.317L397.785,380.317z"/>
			</g>
		</g>
		<g>
			<g>
				<path d="M397.674,359.8c-2.168-1.537-5.537-1.284-8.043-1.198c-2.344,0.08-4.694,0.329-7.014,0.668
					c-1.908,0.278-1.094,3.169,0.798,2.893c1.667-0.243,3.351-0.387,5.031-0.499c2.239-0.15,5.766-0.654,7.714,0.727
					C397.742,363.512,399.239,360.909,397.674,359.8L397.674,359.8z"/>
			</g>
		</g>
		<g>
			<ellipse fill="#FFFFFF" cx="390.225" cy="350.849" rx="0.102" ry="0.137"/>
			<g>
				<path d="M388.881,350.45c-0.01,0.032-0.02,0.064-0.03,0.097c0.23-0.299,0.46-0.598,0.689-0.896
					c-0.024,0.013-0.048,0.027-0.072,0.04c0.505,0,1.009,0,1.514,0c-0.024-0.013-0.048-0.027-0.072-0.04
					c0.23,0.299,0.46,0.598,0.689,0.896c-0.01-0.032-0.02-0.064-0.03-0.097c0,0.266,0,0.532,0,0.798
					c0.01-0.032,0.02-0.064,0.03-0.097c-0.23,0.299-0.46,0.598-0.689,0.896c0.024-0.013,0.048-0.027,0.072-0.04
					c-0.505,0-1.009,0-1.514,0c0.024,0.013,0.048,0.027,0.072,0.04c-0.23-0.299-0.46-0.598-0.689-0.896
					c0.01,0.032,0.02,0.064,0.03,0.097c0.242,0.78,1.038,1.27,1.845,1.048c0.769-0.211,1.29-1.064,1.048-1.845
					c-0.217-0.697-0.784-1.238-1.549-1.238c-0.881,0-1.602,0.767-1.602,1.637c0,0.729,0.501,1.39,1.204,1.583
					c0.898,0.247,1.69-0.356,1.948-1.184c0.243-0.781-0.279-1.634-1.048-1.845C389.919,349.181,389.124,349.67,388.881,350.45z"/>
			</g>
		</g>
	</g>
	<g>
		<g>
			<path d="M356.718,407.629c2.598-0.217,5.232-1.879,7.437-3.102c1.692-0.938,0.179-3.529-1.514-2.59
				c-1.567,0.868-3.159,1.721-4.844,2.339c-0.34,0.125-0.686,0.232-1.037,0.322c-0.244,0.062-0.627,0.08-0.042,0.031
				C354.805,404.789,354.789,407.79,356.718,407.629L356.718,407.629z"/>
		</g>
	</g>
</g>
<g>
	<g>
		<g>
			<path fill="#FFFFFF" d="M430.903,442.804c0,0,9.662-0.42,5.881-8.822c-1.875-4.167-4.387-10.72-1.68-17.224
				c2.706-6.503,7.901-11.439,16.787-9.339c0,0-5.871-11.349-4.847-18.742c0.632-4.562,6.472-9.389,13.249-7.755
				c4.098,0.988,9.371,3.555,15.834,10.987l-3.231,1.616l-0.646,12.603c0,0,11.528,5.117,14.218,13.572
				c2.262,7.109,2.372,11.994-6.786,23.266"/>
			<g>
				<path d="M430.903,444.304c4.226-0.249,8.088-2.496,8.253-7.054c0.077-2.111-1.216-4.288-1.976-6.161
					c-1.597-3.936-2.144-7.981-1.243-12.158c1.607-7.446,8.349-11.471,15.555-10.064c1.31,0.256,2.314-0.988,1.694-2.203
					c-2.718-5.329-5.816-12.591-4.46-18.641c1.363-6.079,9.13-6.504,13.767-4.845c5.048,1.806,9.08,5.902,12.572,9.793
					c0.101-0.785,0.202-1.571,0.304-2.356c-1.077,0.539-2.154,1.077-3.231,1.616c-0.481,0.241-0.717,0.787-0.743,1.295
					c-0.215,4.201-0.431,8.402-0.646,12.603c-0.025,0.479,0.294,1.091,0.743,1.295c5.093,2.31,9.922,5.93,12.743,10.812
					c4.94,8.553-0.256,16.937-5.614,23.671c-1.191,1.497,0.917,3.635,2.121,2.121c4.177-5.249,8.466-10.948,8.502-17.939
					c0.032-6.375-3.391-11.983-8.06-16.028c-2.012-1.743-4.298-3.184-6.63-4.455c-0.484-0.264-0.979-0.507-1.478-0.74
					c0.478,1.306,0.709,1.598,0.693,0.874c0.03-0.59,0.06-1.18,0.091-1.769c0.142-2.762,0.283-5.523,0.425-8.285
					c0.022-0.439,0.045-0.877,0.067-1.316c0.074-1.443,0.197,0.003-0.46,0.332c0.997-0.499,1.995-0.997,2.992-1.496
					c0.908-0.454,0.911-1.679,0.304-2.356c-6.986-7.784-18.459-16.564-28.407-8.23c-7.24,6.065-1.598,18.868,1.815,25.559
					c0.565-0.734,1.129-1.469,1.694-2.204c-9.599-1.874-16.165,3.25-19.246,12.16c-1.707,4.936-0.079,10.844,1.922,15.413
					c1.864,4.257,0.76,7.475-4.063,7.759C428.981,441.417,428.97,444.417,430.903,444.304L430.903,444.304z"/>
			</g>
		</g>
		<g>
			<path fill="#FFFFFF" d="M471.28,411.62c0,0,9.694,29.083,1.293,56.227l7.109,2.585l-36.515,2.585c0,0,6.786-42.978,5.493-55.904
				c0,0-6.738-0.032-6.414,8.046s12.933,20.988-9.242,26.045"/>
			<g>
				<path d="M469.834,412.019c5.755,17.495,6.49,37.797,1.293,55.43c-0.245,0.831,0.291,1.57,1.048,1.845
					c2.37,0.862,4.739,1.723,7.109,2.585c0.133-0.982,0.266-1.964,0.399-2.946c-12.172,0.862-24.344,1.723-36.515,2.585
					c0.482,0.633,0.964,1.266,1.446,1.899c1.172-7.443,2.198-14.91,3.145-22.385c1.4-11.046,3.379-22.759,2.402-33.918
					c-0.07-0.8-0.629-1.519-1.5-1.5c-7.071,0.151-8.824,7.576-7.23,13.264c1.016,3.625,2.83,7.011,3.158,10.812
					c0.567,6.581-6.924,8.821-11.983,10.07c-1.878,0.463-1.081,3.356,0.798,2.893c7.873-1.943,15.254-5.712,13.961-14.865
					c-0.649-4.596-8.485-18.965,1.297-19.173c-0.5-0.5-1-1-1.5-1.5c0.914,10.436-0.868,21.333-2.123,31.671
					c-0.967,7.961-2.069,15.912-3.317,23.834c-0.14,0.891,0.384,1.974,1.446,1.899c12.172-0.862,24.344-1.723,36.515-2.585
					c1.72-0.122,2.003-2.363,0.399-2.946c-2.37-0.862-4.739-1.723-7.109-2.585c0.349,0.615,0.698,1.23,1.048,1.845
					c5.343-18.123,4.623-39.043-1.293-57.025C472.125,409.393,469.227,410.176,469.834,412.019L469.834,412.019z"/>
			</g>
		</g>
		<g>
			<line fill="#FFFFFF" x1="461.586" y1="445.55" x2="459.001" y2="471.402"/>
			<g>
				<path d="M460.086,445.55c-0.862,8.617-1.723,17.234-2.585,25.852c-0.192,1.925,2.809,1.906,3,0
					c0.862-8.617,1.723-17.234,2.585-25.852C463.278,443.626,460.276,443.644,460.086,445.55L460.086,445.55z"/>
			</g>
		</g>
		<g>
			<line fill="#FFFFFF" x1="479.682" y1="435.856" x2="475.804" y2="440.703"/>
			<g>
				<path d="M478.621,434.795c-1.293,1.616-2.585,3.231-3.878,4.847c-0.51,0.638-0.626,1.496,0,2.121c0.53,0.53,1.61,0.639,2.121,0
					c1.293-1.616,2.585-3.231,3.878-4.847c0.51-0.638,0.626-1.496,0-2.121C480.213,434.265,479.133,434.156,478.621,434.795
					L478.621,434.795z"/>
			</g>
		</g>
		<g>
			<g>
				<path d="M472.785,421.317c1.14,0.724,2.137,1.661,3.025,2.672c2.237,2.545,1.538,5.083-1.086,7.017
					c-1.54,1.134-0.046,3.74,1.514,2.59c3.315-2.442,5.034-5.67,3.165-9.61c-1.021-2.152-3.118-3.999-5.104-5.26
					C472.661,417.687,471.157,420.284,472.785,421.317L472.785,421.317z"/>
			</g>
		</g>
		<g>
			<g>
				<path d="M472.674,400.8c-2.168-1.537-5.537-1.284-8.043-1.198c-2.344,0.08-4.694,0.329-7.014,0.668
					c-1.908,0.278-1.094,3.169,0.798,2.893c1.667-0.243,3.351-0.387,5.031-0.499c2.239-0.15,5.766-0.654,7.714,0.727
					C472.742,404.512,474.239,401.909,472.674,400.8L472.674,400.8z"/>
			</g>
		</g>
		<g>
			<ellipse fill="#FFFFFF" cx="465.225" cy="391.849" rx="0.102" ry="0.137"/>
			<g>
				<path d="M463.881,391.45c-0.01,0.032-0.02,0.064-0.03,0.097c0.23-0.299,0.46-0.598,0.689-0.896
					c-0.024,0.013-0.048,0.027-0.072,0.04c0.505,0,1.009,0,1.514,0c-0.024-0.013-0.048-0.027-0.072-0.04
					c0.23,0.299,0.46,0.598,0.689,0.896c-0.01-0.032-0.02-0.064-0.03-0.097c0,0.266,0,0.532,0,0.798
					c0.01-0.032,0.02-0.064,0.03-0.097c-0.23,0.299-0.46,0.598-0.689,0.896c0.024-0.013,0.048-0.027,0.072-0.04
					c-0.505,0-1.009,0-1.514,0c0.024,0.013,0.048,0.027,0.072,0.04c-0.23-0.299-0.46-0.598-0.689-0.896
					c0.01,0.032,0.02,0.064,0.03,0.097c0.242,0.78,1.038,1.27,1.845,1.048c0.769-0.211,1.29-1.064,1.048-1.845
					c-0.217-0.697-0.784-1.238-1.549-1.238c-0.881,0-1.602,0.767-1.602,1.637c0,0.729,0.501,1.39,1.204,1.583
					c0.898,0.247,1.69-0.356,1.948-1.184c0.243-0.781-0.279-1.634-1.048-1.845C464.919,390.181,464.124,390.67,463.881,391.45z"/>
			</g>
		</g>
	</g>
	<g>
		<g>
			<path d="M431.718,448.629c2.598-0.217,5.232-1.879,7.437-3.102c1.692-0.938,0.179-3.529-1.514-2.59
				c-1.567,0.868-3.159,1.721-4.844,2.339c-0.34,0.125-0.686,0.232-1.037,0.322c-0.244,0.062-0.627,0.08-0.042,0.031
				C429.805,445.789,429.789,448.79,431.718,448.629L431.718,448.629z"/>
		</g>
	</g>
</g>
<g>
	<g>
		<g>
			<path fill="#FFFFFF" d="M410.983,334.663c0,0,9.662-0.42,5.881-8.822c-1.875-4.167-4.387-10.72-1.68-17.224
				c2.706-6.503,7.901-11.439,16.787-9.339c0,0-5.871-11.349-4.847-18.742c0.632-4.562,6.472-9.389,13.249-7.755
				c4.098,0.988,9.371,3.555,15.834,10.987l-3.231,1.616l-0.646,12.603c0,0,11.528,5.117,14.218,13.572
				c2.262,7.109,2.372,11.994-6.786,23.266"/>
			<g>
				<path d="M410.983,336.163c4.226-0.249,8.088-2.496,8.253-7.054c0.077-2.111-1.216-4.288-1.976-6.161
					c-1.597-3.936-2.144-7.981-1.243-12.158c1.607-7.446,8.349-11.471,15.555-10.064c1.31,0.256,2.314-0.988,1.694-2.203
					c-2.718-5.329-5.816-12.591-4.46-18.641c1.363-6.079,9.13-6.504,13.767-4.845c5.048,1.806,9.08,5.902,12.572,9.793
					c0.101-0.785,0.202-1.571,0.304-2.356c-1.077,0.539-2.154,1.077-3.231,1.616c-0.481,0.241-0.717,0.787-0.743,1.295
					c-0.215,4.201-0.431,8.402-0.646,12.603c-0.025,0.479,0.294,1.091,0.743,1.295c5.093,2.31,9.923,5.93,12.743,10.812
					c4.94,8.553-0.256,16.937-5.614,23.671c-1.191,1.497,0.917,3.635,2.121,2.121c4.177-5.249,8.466-10.948,8.502-17.939
					c0.032-6.375-3.391-11.983-8.06-16.028c-2.012-1.743-4.298-3.184-6.63-4.455c-0.484-0.264-0.979-0.507-1.478-0.74
					c0.478,1.306,0.709,1.598,0.693,0.874c0.03-0.59,0.06-1.18,0.091-1.769c0.142-2.762,0.283-5.523,0.425-8.285
					c0.022-0.439,0.045-0.877,0.067-1.316c0.074-1.443,0.197,0.003-0.46,0.332c0.997-0.499,1.995-0.997,2.992-1.496
					c0.908-0.454,0.911-1.679,0.304-2.356c-6.986-7.784-18.459-16.564-28.407-8.23c-7.24,6.065-1.598,18.868,1.815,25.559
					c0.565-0.734,1.129-1.469,1.694-2.203c-9.599-1.874-16.165,3.25-19.246,12.16c-1.707,4.936-0.079,10.844,1.922,15.413
					c1.864,4.257,0.761,7.475-4.063,7.759C409.06,333.277,409.049,336.277,410.983,336.163L410.983,336.163z"/>
			</g>
		</g>
		<g>
			<path fill="#FFFFFF" d="M451.36,303.48c0,0,9.694,29.083,1.293,56.227l7.109,2.585l-36.515,2.585c0,0,6.786-42.978,5.493-55.904
				c0,0-6.738-0.032-6.414,8.046s12.933,20.988-9.242,26.045"/>
			<g>
				<path d="M449.913,303.879c5.755,17.495,6.49,37.797,1.293,55.43c-0.245,0.831,0.291,1.57,1.048,1.845
					c2.37,0.862,4.739,1.723,7.109,2.585c0.133-0.982,0.266-1.964,0.399-2.946c-12.172,0.862-24.344,1.723-36.515,2.585
					c0.482,0.633,0.964,1.266,1.446,1.899c1.172-7.443,2.198-14.91,3.145-22.385c1.4-11.046,3.379-22.759,2.402-33.918
					c-0.07-0.8-0.629-1.519-1.5-1.5c-7.071,0.151-8.824,7.576-7.23,13.264c1.016,3.625,2.83,7.011,3.158,10.812
					c0.567,6.581-6.924,8.821-11.983,10.07c-1.878,0.463-1.081,3.357,0.798,2.893c7.873-1.943,15.254-5.711,13.961-14.865
					c-0.649-4.596-8.485-18.965,1.297-19.174c-0.5-0.5-1-1-1.5-1.5c0.914,10.436-0.868,21.333-2.123,31.671
					c-0.967,7.961-2.069,15.912-3.317,23.834c-0.14,0.891,0.384,1.974,1.446,1.899c12.172-0.862,24.344-1.723,36.515-2.585
					c1.72-0.122,2.003-2.363,0.399-2.946c-2.37-0.862-4.739-1.723-7.109-2.585c0.349,0.615,0.698,1.23,1.048,1.845
					c5.343-18.123,4.623-39.043-1.293-57.025C452.204,301.252,449.307,302.036,449.913,303.879L449.913,303.879z"/>
			</g>
		</g>
		<g>
			<line fill="#FFFFFF" x1="441.665" y1="337.41" x2="439.08" y2="363.262"/>
			<g>
				<path d="M440.165,337.41c-0.862,8.617-1.723,17.234-2.585,25.852c-0.192,1.925,2.809,1.906,3,0
					c0.862-8.617,1.723-17.234,2.585-25.852C443.358,335.485,440.356,335.504,440.165,337.41L440.165,337.41z"/>
			</g>
		</g>
		<g>
			<line fill="#FFFFFF" x1="459.761" y1="327.716" x2="455.884" y2="332.563"/>
			<g>
				<path d="M458.701,326.655c-1.293,1.616-2.585,3.231-3.878,4.847c-0.51,0.638-0.626,1.496,0,2.121c0.53,0.53,1.61,0.639,2.121,0
					c1.293-1.616,2.585-3.231,3.878-4.847c0.51-0.638,0.626-1.496,0-2.121C460.292,326.125,459.212,326.016,458.701,326.655
					L458.701,326.655z"/>
			</g>
		</g>
		<g>
			<g>
				<path d="M452.865,313.177c1.14,0.724,2.137,1.661,3.025,2.672c2.237,2.545,1.538,5.083-1.086,7.017
					c-1.54,1.134-0.046,3.74,1.514,2.59c3.315-2.442,5.034-5.67,3.165-9.61c-1.021-2.152-3.118-3.999-5.104-5.26
					C452.74,309.547,451.236,312.144,452.865,313.177L452.865,313.177z"/>
			</g>
		</g>
		<g>
			<g>
				<path d="M452.754,292.66c-2.168-1.537-5.537-1.284-8.043-1.198c-2.344,0.08-4.694,0.329-7.014,0.668
					c-1.908,0.278-1.094,3.169,0.798,2.893c1.667-0.243,3.351-0.387,5.031-0.499c2.239-0.15,5.766-0.654,7.714,0.727
					C452.822,296.372,454.318,293.769,452.754,292.66L452.754,292.66z"/>
			</g>
		</g>
		<g>
			<ellipse fill="#FFFFFF" cx="445.305" cy="283.709" rx="0.102" ry="0.137"/>
			<g>
				<path d="M443.961,283.31c-0.01,0.032-0.02,0.064-0.03,0.097c0.23-0.299,0.46-0.598,0.689-0.896
					c-0.024,0.013-0.048,0.027-0.072,0.04c0.505,0,1.009,0,1.514,0c-0.024-0.013-0.048-0.027-0.072-0.04
					c0.23,0.299,0.46,0.598,0.689,0.896c-0.01-0.032-0.02-0.064-0.03-0.097c0,0.266,0,0.532,0,0.798
					c0.01-0.032,0.02-0.064,0.03-0.097c-0.23,0.299-0.46,0.598-0.689,0.896c0.024-0.013,0.048-0.027,0.072-0.04
					c-0.505,0-1.009,0-1.514,0c0.024,0.013,0.048,0.027,0.072,0.04c-0.23-0.299-0.46-0.598-0.689-0.896
					c0.01,0.032,0.02,0.064,0.03,0.097c0.242,0.78,1.038,1.27,1.845,1.048c0.769-0.211,1.29-1.064,1.048-1.845
					c-0.217-0.697-0.784-1.238-1.549-1.238c-0.881,0-1.602,0.767-1.602,1.637c0,0.729,0.501,1.39,1.204,1.583
					c0.898,0.247,1.69-0.356,1.948-1.184c0.243-0.781-0.279-1.634-1.048-1.845C444.998,282.04,444.203,282.53,443.961,283.31z"/>
			</g>
		</g>
	</g>
	<g>
		<g>
			<path d="M411.798,340.489c2.598-0.217,5.232-1.879,7.437-3.102c1.692-0.938,0.179-3.529-1.514-2.59
				c-1.567,0.868-3.159,1.721-4.844,2.339c-0.34,0.125-0.686,0.232-1.037,0.322c-0.244,0.062-0.627,0.08-0.042,0.031
				C409.884,337.649,409.869,340.65,411.798,340.489L411.798,340.489z"/>
		</g>
	</g>
</g>
<g>
	<g>
		<g>
			<path fill="#FFFFFF" d="M345.019,288.645c0,0,9.662-0.42,5.881-8.822c-1.875-4.167-4.387-10.72-1.68-17.224
				s7.901-11.439,16.787-9.339c0,0-5.871-11.349-4.847-18.742c0.632-4.562,6.472-9.389,13.249-7.755
				c4.098,0.988,9.371,3.555,15.834,10.987l-3.231,1.616l-0.646,12.603c0,0,11.528,5.117,14.218,13.572
				c2.262,7.109,2.372,11.994-6.786,23.266"/>
			<g>
				<path d="M345.019,290.145c4.226-0.249,8.088-2.496,8.253-7.054c0.077-2.111-1.216-4.288-1.976-6.161
					c-1.597-3.936-2.144-7.981-1.243-12.158c1.607-7.446,8.349-11.471,15.555-10.064c1.31,0.256,2.314-0.988,1.694-2.203
					c-2.718-5.329-5.816-12.591-4.46-18.641c1.363-6.079,9.13-6.504,13.767-4.845c5.048,1.806,9.08,5.902,12.572,9.793
					c0.101-0.785,0.202-1.571,0.304-2.356c-1.077,0.539-2.154,1.077-3.231,1.616c-0.481,0.241-0.717,0.787-0.743,1.295
					c-0.215,4.201-0.431,8.402-0.646,12.603c-0.025,0.479,0.294,1.091,0.743,1.295c5.093,2.31,9.922,5.93,12.743,10.812
					c4.94,8.553-0.256,16.937-5.614,23.671c-1.191,1.497,0.917,3.635,2.121,2.121c4.177-5.249,8.466-10.948,8.502-17.939
					c0.032-6.375-3.391-11.983-8.06-16.028c-2.012-1.743-4.298-3.184-6.63-4.455c-0.484-0.264-0.979-0.507-1.478-0.74
					c0.478,1.306,0.709,1.598,0.693,0.874c0.03-0.59,0.06-1.18,0.091-1.769c0.142-2.762,0.283-5.523,0.425-8.285
					c0.022-0.439,0.045-0.877,0.067-1.316c0.074-1.443,0.197,0.003-0.46,0.332c0.997-0.499,1.995-0.997,2.992-1.496
					c0.908-0.454,0.911-1.679,0.304-2.356c-6.986-7.784-18.459-16.564-28.407-8.23c-7.24,6.065-1.598,18.868,1.815,25.559
					c0.565-0.734,1.129-1.469,1.694-2.203c-9.599-1.874-16.165,3.25-19.246,12.16c-1.707,4.936-0.079,10.844,1.922,15.413
					c1.864,4.257,0.761,7.475-4.063,7.759C343.097,287.258,343.086,290.259,345.019,290.145L345.019,290.145z"/>
			</g>
		</g>
		<g>
			<path fill="#FFFFFF" d="M385.396,257.462c0,0,9.694,29.083,1.293,56.227l7.109,2.585l-36.515,2.585
				c0,0,6.786-42.978,5.493-55.904c0,0-6.738-0.032-6.414,8.046c0.323,8.079,12.933,20.988-9.242,26.045"/>
			<g>
				<path d="M383.95,257.86c5.755,17.495,6.49,37.797,1.293,55.43c-0.245,0.831,0.291,1.57,1.048,1.845
					c2.37,0.862,4.739,1.723,7.109,2.585c0.133-0.982,0.266-1.964,0.399-2.946c-12.172,0.862-24.344,1.723-36.515,2.585
					c0.482,0.633,0.964,1.266,1.446,1.899c1.172-7.443,2.198-14.91,3.145-22.385c1.4-11.046,3.379-22.759,2.402-33.918
					c-0.07-0.8-0.629-1.519-1.5-1.5c-7.071,0.151-8.824,7.576-7.23,13.264c1.016,3.625,2.83,7.011,3.158,10.812
					c0.567,6.581-6.924,8.821-11.983,10.07c-1.878,0.463-1.081,3.356,0.798,2.893c7.873-1.943,15.254-5.712,13.961-14.865
					c-0.649-4.596-8.485-18.965,1.297-19.173c-0.5-0.5-1-1-1.5-1.5c0.914,10.436-0.868,21.333-2.123,31.671
					c-0.967,7.961-2.069,15.912-3.317,23.834c-0.14,0.891,0.384,1.974,1.446,1.899c12.172-0.862,24.344-1.723,36.515-2.585
					c1.72-0.122,2.003-2.363,0.399-2.946c-2.37-0.862-4.739-1.723-7.109-2.585c0.349,0.615,0.698,1.23,1.048,1.845
					c5.343-18.123,4.623-39.043-1.293-57.025C386.241,255.234,383.343,256.017,383.95,257.86L383.95,257.86z"/>
			</g>
		</g>
		<g>
			<line fill="#FFFFFF" x1="375.702" y1="291.392" x2="373.117" y2="317.243"/>
			<g>
				<path d="M374.202,291.392c-0.862,8.617-1.723,17.234-2.585,25.852c-0.192,1.925,2.809,1.906,3,0
					c0.862-8.617,1.723-17.234,2.585-25.852C377.394,289.467,374.392,289.486,374.202,291.392L374.202,291.392z"/>
			</g>
		</g>
		<g>
			<line fill="#FFFFFF" x1="393.798" y1="281.698" x2="389.92" y2="286.545"/>
			<g>
				<path d="M392.737,280.637c-1.293,1.616-2.585,3.231-3.878,4.847c-0.51,0.638-0.626,1.496,0,2.121c0.53,0.53,1.61,0.639,2.121,0
					c1.293-1.616,2.585-3.231,3.878-4.847c0.51-0.638,0.626-1.496,0-2.121C394.329,280.107,393.249,279.997,392.737,280.637
					L392.737,280.637z"/>
			</g>
		</g>
		<g>
			<g>
				<path d="M386.901,267.159c1.14,0.724,2.137,1.661,3.025,2.672c2.237,2.545,1.538,5.083-1.086,7.017
					c-1.54,1.134-0.046,3.74,1.514,2.59c3.315-2.442,5.034-5.67,3.165-9.61c-1.021-2.152-3.118-3.999-5.104-5.26
					C386.777,263.528,385.273,266.125,386.901,267.159L386.901,267.159z"/>
			</g>
		</g>
		<g>
			<g>
				<path d="M386.79,246.642c-2.168-1.537-5.537-1.284-8.043-1.198c-2.344,0.08-4.694,0.329-7.014,0.668
					c-1.909,0.278-1.094,3.169,0.798,2.893c1.667-0.243,3.351-0.387,5.031-0.499c2.239-0.15,5.766-0.654,7.714,0.727
					C386.858,250.354,388.355,247.751,386.79,246.642L386.79,246.642z"/>
			</g>
		</g>
		<g>
			<ellipse fill="#FFFFFF" cx="379.341" cy="237.691" rx="0.102" ry="0.137"/>
			<g>
				<path d="M377.997,237.292c-0.01,0.032-0.02,0.064-0.03,0.097c0.23-0.299,0.46-0.598,0.689-0.896
					c-0.024,0.013-0.048,0.027-0.072,0.04c0.505,0,1.009,0,1.514,0c-0.024-0.013-0.048-0.027-0.072-0.04
					c0.23,0.299,0.46,0.598,0.689,0.896c-0.01-0.032-0.02-0.064-0.03-0.097c0,0.266,0,0.532,0,0.798
					c0.01-0.032,0.02-0.064,0.03-0.097c-0.23,0.299-0.46,0.598-0.689,0.896c0.024-0.013,0.048-0.027,0.072-0.04
					c-0.505,0-1.009,0-1.514,0c0.024,0.013,0.048,0.027,0.072,0.04c-0.23-0.299-0.46-0.598-0.689-0.896
					c0.01,0.032,0.02,0.064,0.03,0.097c0.242,0.78,1.038,1.27,1.845,1.048c0.769-0.211,1.29-1.064,1.048-1.845
					c-0.217-0.697-0.784-1.238-1.549-1.238c-0.881,0-1.602,0.767-1.602,1.637c0,0.729,0.501,1.39,1.204,1.583
					c0.898,0.247,1.69-0.356,1.948-1.184c0.243-0.781-0.279-1.634-1.048-1.845C379.035,236.022,378.24,236.512,377.997,237.292z"/>
			</g>
		</g>
	</g>
	<g>
		<g>
			<path d="M345.834,294.471c2.598-0.217,5.232-1.879,7.437-3.102c1.692-0.938,0.179-3.529-1.514-2.59
				c-1.567,0.868-3.159,1.721-4.844,2.339c-0.34,0.125-0.686,0.232-1.037,0.322c-0.244,0.062-0.627,0.08-0.042,0.031
				C343.921,291.631,343.905,294.632,345.834,294.471L345.834,294.471z"/>
		</g>
	</g>
</g>
<g>
	<g>
		<g>
			<path fill="#FFFFFF" d="M289.984,388.192c0,0,9.662-0.42,5.881-8.822c-1.875-4.167-4.387-10.72-1.68-17.224
				c2.706-6.503,7.901-11.439,16.787-9.339c0,0-5.871-11.349-4.847-18.742c0.632-4.562,6.472-9.389,13.249-7.755
				c4.098,0.988,9.371,3.555,15.834,10.987l-3.231,1.616l-0.646,12.603c0,0,11.528,5.117,14.218,13.572
				c2.262,7.109,2.372,11.994-6.786,23.266"/>
			<g>
				<path d="M289.984,389.692c4.226-0.249,8.088-2.496,8.253-7.054c0.077-2.111-1.216-4.288-1.976-6.161
					c-1.597-3.936-2.144-7.981-1.243-12.158c1.607-7.446,8.349-11.471,15.555-10.064c1.31,0.256,2.314-0.988,1.694-2.203
					c-2.718-5.329-5.816-12.591-4.46-18.641c1.363-6.079,9.13-6.504,13.767-4.845c5.048,1.806,9.08,5.902,12.572,9.793
					c0.101-0.785,0.202-1.571,0.304-2.356c-1.077,0.539-2.154,1.077-3.231,1.616c-0.481,0.241-0.717,0.787-0.743,1.295
					c-0.215,4.201-0.431,8.402-0.646,12.603c-0.025,0.479,0.294,1.091,0.743,1.295c5.093,2.31,9.922,5.93,12.743,10.812
					c4.94,8.553-0.256,16.937-5.614,23.671c-1.191,1.497,0.917,3.635,2.121,2.121c4.177-5.249,8.466-10.948,8.502-17.939
					c0.032-6.375-3.391-11.983-8.06-16.028c-2.012-1.743-4.298-3.184-6.63-4.455c-0.484-0.264-0.979-0.507-1.478-0.74
					c0.478,1.306,0.709,1.598,0.693,0.874c0.03-0.59,0.06-1.18,0.091-1.769c0.142-2.762,0.283-5.523,0.425-8.285
					c0.022-0.439,0.045-0.877,0.067-1.316c0.074-1.443,0.197,0.003-0.46,0.332c0.997-0.499,1.995-0.997,2.992-1.496
					c0.908-0.454,0.911-1.679,0.304-2.356c-6.986-7.784-18.459-16.564-28.407-8.23c-7.24,6.065-1.598,18.868,1.815,25.559
					c0.565-0.734,1.129-1.469,1.694-2.203c-9.599-1.874-16.165,3.25-19.246,12.16c-1.707,4.936-0.079,10.844,1.922,15.413
					c1.864,4.257,0.76,7.475-4.063,7.759C288.062,386.805,288.051,389.805,289.984,389.692L289.984,389.692z"/>
			</g>
		</g>
		<g>
			<path fill="#FFFFFF" d="M330.361,357.008c0,0,9.694,29.083,1.293,56.227l7.109,2.585l-36.515,2.585
				c0,0,6.786-42.978,5.493-55.904c0,0-6.738-0.032-6.414,8.046c0.323,8.079,12.933,20.988-9.242,26.045"/>
			<g>
				<path d="M328.915,357.407c5.755,17.495,6.49,37.797,1.293,55.43c-0.245,0.831,0.291,1.57,1.048,1.845
					c2.37,0.862,4.739,1.723,7.109,2.585c0.133-0.982,0.266-1.964,0.399-2.946c-12.172,0.862-24.344,1.723-36.515,2.585
					c0.482,0.633,0.964,1.266,1.446,1.899c1.172-7.443,2.198-14.91,3.145-22.385c1.4-11.046,3.379-22.759,2.402-33.918
					c-0.07-0.8-0.629-1.519-1.5-1.5c-7.071,0.151-8.824,7.576-7.23,13.264c1.016,3.625,2.83,7.011,3.158,10.812
					c0.567,6.581-6.924,8.821-11.983,10.07c-1.878,0.463-1.081,3.357,0.798,2.893c7.873-1.943,15.254-5.712,13.961-14.865
					c-0.649-4.596-8.485-18.965,1.297-19.174c-0.5-0.5-1-1-1.5-1.5c0.914,10.436-0.868,21.333-2.123,31.671
					c-0.967,7.961-2.069,15.912-3.317,23.834c-0.14,0.891,0.384,1.974,1.446,1.899c12.172-0.862,24.344-1.723,36.515-2.585
					c1.72-0.122,2.003-2.363,0.399-2.946c-2.37-0.862-4.739-1.723-7.109-2.585c0.349,0.615,0.698,1.23,1.048,1.845
					c5.343-18.123,4.623-39.043-1.293-57.025C331.206,354.78,328.308,355.564,328.915,357.407L328.915,357.407z"/>
			</g>
		</g>
		<g>
			<line fill="#FFFFFF" x1="320.667" y1="390.938" x2="318.082" y2="416.79"/>
			<g>
				<path d="M319.167,390.938c-0.862,8.617-1.723,17.234-2.585,25.852c-0.192,1.925,2.809,1.906,3,0
					c0.862-8.617,1.723-17.234,2.585-25.852C322.359,389.014,319.357,389.032,319.167,390.938L319.167,390.938z"/>
			</g>
		</g>
		<g>
			<line fill="#FFFFFF" x1="338.763" y1="381.244" x2="334.885" y2="386.091"/>
			<g>
				<path d="M337.702,380.183c-1.293,1.616-2.585,3.231-3.878,4.847c-0.51,0.638-0.626,1.496,0,2.121c0.53,0.53,1.61,0.639,2.121,0
					c1.293-1.616,2.585-3.231,3.878-4.847c0.51-0.638,0.626-1.496,0-2.121C339.293,379.653,338.214,379.544,337.702,380.183
					L337.702,380.183z"/>
			</g>
		</g>
		<g>
			<g>
				<path d="M331.866,366.705c1.14,0.724,2.137,1.661,3.025,2.672c2.237,2.545,1.538,5.083-1.086,7.017
					c-1.54,1.134-0.046,3.74,1.514,2.59c3.315-2.442,5.034-5.67,3.165-9.61c-1.021-2.152-3.118-3.999-5.104-5.26
					C331.742,363.075,330.238,365.672,331.866,366.705L331.866,366.705z"/>
			</g>
		</g>
		<g>
			<g>
				<path d="M331.755,346.188c-2.168-1.537-5.537-1.284-8.043-1.198c-2.344,0.08-4.694,0.329-7.014,0.668
					c-1.908,0.278-1.094,3.169,0.798,2.893c1.667-0.243,3.351-0.387,5.031-0.499c2.239-0.15,5.766-0.654,7.714,0.727
					C331.823,349.9,333.32,347.297,331.755,346.188L331.755,346.188z"/>
			</g>
		</g>
		<g>
			<ellipse fill="#FFFFFF" cx="324.306" cy="337.237" rx="0.102" ry="0.137"/>
			<g>
				<path d="M322.962,336.838c-0.01,0.032-0.02,0.064-0.03,0.097c0.23-0.299,0.46-0.598,0.689-0.896
					c-0.024,0.013-0.048,0.027-0.072,0.04c0.505,0,1.009,0,1.514,0c-0.024-0.013-0.048-0.027-0.072-0.04
					c0.23,0.299,0.46,0.598,0.689,0.896c-0.01-0.032-0.02-0.064-0.03-0.097c0,0.266,0,0.532,0,0.798
					c0.01-0.032,0.02-0.064,0.03-0.097c-0.23,0.299-0.46,0.598-0.689,0.896c0.024-0.013,0.048-0.027,0.072-0.04
					c-0.505,0-1.009,0-1.514,0c0.024,0.013,0.048,0.027,0.072,0.04c-0.23-0.299-0.46-0.598-0.689-0.896
					c0.01,0.032,0.02,0.064,0.03,0.097c0.242,0.78,1.038,1.27,1.845,1.048c0.769-0.211,1.29-1.064,1.048-1.845
					c-0.217-0.697-0.784-1.238-1.549-1.238c-0.881,0-1.602,0.767-1.602,1.637c0,0.729,0.501,1.39,1.204,1.583
					c0.898,0.247,1.69-0.356,1.948-1.184c0.243-0.781-0.279-1.634-1.048-1.845C324,335.568,323.205,336.058,322.962,336.838z"/>
			</g>
		</g>
	</g>
	<g>
		<g>
			<path d="M290.799,394.017c2.598-0.217,5.232-1.879,7.437-3.102c1.692-0.938,0.179-3.529-1.514-2.59
				c-1.567,0.868-3.159,1.721-4.844,2.339c-0.34,0.125-0.686,0.232-1.037,0.322c-0.244,0.062-0.627,0.08-0.042,0.031
				C288.886,391.177,288.87,394.178,290.799,394.017L290.799,394.017z"/>
		</g>
	</g>
</g>
<g>
	<g>
		<g>
			<path fill="#FFFFFF" d="M308.092,491.359c0,0,9.662-0.42,5.881-8.822c-1.875-4.167-4.387-10.72-1.68-17.224
				c2.706-6.503,7.901-11.439,16.787-9.339c0,0-5.871-11.349-4.847-18.742c0.632-4.562,6.472-9.389,13.249-7.755
				c4.098,0.988,9.371,3.555,15.834,10.987l-3.231,1.616l-0.646,12.603c0,0,11.528,5.117,14.218,13.572
				c2.262,7.109,2.372,11.994-6.786,23.266"/>
			<g>
				<path d="M308.092,492.859c4.226-0.249,8.088-2.496,8.253-7.054c0.077-2.111-1.216-4.288-1.976-6.161
					c-1.597-3.936-2.144-7.981-1.243-12.158c1.607-7.446,8.349-11.471,15.555-10.064c1.31,0.256,2.314-0.988,1.694-2.203
					c-2.718-5.329-5.816-12.591-4.46-18.641c1.363-6.079,9.13-6.504,13.767-4.845c5.048,1.806,9.08,5.902,12.572,9.793
					c0.101-0.785,0.202-1.571,0.304-2.356c-1.077,0.539-2.154,1.077-3.231,1.616c-0.481,0.241-0.717,0.787-0.743,1.295
					c-0.215,4.201-0.431,8.402-0.646,12.603c-0.025,0.479,0.294,1.091,0.743,1.295c5.093,2.31,9.922,5.93,12.743,10.812
					c4.94,8.553-0.256,16.937-5.614,23.671c-1.191,1.497,0.917,3.635,2.121,2.121c4.177-5.249,8.466-10.948,8.502-17.939
					c0.032-6.375-3.391-11.983-8.06-16.028c-2.012-1.743-4.298-3.184-6.63-4.455c-0.484-0.264-0.979-0.507-1.478-0.74
					c0.478,1.306,0.709,1.598,0.693,0.874c0.03-0.59,0.06-1.18,0.091-1.769c0.142-2.762,0.283-5.523,0.425-8.285
					c0.022-0.439,0.045-0.877,0.067-1.316c0.074-1.443,0.197,0.003-0.46,0.332c0.997-0.499,1.995-0.997,2.992-1.496
					c0.908-0.454,0.911-1.679,0.304-2.356c-6.986-7.784-18.459-16.564-28.407-8.23c-7.24,6.065-1.598,18.868,1.815,25.559
					c0.565-0.735,1.129-1.469,1.694-2.204c-9.599-1.874-16.165,3.25-19.246,12.16c-1.707,4.936-0.079,10.844,1.922,15.413
					c1.864,4.257,0.76,7.475-4.063,7.759C306.169,489.972,306.158,492.973,308.092,492.859L308.092,492.859z"/>
			</g>
		</g>
		<g>
			<path fill="#FFFFFF" d="M348.469,460.175c0,0,9.694,29.083,1.293,56.227l7.109,2.585l-36.515,2.585
				c0,0,6.786-42.978,5.493-55.904c0,0-6.738-0.032-6.414,8.046s12.933,20.988-9.242,26.045"/>
			<g>
				<path d="M347.022,460.574c5.755,17.495,6.49,37.797,1.293,55.43c-0.245,0.831,0.291,1.57,1.048,1.845
					c2.37,0.862,4.739,1.723,7.109,2.585c0.133-0.982,0.266-1.964,0.399-2.946c-12.172,0.862-24.344,1.723-36.515,2.585
					c0.482,0.633,0.964,1.266,1.446,1.899c1.172-7.443,2.198-14.91,3.145-22.385c1.4-11.046,3.379-22.759,2.402-33.918
					c-0.07-0.8-0.629-1.519-1.5-1.5c-7.071,0.151-8.824,7.576-7.23,13.264c1.016,3.625,2.83,7.011,3.158,10.812
					c0.567,6.581-6.924,8.821-11.983,10.07c-1.878,0.463-1.081,3.356,0.798,2.893c7.873-1.943,15.254-5.712,13.961-14.865
					c-0.649-4.596-8.485-18.965,1.297-19.173c-0.5-0.5-1-1-1.5-1.5c0.914,10.436-0.868,21.333-2.123,31.671
					c-0.967,7.961-2.069,15.912-3.317,23.834c-0.14,0.891,0.384,1.974,1.446,1.899c12.172-0.862,24.344-1.723,36.515-2.585
					c1.72-0.122,2.003-2.363,0.399-2.946c-2.37-0.862-4.739-1.723-7.109-2.585c0.349,0.615,0.698,1.23,1.048,1.845
					c5.343-18.123,4.623-39.043-1.293-57.025C349.313,457.948,346.416,458.731,347.022,460.574L347.022,460.574z"/>
			</g>
		</g>
		<g>
			<line fill="#FFFFFF" x1="338.774" y1="494.105" x2="336.189" y2="519.957"/>
			<g>
				<path d="M337.274,494.105c-0.862,8.617-1.723,17.234-2.585,25.852c-0.192,1.925,2.809,1.906,3,0
					c0.862-8.617,1.723-17.234,2.585-25.852C340.467,492.181,337.465,492.199,337.274,494.105L337.274,494.105z"/>
			</g>
		</g>
		<g>
			<line fill="#FFFFFF" x1="356.87" y1="484.411" x2="352.993" y2="489.258"/>
			<g>
				<path d="M355.81,483.35c-1.293,1.616-2.585,3.231-3.878,4.847c-0.51,0.638-0.626,1.496,0,2.121c0.53,0.53,1.61,0.639,2.121,0
					c1.293-1.616,2.585-3.231,3.878-4.847c0.51-0.638,0.626-1.496,0-2.121C357.401,482.82,356.321,482.711,355.81,483.35
					L355.81,483.35z"/>
			</g>
		</g>
		<g>
			<g>
				<path d="M349.974,469.872c1.14,0.724,2.137,1.661,3.025,2.672c2.237,2.545,1.538,5.083-1.086,7.017
					c-1.54,1.134-0.046,3.74,1.514,2.59c3.315-2.442,5.034-5.67,3.165-9.61c-1.021-2.152-3.118-3.999-5.104-5.26
					C349.849,466.242,348.345,468.839,349.974,469.872L349.974,469.872z"/>
			</g>
		</g>
		<g>
			<g>
				<path d="M349.863,449.355c-2.168-1.537-5.537-1.284-8.043-1.198c-2.344,0.08-4.694,0.329-7.014,0.668
					c-1.908,0.278-1.094,3.169,0.798,2.893c1.667-0.243,3.351-0.387,5.031-0.499c2.239-0.15,5.766-0.654,7.714,0.727
					C349.931,453.067,351.427,450.464,349.863,449.355L349.863,449.355z"/>
			</g>
		</g>
		<g>
			<ellipse fill="#FFFFFF" cx="342.414" cy="440.404" rx="0.102" ry="0.137"/>
			<g>
				<path d="M341.07,440.005c-0.01,0.032-0.02,0.064-0.03,0.097c0.23-0.299,0.46-0.598,0.689-0.896
					c-0.024,0.013-0.048,0.027-0.072,0.04c0.505,0,1.009,0,1.514,0c-0.024-0.013-0.048-0.027-0.072-0.04
					c0.23,0.299,0.46,0.598,0.689,0.896c-0.01-0.032-0.02-0.064-0.03-0.097c0,0.266,0,0.532,0,0.798
					c0.01-0.032,0.02-0.064,0.03-0.097c-0.23,0.299-0.46,0.598-0.689,0.896c0.024-0.013,0.048-0.027,0.072-0.04
					c-0.505,0-1.009,0-1.514,0c0.024,0.013,0.048,0.027,0.072,0.04c-0.23-0.299-0.46-0.598-0.689-0.896
					c0.01,0.032,0.02,0.064,0.03,0.097c0.242,0.78,1.038,1.27,1.845,1.048c0.769-0.211,1.29-1.064,1.048-1.845
					c-0.217-0.697-0.784-1.238-1.549-1.238c-0.881,0-1.602,0.767-1.602,1.637c0,0.729,0.501,1.39,1.204,1.583
					c0.898,0.247,1.69-0.356,1.948-1.184c0.243-0.781-0.279-1.634-1.048-1.845C342.107,438.736,341.312,439.225,341.07,440.005z"/>
			</g>
		</g>
	</g>
	<g>
		<g>
			<path d="M308.907,497.184c2.598-0.217,5.232-1.879,7.437-3.102c1.692-0.938,0.179-3.529-1.514-2.59
				c-1.567,0.868-3.159,1.721-4.844,2.339c-0.34,0.125-0.686,0.232-1.037,0.322c-0.244,0.062-0.627,0.08-0.042,0.031
				C306.993,494.344,306.978,497.345,308.907,497.184L308.907,497.184z"/>
		</g>
	</g>
</g>
<g>
	<g>
		<g>
			<path fill="#FFFFFF" d="M382.525,511.103c0,0,9.662-0.42,5.881-8.822c-1.875-4.167-4.387-10.72-1.68-17.224
				c2.706-6.503,7.901-11.439,16.787-9.339c0,0-5.871-11.349-4.847-18.742c0.632-4.562,6.472-9.389,13.249-7.755
				c4.098,0.988,9.371,3.555,15.834,10.987l-3.231,1.616l-0.646,12.603c0,0,11.528,5.117,14.218,13.572
				c2.262,7.109,2.372,11.994-6.786,23.266"/>
			<g>
				<path d="M382.525,512.603c4.226-0.249,8.088-2.496,8.253-7.054c0.077-2.111-1.216-4.288-1.976-6.161
					c-1.597-3.936-2.144-7.981-1.243-12.158c1.607-7.446,8.349-11.471,15.555-10.064c1.31,0.256,2.314-0.988,1.694-2.203
					c-2.718-5.329-5.816-12.591-4.46-18.641c1.363-6.079,9.13-6.504,13.767-4.845c5.048,1.806,9.08,5.902,12.572,9.793
					c0.101-0.785,0.202-1.571,0.304-2.356c-1.077,0.539-2.154,1.077-3.231,1.616c-0.481,0.241-0.717,0.787-0.743,1.295
					c-0.215,4.201-0.431,8.402-0.646,12.603c-0.025,0.479,0.294,1.091,0.743,1.295c5.093,2.31,9.922,5.93,12.743,10.812
					c4.94,8.553-0.256,16.937-5.614,23.671c-1.191,1.497,0.917,3.635,2.121,2.121c4.177-5.249,8.466-10.948,8.502-17.939
					c0.032-6.375-3.391-11.983-8.06-16.028c-2.012-1.743-4.298-3.184-6.63-4.455c-0.484-0.264-0.979-0.507-1.478-0.74
					c0.478,1.306,0.709,1.598,0.693,0.874c0.03-0.59,0.06-1.18,0.091-1.769c0.142-2.762,0.283-5.523,0.425-8.285
					c0.022-0.439,0.045-0.877,0.067-1.316c0.074-1.443,0.197,0.003-0.46,0.332c0.997-0.499,1.995-0.997,2.992-1.496
					c0.908-0.454,0.911-1.679,0.304-2.356c-6.986-7.784-18.459-16.564-28.407-8.23c-7.24,6.065-1.598,18.868,1.815,25.559
					c0.565-0.734,1.129-1.469,1.694-2.203c-9.599-1.874-16.165,3.25-19.246,12.16c-1.707,4.936-0.079,10.844,1.922,15.413
					c1.864,4.257,0.761,7.475-4.063,7.759C380.602,509.716,380.591,512.716,382.525,512.603L382.525,512.603z"/>
			</g>
		</g>
		<g>
			<path fill="#FFFFFF" d="M422.902,479.919c0,0,9.694,29.083,1.293,56.227l7.109,2.585l-36.515,2.585
				c0,0,6.786-42.978,5.493-55.904c0,0-6.738-0.032-6.414,8.046c0.323,8.079,12.933,20.988-9.242,26.045"/>
			<g>
				<path d="M421.455,480.318c5.755,17.495,6.49,37.797,1.293,55.43c-0.245,0.831,0.291,1.57,1.048,1.845
					c2.37,0.862,4.739,1.723,7.109,2.585c0.133-0.982,0.266-1.964,0.399-2.946c-12.172,0.862-24.344,1.723-36.515,2.585
					c0.482,0.633,0.964,1.266,1.446,1.899c1.172-7.443,2.198-14.91,3.145-22.385c1.4-11.046,3.379-22.759,2.402-33.918
					c-0.07-0.8-0.629-1.519-1.5-1.5c-7.071,0.151-8.824,7.576-7.23,13.264c1.016,3.625,2.83,7.011,3.158,10.812
					c0.567,6.581-6.924,8.821-11.983,10.07c-1.878,0.463-1.081,3.357,0.798,2.893c7.873-1.943,15.254-5.711,13.961-14.865
					c-0.649-4.596-8.485-18.965,1.297-19.174c-0.5-0.5-1-1-1.5-1.5c0.914,10.436-0.868,21.333-2.123,31.671
					c-0.967,7.961-2.069,15.911-3.317,23.834c-0.14,0.891,0.384,1.974,1.446,1.899c12.172-0.862,24.344-1.723,36.515-2.585
					c1.72-0.122,2.003-2.363,0.399-2.946c-2.37-0.862-4.739-1.723-7.109-2.585c0.349,0.615,0.698,1.23,1.048,1.845
					c5.343-18.123,4.623-39.043-1.293-57.025C423.746,477.692,420.849,478.475,421.455,480.318L421.455,480.318z"/>
			</g>
		</g>
		<g>
			<line fill="#FFFFFF" x1="413.207" y1="513.849" x2="410.622" y2="539.701"/>
			<g>
				<path d="M411.707,513.849c-0.862,8.617-1.723,17.234-2.585,25.852c-0.192,1.925,2.809,1.906,3,0
					c0.862-8.617,1.723-17.234,2.585-25.852C414.9,511.925,411.898,511.943,411.707,513.849L411.707,513.849z"/>
			</g>
		</g>
		<g>
			<line fill="#FFFFFF" x1="431.303" y1="504.155" x2="427.426" y2="509.002"/>
			<g>
				<path d="M430.243,503.094c-1.293,1.616-2.585,3.231-3.878,4.847c-0.51,0.638-0.626,1.496,0,2.121c0.53,0.53,1.61,0.639,2.121,0
					c1.293-1.616,2.585-3.231,3.878-4.847c0.51-0.638,0.626-1.496,0-2.121C431.834,502.564,430.754,502.455,430.243,503.094
					L430.243,503.094z"/>
			</g>
		</g>
		<g>
			<g>
				<path d="M424.407,489.616c1.14,0.724,2.137,1.661,3.025,2.672c2.237,2.545,1.538,5.083-1.086,7.017
					c-1.54,1.134-0.046,3.74,1.514,2.59c3.315-2.442,5.034-5.67,3.165-9.61c-1.021-2.152-3.118-3.999-5.104-5.26
					C424.282,485.986,422.779,488.583,424.407,489.616L424.407,489.616z"/>
			</g>
		</g>
		<g>
			<g>
				<path d="M424.296,469.099c-2.168-1.537-5.537-1.284-8.043-1.198c-2.344,0.08-4.694,0.329-7.014,0.668
					c-1.909,0.278-1.094,3.169,0.798,2.893c1.667-0.243,3.351-0.387,5.031-0.499c2.239-0.15,5.766-0.654,7.714,0.727
					C424.364,472.811,425.86,470.208,424.296,469.099L424.296,469.099z"/>
			</g>
		</g>
		<g>
			<ellipse fill="#FFFFFF" cx="416.847" cy="460.148" rx="0.102" ry="0.137"/>
			<g>
				<path d="M415.503,459.749c-0.01,0.032-0.02,0.064-0.03,0.097c0.23-0.299,0.46-0.598,0.689-0.896
					c-0.024,0.013-0.048,0.027-0.072,0.04c0.505,0,1.009,0,1.514,0c-0.024-0.013-0.048-0.027-0.072-0.04
					c0.23,0.299,0.46,0.598,0.689,0.896c-0.01-0.032-0.02-0.064-0.03-0.097c0,0.266,0,0.532,0,0.798
					c0.01-0.032,0.02-0.064,0.03-0.097c-0.23,0.299-0.46,0.598-0.689,0.896c0.024-0.013,0.048-0.027,0.072-0.04
					c-0.505,0-1.009,0-1.514,0c0.024,0.013,0.048,0.027,0.072,0.04c-0.23-0.299-0.46-0.598-0.689-0.896
					c0.01,0.032,0.02,0.064,0.03,0.097c0.242,0.78,1.038,1.27,1.845,1.048c0.769-0.211,1.29-1.064,1.048-1.845
					c-0.217-0.697-0.784-1.238-1.549-1.238c-0.881,0-1.602,0.767-1.602,1.637c0,0.729,0.501,1.39,1.204,1.583
					c0.898,0.247,1.69-0.356,1.948-1.184c0.243-0.781-0.279-1.634-1.048-1.845C416.54,458.48,415.745,458.969,415.503,459.749z"/>
			</g>
		</g>
	</g>
	<g>
		<g>
			<path d="M383.34,516.928c2.598-0.217,5.232-1.879,7.437-3.102c1.692-0.938,0.179-3.529-1.514-2.59
				c-1.567,0.868-3.159,1.721-4.844,2.339c-0.34,0.125-0.686,0.232-1.037,0.322c-0.244,0.062-0.627,0.08-0.042,0.031
				C381.427,514.088,381.411,517.089,383.34,516.928L383.34,516.928z"/>
		</g>
	</g>
</g>
<g>
	<g>
		<g>
			<path fill="#FFFFFF" d="M228.852,444.227c0,0,9.662-0.42,5.881-8.822c-1.875-4.167-4.387-10.72-1.68-17.224
				c2.706-6.503,7.901-11.439,16.787-9.339c0,0-5.871-11.349-4.847-18.742c0.632-4.562,6.472-9.389,13.249-7.755
				c4.098,0.988,9.371,3.555,15.834,10.987l-3.231,1.616l-0.646,12.603c0,0,11.528,5.117,14.218,13.572
				c2.262,7.109,2.372,11.994-6.786,23.266"/>
			<g>
				<path d="M228.852,445.727c4.226-0.249,8.088-2.496,8.253-7.054c0.077-2.111-1.216-4.288-1.976-6.161
					c-1.597-3.936-2.144-7.981-1.243-12.158c1.607-7.446,8.349-11.471,15.555-10.064c1.31,0.256,2.314-0.988,1.694-2.203
					c-2.718-5.329-5.816-12.591-4.46-18.641c1.363-6.079,9.13-6.504,13.767-4.845c5.048,1.806,9.08,5.902,12.572,9.793
					c0.101-0.785,0.202-1.571,0.304-2.356c-1.077,0.539-2.154,1.077-3.231,1.616c-0.481,0.241-0.717,0.787-0.743,1.295
					c-0.215,4.201-0.431,8.402-0.646,12.603c-0.025,0.479,0.294,1.091,0.743,1.295c5.093,2.31,9.922,5.93,12.743,10.812
					c4.94,8.553-0.256,16.937-5.614,23.671c-1.191,1.497,0.917,3.635,2.121,2.121c4.177-5.249,8.466-10.948,8.502-17.939
					c0.032-6.375-3.391-11.983-8.06-16.028c-2.012-1.743-4.298-3.184-6.63-4.455c-0.484-0.264-0.979-0.507-1.478-0.74
					c0.478,1.306,0.709,1.598,0.693,0.874c0.03-0.59,0.06-1.18,0.091-1.769c0.142-2.762,0.283-5.523,0.425-8.285
					c0.022-0.439,0.045-0.877,0.067-1.316c0.074-1.443,0.197,0.003-0.46,0.332c0.997-0.499,1.995-0.997,2.992-1.496
					c0.908-0.454,0.911-1.679,0.304-2.356c-6.986-7.784-18.459-16.564-28.407-8.23c-7.24,6.065-1.598,18.868,1.815,25.559
					c0.565-0.734,1.129-1.469,1.694-2.203c-9.599-1.874-16.165,3.25-19.246,12.16c-1.707,4.936-0.079,10.844,1.922,15.413
					c1.864,4.257,0.761,7.475-4.063,7.759C226.93,442.84,226.918,445.84,228.852,445.727L228.852,445.727z"/>
			</g>
		</g>
		<g>
			<path fill="#FFFFFF" d="M269.229,413.043c0,0,9.694,29.083,1.293,56.227l7.109,2.585l-36.515,2.585
				c0,0,6.786-42.978,5.493-55.904c0,0-6.738-0.032-6.414,8.046s12.933,20.988-9.242,26.045"/>
			<g>
				<path d="M267.782,413.442c5.755,17.495,6.49,37.797,1.293,55.43c-0.245,0.831,0.291,1.57,1.048,1.845
					c2.37,0.862,4.739,1.723,7.109,2.585c0.133-0.982,0.266-1.964,0.399-2.946c-12.172,0.862-24.344,1.723-36.515,2.585
					c0.482,0.633,0.964,1.266,1.446,1.899c1.172-7.443,2.198-14.91,3.145-22.385c1.4-11.046,3.379-22.759,2.402-33.918
					c-0.07-0.8-0.629-1.519-1.5-1.5c-7.071,0.151-8.824,7.576-7.23,13.264c1.016,3.625,2.83,7.011,3.158,10.812
					c0.567,6.581-6.924,8.821-11.983,10.07c-1.878,0.463-1.081,3.357,0.798,2.893c7.873-1.943,15.254-5.712,13.961-14.865
					c-0.649-4.596-8.485-18.965,1.297-19.174c-0.5-0.5-1-1-1.5-1.5c0.914,10.436-0.868,21.333-2.123,31.671
					c-0.967,7.961-2.069,15.912-3.317,23.834c-0.14,0.891,0.384,1.974,1.446,1.899c12.172-0.862,24.344-1.723,36.515-2.585
					c1.72-0.122,2.003-2.363,0.399-2.946c-2.37-0.862-4.739-1.723-7.109-2.585c0.349,0.615,0.698,1.23,1.048,1.845
					c5.343-18.123,4.623-39.043-1.293-57.025C270.074,410.815,267.176,411.599,267.782,413.442L267.782,413.442z"/>
			</g>
		</g>
		<g>
			<line fill="#FFFFFF" x1="259.534" y1="446.973" x2="256.949" y2="472.825"/>
			<g>
				<path d="M258.034,446.973c-0.862,8.617-1.723,17.234-2.585,25.852c-0.192,1.925,2.809,1.906,3,0
					c0.862-8.617,1.723-17.234,2.585-25.852C261.227,445.049,258.225,445.067,258.034,446.973L258.034,446.973z"/>
			</g>
		</g>
		<g>
			<line fill="#FFFFFF" x1="277.631" y1="437.279" x2="273.753" y2="442.126"/>
			<g>
				<path d="M276.57,436.218c-1.293,1.616-2.585,3.231-3.878,4.847c-0.51,0.638-0.626,1.496,0,2.121c0.53,0.53,1.61,0.639,2.121,0
					c1.293-1.616,2.585-3.231,3.878-4.847c0.51-0.638,0.626-1.496,0-2.121C278.161,435.688,277.081,435.579,276.57,436.218
					L276.57,436.218z"/>
			</g>
		</g>
		<g>
			<g>
				<path d="M270.734,422.74c1.14,0.724,2.137,1.661,3.025,2.672c2.237,2.545,1.538,5.083-1.086,7.017
					c-1.54,1.134-0.046,3.74,1.514,2.59c3.315-2.442,5.034-5.67,3.165-9.61c-1.021-2.152-3.118-3.999-5.104-5.26
					C270.609,419.11,269.106,421.707,270.734,422.74L270.734,422.74z"/>
			</g>
		</g>
		<g>
			<g>
				<path d="M270.623,402.223c-2.168-1.537-5.537-1.284-8.043-1.198c-2.344,0.08-4.694,0.329-7.014,0.668
					c-1.908,0.278-1.094,3.169,0.798,2.893c1.667-0.243,3.351-0.387,5.031-0.499c2.239-0.15,5.766-0.654,7.714,0.727
					C270.691,405.935,272.187,403.332,270.623,402.223L270.623,402.223z"/>
			</g>
		</g>
		<g>
			<ellipse fill="#FFFFFF" cx="263.174" cy="393.272" rx="0.102" ry="0.137"/>
			<g>
				<path d="M261.83,392.873c-0.01,0.032-0.02,0.064-0.03,0.097c0.23-0.299,0.46-0.598,0.689-0.896
					c-0.024,0.013-0.048,0.027-0.072,0.04c0.505,0,1.009,0,1.514,0c-0.024-0.013-0.048-0.027-0.072-0.04
					c0.23,0.299,0.46,0.598,0.689,0.896c-0.01-0.032-0.02-0.064-0.03-0.097c0,0.266,0,0.532,0,0.798
					c0.01-0.032,0.02-0.064,0.03-0.097c-0.23,0.299-0.46,0.598-0.689,0.896c0.024-0.013,0.048-0.027,0.072-0.04
					c-0.505,0-1.009,0-1.514,0c0.024,0.013,0.048,0.027,0.072,0.04c-0.23-0.299-0.46-0.598-0.689-0.896
					c0.01,0.032,0.02,0.064,0.03,0.097c0.242,0.78,1.038,1.27,1.845,1.048c0.769-0.211,1.29-1.064,1.048-1.845
					c-0.217-0.697-0.784-1.238-1.549-1.238c-0.881,0-1.602,0.767-1.602,1.637c0,0.729,0.501,1.39,1.204,1.583
					c0.898,0.247,1.69-0.356,1.948-1.184c0.243-0.781-0.279-1.634-1.048-1.845C262.867,391.603,262.072,392.093,261.83,392.873z"/>
			</g>
		</g>
	</g>
	<g>
		<g>
			<path d="M229.667,450.052c2.598-0.217,5.232-1.879,7.437-3.102c1.692-0.938,0.179-3.529-1.514-2.59
				c-1.567,0.868-3.159,1.721-4.844,2.339c-0.34,0.125-0.686,0.232-1.037,0.322c-0.244,0.062-0.627,0.08-0.042,0.031
				C227.754,447.212,227.738,450.213,229.667,450.052L229.667,450.052z"/>
		</g>
	</g>
</g>
<g>
	<g>
		<g>
			<path fill="#FFFFFF" d="M238.812,314.743c0,0,9.662-0.42,5.881-8.822c-1.875-4.167-4.387-10.72-1.68-17.224
				c2.706-6.503,7.901-11.439,16.787-9.339c0,0-5.871-11.349-4.847-18.742c0.632-4.562,6.472-9.389,13.249-7.755
				c4.098,0.988,9.371,3.555,15.834,10.987l-3.231,1.616l-0.646,12.603c0,0,11.528,5.117,14.218,13.572
				c2.262,7.109,2.372,11.994-6.786,23.266"/>
			<g>
				<path d="M238.812,316.243c4.226-0.249,8.088-2.496,8.253-7.054c0.077-2.111-1.216-4.288-1.976-6.161
					c-1.597-3.936-2.144-7.981-1.243-12.158c1.607-7.446,8.349-11.471,15.555-10.064c1.31,0.256,2.314-0.988,1.694-2.203
					c-2.718-5.329-5.816-12.591-4.46-18.641c1.363-6.079,9.13-6.504,13.767-4.845c5.048,1.806,9.08,5.902,12.572,9.793
					c0.101-0.785,0.202-1.571,0.304-2.356c-1.077,0.539-2.154,1.077-3.231,1.616c-0.481,0.241-0.717,0.787-0.743,1.295
					c-0.215,4.201-0.431,8.402-0.646,12.603c-0.025,0.479,0.294,1.091,0.743,1.295c5.093,2.31,9.922,5.93,12.743,10.812
					c4.94,8.553-0.256,16.937-5.614,23.671c-1.191,1.497,0.917,3.635,2.121,2.121c4.177-5.249,8.466-10.948,8.502-17.939
					c0.032-6.375-3.391-11.983-8.06-16.028c-2.012-1.743-4.298-3.184-6.63-4.455c-0.484-0.264-0.979-0.507-1.478-0.74
					c0.478,1.306,0.709,1.598,0.693,0.874c0.03-0.59,0.06-1.18,0.091-1.769c0.142-2.762,0.283-5.523,0.425-8.285
					c0.022-0.439,0.045-0.877,0.067-1.316c0.074-1.443,0.197,0.003-0.46,0.332c0.997-0.499,1.995-0.997,2.992-1.496
					c0.908-0.454,0.911-1.679,0.304-2.356c-6.986-7.784-18.459-16.564-28.407-8.23c-7.24,6.065-1.598,18.868,1.815,25.559
					c0.565-0.734,1.129-1.469,1.694-2.203c-9.599-1.874-16.165,3.25-19.246,12.16c-1.707,4.936-0.079,10.844,1.922,15.413
					c1.864,4.257,0.761,7.475-4.063,7.759C236.89,313.356,236.879,316.357,238.812,316.243L238.812,316.243z"/>
			</g>
		</g>
		<g>
			<path fill="#FFFFFF" d="M279.189,283.56c0,0,9.694,29.083,1.293,56.227l7.109,2.585l-36.515,2.585c0,0,6.786-42.978,5.493-55.904
				c0,0-6.738-0.032-6.414,8.046s12.933,20.988-9.242,26.045"/>
			<g>
				<path d="M277.743,283.958c5.755,17.495,6.49,37.797,1.293,55.43c-0.245,0.831,0.291,1.57,1.048,1.845
					c2.37,0.862,4.739,1.723,7.109,2.585c0.133-0.982,0.266-1.964,0.399-2.946c-12.172,0.862-24.344,1.723-36.515,2.585
					c0.482,0.633,0.964,1.266,1.446,1.899c1.172-7.443,2.198-14.91,3.145-22.385c1.4-11.046,3.379-22.759,2.402-33.918
					c-0.07-0.8-0.629-1.519-1.5-1.5c-7.071,0.151-8.824,7.576-7.23,13.264c1.016,3.625,2.83,7.011,3.158,10.812
					c0.567,6.581-6.924,8.821-11.983,10.07c-1.878,0.463-1.081,3.357,0.798,2.893c7.873-1.943,15.254-5.712,13.961-14.865
					c-0.649-4.596-8.485-18.965,1.297-19.174c-0.5-0.5-1-1-1.5-1.5c0.914,10.436-0.868,21.333-2.123,31.671
					c-0.967,7.961-2.069,15.912-3.317,23.834c-0.14,0.891,0.384,1.974,1.446,1.899c12.172-0.862,24.344-1.723,36.515-2.585
					c1.72-0.122,2.003-2.363,0.399-2.946c-2.37-0.862-4.739-1.723-7.109-2.585c0.349,0.615,0.698,1.23,1.048,1.845
					c5.343-18.123,4.623-39.043-1.293-57.025C280.034,281.332,277.136,282.115,277.743,283.958L277.743,283.958z"/>
			</g>
		</g>
		<g>
			<line fill="#FFFFFF" x1="269.495" y1="317.49" x2="266.91" y2="343.341"/>
			<g>
				<path d="M267.995,317.49c-0.862,8.617-1.723,17.234-2.585,25.852c-0.192,1.925,2.809,1.906,3,0
					c0.862-8.617,1.723-17.234,2.585-25.852C271.187,315.565,268.185,315.583,267.995,317.49L267.995,317.49z"/>
			</g>
		</g>
		<g>
			<line fill="#FFFFFF" x1="287.591" y1="307.795" x2="283.713" y2="312.642"/>
			<g>
				<path d="M286.53,306.735c-1.293,1.616-2.585,3.231-3.878,4.847c-0.51,0.638-0.626,1.496,0,2.121c0.53,0.53,1.61,0.639,2.121,0
					c1.293-1.616,2.585-3.231,3.878-4.847c0.51-0.638,0.626-1.496,0-2.121C288.121,306.205,287.042,306.095,286.53,306.735
					L286.53,306.735z"/>
			</g>
		</g>
		<g>
			<g>
				<path d="M280.694,293.256c1.14,0.724,2.137,1.661,3.025,2.672c2.237,2.545,1.538,5.083-1.086,7.017
					c-1.54,1.134-0.046,3.74,1.514,2.59c3.315-2.442,5.034-5.67,3.165-9.61c-1.021-2.152-3.118-3.999-5.104-5.26
					C280.569,289.626,279.066,292.223,280.694,293.256L280.694,293.256z"/>
			</g>
		</g>
		<g>
			<g>
				<path d="M280.583,272.74c-2.168-1.537-5.537-1.284-8.043-1.198c-2.344,0.08-4.694,0.329-7.014,0.668
					c-1.909,0.278-1.094,3.169,0.798,2.893c1.667-0.243,3.351-0.387,5.031-0.499c2.239-0.15,5.766-0.654,7.714,0.727
					C280.651,276.452,282.148,273.848,280.583,272.74L280.583,272.74z"/>
			</g>
		</g>
		<g>
			<ellipse fill="#FFFFFF" cx="273.134" cy="263.788" rx="0.102" ry="0.137"/>
			<g>
				<path d="M271.79,263.39c-0.01,0.032-0.02,0.064-0.03,0.097c0.23-0.299,0.46-0.598,0.689-0.896
					c-0.024,0.013-0.048,0.027-0.072,0.04c0.505,0,1.009,0,1.514,0c-0.024-0.013-0.048-0.027-0.072-0.04
					c0.23,0.299,0.46,0.598,0.689,0.896c-0.01-0.032-0.02-0.064-0.03-0.097c0,0.266,0,0.532,0,0.798
					c0.01-0.032,0.02-0.064,0.03-0.097c-0.23,0.299-0.46,0.598-0.689,0.896c0.024-0.013,0.048-0.027,0.072-0.04
					c-0.505,0-1.009,0-1.514,0c0.024,0.013,0.048,0.027,0.072,0.04c-0.23-0.299-0.46-0.598-0.689-0.896
					c0.01,0.032,0.02,0.064,0.03,0.097c0.242,0.78,1.038,1.27,1.845,1.048c0.769-0.211,1.29-1.064,1.048-1.845
					c-0.217-0.697-0.784-1.238-1.549-1.238c-0.881,0-1.602,0.767-1.602,1.637c0,0.729,0.501,1.39,1.204,1.583
					c0.898,0.247,1.69-0.356,1.948-1.184c0.243-0.781-0.279-1.634-1.048-1.845C272.828,262.12,272.033,262.61,271.79,263.39z"/>
			</g>
		</g>
	</g>
	<g>
		<g>
			<path d="M239.627,320.568c2.598-0.217,5.232-1.879,7.437-3.102c1.692-0.938,0.179-3.529-1.514-2.59
				c-1.567,0.868-3.159,1.721-4.844,2.339c-0.34,0.125-0.686,0.232-1.037,0.322c-0.244,0.062-0.627,0.08-0.042,0.031
				C237.714,317.728,237.698,320.73,239.627,320.568L239.627,320.568z"/>
		</g>
	</g>
</g>
<g>
	<g>
		<g>
			<path fill="#FFFFFF" d="M480.262,363.298c0,0,9.662-0.42,5.881-8.822c-1.875-4.167-4.387-10.72-1.68-17.224
				c2.706-6.503,7.901-11.439,16.787-9.339c0,0-5.871-11.349-4.847-18.742c0.632-4.562,6.472-9.389,13.249-7.755
				c4.098,0.988,9.371,3.555,15.834,10.987l-3.231,1.616l-0.646,12.603c0,0,11.528,5.117,14.218,13.572
				c2.262,7.109,2.372,11.994-6.786,23.266"/>
			<g>
				<path d="M480.262,364.798c4.226-0.249,8.088-2.496,8.253-7.054c0.077-2.111-1.216-4.288-1.976-6.161
					c-1.597-3.936-2.144-7.981-1.243-12.158c1.607-7.446,8.349-11.471,15.555-10.064c1.31,0.256,2.314-0.988,1.694-2.203
					c-2.718-5.329-5.816-12.591-4.46-18.641c1.363-6.079,9.13-6.504,13.767-4.845c5.048,1.806,9.08,5.902,12.572,9.793
					c0.101-0.785,0.202-1.571,0.304-2.356c-1.077,0.539-2.154,1.077-3.231,1.616c-0.481,0.241-0.717,0.787-0.743,1.295
					c-0.215,4.201-0.431,8.402-0.646,12.603c-0.025,0.479,0.294,1.091,0.743,1.295c5.093,2.31,9.922,5.93,12.743,10.812
					c4.94,8.553-0.256,16.937-5.614,23.671c-1.191,1.497,0.917,3.635,2.121,2.121c4.177-5.249,8.466-10.948,8.502-17.939
					c0.032-6.375-3.391-11.983-8.06-16.028c-2.012-1.743-4.299-3.184-6.63-4.455c-0.484-0.264-0.979-0.507-1.478-0.74
					c0.478,1.306,0.709,1.598,0.693,0.874c0.03-0.59,0.061-1.18,0.091-1.769c0.142-2.762,0.283-5.523,0.425-8.285
					c0.022-0.439,0.045-0.877,0.067-1.316c0.074-1.443,0.197,0.003-0.46,0.332c0.997-0.499,1.995-0.997,2.992-1.496
					c0.907-0.454,0.911-1.679,0.304-2.356c-6.986-7.784-18.459-16.564-28.407-8.23c-7.24,6.065-1.598,18.868,1.815,25.559
					c0.565-0.734,1.129-1.469,1.694-2.203c-9.599-1.874-16.165,3.25-19.246,12.16c-1.707,4.936-0.079,10.844,1.922,15.413
					c1.864,4.257,0.761,7.475-4.063,7.759C478.34,361.911,478.329,364.912,480.262,364.798L480.262,364.798z"/>
			</g>
		</g>
		<g>
			<path fill="#FFFFFF" d="M520.639,332.115c0,0,9.694,29.083,1.293,56.227l7.109,2.585l-36.515,2.585
				c0,0,6.786-42.978,5.493-55.904c0,0-6.738-0.032-6.414,8.046c0.323,8.079,12.933,20.988-9.242,26.045"/>
			<g>
				<path d="M519.193,332.513c5.755,17.495,6.49,37.797,1.293,55.43c-0.245,0.831,0.291,1.57,1.048,1.845
					c2.37,0.862,4.739,1.723,7.109,2.585c0.133-0.982,0.266-1.964,0.399-2.946c-12.172,0.862-24.344,1.723-36.515,2.585
					c0.482,0.633,0.964,1.266,1.446,1.899c1.172-7.443,2.198-14.91,3.145-22.385c1.4-11.046,3.379-22.759,2.402-33.918
					c-0.07-0.8-0.629-1.519-1.5-1.5c-7.071,0.151-8.824,7.576-7.23,13.264c1.016,3.625,2.83,7.011,3.158,10.812
					c0.567,6.581-6.924,8.821-11.983,10.07c-1.878,0.463-1.081,3.357,0.798,2.893c7.873-1.943,15.254-5.711,13.961-14.865
					c-0.649-4.596-8.485-18.965,1.297-19.174c-0.5-0.5-1-1-1.5-1.5c0.914,10.436-0.868,21.333-2.123,31.671
					c-0.967,7.961-2.069,15.912-3.317,23.834c-0.14,0.891,0.384,1.974,1.446,1.899c12.172-0.862,24.344-1.723,36.515-2.585
					c1.72-0.122,2.003-2.363,0.399-2.946c-2.37-0.862-4.74-1.723-7.109-2.585c0.349,0.615,0.698,1.23,1.048,1.845
					c5.343-18.123,4.623-39.043-1.293-57.025C521.484,329.887,518.586,330.67,519.193,332.513L519.193,332.513z"/>
			</g>
		</g>
		<g>
			<line fill="#FFFFFF" x1="510.945" y1="366.045" x2="508.36" y2="391.896"/>
			<g>
				<path d="M509.445,366.045c-0.862,8.617-1.723,17.234-2.585,25.852c-0.192,1.925,2.809,1.906,3,0
					c0.862-8.617,1.723-17.234,2.585-25.852C512.637,364.12,509.635,364.139,509.445,366.045L509.445,366.045z"/>
			</g>
		</g>
		<g>
			<line fill="#FFFFFF" x1="529.041" y1="356.35" x2="525.163" y2="361.198"/>
			<g>
				<path d="M527.98,355.29c-1.293,1.616-2.585,3.231-3.878,4.847c-0.51,0.638-0.626,1.496,0,2.121c0.53,0.53,1.61,0.639,2.121,0
					c1.293-1.616,2.585-3.231,3.878-4.847c0.51-0.638,0.626-1.496,0-2.121C529.572,354.76,528.492,354.65,527.98,355.29
					L527.98,355.29z"/>
			</g>
		</g>
		<g>
			<g>
				<path d="M522.144,341.811c1.14,0.724,2.137,1.661,3.025,2.672c2.237,2.545,1.538,5.083-1.086,7.017
					c-1.539,1.134-0.046,3.74,1.514,2.59c3.315-2.442,5.034-5.67,3.165-9.61c-1.021-2.152-3.118-3.999-5.104-5.26
					C522.02,338.181,520.516,340.778,522.144,341.811L522.144,341.811z"/>
			</g>
		</g>
		<g>
			<g>
				<path d="M522.033,321.295c-2.168-1.537-5.536-1.284-8.043-1.198c-2.344,0.08-4.694,0.329-7.014,0.668
					c-1.908,0.278-1.094,3.169,0.798,2.893c1.667-0.243,3.351-0.387,5.031-0.499c2.239-0.15,5.766-0.654,7.714,0.727
					C522.101,325.007,523.598,322.403,522.033,321.295L522.033,321.295z"/>
			</g>
		</g>
		<g>
			<ellipse fill="#FFFFFF" cx="514.584" cy="312.344" rx="0.102" ry="0.137"/>
			<g>
				<path d="M513.24,311.945c-0.01,0.032-0.02,0.064-0.03,0.097c0.23-0.299,0.46-0.598,0.689-0.896
					c-0.024,0.013-0.048,0.027-0.072,0.04c0.505,0,1.009,0,1.514,0c-0.024-0.013-0.048-0.027-0.073-0.04
					c0.23,0.299,0.46,0.598,0.689,0.896c-0.01-0.032-0.02-0.064-0.03-0.097c0,0.266,0,0.532,0,0.798
					c0.01-0.032,0.02-0.064,0.03-0.097c-0.23,0.299-0.46,0.598-0.689,0.896c0.024-0.013,0.048-0.027,0.073-0.04
					c-0.505,0-1.009,0-1.514,0c0.024,0.013,0.048,0.027,0.072,0.04c-0.23-0.299-0.46-0.598-0.689-0.896
					c0.01,0.032,0.02,0.064,0.03,0.097c0.242,0.78,1.037,1.27,1.845,1.048c0.769-0.211,1.29-1.064,1.048-1.845
					c-0.217-0.697-0.784-1.238-1.549-1.238c-0.881,0-1.602,0.767-1.602,1.637c0,0.729,0.501,1.39,1.204,1.583
					c0.898,0.247,1.69-0.356,1.948-1.184c0.243-0.781-0.279-1.634-1.048-1.845C514.278,310.675,513.483,311.165,513.24,311.945z"/>
			</g>
		</g>
	</g>
	<g>
		<g>
			<path d="M481.077,369.123c2.598-0.217,5.232-1.879,7.437-3.102c1.692-0.938,0.179-3.529-1.514-2.59
				c-1.567,0.868-3.159,1.721-4.844,2.339c-0.34,0.125-0.686,0.232-1.037,0.322c-0.244,0.062-0.627,0.08-0.042,0.031
				C479.164,366.283,479.148,369.285,481.077,369.123L481.077,369.123z"/>
		</g>
	</g>
</g>
<g>
	<g>
		<g>
			<path fill="#FFFFFF" d="M473.59,513.948c0,0,9.662-0.42,5.881-8.822c-1.875-4.167-4.387-10.72-1.68-17.224
				c2.706-6.503,7.901-11.439,16.787-9.339c0,0-5.871-11.349-4.847-18.742c0.632-4.562,6.472-9.389,13.249-7.755
				c4.098,0.988,9.371,3.555,15.834,10.987l-3.231,1.616l-0.646,12.603c0,0,11.528,5.117,14.218,13.572
				c2.262,7.109,2.372,11.994-6.786,23.266"/>
			<g>
				<path d="M473.59,515.448c4.226-0.249,8.088-2.496,8.253-7.054c0.077-2.111-1.216-4.288-1.976-6.161
					c-1.597-3.936-2.144-7.981-1.243-12.158c1.607-7.446,8.349-11.471,15.555-10.064c1.31,0.256,2.314-0.988,1.694-2.203
					c-2.718-5.329-5.816-12.591-4.46-18.641c1.363-6.079,9.13-6.504,13.767-4.845c5.048,1.806,9.08,5.902,12.572,9.793
					c0.101-0.785,0.202-1.571,0.304-2.356c-1.077,0.539-2.154,1.077-3.231,1.616c-0.482,0.241-0.717,0.787-0.743,1.295
					c-0.215,4.201-0.431,8.402-0.646,12.603c-0.025,0.479,0.294,1.091,0.743,1.295c5.093,2.31,9.922,5.93,12.743,10.812
					c4.94,8.553-0.256,16.937-5.614,23.671c-1.191,1.497,0.917,3.635,2.121,2.121c4.177-5.249,8.466-10.948,8.502-17.939
					c0.032-6.375-3.391-11.983-8.06-16.028c-2.012-1.743-4.298-3.184-6.63-4.455c-0.484-0.264-0.979-0.507-1.478-0.74
					c0.478,1.306,0.709,1.598,0.693,0.874c0.03-0.59,0.06-1.18,0.091-1.769c0.142-2.762,0.283-5.523,0.425-8.285
					c0.022-0.439,0.045-0.877,0.067-1.316c0.074-1.443,0.197,0.003-0.46,0.332c0.997-0.499,1.995-0.997,2.992-1.496
					c0.907-0.454,0.911-1.679,0.304-2.356c-6.986-7.784-18.459-16.564-28.407-8.23c-7.24,6.065-1.598,18.868,1.815,25.559
					c0.565-0.734,1.129-1.469,1.694-2.203c-9.599-1.874-16.165,3.25-19.246,12.16c-1.707,4.936-0.079,10.844,1.922,15.413
					c1.864,4.257,0.761,7.475-4.063,7.759C471.668,512.562,471.657,515.562,473.59,515.448L473.59,515.448z"/>
			</g>
		</g>
		<g>
			<path fill="#FFFFFF" d="M513.967,482.765c0,0,9.694,29.083,1.293,56.227l7.109,2.585l-36.515,2.585
				c0,0,6.786-42.978,5.493-55.904c0,0-6.738-0.032-6.414,8.046c0.323,8.079,12.933,20.988-9.242,26.045"/>
			<g>
				<path d="M512.521,483.164c5.755,17.495,6.49,37.797,1.293,55.43c-0.245,0.831,0.291,1.57,1.048,1.845
					c2.37,0.862,4.739,1.723,7.109,2.585c0.133-0.982,0.266-1.964,0.399-2.946c-12.172,0.862-24.344,1.723-36.515,2.585
					c0.482,0.633,0.964,1.266,1.446,1.899c1.172-7.443,2.198-14.91,3.145-22.385c1.4-11.046,3.379-22.759,2.402-33.918
					c-0.07-0.8-0.629-1.519-1.5-1.5c-7.071,0.151-8.824,7.576-7.23,13.264c1.016,3.625,2.83,7.011,3.158,10.812
					c0.567,6.581-6.924,8.821-11.983,10.07c-1.878,0.464-1.081,3.357,0.798,2.893c7.873-1.943,15.254-5.712,13.961-14.865
					c-0.649-4.596-8.485-18.965,1.297-19.174c-0.5-0.5-1-1-1.5-1.5c0.914,10.436-0.868,21.333-2.123,31.671
					c-0.967,7.961-2.069,15.912-3.317,23.834c-0.14,0.891,0.384,1.974,1.446,1.899c12.172-0.862,24.344-1.723,36.515-2.585
					c1.72-0.122,2.003-2.363,0.399-2.946c-2.37-0.862-4.739-1.723-7.109-2.585c0.349,0.615,0.698,1.23,1.048,1.845
					c5.343-18.123,4.623-39.043-1.293-57.025C514.812,480.537,511.914,481.321,512.521,483.164L512.521,483.164z"/>
			</g>
		</g>
		<g>
			<line fill="#FFFFFF" x1="504.273" y1="516.695" x2="501.688" y2="542.547"/>
			<g>
				<path d="M502.773,516.695c-0.862,8.617-1.723,17.234-2.585,25.852c-0.192,1.925,2.809,1.906,3,0
					c0.862-8.617,1.723-17.234,2.585-25.852C505.965,514.771,502.963,514.789,502.773,516.695L502.773,516.695z"/>
			</g>
		</g>
		<g>
			<line fill="#FFFFFF" x1="522.369" y1="507.001" x2="518.491" y2="511.848"/>
			<g>
				<path d="M521.308,505.94c-1.293,1.616-2.585,3.231-3.878,4.847c-0.51,0.638-0.626,1.496,0,2.121c0.53,0.53,1.61,0.639,2.121,0
					c1.293-1.616,2.585-3.231,3.878-4.847c0.51-0.638,0.626-1.496,0-2.121C522.899,505.41,521.82,505.301,521.308,505.94
					L521.308,505.94z"/>
			</g>
		</g>
		<g>
			<g>
				<path d="M515.472,492.462c1.14,0.724,2.137,1.661,3.025,2.672c2.237,2.545,1.538,5.083-1.086,7.017
					c-1.54,1.134-0.046,3.74,1.514,2.59c3.315-2.442,5.034-5.67,3.165-9.61c-1.021-2.152-3.118-3.999-5.104-5.26
					C515.347,488.832,513.844,491.429,515.472,492.462L515.472,492.462z"/>
			</g>
		</g>
		<g>
			<g>
				<path d="M515.361,471.945c-2.168-1.537-5.537-1.284-8.043-1.198c-2.344,0.08-4.694,0.329-7.014,0.668
					c-1.909,0.278-1.094,3.169,0.798,2.893c1.667-0.243,3.351-0.387,5.031-0.499c2.239-0.15,5.766-0.654,7.714,0.727
					C515.429,475.657,516.926,473.054,515.361,471.945L515.361,471.945z"/>
			</g>
		</g>
		<g>
			<ellipse fill="#FFFFFF" cx="507.912" cy="462.994" rx="0.102" ry="0.137"/>
			<g>
				<path d="M506.568,462.595c-0.01,0.032-0.02,0.064-0.03,0.097c0.23-0.299,0.46-0.598,0.689-0.896
					c-0.024,0.013-0.048,0.027-0.072,0.04c0.505,0,1.009,0,1.514,0c-0.024-0.013-0.048-0.027-0.072-0.04
					c0.23,0.299,0.46,0.598,0.689,0.896c-0.01-0.032-0.02-0.064-0.03-0.097c0,0.266,0,0.532,0,0.798
					c0.01-0.032,0.02-0.064,0.03-0.097c-0.23,0.299-0.46,0.598-0.689,0.896c0.024-0.013,0.048-0.027,0.072-0.04
					c-0.505,0-1.009,0-1.514,0c0.024,0.013,0.048,0.027,0.072,0.04c-0.23-0.299-0.46-0.598-0.689-0.896
					c0.01,0.032,0.02,0.064,0.03,0.097c0.242,0.78,1.038,1.27,1.845,1.048c0.769-0.211,1.29-1.064,1.048-1.845
					c-0.217-0.697-0.784-1.238-1.549-1.238c-0.881,0-1.602,0.767-1.602,1.637c0,0.729,0.501,1.39,1.204,1.583
					c0.898,0.247,1.69-0.356,1.948-1.184c0.243-0.781-0.279-1.634-1.048-1.845C507.606,461.325,506.81,461.815,506.568,462.595z"/>
			</g>
		</g>
	</g>
	<g>
		<g>
			<path d="M474.405,519.774c2.598-0.217,5.232-1.879,7.437-3.102c1.692-0.938,0.179-3.529-1.514-2.59
				c-1.567,0.868-3.159,1.721-4.844,2.339c-0.34,0.125-0.686,0.232-1.037,0.322c-0.244,0.062-0.627,0.08-0.042,0.031
				C472.492,516.934,472.476,519.935,474.405,519.774L474.405,519.774z"/>
		</g>
	</g>
</g>
</svg>
