<?xml version="1.0" encoding="utf-8"?>
<!-- Generator: Adobe Illustrator 17.0.2, SVG Export Plug-In . SVG Version: 6.00 Build 0)  -->
<!DOCTYPE svg PUBLIC "-//W3C//DTD SVG 1.1//EN" "http://www.w3.org/Graphics/SVG/1.1/DTD/svg11.dtd">
<svg version="1.1" id="Lager_1" xmlns="http://www.w3.org/2000/svg" xmlns:xlink="http://www.w3.org/1999/xlink" x="0px" y="0px"
	 width="770px" height="770px" viewBox="0 0 770 770" enable-background="new 0 0 770 770" xml:space="preserve">
<g>
	<g>
		<g>
			<path fill="#FFFFFF" d="M356.055,401.304c0,0,9.662-0.42,5.881-8.822c-1.875-4.167-4.387-10.72-1.68-17.224
				c2.706-6.503,7.901-11.439,16.787-9.339c0,0-5.871-11.349-4.847-18.742c0.632-4.562,6.472-9.389,13.249-7.755
				c4.098,0.988,9.371,3.555,15.834,10.987l-3.231,1.616l-0.646,12.603c0,0,11.528,5.117,14.218,13.572
				c2.262,7.109,2.372,11.994-6.786,23.266"/>
			<g>
				<path d="M356.055,402.804c4.226-0.249,8.088-2.496,8.253-7.054c0.077-2.111-1.216-4.288-1.976-6.161
					c-1.597-3.936-2.144-7.981-1.243-12.158c1.607-7.446,8.349-11.471,15.555-10.064c1.31,0.256,2.314-0.988,1.694-2.203
					c-2.718-5.329-5.816-12.591-4.46-18.641c1.363-6.079,9.13-6.504,13.767-4.845c5.048,1.806,9.08,5.902,12.572,9.793
					c0.101-0.785,0.202-1.571,0.304-2.356c-1.077,0.539-2.154,1.077-3.231,1.616c-0.481,0.241-0.717,0.787-0.743,1.295
					c-0.215,4.201-0.431,8.402-0.646,12.603c-0.025,0.479,0.294,1.091,0.743,1.295c5.093,2.31,9.922,5.93,12.743,10.812
					c4.94,8.553-0.256,16.937-5.614,23.671c-1.191,1.497,0.917,3.635,2.121,2.121c4.177-5.249,8.466-10.948,8.502-17.939
					c0.032-6.375-3.391-11.983-8.06-16.028c-2.012-1.743-4.298-3.184-6.63-4.455c-0.484-0.264-0.979-0.507-1.478-0.74
					c0.478,1.306,0.709,1.598,0.693,0.874c0.03-0.59,0.06-1.18,0.091-1.769c0.142-2.762,0.283-5.523,0.425-8.285
					c0.022-0.439,0.045-0.877,0.067-1.316c0.074-1.443,0.197,0.003-0.46,0.332c0.997-0.499,1.995-0.997,2.992-1.496
					c0.908-0.454,0.911-1.679,0.304-2.356c-6.986-7.784-18.459-16.564-28.407-8.23c-7.24,6.065-1.598,18.868,1.815,25.559
					c0.565-0.734,1.129-1.469,1.694-2.203c-9.599-1.874-16.165,3.25-19.246,12.16c-1.707,4.936-0.079,10.844,1.922,15.413
					c1.864,4.257,0.76,7.475-4.063,7.759C354.133,399.917,354.122,402.918,356.055,402.804L356.055,402.804z"/>
			</g>
		</g>
		<g>
			<path fill="#FFFFFF" d="M396.432,370.121c0,0,9.694,29.083,1.293,56.227l7.109,2.585l-36.515,2.585
				c0,0,6.786-42.978,5.493-55.904c0,0-6.738-0.032-6.414,8.046s12.933,20.988-9.242,26.045"/>
			<g>
				<path d="M394.986,370.52c5.755,17.495,6.49,37.797,1.293,55.43c-0.245,0.831,0.291,1.57,1.048,1.845
					c2.37,0.862,4.739,1.723,7.109,2.585c0.133-0.982,0.266-1.964,0.399-2.946c-12.172,0.862-24.344,1.723-36.515,2.585
					c0.482,0.633,0.964,1.266,1.446,1.899c1.172-7.443,2.198-14.91,3.145-22.385c1.4-11.046,3.379-22.759,2.402-33.918
					c-0.07-0.8-0.629-1.519-1.5-1.5c-7.071,0.151-8.824,7.576-7.23,13.264c1.016,3.625,2.83,7.011,3.158,10.812
					c0.567,6.581-6.924,8.821-11.983,10.07c-1.878,0.463-1.081,3.357,0.798,2.893c7.873-1.943,15.254-5.712,13.961-14.865
					c-0.649-4.596-8.485-18.965,1.297-19.174c-0.5-0.5-1-1-1.5-1.5c0.914,10.436-0.868,21.333-2.123,31.671
					c-0.967,7.961-2.069,15.912-3.317,23.834c-0.14,0.891,0.384,1.974,1.446,1.899c12.172-0.862,24.344-1.723,36.515-2.585
					c1.72-0.122,2.003-2.363,0.399-2.946c-2.37-0.862-4.739-1.723-7.109-2.585c0.349,0.615,0.698,1.23,1.048,1.845
					c5.343-18.123,4.623-39.043-1.293-57.025C397.277,367.893,394.379,368.677,394.986,370.52L394.986,370.52z"/>
			</g>
		</g>
		<g>
			<line fill="#FFFFFF" x1="386.738" y1="404.051" x2="384.153" y2="429.902"/>
			<g>
				<path d="M385.238,404.051c-0.862,8.617-1.723,17.234-2.585,25.852c-0.192,1.925,2.809,1.906,3,0
					c0.862-8.617,1.723-17.234,2.585-25.852C388.43,402.126,385.428,402.145,385.238,404.051L385.238,404.051z"/>
			</g>
		</g>
		<g>
			<line fill="#FFFFFF" x1="404.834" y1="394.357" x2="400.956" y2="399.204"/>
			<g>
				<path d="M403.773,393.296c-1.293,1.616-2.585,3.231-3.878,4.847c-0.51,0.638-0.626,1.496,0,2.121c0.53,0.53,1.61,0.639,2.121,0
					c1.293-1.616,2.585-3.231,3.878-4.847c0.51-0.638,0.626-1.496,0-2.121C405.365,392.766,404.285,392.656,403.773,393.296
					L403.773,393.296z"/>
			</g>
		</g>
		<g>
			<g>
				<path d="M397.937,379.818c1.14,0.724,2.137,1.661,3.025,2.672c2.237,2.545,1.538,5.083-1.086,7.017
					c-1.54,1.134-0.046,3.74,1.514,2.59c3.315-2.442,5.034-5.67,3.165-9.61c-1.021-2.152-3.118-3.999-5.104-5.26
					C397.813,376.187,396.309,378.785,397.937,379.818L397.937,379.818z"/>
			</g>
		</g>
		<g>
			<g>
				<path d="M398.13,359.535c-1.115-0.896-3.289-3.127-4.978-2.662c-1.364,0.375-2.764,1.991-3.877,2.842
					c0.606,0.078,1.212,0.156,1.818,0.235c-1.035-0.828-2.07-1.656-3.104-2.484c-0.58-0.464-1.138-0.54-1.818-0.235
					c-1.253,0.564-2.507,1.127-3.76,1.69c-1.762,0.792-0.235,3.377,1.514,2.59c1.253-0.564,2.507-1.127,3.76-1.69
					c-0.606-0.078-1.212-0.156-1.818-0.235c1.035,0.828,2.07,1.656,3.104,2.484c0.482,0.385,1.25,0.669,1.818,0.235
					c0.99-0.757,1.979-1.513,2.969-2.27c0.998-0.763-0.361-0.192-0.448-0.22c0.946,0.309,1.974,1.259,2.699,1.842
					C397.501,362.857,399.638,360.748,398.13,359.535L398.13,359.535z"/>
			</g>
		</g>
		<g>
			<ellipse fill="#FFFFFF" cx="390.377" cy="350.35" rx="0.102" ry="0.137"/>
			<g>
				<path d="M389.033,349.951c-0.01,0.032-0.02,0.064-0.03,0.097c0.23-0.299,0.46-0.598,0.689-0.896
					c-0.024,0.013-0.048,0.027-0.072,0.04c0.505,0,1.009,0,1.514,0c-0.024-0.013-0.048-0.027-0.072-0.04
					c0.23,0.299,0.46,0.598,0.689,0.896c-0.01-0.032-0.02-0.064-0.03-0.097c0,0.266,0,0.532,0,0.798
					c0.01-0.032,0.02-0.064,0.03-0.097c-0.23,0.299-0.46,0.598-0.689,0.896c0.024-0.013,0.048-0.027,0.072-0.04
					c-0.505,0-1.009,0-1.514,0c0.024,0.013,0.048,0.027,0.072,0.04c-0.23-0.299-0.46-0.598-0.689-0.896
					c0.01,0.032,0.02,0.064,0.03,0.097c0.242,0.78,1.038,1.27,1.845,1.048c0.769-0.211,1.29-1.064,1.048-1.845
					c-0.217-0.697-0.784-1.238-1.549-1.238c-0.881,0-1.602,0.767-1.602,1.637c0,0.729,0.501,1.39,1.204,1.583
					c0.898,0.247,1.69-0.356,1.948-1.184c0.243-0.781-0.279-1.634-1.048-1.845C390.071,348.681,389.276,349.171,389.033,349.951z"/>
			</g>
		</g>
	</g>
	<g>
		<g>
			<path d="M356.87,407.13c2.598-0.217,5.232-1.879,7.437-3.102c1.692-0.938,0.179-3.529-1.514-2.59
				c-1.567,0.868-3.159,1.721-4.844,2.339c-0.34,0.125-0.686,0.232-1.037,0.322c-0.244,0.062-0.627,0.08-0.042,0.031
				C354.957,404.29,354.941,407.291,356.87,407.13L356.87,407.13z"/>
		</g>
	</g>
</g>
</svg>
