<?xml version="1.0" encoding="utf-8"?>
<!-- Generator: Adobe Illustrator 17.0.2, SVG Export Plug-In . SVG Version: 6.00 Build 0)  -->
<!DOCTYPE svg PUBLIC "-//W3C//DTD SVG 1.1//EN" "http://www.w3.org/Graphics/SVG/1.1/DTD/svg11.dtd">
<svg version="1.1" id="Lager_1" xmlns="http://www.w3.org/2000/svg" xmlns:xlink="http://www.w3.org/1999/xlink" x="0px" y="0px"
	 width="1191px" height="870px" viewBox="0 0 1191 870" enable-background="new 0 0 1191 870" xml:space="preserve">
<path stroke="#000000" stroke-miterlimit="10" d="M661.793,345.288c0,0,83.725,27.672-1.587,219.048c0,0,18.498,76.127,2.406,119.81
	c-15.057,40.874-64.878,45.944-70.398,45.993c-5.749,0.052-56.336-6.404-71.93-49.274c-15.384-42.293,4.493-117.465,4.493-117.465
	c-85.312-191.376-1.587-219.048-1.587-219.048s32.253-11.964,70.389-11.964C631.712,332.388,661.793,345.288,661.793,345.288z"/>
<path stroke="#000000" stroke-miterlimit="10" d="M523.189,344.352c0,0-19.038,7.192-21.167-19.425s-82.678-61.296-91.564-57.493
	c-8.885,3.803,6.85,64.566,14.906,72.399c8.944,8.698,50.041,24.488,86.24,10.647S523.189,344.352,523.189,344.352z"/>
<path stroke="#000000" stroke-miterlimit="10" d="M664.992,347.869c0,0,19.038,7.192,21.167-19.425
	c2.129-26.617,82.678-61.296,91.564-57.493s-6.85,64.566-14.906,72.399c-8.944,8.698-50.041,24.488-86.24,10.647
	C640.377,340.156,664.992,347.869,664.992,347.869z"/>
<path stroke="#000000" stroke-miterlimit="10" d="M685.62,380.818c0,0,39.583-8.968,63.913-19.688
	c8.11-3.573,31.965-12.315,36.465-7.571c3.374,3.556,4.128,9.022-1.899,15.842c-3.476,3.933-12.278,4.955-19.471,8.793
	c-15.966,8.517-37.455,19.534-70.389,26.552L685.62,380.818z"/>
<path stroke="#000000" stroke-miterlimit="10" d="M504.246,379.458c0,0-39.583-8.968-63.913-19.688
	c-8.11-3.573-40.593,1.451-34.566,8.27c3.476,3.933,12.278,4.955,19.471,8.793c15.966,8.517,37.455,19.534,70.389,26.552
	L504.246,379.458z"/>
<path stroke="#000000" stroke-miterlimit="10" d="M491.275,399.398c0,0-140.443-20.861-214.091-54.766
	c-30.459-14.023-69.35-44.133-54.596-45.536c14.755-1.403,50.581,16,65.365,19.942c16.618,4.431,14.388,3.844,33.999,4.106
	c0,0-13.637-11.559-26.244-29.587c-8.984-12.847-26.066-39.832-16.424-44.182c16.139-7.282,18.933,8.443,35.901,28.829
	c13.567,16.3,20.221,27.871,26.221,28.191c0,0-5.171-30.33-1.572-31.679c8.373-3.14,14.079,6.624,30.42,27.261
	c8.013,10.12,21.657,19.857,36.006,31.926C410.918,337.818,408.811,336.119,491.275,399.398z"/>
<path stroke="#000000" stroke-miterlimit="10" d="M696.472,404.797c0,0,140.443-20.861,214.091-54.766
	c30.459-14.023,69.35-44.133,54.596-45.536c-14.755-1.403-50.581,15.999-65.365,19.942c-16.618,4.431-14.388,3.844-33.999,4.106
	c0,0,13.637-11.559,26.244-29.587c8.984-12.847,26.066-39.832,16.424-44.182c-16.139-7.282-18.933,8.443-35.901,28.829
	c-13.567,16.3-20.221,27.871-26.221,28.191c0,0,5.171-30.33,1.572-31.679c-8.373-3.14-14.079,6.624-30.42,27.261
	c-8.013,10.12-21.657,19.857-36.006,31.926C776.829,343.217,778.937,341.518,696.472,404.797z"/>
</svg>
