<?xml version="1.0" encoding="utf-8"?>
<!-- Generator: Adobe Illustrator 17.0.2, SVG Export Plug-In . SVG Version: 6.00 Build 0)  -->
<!DOCTYPE svg PUBLIC "-//W3C//DTD SVG 1.1//EN" "http://www.w3.org/Graphics/SVG/1.1/DTD/svg11.dtd">
<svg version="1.1" id="Lager_1" xmlns="http://www.w3.org/2000/svg" xmlns:xlink="http://www.w3.org/1999/xlink" x="0px" y="0px"
	 width="1191px" height="870px" viewBox="0 0 1191 870" enable-background="new 0 0 1191 870" xml:space="preserve">
<path stroke="#000000" stroke-miterlimit="10" d="M661.793,345.288c0,0,83.725,27.672-1.587,219.048c0,0,18.498,76.127,2.406,119.81
	c-15.057,40.874-64.878,45.944-70.398,45.993c-5.749,0.052-56.336-6.404-71.93-49.274c-15.384-42.293,4.493-117.465,4.493-117.465
	c-85.312-191.376-1.587-219.048-1.587-219.048s32.253-11.964,70.389-11.964C631.712,332.388,661.793,345.288,661.793,345.288z"/>
<path stroke="#000000" stroke-miterlimit="10" d="M523.189,344.352c0,0-19.038,7.192-21.167-19.425s-82.678-61.296-91.564-57.493
	c-8.885,3.803,6.85,64.566,14.906,72.399c8.944,8.698,50.041,24.488,86.24,10.647S523.189,344.352,523.189,344.352z"/>
<path stroke="#000000" stroke-miterlimit="10" d="M664.992,347.869c0,0,19.038,7.192,21.167-19.425
	c2.129-26.617,82.678-61.296,91.564-57.493s-6.85,64.566-14.906,72.399c-8.944,8.698-50.041,24.488-86.24,10.647
	C640.377,340.156,664.992,347.869,664.992,347.869z"/>
<path stroke="#000000" stroke-miterlimit="10" d="M685.62,380.818c0,0,39.583-8.968,63.913-19.688
	c8.11-3.573,31.965-12.315,36.465-7.571c3.374,3.556,4.128,9.022-1.899,15.842c-3.476,3.933-12.278,4.955-19.471,8.793
	c-15.966,8.517-37.455,19.534-70.389,26.552L685.62,380.818z"/>
<path stroke="#000000" stroke-miterlimit="10" d="M504.246,379.458c0,0-39.583-8.968-63.913-19.688
	c-8.11-3.573-40.593,1.451-34.566,8.27c3.476,3.933,12.278,4.955,19.471,8.793c15.966,8.517,37.455,19.534,70.389,26.552
	L504.246,379.458z"/>
<path stroke="#000000" stroke-miterlimit="10" d="M512.725,412.954c0,0-167.561-31.671-255.43-73.395
	c-36.341-17.256-103.342-114.36-85.739-116.087s82.198,66.883,97.908,76.47c16.745,10.219,17.845,12.851,41.243,13.173
	c0,0-26.71-14.413-41.751-36.599c-10.718-15.809-22.672-56.983-11.168-62.337c19.256-8.961,24.601,18.546,44.846,43.633
	c16.187,20.058,24.125,34.298,31.285,34.692c0,0-6.169-37.324-1.875-38.984c9.989-3.864,16.798,8.151,36.294,33.548
	c9.561,12.454,25.839,30.435,42.958,45.288c4.439,3.851,30.326,30.838,81.634,54.633
	C507.397,393.696,492.956,397.307,512.725,412.954z"/>
<path stroke="#000000" stroke-miterlimit="10" d="M679.615,413.725c0,0,167.561-31.671,255.43-73.395
	c36.341-17.256,103.342-114.36,85.739-116.087c-17.604-1.727-82.198,66.883-97.908,76.47
	c-16.745,10.219-17.845,12.851-41.243,13.173c0,0,26.71-14.413,41.751-36.599c10.718-15.809,22.672-56.983,11.168-62.337
	c-19.256-8.961-24.601,18.546-44.846,43.633c-16.187,20.058-24.125,34.298-31.285,34.692c0,0,6.169-37.324,1.875-38.984
	c-9.989-3.864-16.798,8.151-36.294,33.548c-9.561,12.454-25.839,30.435-42.958,45.288c-4.439,3.851-30.326,30.838-81.634,54.633
	C684.943,394.468,699.384,398.079,679.615,413.725z"/>
</svg>
