<?xml version="1.0" encoding="utf-8"?>
<!-- Generator: Adobe Illustrator 17.0.2, SVG Export Plug-In . SVG Version: 6.00 Build 0)  -->
<!DOCTYPE svg PUBLIC "-//W3C//DTD SVG 1.1//EN" "http://www.w3.org/Graphics/SVG/1.1/DTD/svg11.dtd">
<svg version="1.1" id="Lager_1" xmlns="http://www.w3.org/2000/svg" xmlns:xlink="http://www.w3.org/1999/xlink" x="0px" y="0px"
	 width="1191px" height="870px" viewBox="0 0 1191 870" enable-background="new 0 0 1191 870" xml:space="preserve">
<path stroke="#000000" stroke-miterlimit="10" d="M661.793,345.288c0,0,83.725,27.672-1.587,219.048c0,0,18.498,76.127,2.406,119.81
	c-15.057,40.874-64.878,45.944-70.398,45.993c-5.749,0.052-56.336-6.404-71.93-49.274c-15.384-42.293,4.493-117.465,4.493-117.465
	c-85.312-191.376-1.587-219.048-1.587-219.048s32.253-11.964,70.389-11.964C631.712,332.388,661.793,345.288,661.793,345.288z"/>
<path stroke="#000000" stroke-miterlimit="10" d="M523.189,344.352c0,0-19.038,7.192-21.167-19.425s-82.678-61.296-91.564-57.493
	c-8.885,3.803,6.85,64.566,14.906,72.399c8.944,8.698,50.041,24.488,86.24,10.647S523.189,344.352,523.189,344.352z"/>
<path stroke="#000000" stroke-miterlimit="10" d="M664.992,347.869c0,0,19.038,7.192,21.167-19.425
	c2.129-26.617,82.678-61.296,91.564-57.493s-6.85,64.566-14.906,72.399c-8.944,8.698-50.041,24.488-86.24,10.647
	C640.377,340.156,664.992,347.869,664.992,347.869z"/>
<path stroke="#000000" stroke-miterlimit="10" d="M685.62,380.818c0,0,39.583-8.968,63.913-19.688
	c8.11-3.573,13.314-10.474,16.407-13.126c3.938-3.376,15.558,0.811,20.058,5.554c3.374,3.556,4.128,9.022-1.899,15.842
	c-3.476,3.933-12.278,4.955-19.471,8.793c-15.966,8.517-37.455,19.534-70.389,26.552L685.62,380.818z"/>
<path stroke="#000000" stroke-miterlimit="10" d="M504.246,379.458c0,0-39.583-8.968-63.913-19.688
	c-8.11-3.573-13.314-10.474-16.407-13.126c-3.938-3.376-15.558,0.811-20.058,5.554c-3.374,3.556-4.128,9.022,1.899,15.842
	c3.476,3.933,12.278,4.955,19.471,8.793c15.966,8.517,37.455,19.534,70.389,26.552L504.246,379.458z"/>
<path stroke="#000000" stroke-miterlimit="10" d="M772.995,370.425c0,0,24.08,12.843,36.923,6.421s4.534-19.475-1.887-19.475
	c0,0,15.077-8.119,4.639-18.557c-10.438-10.438-18.557,0-18.557,0s-26.86-20.999-28.173,9.19L772.995,370.425z"/>
<path stroke="#000000" stroke-miterlimit="10" d="M417.064,369.997c0,0-24.08,12.843-36.923,6.421
	c-12.843-6.421-4.534-19.475,1.887-19.475c0,0-15.077-8.119-4.639-18.557c10.438-10.438,18.557,0,18.557,0s26.86-20.999,28.173,9.19
	L417.064,369.997z"/>
<g>
	<path d="M738.857,389.178c0,0,80.316-5.877,75.419-17.63c-4.897-11.754-32.592-41.983-40.234-42.224
		c-3.196-0.101-5.856,10.405-13.583,18.037c-10.75,10.618-24.059,22.905-27.478,32.023L738.857,389.178z"/>
	<path d="M793.904,380.556c22.818,0,59.9-14.525,55.504-22.439s-41.378-0.746-41.378-0.746s13.721-8.865,22.787-21.274
		c7.667-10.494,11.051-24.373,9.772-28.85c-3.4-11.901-8.731-0.753-27.92,14.425c-3.952,3.126-10.188,10.657-16.286,13.494
		c-3.822,1.778-1.253-0.269-4.653,2.792c0,0,36.551-36.17-1.26-29.135c-11.016,2.05-21.375,29.75-23.868,30.996
		C763.085,341.579,793.904,380.556,793.904,380.556z"/>
</g>
<g>
	<path d="M450.648,387.578c0,0-80.316-5.877-75.419-17.63s32.592-41.983,40.234-42.224c3.196-0.101,5.856,10.405,13.583,18.037
		c10.75,10.618,24.059,22.905,27.478,32.023L450.648,387.578z"/>
	<path d="M395.601,378.956c-22.818,0-59.9-14.525-55.504-22.439c4.397-7.914,41.378-0.746,41.378-0.746s-13.721-8.865-22.787-21.274
		c-7.667-10.494-11.051-24.373-9.772-28.85c3.4-11.901,8.731-0.753,27.92,14.425c3.952,3.126,10.188,10.657,16.286,13.494
		c3.822,1.778,1.253-0.269,4.653,2.792c0,0-36.551-36.17,1.26-29.135c11.016,2.05,21.375,29.75,23.868,30.996
		C426.42,339.979,395.601,378.956,395.601,378.956z"/>
</g>
</svg>
