<?xml version="1.0" encoding="utf-8"?>
<!-- Generator: Adobe Illustrator 17.1.0, SVG Export Plug-In . SVG Version: 6.00 Build 0)  -->
<!DOCTYPE svg PUBLIC "-//W3C//DTD SVG 1.1//EN" "http://www.w3.org/Graphics/SVG/1.1/DTD/svg11.dtd">
<svg version="1.1" id="Lager_1" xmlns="http://www.w3.org/2000/svg" xmlns:xlink="http://www.w3.org/1999/xlink" x="0px" y="0px"
	 viewBox="0 0 657.902 60" enable-background="new 0 0 657.902 60" xml:space="preserve">
<g>
	<g>
		<path fill="#FFFFFF" d="M2.231,38.244c0,0,3.993-2.81,6.38-7.291c1.324-2.486,1.902-5.739,3.19-8.203
			c1.777-3.399,5.022-5.773,6.868-5.336c0,0-3.698-7.148-3.053-11.804c0.398-2.873,4.076-5.913,8.344-4.884
			c2.581,0.622,5.902,2.239,9.972,6.92l-2.035,1.018L31.49,16.6c0,0,2.116,1.598,4.007,4.935c2.582,4.557,5.772,9.57,13.215,15.038"
			/>
		<g>
			<path d="M2.529,38.753c2.719-1.948,4.961-4.599,6.592-7.503c1.438-2.562,1.91-5.564,3.19-8.203
				c1.032-2.128,3.656-5.395,6.358-5.044c0.478,0.062,0.689-0.538,0.51-0.888c-1.757-3.435-4.311-9.048-2.501-12.814
				c1.625-3.379,5.799-3.596,8.854-2.463c3.195,1.186,5.764,3.734,7.983,6.223c0.04-0.309,0.08-0.618,0.119-0.927
				c-0.678,0.339-1.357,0.678-2.035,1.018c-0.189,0.095-0.282,0.31-0.292,0.51c-0.108,2.102-0.216,4.204-0.323,6.305
				c-0.11,2.151,0.308,2.077,1.784,3.709c2.505,2.769,3.958,6.428,6.253,9.386c2.693,3.471,5.881,6.394,9.393,9.02
				c0.611,0.456,1.198-0.569,0.596-1.019c-3.919-2.93-7.388-6.278-10.204-10.291c-2.04-2.908-3.472-6.17-5.966-8.747
				c-0.279-0.288-0.58-0.556-0.89-0.809c0.295,0.241,0.128,0.422,0.16-0.204c0.066-1.292,0.132-2.584,0.199-3.876
				c0.054-1.044,0.107-2.088,0.161-3.133c0.033-0.648-0.508,0.285,0.129-0.033c0.544-0.272,1.088-0.544,1.632-0.816
				c0.358-0.179,0.358-0.66,0.119-0.927C30.161,2.529,22.893-3.181,16.888,2.113c-4.273,3.767-0.818,11.514,1.271,15.599
				c0.17-0.296,0.34-0.592,0.51-0.888c-4.12-0.536-7.169,4.788-8.362,7.93c-1.313,3.457-2.264,6.591-4.678,9.491
				c-1.07,1.285-2.332,2.513-3.695,3.489C1.32,38.173,1.909,39.198,2.529,38.753L2.529,38.753z"/>
		</g>
	</g>
	<g>
		<path fill="#FFFFFF" d="M31.396,22.598c0,0,5.59,15.778,0.298,32.873l4.477,1.628l-22.997,1.628c0,0,4.833-25.263,4.019-33.403
			c0,0-1.007,4.91-4.632,10.793c-1.741,2.826-3.494,4.861-7.595,7.139"/>
		<g>
			<path d="M30.827,22.755c3.581,10.237,3.364,22.283,0.298,32.559c-0.098,0.327,0.115,0.618,0.412,0.726
				c1.492,0.543,2.985,1.085,4.477,1.628c0.052-0.387,0.105-0.773,0.157-1.16c-7.666,0.543-15.331,1.085-22.997,1.628
				c0.19,0.249,0.38,0.498,0.569,0.747c0.865-4.532,1.622-9.087,2.315-13.649c0.98-6.458,2.307-13.359,1.725-19.911
				c-0.055-0.624-1.012-0.85-1.16-0.157c-1.514,7.106-5.614,13.943-11.956,17.58c-0.66,0.379-0.066,1.399,0.596,1.019
				c6.611-3.79,10.919-10.873,12.498-18.285c-0.387-0.052-0.773-0.105-1.16-0.157c0.573,6.451-0.73,13.243-1.683,19.598
				c-0.684,4.562-1.449,9.117-2.315,13.649c-0.067,0.351,0.16,0.776,0.569,0.747c7.666-0.543,15.331-1.085,22.997-1.628
				c0.677-0.048,0.788-0.93,0.157-1.16c-1.492-0.543-2.985-1.085-4.477-1.628c0.137,0.242,0.275,0.484,0.412,0.726
				c3.124-10.471,3.35-22.759-0.298-33.187C31.715,21.727,30.574,22.034,30.827,22.755L30.827,22.755z"/>
		</g>
	</g>
	<g>
		<line fill="#FFFFFF" x1="24.774" y1="41.428" x2="23.146" y2="57.71"/>
		<g>
			<path d="M24.184,41.428c-0.543,5.427-1.085,10.854-1.628,16.281c-0.076,0.758,1.106,0.75,1.181,0
				c0.543-5.427,1.085-10.854,1.628-16.281C25.441,40.671,24.259,40.678,24.184,41.428L24.184,41.428z"/>
		</g>
	</g>
	<g>
		<line fill="#FFFFFF" x1="43.93" y1="36.44" x2="46.968" y2="39.023"/>
		<g>
			<path d="M43.513,36.858c1.013,0.861,2.025,1.722,3.038,2.582c0.576,0.49,1.416-0.341,0.835-0.835
				c-1.013-0.861-2.025-1.722-3.038-2.582C43.771,35.533,42.932,36.364,43.513,36.858L43.513,36.858z"/>
		</g>
	</g>
	<g>
		<g>
			<path d="M32.688,28.484c4.162,4.559,6.959,10.087,12.119,13.763c0.622,0.443,1.21-0.582,0.596-1.019
				c-5.054-3.601-7.8-9.109-11.881-13.579C33.009,27.085,32.176,27.923,32.688,28.484L32.688,28.484z"/>
		</g>
	</g>
	<g>
		<g>
			<path d="M20.542,8.616c1.509,4.184,6.627,5.337,10.542,5.114c0.757-0.043,0.761-1.224,0-1.181
				c-3.325,0.189-8.103-0.642-9.403-4.247C21.424,7.592,20.283,7.898,20.542,8.616L20.542,8.616z"/>
		</g>
	</g>
	<g>
		<ellipse fill="#FFFFFF" cx="27.066" cy="7.608" rx="0.065" ry="0.086"/>
		<g>
			<path d="M26.562,7.451c-0.006,0.02-0.013,0.041-0.019,0.061c0.09-0.118,0.181-0.235,0.271-0.353
				c-0.015,0.008-0.03,0.017-0.046,0.025c0.199,0,0.397,0,0.596,0c-0.015-0.008-0.03-0.017-0.046-0.025
				c0.09,0.118,0.181,0.235,0.271,0.353c0,0.064,0,0.128,0,0.192c-0.09,0.118-0.181,0.235-0.271,0.353
				c0.015-0.008,0.03-0.017,0.046-0.025c-0.199,0-0.397,0-0.596,0c0.015,0.008,0.03,0.017,0.046,0.025
				c-0.09-0.118-0.181-0.235-0.271-0.353c0.006,0.02,0.013,0.041,0.019,0.061c0.225,0.725,1.365,0.415,1.139-0.314
				c-0.223-0.719-1.289-0.637-1.289,0.157s1.065,0.876,1.289,0.157C27.927,7.035,26.787,6.726,26.562,7.451z"/>
		</g>
	</g>
	<g>
		<g>
			<path d="M3.593,41.639c0.211-0.111,0.407-0.314,0.587-0.468c0.882-0.757,1.725-1.561,2.571-2.358
				c0.555-0.523-0.282-1.357-0.835-0.835c-0.828,0.782-1.657,1.565-2.517,2.312c-0.133,0.116-0.267,0.23-0.406,0.339
				c0.168-0.132,0.051-0.034,0.005-0.009C2.323,40.975,2.92,41.994,3.593,41.639L3.593,41.639z"/>
		</g>
	</g>
	<g>
		<path fill="#FFFFFF" d="M21.098,26.966c0-0.048,0.029-0.086,0.065-0.086s0.065,0.039,0.065,0.086"/>
		<g>
			<path d="M21.668,27.123c0.006-0.02,0.013-0.041,0.019-0.061c-0.09,0.118-0.181,0.235-0.271,0.353
				c0.015-0.008,0.03-0.017,0.046-0.025c-0.199,0-0.397,0-0.596,0c0.015,0.008,0.03,0.017,0.046,0.025
				c-0.09-0.118-0.181-0.235-0.271-0.353c0.006,0.02,0.013,0.041,0.019,0.061c0.225,0.725,1.365,0.415,1.139-0.314
				c-0.207-0.666-1.061-0.666-1.268,0C20.303,27.539,21.443,27.848,21.668,27.123L21.668,27.123z"/>
		</g>
	</g>
	<g>
		<path fill="#FFFFFF" d="M29.266,27.218c0-0.048,0.029-0.086,0.065-0.086s0.065,0.039,0.065,0.086"/>
		<g>
			<path d="M29.835,27.375c0.006-0.02,0.013-0.041,0.019-0.061c-0.09,0.118-0.181,0.235-0.271,0.353
				c0.015-0.008,0.03-0.017,0.046-0.025c-0.199,0-0.397,0-0.596,0c0.015,0.008,0.03,0.017,0.046,0.025
				c-0.09-0.118-0.181-0.235-0.271-0.353c0.006,0.02,0.013,0.041,0.019,0.061c0.225,0.725,1.365,0.415,1.139-0.314
				c-0.207-0.666-1.061-0.666-1.268,0C28.47,27.79,29.61,28.099,29.835,27.375L29.835,27.375z"/>
		</g>
	</g>
</g>
<g>
	<g>
		<path fill="#FFFFFF" d="M51.438,37.723c0,0,3.993-2.81,6.38-7.291c1.324-2.486,1.902-5.739,3.19-8.203
			c1.777-3.399,5.022-5.773,6.868-5.336c0,0-3.698-7.148-3.053-11.804c0.398-2.873,4.076-5.913,8.344-4.884
			c2.581,0.622,5.902,2.239,9.972,6.92l-2.035,1.018l-0.407,7.937c0,0,2.116,1.598,4.007,4.935
			c2.582,4.557,5.772,9.57,13.215,15.038"/>
		<g>
			<path d="M51.736,38.232c2.719-1.948,4.961-4.599,6.592-7.503c1.438-2.562,1.91-5.564,3.19-8.203
				c1.032-2.128,3.656-5.395,6.358-5.044c0.478,0.062,0.689-0.538,0.51-0.888c-1.757-3.435-4.311-9.048-2.501-12.814
				c1.625-3.379,5.799-3.596,8.854-2.463c3.195,1.186,5.764,3.734,7.983,6.223c0.04-0.309,0.08-0.618,0.119-0.927
				c-0.678,0.339-1.357,0.678-2.035,1.018c-0.189,0.095-0.282,0.31-0.292,0.51c-0.108,2.102-0.216,4.204-0.323,6.305
				c-0.11,2.151,0.308,2.077,1.784,3.709c2.505,2.769,3.958,6.428,6.253,9.386c2.693,3.471,5.881,6.394,9.393,9.02
				c0.611,0.456,1.198-0.569,0.596-1.019c-3.919-2.93-7.388-6.278-10.204-10.291c-2.04-2.908-3.472-6.17-5.966-8.747
				c-0.279-0.288-0.58-0.556-0.89-0.809c0.295,0.241,0.128,0.422,0.16-0.204c0.066-1.292,0.132-2.584,0.199-3.876
				c0.054-1.044,0.107-2.088,0.161-3.133c0.033-0.648-0.508,0.285,0.129-0.033c0.544-0.272,1.088-0.544,1.632-0.816
				c0.358-0.179,0.358-0.66,0.119-0.927C79.368,2.008,72.1-3.702,66.095,1.592c-4.273,3.767-0.818,11.514,1.271,15.599
				c0.17-0.296,0.34-0.592,0.51-0.888c-4.12-0.536-7.169,4.788-8.362,7.93c-1.313,3.457-2.264,6.591-4.678,9.491
				c-1.07,1.285-2.332,2.513-3.695,3.489C50.527,37.652,51.116,38.677,51.736,38.232L51.736,38.232z"/>
		</g>
	</g>
	<g>
		<path fill="#FFFFFF" d="M80.603,22.077c0,0,5.59,15.778,0.298,32.873l4.477,1.628l-22.997,1.628c0,0,4.833-25.263,4.019-33.403
			c0,0-1.007,4.91-4.632,10.793c-1.741,2.826-3.494,4.861-7.595,7.139"/>
		<g>
			<path d="M80.034,22.234c3.581,10.237,3.364,22.283,0.298,32.559c-0.098,0.327,0.115,0.618,0.412,0.726
				c1.492,0.543,2.985,1.085,4.477,1.628c0.052-0.387,0.105-0.773,0.157-1.16c-7.666,0.543-15.331,1.085-22.997,1.628
				c0.19,0.249,0.38,0.498,0.569,0.747c0.865-4.532,1.622-9.087,2.315-13.649c0.98-6.458,2.307-13.359,1.725-19.911
				c-0.055-0.624-1.012-0.85-1.16-0.157c-1.514,7.106-5.614,13.943-11.956,17.58c-0.66,0.379-0.066,1.399,0.596,1.019
				c6.611-3.79,10.919-10.873,12.498-18.285c-0.387-0.052-0.773-0.105-1.16-0.157c0.573,6.451-0.73,13.243-1.683,19.598
				c-0.684,4.562-1.449,9.117-2.315,13.649c-0.067,0.351,0.16,0.776,0.569,0.747c7.666-0.543,15.331-1.085,22.997-1.628
				c0.677-0.048,0.788-0.93,0.157-1.16c-1.492-0.543-2.985-1.085-4.477-1.628c0.137,0.242,0.275,0.484,0.412,0.726
				c3.124-10.471,3.35-22.759-0.298-33.187C80.922,21.206,79.781,21.513,80.034,22.234L80.034,22.234z"/>
		</g>
	</g>
	<g>
		<line fill="#FFFFFF" x1="73.981" y1="40.908" x2="72.353" y2="57.189"/>
		<g>
			<path d="M73.391,40.908c-0.543,5.427-1.085,10.854-1.628,16.281c-0.076,0.758,1.106,0.75,1.181,0
				c0.543-5.427,1.085-10.854,1.628-16.281C74.648,40.15,73.466,40.157,73.391,40.908L73.391,40.908z"/>
		</g>
	</g>
	<g>
		<line fill="#FFFFFF" x1="93.137" y1="35.919" x2="96.175" y2="38.502"/>
		<g>
			<path d="M92.719,36.337c1.013,0.861,2.025,1.722,3.038,2.582c0.576,0.49,1.416-0.341,0.835-0.835
				c-1.013-0.861-2.025-1.722-3.038-2.582C92.978,35.012,92.138,35.843,92.719,36.337L92.719,36.337z"/>
		</g>
	</g>
	<g>
		<g>
			<path d="M81.895,27.963c4.162,4.559,6.959,10.087,12.119,13.763c0.622,0.443,1.21-0.582,0.596-1.019
				c-5.054-3.601-7.8-9.109-11.881-13.579C82.216,26.565,81.383,27.402,81.895,27.963L81.895,27.963z"/>
		</g>
	</g>
	<g>
		<g>
			<path d="M69.749,8.095c1.509,4.184,6.627,5.337,10.541,5.114c0.757-0.043,0.761-1.224,0-1.181
				c-3.325,0.189-8.103-0.642-9.403-4.247C70.631,7.071,69.49,7.377,69.749,8.095L69.749,8.095z"/>
		</g>
	</g>
	<g>
		<ellipse fill="#FFFFFF" cx="76.273" cy="7.087" rx="0.065" ry="0.086"/>
		<g>
			<path d="M75.769,6.93c-0.006,0.02-0.013,0.041-0.019,0.061c0.09-0.118,0.181-0.235,0.271-0.353
				c-0.015,0.008-0.03,0.017-0.046,0.025c0.199,0,0.397,0,0.596,0c-0.015-0.008-0.03-0.017-0.046-0.025
				c0.09,0.118,0.181,0.235,0.271,0.353c0,0.064,0,0.128,0,0.192c-0.09,0.118-0.181,0.235-0.271,0.353
				c0.015-0.008,0.03-0.017,0.046-0.025c-0.199,0-0.397,0-0.596,0c0.015,0.008,0.03,0.017,0.046,0.025
				C75.931,7.418,75.84,7.3,75.75,7.183c0.006,0.02,0.013,0.041,0.019,0.061c0.225,0.725,1.365,0.415,1.139-0.314
				c-0.223-0.719-1.289-0.637-1.289,0.157s1.065,0.876,1.289,0.157C77.134,6.515,75.994,6.205,75.769,6.93z"/>
		</g>
	</g>
	<g>
		<g>
			<path d="M52.8,41.118c0.211-0.111,0.407-0.314,0.587-0.468c0.882-0.757,1.725-1.561,2.571-2.358
				c0.555-0.523-0.282-1.357-0.835-0.835c-0.828,0.782-1.657,1.565-2.517,2.312c-0.133,0.116-0.267,0.23-0.406,0.339
				c0.168-0.132,0.051-0.034,0.005-0.009C51.53,40.454,52.127,41.473,52.8,41.118L52.8,41.118z"/>
		</g>
	</g>
	<g>
		<path fill="#FFFFFF" d="M70.305,26.445c0-0.048,0.029-0.086,0.065-0.086s0.065,0.039,0.065,0.086"/>
		<g>
			<path d="M70.875,26.602c0.006-0.02,0.013-0.041,0.019-0.061c-0.09,0.118-0.181,0.235-0.271,0.353
				c0.015-0.008,0.03-0.017,0.046-0.025c-0.199,0-0.397,0-0.596,0c0.015,0.008,0.03,0.017,0.046,0.025
				c-0.09-0.118-0.181-0.235-0.271-0.353c0.006,0.02,0.013,0.041,0.019,0.061c0.225,0.725,1.365,0.415,1.139-0.314
				c-0.207-0.666-1.061-0.666-1.268,0C69.51,27.018,70.65,27.327,70.875,26.602L70.875,26.602z"/>
		</g>
	</g>
	<g>
		<path fill="#FFFFFF" d="M78.473,26.697c0-0.048,0.029-0.086,0.065-0.086c0.036,0,0.065,0.039,0.065,0.086"/>
		<g>
			<path d="M79.042,26.854c0.006-0.02,0.013-0.041,0.019-0.061c-0.09,0.118-0.181,0.235-0.271,0.353
				c0.015-0.008,0.03-0.017,0.046-0.025c-0.199,0-0.397,0-0.596,0c0.015,0.008,0.03,0.017,0.046,0.025
				c-0.09-0.118-0.181-0.235-0.271-0.353c0.006,0.02,0.013,0.041,0.019,0.061c0.225,0.725,1.365,0.415,1.139-0.314
				c-0.207-0.666-1.061-0.666-1.268,0C77.677,27.269,78.817,27.579,79.042,26.854L79.042,26.854z"/>
		</g>
	</g>
</g>
<g>
	<g>
		<path fill="#FFFFFF" d="M102.064,37.723c0,0,3.993-2.81,6.38-7.291c1.324-2.486,1.902-5.739,3.19-8.203
			c1.777-3.399,5.022-5.773,6.868-5.336c0,0-3.698-7.148-3.053-11.804c0.398-2.873,4.076-5.913,8.344-4.884
			c2.581,0.622,5.902,2.239,9.972,6.92l-2.035,1.018l-0.407,7.937c0,0,2.116,1.598,4.007,4.935
			c2.582,4.557,5.772,9.57,13.215,15.038"/>
		<g>
			<path d="M102.362,38.232c2.719-1.948,4.961-4.599,6.592-7.503c1.438-2.562,1.91-5.564,3.19-8.203
				c1.032-2.128,3.656-5.395,6.358-5.044c0.478,0.062,0.689-0.538,0.51-0.888c-1.757-3.435-4.311-9.048-2.501-12.814
				c1.625-3.379,5.799-3.596,8.854-2.463c3.195,1.186,5.764,3.734,7.983,6.223c0.04-0.309,0.08-0.618,0.119-0.927
				c-0.678,0.339-1.357,0.678-2.035,1.018c-0.189,0.095-0.282,0.31-0.292,0.51c-0.108,2.102-0.216,4.204-0.323,6.305
				c-0.11,2.151,0.308,2.077,1.784,3.709c2.505,2.769,3.958,6.428,6.253,9.386c2.693,3.471,5.881,6.394,9.393,9.02
				c0.611,0.456,1.198-0.569,0.596-1.019c-3.919-2.93-7.388-6.278-10.204-10.291c-2.04-2.908-3.472-6.17-5.966-8.747
				c-0.279-0.288-0.58-0.556-0.89-0.809c0.295,0.241,0.128,0.422,0.16-0.204c0.066-1.292,0.132-2.584,0.199-3.876
				c0.054-1.044,0.107-2.088,0.161-3.133c0.033-0.648-0.508,0.285,0.129-0.033c0.544-0.272,1.088-0.544,1.632-0.816
				c0.358-0.179,0.358-0.66,0.119-0.927c-4.189-4.699-11.457-10.409-17.462-5.115c-4.273,3.767-0.818,11.514,1.271,15.599
				c0.17-0.296,0.34-0.592,0.51-0.888c-4.12-0.536-7.169,4.788-8.362,7.93c-1.313,3.457-2.264,6.591-4.678,9.491
				c-1.07,1.285-2.332,2.513-3.695,3.489C101.153,37.652,101.742,38.677,102.362,38.232L102.362,38.232z"/>
		</g>
	</g>
	<g>
		<path fill="#FFFFFF" d="M131.229,22.077c0,0,5.59,15.778,0.298,32.873l4.477,1.628l-22.997,1.628c0,0,4.833-25.263,4.019-33.403
			c0,0-1.007,4.91-4.632,10.793c-1.741,2.826-3.494,4.861-7.595,7.139"/>
		<g>
			<path d="M130.659,22.234c3.581,10.237,3.364,22.283,0.298,32.559c-0.098,0.327,0.115,0.618,0.412,0.726
				c1.492,0.543,2.985,1.085,4.477,1.628c0.052-0.387,0.105-0.773,0.157-1.16c-7.666,0.543-15.331,1.085-22.997,1.628
				c0.19,0.249,0.38,0.498,0.569,0.747c0.865-4.532,1.622-9.087,2.315-13.649c0.98-6.458,2.307-13.359,1.725-19.911
				c-0.055-0.624-1.012-0.85-1.16-0.157c-1.514,7.106-5.614,13.943-11.956,17.58c-0.66,0.379-0.066,1.399,0.596,1.019
				c6.611-3.79,10.919-10.873,12.498-18.285c-0.387-0.052-0.773-0.105-1.16-0.157c0.573,6.451-0.73,13.243-1.683,19.598
				c-0.684,4.562-1.449,9.117-2.315,13.649c-0.067,0.351,0.16,0.776,0.569,0.747c7.666-0.543,15.331-1.085,22.997-1.628
				c0.677-0.048,0.788-0.93,0.157-1.16c-1.492-0.543-2.985-1.085-4.477-1.628c0.137,0.242,0.275,0.484,0.412,0.726
				c3.124-10.471,3.35-22.759-0.298-33.187C131.548,21.206,130.407,21.513,130.659,22.234L130.659,22.234z"/>
		</g>
	</g>
	<g>
		<line fill="#FFFFFF" x1="124.607" y1="40.908" x2="122.979" y2="57.189"/>
		<g>
			<path d="M124.017,40.908c-0.543,5.427-1.085,10.854-1.628,16.281c-0.076,0.758,1.106,0.75,1.181,0
				c0.543-5.427,1.085-10.854,1.628-16.281C125.273,40.15,124.092,40.157,124.017,40.908L124.017,40.908z"/>
		</g>
	</g>
	<g>
		<line fill="#FFFFFF" x1="143.763" y1="35.919" x2="146.801" y2="38.502"/>
		<g>
			<path d="M143.345,36.337c1.013,0.861,2.025,1.722,3.038,2.582c0.576,0.49,1.416-0.341,0.835-0.835
				c-1.013-0.861-2.025-1.722-3.038-2.582C143.604,35.012,142.764,35.843,143.345,36.337L143.345,36.337z"/>
		</g>
	</g>
	<g>
		<g>
			<path d="M132.521,27.963c4.162,4.559,6.959,10.087,12.119,13.763c0.622,0.443,1.21-0.582,0.596-1.019
				c-5.054-3.601-7.8-9.109-11.881-13.579C132.842,26.565,132.009,27.402,132.521,27.963L132.521,27.963z"/>
		</g>
	</g>
	<g>
		<g>
			<path d="M120.375,8.095c1.509,4.184,6.627,5.337,10.542,5.114c0.757-0.043,0.761-1.224,0-1.181
				c-3.325,0.189-8.103-0.642-9.403-4.247C121.257,7.071,120.116,7.377,120.375,8.095L120.375,8.095z"/>
		</g>
	</g>
	<g>
		<ellipse fill="#FFFFFF" cx="126.899" cy="7.087" rx="0.065" ry="0.086"/>
		<g>
			<path d="M126.395,6.93c-0.006,0.02-0.013,0.041-0.019,0.061c0.09-0.118,0.181-0.235,0.271-0.353
				c-0.015,0.008-0.03,0.017-0.046,0.025c0.199,0,0.397,0,0.596,0c-0.015-0.008-0.03-0.017-0.046-0.025
				c0.09,0.118,0.181,0.235,0.271,0.353c0,0.064,0,0.128,0,0.192c-0.09,0.118-0.181,0.235-0.271,0.353
				c0.015-0.008,0.03-0.017,0.046-0.025c-0.199,0-0.397,0-0.596,0c0.015,0.008,0.03,0.017,0.046,0.025
				c-0.09-0.118-0.181-0.235-0.271-0.353c0.006,0.02,0.013,0.041,0.019,0.061c0.225,0.725,1.365,0.415,1.139-0.314
				c-0.223-0.719-1.289-0.637-1.289,0.157s1.065,0.876,1.289,0.157C127.76,6.515,126.62,6.205,126.395,6.93z"/>
		</g>
	</g>
	<g>
		<g>
			<path d="M103.425,41.118c0.211-0.111,0.407-0.314,0.587-0.468c0.882-0.757,1.725-1.561,2.571-2.358
				c0.555-0.523-0.282-1.357-0.835-0.835c-0.828,0.782-1.657,1.565-2.517,2.312c-0.133,0.116-0.267,0.23-0.406,0.339
				c0.168-0.132,0.051-0.034,0.005-0.009C102.156,40.454,102.752,41.473,103.425,41.118L103.425,41.118z"/>
		</g>
	</g>
	<g>
		<path fill="#FFFFFF" d="M120.931,26.445c0-0.048,0.029-0.086,0.065-0.086s0.065,0.039,0.065,0.086"/>
		<g>
			<path d="M121.5,26.602c0.006-0.02,0.013-0.041,0.019-0.061c-0.09,0.118-0.181,0.235-0.271,0.353
				c0.015-0.008,0.03-0.017,0.046-0.025c-0.199,0-0.397,0-0.596,0c0.015,0.008,0.03,0.017,0.046,0.025
				c-0.09-0.118-0.181-0.235-0.271-0.353c0.006,0.02,0.013,0.041,0.019,0.061c0.225,0.725,1.365,0.415,1.139-0.314
				c-0.207-0.666-1.061-0.666-1.268,0C120.135,27.018,121.275,27.327,121.5,26.602L121.5,26.602z"/>
		</g>
	</g>
	<g>
		<path fill="#FFFFFF" d="M129.099,26.697c0-0.048,0.029-0.086,0.065-0.086s0.065,0.039,0.065,0.086"/>
		<g>
			<path d="M129.668,26.854c0.006-0.02,0.013-0.041,0.019-0.061c-0.09,0.118-0.181,0.235-0.271,0.353
				c0.015-0.008,0.03-0.017,0.046-0.025c-0.199,0-0.397,0-0.596,0c0.015,0.008,0.03,0.017,0.046,0.025
				c-0.09-0.118-0.181-0.235-0.271-0.353c0.006,0.02,0.013,0.041,0.019,0.061c0.225,0.725,1.365,0.415,1.139-0.314
				c-0.207-0.666-1.061-0.666-1.268,0C128.303,27.269,129.443,27.579,129.668,26.854L129.668,26.854z"/>
		</g>
	</g>
</g>
<g>
	<g>
		<path fill="#FFFFFF" d="M152.861,37.723c0,0,3.993-2.81,6.38-7.291c1.324-2.486,1.902-5.739,3.19-8.203
			c1.777-3.399,5.022-5.773,6.868-5.336c0,0-3.698-7.148-3.053-11.804c0.398-2.873,4.076-5.913,8.344-4.884
			c2.581,0.622,5.902,2.239,9.972,6.92l-2.035,1.018l-0.407,7.937c0,0,2.116,1.598,4.007,4.935
			c2.582,4.557,5.772,9.57,13.215,15.038"/>
		<g>
			<path d="M153.159,38.232c2.719-1.948,4.961-4.599,6.592-7.503c1.438-2.562,1.91-5.564,3.19-8.203
				c1.032-2.128,3.656-5.395,6.358-5.044c0.478,0.062,0.689-0.538,0.51-0.888c-1.757-3.435-4.311-9.048-2.501-12.814
				c1.625-3.379,5.799-3.596,8.854-2.463c3.195,1.186,5.764,3.734,7.983,6.223c0.04-0.309,0.08-0.618,0.119-0.927
				c-0.678,0.339-1.357,0.678-2.035,1.018c-0.189,0.095-0.282,0.31-0.292,0.51c-0.108,2.102-0.216,4.204-0.323,6.305
				c-0.11,2.151,0.308,2.077,1.784,3.709c2.505,2.769,3.958,6.428,6.253,9.386c2.693,3.471,5.881,6.394,9.393,9.02
				c0.611,0.456,1.198-0.569,0.596-1.019c-3.919-2.93-7.388-6.278-10.204-10.291c-2.04-2.908-3.472-6.17-5.966-8.747
				c-0.279-0.288-0.58-0.556-0.89-0.809c0.295,0.241,0.128,0.422,0.16-0.204c0.066-1.292,0.132-2.584,0.199-3.876
				c0.054-1.044,0.107-2.088,0.161-3.133c0.033-0.648-0.508,0.285,0.129-0.033c0.544-0.272,1.088-0.544,1.632-0.816
				c0.358-0.179,0.358-0.66,0.119-0.927c-4.189-4.699-11.457-10.409-17.462-5.115c-4.273,3.767-0.818,11.514,1.271,15.599
				c0.17-0.296,0.34-0.592,0.51-0.888c-4.12-0.536-7.169,4.788-8.362,7.93c-1.313,3.457-2.264,6.591-4.678,9.491
				c-1.07,1.285-2.332,2.513-3.695,3.489C151.95,37.652,152.539,38.677,153.159,38.232L153.159,38.232z"/>
		</g>
	</g>
	<g>
		<path fill="#FFFFFF" d="M182.026,22.077c0,0,5.59,15.778,0.298,32.873l4.477,1.628l-22.997,1.628c0,0,4.833-25.263,4.019-33.403
			c0,0-1.007,4.91-4.632,10.793c-1.741,2.826-3.494,4.861-7.595,7.139"/>
		<g>
			<path d="M181.457,22.234c3.581,10.237,3.364,22.283,0.298,32.559c-0.098,0.327,0.115,0.618,0.412,0.726
				c1.492,0.543,2.985,1.085,4.477,1.628c0.052-0.387,0.105-0.773,0.157-1.16c-7.666,0.543-15.331,1.085-22.997,1.628
				c0.19,0.249,0.38,0.498,0.569,0.747c0.865-4.532,1.622-9.087,2.315-13.649c0.98-6.458,2.307-13.359,1.725-19.911
				c-0.055-0.624-1.012-0.85-1.16-0.157c-1.514,7.106-5.614,13.943-11.956,17.58c-0.66,0.379-0.066,1.399,0.596,1.019
				c6.611-3.79,10.919-10.873,12.498-18.285c-0.387-0.052-0.773-0.105-1.16-0.157c0.573,6.451-0.73,13.243-1.683,19.598
				c-0.684,4.562-1.449,9.117-2.315,13.649c-0.067,0.351,0.16,0.776,0.569,0.747c7.666-0.543,15.331-1.085,22.997-1.628
				c0.677-0.048,0.788-0.93,0.157-1.16c-1.492-0.543-2.985-1.085-4.477-1.628c0.137,0.242,0.275,0.484,0.412,0.726
				c3.124-10.471,3.35-22.759-0.298-33.187C182.346,21.206,181.205,21.513,181.457,22.234L181.457,22.234z"/>
		</g>
	</g>
	<g>
		<line fill="#FFFFFF" x1="175.405" y1="40.908" x2="173.776" y2="57.189"/>
		<g>
			<path d="M174.814,40.908c-0.543,5.427-1.085,10.854-1.628,16.281c-0.076,0.758,1.106,0.75,1.181,0
				c0.543-5.427,1.085-10.854,1.628-16.281C176.071,40.15,174.889,40.157,174.814,40.908L174.814,40.908z"/>
		</g>
	</g>
	<g>
		<line fill="#FFFFFF" x1="194.56" y1="35.919" x2="197.598" y2="38.502"/>
		<g>
			<path d="M194.143,36.337c1.013,0.861,2.025,1.722,3.038,2.582c0.576,0.49,1.416-0.341,0.835-0.835
				c-1.013-0.861-2.025-1.722-3.038-2.582C194.401,35.012,193.562,35.843,194.143,36.337L194.143,36.337z"/>
		</g>
	</g>
	<g>
		<g>
			<path d="M183.319,27.963c4.162,4.559,6.959,10.087,12.119,13.763c0.622,0.443,1.21-0.582,0.596-1.019
				c-5.054-3.601-7.8-9.109-11.88-13.579C183.639,26.565,182.806,27.402,183.319,27.963L183.319,27.963z"/>
		</g>
	</g>
	<g>
		<g>
			<path d="M171.172,8.095c1.509,4.184,6.627,5.337,10.542,5.114c0.757-0.043,0.761-1.224,0-1.181
				c-3.325,0.189-8.103-0.642-9.403-4.247C172.054,7.071,170.913,7.377,171.172,8.095L171.172,8.095z"/>
		</g>
	</g>
	<g>
		<ellipse fill="#FFFFFF" cx="177.697" cy="7.087" rx="0.065" ry="0.086"/>
		<g>
			<path d="M177.192,6.93c-0.006,0.02-0.013,0.041-0.019,0.061c0.09-0.118,0.181-0.235,0.271-0.353
				c-0.015,0.008-0.03,0.017-0.046,0.025c0.199,0,0.397,0,0.596,0c-0.015-0.008-0.03-0.017-0.046-0.025
				c0.09,0.118,0.181,0.235,0.271,0.353c0,0.064,0,0.128,0,0.192c-0.09,0.118-0.181,0.235-0.271,0.353
				c0.015-0.008,0.03-0.017,0.046-0.025c-0.199,0-0.397,0-0.596,0c0.015,0.008,0.03,0.017,0.046,0.025
				c-0.09-0.118-0.181-0.235-0.271-0.353c0.006,0.02,0.013,0.041,0.019,0.061c0.225,0.725,1.365,0.415,1.139-0.314
				c-0.223-0.719-1.289-0.637-1.289,0.157s1.065,0.876,1.289,0.157C178.557,6.515,177.417,6.205,177.192,6.93z"/>
		</g>
	</g>
	<g>
		<g>
			<path d="M154.223,41.118c0.211-0.111,0.407-0.314,0.587-0.468c0.882-0.757,1.725-1.561,2.57-2.358
				c0.555-0.523-0.282-1.357-0.835-0.835c-0.828,0.782-1.657,1.565-2.517,2.312c-0.133,0.116-0.267,0.23-0.406,0.339
				c0.168-0.132,0.051-0.034,0.005-0.009C152.953,40.454,153.55,41.473,154.223,41.118L154.223,41.118z"/>
		</g>
	</g>
	<g>
		<path fill="#FFFFFF" d="M171.729,26.445c0-0.048,0.029-0.086,0.065-0.086s0.065,0.039,0.065,0.086"/>
		<g>
			<path d="M172.298,26.602c0.006-0.02,0.013-0.041,0.019-0.061c-0.09,0.118-0.181,0.235-0.271,0.353
				c0.015-0.008,0.03-0.017,0.046-0.025c-0.199,0-0.397,0-0.596,0c0.015,0.008,0.03,0.017,0.046,0.025
				c-0.09-0.118-0.181-0.235-0.271-0.353c0.006,0.02,0.013,0.041,0.019,0.061c0.225,0.725,1.365,0.415,1.139-0.314
				c-0.207-0.666-1.061-0.666-1.268,0C170.933,27.018,172.073,27.327,172.298,26.602L172.298,26.602z"/>
		</g>
	</g>
	<g>
		<path fill="#FFFFFF" d="M179.896,26.697c0-0.048,0.029-0.086,0.065-0.086s0.065,0.039,0.065,0.086"/>
		<g>
			<path d="M180.465,26.854c0.006-0.02,0.013-0.041,0.019-0.061c-0.09,0.118-0.181,0.235-0.271,0.353
				c0.015-0.008,0.03-0.017,0.046-0.025c-0.199,0-0.397,0-0.596,0c0.015,0.008,0.03,0.017,0.046,0.025
				c-0.09-0.118-0.181-0.235-0.271-0.353c0.006,0.02,0.013,0.041,0.019,0.061c0.225,0.725,1.365,0.415,1.139-0.314
				c-0.207-0.666-1.061-0.666-1.268,0C179.1,27.269,180.24,27.579,180.465,26.854L180.465,26.854z"/>
		</g>
	</g>
</g>
<g>
	<g>
		<path fill="#FFFFFF" d="M204.44,37.723c0,0,3.993-2.81,6.38-7.291c1.324-2.486,1.902-5.739,3.19-8.203
			c1.777-3.399,5.022-5.773,6.868-5.336c0,0-3.698-7.148-3.053-11.804c0.398-2.873,4.076-5.913,8.344-4.884
			c2.581,0.622,5.902,2.239,9.972,6.92l-2.035,1.018l-0.407,7.937c0,0,2.116,1.598,4.007,4.935
			c2.582,4.557,5.772,9.57,13.215,15.038"/>
		<g>
			<path d="M204.738,38.232c2.719-1.948,4.961-4.599,6.592-7.503c1.438-2.562,1.91-5.564,3.19-8.203
				c1.032-2.128,3.656-5.395,6.358-5.044c0.478,0.062,0.689-0.538,0.51-0.888c-1.757-3.435-4.311-9.048-2.501-12.814
				c1.625-3.379,5.799-3.596,8.854-2.463c3.195,1.186,5.764,3.734,7.983,6.223c0.04-0.309,0.08-0.618,0.119-0.927
				c-0.678,0.339-1.357,0.678-2.035,1.018c-0.189,0.095-0.282,0.31-0.292,0.51c-0.108,2.102-0.216,4.204-0.323,6.305
				c-0.11,2.151,0.308,2.077,1.784,3.709c2.505,2.769,3.958,6.428,6.253,9.386c2.693,3.471,5.881,6.394,9.393,9.02
				c0.611,0.456,1.198-0.569,0.596-1.019c-3.919-2.93-7.388-6.278-10.204-10.291c-2.04-2.908-3.472-6.17-5.966-8.747
				c-0.279-0.288-0.58-0.556-0.89-0.809c0.295,0.241,0.128,0.422,0.16-0.204c0.066-1.292,0.133-2.584,0.199-3.876
				c0.054-1.044,0.107-2.088,0.161-3.133c0.033-0.648-0.508,0.285,0.129-0.033c0.544-0.272,1.088-0.544,1.632-0.816
				c0.358-0.179,0.358-0.66,0.119-0.927c-4.189-4.699-11.457-10.409-17.462-5.115c-4.273,3.767-0.818,11.514,1.271,15.599
				c0.17-0.296,0.34-0.592,0.51-0.888c-4.12-0.536-7.169,4.788-8.362,7.93c-1.313,3.457-2.264,6.591-4.678,9.491
				c-1.07,1.285-2.332,2.513-3.695,3.489C203.529,37.652,204.117,38.677,204.738,38.232L204.738,38.232z"/>
		</g>
	</g>
	<g>
		<path fill="#FFFFFF" d="M233.604,22.077c0,0,5.59,15.778,0.298,32.873l4.477,1.628l-22.997,1.628c0,0,4.833-25.263,4.019-33.403
			c0,0-1.007,4.91-4.632,10.793c-1.741,2.826-3.494,4.861-7.595,7.139"/>
		<g>
			<path d="M233.035,22.234c3.581,10.237,3.364,22.283,0.298,32.559c-0.098,0.327,0.115,0.618,0.412,0.726
				c1.492,0.543,2.985,1.085,4.477,1.628c0.052-0.387,0.105-0.773,0.157-1.16c-7.666,0.543-15.331,1.085-22.997,1.628
				c0.19,0.249,0.38,0.498,0.569,0.747c0.865-4.532,1.622-9.087,2.315-13.649c0.98-6.458,2.307-13.359,1.725-19.911
				c-0.055-0.624-1.012-0.85-1.16-0.157c-1.514,7.106-5.614,13.943-11.956,17.58c-0.66,0.379-0.066,1.399,0.596,1.019
				c6.611-3.79,10.919-10.873,12.498-18.285c-0.387-0.052-0.773-0.105-1.16-0.157c0.573,6.451-0.73,13.243-1.683,19.598
				c-0.684,4.562-1.449,9.117-2.315,13.649c-0.067,0.351,0.16,0.776,0.569,0.747c7.666-0.543,15.331-1.085,22.997-1.628
				c0.677-0.048,0.788-0.93,0.157-1.16c-1.492-0.543-2.985-1.085-4.477-1.628c0.137,0.242,0.275,0.484,0.412,0.726
				c3.124-10.471,3.35-22.759-0.298-33.187C233.924,21.206,232.783,21.513,233.035,22.234L233.035,22.234z"/>
		</g>
	</g>
	<g>
		<line fill="#FFFFFF" x1="226.983" y1="40.908" x2="225.355" y2="57.189"/>
		<g>
			<path d="M226.393,40.908c-0.543,5.427-1.085,10.854-1.628,16.281c-0.076,0.758,1.106,0.75,1.181,0
				c0.543-5.427,1.085-10.854,1.628-16.281C227.649,40.15,226.468,40.157,226.393,40.908L226.393,40.908z"/>
		</g>
	</g>
	<g>
		<line fill="#FFFFFF" x1="246.139" y1="35.919" x2="249.176" y2="38.502"/>
		<g>
			<path d="M245.721,36.337c1.013,0.861,2.025,1.722,3.038,2.582c0.576,0.49,1.416-0.341,0.835-0.835
				c-1.013-0.861-2.025-1.722-3.038-2.582C245.98,35.012,245.14,35.843,245.721,36.337L245.721,36.337z"/>
		</g>
	</g>
	<g>
		<g>
			<path d="M234.897,27.963c4.162,4.559,6.959,10.087,12.119,13.763c0.622,0.443,1.21-0.582,0.596-1.019
				c-5.054-3.601-7.8-9.109-11.88-13.579C235.218,26.565,234.385,27.402,234.897,27.963L234.897,27.963z"/>
		</g>
	</g>
	<g>
		<g>
			<path d="M222.751,8.095c1.509,4.184,6.627,5.337,10.542,5.114c0.757-0.043,0.761-1.224,0-1.181
				c-3.325,0.189-8.103-0.642-9.403-4.247C223.633,7.071,222.492,7.377,222.751,8.095L222.751,8.095z"/>
		</g>
	</g>
	<g>
		<ellipse fill="#FFFFFF" cx="229.275" cy="7.087" rx="0.065" ry="0.086"/>
		<g>
			<path d="M228.77,6.93c-0.006,0.02-0.013,0.041-0.019,0.061c0.09-0.118,0.181-0.235,0.271-0.353
				c-0.015,0.008-0.03,0.017-0.046,0.025c0.199,0,0.397,0,0.596,0c-0.015-0.008-0.03-0.017-0.046-0.025
				c0.09,0.118,0.181,0.235,0.271,0.353c0,0.064,0,0.128,0,0.192c-0.09,0.118-0.181,0.235-0.271,0.353
				c0.015-0.008,0.03-0.017,0.046-0.025c-0.199,0-0.397,0-0.596,0c0.015,0.008,0.03,0.017,0.046,0.025
				c-0.09-0.118-0.181-0.235-0.271-0.353c0.006,0.02,0.013,0.041,0.019,0.061c0.225,0.725,1.365,0.415,1.139-0.314
				c-0.223-0.719-1.289-0.637-1.289,0.157s1.065,0.876,1.289,0.157C230.135,6.515,228.995,6.205,228.77,6.93z"/>
		</g>
	</g>
	<g>
		<g>
			<path d="M205.801,41.118c0.211-0.111,0.407-0.314,0.587-0.468c0.882-0.757,1.725-1.561,2.57-2.358
				c0.555-0.523-0.282-1.357-0.835-0.835c-0.828,0.782-1.657,1.565-2.517,2.312c-0.133,0.116-0.267,0.23-0.406,0.339
				c0.168-0.132,0.051-0.034,0.005-0.009C204.531,40.454,205.128,41.473,205.801,41.118L205.801,41.118z"/>
		</g>
	</g>
	<g>
		<path fill="#FFFFFF" d="M223.307,26.445c0-0.048,0.029-0.086,0.065-0.086s0.065,0.039,0.065,0.086"/>
		<g>
			<path d="M223.876,26.602c0.006-0.02,0.013-0.041,0.019-0.061c-0.09,0.118-0.181,0.235-0.271,0.353
				c0.015-0.008,0.03-0.017,0.046-0.025c-0.199,0-0.397,0-0.596,0c0.015,0.008,0.03,0.017,0.046,0.025
				c-0.09-0.118-0.181-0.235-0.271-0.353c0.006,0.02,0.013,0.041,0.019,0.061c0.225,0.725,1.365,0.415,1.139-0.314
				c-0.207-0.666-1.061-0.666-1.268,0C222.511,27.018,223.651,27.327,223.876,26.602L223.876,26.602z"/>
		</g>
	</g>
	<g>
		<path fill="#FFFFFF" d="M231.474,26.697c0-0.048,0.029-0.086,0.065-0.086s0.065,0.039,0.065,0.086"/>
		<g>
			<path d="M232.044,26.854c0.006-0.02,0.013-0.041,0.019-0.061c-0.09,0.118-0.181,0.235-0.271,0.353
				c0.015-0.008,0.03-0.017,0.046-0.025c-0.199,0-0.397,0-0.596,0c0.015,0.008,0.03,0.017,0.046,0.025
				c-0.09-0.118-0.181-0.235-0.271-0.353c0.006,0.02,0.013,0.041,0.019,0.061c0.225,0.725,1.365,0.415,1.139-0.314
				c-0.207-0.666-1.061-0.666-1.268,0C230.679,27.269,231.819,27.579,232.044,26.854L232.044,26.854z"/>
		</g>
	</g>
</g>
<g>
	<g>
		<path fill="#FFFFFF" d="M255.066,37.723c0,0,3.993-2.81,6.38-7.291c1.324-2.486,1.902-5.739,3.19-8.203
			c1.777-3.399,5.022-5.773,6.868-5.336c0,0-3.698-7.148-3.053-11.804c0.398-2.873,4.076-5.913,8.344-4.884
			c2.581,0.622,5.902,2.239,9.972,6.92l-2.035,1.018l-0.407,7.937c0,0,2.116,1.598,4.007,4.935
			c2.582,4.557,5.772,9.57,13.215,15.038"/>
		<g>
			<path d="M255.364,38.232c2.719-1.948,4.961-4.599,6.592-7.503c1.438-2.562,1.91-5.564,3.19-8.203
				c1.032-2.128,3.656-5.395,6.358-5.044c0.478,0.062,0.689-0.538,0.51-0.888c-1.757-3.435-4.311-9.048-2.501-12.814
				c1.625-3.379,5.799-3.596,8.854-2.463c3.195,1.186,5.764,3.734,7.983,6.223c0.04-0.309,0.08-0.618,0.119-0.927
				c-0.678,0.339-1.357,0.678-2.035,1.018c-0.189,0.095-0.282,0.31-0.292,0.51c-0.108,2.102-0.216,4.204-0.323,6.305
				c-0.11,2.151,0.308,2.077,1.784,3.709c2.505,2.769,3.958,6.428,6.253,9.386c2.693,3.471,5.881,6.394,9.393,9.02
				c0.611,0.456,1.198-0.569,0.596-1.019c-3.919-2.93-7.388-6.278-10.204-10.291c-2.04-2.908-3.472-6.17-5.966-8.747
				c-0.279-0.288-0.58-0.556-0.89-0.809c0.295,0.241,0.128,0.422,0.16-0.204c0.066-1.292,0.132-2.584,0.199-3.876
				c0.054-1.044,0.107-2.088,0.161-3.133c0.033-0.648-0.508,0.285,0.129-0.033c0.544-0.272,1.088-0.544,1.632-0.816
				c0.358-0.179,0.358-0.66,0.119-0.927c-4.189-4.699-11.457-10.409-17.462-5.115c-4.273,3.767-0.818,11.514,1.271,15.599
				c0.17-0.296,0.34-0.592,0.51-0.888c-4.12-0.536-7.169,4.788-8.362,7.93c-1.313,3.457-2.264,6.591-4.678,9.491
				c-1.07,1.285-2.332,2.513-3.695,3.489C254.155,37.652,254.743,38.677,255.364,38.232L255.364,38.232z"/>
		</g>
	</g>
	<g>
		<path fill="#FFFFFF" d="M284.23,22.077c0,0,5.59,15.778,0.298,32.873l4.477,1.628l-22.997,1.628c0,0,4.833-25.263,4.019-33.403
			c0,0-1.007,4.91-4.632,10.793c-1.741,2.826-3.494,4.861-7.595,7.139"/>
		<g>
			<path d="M283.661,22.234c3.581,10.237,3.364,22.283,0.298,32.559c-0.098,0.327,0.115,0.618,0.412,0.726
				c1.492,0.543,2.985,1.085,4.477,1.628c0.052-0.387,0.105-0.773,0.157-1.16c-7.666,0.543-15.331,1.085-22.997,1.628
				c0.19,0.249,0.379,0.498,0.569,0.747c0.865-4.532,1.622-9.087,2.315-13.649c0.98-6.458,2.307-13.359,1.725-19.911
				c-0.055-0.624-1.012-0.85-1.16-0.157c-1.514,7.106-5.614,13.943-11.956,17.58c-0.66,0.379-0.066,1.399,0.596,1.019
				c6.611-3.79,10.919-10.873,12.498-18.285c-0.387-0.052-0.773-0.105-1.16-0.157c0.573,6.451-0.73,13.243-1.683,19.598
				c-0.684,4.562-1.449,9.117-2.315,13.649c-0.067,0.351,0.16,0.776,0.569,0.747c7.666-0.543,15.331-1.085,22.997-1.628
				c0.677-0.048,0.788-0.93,0.157-1.16c-1.492-0.543-2.985-1.085-4.477-1.628c0.137,0.242,0.275,0.484,0.412,0.726
				c3.124-10.471,3.35-22.759-0.298-33.187C284.55,21.206,283.409,21.513,283.661,22.234L283.661,22.234z"/>
		</g>
	</g>
	<g>
		<line fill="#FFFFFF" x1="277.609" y1="40.908" x2="275.981" y2="57.189"/>
		<g>
			<path d="M277.019,40.908c-0.543,5.427-1.085,10.854-1.628,16.281c-0.076,0.758,1.106,0.75,1.181,0
				c0.543-5.427,1.085-10.854,1.628-16.281C278.275,40.15,277.094,40.157,277.019,40.908L277.019,40.908z"/>
		</g>
	</g>
	<g>
		<line fill="#FFFFFF" x1="296.764" y1="35.919" x2="299.802" y2="38.502"/>
		<g>
			<path d="M296.347,36.337c1.013,0.861,2.025,1.722,3.038,2.582c0.576,0.49,1.416-0.341,0.835-0.835
				c-1.013-0.861-2.025-1.722-3.038-2.582C296.605,35.012,295.766,35.843,296.347,36.337L296.347,36.337z"/>
		</g>
	</g>
	<g>
		<g>
			<path d="M285.523,27.963c4.162,4.559,6.959,10.087,12.119,13.763c0.622,0.443,1.21-0.582,0.596-1.019
				c-5.054-3.601-7.8-9.109-11.881-13.579C285.843,26.565,285.011,27.402,285.523,27.963L285.523,27.963z"/>
		</g>
	</g>
	<g>
		<g>
			<path d="M273.376,8.095c1.509,4.184,6.627,5.337,10.542,5.114c0.757-0.043,0.761-1.224,0-1.181
				c-3.325,0.189-8.103-0.642-9.403-4.247C274.259,7.071,273.117,7.377,273.376,8.095L273.376,8.095z"/>
		</g>
	</g>
	<g>
		<ellipse fill="#FFFFFF" cx="279.901" cy="7.087" rx="0.065" ry="0.086"/>
		<g>
			<path d="M279.396,6.93c-0.006,0.02-0.013,0.041-0.019,0.061c0.09-0.118,0.181-0.235,0.271-0.353
				c-0.015,0.008-0.03,0.017-0.046,0.025c0.199,0,0.397,0,0.596,0c-0.015-0.008-0.03-0.017-0.046-0.025
				c0.09,0.118,0.181,0.235,0.271,0.353c0,0.064,0,0.128,0,0.192c-0.09,0.118-0.181,0.235-0.271,0.353
				c0.015-0.008,0.03-0.017,0.046-0.025c-0.199,0-0.397,0-0.596,0c0.015,0.008,0.03,0.017,0.046,0.025
				c-0.09-0.118-0.181-0.235-0.271-0.353c0.006,0.02,0.013,0.041,0.019,0.061c0.225,0.725,1.365,0.415,1.139-0.314
				c-0.223-0.719-1.289-0.637-1.289,0.157s1.065,0.876,1.289,0.157C280.761,6.515,279.621,6.205,279.396,6.93z"/>
		</g>
	</g>
	<g>
		<g>
			<path d="M256.427,41.118c0.211-0.111,0.407-0.314,0.587-0.468c0.882-0.757,1.725-1.561,2.57-2.358
				c0.555-0.523-0.282-1.357-0.835-0.835c-0.828,0.782-1.657,1.565-2.517,2.312c-0.133,0.116-0.267,0.23-0.406,0.339
				c0.168-0.132,0.051-0.034,0.005-0.009C255.157,40.454,255.754,41.473,256.427,41.118L256.427,41.118z"/>
		</g>
	</g>
	<g>
		<path fill="#FFFFFF" d="M273.933,26.445c0-0.048,0.029-0.086,0.065-0.086s0.065,0.039,0.065,0.086"/>
		<g>
			<path d="M274.502,26.602c0.006-0.02,0.013-0.041,0.019-0.061c-0.09,0.118-0.181,0.235-0.271,0.353
				c0.015-0.008,0.03-0.017,0.046-0.025c-0.199,0-0.397,0-0.596,0c0.015,0.008,0.03,0.017,0.046,0.025
				c-0.09-0.118-0.181-0.235-0.271-0.353c0.006,0.02,0.013,0.041,0.019,0.061c0.225,0.725,1.365,0.415,1.139-0.314
				c-0.207-0.666-1.061-0.666-1.268,0C273.137,27.018,274.277,27.327,274.502,26.602L274.502,26.602z"/>
		</g>
	</g>
	<g>
		<path fill="#FFFFFF" d="M282.1,26.697c0-0.048,0.029-0.086,0.065-0.086s0.065,0.039,0.065,0.086"/>
		<g>
			<path d="M282.67,26.854c0.006-0.02,0.013-0.041,0.019-0.061c-0.09,0.118-0.181,0.235-0.271,0.353
				c0.015-0.008,0.03-0.017,0.046-0.025c-0.199,0-0.397,0-0.596,0c0.015,0.008,0.03,0.017,0.046,0.025
				c-0.09-0.118-0.181-0.235-0.271-0.353c0.006,0.02,0.013,0.041,0.019,0.061c0.225,0.725,1.365,0.415,1.139-0.314
				c-0.207-0.666-1.061-0.666-1.268,0C281.305,27.269,282.444,27.579,282.67,26.854L282.67,26.854z"/>
		</g>
	</g>
</g>
<g>
	<g>
		<path fill="#FFFFFF" d="M305.863,37.723c0,0,3.993-2.81,6.38-7.291c1.324-2.486,1.902-5.739,3.19-8.203
			c1.777-3.399,5.022-5.773,6.868-5.336c0,0-3.698-7.148-3.053-11.804c0.398-2.873,4.076-5.913,8.344-4.884
			c2.581,0.622,5.902,2.239,9.972,6.92l-2.035,1.018l-0.407,7.937c0,0,2.116,1.598,4.007,4.935
			c2.582,4.557,5.772,9.57,13.215,15.038"/>
		<g>
			<path d="M306.161,38.232c2.719-1.948,4.961-4.599,6.592-7.503c1.438-2.562,1.91-5.564,3.19-8.203
				c1.032-2.128,3.656-5.395,6.358-5.044c0.478,0.062,0.689-0.538,0.51-0.888c-1.757-3.435-4.311-9.048-2.501-12.814
				c1.625-3.379,5.799-3.596,8.854-2.463c3.195,1.186,5.764,3.734,7.983,6.223c0.04-0.309,0.08-0.618,0.119-0.927
				c-0.678,0.339-1.357,0.678-2.035,1.018c-0.189,0.095-0.282,0.31-0.292,0.51c-0.108,2.102-0.216,4.204-0.323,6.305
				c-0.11,2.151,0.308,2.077,1.784,3.709c2.505,2.769,3.958,6.428,6.253,9.386c2.693,3.471,5.881,6.394,9.393,9.02
				c0.611,0.456,1.198-0.569,0.596-1.019c-3.919-2.93-7.388-6.278-10.204-10.291c-2.04-2.908-3.472-6.17-5.966-8.747
				c-0.279-0.288-0.58-0.556-0.89-0.809c0.295,0.241,0.128,0.422,0.16-0.204c0.066-1.292,0.133-2.584,0.199-3.876
				c0.054-1.044,0.107-2.088,0.161-3.133c0.033-0.648-0.508,0.285,0.129-0.033c0.544-0.272,1.088-0.544,1.632-0.816
				c0.358-0.179,0.358-0.66,0.119-0.927c-4.189-4.699-11.457-10.409-17.462-5.115c-4.273,3.767-0.818,11.514,1.271,15.599
				c0.17-0.296,0.34-0.592,0.51-0.888c-4.12-0.536-7.169,4.788-8.362,7.93c-1.313,3.457-2.264,6.591-4.678,9.491
				c-1.07,1.285-2.332,2.513-3.695,3.489C304.952,37.652,305.541,38.677,306.161,38.232L306.161,38.232z"/>
		</g>
	</g>
	<g>
		<path fill="#FFFFFF" d="M335.028,22.077c0,0,5.59,15.778,0.298,32.873l4.477,1.628l-22.997,1.628c0,0,4.833-25.263,4.019-33.403
			c0,0-1.007,4.91-4.632,10.793c-1.741,2.826-3.494,4.861-7.595,7.139"/>
		<g>
			<path d="M334.458,22.234c3.581,10.237,3.364,22.283,0.298,32.559c-0.098,0.327,0.115,0.618,0.412,0.726
				c1.492,0.543,2.985,1.085,4.477,1.628c0.052-0.387,0.105-0.773,0.157-1.16c-7.666,0.543-15.331,1.085-22.997,1.628
				c0.19,0.249,0.38,0.498,0.569,0.747c0.865-4.532,1.622-9.087,2.315-13.649c0.98-6.458,2.307-13.359,1.725-19.911
				c-0.055-0.624-1.012-0.85-1.16-0.157c-1.514,7.106-5.614,13.943-11.956,17.58c-0.66,0.379-0.066,1.399,0.596,1.019
				c6.611-3.79,10.919-10.873,12.498-18.285c-0.387-0.052-0.773-0.105-1.16-0.157c0.573,6.451-0.73,13.243-1.683,19.598
				c-0.684,4.562-1.449,9.117-2.315,13.649c-0.067,0.351,0.16,0.776,0.569,0.747c7.666-0.543,15.331-1.085,22.997-1.628
				c0.677-0.048,0.788-0.93,0.157-1.16c-1.492-0.543-2.985-1.085-4.477-1.628c0.137,0.242,0.275,0.484,0.412,0.726
				c3.124-10.471,3.35-22.759-0.298-33.187C335.347,21.206,334.206,21.513,334.458,22.234L334.458,22.234z"/>
		</g>
	</g>
	<g>
		<line fill="#FFFFFF" x1="328.406" y1="40.908" x2="326.778" y2="57.189"/>
		<g>
			<path d="M327.816,40.908c-0.543,5.427-1.085,10.854-1.628,16.281c-0.076,0.758,1.106,0.75,1.181,0
				c0.543-5.427,1.085-10.854,1.628-16.281C329.072,40.15,327.891,40.157,327.816,40.908L327.816,40.908z"/>
		</g>
	</g>
	<g>
		<line fill="#FFFFFF" x1="347.562" y1="35.919" x2="350.6" y2="38.502"/>
		<g>
			<path d="M347.144,36.337c1.013,0.861,2.025,1.722,3.038,2.582c0.576,0.49,1.416-0.341,0.835-0.835
				c-1.013-0.861-2.025-1.722-3.038-2.582C347.403,35.012,346.563,35.843,347.144,36.337L347.144,36.337z"/>
		</g>
	</g>
	<g>
		<g>
			<path d="M336.32,27.963c4.162,4.559,6.959,10.087,12.119,13.763c0.622,0.443,1.21-0.582,0.596-1.019
				c-5.054-3.601-7.8-9.109-11.88-13.579C336.641,26.565,335.808,27.402,336.32,27.963L336.32,27.963z"/>
		</g>
	</g>
	<g>
		<g>
			<path d="M324.174,8.095c1.509,4.184,6.627,5.337,10.542,5.114c0.757-0.043,0.761-1.224,0-1.181
				c-3.325,0.189-8.103-0.642-9.403-4.247C325.056,7.071,323.915,7.377,324.174,8.095L324.174,8.095z"/>
		</g>
	</g>
	<g>
		<ellipse fill="#FFFFFF" cx="330.698" cy="7.087" rx="0.065" ry="0.086"/>
		<g>
			<path d="M330.194,6.93c-0.006,0.02-0.013,0.041-0.019,0.061c0.09-0.118,0.181-0.235,0.271-0.353
				c-0.015,0.008-0.03,0.017-0.046,0.025c0.199,0,0.397,0,0.596,0c-0.015-0.008-0.03-0.017-0.046-0.025
				c0.09,0.118,0.181,0.235,0.271,0.353c0,0.064,0,0.128,0,0.192c-0.09,0.118-0.181,0.235-0.271,0.353
				c0.015-0.008,0.03-0.017,0.046-0.025c-0.199,0-0.397,0-0.596,0c0.015,0.008,0.03,0.017,0.046,0.025
				c-0.09-0.118-0.181-0.235-0.271-0.353c0.006,0.02,0.013,0.041,0.019,0.061c0.225,0.725,1.365,0.415,1.139-0.314
				c-0.223-0.719-1.289-0.637-1.289,0.157s1.065,0.876,1.289,0.157C331.559,6.515,330.419,6.205,330.194,6.93z"/>
		</g>
	</g>
	<g>
		<g>
			<path d="M307.224,41.118c0.211-0.111,0.406-0.314,0.587-0.468c0.882-0.757,1.725-1.561,2.57-2.358
				c0.555-0.523-0.282-1.357-0.835-0.835c-0.828,0.782-1.657,1.565-2.517,2.312c-0.133,0.116-0.267,0.23-0.406,0.339
				c0.168-0.132,0.051-0.034,0.005-0.009C305.955,40.454,306.551,41.473,307.224,41.118L307.224,41.118z"/>
		</g>
	</g>
	<g>
		<path fill="#FFFFFF" d="M324.73,26.445c0-0.048,0.029-0.086,0.065-0.086s0.065,0.039,0.065,0.086"/>
		<g>
			<path d="M325.299,26.602c0.006-0.02,0.013-0.041,0.019-0.061c-0.09,0.118-0.181,0.235-0.271,0.353
				c0.015-0.008,0.03-0.017,0.046-0.025c-0.199,0-0.397,0-0.596,0c0.015,0.008,0.03,0.017,0.046,0.025
				c-0.09-0.118-0.181-0.235-0.271-0.353c0.006,0.02,0.013,0.041,0.019,0.061c0.225,0.725,1.365,0.415,1.139-0.314
				c-0.207-0.666-1.061-0.666-1.268,0C323.934,27.018,325.074,27.327,325.299,26.602L325.299,26.602z"/>
		</g>
	</g>
	<g>
		<path fill="#FFFFFF" d="M332.898,26.697c0-0.048,0.029-0.086,0.065-0.086s0.065,0.039,0.065,0.086"/>
		<g>
			<path d="M333.467,26.854c0.006-0.02,0.013-0.041,0.019-0.061c-0.09,0.118-0.181,0.235-0.271,0.353
				c0.015-0.008,0.03-0.017,0.046-0.025c-0.199,0-0.397,0-0.596,0c0.015,0.008,0.03,0.017,0.046,0.025
				c-0.09-0.118-0.181-0.235-0.271-0.353c0.006,0.02,0.013,0.041,0.019,0.061c0.225,0.725,1.365,0.415,1.139-0.314
				c-0.207-0.666-1.061-0.666-1.268,0C332.102,27.269,333.242,27.579,333.467,26.854L333.467,26.854z"/>
		</g>
	</g>
</g>
<g>
	<g>
		<path fill="#FFFFFF" d="M357.209,37.723c0,0,3.993-2.81,6.38-7.291c1.324-2.486,1.902-5.739,3.19-8.203
			c1.777-3.399,5.022-5.773,6.868-5.336c0,0-3.698-7.148-3.053-11.804c0.398-2.873,4.076-5.913,8.344-4.884
			c2.581,0.622,5.902,2.239,9.972,6.92l-2.035,1.018l-0.407,7.937c0,0,2.116,1.598,4.007,4.935
			c2.582,4.557,5.772,9.57,13.215,15.038"/>
		<g>
			<path d="M357.507,38.232c2.719-1.948,4.961-4.599,6.592-7.503c1.438-2.562,1.91-5.564,3.19-8.203
				c1.032-2.128,3.656-5.395,6.358-5.044c0.478,0.062,0.689-0.538,0.51-0.888c-1.757-3.435-4.311-9.048-2.501-12.814
				c1.625-3.379,5.799-3.596,8.854-2.463c3.195,1.186,5.764,3.734,7.983,6.223c0.04-0.309,0.08-0.618,0.119-0.927
				c-0.678,0.339-1.357,0.678-2.035,1.018c-0.189,0.095-0.282,0.31-0.292,0.51c-0.108,2.102-0.216,4.204-0.323,6.305
				c-0.11,2.151,0.308,2.077,1.784,3.709c2.505,2.769,3.958,6.428,6.253,9.386c2.693,3.471,5.881,6.394,9.393,9.02
				c0.611,0.456,1.198-0.569,0.596-1.019c-3.919-2.93-7.388-6.278-10.204-10.291c-2.04-2.908-3.472-6.17-5.966-8.747
				c-0.279-0.288-0.58-0.556-0.89-0.809c0.295,0.241,0.128,0.422,0.16-0.204c0.066-1.292,0.133-2.584,0.199-3.876
				c0.054-1.044,0.107-2.088,0.161-3.133c0.033-0.648-0.508,0.285,0.129-0.033c0.544-0.272,1.088-0.544,1.632-0.816
				c0.358-0.179,0.358-0.66,0.119-0.927c-4.189-4.699-11.457-10.409-17.462-5.115c-4.273,3.767-0.819,11.514,1.271,15.599
				c0.17-0.296,0.34-0.592,0.51-0.888c-4.12-0.536-7.169,4.788-8.362,7.93c-1.313,3.457-2.264,6.591-4.678,9.491
				c-1.07,1.285-2.332,2.513-3.695,3.489C356.298,37.652,356.886,38.677,357.507,38.232L357.507,38.232z"/>
		</g>
	</g>
	<g>
		<path fill="#FFFFFF" d="M386.373,22.077c0,0,5.59,15.778,0.298,32.873l4.477,1.628l-22.997,1.628c0,0,4.833-25.263,4.019-33.403
			c0,0-1.007,4.91-4.632,10.793c-1.741,2.826-3.494,4.861-7.595,7.139"/>
		<g>
			<path d="M385.804,22.234c3.581,10.237,3.364,22.283,0.298,32.559c-0.098,0.327,0.115,0.618,0.412,0.726
				c1.492,0.543,2.985,1.085,4.477,1.628c0.052-0.387,0.105-0.773,0.157-1.16c-7.666,0.543-15.331,1.085-22.997,1.628
				c0.19,0.249,0.38,0.498,0.569,0.747c0.865-4.532,1.622-9.087,2.315-13.649c0.98-6.458,2.307-13.359,1.725-19.911
				c-0.055-0.624-1.012-0.85-1.16-0.157c-1.514,7.106-5.614,13.943-11.956,17.58c-0.66,0.379-0.066,1.399,0.596,1.019
				c6.611-3.79,10.919-10.873,12.498-18.285c-0.387-0.052-0.773-0.105-1.16-0.157c0.573,6.451-0.73,13.243-1.683,19.598
				c-0.684,4.562-1.449,9.117-2.315,13.649c-0.067,0.351,0.16,0.776,0.569,0.747c7.666-0.543,15.331-1.085,22.997-1.628
				c0.677-0.048,0.788-0.93,0.157-1.16c-1.492-0.543-2.985-1.085-4.477-1.628c0.137,0.242,0.275,0.484,0.412,0.726
				c3.124-10.471,3.35-22.759-0.298-33.187C386.693,21.206,385.552,21.513,385.804,22.234L385.804,22.234z"/>
		</g>
	</g>
	<g>
		<line fill="#FFFFFF" x1="379.752" y1="40.908" x2="378.124" y2="57.189"/>
		<g>
			<path d="M379.162,40.908c-0.543,5.427-1.085,10.854-1.628,16.281c-0.076,0.758,1.106,0.75,1.181,0
				c0.543-5.427,1.085-10.854,1.628-16.281C380.418,40.15,379.237,40.157,379.162,40.908L379.162,40.908z"/>
		</g>
	</g>
	<g>
		<line fill="#FFFFFF" x1="398.907" y1="35.919" x2="401.945" y2="38.502"/>
		<g>
			<path d="M398.49,36.337c1.013,0.861,2.025,1.722,3.038,2.582c0.576,0.49,1.416-0.341,0.835-0.835
				c-1.013-0.861-2.025-1.722-3.038-2.582C398.748,35.012,397.909,35.843,398.49,36.337L398.49,36.337z"/>
		</g>
	</g>
	<g>
		<g>
			<path d="M387.666,27.963c4.162,4.559,6.959,10.087,12.119,13.763c0.622,0.443,1.21-0.582,0.596-1.019
				c-5.054-3.601-7.8-9.109-11.88-13.579C387.986,26.565,387.154,27.402,387.666,27.963L387.666,27.963z"/>
		</g>
	</g>
	<g>
		<g>
			<path d="M375.519,8.095c1.509,4.184,6.627,5.337,10.542,5.114c0.757-0.043,0.761-1.224,0-1.181
				c-3.325,0.189-8.103-0.642-9.403-4.247C376.402,7.071,375.26,7.377,375.519,8.095L375.519,8.095z"/>
		</g>
	</g>
	<g>
		<ellipse fill="#FFFFFF" cx="382.044" cy="7.087" rx="0.065" ry="0.086"/>
		<g>
			<path d="M381.539,6.93c-0.006,0.02-0.013,0.041-0.019,0.061c0.09-0.118,0.181-0.235,0.271-0.353
				c-0.015,0.008-0.03,0.017-0.046,0.025c0.199,0,0.397,0,0.596,0c-0.015-0.008-0.03-0.017-0.046-0.025
				c0.09,0.118,0.181,0.235,0.271,0.353c0,0.064,0,0.128,0,0.192c-0.09,0.118-0.181,0.235-0.271,0.353
				c0.015-0.008,0.03-0.017,0.046-0.025c-0.199,0-0.397,0-0.596,0c0.015,0.008,0.03,0.017,0.046,0.025
				c-0.09-0.118-0.181-0.235-0.271-0.353c0.006,0.02,0.013,0.041,0.019,0.061c0.225,0.725,1.365,0.415,1.139-0.314
				c-0.223-0.719-1.289-0.637-1.289,0.157s1.065,0.876,1.289,0.157C382.904,6.515,381.764,6.205,381.539,6.93z"/>
		</g>
	</g>
	<g>
		<g>
			<path d="M358.57,41.118c0.211-0.111,0.407-0.314,0.587-0.468c0.882-0.757,1.725-1.561,2.57-2.358
				c0.555-0.523-0.282-1.357-0.835-0.835c-0.828,0.782-1.657,1.565-2.517,2.312c-0.133,0.116-0.267,0.23-0.406,0.339
				c0.168-0.132,0.051-0.034,0.005-0.009C357.3,40.454,357.897,41.473,358.57,41.118L358.57,41.118z"/>
		</g>
	</g>
	<g>
		<path fill="#FFFFFF" d="M376.076,26.445c0-0.048,0.029-0.086,0.065-0.086s0.065,0.039,0.065,0.086"/>
		<g>
			<path d="M376.645,26.602c0.006-0.02,0.013-0.041,0.019-0.061c-0.09,0.118-0.181,0.235-0.271,0.353
				c0.015-0.008,0.03-0.017,0.046-0.025c-0.199,0-0.397,0-0.596,0c0.015,0.008,0.03,0.017,0.046,0.025
				c-0.09-0.118-0.181-0.235-0.271-0.353c0.006,0.02,0.013,0.041,0.019,0.061c0.225,0.725,1.365,0.415,1.139-0.314
				c-0.207-0.666-1.061-0.666-1.268,0C375.28,27.018,376.42,27.327,376.645,26.602L376.645,26.602z"/>
		</g>
	</g>
	<g>
		<path fill="#FFFFFF" d="M384.243,26.697c0-0.048,0.029-0.086,0.065-0.086s0.065,0.039,0.065,0.086"/>
		<g>
			<path d="M384.813,26.854c0.006-0.02,0.013-0.041,0.019-0.061c-0.09,0.118-0.181,0.235-0.271,0.353
				c0.015-0.008,0.03-0.017,0.046-0.025c-0.199,0-0.397,0-0.596,0c0.015,0.008,0.03,0.017,0.046,0.025
				c-0.09-0.118-0.181-0.235-0.271-0.353c0.006,0.02,0.013,0.041,0.019,0.061c0.225,0.725,1.365,0.415,1.139-0.314
				c-0.207-0.666-1.061-0.666-1.268,0C383.448,27.269,384.587,27.579,384.813,26.854L384.813,26.854z"/>
		</g>
	</g>
</g>
<g>
	<g>
		<path fill="#FFFFFF" d="M407.835,37.723c0,0,3.993-2.81,6.38-7.291c1.324-2.486,1.902-5.739,3.19-8.203
			c1.777-3.399,5.022-5.773,6.868-5.336c0,0-3.698-7.148-3.053-11.804c0.398-2.873,4.076-5.913,8.344-4.884
			c2.581,0.622,5.902,2.239,9.972,6.92l-2.035,1.018l-0.407,7.937c0,0,2.116,1.598,4.007,4.935
			c2.582,4.557,5.772,9.57,13.215,15.038"/>
		<g>
			<path d="M408.133,38.232c2.719-1.948,4.961-4.599,6.592-7.503c1.438-2.562,1.91-5.564,3.19-8.203
				c1.032-2.128,3.656-5.395,6.358-5.044c0.478,0.062,0.689-0.538,0.51-0.888c-1.757-3.435-4.311-9.048-2.501-12.814
				c1.625-3.379,5.799-3.596,8.854-2.463c3.195,1.186,5.764,3.734,7.983,6.223c0.04-0.309,0.08-0.618,0.119-0.927
				c-0.678,0.339-1.357,0.678-2.035,1.018c-0.189,0.095-0.282,0.31-0.292,0.51c-0.108,2.102-0.216,4.204-0.323,6.305
				c-0.11,2.151,0.308,2.077,1.784,3.709c2.505,2.769,3.958,6.428,6.253,9.386c2.693,3.471,5.881,6.394,9.393,9.02
				c0.611,0.456,1.198-0.569,0.596-1.019c-3.919-2.93-7.388-6.278-10.204-10.291c-2.04-2.908-3.472-6.17-5.966-8.747
				c-0.279-0.288-0.58-0.556-0.89-0.809c0.295,0.241,0.128,0.422,0.16-0.204c0.066-1.292,0.133-2.584,0.199-3.876
				c0.054-1.044,0.107-2.088,0.161-3.133c0.033-0.648-0.508,0.285,0.129-0.033c0.544-0.272,1.088-0.544,1.632-0.816
				c0.358-0.179,0.358-0.66,0.119-0.927c-4.189-4.699-11.457-10.409-17.462-5.115c-4.273,3.767-0.819,11.514,1.271,15.599
				c0.17-0.296,0.34-0.592,0.51-0.888c-4.12-0.536-7.169,4.788-8.362,7.93c-1.313,3.457-2.264,6.591-4.678,9.491
				c-1.07,1.285-2.332,2.513-3.695,3.489C406.924,37.652,407.512,38.677,408.133,38.232L408.133,38.232z"/>
		</g>
	</g>
	<g>
		<path fill="#FFFFFF" d="M436.999,22.077c0,0,5.59,15.778,0.298,32.873l4.477,1.628l-22.997,1.628c0,0,4.833-25.263,4.019-33.403
			c0,0-1.007,4.91-4.632,10.793c-1.741,2.826-3.494,4.861-7.595,7.139"/>
		<g>
			<path d="M436.43,22.234c3.581,10.237,3.364,22.283,0.298,32.559c-0.098,0.327,0.115,0.618,0.412,0.726
				c1.492,0.543,2.985,1.085,4.477,1.628c0.052-0.387,0.105-0.773,0.157-1.16c-7.666,0.543-15.331,1.085-22.997,1.628
				c0.19,0.249,0.38,0.498,0.569,0.747c0.865-4.532,1.622-9.087,2.315-13.649c0.98-6.458,2.307-13.359,1.725-19.911
				c-0.055-0.624-1.012-0.85-1.16-0.157c-1.514,7.106-5.614,13.943-11.956,17.58c-0.66,0.379-0.066,1.399,0.596,1.019
				c6.611-3.79,10.919-10.873,12.498-18.285c-0.387-0.052-0.773-0.105-1.16-0.157c0.573,6.451-0.73,13.243-1.683,19.598
				c-0.684,4.562-1.449,9.117-2.315,13.649c-0.067,0.351,0.16,0.776,0.569,0.747c7.666-0.543,15.331-1.085,22.997-1.628
				c0.677-0.048,0.788-0.93,0.157-1.16c-1.492-0.543-2.985-1.085-4.477-1.628c0.137,0.242,0.275,0.484,0.412,0.726
				c3.124-10.471,3.35-22.759-0.298-33.187C437.319,21.206,436.178,21.513,436.43,22.234L436.43,22.234z"/>
		</g>
	</g>
	<g>
		<line fill="#FFFFFF" x1="430.378" y1="40.908" x2="428.75" y2="57.189"/>
		<g>
			<path d="M429.787,40.908c-0.543,5.427-1.085,10.854-1.628,16.281c-0.076,0.758,1.106,0.75,1.181,0
				c0.543-5.427,1.085-10.854,1.628-16.281C431.044,40.15,429.862,40.157,429.787,40.908L429.787,40.908z"/>
		</g>
	</g>
	<g>
		<line fill="#FFFFFF" x1="449.533" y1="35.919" x2="452.571" y2="38.502"/>
		<g>
			<path d="M449.116,36.337c1.013,0.861,2.025,1.722,3.038,2.582c0.576,0.49,1.416-0.341,0.835-0.835
				c-1.013-0.861-2.025-1.722-3.038-2.582C449.374,35.012,448.535,35.843,449.116,36.337L449.116,36.337z"/>
		</g>
	</g>
	<g>
		<g>
			<path d="M438.292,27.963c4.162,4.559,6.959,10.087,12.119,13.763c0.622,0.443,1.21-0.582,0.596-1.019
				c-5.054-3.601-7.8-9.109-11.88-13.579C438.612,26.565,437.78,27.402,438.292,27.963L438.292,27.963z"/>
		</g>
	</g>
	<g>
		<g>
			<path d="M426.145,8.095c1.509,4.184,6.627,5.337,10.541,5.114c0.757-0.043,0.761-1.224,0-1.181
				c-3.325,0.189-8.103-0.642-9.403-4.247C427.027,7.071,425.886,7.377,426.145,8.095L426.145,8.095z"/>
		</g>
	</g>
	<g>
		<ellipse fill="#FFFFFF" cx="432.67" cy="7.087" rx="0.065" ry="0.086"/>
		<g>
			<path d="M432.165,6.93c-0.006,0.02-0.013,0.041-0.019,0.061c0.09-0.118,0.181-0.235,0.271-0.353
				c-0.015,0.008-0.03,0.017-0.046,0.025c0.199,0,0.397,0,0.596,0c-0.015-0.008-0.03-0.017-0.046-0.025
				c0.09,0.118,0.181,0.235,0.271,0.353c0,0.064,0,0.128,0,0.192c-0.09,0.118-0.181,0.235-0.271,0.353
				c0.015-0.008,0.03-0.017,0.046-0.025c-0.199,0-0.397,0-0.596,0c0.015,0.008,0.03,0.017,0.046,0.025
				c-0.09-0.118-0.181-0.235-0.271-0.353c0.006,0.02,0.013,0.041,0.019,0.061c0.225,0.725,1.365,0.415,1.139-0.314
				c-0.223-0.719-1.289-0.637-1.289,0.157s1.065,0.876,1.289,0.157C433.53,6.515,432.39,6.205,432.165,6.93z"/>
		</g>
	</g>
	<g>
		<g>
			<path d="M409.196,41.118c0.211-0.111,0.407-0.314,0.587-0.468c0.882-0.757,1.725-1.561,2.57-2.358
				c0.555-0.523-0.282-1.357-0.835-0.835c-0.828,0.782-1.657,1.565-2.517,2.312c-0.133,0.116-0.267,0.23-0.406,0.339
				c0.168-0.132,0.051-0.034,0.005-0.009C407.926,40.454,408.523,41.473,409.196,41.118L409.196,41.118z"/>
		</g>
	</g>
	<g>
		<path fill="#FFFFFF" d="M426.702,26.445c0-0.048,0.029-0.086,0.065-0.086s0.065,0.039,0.065,0.086"/>
		<g>
			<path d="M427.271,26.602c0.006-0.02,0.013-0.041,0.019-0.061c-0.09,0.118-0.181,0.235-0.271,0.353
				c0.015-0.008,0.03-0.017,0.046-0.025c-0.199,0-0.397,0-0.596,0c0.015,0.008,0.03,0.017,0.046,0.025
				c-0.09-0.118-0.181-0.235-0.271-0.353c0.006,0.02,0.013,0.041,0.019,0.061c0.225,0.725,1.365,0.415,1.139-0.314
				c-0.207-0.666-1.061-0.666-1.268,0C425.906,27.018,427.046,27.327,427.271,26.602L427.271,26.602z"/>
		</g>
	</g>
	<g>
		<path fill="#FFFFFF" d="M434.869,26.697c0-0.048,0.029-0.086,0.065-0.086c0.036,0,0.065,0.039,0.065,0.086"/>
		<g>
			<path d="M435.438,26.854c0.006-0.02,0.013-0.041,0.019-0.061c-0.09,0.118-0.181,0.235-0.271,0.353
				c0.015-0.008,0.03-0.017,0.046-0.025c-0.199,0-0.397,0-0.596,0c0.015,0.008,0.03,0.017,0.046,0.025
				c-0.09-0.118-0.181-0.235-0.271-0.353c0.006,0.02,0.013,0.041,0.019,0.061c0.225,0.725,1.365,0.415,1.139-0.314
				c-0.207-0.666-1.061-0.666-1.268,0C434.073,27.269,435.213,27.579,435.438,26.854L435.438,26.854z"/>
		</g>
	</g>
</g>
<g>
	<g>
		<path fill="#FFFFFF" d="M458.632,37.723c0,0,3.993-2.81,6.38-7.291c1.324-2.486,1.902-5.739,3.19-8.203
			c1.777-3.399,5.022-5.773,6.868-5.336c0,0-3.698-7.148-3.053-11.804c0.398-2.873,4.076-5.913,8.344-4.884
			c2.581,0.622,5.902,2.239,9.972,6.92l-2.035,1.018l-0.407,7.937c0,0,2.116,1.598,4.007,4.935
			c2.582,4.557,5.772,9.57,13.215,15.038"/>
		<g>
			<path d="M458.93,38.232c2.719-1.948,4.961-4.599,6.592-7.503c1.438-2.562,1.91-5.564,3.19-8.203
				c1.032-2.128,3.656-5.395,6.358-5.044c0.478,0.062,0.689-0.538,0.51-0.888c-1.757-3.435-4.311-9.048-2.501-12.814
				c1.625-3.379,5.799-3.596,8.854-2.463c3.195,1.186,5.764,3.734,7.983,6.223c0.04-0.309,0.08-0.618,0.119-0.927
				c-0.678,0.339-1.357,0.678-2.035,1.018c-0.189,0.095-0.282,0.31-0.292,0.51c-0.108,2.102-0.216,4.204-0.323,6.305
				c-0.11,2.151,0.308,2.077,1.784,3.709c2.505,2.769,3.958,6.428,6.253,9.386c2.693,3.471,5.881,6.394,9.393,9.02
				c0.611,0.456,1.198-0.569,0.596-1.019c-3.919-2.93-7.388-6.278-10.204-10.291c-2.04-2.908-3.472-6.17-5.966-8.747
				c-0.279-0.288-0.58-0.556-0.89-0.809c0.295,0.241,0.128,0.422,0.16-0.204c0.066-1.292,0.133-2.584,0.199-3.876
				c0.054-1.044,0.107-2.088,0.161-3.133c0.033-0.648-0.508,0.285,0.129-0.033c0.544-0.272,1.088-0.544,1.632-0.816
				c0.358-0.179,0.358-0.66,0.119-0.927c-4.189-4.699-11.457-10.409-17.462-5.115c-4.273,3.767-0.818,11.514,1.271,15.599
				c0.17-0.296,0.34-0.592,0.51-0.888c-4.12-0.536-7.169,4.788-8.362,7.93c-1.313,3.457-2.264,6.591-4.678,9.491
				c-1.07,1.285-2.332,2.513-3.695,3.489C457.721,37.652,458.31,38.677,458.93,38.232L458.93,38.232z"/>
		</g>
	</g>
	<g>
		<path fill="#FFFFFF" d="M487.796,22.077c0,0,5.59,15.778,0.298,32.873l4.477,1.628l-22.997,1.628c0,0,4.833-25.263,4.019-33.403
			c0,0-1.007,4.91-4.632,10.793c-1.741,2.826-3.494,4.861-7.595,7.139"/>
		<g>
			<path d="M487.227,22.234c3.581,10.237,3.364,22.283,0.298,32.559c-0.098,0.327,0.115,0.618,0.412,0.726
				c1.492,0.543,2.985,1.085,4.477,1.628c0.052-0.387,0.105-0.773,0.157-1.16c-7.666,0.543-15.331,1.085-22.997,1.628
				c0.19,0.249,0.38,0.498,0.569,0.747c0.865-4.532,1.622-9.087,2.315-13.649c0.98-6.458,2.307-13.359,1.725-19.911
				c-0.055-0.624-1.012-0.85-1.16-0.157c-1.514,7.106-5.614,13.943-11.956,17.58c-0.66,0.379-0.066,1.399,0.596,1.019
				c6.611-3.79,10.919-10.873,12.498-18.285c-0.387-0.052-0.773-0.105-1.16-0.157c0.573,6.451-0.73,13.243-1.683,19.598
				c-0.684,4.562-1.449,9.117-2.315,13.649c-0.067,0.351,0.16,0.776,0.569,0.747c7.666-0.543,15.331-1.085,22.997-1.628
				c0.677-0.048,0.788-0.93,0.157-1.16c-1.492-0.543-2.985-1.085-4.477-1.628c0.137,0.242,0.275,0.484,0.412,0.726
				c3.124-10.471,3.349-22.759-0.298-33.187C488.116,21.206,486.975,21.513,487.227,22.234L487.227,22.234z"/>
		</g>
	</g>
	<g>
		<line fill="#FFFFFF" x1="481.175" y1="40.908" x2="479.547" y2="57.189"/>
		<g>
			<path d="M480.585,40.908c-0.543,5.427-1.085,10.854-1.628,16.281c-0.076,0.758,1.106,0.75,1.181,0
				c0.543-5.427,1.085-10.854,1.628-16.281C481.841,40.15,480.66,40.157,480.585,40.908L480.585,40.908z"/>
		</g>
	</g>
	<g>
		<line fill="#FFFFFF" x1="500.331" y1="35.919" x2="503.369" y2="38.502"/>
		<g>
			<path d="M499.913,36.337c1.013,0.861,2.025,1.722,3.038,2.582c0.576,0.49,1.416-0.341,0.835-0.835
				c-1.013-0.861-2.025-1.722-3.038-2.582C500.172,35.012,499.332,35.843,499.913,36.337L499.913,36.337z"/>
		</g>
	</g>
	<g>
		<g>
			<path d="M489.089,27.963c4.162,4.559,6.959,10.087,12.119,13.763c0.622,0.443,1.21-0.582,0.596-1.019
				c-5.054-3.601-7.8-9.109-11.88-13.579C489.41,26.565,488.577,27.402,489.089,27.963L489.089,27.963z"/>
		</g>
	</g>
	<g>
		<g>
			<path d="M476.943,8.095c1.509,4.184,6.627,5.337,10.542,5.114c0.757-0.043,0.761-1.224,0-1.181
				c-3.325,0.189-8.103-0.642-9.403-4.247C477.825,7.071,476.684,7.377,476.943,8.095L476.943,8.095z"/>
		</g>
	</g>
	<g>
		<ellipse fill="#FFFFFF" cx="483.467" cy="7.087" rx="0.065" ry="0.086"/>
		<g>
			<path d="M482.962,6.93c-0.006,0.02-0.013,0.041-0.019,0.061c0.09-0.118,0.181-0.235,0.271-0.353
				c-0.015,0.008-0.03,0.017-0.046,0.025c0.199,0,0.397,0,0.596,0c-0.015-0.008-0.03-0.017-0.046-0.025
				c0.09,0.118,0.181,0.235,0.271,0.353c0,0.064,0,0.128,0,0.192c-0.09,0.118-0.181,0.235-0.271,0.353
				c0.015-0.008,0.03-0.017,0.046-0.025c-0.199,0-0.397,0-0.596,0c0.015,0.008,0.03,0.017,0.046,0.025
				c-0.09-0.118-0.181-0.235-0.271-0.353c0.006,0.02,0.013,0.041,0.019,0.061c0.225,0.725,1.365,0.415,1.139-0.314
				c-0.223-0.719-1.289-0.637-1.289,0.157s1.065,0.876,1.289,0.157C484.327,6.515,483.188,6.205,482.962,6.93z"/>
		</g>
	</g>
	<g>
		<g>
			<path d="M459.993,41.118c0.211-0.111,0.407-0.314,0.587-0.468c0.882-0.757,1.725-1.561,2.571-2.358
				c0.555-0.523-0.282-1.357-0.835-0.835c-0.828,0.782-1.657,1.565-2.517,2.312c-0.133,0.116-0.267,0.23-0.406,0.339
				c0.168-0.132,0.051-0.034,0.005-0.009C458.723,40.454,459.32,41.473,459.993,41.118L459.993,41.118z"/>
		</g>
	</g>
	<g>
		<path fill="#FFFFFF" d="M477.499,26.445c0-0.048,0.029-0.086,0.065-0.086s0.065,0.039,0.065,0.086"/>
		<g>
			<path d="M478.068,26.602c0.006-0.02,0.013-0.041,0.019-0.061c-0.09,0.118-0.181,0.235-0.271,0.353
				c0.015-0.008,0.03-0.017,0.046-0.025c-0.199,0-0.397,0-0.596,0c0.015,0.008,0.03,0.017,0.046,0.025
				c-0.09-0.118-0.181-0.235-0.271-0.353c0.006,0.02,0.013,0.041,0.019,0.061c0.225,0.725,1.365,0.415,1.139-0.314
				c-0.207-0.666-1.061-0.666-1.268,0C476.703,27.018,477.843,27.327,478.068,26.602L478.068,26.602z"/>
		</g>
	</g>
	<g>
		<path fill="#FFFFFF" d="M485.667,26.697c0-0.048,0.029-0.086,0.065-0.086s0.065,0.039,0.065,0.086"/>
		<g>
			<path d="M486.236,26.854c0.006-0.02,0.013-0.041,0.019-0.061c-0.09,0.118-0.181,0.235-0.271,0.353
				c0.015-0.008,0.03-0.017,0.046-0.025c-0.199,0-0.397,0-0.596,0c0.015,0.008,0.03,0.017,0.046,0.025
				c-0.09-0.118-0.181-0.235-0.271-0.353c0.006,0.02,0.013,0.041,0.019,0.061c0.225,0.725,1.365,0.415,1.139-0.314
				c-0.207-0.666-1.061-0.666-1.268,0C484.871,27.269,486.011,27.579,486.236,26.854L486.236,26.854z"/>
		</g>
	</g>
</g>
<g>
	<g>
		<path fill="#FFFFFF" d="M508.255,37.723c0,0,3.993-2.81,6.38-7.291c1.324-2.486,1.902-5.739,3.19-8.203
			c1.777-3.399,5.022-5.773,6.868-5.336c0,0-3.698-7.148-3.053-11.804c0.398-2.873,4.076-5.913,8.344-4.884
			c2.581,0.622,5.902,2.239,9.972,6.92l-2.035,1.018l-0.407,7.937c0,0,2.116,1.598,4.007,4.935
			c2.582,4.557,5.772,9.57,13.215,15.038"/>
		<g>
			<path d="M508.552,38.232c2.719-1.948,4.961-4.599,6.591-7.503c1.438-2.562,1.91-5.564,3.19-8.203
				c1.032-2.128,3.656-5.395,6.358-5.044c0.479,0.062,0.689-0.538,0.51-0.888c-1.757-3.435-4.311-9.048-2.501-12.814
				c1.625-3.379,5.799-3.596,8.854-2.463c3.195,1.186,5.764,3.734,7.983,6.223c0.04-0.309,0.08-0.618,0.12-0.927
				c-0.678,0.339-1.357,0.678-2.035,1.018c-0.19,0.095-0.282,0.31-0.292,0.51c-0.108,2.102-0.216,4.204-0.323,6.305
				c-0.11,2.151,0.308,2.077,1.784,3.709c2.505,2.769,3.958,6.428,6.253,9.386c2.693,3.471,5.881,6.394,9.393,9.02
				c0.61,0.456,1.198-0.569,0.596-1.019c-3.919-2.93-7.388-6.278-10.204-10.291c-2.04-2.908-3.472-6.17-5.966-8.747
				c-0.279-0.288-0.58-0.556-0.89-0.809c0.295,0.241,0.128,0.422,0.16-0.204c0.066-1.292,0.133-2.584,0.199-3.876
				c0.054-1.044,0.107-2.088,0.161-3.133c0.033-0.648-0.508,0.285,0.129-0.033c0.544-0.272,1.088-0.544,1.632-0.816
				c0.358-0.179,0.358-0.66,0.12-0.927c-4.189-4.699-11.457-10.409-17.462-5.115c-4.273,3.767-0.818,11.514,1.271,15.599
				c0.17-0.296,0.34-0.592,0.51-0.888c-4.12-0.536-7.169,4.788-8.362,7.93c-1.313,3.457-2.264,6.591-4.678,9.491
				c-1.07,1.285-2.332,2.513-3.695,3.489C507.344,37.652,507.932,38.677,508.552,38.232L508.552,38.232z"/>
		</g>
	</g>
	<g>
		<path fill="#FFFFFF" d="M537.419,22.077c0,0,5.59,15.778,0.298,32.873l4.477,1.628l-22.997,1.628c0,0,4.833-25.263,4.018-33.403
			c0,0-1.007,4.91-4.632,10.793c-1.741,2.826-3.494,4.861-7.595,7.139"/>
		<g>
			<path d="M536.85,22.234c3.581,10.237,3.364,22.283,0.298,32.559c-0.098,0.327,0.115,0.618,0.412,0.726
				c1.492,0.543,2.985,1.085,4.477,1.628c0.052-0.387,0.105-0.773,0.157-1.16c-7.666,0.543-15.331,1.085-22.997,1.628
				c0.19,0.249,0.38,0.498,0.569,0.747c0.865-4.532,1.622-9.087,2.315-13.649c0.98-6.458,2.307-13.359,1.725-19.911
				c-0.055-0.624-1.012-0.85-1.16-0.157c-1.514,7.106-5.614,13.943-11.956,17.58c-0.66,0.379-0.066,1.399,0.596,1.019
				c6.611-3.79,10.919-10.873,12.498-18.285c-0.387-0.052-0.773-0.105-1.16-0.157c0.573,6.451-0.73,13.243-1.683,19.598
				c-0.684,4.562-1.449,9.117-2.315,13.649c-0.067,0.351,0.16,0.776,0.569,0.747c7.666-0.543,15.331-1.085,22.997-1.628
				c0.677-0.048,0.788-0.93,0.157-1.16c-1.492-0.543-2.985-1.085-4.477-1.628c0.137,0.242,0.275,0.484,0.412,0.726
				c3.124-10.471,3.349-22.759-0.298-33.187C537.739,21.206,536.598,21.513,536.85,22.234L536.85,22.234z"/>
		</g>
	</g>
	<g>
		<line fill="#FFFFFF" x1="530.798" y1="40.908" x2="529.17" y2="57.189"/>
		<g>
			<path d="M530.207,40.908c-0.543,5.427-1.085,10.854-1.628,16.281c-0.076,0.758,1.106,0.75,1.181,0
				c0.543-5.427,1.085-10.854,1.628-16.281C531.464,40.15,530.282,40.157,530.207,40.908L530.207,40.908z"/>
		</g>
	</g>
	<g>
		<line fill="#FFFFFF" x1="549.953" y1="35.919" x2="552.991" y2="38.502"/>
		<g>
			<path d="M549.536,36.337c1.013,0.861,2.025,1.722,3.038,2.582c0.576,0.49,1.416-0.341,0.835-0.835
				c-1.013-0.861-2.025-1.722-3.038-2.582C549.794,35.012,548.955,35.843,549.536,36.337L549.536,36.337z"/>
		</g>
	</g>
	<g>
		<g>
			<path d="M538.712,27.963c4.162,4.559,6.959,10.087,12.12,13.763c0.622,0.443,1.21-0.582,0.596-1.019
				c-5.054-3.601-7.8-9.109-11.88-13.579C539.032,26.565,538.2,27.402,538.712,27.963L538.712,27.963z"/>
		</g>
	</g>
	<g>
		<g>
			<path d="M526.565,8.095c1.509,4.184,6.627,5.337,10.542,5.114c0.757-0.043,0.761-1.224,0-1.181
				c-3.325,0.189-8.103-0.642-9.403-4.247C527.447,7.071,526.306,7.377,526.565,8.095L526.565,8.095z"/>
		</g>
	</g>
	<g>
		<ellipse fill="#FFFFFF" cx="533.09" cy="7.087" rx="0.065" ry="0.086"/>
		<g>
			<path d="M532.585,6.93c-0.006,0.02-0.013,0.041-0.019,0.061c0.09-0.118,0.181-0.235,0.271-0.353
				c-0.015,0.008-0.03,0.017-0.046,0.025c0.199,0,0.397,0,0.596,0c-0.015-0.008-0.03-0.017-0.046-0.025
				c0.09,0.118,0.181,0.235,0.271,0.353c0,0.064,0,0.128,0,0.192c-0.09,0.118-0.181,0.235-0.271,0.353
				c0.015-0.008,0.03-0.017,0.046-0.025c-0.199,0-0.397,0-0.596,0c0.015,0.008,0.03,0.017,0.046,0.025
				c-0.09-0.118-0.181-0.235-0.271-0.353c0.006,0.02,0.013,0.041,0.019,0.061c0.225,0.725,1.365,0.415,1.139-0.314
				c-0.223-0.719-1.289-0.637-1.289,0.157s1.065,0.876,1.289,0.157C533.95,6.515,532.81,6.205,532.585,6.93z"/>
		</g>
	</g>
	<g>
		<g>
			<path d="M509.616,41.118c0.211-0.111,0.407-0.314,0.587-0.468c0.882-0.757,1.725-1.561,2.57-2.358
				c0.555-0.523-0.282-1.357-0.835-0.835c-0.828,0.782-1.657,1.565-2.517,2.312c-0.133,0.116-0.267,0.23-0.406,0.339
				c0.168-0.132,0.051-0.034,0.005-0.009C508.346,40.454,508.943,41.473,509.616,41.118L509.616,41.118z"/>
		</g>
	</g>
	<g>
		<path fill="#FFFFFF" d="M527.122,26.445c0-0.048,0.029-0.086,0.065-0.086s0.065,0.039,0.065,0.086"/>
		<g>
			<path d="M527.691,26.602c0.006-0.02,0.013-0.041,0.019-0.061c-0.09,0.118-0.181,0.235-0.271,0.353
				c0.015-0.008,0.03-0.017,0.046-0.025c-0.199,0-0.397,0-0.596,0c0.015,0.008,0.03,0.017,0.046,0.025
				c-0.09-0.118-0.181-0.235-0.271-0.353c0.006,0.02,0.013,0.041,0.019,0.061c0.225,0.725,1.365,0.415,1.138-0.314
				c-0.207-0.666-1.061-0.666-1.268,0C526.326,27.018,527.466,27.327,527.691,26.602L527.691,26.602z"/>
		</g>
	</g>
	<g>
		<path fill="#FFFFFF" d="M535.289,26.697c0-0.048,0.029-0.086,0.065-0.086s0.065,0.039,0.065,0.086"/>
		<g>
			<path d="M535.858,26.854c0.006-0.02,0.013-0.041,0.019-0.061c-0.09,0.118-0.181,0.235-0.271,0.353
				c0.015-0.008,0.03-0.017,0.046-0.025c-0.199,0-0.397,0-0.596,0c0.015,0.008,0.03,0.017,0.046,0.025
				c-0.09-0.118-0.181-0.235-0.271-0.353c0.006,0.02,0.013,0.041,0.019,0.061c0.225,0.725,1.365,0.415,1.138-0.314
				c-0.207-0.666-1.061-0.666-1.268,0C534.493,27.269,535.633,27.579,535.858,26.854L535.858,26.854z"/>
		</g>
	</g>
</g>
<g>
	<g>
		<path fill="#FFFFFF" d="M558.88,37.723c0,0,3.993-2.81,6.38-7.291c1.324-2.486,1.902-5.739,3.19-8.203
			c1.777-3.399,5.022-5.773,6.868-5.336c0,0-3.698-7.148-3.053-11.804c0.398-2.873,4.076-5.913,8.344-4.884
			c2.581,0.622,5.902,2.239,9.972,6.92l-2.035,1.018l-0.407,7.937c0,0,2.116,1.598,4.007,4.935
			c2.582,4.557,5.772,9.57,13.215,15.038"/>
		<g>
			<path d="M559.178,38.232c2.719-1.948,4.961-4.599,6.592-7.503c1.438-2.562,1.91-5.564,3.19-8.203
				c1.032-2.128,3.656-5.395,6.358-5.044c0.478,0.062,0.689-0.538,0.51-0.888c-1.757-3.435-4.312-9.048-2.501-12.814
				c1.625-3.379,5.799-3.596,8.854-2.463c3.195,1.186,5.764,3.734,7.983,6.223c0.04-0.309,0.08-0.618,0.119-0.927
				c-0.678,0.339-1.357,0.678-2.035,1.018c-0.189,0.095-0.282,0.31-0.292,0.51c-0.108,2.102-0.216,4.204-0.323,6.305
				c-0.11,2.151,0.308,2.077,1.784,3.709c2.505,2.769,3.958,6.428,6.253,9.386c2.693,3.471,5.881,6.394,9.393,9.02
				c0.611,0.456,1.198-0.569,0.596-1.019c-3.919-2.93-7.388-6.278-10.204-10.291c-2.04-2.908-3.472-6.17-5.966-8.747
				c-0.279-0.288-0.58-0.556-0.89-0.809c0.295,0.241,0.128,0.422,0.16-0.204c0.066-1.292,0.133-2.584,0.199-3.876
				c0.054-1.044,0.107-2.088,0.161-3.133c0.033-0.648-0.508,0.285,0.129-0.033c0.544-0.272,1.088-0.544,1.632-0.816
				c0.358-0.179,0.358-0.66,0.119-0.927c-4.189-4.699-11.457-10.409-17.462-5.115c-4.273,3.767-0.818,11.514,1.271,15.599
				c0.17-0.296,0.34-0.592,0.51-0.888c-4.12-0.536-7.169,4.788-8.362,7.93c-1.313,3.457-2.263,6.591-4.678,9.491
				c-1.07,1.285-2.332,2.513-3.695,3.489C557.969,37.652,558.558,38.677,559.178,38.232L559.178,38.232z"/>
		</g>
	</g>
	<g>
		<path fill="#FFFFFF" d="M588.045,22.077c0,0,5.59,15.778,0.298,32.873l4.477,1.628l-22.997,1.628c0,0,4.833-25.263,4.019-33.403
			c0,0-1.007,4.91-4.632,10.793c-1.741,2.826-3.494,4.861-7.595,7.139"/>
		<g>
			<path d="M587.476,22.234c3.581,10.237,3.364,22.283,0.298,32.559c-0.097,0.327,0.115,0.618,0.412,0.726
				c1.492,0.543,2.985,1.085,4.477,1.628c0.052-0.387,0.105-0.773,0.157-1.16c-7.666,0.543-15.331,1.085-22.997,1.628
				c0.19,0.249,0.38,0.498,0.569,0.747c0.865-4.532,1.622-9.087,2.315-13.649c0.98-6.458,2.307-13.359,1.725-19.911
				c-0.055-0.624-1.012-0.85-1.16-0.157c-1.514,7.106-5.614,13.943-11.956,17.58c-0.66,0.379-0.066,1.399,0.596,1.019
				c6.611-3.79,10.919-10.873,12.498-18.285c-0.387-0.052-0.773-0.105-1.16-0.157c0.573,6.451-0.73,13.243-1.683,19.598
				c-0.684,4.562-1.449,9.117-2.315,13.649c-0.067,0.351,0.16,0.776,0.569,0.747c7.666-0.543,15.331-1.085,22.997-1.628
				c0.677-0.048,0.788-0.93,0.157-1.16c-1.492-0.543-2.985-1.085-4.477-1.628c0.137,0.242,0.275,0.484,0.412,0.726
				c3.124-10.471,3.349-22.759-0.298-33.187C588.364,21.206,587.224,21.513,587.476,22.234L587.476,22.234z"/>
		</g>
	</g>
	<g>
		<line fill="#FFFFFF" x1="581.424" y1="40.908" x2="579.795" y2="57.189"/>
		<g>
			<path d="M580.833,40.908c-0.543,5.427-1.085,10.854-1.628,16.281c-0.076,0.758,1.106,0.75,1.181,0
				c0.543-5.427,1.085-10.854,1.628-16.281C582.09,40.15,580.908,40.157,580.833,40.908L580.833,40.908z"/>
		</g>
	</g>
	<g>
		<line fill="#FFFFFF" x1="600.579" y1="35.919" x2="603.617" y2="38.502"/>
		<g>
			<path d="M600.162,36.337c1.013,0.861,2.025,1.722,3.038,2.582c0.576,0.49,1.416-0.341,0.835-0.835
				c-1.013-0.861-2.025-1.722-3.038-2.582C600.42,35.012,599.581,35.843,600.162,36.337L600.162,36.337z"/>
		</g>
	</g>
	<g>
		<g>
			<path d="M589.338,27.963c4.162,4.559,6.959,10.087,12.119,13.763c0.622,0.443,1.21-0.582,0.596-1.019
				c-5.055-3.601-7.8-9.109-11.88-13.579C589.658,26.565,588.825,27.402,589.338,27.963L589.338,27.963z"/>
		</g>
	</g>
	<g>
		<g>
			<path d="M577.191,8.095c1.509,4.184,6.627,5.337,10.542,5.114c0.757-0.043,0.761-1.224,0-1.181
				c-3.325,0.189-8.103-0.642-9.403-4.247C578.073,7.071,576.932,7.377,577.191,8.095L577.191,8.095z"/>
		</g>
	</g>
	<g>
		<ellipse fill="#FFFFFF" cx="583.716" cy="7.087" rx="0.065" ry="0.086"/>
		<g>
			<path d="M583.211,6.93c-0.006,0.02-0.013,0.041-0.019,0.061c0.09-0.118,0.181-0.235,0.271-0.353
				c-0.015,0.008-0.03,0.017-0.046,0.025c0.199,0,0.397,0,0.596,0c-0.015-0.008-0.03-0.017-0.046-0.025
				c0.09,0.118,0.181,0.235,0.271,0.353c0,0.064,0,0.128,0,0.192c-0.09,0.118-0.181,0.235-0.271,0.353
				c0.015-0.008,0.03-0.017,0.046-0.025c-0.199,0-0.397,0-0.596,0c0.015,0.008,0.03,0.017,0.046,0.025
				c-0.09-0.118-0.181-0.235-0.271-0.353c0.006,0.02,0.013,0.041,0.019,0.061c0.225,0.725,1.365,0.415,1.138-0.314
				c-0.223-0.719-1.289-0.637-1.289,0.157s1.065,0.876,1.289,0.157C584.576,6.515,583.436,6.205,583.211,6.93z"/>
		</g>
	</g>
	<g>
		<g>
			<path d="M560.242,41.118c0.211-0.111,0.407-0.314,0.587-0.468c0.882-0.757,1.725-1.561,2.57-2.358
				c0.555-0.523-0.282-1.357-0.835-0.835c-0.828,0.782-1.657,1.565-2.517,2.312c-0.133,0.116-0.267,0.23-0.406,0.339
				c0.168-0.132,0.051-0.034,0.005-0.009C558.972,40.454,559.569,41.473,560.242,41.118L560.242,41.118z"/>
		</g>
	</g>
	<g>
		<path fill="#FFFFFF" d="M577.747,26.445c0-0.048,0.029-0.086,0.065-0.086s0.065,0.039,0.065,0.086"/>
		<g>
			<path d="M578.317,26.602c0.006-0.02,0.013-0.041,0.019-0.061c-0.09,0.118-0.181,0.235-0.271,0.353
				c0.015-0.008,0.03-0.017,0.046-0.025c-0.199,0-0.397,0-0.596,0c0.015,0.008,0.03,0.017,0.046,0.025
				c-0.09-0.118-0.181-0.235-0.271-0.353c0.006,0.02,0.013,0.041,0.019,0.061c0.225,0.725,1.365,0.415,1.139-0.314
				c-0.207-0.666-1.061-0.666-1.268,0C576.952,27.018,578.092,27.327,578.317,26.602L578.317,26.602z"/>
		</g>
	</g>
	<g>
		<path fill="#FFFFFF" d="M585.915,26.697c0-0.048,0.029-0.086,0.065-0.086s0.065,0.039,0.065,0.086"/>
		<g>
			<path d="M586.484,26.854c0.006-0.02,0.013-0.041,0.019-0.061c-0.09,0.118-0.181,0.235-0.271,0.353
				c0.015-0.008,0.03-0.017,0.046-0.025c-0.199,0-0.397,0-0.596,0c0.015,0.008,0.03,0.017,0.046,0.025
				c-0.09-0.118-0.181-0.235-0.271-0.353c0.006,0.02,0.013,0.041,0.019,0.061c0.225,0.725,1.365,0.415,1.139-0.314
				c-0.207-0.666-1.061-0.666-1.268,0C585.119,27.269,586.259,27.579,586.484,26.854L586.484,26.854z"/>
		</g>
	</g>
</g>
<g>
	<g>
		<path fill="#FFFFFF" d="M609.678,37.723c0,0,3.993-2.81,6.38-7.291c1.324-2.486,1.902-5.739,3.19-8.203
			c1.777-3.399,5.022-5.773,6.868-5.336c0,0-3.698-7.148-3.053-11.804c0.398-2.873,4.076-5.913,8.344-4.884
			c2.581,0.622,5.902,2.239,9.972,6.92l-2.035,1.018l-0.407,7.937c0,0,2.116,1.598,4.007,4.935
			c2.582,4.557,5.772,9.57,13.215,15.038"/>
		<g>
			<path d="M609.976,38.232c2.719-1.948,4.961-4.599,6.592-7.503c1.438-2.562,1.91-5.564,3.19-8.203
				c1.032-2.128,3.656-5.395,6.358-5.044c0.478,0.062,0.689-0.538,0.51-0.888c-1.757-3.435-4.311-9.048-2.501-12.814
				c1.625-3.379,5.799-3.596,8.854-2.463c3.195,1.186,5.764,3.734,7.983,6.223c0.04-0.309,0.08-0.618,0.119-0.927
				c-0.678,0.339-1.357,0.678-2.035,1.018c-0.189,0.095-0.282,0.31-0.292,0.51c-0.108,2.102-0.216,4.204-0.323,6.305
				c-0.11,2.151,0.308,2.077,1.784,3.709c2.505,2.769,3.958,6.428,6.253,9.386c2.693,3.471,5.881,6.394,9.393,9.02
				c0.611,0.456,1.198-0.569,0.596-1.019c-3.919-2.93-7.388-6.278-10.204-10.291c-2.04-2.908-3.472-6.17-5.966-8.747
				c-0.279-0.288-0.58-0.556-0.89-0.809c0.295,0.241,0.128,0.422,0.16-0.204c0.066-1.292,0.132-2.584,0.199-3.876
				c0.054-1.044,0.107-2.088,0.161-3.133c0.033-0.648-0.508,0.285,0.129-0.033c0.544-0.272,1.088-0.544,1.632-0.816
				c0.358-0.179,0.358-0.66,0.119-0.927c-4.189-4.699-11.457-10.409-17.462-5.115c-4.273,3.767-0.818,11.514,1.271,15.599
				c0.17-0.296,0.34-0.592,0.51-0.888c-4.12-0.536-7.169,4.788-8.362,7.93c-1.313,3.457-2.264,6.591-4.678,9.491
				c-1.07,1.285-2.332,2.513-3.695,3.489C608.767,37.652,609.355,38.677,609.976,38.232L609.976,38.232z"/>
		</g>
	</g>
	<g>
		<path fill="#FFFFFF" d="M638.842,22.077c0,0,5.59,15.778,0.298,32.873l4.477,1.628l-22.997,1.628c0,0,4.833-25.263,4.019-33.403
			c0,0-1.007,4.91-4.632,10.793c-1.741,2.826-3.494,4.861-7.595,7.139"/>
		<g>
			<path d="M638.273,22.234c3.581,10.237,3.364,22.283,0.298,32.559c-0.098,0.327,0.115,0.618,0.412,0.726
				c1.492,0.543,2.985,1.085,4.477,1.628c0.052-0.387,0.105-0.773,0.157-1.16c-7.666,0.543-15.331,1.085-22.997,1.628
				c0.19,0.249,0.38,0.498,0.569,0.747c0.865-4.532,1.622-9.087,2.315-13.649c0.98-6.458,2.307-13.359,1.725-19.911
				c-0.055-0.624-1.012-0.85-1.16-0.157c-1.514,7.106-5.614,13.943-11.956,17.58c-0.66,0.379-0.066,1.399,0.596,1.019
				c6.611-3.79,10.919-10.873,12.498-18.285c-0.387-0.052-0.773-0.105-1.16-0.157c0.573,6.451-0.73,13.243-1.683,19.598
				c-0.684,4.562-1.449,9.117-2.315,13.649c-0.067,0.351,0.16,0.776,0.569,0.747c7.666-0.543,15.331-1.085,22.997-1.628
				c0.677-0.048,0.788-0.93,0.157-1.16c-1.492-0.543-2.985-1.085-4.477-1.628c0.137,0.242,0.275,0.484,0.412,0.726
				c3.124-10.471,3.35-22.759-0.298-33.187C639.162,21.206,638.021,21.513,638.273,22.234L638.273,22.234z"/>
		</g>
	</g>
	<g>
		<line fill="#FFFFFF" x1="632.221" y1="40.908" x2="630.593" y2="57.189"/>
		<g>
			<path d="M631.63,40.908c-0.543,5.427-1.085,10.854-1.628,16.281c-0.076,0.758,1.106,0.75,1.181,0
				c0.543-5.427,1.085-10.854,1.628-16.281C632.887,40.15,631.706,40.157,631.63,40.908L631.63,40.908z"/>
		</g>
	</g>
	<g>
		<line fill="#FFFFFF" x1="651.376" y1="35.919" x2="654.414" y2="38.502"/>
		<g>
			<path d="M650.959,36.337c1.013,0.861,2.025,1.722,3.038,2.582c0.576,0.49,1.416-0.341,0.835-0.835
				c-1.013-0.861-2.025-1.722-3.038-2.582C651.217,35.012,650.378,35.843,650.959,36.337L650.959,36.337z"/>
		</g>
	</g>
	<g>
		<g>
			<path d="M640.135,27.963c4.162,4.559,6.959,10.087,12.119,13.763c0.622,0.443,1.21-0.582,0.596-1.019
				c-5.054-3.601-7.8-9.109-11.88-13.579C640.455,26.565,639.623,27.402,640.135,27.963L640.135,27.963z"/>
		</g>
	</g>
	<g>
		<g>
			<path d="M627.988,8.095c1.509,4.184,6.627,5.337,10.542,5.114c0.757-0.043,0.761-1.224,0-1.181
				c-3.325,0.189-8.103-0.642-9.403-4.247C628.871,7.071,627.729,7.377,627.988,8.095L627.988,8.095z"/>
		</g>
	</g>
	<g>
		<ellipse fill="#FFFFFF" cx="634.513" cy="7.087" rx="0.065" ry="0.086"/>
		<g>
			<path d="M634.008,6.93c-0.006,0.02-0.013,0.041-0.019,0.061c0.09-0.118,0.181-0.235,0.271-0.353
				c-0.015,0.008-0.03,0.017-0.046,0.025c0.199,0,0.397,0,0.596,0c-0.015-0.008-0.03-0.017-0.046-0.025
				c0.09,0.118,0.181,0.235,0.271,0.353c0,0.064,0,0.128,0,0.192c-0.09,0.118-0.181,0.235-0.271,0.353
				c0.015-0.008,0.03-0.017,0.046-0.025c-0.199,0-0.397,0-0.596,0c0.015,0.008,0.03,0.017,0.046,0.025
				c-0.09-0.118-0.181-0.235-0.271-0.353c0.006,0.02,0.013,0.041,0.019,0.061c0.225,0.725,1.365,0.415,1.138-0.314
				c-0.223-0.719-1.289-0.637-1.289,0.157s1.065,0.876,1.289,0.157C635.373,6.515,634.233,6.205,634.008,6.93z"/>
		</g>
	</g>
	<g>
		<g>
			<path d="M611.039,41.118c0.211-0.111,0.407-0.314,0.587-0.468c0.882-0.757,1.725-1.561,2.57-2.358
				c0.555-0.523-0.282-1.357-0.835-0.835c-0.828,0.782-1.657,1.565-2.517,2.312c-0.133,0.116-0.267,0.23-0.406,0.339
				c0.168-0.132,0.051-0.034,0.005-0.009C609.769,40.454,610.366,41.473,611.039,41.118L611.039,41.118z"/>
		</g>
	</g>
	<g>
		<path fill="#FFFFFF" d="M628.545,26.445c0-0.048,0.029-0.086,0.065-0.086s0.065,0.039,0.065,0.086"/>
		<g>
			<path d="M629.114,26.602c0.006-0.02,0.013-0.041,0.019-0.061c-0.09,0.118-0.181,0.235-0.271,0.353
				c0.015-0.008,0.03-0.017,0.046-0.025c-0.199,0-0.397,0-0.596,0c0.015,0.008,0.03,0.017,0.046,0.025
				c-0.09-0.118-0.181-0.235-0.271-0.353c0.006,0.02,0.013,0.041,0.019,0.061c0.225,0.725,1.365,0.415,1.138-0.314
				c-0.207-0.666-1.061-0.666-1.268,0C627.749,27.018,628.889,27.327,629.114,26.602L629.114,26.602z"/>
		</g>
	</g>
	<g>
		<path fill="#FFFFFF" d="M636.712,26.697c0-0.048,0.029-0.086,0.065-0.086s0.065,0.039,0.065,0.086"/>
		<g>
			<path d="M637.282,26.854c0.006-0.02,0.013-0.041,0.019-0.061c-0.09,0.118-0.181,0.235-0.271,0.353
				c0.015-0.008,0.03-0.017,0.046-0.025c-0.199,0-0.397,0-0.596,0c0.015,0.008,0.03,0.017,0.046,0.025
				c-0.09-0.118-0.181-0.235-0.271-0.353c0.006,0.02,0.013,0.041,0.019,0.061c0.225,0.725,1.365,0.415,1.139-0.314
				c-0.207-0.666-1.061-0.666-1.268,0C635.917,27.269,637.056,27.579,637.282,26.854L637.282,26.854z"/>
		</g>
	</g>
</g>
</svg>
