<?xml version="1.0" encoding="utf-8"?>
<!-- Generator: Adobe Illustrator 17.1.0, SVG Export Plug-In . SVG Version: 6.00 Build 0)  -->
<!DOCTYPE svg PUBLIC "-//W3C//DTD SVG 1.1//EN" "http://www.w3.org/Graphics/SVG/1.1/DTD/svg11.dtd">
<svg version="1.1" id="Lager_1" xmlns="http://www.w3.org/2000/svg" xmlns:xlink="http://www.w3.org/1999/xlink" x="0px" y="0px"
	 viewBox="309.463 234.057 50 50" enable-background="new 309.463 234.057 50 50" xml:space="preserve">
<g>
	<path fill="#289604" d="M356.379,265.897c0.582,2.108,1.945,5.464-1.204,5.186c-3.506-0.309-10.956-3.52-13.547-9.074
		C338.018,254.275,354.316,258.42,356.379,265.897z"/>
	<g>
		<path d="M356.193,265.949c0.341,1.227,0.908,2.55,0.772,3.847c-0.152,1.444-1.88,1.134-2.886,0.927
			c-3.004-0.619-5.931-2.112-8.323-4.01c-1.349-1.07-2.55-2.341-3.441-3.818c-0.548-0.908-1.111-2.02-1-3.117
			c0.175-1.726,2.425-1.796,3.72-1.672c2.348,0.224,4.664,1.206,6.635,2.465C353.644,261.831,355.54,263.629,356.193,265.949
			c0.067,0.238,0.438,0.137,0.371-0.102c-0.642-2.28-2.418-4.053-4.322-5.358c-1.954-1.34-4.257-2.327-6.604-2.691
			c-1.426-0.221-3.574-0.318-4.437,1.121c-0.411,0.686-0.316,1.546-0.097,2.277c0.425,1.419,1.327,2.712,2.292,3.816
			c2.146,2.456,5.096,4.225,8.129,5.359c1.155,0.432,2.363,0.779,3.593,0.902c0.604,0.06,1.244,0.01,1.729-0.388
			c0.395-0.324,0.507-0.873,0.523-1.357c0.041-1.249-0.474-2.496-0.804-3.68C356.498,265.608,356.127,265.709,356.193,265.949z"/>
	</g>
</g>
<g>
	<circle fill="#C41223" cx="320.44" cy="265.538" r="10.962"/>
	<g>
		<path d="M331.209,265.538c-0.017,3.551-1.778,6.89-4.706,8.902c-2.951,2.029-6.8,2.4-10.113,1.081
			c-3.25-1.294-5.674-4.218-6.457-7.608c-0.807-3.492,0.263-7.219,2.716-9.81c2.459-2.597,6.139-3.776,9.653-3.175
			c3.442,0.589,6.4,2.906,7.896,6.044C330.874,262.393,331.202,263.967,331.209,265.538c0.001,0.248,0.386,0.248,0.385,0
			c-0.017-3.422-1.595-6.671-4.287-8.788c-2.708-2.13-6.316-2.854-9.649-2.017c-3.26,0.819-6.01,3.181-7.393,6.23
			c-1.426,3.143-1.262,6.847,0.361,9.88c1.589,2.97,4.545,5.078,7.85,5.676c3.384,0.612,6.897-0.425,9.45-2.712
			c2.336-2.093,3.654-5.145,3.669-8.269C331.595,265.29,331.211,265.29,331.209,265.538z"/>
	</g>
</g>
<g>
	<circle fill="#C41223" cx="339.303" cy="267.198" r="10.962"/>
	<g>
		<path d="M350.072,267.198c-0.017,3.551-1.778,6.89-4.706,8.902c-2.951,2.029-6.8,2.4-10.113,1.081
			c-3.25-1.294-5.674-4.218-6.457-7.608c-0.807-3.492,0.263-7.219,2.716-9.81c2.459-2.597,6.139-3.776,9.653-3.175
			c3.442,0.589,6.4,2.906,7.896,6.044C349.738,264.053,350.065,265.627,350.072,267.198c0.001,0.248,0.386,0.248,0.385,0
			c-0.017-3.422-1.595-6.671-4.287-8.788c-2.708-2.13-6.316-2.854-9.649-2.017c-3.259,0.819-6.01,3.181-7.393,6.23
			c-1.426,3.143-1.262,6.847,0.361,9.88c1.589,2.97,4.545,5.078,7.85,5.676c3.384,0.612,6.897-0.425,9.45-2.712
			c2.336-2.093,3.654-5.145,3.669-8.269C350.458,266.949,350.074,266.949,350.072,267.198z"/>
	</g>
</g>
<ellipse transform="matrix(-0.2705 -0.9627 0.9627 -0.2705 180.6673 670.7331)" fill="#991023" stroke="#000000" stroke-width="0.0769" stroke-miterlimit="10" cx="344.456" cy="266.917" rx="1.036" ry="1.787"/>
<ellipse transform="matrix(-0.5386 -0.8426 0.8426 -0.5386 301.726 701.1419)" fill="#991023" stroke="#000000" stroke-width="0.0769" stroke-miterlimit="10" cx="342.846" cy="267.954" rx="0.984" ry="1.787"/>
<ellipse transform="matrix(0.6057 -0.7957 0.7957 0.6057 -77.7684 379.6742)" fill="#991023" stroke="#000000" stroke-width="0.0769" stroke-miterlimit="10" cx="344.203" cy="268.305" rx="1.225" ry="1.787"/>
<ellipse transform="matrix(0.6057 -0.7957 0.7957 0.6057 -76.7319 377.6331)" fill="#991023" stroke="#000000" stroke-width="0.0769" stroke-miterlimit="10" cx="342.662" cy="266.238" rx="1.225" ry="1.787"/>
<ellipse stroke="#000000" stroke-width="0.0769" stroke-miterlimit="10" cx="343.453" cy="267.408" rx="1.434" ry="1.345"/>
<ellipse transform="matrix(-0.2705 -0.9627 0.9627 -0.2705 161.7239 640.5387)" fill="#991023" stroke="#000000" stroke-width="0.0769" stroke-miterlimit="10" cx="323.544" cy="258.997" rx="1.036" ry="1.787"/>
<ellipse transform="matrix(-0.5386 -0.8426 0.8426 -0.5386 276.225 671.3347)" fill="#991023" stroke="#000000" stroke-width="0.0769" stroke-miterlimit="10" cx="321.934" cy="260.033" rx="0.984" ry="1.787"/>
<ellipse transform="matrix(0.6057 -0.7957 0.7957 0.6057 -79.7118 359.9123)" fill="#991023" stroke="#000000" stroke-width="0.0769" stroke-miterlimit="10" cx="323.292" cy="260.384" rx="1.225" ry="1.787"/>
<ellipse transform="matrix(0.6057 -0.7957 0.7957 0.6057 -78.6753 357.8712)" fill="#991023" stroke="#000000" stroke-width="0.0769" stroke-miterlimit="10" cx="321.751" cy="258.318" rx="1.225" ry="1.787"/>
<ellipse stroke="#000000" stroke-width="0.0769" stroke-miterlimit="10" cx="322.541" cy="259.488" rx="1.434" ry="1.345"/>
<g>
	<path fill="#289604" d="M342.694,256.691c0,0,13.412,5.712,16.275-1.195c2.863-6.908-15.657-0.508-15.377-0.824L342.694,256.691z"
		/>
	<g>
		<path d="M342.596,256.857c1.189,0.506,2.429,0.906,3.672,1.257c2.354,0.663,4.852,1.14,7.306,0.947
			c2.317-0.182,4.552-1.165,5.53-3.398c0.288-0.658,0.509-1.456,0.229-2.155c-0.238-0.594-0.785-0.94-1.368-1.14
			c-0.78-0.268-1.645-0.297-2.462-0.283c-1.042,0.018-2.082,0.148-3.11,0.31c-2.09,0.33-4.152,0.836-6.193,1.389
			c-0.618,0.167-1.233,0.342-1.849,0.513c-0.185,0.052-0.37,0.103-0.556,0.15c-0.055,0.014-0.11,0.027-0.166,0.039
			c-0.048,0.01-0.032,0.006-0.012,0.003c-0.018,0.002,0.32,0.044,0.139,0.279c-0.111-0.065-0.221-0.129-0.332-0.194
			c-0.299,0.673-0.598,1.346-0.898,2.02c-0.1,0.225,0.232,0.42,0.332,0.194c0.299-0.673,0.598-1.346,0.898-2.02
			c0.102-0.23-0.181-0.39-0.332-0.194c-0.155,0.201,0.123,0.314,0.276,0.289c0.148-0.024,0.295-0.069,0.44-0.109
			c0.638-0.173,1.274-0.357,1.911-0.531c2.017-0.552,4.052-1.055,6.115-1.404c1.046-0.177,2.102-0.31,3.163-0.346
			c0.832-0.028,1.694-0.002,2.494,0.252c0.557,0.177,1.065,0.521,1.212,1.114c0.205,0.825-0.278,1.795-0.711,2.459
			c-1.352,2.072-4.04,2.482-6.323,2.41c-2.379-0.076-4.741-0.649-6.997-1.379c-0.542-0.175-1.08-0.364-1.613-0.567
			c-0.157-0.06-0.314-0.121-0.47-0.184c-0.036-0.015-0.214-0.089-0.132-0.054C342.565,256.429,342.369,256.761,342.596,256.857z"/>
	</g>
</g>
<g>
	<path fill="#289604" d="M342.021,250.686c1.733-1.005,10.532-10.276,10.616-5.884c0.084,4.346-3.183,9.074-5.866,10.62
		c-1.423,0.82-4.507,1.056-4.935,0.822C340.602,255.571,342.021,250.686,342.021,250.686z"/>
	<g>
		<path d="M342.118,250.852c0.639-0.377,1.198-0.923,1.753-1.408c0.896-0.782,1.782-1.574,2.688-2.342
			c0.933-0.791,1.884-1.566,2.9-2.249c0.648-0.435,1.464-1.008,2.277-1.032c0.924-0.027,0.721,1.356,0.677,1.909
			c-0.159,2.025-0.986,3.982-2.054,5.688c-0.919,1.467-2.118,2.893-3.614,3.797c-0.671,0.405-1.471,0.588-2.234,0.73
			c-0.711,0.132-1.447,0.213-2.171,0.19c-0.493-0.016-0.664-0.237-0.762-0.718c-0.126-0.618-0.044-1.298,0.039-1.916
			c0.125-0.931,0.328-1.861,0.589-2.763c0.069-0.239-0.302-0.34-0.371-0.102c-0.24,0.827-0.422,1.676-0.555,2.527
			c-0.096,0.615-0.164,1.241-0.133,1.864c0.022,0.437,0.1,0.929,0.417,1.255c0.29,0.298,0.812,0.248,1.188,0.239
			c0.755-0.017,1.514-0.126,2.253-0.282c0.728-0.154,1.443-0.384,2.078-0.779c0.663-0.413,1.253-0.944,1.794-1.505
			c1.305-1.354,2.323-2.99,3.043-4.722c0.382-0.92,0.656-1.884,0.804-2.869c0.1-0.667,0.19-1.406,0.047-2.075
			c-0.395-1.846-2.873-0.201-3.67,0.343c-1.477,1.009-2.832,2.197-4.175,3.374c-0.605,0.53-1.206,1.066-1.817,1.59
			c-0.377,0.323-0.756,0.671-1.186,0.924C341.71,250.645,341.904,250.978,342.118,250.852z"/>
	</g>
</g>
<g>
	<circle fill="#C41223" cx="334.415" cy="250.178" r="10.962"/>
	<g>
		<path d="M345.184,250.178c-0.017,3.551-1.778,6.89-4.706,8.902c-2.951,2.029-6.8,2.4-10.113,1.081
			c-3.25-1.294-5.674-4.218-6.457-7.608c-0.807-3.492,0.263-7.219,2.716-9.81c2.459-2.597,6.139-3.776,9.653-3.175
			c3.442,0.589,6.4,2.906,7.895,6.044C344.849,247.034,345.177,248.608,345.184,250.178c0.001,0.248,0.386,0.248,0.385,0
			c-0.017-3.423-1.595-6.671-4.287-8.788c-2.708-2.13-6.316-2.854-9.649-2.017c-3.259,0.819-6.01,3.181-7.393,6.23
			c-1.426,3.143-1.262,6.847,0.361,9.88c1.589,2.97,4.545,5.078,7.85,5.676c3.384,0.612,6.897-0.425,9.45-2.712
			c2.336-2.093,3.654-5.145,3.669-8.269C345.57,249.93,345.185,249.93,345.184,250.178z"/>
	</g>
</g>
<ellipse transform="matrix(-0.2705 -0.9627 0.9627 -0.2705 182.3698 641.2423)" fill="#991023" stroke="#000000" stroke-width="0.0769" stroke-miterlimit="10" cx="334.134" cy="251.526" rx="1.036" ry="1.787"/>
<ellipse transform="matrix(-0.5386 -0.8426 0.8426 -0.5386 298.8132 668.764)" fill="#991023" stroke="#000000" stroke-width="0.0769" stroke-miterlimit="10" cx="332.524" cy="252.563" rx="0.984" ry="1.787"/>
<ellipse transform="matrix(0.6057 -0.7957 0.7957 0.6057 -69.5923 365.3928)" fill="#991023" stroke="#000000" stroke-width="0.0769" stroke-miterlimit="10" cx="333.881" cy="252.914" rx="1.225" ry="1.787"/>
<ellipse transform="matrix(0.6057 -0.7957 0.7957 0.6057 -68.5559 363.3517)" fill="#991023" stroke="#000000" stroke-width="0.0769" stroke-miterlimit="10" cx="332.34" cy="250.848" rx="1.225" ry="1.787"/>
<ellipse stroke="#000000" stroke-width="0.0769" stroke-miterlimit="10" cx="333.131" cy="252.017" rx="1.434" ry="1.345"/>
</svg>
