<?xml version="1.0" encoding="utf-8"?>
<!-- Generator: Adobe Illustrator 17.0.2, SVG Export Plug-In . SVG Version: 6.00 Build 0)  -->
<!DOCTYPE svg PUBLIC "-//W3C//DTD SVG 1.1//EN" "http://www.w3.org/Graphics/SVG/1.1/DTD/svg11.dtd">
<svg version="1.1" id="Lager_1" xmlns="http://www.w3.org/2000/svg" xmlns:xlink="http://www.w3.org/1999/xlink" x="0px" y="0px"
	 width="668.926px" height="518.114px" viewBox="322.996 261.201 668.926 518.114"
	 enable-background="new 322.996 261.201 668.926 518.114" xml:space="preserve">
<g>
	<path fill="#289604" d="M942.806,616.842c7.561,27.409,25.283,71.032-15.651,67.42c-45.571-4.021-142.418-45.758-176.11-117.956
		C704.12,465.754,915.992,519.641,942.806,616.842z"/>
	<g>
		<path d="M940.395,617.506c4.436,15.951,11.809,33.143,10.031,50.005c-1.981,18.775-24.443,14.743-37.522,12.047
			c-39.054-8.049-77.094-27.46-108.196-52.128c-17.531-13.904-33.143-30.426-44.729-49.632c-7.119-11.8-14.447-26.264-13-40.519
			c2.279-22.44,31.53-23.347,48.353-21.74c30.52,2.916,60.624,15.672,86.259,32.044
			C907.262,563.979,931.904,587.353,940.395,617.506c0.873,3.099,5.697,1.781,4.821-1.329
			c-8.346-29.636-31.435-52.682-56.187-69.657c-25.4-17.42-55.336-30.251-85.854-34.986c-18.533-2.875-46.466-4.138-57.68,14.57
			c-5.342,8.912-4.107,20.091-1.261,29.594c5.526,18.453,17.252,35.249,29.79,49.601c27.895,31.929,66.242,54.923,105.669,69.67
			c15.01,5.614,30.714,10.123,46.705,11.723c7.853,0.786,16.168,0.136,22.471-5.043c5.133-4.218,6.587-11.351,6.794-17.637
			c0.534-16.236-6.167-32.443-10.447-47.835C944.354,613.075,939.53,614.394,940.395,617.506z"/>
	</g>
</g>
<g>
	<circle fill="#C41223" cx="475.617" cy="612.167" r="142.5"/>
	<g>
		<path d="M615.617,612.167c-0.224,46.166-23.117,89.563-61.181,115.728c-38.364,26.37-88.399,31.205-131.47,14.053
			c-42.246-16.824-73.755-54.828-83.936-98.904c-10.486-45.397,3.416-93.845,35.302-127.529
			c31.963-33.765,79.801-49.088,125.487-41.275c44.748,7.653,83.201,37.772,102.638,78.568
			C611.263,571.288,615.518,591.748,615.617,612.167c0.016,3.224,5.016,3.225,5,0c-0.216-44.491-20.734-86.72-55.723-114.241
			c-35.207-27.692-82.11-37.1-125.432-26.215c-42.372,10.646-78.128,41.347-96.112,80.985
			c-18.538,40.858-16.409,89.003,4.689,128.439c20.657,38.612,59.083,66.006,102.046,73.78c43.994,7.961,89.655-5.52,122.841-35.252
			c30.361-27.202,47.494-66.884,47.692-107.496C620.633,608.942,615.633,608.943,615.617,612.167z"/>
	</g>
</g>
<g>
	<circle fill="#C41223" cx="720.829" cy="633.742" r="142.5"/>
	<g>
		<path d="M860.829,633.742c-0.224,46.166-23.117,89.563-61.181,115.728c-38.364,26.37-88.399,31.205-131.469,14.053
			c-42.246-16.824-73.755-54.828-83.936-98.904c-10.487-45.397,3.416-93.845,35.302-127.529
			c31.963-33.765,79.801-49.088,125.487-41.275c44.748,7.653,83.201,37.772,102.638,78.568
			C856.475,592.863,860.73,613.323,860.829,633.742c0.016,3.224,5.016,3.225,5,0c-0.216-44.491-20.734-86.72-55.723-114.241
			c-35.207-27.692-82.11-37.1-125.432-26.215c-42.372,10.646-78.128,41.347-96.112,80.985
			c-18.538,40.858-16.409,89.003,4.689,128.439c20.657,38.612,59.083,66.006,102.046,73.78c43.994,7.961,89.655-5.52,122.841-35.252
			c30.362-27.202,47.495-66.884,47.692-107.496C865.844,630.517,860.844,630.518,860.829,633.742z"/>
	</g>
</g>
<ellipse transform="matrix(0.9627 -0.2705 0.2705 0.9627 -141.0734 236.6041)" fill="#991023" stroke="#000000" stroke-miterlimit="10" cx="787.833" cy="630.099" rx="23.232" ry="13.47"/>
<ellipse transform="matrix(0.8426 -0.5386 0.5386 0.8426 -225.8925 514.3302)" fill="#991023" stroke="#000000" stroke-miterlimit="10" cx="766.854" cy="643.571" rx="23.233" ry="12.793"/>
<ellipse transform="matrix(0.7957 0.6057 -0.6057 0.7957 552.8515 -342.77)" fill="#991023" stroke="#000000" stroke-miterlimit="10" cx="784.527" cy="648.128" rx="23.232" ry="15.923"/>
<ellipse transform="matrix(0.7957 0.6057 -0.6057 0.7957 532.4883 -336.1229)" fill="#991023" stroke="#000000" stroke-miterlimit="10" cx="764.492" cy="621.267" rx="23.232" ry="15.923"/>
<ellipse stroke="#000000" stroke-miterlimit="10" cx="774.777" cy="636.481" rx="18.645" ry="17.48"/>
<ellipse transform="matrix(0.9627 -0.2705 0.2705 0.9627 -123.3577 159.2298)" fill="#991023" stroke="#000000" stroke-miterlimit="10" cx="515.987" cy="527.141" rx="23.232" ry="13.47"/>
<ellipse transform="matrix(0.8426 -0.5386 0.5386 0.8426 -213.2284 351.7109)" fill="#991023" stroke="#000000" stroke-miterlimit="10" cx="495.014" cy="540.599" rx="23.233" ry="12.793"/>
<ellipse transform="matrix(0.7957 0.6057 -0.6057 0.7957 434.953 -199.1542)" fill="#991023" stroke="#000000" stroke-miterlimit="10" cx="512.691" cy="545.171" rx="23.232" ry="15.923"/>
<ellipse transform="matrix(0.7957 0.6057 -0.6057 0.7957 414.5902 -192.5065)" fill="#991023" stroke="#000000" stroke-miterlimit="10" cx="492.655" cy="518.31" rx="23.232" ry="15.923"/>
<ellipse stroke="#000000" stroke-miterlimit="10" cx="502.935" cy="533.518" rx="18.645" ry="17.48"/>
<g>
	<path fill="#289604" d="M764.906,497.166c0,0,174.347,74.259,211.564-15.54s-203.53-6.6-199.896-10.713L764.906,497.166z"/>
	<g>
		<path d="M763.644,499.325c15.458,6.573,31.58,11.784,47.731,16.334c30.601,8.622,63.073,14.819,94.977,12.307
			c30.125-2.371,59.178-15.14,71.893-44.172c3.745-8.55,6.615-18.928,2.982-28.008c-3.089-7.721-10.201-12.218-17.78-14.823
			c-10.141-3.485-21.384-3.865-32.002-3.682c-13.546,0.233-27.062,1.921-40.429,4.029c-27.174,4.287-53.97,10.873-80.506,18.062
			c-8.028,2.175-16.03,4.441-24.042,6.673c-2.403,0.67-4.806,1.34-7.224,1.954c-0.716,0.182-1.435,0.356-2.159,0.505
			c-0.624,0.128-0.421,0.074-0.159,0.045c-0.235,0.026,4.156,0.578,1.805,3.623c-1.439-0.841-2.878-1.682-4.317-2.524
			c-3.889,8.751-7.779,17.503-11.668,26.254c-1.297,2.919,3.01,5.465,4.317,2.524c3.889-8.751,7.779-17.503,11.668-26.254
			c1.327-2.986-2.354-5.066-4.317-2.524c-2.017,2.612,1.605,4.078,3.594,3.753c1.93-0.316,3.833-0.903,5.717-1.413
			c8.297-2.246,16.555-4.636,24.845-6.906c26.222-7.18,52.675-13.716,79.495-18.252c13.597-2.3,27.329-4.035,41.121-4.493
			c10.814-0.359,22.027-0.031,32.417,3.277c7.235,2.303,13.844,6.773,15.761,14.485c2.667,10.727-3.613,23.33-9.247,31.965
			c-17.576,26.94-52.517,32.266-82.198,31.323c-30.924-0.982-61.636-8.431-90.962-17.923c-7.048-2.281-14.042-4.737-20.967-7.368
			c-2.046-0.777-4.085-1.574-6.115-2.393c-0.473-0.191-2.785-1.155-1.71-0.698C763.236,493.761,760.685,498.066,763.644,499.325z"/>
	</g>
</g>
<g>
	<path fill="#289604" d="M756.16,419.094c22.524-13.06,136.907-133.583,138.005-76.485c1.087,56.498-41.374,117.961-76.257,138.055
		c-18.5,10.656-58.59,13.724-64.15,10.692C737.714,482.605,756.16,419.094,756.16,419.094z"/>
	<g>
		<path d="M757.422,421.253c8.306-4.895,15.569-12.005,22.792-18.309c11.641-10.16,23.163-20.455,34.948-30.45
			c12.123-10.282,24.493-20.362,37.7-29.231c8.424-5.657,19.029-13.108,29.595-13.416c12.009-0.35,9.368,17.624,8.803,24.821
			c-2.065,26.325-12.817,51.762-26.701,73.941c-11.94,19.074-27.532,37.607-46.984,49.355c-8.727,5.271-19.128,7.643-29.047,9.485
			c-9.244,1.717-18.808,2.772-28.222,2.467c-6.412-0.208-8.634-3.078-9.91-9.331c-1.641-8.039-0.57-16.873,0.511-24.913
			c1.626-12.097,4.269-24.186,7.663-35.913c0.899-3.104-3.927-4.42-4.821-1.329c-3.114,10.757-5.491,21.79-7.217,32.849
			c-1.247,7.993-2.131,16.128-1.724,24.225c0.286,5.679,1.299,12.071,5.419,16.315c3.764,3.877,10.555,3.221,15.444,3.108
			c9.821-0.227,19.685-1.638,29.284-3.67c9.468-2.004,18.757-4.986,27.008-10.121c8.622-5.366,16.292-12.274,23.318-19.561
			c16.965-17.596,30.204-38.867,39.561-61.381c4.968-11.954,8.529-24.493,10.457-37.295c1.306-8.675,2.472-18.282,0.614-26.973
			c-5.132-24.001-37.343-2.614-47.709,4.463c-19.204,13.112-36.816,28.561-54.278,43.864c-7.867,6.895-15.675,13.86-23.617,20.669
			c-4.895,4.197-9.831,8.723-15.411,12.012C752.123,418.571,754.638,422.894,757.422,421.253z"/>
	</g>
</g>
<g>
	<circle fill="#C41223" cx="657.284" cy="412.5" r="142.5"/>
	<g>
		<path d="M797.284,412.5c-0.224,46.166-23.117,89.563-61.181,115.728c-38.364,26.37-88.399,31.205-131.469,14.053
			c-42.246-16.824-73.755-54.828-83.936-98.904c-10.486-45.397,3.416-93.845,35.302-127.529
			c31.963-33.765,79.801-49.088,125.487-41.275c44.748,7.653,83.201,37.772,102.638,78.568
			C792.93,371.621,797.185,392.081,797.284,412.5c0.016,3.224,5.016,3.225,5,0c-0.216-44.491-20.734-86.72-55.723-114.241
			c-35.207-27.692-82.11-37.1-125.432-26.215c-42.372,10.646-78.128,41.347-96.112,80.985
			c-18.538,40.858-16.409,89.003,4.689,128.439c20.657,38.612,59.083,66.006,102.046,73.78c43.994,7.961,89.655-5.52,122.841-35.252
			c30.361-27.202,47.494-66.884,47.692-107.496C802.299,409.275,797.299,409.276,797.284,412.5z"/>
	</g>
</g>
<ellipse transform="matrix(0.9627 -0.2705 0.2705 0.9627 -91.9557 192.8473)" fill="#991023" stroke="#000000" stroke-miterlimit="10" cx="653.648" cy="430.027" rx="23.232" ry="13.47"/>
<ellipse transform="matrix(0.8426 -0.5386 0.5386 0.8426 -139.2562 410.5685)" fill="#991023" stroke="#000000" stroke-miterlimit="10" cx="632.68" cy="443.493" rx="23.233" ry="12.793"/>
<ellipse transform="matrix(0.7957 0.6057 -0.6057 0.7957 404.2586 -302.3724)" fill="#991023" stroke="#000000" stroke-miterlimit="10" cx="650.348" cy="448.062" rx="23.232" ry="15.923"/>
<ellipse transform="matrix(0.7957 0.6057 -0.6057 0.7957 383.8955 -295.7253)" fill="#991023" stroke="#000000" stroke-miterlimit="10" cx="630.313" cy="421.201" rx="23.232" ry="15.923"/>
<ellipse stroke="#000000" stroke-miterlimit="10" cx="640.597" cy="436.408" rx="18.645" ry="17.48"/>
</svg>
