<?xml version="1.0" encoding="utf-8"?>
<!-- Generator: Adobe Illustrator 17.1.0, SVG Export Plug-In . SVG Version: 6.00 Build 0)  -->
<!DOCTYPE svg PUBLIC "-//W3C//DTD SVG 1.1//EN" "http://www.w3.org/Graphics/SVG/1.1/DTD/svg11.dtd">
<svg version="1.1" id="Lager_1" xmlns="http://www.w3.org/2000/svg" xmlns:xlink="http://www.w3.org/1999/xlink" x="0px" y="0px"
	 viewBox="309.463 234.057 50 50" enable-background="new 309.463 234.057 50 50" xml:space="preserve">
<g>
	<path fill="#289604" d="M327.129,262.01c-2.592,5.554-10.042,8.765-13.547,9.074c-3.149,0.278-1.786-3.078-1.204-5.186
		C314.441,258.42,330.739,254.275,327.129,262.01z"/>
	<g>
		<path d="M312.193,265.846c-0.329,1.184-0.845,2.431-0.804,3.68c0.016,0.484,0.128,1.032,0.523,1.357
			c0.485,0.398,1.124,0.448,1.729,0.388c1.23-0.123,2.438-0.47,3.593-0.902c3.033-1.134,5.983-2.903,8.129-5.359
			c0.965-1.104,1.867-2.396,2.292-3.816c0.219-0.731,0.314-1.591-0.097-2.277c-0.863-1.439-3.011-1.342-4.437-1.121
			c-2.348,0.364-4.65,1.351-6.604,2.691C314.611,261.794,312.835,263.567,312.193,265.846c-0.067,0.239,0.304,0.341,0.371,0.102
			c0.653-2.32,2.549-4.118,4.524-5.379c1.972-1.259,4.288-2.241,6.636-2.465c1.294-0.124,3.544-0.054,3.72,1.672
			c0.111,1.097-0.452,2.209-1,3.117c-0.891,1.477-2.092,2.748-3.441,3.818c-2.393,1.898-5.319,3.391-8.323,4.01
			c-1.006,0.207-2.734,0.518-2.886-0.927c-0.137-1.297,0.43-2.62,0.772-3.847C312.63,265.709,312.259,265.608,312.193,265.846z"/>
	</g>
</g>
<g>
	<circle fill="#C41223" cx="348.317" cy="265.538" r="10.962"/>
	<g>
		<path d="M337.163,265.538c0.015,3.124,1.333,6.177,3.669,8.269c2.553,2.287,6.065,3.324,9.45,2.712
			c3.305-0.598,6.261-2.705,7.85-5.676c1.623-3.034,1.787-6.737,0.361-9.88c-1.383-3.049-4.134-5.411-7.393-6.23
			c-3.333-0.837-6.941-0.114-9.649,2.017C338.758,258.867,337.179,262.115,337.163,265.538c-0.001,0.248,0.383,0.248,0.385,0
			c0.008-1.571,0.335-3.145,1.012-4.566c1.495-3.138,4.453-5.455,7.895-6.044c3.514-0.601,7.194,0.578,9.653,3.175
			c2.453,2.591,3.522,6.318,2.716,9.81c-0.783,3.391-3.207,6.314-6.457,7.608c-3.313,1.319-7.162,0.947-10.113-1.081
			c-2.928-2.013-4.689-5.351-4.706-8.902C337.546,265.29,337.161,265.29,337.163,265.538z"/>
	</g>
</g>
<g>
	<circle fill="#C41223" cx="329.454" cy="267.198" r="10.962"/>
	<g>
		<path d="M318.299,267.198c0.015,3.124,1.333,6.177,3.669,8.269c2.553,2.287,6.065,3.324,9.45,2.712
			c3.305-0.598,6.261-2.705,7.85-5.676c1.623-3.034,1.787-6.737,0.361-9.88c-1.383-3.049-4.134-5.411-7.393-6.23
			c-3.333-0.837-6.941-0.114-9.649,2.017C319.895,260.527,318.316,263.775,318.299,267.198c-0.001,0.248,0.383,0.248,0.385,0
			c0.008-1.571,0.335-3.145,1.012-4.566c1.495-3.138,4.453-5.455,7.896-6.044c3.514-0.601,7.194,0.578,9.653,3.175
			c2.453,2.591,3.522,6.318,2.716,9.81c-0.783,3.391-3.207,6.314-6.457,7.608c-3.313,1.319-7.162,0.947-10.113-1.081
			c-2.928-2.013-4.689-5.351-4.706-8.902C318.683,266.949,318.298,266.949,318.299,267.198z"/>
	</g>
</g>
<ellipse transform="matrix(0.9627 0.2705 -0.2705 0.9627 84.2928 -77.774)" fill="#991023" stroke="#000000" stroke-width="0.0769" stroke-miterlimit="10" cx="324.301" cy="266.917" rx="1.787" ry="1.036"/>
<ellipse transform="matrix(0.8426 0.5386 -0.5386 0.8426 195.6226 -133.3466)" fill="#991023" stroke="#000000" stroke-width="0.0769" stroke-miterlimit="10" cx="325.911" cy="267.954" rx="1.787" ry="0.984"/>
<ellipse transform="matrix(0.7957 -0.6057 0.6057 0.7957 -96.2035 251.3969)" fill="#991023" stroke="#000000" stroke-width="0.0769" stroke-miterlimit="10" cx="324.554" cy="268.305" rx="1.787" ry="1.225"/>
<ellipse transform="matrix(0.7957 -0.6057 0.6057 0.7957 -94.637 251.9082)" fill="#991023" stroke="#000000" stroke-width="0.0769" stroke-miterlimit="10" cx="326.095" cy="266.238" rx="1.787" ry="1.225"/>
<ellipse stroke="#000000" stroke-width="0.0769" stroke-miterlimit="10" cx="325.304" cy="267.408" rx="1.434" ry="1.345"/>
<ellipse transform="matrix(0.9627 0.2705 -0.2705 0.9627 82.93 -83.7259)" fill="#991023" stroke="#000000" stroke-width="0.0769" stroke-miterlimit="10" cx="345.212" cy="258.997" rx="1.787" ry="1.036"/>
<ellipse transform="matrix(0.8426 0.5386 -0.5386 0.8426 194.6486 -145.8565)" fill="#991023" stroke="#000000" stroke-width="0.0769" stroke-miterlimit="10" cx="346.823" cy="260.033" rx="1.787" ry="0.984"/>
<ellipse transform="matrix(0.7957 -0.6057 0.6057 0.7957 -87.134 262.4446)" fill="#991023" stroke="#000000" stroke-width="0.0769" stroke-miterlimit="10" cx="345.465" cy="260.384" rx="1.787" ry="1.225"/>
<ellipse transform="matrix(0.7957 -0.6057 0.6057 0.7957 -85.5676 262.956)" fill="#991023" stroke="#000000" stroke-width="0.0769" stroke-miterlimit="10" cx="347.006" cy="258.318" rx="1.787" ry="1.225"/>
<ellipse stroke="#000000" stroke-width="0.0769" stroke-miterlimit="10" cx="346.215" cy="259.488" rx="1.434" ry="1.345"/>
<g>
	<path fill="#289604" d="M325.166,254.672c0.28,0.316-18.24-6.084-15.377,0.824c2.863,6.908,16.275,1.195,16.275,1.195
		L325.166,254.672z"/>
	<g>
		<path d="M325.966,256.525c0.083-0.035-0.095,0.039-0.132,0.054c-0.156,0.063-0.313,0.124-0.47,0.184
			c-0.533,0.202-1.071,0.391-1.613,0.567c-2.256,0.73-4.618,1.303-6.997,1.379c-2.283,0.073-4.971-0.337-6.323-2.41
			c-0.433-0.664-0.917-1.634-0.711-2.459c0.147-0.593,0.656-0.937,1.212-1.114c0.799-0.254,1.662-0.28,2.494-0.252
			c1.061,0.035,2.117,0.169,3.163,0.346c2.063,0.349,4.098,0.852,6.115,1.404c0.638,0.175,1.273,0.358,1.911,0.531
			c0.145,0.039,0.291,0.084,0.44,0.109c0.153,0.025,0.432-0.088,0.276-0.289c-0.151-0.196-0.434-0.036-0.332,0.194
			c0.299,0.673,0.598,1.346,0.898,2.02c0.101,0.226,0.432,0.03,0.332-0.194c-0.299-0.673-0.598-1.346-0.898-2.02
			c-0.111,0.065-0.221,0.129-0.332,0.194c-0.181-0.234,0.157-0.277,0.139-0.279c0.02,0.002,0.036,0.006-0.012-0.003
			c-0.056-0.011-0.111-0.025-0.166-0.039c-0.186-0.047-0.371-0.099-0.556-0.15c-0.616-0.172-1.232-0.346-1.849-0.513
			c-2.041-0.553-4.103-1.06-6.193-1.389c-1.028-0.162-2.068-0.292-3.11-0.31c-0.817-0.014-1.682,0.015-2.462,0.283
			c-0.583,0.2-1.13,0.546-1.368,1.14c-0.279,0.698-0.059,1.497,0.229,2.155c0.978,2.233,3.213,3.216,5.53,3.398
			c2.454,0.193,4.952-0.283,7.306-0.947c1.242-0.35,2.483-0.751,3.672-1.257C326.388,256.761,326.192,256.429,325.966,256.525z"/>
	</g>
</g>
<g>
	<path fill="#289604" d="M326.921,256.244c-0.428,0.233-3.512-0.003-4.935-0.822c-2.683-1.546-5.95-6.274-5.866-10.62
		c0.084-4.392,8.883,4.879,10.616,5.884C326.736,250.686,328.155,255.571,326.921,256.244z"/>
	<g>
		<path d="M326.833,250.519c-0.429-0.253-0.809-0.601-1.185-0.924c-0.611-0.524-1.212-1.06-1.817-1.59
			c-1.343-1.177-2.698-2.366-4.175-3.374c-0.797-0.544-3.275-2.19-3.67-0.343c-0.143,0.669-0.053,1.408,0.047,2.075
			c0.148,0.985,0.422,1.949,0.804,2.869c0.72,1.732,1.738,3.368,3.043,4.722c0.54,0.561,1.13,1.092,1.794,1.505
			c0.635,0.395,1.349,0.624,2.078,0.779c0.738,0.156,1.497,0.265,2.253,0.282c0.376,0.009,0.898,0.059,1.188-0.239
			c0.317-0.326,0.395-0.818,0.417-1.255c0.031-0.623-0.037-1.249-0.133-1.864c-0.133-0.851-0.316-1.699-0.555-2.527
			c-0.069-0.238-0.44-0.137-0.371,0.102c0.261,0.902,0.464,1.832,0.589,2.763c0.083,0.618,0.166,1.298,0.039,1.916
			c-0.098,0.481-0.269,0.702-0.762,0.718c-0.724,0.023-1.46-0.058-2.171-0.19c-0.763-0.142-1.563-0.324-2.234-0.73
			c-1.496-0.904-2.696-2.329-3.614-3.797c-1.068-1.706-1.895-3.663-2.054-5.688c-0.043-0.554-0.247-1.936,0.677-1.909
			c0.813,0.024,1.629,0.597,2.277,1.032c1.016,0.682,1.968,1.458,2.9,2.249c0.907,0.769,1.793,1.561,2.688,2.342
			c0.556,0.485,1.114,1.032,1.753,1.408C326.853,250.978,327.046,250.645,326.833,250.519z"/>
	</g>
</g>
<g>
	<circle fill="#C41223" cx="334.342" cy="250.178" r="10.962"/>
	<g>
		<path d="M323.188,250.178c0.015,3.124,1.333,6.177,3.669,8.269c2.553,2.287,6.065,3.324,9.45,2.712
			c3.305-0.598,6.261-2.705,7.85-5.676c1.623-3.034,1.787-6.737,0.361-9.88c-1.383-3.049-4.134-5.411-7.393-6.23
			c-3.333-0.837-6.941-0.114-9.649,2.017C324.783,243.507,323.204,246.756,323.188,250.178c-0.001,0.248,0.383,0.248,0.385,0
			c0.008-1.571,0.335-3.145,1.012-4.566c1.495-3.138,4.453-5.455,7.895-6.044c3.514-0.601,7.194,0.578,9.653,3.175
			c2.453,2.591,3.522,6.318,2.716,9.81c-0.783,3.391-3.207,6.314-6.457,7.608c-3.313,1.319-7.162,0.947-10.113-1.081
			c-2.928-2.013-4.689-5.351-4.706-8.902C323.571,249.93,323.187,249.93,323.188,250.178z"/>
	</g>
</g>
<ellipse transform="matrix(0.9627 0.2705 -0.2705 0.9627 80.5144 -81.1399)" fill="#991023" stroke="#000000" stroke-width="0.0769" stroke-miterlimit="10" cx="334.623" cy="251.526" rx="1.787" ry="1.036"/>
<ellipse transform="matrix(0.8426 0.5386 -0.5386 0.8426 188.958 -141.3288)" fill="#991023" stroke="#000000" stroke-width="0.0769" stroke-miterlimit="10" cx="336.233" cy="252.563" rx="1.787" ry="0.984"/>
<ellipse transform="matrix(0.7957 -0.6057 0.6057 0.7957 -84.7728 254.5044)" fill="#991023" stroke="#000000" stroke-width="0.0769" stroke-miterlimit="10" cx="334.875" cy="252.914" rx="1.787" ry="1.225"/>
<ellipse transform="matrix(0.7957 -0.6057 0.6057 0.7957 -83.2064 255.0158)" fill="#991023" stroke="#000000" stroke-width="0.0769" stroke-miterlimit="10" cx="336.417" cy="250.848" rx="1.787" ry="1.225"/>
<ellipse stroke="#000000" stroke-width="0.0769" stroke-miterlimit="10" cx="335.626" cy="252.017" rx="1.434" ry="1.345"/>
</svg>
