<?xml version="1.0" encoding="utf-8"?>
<!-- Generator: Adobe Illustrator 17.1.0, SVG Export Plug-In . SVG Version: 6.00 Build 0)  -->
<!DOCTYPE svg PUBLIC "-//W3C//DTD SVG 1.1//EN" "http://www.w3.org/Graphics/SVG/1.1/DTD/svg11.dtd">
<svg version="1.1" id="svg2" xmlns:svg="http://www.w3.org/2000/svg"
	 xmlns="http://www.w3.org/2000/svg" xmlns:xlink="http://www.w3.org/1999/xlink" x="0px" y="0px" viewBox="0 0 744.094 1052.362"
	 enable-background="new 0 0 744.094 1052.362" xml:space="preserve">
<path fill="#FCD116" stroke="#000000" stroke-width="3" d="M232.628,1024.152c-3.43,0.231-4.307,0.505-6.656,2.081
	c-3.09,2.073-6.213,2.614-8.669,1.501c-0.872-0.395-2.379-1.41-3.349-2.255c-3.695-3.22-6.1-3.836-9.474-2.426
	c-2.354,0.983-3.367,0.361-3.367-2.07c0-2.307,1.459-3.569,3.31-2.865c0.766,0.291,1.519,0.53,1.672,0.53
	c0.596,0-0.259-3.999-1.404-6.568l-1.205-2.703l1.049-1.405c0.668-0.895,1.78-1.552,3.064-1.81c1.108-0.223,2.421-0.893,2.917-1.488
	c1.801-2.161,1.085-3.638-3.607-7.433c-1.52-1.23-1.674-1.614-1.674-4.176c0-3.145-0.387-4.108-2.902-7.22
	c-0.954-1.181-1.735-2.519-1.735-2.974c0-0.454-3.853-10.732-4.617-11.881c-0.753-1.133-2.144-3.865-3.09-6.071
	c-0.946-2.206-1.918-4.132-2.159-4.281c-0.241-0.149-0.438-1.076-0.438-2.06c0-3.362,2.832-3.009,6.604,0.823
	c2.063,2.096,2.86,2.573,4.301,2.573c2.154,0,3.006-0.766,3.006-2.704c0-1.145-0.793-2.225-3.613-4.92
	c-3.222-3.08-3.647-3.714-3.929-5.864c-0.613-4.677,0.541-6.146,3.77-4.797c1.011,0.422,2.626,0.768,3.59,0.768
	c1.432,0,1.856-0.259,2.316-1.417c1.259-3.166,1.357-4.756,0.508-8.234c-0.809-3.313-0.921-3.48-2.253-3.341
	c-1.809,0.19-4.035-0.978-5.749-3.014c-1.185-1.408-1.32-1.926-1.05-4.011c0.283-2.181-9.268-12.94-9.788-13.234
	c-0.669-0.378-1.076-1.488-1.391-3.789c-0.307-2.244-5.597-13.96-5.597-14.466c0-1.614-1.553-4.709-2.977-5.934
	c-1.3-1.118-1.335-1.264-0.623-2.596c0.957-1.789,0.714-3.789-0.638-5.249c-0.941-1.016-0.984-1.311-0.395-2.734
	c0.471-1.138,0.502-1.753,0.106-2.149c-0.396-0.396-0.778-0.019-1.336,1.317c-0.615,1.472-1.068,1.871-2.122,1.871
	c-2.763,0-3.464-5.068-1.802-13.026c0.924-4.426,0.422-6.102-2.586-8.62c-1.749-1.465-2.742-2.775-3.16-4.171
	c-0.588-1.963-0.549-2.099,1.105-3.805l1.715-1.769l-2.144-2.326c-1.239-1.344-2.144-2.834-2.144-3.529
	c0-0.701,0.96-2.264,2.302-3.747c2.776-3.068,3.588-5.225,3.201-8.498c-0.3-2.529-0.063-3.602,1.999-9.048
	c0.914-2.413,1.141-3.864,0.969-6.183c-0.331-4.456-0.586-5.167-2.295-6.384c-2.23-1.588-4.045-0.99-8.136,2.677
	c-3.403,3.052-6.511,5-7.074,4.437c-0.707-0.707,0.608-3.273,2.906-5.669c1.374-1.434,2.353-2.843,2.175-3.131
	c-0.182-0.295-0.911,0.189-1.663,1.103c-1.46,1.776-2.83,2.084-3.55,0.797c-0.517-0.923-0.223-3.167,0.47-3.595
	c0.25-0.154,0.454-1.114,0.454-2.133c0-1.705-0.072-1.793-0.902-1.107c-2.13,1.763-3.657,2.206-5.046,1.462
	c-1.843-0.986-1.461-2.58,0.923-3.852c1.062-0.567,1.931-1.325,1.932-1.684s-0.57-1.75-1.267-3.091
	c-1.208-2.321-1.239-2.607-0.658-5.973c0.61-3.532,0.609-3.539-1.101-6.626c-0.968-1.747-1.712-3.828-1.712-4.789
	c0-2.534,0.632-5.03,1.533-6.051c0.85-0.964,0.884-0.778-1.21-6.711c-0.713-2.02-0.773-2.952-0.333-5.152
	c0.296-1.477,0.413-3.332,0.261-4.121c-0.351-1.826,0.942-3.328,3.237-3.758c0.934-0.175,2.115-0.779,2.624-1.341
	c0.836-0.923,4.268-2.692,4.581-2.36c0.071,0.075,0.393,2.338,0.717,5.03c0.324,2.692,1.073,6.228,1.665,7.857
	c0.998,2.746,1.194,2.962,2.682,2.955c3.479-0.015,3.794-0.317,4.753-4.553c0.691-3.049,1.282-4.355,2.614-5.772
	c1.635-1.74,1.732-2.059,1.945-6.44c0.125-2.581,0.592-5.489,1.06-6.609c0.95-2.273,0.788-3.722-1.86-16.616
	c-0.823-4.005-1.481-7.598-1.463-7.986c0.018-0.388,2.196-2.559,4.84-4.826l4.807-4.122l0.351-3.073c0.342-3,0.312-3.105-1.27-4.396
	l-1.621-1.323l2.577-2.173c2.042-1.722,2.985-2.173,4.545-2.176c3.194-0.005,5.907-0.99,8.924-3.243
	c3.853-2.876,8.2-7.025,9.009-8.598c0.406-0.789,0.809-4.516,1.032-9.539l0.366-8.243l2.215-2.318
	c2.132-2.231,2.234-2.49,2.727-6.862l0.512-4.543l-3.485-8.665c-2.9-7.21-3.807-10.238-5.401-18.036
	c-1.054-5.154-1.803-9.484-1.665-9.622c0.138-0.138,3.686-1.059,7.886-2.047c4.199-0.988,7.68-1.843,7.735-1.9
	c0.588-0.615,6.383-21.243,6.144-21.867c-0.178-0.463-2.11-3.682-4.295-7.154l-3.972-6.313l-2.714-0.585
	c-2.564-0.553-2.992-0.897-7.766-6.236l-5.052-5.651l1.692-10.669c0.931-5.868,2.319-14.726,3.085-19.685l1.393-9.016l-3.179-13.304
	l-3.179-13.304l1.833-3.128l1.833-3.128l-0.354-6.058l-0.354-6.058l2.438-4.472c1.341-2.46,2.319-4.859,2.173-5.333
	c-0.146-0.473-1.116-3.179-2.157-6.013c-3.805-10.365-3.902-13.636-0.529-17.882c0.966-1.216,2.719-3.947,3.894-6.068l2.137-3.857
	l-0.593-3.872c-0.497-3.249-0.466-4.226,0.196-6.076c1.047-2.927,3.683-6.833,7.758-11.494c1.836-2.1,5.636-6.949,8.443-10.774
	c2.807-3.826,5.538-7.331,6.069-7.791c1.361-1.178,5.551-2.453,9.751-2.967c3.045-0.373,4.655-0.22,10.792,1.029
	c3.967,0.807,9.068,1.919,11.335,2.472c2.267,0.553,4.263,0.847,4.435,0.653c0.172-0.193,1.266-3.069,2.431-6.391l2.117-6.04
	l-0.318-9.176l-0.318-9.176l-6.085-4.104c-3.347-2.257-6.094-4.309-6.105-4.56c-0.011-0.251,3.389-6.395,7.555-13.653
	c4.166-7.258,9.037-15.747,10.825-18.865c3.262-5.687,3.698-6.8,4.771-12.185c0.5-2.508,0.848-3.088,2.509-4.188l1.929-1.276
	l0.637-13.029c0.402-8.221,1.036-15.291,1.72-19.158l1.083-6.129l-1.101-9.886c-0.606-5.437-1.1-10.614-1.099-11.504l0.003-1.619
	l5.885-0.187l5.885-0.187l7.511-5.111c4.131-2.811,7.513-5.245,7.516-5.407c0.003-0.163-0.367-3.438-0.822-7.279l-0.827-6.983
	l3.885-5.421c4.532-6.323,7.337-10.989,11.112-18.482c2.338-4.64,3.424-6.118,7.637-10.384l4.912-4.974l0.444-5.587
	c0.244-3.073,0.483-5.82,0.531-6.105s-1.807-4.434-4.121-9.221s-4.195-9.191-4.181-9.787l3.322-7.782l3.192-0.428l3.192-0.428
	l2.309-7.301c1.27-4.015,3.287-10.431,4.482-14.256l2.173-6.955l7.162-6.183c3.939-3.4,7.346-6.248,7.572-6.327
	c1.127-0.397,9.237,3.764,12.314,6.318l3.4,2.822l3.525-8.239l3.525-8.239l-1.517-7.851c-1.577-8.158-1.591-10.952-0.077-15.539
	c1.107-3.356,5.291-5.7,7.84-4.393l5.507,4.765l3.606-0.335c1.983-0.184,4.142-0.537,4.797-0.783
	c0.927-0.348,3.995,0.565,13.814,4.113c6.943,2.509,12.74,4.565,12.884,4.57l6.125-8.556c0,0-6.129-4.622-6.129-4.815
	c0-0.193,0.593-0.908,1.317-1.589c2.128-1.999,4.203-6.111,5.677-11.252c2.356-8.214,1.239-14.278-3.428-18.598
	c-3.468-3.211-2.958-5.672,1.176-5.672c1.151,0,3.52-0.263,5.262-0.584c4.381-0.807,8.27,0.311,11.172,3.214
	c1.784,1.784,2.027,2.289,1.737,3.607c-0.48,2.185,0.659,3.62,4.642,5.847c4.011,2.243,9.659,7.359,10.581,9.583
	c0.408,0.986,10.547,8.383,11.673,8.686c2.032,0.547,3.417,1.773,6.017,5.325c1.531,2.092,2.752,2.395,4.649,1.152
	c1.088-0.713,4.264,1.296,4.795,1.296c0.531,0,2.889,0.811,5.24,1.803c2.352,0.992,10.688,4.701,12.132,5.41
	c1.948,0.956,2.757,1.696,3.14,2.872"/>
<path fill="#175BC9" stroke="#000000" stroke-width="3" d="M348.787,965.169c-0.306-0.495-0.437-6.812-0.232-11.181
	c0.067-1.417-0.336-13.885,0.494-15.738c0.534-1.192,1.095-2.892,1.247-3.777c0.565-3.297,1.358-5.597,3.344-9.702
	c1.122-2.319,2.039-4.65,2.039-5.18c0-1.521,0.867-2.758,2.692-3.838c1.664-0.985,2.255-1.86,3.508-5.188
	c0.35-0.93,6.661-15.482,6.282-16.089c-0.357-0.572,2.117-10.478,3.419-11.934c1.085-1.215,1.877-1.595,3.429-1.647
	c2.51-0.084,2.784,0.751,1.31,3.987c-0.583,1.281-1.062,3.327-1.064,4.547c-0.002,1.346-0.406,2.826-1.027,3.764
	c-0.563,0.85-5.727,15.109-5.532,16.651c0.183,1.45-0.58,4.164-3.242,11.524c-1.929,5.333-3.642,11.002-3.84,12.711
	c-0.258,2.224-0.849,3.847-2.117,5.815c-1.419,2.202-3.301,10.651-3.301,12.578c0,1.923-3,8.858-3.672,10.275
	c-0.832,1.754-1.577,2.627-2.333,2.734C349.578,965.569,348.947,965.428,348.787,965.169z"/>
<path fill="#175BC9" stroke="#000000" stroke-width="3" d="M416.796,911.934c-0.581-2.905-0.349-3.597,1.996-5.942
	c2.495-2.495,2.933-3.783,1.288-3.783c-0.871,0-1.03-0.344-1.03-2.222c0-1.796-0.296-2.506-1.546-3.703
	c-1.368-1.311-1.546-1.823-1.546-4.458c0-2.45-0.183-3.074-1.03-3.528c-1.345-0.72-1.3-1.261,0.278-3.33
	c2.147-2.815,2.408-4.549,1.066-7.097c-0.83-1.575-1.001-6.849-1.864-8.016c-1.778-2.405-1.086-4.153,3.125-7.895
	c3.81-3.386,7.246-8.79,7.911-12.443c0.45-2.471,2.696-5.032,6.119-6.977c1.477-0.839,3.247-2.131,3.934-2.871
	c0.687-0.74,1.657-1.346,2.155-1.346c0.944,0,1.184,0.519,1.727,3.735c0.618,3.663,2.317,1.974,2.333-2.318
	c0.007-1.794,0.115-1.932,1.527-1.932c0.898,0,1.741,0.369,2.061,0.902c0.515,0.858,0.567,0.858,1.084-0.003
	c0.418-0.697,0.765-0.786,1.512-0.386c1.585,0.849,1.896,0.648,3.56-2.301c0.875-1.551,2.155-3.189,2.844-3.64
	c1.139-0.746,1.394-0.747,2.812-0.014c0.858,0.444,2.382,0.806,3.388,0.806c2.232,0,2.419,1.007,0.471,2.539
	c-0.841,0.662-2.114,1.068-3.349,1.068c-1.924,0-1.991,0.059-1.991,1.766c0,1.947-8.862,11.552-9.139,12.402
	c-0.435,1.333-0.729,1.527-2.134,1.413c-1.936-0.157-2.46,0.825-3.212,6.027c-0.38,2.63,0.514,11.758,1.869,12.824
	c0.781,0.615,2.085,1.117,2.897,1.117c1.302,0,1.476,0.186,1.476,1.569c0,1.932-1.536,3.554-5.051,5.335
	c-3.82,1.935-5.624,4.946-2.965,4.946c0.692,0,1.397,0.226,1.568,0.502c0.526,0.85-3.868,5.127-8.096,7.881
	c-2.965,1.931-3.945,2.841-3.743,3.476c0.15,0.473-0.203,1.465-0.785,2.204c-0.582,0.739-1.542,2.439-2.133,3.777
	c-1.048,2.369-1.051,2.45-0.111,3.139c0.939,0.688,0.936,0.758-0.126,2.616c-1.258,2.2-6.018,5.773-7.691,5.773
	C417.394,913.544,417.04,913.153,416.796,911.934z"/>
<path fill="none" stroke="#000000" stroke-width="3" d="M159.484,835.128c-1.006-1.006-0.724-2.614,1.184-6.745
	c2.137-4.626,3.391-5.398,5.251-3.236c1.465,1.703,1.53,3.911,0.153,5.228c-0.57,0.545-1.324,1.307-1.674,1.693
	C160.703,836.133,160.571,836.215,159.484,835.128z"/>
<path fill="none" stroke="#000000" stroke-width="3" d="M156.906,823.6c-0.576-0.403-1.56-1.563-2.186-2.576
	c-0.996-1.612-1.055-2-0.466-3.099c0.37-0.691,2.239-2.327,4.153-3.635c2.065-1.411,3.73-2.98,4.093-3.857
	c0.524-1.265,0.898-1.478,2.591-1.478c2.228,0,3.731,1.225,4.931,4.02c1.046,2.437,0.417,4.838-1.981,7.563
	c-2.117,2.405-3.322,2.894-3.836,1.555c-0.485-1.265-3.133-0.958-4.07,0.472C159.057,824.209,158.179,824.491,156.906,823.6z"/>
<path fill="#175BC9" stroke="#000000" stroke-width="3" d="M367.108,816.297c-0.3-0.779-1.522-4.808-1.929-4.964
	c-1.042-0.4-0.922-1.54,0.276-2.623c0.947-0.857,1.105-0.863,2.298-0.081c2.199,1.441,3.25,7.155,1.545,8.401
	C367.984,817.99,367.727,817.904,367.108,816.297z"/>
<path fill="#175BC9" stroke="#000000" stroke-width="3" d="M413.727,767.394c-1.741-1.741,2.061-5.682,5.195-5.385
	c1.225,0.116,0.636,1.736-1.356,3.728C415.661,767.642,414.483,768.151,413.727,767.394z"/>
<path fill="#175BC9" stroke="#000000" stroke-width="3" d="M418.535,758.396c0-2.491,4.245-7.088,5.943-6.437
	c1.1,0.422,0.93,1.434-0.578,3.442c-0.733,0.976-1.539,2.296-1.79,2.934C421.466,759.964,418.535,760.014,418.535,758.396z"/>
<path fill="#175BC9" stroke="#000000" stroke-width="3" d="M425.164,726.745c-1.258-1.258-0.573-2.981,1.785-4.494
	c1.182-0.758,2.523-1.652,2.98-1.986c0.457-0.334,1.227-0.455,1.71-0.27c1.315,0.505,0.575,2.343-1.804,4.478
	c-1.114,1-2.025,2.101-2.025,2.447C427.809,727.814,426.121,727.702,425.164,726.745z"/>
<path fill="#175BC9" stroke="#000000" stroke-width="3" d="M434.762,715.572c0.665-3.302,0.754-3.411,3.083-3.761
	c2.662-0.399,3.36-0.079,3.36,1.541c0,0.783-2.012,2.01-1.824,2.314c0.397,0.642-1.775,1.579-3.66,1.579
	C434.533,717.246,434.453,717.106,434.762,715.572z"/>
<path fill="#005B99" stroke="#000000" stroke-width="3" d="M520.806,72.491c0,0-136.772,183.482-190.921,392.707
	c-109.712,423.909-97.257,558.955-97.257,558.955c2.355-0.159,4.93-0.699,6.377-1.339c1.335-0.59,2.803-1.075,3.263-1.077
	c0.46-0.002,1.49-0.344,2.289-0.761c1.292-0.674,1.592-0.667,2.705,0.062c0.689,0.451,1.252,1.006,1.252,1.234
	c0,0.228,0.781,0.897,1.735,1.486c1.294,0.8,2.571,1.068,5.023,1.056c3.674-0.018,4.526-0.466,5.845-3.075
	c0.502-0.992,1.328-2.267,1.836-2.834c1.247-1.39,2.123-4.901,1.722-6.903c-0.18-0.898-1.571-3.885-3.092-6.639
	c-3.079-5.573-3.447-7.858-1.967-12.218c1.807-5.322,8.47-14.105,12.139-16.002c1.356-0.701,1.475-0.663,2.526,0.814
	c2.263,3.178,6.234,3.856,7.994,1.365c0.735-1.04,0.7-1.191-0.501-2.157c-1.5-1.207-3.381-4.798-3.014-5.755
	c0.43-1.12,3.775-1.701,9.81-1.704c5.728-0.003,5.796-0.017,5.796-1.205c0-1.881,0.419-1.882,2.294-0.008
	c1.68,1.68,1.849,1.732,4.609,1.407c2.379-0.28,2.92-0.194,3.189,0.506c0.538,1.403,4.16,1.061,7.853-0.741
	c4.524-2.207,6.046-2.355,8.847-0.86c1.83,0.977,2.499,1.718,3.174,3.515c0.711,1.892,1.059,2.253,2.059,2.132
	c1.681-0.203,2.629-1.302,3.526-4.094c0.63-1.957,1.202-2.652,3.091-3.749c1.275-0.74,2.6-1.926,2.943-2.635
	c0.344-0.708,0.839-3.963,1.1-7.232c0.487-6.089,1.465-9.322,3.667-12.122c0.577-0.733,3.021-7.878,3.649-9.434
	c0.628-1.557,1.923-3.783,2.877-4.948c0.954-1.165,3.627-4.107,3.627-4.922c0-0.253,1.039-1.687,0.214-2.626
	c-1.071-1.219-1.371-1.939-1.05-2.513c0.402-0.719,1.028-3.596,1.869-8.598c0.219-1.3,0.023-1.987-0.821-2.885
	c-1.385-1.474-0.699-2.212,2.282-2.455l2.054-0.167l-0.136-2.557c-0.075-1.406-0.639-3.596-1.254-4.867
	c-1.755-3.626-1.826-7.105-0.216-10.623c0.741-1.619,1.348-3.599,1.348-4.399c0-1.078,0.366-1.631,1.412-2.132
	c2.104-1.008,2.911-3.172,2.941-7.884c0.024-3.806-0.102-4.319-1.636-6.638l-1.662-2.513l6.415-8.017l-1.249-1.332
	c-0.687-0.733-1.556-1.332-1.932-1.332c-0.934,0-0.866-1.365,0.086-1.731c0.572-0.22,0.14-0.884-1.687-2.593
	c-1.351-1.264-2.987-3.242-3.636-4.397l1.932-2.576c0.511-0.324,1.521,0.138,3.396,1.554c3.027,2.285,3.608,2.421,4.359,1.018
	c0.978-1.828,0.552-3.67-1.574-6.8c-1.159-1.707-2.028-3.155-1.932-3.219c0.096-0.064,0.832-0.528,1.635-1.031
	c1.349-0.845,1.398-0.984,0.644-1.817c-0.501-0.553-0.997-5.82-2.104-6.324c-1.96-0.893-1.543-1.354,0.97-1.071
	c1.827,0.206,2.467,0.046,3.349-0.836c1.404-1.404,1.373-2.096-0.186-4.235c-2.547-3.492-2.642-3.933-1.101-5.145
	c1.623-1.276,1.178-2.26-1.264-2.797c-1.912-0.42-1.903-0.93,0.042-2.315c1.729-1.231,1.611-2.057-0.294-2.057
	c-1.233,0-3.318-1.596-3.318-2.539c0-0.263,1.274-0.849,2.831-1.302c3.078-0.895,6.443-3.454,6.443-4.9
	c0-0.498-6.859-7.049-6.952-7.142c-0.202-0.202-7.726-1.032-13.178-1.454c-3.091-0.239-4.251-0.121-5.586,0.57
	c-1.984,1.026-2.097,0.971-1.749-0.84c0.51-2.653,2.191-2.915,10.802-1.687c4.206,0.6,8.933,1.388,10.504,1.75
	c5.114,1.179,11.304-0.978,11.315-3.943c0.002-0.509,0.356-1.602,0.788-2.43c0.538-1.032-0.318-3.449,0.83-2.834
	c0.708,0.379,1.959,0.454,3.478,0.209c1.305-0.211,8.039-0.507,8.039-0.507l0.258-2.061c0.248-1.983,0.33-2.062,2.164-2.078
	c1.048-0.009,2.033-0.143,2.187-0.298c0.155-0.155-2.783-4.612-2.791-4.966c-0.02-0.893,1.015-0.805,2.102,0.179
	c1.371,1.24,2.005,0.441,2.005-2.528c0-2.426,0.163-2.805,1.759-4.078c0.993-0.792,2.649-4.521,2.899-4.521
	c0.497,0,1.287,2.619,1.827,6.054c0.189,1.204,1.242,3.091,1.074,4.379c-0.622,4.765,0.797,4.712,3.999-0.149
	c1.335-2.027,1.839-3.357,1.843-4.863c0.007-2.927,2.008-6.851,4.8-9.414c2.625-2.41,3.16-2.597,3.859-1.348
	c0.434,0.776,0.659,0.77,2.852-0.067c2.007-0.767,2.337-1.083,2.104-2.015c-0.191-0.76,0.134-1.492,1.038-2.341
	c1.161-1.09,1.315-1.648,1.315-4.752c0-3.134-0.109-3.517-0.997-3.517c-0.548,0-1.622-0.238-2.386-0.528
	c-1.342-0.51-1.358-0.563-0.478-1.536c0.736-0.813-0.258-2.836-0.135-3.199c0.22-0.651,1.6,0.631,5.375,4.993
	c2.396,2.769,3.798,2.424,6.969-1.714c2.978-3.887,2.942-4.264-0.812-8.39c-3.448-3.791-5.483-4.036-6.892-0.831
	c-0.518,1.179-0.943,1.417-2.532,1.417c-1.985,0-6.356,1.803-6.356,2.622c0,0.258-3.04-0.639-3.607-0.819
	c-1.393-0.442-1.496-4.234-0.129-4.757c0.496-0.19,2.673-2.356,2.688-1.555c0.009,0.496-0.737,1.568-0.618,2.382
	c0.203,1.383,0.293,1.212,1.911,1.098c2.438-0.171,2.792-0.469,3.087-2.44c0.267-1.78,1.084-2.182,3.247-2.192
	c1.356-0.006,1.795-0.285,2.245-1.425c0.308-0.779,0.732-1.761,0.942-2.183c0.446-0.892,4.387-3.894,6.076-4.629
	c0.638-0.278,1.979-2.346,2.98-3.347c1.505-1.505,1.729-1.994,1.289-2.816c-0.439-0.82-0.284-1.17,0.884-1.991
	c2.75-1.933,4.741-2.68,7.146-2.68c3.015,0,4.317-1.045,4.317-3.464c0-1.426-0.188-1.767-0.902-1.509
	c-5.09,1.842-9.66,0.002-9.66,0.002l3.349-0.477c4.017-0.573,4.521-1.591,2.071-4.185c-0.856-0.906-1.556-1.891-1.556-2.19
	c0-0.945,1.127-0.59,2.364,0.745c1.452,1.567,1.641,1.578,3.122,0.187c1.503-1.412,0.971-2.508-1.831-3.772
	c-1.609-0.726-2.557-1.733-4.216-4.478c-2.319-3.839-3.502-6.709-3.537-8.587c-0.034-1.768-0.95-3.194-1.834-2.854
	c-0.421,0.161-0.765,0.616-0.765,1.011c0,0.928-0.182,0.909-2.479-0.263c-2.895-1.477-3.846-1.521-4.185-0.194
	c-0.246,0.964-0.89,0.262-4.088-4.454c-2.088-3.079-3.71-5.857-3.605-6.173c0.106-0.317,1.317,0.354,2.693,1.492
	c2.462,2.035,4.013,2.491,5.425,1.597c1.831-1.16-5.069-7.333-11.537-10.321c-4.249-1.963-6.955-4.402-6.955-6.268
	c0-0.606-0.719-1.433-1.803-2.072c-1.737-1.025-1.803-1.176-1.803-4.104c0-2.997-0.021-3.04-1.464-3.04
	c-2.083,0-6.189,1.318-7.334,2.353c-0.534,0.484-1.796,4.344-2.01,4.344c-0.751,0-3.393-3.618-3.747-3.737
	c-0.494-0.166-0.434-0.805,0.26-2.748c1.398-3.916,1.424-3.885-3.094-3.75c-4.973,0.149-7.271-0.367-8.759-1.968
	c-1.558-1.676-1.471-2.093,0.648-3.103c2.11-1.006,2.045-1.841-0.373-4.851c-1.432-1.782-1.478-1.989-0.887-3.962
	c0.841-2.809,0.413-3.705-1.773-3.705c-1.677,0-1.794-0.117-2.132-2.12c-0.351-2.075,1.813-5.157,1.813-5.866
	c0-1.027-0.258-1.288-1.275-1.288c-1.156,0-1.228-0.124-0.773-1.322c0.814-2.14,0.579-5.507-0.528-7.572
	c-1.347-2.514-1.301-3.248,0.307-4.856c1.105-1.105,1.247-1.537,0.814-2.486c-0.446-0.978-0.3-1.314,0.981-2.261
	c0.934-0.69,1.504-1.58,1.504-2.345c0-1.436-1.893-3.864-3.814-4.892c-1.602-0.857-1.734-1.572-0.291-1.572
	c1.435,0,1.933-1.522,0.776-2.368c-0.625-0.457-0.795-0.971-0.53-1.6c0.215-0.51,0.404-2.549,0.42-4.533
	c0.028-3.539,0.003-3.61-1.357-3.77c-1.524-0.179-1.725-0.892-0.651-2.308c0.386-0.509,0.438-2.939,1.3-2.939
	c0.618,0,1.598-0.253,2.176-0.563c1.022-0.547,1.006-0.61-0.585-2.252l-1.637-1.689l1.258-0.241
	c0.973-0.186,1.829,0.308,3.771,2.175c1.382,1.328,2.93,3.029,3.439,3.78c1.094,1.613,2.181,1.75,2.92,0.368
	c0.98-1.831,0.56-4.74-1.27-8.793c-0.992-2.197-1.803-4.454-1.803-5.017c0-0.783-0.272-0.971-1.159-0.801
	c-1.12,0.214-1.159,0.091-1.146-3.663c0.013-3.673,0.104-3.979,1.679-5.603c1.513-1.561,1.727-2.19,2.33-6.863
	c0.372-2.884,1.028-5.664,1.492-6.327c0.629-0.898,0.716-1.573,0.362-2.808c-0.724-2.523-0.582-3.436,0.534-3.436
	c0.55,0,2.027,1.028,2.598,1.178c0.91,0.238,1.038,0.023,1.038-1.741c0-1.662-0.178-2.013-1.02-2.013
	c-0.561,0-1.948-0.371-3.081-0.825c-1.608-0.643-2.166-1.203-2.536-2.545c-0.487-1.765-2.696-5.041-4.326-6.418
	c-0.505-0.426-1.045-1.586-1.201-2.578c-0.24-1.528,0.011-2.18,1.647-4.272c1.062-1.358,2.279-2.401,2.704-2.318
	c0.425,0.083,1.107,1.15,1.514,2.373c0.522,1.567,1.143,2.375,2.104,2.739c0.75,0.284,4.033,2.546,4.731,2.624
	c1.133,0.127,1.248-0.023,1.076-1.403c-0.106-0.85-0.222-2.352-0.258-3.338c-0.063-1.76-0.02-1.799,2.413-2.151
	c2.793-0.405,3.963-1.154,3.963-2.536c0-0.519,0.275-1.546,0.611-2.284c0.595-1.305,0.626-1.313,1.174-0.289
	c0.525,0.98,3.022-3.45,3.022-3.45l-1.115-1.418c-0.766-0.974-1.122-2.163-1.138-3.796c-0.036-3.812-0.82-6.904-1.989-7.851
	c-0.958-0.775-1.544-3.027-0.789-3.027c0.16,0,3.368,3.091,4.298,3.091c2.235,0,6.493-1.443,7.481-2.535
	c0.866-0.957,0.859-1.04-0.173-1.923c-1.119-0.958-1.475-2.755-0.547-2.755c0.292,0,2.939,2.689,4.101,2.32
	c1.18-0.374,4.641-4.942,4.641-6.124c0-0.458-0.348-0.833-0.773-0.833c-1.209,0-0.907-0.804,0.552-1.469
	c0.83-0.378,1.261-0.938,1.155-1.5c-0.134-0.708-0.871-0.95-3.514-1.154c-1.96-0.151-3.079-0.429-2.704-0.672
	c0.352-0.228,2.265-2.258,4.251-4.511c2.648-3.005,3.61-4.484,3.61-5.55c0-1.293,0.157-1.43,1.419-1.245
	c1.035,0.152,2.064-0.284,3.799-1.609c3.176-2.425,3.377-3.131,1.189-4.169c-2.01-0.954-2.24-1.604-0.736-2.081
	c0.764-0.242,1.786,0.314,3.907,2.125c3.469,2.963,3.826,2.848,6.441-2.077c1.018-1.917,2.479-3.988,3.246-4.6
	c1.471-1.175,2.339-3.811,2.361-7.168c0.011-1.753,0.141-1.932,1.405-1.932c0.86,0,2.024,0.612,3.044,1.6l1.651,1.6l0.802-1.224
	c0.748-1.142,0.693-1.51-0.815-5.461c-0.889-2.33-1.462-4.391-1.273-4.58c0.588-0.588,2.426,1.47,4.531,5.074
	c1.11,1.9,2.257,3.603,2.55,3.784c0.293,0.181,1.32-0.506,2.283-1.527c1.658-1.759,1.715-1.94,1.081-3.449
	c-0.619-1.473-0.55-1.78,0.93-4.085c1.022-1.592,1.976-2.503,2.644-2.522c1.744-0.05,3.275-1.502,3.855-3.655
	c0.569-2.112,1.309-2.478,3.086-1.527c1.313,0.703,3.327-0.125,4.442-1.827c0.602-0.919,0.866-2.271,0.815-4.183
	c-0.103-3.924,1.128-3.454,1.337,0.512c0.158,2.991,0.459,3.319,2.198,2.388c0.757-0.405,0.997-1.087,0.997-2.834
	c0-2.702,0.828-3.719,4.569-5.615c3.183-1.613,4.474-3.23,4.867-6.097c0.351-2.561,1.9-6.208,3.447-8.116
	c0.696-0.858,1.218-2.602,1.541-5.152c1.015-8.011,1.882-10.412,4.34-12.022c1.231-0.807,1.956-2.28,2.853-5.8
	c0.529-2.073,0.596-2.125,3.195-2.432c3.446-0.408,5.2-1.932,4.805-4.174c-0.224-1.272,0.075-2.02,1.54-3.842
	c2.637-3.28,2.471-5.839-0.285-4.414c-1.447,0.748-1.468,0.736-2.837-1.6c-1.193-2.035-1.293-2.515-0.743-3.544
	c0.506-0.946,0.505-1.44-0.008-2.413c-0.852-1.617-1.465-1.979-3.363-1.989c-1.03-0.005-2.022-0.473-2.834-1.337
	c-1.238-1.318-1.24-1.336-0.219-2.083c1.028-0.752,1.028-0.758-0.076-2.773c-0.955-1.743-1.004-2.104-0.36-2.639
	c0.435-0.361,0.681-1.282,0.591-2.209c-0.143-1.465-0.332-1.61-2.421-1.847c-2.986-0.339-3.637-1.374-2.307-3.671
	c0.554-0.957,1.515-1.966,2.136-2.244c1.478-0.66,1.725-1.417,1.046-3.216c-0.525-1.392-0.397-1.632,2.22-4.148
	c1.956-1.881,3.197-2.674,4.195-2.682c1.856-0.015,1.801-0.871-0.126-1.967c-1.848-1.052-1.979-1.65-0.359-1.65
	c0.654,0,1.64-0.336,2.19-0.747c0.964-0.72,0.968-0.805,0.098-2.36c-1.16-2.076-1.136-2.56,0.129-2.56
	c1.444,0,1.324-1.633-0.258-3.513c-2.043-2.428-1.65-3.742,2.424-8.124c1.275-1.371,1.407-1.779,0.957-2.962
	c-0.601-1.581-0.911-1.669-2.1-0.593c-0.772,0.699-1.11,0.67-3.261-0.282c-2.62-1.159-2.829-1.54-1.546-2.823
	c1.31-1.31,3.048-1.797,6.417-1.797c2.584,0,3.285-0.204,4.346-1.265c0.696-0.696,3.487-2.689,3.839-3.112
	c0.857-1.032-0.447-3.043-2.919-4.502c-1.585-0.935-1.702-1.134-0.924-1.57c0.509-0.285,2.338-0.351,4.263-0.153
	c2.662,0.273,3.621,0.615,4.558,1.625l1.186,1.28l2.071-1.057c1.139-0.581,2.071-1.353,2.071-1.716c0-1.063-1.134-1.896-2.581-1.896
	c-0.739,0-1.794-0.355-2.344-0.788c-0.919-0.724-0.76-0.761,1.956-0.457c2.532,0.284,3.006,0.202,3.304-0.574
	c0.329-0.856-0.567-1.92-2.082-2.474c-0.408-0.149-0.392-0.512,0.057-1.274c0.843-1.43,0.284-7.769-0.795-9.009
	c-0.729-0.838-0.72-1.063,0.1-2.451c0.683-1.156,0.818-2.091,0.555-3.843c-0.292-1.949-0.213-2.315,0.504-2.315
	c0.468,0,1.474,1.001,2.236,2.225c1.321,2.122,1.496,2.223,3.801,2.19l2.416-0.035l0.509-2.573c0.32-1.616,0.329-2.909,0.025-3.478
	c-1.09-2.037,0.811-0.725,4.289,2.96c2.466,2.612,4.028,3.864,4.822,3.864c0.683,0,1.599,0.583,2.19,1.394l1.015,1.394l1.855-1.415
	c2.635-2.01,3.172-3.197,2.151-4.756l-0.821-1.253l3.49-0.006c1.919-0.003,4.765-0.348,6.323-0.767
	c3.541-0.95,5.646-0.952,6.898-0.004c0.683,0.517,6.145-0.602,6.498-1.027c0.389-0.469,1.517-0.773,2.868-0.773h2.227l-2.032-4.578
	c-1.118-2.518-2.032-5.189-2.032-5.936c0-2.309-2.763-7.522-7.124-13.443c-5.114-6.942-6.532-9.487-7.59-13.615
	c-0.971-3.79-0.688-6.197,1.248-10.6c1.339-3.046,1.357-3.24,1.211-13.295c-0.128-8.84-0.288-10.561-1.201-12.88
	c-1.577-4.005-4.736-10.107-7.595-14.668c-1.399-2.232-5.671-10.253-5.671-10.253l1.847-3.819c2.169-4.486,2.681-8.123,1.53-10.878
	c-1.033-2.473-2.889-3.614-6.166-3.791c-2.653-0.143-2.685-0.165-3.114-2.118c-0.238-1.085-0.339-7.654-0.223-14.596
	c0.193-11.587,0.302-12.829,1.331-15.137l1.121-2.514l-1.024-1.657c-0.563-0.911-2.425-2.639-4.137-3.84
	c-2.38-1.67-3.461-2.87-4.593-5.103c-2.031-4.007-3.668-5.465-5.682-5.062c-1.487,0.297-2.486-6.688-3.519-7.719
	C521.718,74.471,521.089,73.362,520.806,72.491"/>
</svg>
