<?xml version="1.0" encoding="utf-8"?>
<!-- Generator: Adobe Illustrator 17.1.0, SVG Export Plug-In . SVG Version: 6.00 Build 0)  -->
<!DOCTYPE svg PUBLIC "-//W3C//DTD SVG 1.1//EN" "http://www.w3.org/Graphics/SVG/1.1/DTD/svg11.dtd">
<svg version="1.1" id="svg2" xmlns:svg="http://www.w3.org/2000/svg"
	 xmlns="http://www.w3.org/2000/svg" xmlns:xlink="http://www.w3.org/1999/xlink" x="0px" y="0px" viewBox="0 0 744.094 1052.362"
	 enable-background="new 0 0 744.094 1052.362" xml:space="preserve">
<g id="layer1">
	<path id="path1380" fill="#FCD116" stroke="#000000" stroke-width="3" d="M217.303,1027.735c-0.872-0.395-2.379-1.41-3.349-2.255
		c-3.695-3.22-6.1-3.836-9.474-2.426c-2.354,0.983-3.367,0.361-3.367-2.07c0-2.307,1.459-3.569,3.31-2.865
		c0.766,0.291,1.519,0.53,1.672,0.53c0.596,0-0.259-3.999-1.404-6.568l-1.205-2.703l1.049-1.405c0.668-0.895,1.78-1.552,3.064-1.81
		c1.108-0.223,2.421-0.893,2.917-1.488c1.801-2.161,1.085-3.638-3.607-7.433c-1.52-1.23-1.674-1.614-1.674-4.176
		c0-3.145-0.387-4.108-2.902-7.22c-0.954-1.181-1.735-2.519-1.735-2.974c0-0.454-3.853-10.732-4.617-11.881
		c-0.753-1.133-2.144-3.865-3.09-6.071c-0.946-2.206-1.918-4.132-2.159-4.281c-0.241-0.149-0.438-1.076-0.438-2.06
		c0-3.362,2.832-3.009,6.604,0.823c2.063,2.096,2.86,2.573,4.301,2.573c2.154,0,3.006-0.766,3.006-2.704
		c0-1.145-0.793-2.225-3.613-4.92c-3.222-3.08-3.647-3.714-3.929-5.864c-0.613-4.677,0.541-6.146,3.77-4.797
		c1.011,0.422,2.626,0.768,3.59,0.768c1.432,0,1.856-0.259,2.316-1.417c1.259-3.166,1.357-4.756,0.508-8.234
		c-0.809-3.313-0.921-3.48-2.253-3.341c-1.809,0.19-4.035-0.978-5.749-3.014c-1.185-1.408-1.32-1.926-1.05-4.011
		c0.283-2.181-9.268-12.94-9.788-13.234c-0.669-0.378-1.076-1.488-1.391-3.789c-0.307-2.244-5.597-13.96-5.597-14.466
		c0-1.614-1.553-4.709-2.977-5.934c-1.3-1.118-1.335-1.264-0.623-2.596c0.957-1.789,0.714-3.789-0.638-5.249
		c-0.941-1.016-0.984-1.311-0.395-2.734c0.471-1.138,0.502-1.753,0.106-2.149c-0.396-0.396-0.778-0.019-1.336,1.317
		c-0.615,1.472-1.068,1.871-2.122,1.871c-2.763,0-3.464-5.068-1.802-13.026c0.924-4.426,0.422-6.102-2.586-8.62
		c-1.749-1.465-2.742-2.775-3.16-4.171c-0.588-1.963-0.549-2.099,1.105-3.805l1.715-1.769l-2.144-2.326
		c-1.239-1.344-2.144-2.834-2.144-3.529c0-0.701,0.96-2.264,2.302-3.747c2.776-3.068,3.588-5.225,3.201-8.498
		c-0.3-2.529-0.063-3.602,1.999-9.048c0.914-2.413,1.141-3.864,0.969-6.183c-0.331-4.456-0.586-5.167-2.295-6.384
		c-2.23-1.588-4.045-0.99-8.136,2.677c-3.403,3.052-6.511,5-7.074,4.437c-0.707-0.707,0.608-3.273,2.906-5.669
		c1.374-1.434,2.353-2.843,2.175-3.131c-0.182-0.295-0.911,0.189-1.663,1.103c-1.46,1.776-2.83,2.084-3.55,0.797
		c-0.517-0.923-0.223-3.167,0.47-3.595c0.25-0.154,0.454-1.114,0.454-2.133c0-1.705-0.072-1.793-0.902-1.107
		c-2.13,1.763-3.657,2.206-5.046,1.462c-1.843-0.986-1.461-2.58,0.923-3.852c1.062-0.567,1.931-1.325,1.932-1.684
		s-0.57-1.75-1.267-3.091c-1.208-2.321-1.239-2.607-0.658-5.973c0.61-3.532,0.609-3.539-1.101-6.626
		c-0.968-1.747-1.712-3.828-1.712-4.789c0-2.534,0.632-5.03,1.533-6.051c0.85-0.964,0.884-0.778-1.21-6.711
		c-0.713-2.02-0.773-2.952-0.333-5.152c0.296-1.477,0.413-3.332,0.261-4.121c-0.351-1.826,0.942-3.328,3.237-3.758
		c0.934-0.175,2.115-0.779,2.624-1.341c0.836-0.923,4.268-2.692,4.581-2.36c0.071,0.075,0.393,2.338,0.717,5.03
		c0.324,2.692,1.073,6.228,1.665,7.857c0.998,2.746,1.194,2.962,2.682,2.955c3.479-0.015,3.794-0.317,4.753-4.553
		c0.691-3.049,1.282-4.355,2.614-5.772c1.635-1.74,1.732-2.059,1.945-6.44c0.125-2.581,0.592-5.489,1.06-6.609
		c0.95-2.273,0.788-3.722-1.86-16.616c-0.823-4.005-1.481-7.598-1.463-7.986c0.018-0.388,2.196-2.559,4.84-4.826l4.807-4.122
		l0.351-3.073c0.342-3,0.312-3.105-1.27-4.396l-1.621-1.323l2.577-2.173c2.042-1.722,2.985-2.173,4.545-2.176
		c3.194-0.005,5.907-0.99,8.924-3.243c3.853-2.876,8.2-7.025,9.009-8.598c0.406-0.789,0.809-4.516,1.032-9.539l0.366-8.243
		l2.215-2.318c2.132-2.231,2.234-2.49,2.727-6.862l0.512-4.543l-3.485-8.665c-2.9-7.21-3.807-10.238-5.401-18.036
		c-1.054-5.154-1.803-9.484-1.665-9.622c0.138-0.138,3.686-1.059,7.886-2.047c4.199-0.988,7.68-1.843,7.735-1.9
		c0.588-0.615,6.383-21.243,6.144-21.867c-0.178-0.463-2.11-3.682-4.295-7.154l-3.972-6.313l-2.714-0.585
		c-2.564-0.553-2.992-0.897-7.766-6.236l-5.052-5.651l1.692-10.669c0.931-5.868,2.319-14.726,3.085-19.685l1.393-9.016
		l-3.179-13.304l-3.179-13.304l1.833-3.128l1.833-3.128l-0.354-6.058l-0.354-6.058l2.438-4.472c1.341-2.46,2.319-4.859,2.173-5.333
		c-0.146-0.473-1.116-3.179-2.157-6.013c-3.805-10.365-3.902-13.636-0.529-17.882c0.966-1.216,2.719-3.947,3.894-6.068l2.137-3.857
		l-0.593-3.872c-0.497-3.249-0.466-4.226,0.196-6.076c1.047-2.927,3.683-6.833,7.758-11.494c1.836-2.1,5.636-6.949,8.443-10.774
		c2.807-3.826,5.538-7.331,6.069-7.791c1.361-1.178,5.551-2.453,9.751-2.967c3.045-0.373,4.655-0.22,10.792,1.029
		c3.967,0.807,9.068,1.919,11.335,2.472c2.267,0.553,4.263,0.847,4.435,0.653c0.172-0.193,1.266-3.069,2.431-6.391l2.117-6.04
		l-0.318-9.176l-0.318-9.176l-6.085-4.104c-3.347-2.257-6.094-4.309-6.105-4.56c-0.011-0.251,3.389-6.395,7.555-13.653
		c4.166-7.258,9.037-15.747,10.825-18.865c3.262-5.687,3.698-6.8,4.771-12.185c0.5-2.508,0.848-3.088,2.509-4.188l1.929-1.276
		l0.637-13.029c0.402-8.221,1.036-15.291,1.72-19.158l1.083-6.129l-1.101-9.886c-0.606-5.437-1.1-10.614-1.099-11.504l0.003-1.619
		l5.885-0.187l5.885-0.187l7.511-5.111c4.131-2.811,7.513-5.245,7.516-5.407c0.003-0.163-0.367-3.438-0.822-7.279l-0.827-6.983
		l3.885-5.421c4.532-6.323,7.337-10.989,11.112-18.482c2.338-4.64,3.424-6.118,7.637-10.384l4.912-4.974l0.444-5.587
		c0.244-3.073,0.483-5.82,0.531-6.105s-1.807-4.434-4.121-9.221s-4.195-9.191-4.181-9.787l3.322-7.782l3.192-0.428l3.192-0.428
		l2.309-7.301c1.27-4.015,3.287-10.431,4.482-14.256l2.173-6.955l7.162-6.183c3.939-3.4,7.346-6.248,7.572-6.327
		c1.127-0.397,9.237,3.764,12.314,6.318l3.4,2.822l3.525-8.239l3.525-8.239l-1.517-7.851c-1.577-8.158-1.591-10.952-0.077-15.539
		c1.107-3.356,5.291-5.7,7.84-4.393l5.507,4.765l3.606-0.335c1.983-0.184,4.142-0.537,4.797-0.783
		c0.927-0.348,3.995,0.565,13.814,4.113c6.943,2.509,12.74,4.565,12.884,4.57l6.125-8.556c0,0-6.129-4.622-6.129-4.815
		c0-0.193,0.593-0.908,1.317-1.589c2.128-1.999,4.203-6.111,5.677-11.252c2.356-8.214,1.239-14.278-3.428-18.598
		c-3.468-3.211-2.958-5.672,1.176-5.672c1.151,0,3.52-0.263,5.262-0.584c4.381-0.807,8.27,0.311,11.172,3.214
		c1.784,1.784,2.027,2.289,1.737,3.607c-0.48,2.185,0.659,3.62,4.642,5.847c4.011,2.243,9.659,7.359,10.581,9.583
		c0.408,0.986,10.547,8.383,11.673,8.686c2.032,0.547,3.417,1.773,6.017,5.325c1.531,2.092,2.752,2.395,4.649,1.152
		c1.088-0.713,4.264,1.296,4.795,1.296c0.531,0,2.889,0.811,5.24,1.803c2.352,0.992,10.688,4.701,12.132,5.41
		c1.948,0.956,2.757,1.696,3.14,2.872c0.283,0.871,0.912,1.98,1.397,2.465c1.033,1.031,2.032,8.017,3.519,7.719
		c2.015-0.403,3.652,1.055,5.682,5.062c1.132,2.233,2.212,3.433,4.593,5.103c1.712,1.201,3.573,2.929,4.137,3.84l1.024,1.657
		l-1.121,2.514c-1.029,2.308-1.138,3.55-1.331,15.137c-0.116,6.943-0.015,13.511,0.223,14.596c0.429,1.953,0.461,1.975,3.114,2.118
		c3.276,0.176,5.132,1.317,6.166,3.791c1.151,2.755,0.64,6.393-1.53,10.878l-1.847,3.819c0,0,4.272,8.021,5.671,10.253
		c2.859,4.561,6.018,10.663,7.595,14.668c0.913,2.319,1.074,4.04,1.201,12.88c0.145,10.055,0.128,10.249-1.211,13.295
		c-1.936,4.404-2.219,6.81-1.248,10.6c1.058,4.128,2.476,6.673,7.59,13.615c4.362,5.921,7.124,11.134,7.124,13.443
		c0,0.747,0.914,3.418,2.032,5.936l2.032,4.578h-2.227c-1.351,0-2.479,0.304-2.868,0.773c-0.353,0.425-5.815,1.544-6.498,1.027
		c-1.252-0.948-3.357-0.947-6.898,0.004c-1.558,0.418-4.404,0.763-6.323,0.767l-3.49,0.006l0.821,1.253
		c1.021,1.559,0.484,2.746-2.151,4.756l-1.855,1.415l-1.015-1.394c-0.59-0.81-1.507-1.394-2.19-1.394
		c-0.794,0-2.357-1.252-4.822-3.864c-3.478-3.684-5.379-4.996-4.289-2.96c0.304,0.568,0.295,1.861-0.025,3.478l-0.509,2.573
		l-2.416,0.035c-2.305,0.034-2.48-0.067-3.801-2.19c-0.762-1.224-1.768-2.225-2.236-2.225c-0.717,0-0.796,0.366-0.504,2.315
		c0.263,1.752,0.128,2.687-0.555,3.843c-0.82,1.387-0.829,1.613-0.1,2.451c1.079,1.24,1.639,7.578,0.795,9.009
		c-0.449,0.761-0.465,1.124-0.057,1.274c1.516,0.555,2.411,1.618,2.082,2.474c-0.298,0.776-0.772,0.858-3.304,0.574
		c-2.716-0.305-2.875-0.268-1.956,0.457c0.55,0.434,1.605,0.788,2.344,0.788c1.447,0,2.581,0.833,2.581,1.896
		c0,0.363-0.932,1.135-2.071,1.716l-2.071,1.057l-1.186-1.28c-0.937-1.011-1.896-1.353-4.558-1.625
		c-1.926-0.197-3.754-0.131-4.263,0.153c-0.778,0.436-0.661,0.635,0.924,1.57c2.472,1.459,3.776,3.47,2.919,4.502
		c-0.352,0.424-3.143,2.417-3.839,3.112c-1.061,1.061-1.761,1.265-4.346,1.265c-3.369,0-5.107,0.487-6.417,1.797
		c-1.282,1.282-1.073,1.664,1.546,2.823c2.151,0.951,2.488,0.981,3.261,0.282c1.189-1.076,1.499-0.989,2.1,0.593
		c0.45,1.184,0.318,1.591-0.957,2.962c-4.075,4.382-4.467,5.697-2.424,8.124c1.582,1.879,1.701,3.513,0.258,3.513
		c-1.265,0-1.289,0.484-0.129,2.56c0.869,1.555,0.866,1.64-0.098,2.36c-0.55,0.411-1.535,0.747-2.19,0.747
		c-1.619,0-1.489,0.599,0.359,1.65c1.927,1.096,1.982,1.953,0.126,1.967c-0.998,0.008-2.239,0.802-4.195,2.682
		c-2.617,2.517-2.746,2.756-2.22,4.148c0.679,1.799,0.433,2.556-1.046,3.216c-0.621,0.277-1.582,1.287-2.136,2.244
		c-1.329,2.296-0.679,3.331,2.307,3.671c2.089,0.237,2.278,0.382,2.421,1.847c0.09,0.927-0.156,1.848-0.591,2.209
		c-0.644,0.534-0.595,0.895,0.36,2.639c1.103,2.015,1.104,2.021,0.076,2.773c-1.021,0.747-1.02,0.765,0.219,2.083
		c0.812,0.864,1.803,1.332,2.834,1.337c1.898,0.009,2.511,0.372,3.363,1.989c0.513,0.973,0.515,1.467,0.008,2.413
		c-0.55,1.028-0.45,1.509,0.743,3.544c1.369,2.336,1.391,2.348,2.837,1.6c2.757-1.425,2.922,1.133,0.285,4.414
		c-1.465,1.822-1.764,2.569-1.54,3.842c0.395,2.243-1.358,3.766-4.805,4.174c-2.599,0.308-2.667,0.359-3.195,2.432
		c-0.897,3.52-1.622,4.993-2.853,5.8c-2.458,1.61-3.324,4.011-4.34,12.022c-0.323,2.55-0.845,4.294-1.541,5.152
		c-1.547,1.908-3.096,5.555-3.447,8.116c-0.393,2.867-1.683,4.484-4.867,6.097c-3.741,1.896-4.569,2.913-4.569,5.615
		c0,1.747-0.24,2.429-0.997,2.834c-1.738,0.93-2.04,0.603-2.198-2.388c-0.21-3.965-1.441-4.436-1.337-0.512
		c0.05,1.911-0.213,3.264-0.815,4.183c-1.115,1.702-3.129,2.53-4.442,1.827c-1.777-0.951-2.518-0.585-3.086,1.527
		c-0.58,2.153-2.111,3.605-3.855,3.655c-0.667,0.019-1.622,0.93-2.644,2.522c-1.479,2.304-1.549,2.611-0.93,4.085
		c0.634,1.509,0.578,1.69-1.081,3.449c-0.963,1.021-1.99,1.708-2.283,1.527c-0.293-0.181-1.44-1.884-2.55-3.784
		c-2.104-3.603-3.943-5.662-4.531-5.074c-0.189,0.189,0.383,2.251,1.273,4.58c1.508,3.951,1.563,4.319,0.815,5.461l-0.802,1.224
		l-1.651-1.6c-1.02-0.988-2.184-1.6-3.044-1.6c-1.263,0-1.393,0.179-1.405,1.932c-0.021,3.357-0.889,5.993-2.361,7.168
		c-0.767,0.613-2.228,2.683-3.246,4.6c-2.616,4.925-2.973,5.04-6.441,2.077c-2.121-1.812-3.143-2.368-3.907-2.125
		c-1.504,0.477-1.274,1.127,0.736,2.081c2.188,1.038,1.987,1.744-1.189,4.169c-1.735,1.325-2.764,1.761-3.799,1.609
		c-1.263-0.185-1.419-0.048-1.419,1.245c0,1.066-0.962,2.545-3.61,5.55c-1.986,2.253-3.898,4.283-4.251,4.511
		c-0.375,0.243,0.744,0.521,2.704,0.672c2.643,0.204,3.38,0.445,3.514,1.154c0.107,0.561-0.325,1.121-1.155,1.5
		c-1.459,0.665-1.761,1.469-0.552,1.469c0.425,0,0.773,0.375,0.773,0.833c0,1.182-3.462,5.75-4.641,6.124
		c-1.163,0.369-3.809-2.32-4.101-2.32c-0.929,0-0.572,1.797,0.547,2.755c1.032,0.883,1.039,0.966,0.173,1.923
		c-0.988,1.092-5.247,2.535-7.481,2.535c-0.93,0-4.138-3.091-4.298-3.091c-0.756,0-0.169,2.252,0.789,3.027
		c1.17,0.947,1.953,4.04,1.989,7.851c0.015,1.633,0.372,2.822,1.138,3.796l1.115,1.418c0,0-2.498,4.431-3.022,3.45
		c-0.548-1.024-0.579-1.017-1.174,0.289c-0.336,0.737-0.611,1.765-0.611,2.284c0,1.382-1.171,2.131-3.963,2.536
		c-2.432,0.353-2.476,0.391-2.413,2.151c0.035,0.986,0.151,2.488,0.258,3.338c0.173,1.38,0.058,1.53-1.076,1.403
		c-0.698-0.078-3.981-2.34-4.731-2.624c-0.961-0.364-1.581-1.172-2.104-2.739c-0.407-1.223-1.089-2.291-1.514-2.373
		c-0.425-0.083-1.642,0.961-2.704,2.318c-1.636,2.091-1.887,2.744-1.647,4.272c0.156,0.992,0.697,2.152,1.201,2.578
		c1.63,1.377,3.839,4.653,4.326,6.418c0.37,1.341,0.928,1.901,2.536,2.545c1.134,0.454,2.52,0.825,3.081,0.825
		c0.842,0,1.02,0.35,1.02,2.013c0,1.764-0.128,1.979-1.038,1.741c-0.571-0.149-2.048-1.178-2.598-1.178
		c-1.116,0-1.257,0.913-0.534,3.436c0.354,1.235,0.267,1.91-0.362,2.808c-0.464,0.663-1.12,3.443-1.492,6.327
		c-0.603,4.673-0.817,5.302-2.33,6.863c-1.575,1.625-1.667,1.931-1.679,5.603c-0.013,3.754,0.026,3.877,1.146,3.663
		c0.887-0.17,1.159,0.018,1.159,0.801c0,0.563,0.811,2.82,1.803,5.017c1.83,4.052,2.25,6.961,1.27,8.793
		c-0.74,1.382-1.826,1.245-2.92-0.368c-0.509-0.751-2.057-2.452-3.439-3.78c-1.942-1.867-2.799-2.361-3.771-2.175l-1.258,0.241
		l1.637,1.689c1.591,1.642,1.607,1.704,0.585,2.252c-0.578,0.31-1.558,0.563-2.176,0.563c-0.862,0-0.914,2.43-1.3,2.939
		c-1.074,1.416-0.873,2.129,0.651,2.308c1.36,0.16,1.386,0.23,1.357,3.77c-0.016,1.984-0.205,4.023-0.42,4.533
		c-0.266,0.629-0.095,1.143,0.53,1.6c1.157,0.846,0.659,2.368-0.776,2.368c-1.443,0-1.31,0.715,0.291,1.572
		c1.921,1.028,3.814,3.456,3.814,4.892c0,0.765-0.571,1.655-1.504,2.345c-1.281,0.947-1.427,1.283-0.981,2.261
		c0.433,0.949,0.291,1.381-0.814,2.486c-1.608,1.608-1.654,2.343-0.307,4.856c1.107,2.065,1.341,5.432,0.528,7.572
		c-0.455,1.198-0.383,1.322,0.773,1.322c1.017,0,1.275,0.261,1.275,1.288c0,0.708-2.164,3.79-1.813,5.866
		c0.339,2.004,0.456,2.12,2.132,2.12c2.186,0,2.615,0.896,1.773,3.705c-0.591,1.973-0.544,2.18,0.887,3.962
		c2.418,3.009,2.483,3.845,0.373,4.851c-2.119,1.01-2.206,1.427-0.648,3.103c1.487,1.6,3.785,2.117,8.759,1.968
		c4.518-0.135,4.492-0.167,3.094,3.75c-0.694,1.943-0.754,2.582-0.26,2.748c0.354,0.119,2.996,3.737,3.747,3.737
		c0.214,0,1.476-3.861,2.01-4.344c1.145-1.036,5.25-2.353,7.334-2.353c1.443,0,1.464,0.043,1.464,3.04
		c0,2.929,0.066,3.08,1.803,4.104c1.084,0.64,1.803,1.466,1.803,2.072c0,1.867,2.705,4.305,6.955,6.268
		c6.468,2.988,13.368,9.161,11.537,10.321c-1.412,0.894-2.962,0.438-5.425-1.597c-1.376-1.137-2.588-1.808-2.693-1.492
		c-0.105,0.316,1.517,3.094,3.605,6.173c3.198,4.716,3.842,5.418,4.088,4.454c0.339-1.327,1.29-1.283,4.185,0.194
		c2.297,1.172,2.479,1.191,2.479,0.263c0-0.395,0.344-0.85,0.765-1.011c0.884-0.339,1.8,1.086,1.834,2.854
		c0.036,1.878,1.218,4.748,3.537,8.587c1.659,2.745,2.607,3.752,4.216,4.478c2.803,1.264,3.335,2.359,1.831,3.772
		c-1.481,1.391-1.67,1.38-3.122-0.187c-1.237-1.335-2.364-1.69-2.364-0.745c0,0.299,0.7,1.284,1.556,2.19
		c2.45,2.593,1.946,3.612-2.071,4.185l-3.349,0.477c0,0,4.57,1.84,9.66-0.002c0.713-0.258,0.902,0.083,0.902,1.509
		c0,2.419-1.302,3.464-4.317,3.464c-2.406,0-4.397,0.747-7.146,2.68c-1.168,0.821-1.323,1.171-0.884,1.991
		c0.44,0.823,0.217,1.311-1.289,2.816c-1.002,1.002-2.343,3.07-2.98,3.347c-1.689,0.735-5.63,3.738-6.076,4.629
		c-0.211,0.421-0.635,1.403-0.942,2.183c-0.45,1.14-0.889,1.418-2.245,1.425c-2.163,0.01-2.809,0.446-3.247,2.192
		c-0.41,1.634-0.769,1.917-3.087,2.44c-1.582,0.357-1.708,0.285-1.911-1.098c-0.12-0.814,0.627-1.886,0.618-2.382
		c-0.015-0.801-2.192,1.365-2.688,1.555c-1.367,0.523-1.264,4.315,0.129,4.757c0.567,0.18,3.607,1.077,3.607,0.819
		c0-0.819,4.371-2.622,6.356-2.622c1.588,0,2.014-0.238,2.532-1.417c1.408-3.206,3.443-2.96,6.892,0.831
		c3.754,4.127,3.79,4.503,0.812,8.39c-3.171,4.138-4.572,4.483-6.969,1.714c-3.775-4.362-5.155-5.644-5.375-4.993
		c-0.123,0.364,0.871,2.386,0.135,3.199c-0.881,0.973-0.864,1.026,0.478,1.536c0.764,0.291,1.838,0.528,2.386,0.528
		c0.888,0,0.997,0.383,0.997,3.517c0,3.104-0.154,3.662-1.315,4.752c-0.904,0.849-1.228,1.581-1.038,2.341
		c0.234,0.932-0.096,1.248-2.104,2.015c-2.193,0.838-2.418,0.843-2.852,0.067c-0.699-1.249-1.234-1.062-3.859,1.348
		c-2.792,2.563-4.793,6.488-4.8,9.414c-0.004,1.505-0.508,2.836-1.843,4.863c-3.201,4.861-4.621,4.914-3.999,0.149
		c0.168-1.289-0.885-3.175-1.074-4.379c-0.54-3.435-1.331-6.054-1.827-6.054c-0.25,0-1.906,3.729-2.899,4.521
		c-1.596,1.274-1.759,1.652-1.759,4.078c0,2.969-0.634,3.769-2.005,2.528c-1.088-0.984-2.122-1.073-2.102-0.179
		c0.008,0.354,2.945,4.811,2.791,4.966c-0.154,0.154-1.139,0.289-2.187,0.298c-1.834,0.016-1.916,0.095-2.164,2.078l-0.258,2.061
		c0,0-6.735,0.296-8.039,0.507c-1.519,0.245-2.77,0.17-3.478-0.209c-1.148-0.615-0.292,1.802-0.83,2.834
		c-0.432,0.828-0.786,1.921-0.788,2.43c-0.01,2.965-6.2,5.122-11.315,3.943c-1.571-0.362-6.298-1.15-10.504-1.75
		c-8.612-1.229-10.293-0.966-10.802,1.687c-0.348,1.811-0.235,1.866,1.749,0.84c1.336-0.691,2.495-0.809,5.586-0.57
		c5.452,0.422,12.976,1.253,13.178,1.454c0.093,0.093,6.952,6.643,6.952,7.142c0,1.446-3.365,4.005-6.443,4.9
		c-1.557,0.453-2.831,1.039-2.831,1.302c0,0.944,2.085,2.539,3.318,2.539c1.905,0,2.023,0.826,0.294,2.057
		c-1.944,1.385-1.954,1.895-0.042,2.315c2.442,0.536,2.886,1.52,1.264,2.797c-1.54,1.212-1.446,1.652,1.101,5.145
		c1.56,2.138,1.59,2.831,0.186,4.235c-0.882,0.882-1.522,1.042-3.349,0.836c-2.513-0.283-2.931,0.177-0.97,1.071
		c1.108,0.505,1.604,5.771,2.104,6.324c0.754,0.833,0.705,0.972-0.644,1.817c-0.803,0.503-1.539,0.967-1.635,1.031
		c-0.096,0.064,0.773,1.512,1.932,3.219c2.126,3.13,2.552,4.972,1.574,6.8c-0.751,1.403-1.333,1.267-4.359-1.018
		c-1.875-1.415-2.884-1.877-3.396-1.554l-1.932,2.576c0.649,1.155,2.285,3.133,3.636,4.397c1.827,1.709,2.259,2.373,1.687,2.593
		c-0.952,0.365-1.02,1.731-0.086,1.731c0.376,0,1.245,0.599,1.932,1.332l1.249,1.332l-6.415,8.017l1.662,2.513
		c1.533,2.319,1.66,2.832,1.636,6.638c-0.03,4.712-0.837,6.875-2.941,7.884c-1.046,0.501-1.412,1.054-1.412,2.132
		c0,0.8-0.607,2.78-1.348,4.399c-1.611,3.518-1.54,6.997,0.216,10.623c0.615,1.27,1.179,3.46,1.254,4.867l0.136,2.557l-2.054,0.167
		c-2.981,0.243-3.667,0.981-2.282,2.455c0.844,0.898,1.039,1.585,0.821,2.885c-0.841,5.002-1.466,7.879-1.869,8.598
		c-0.321,0.574-0.02,1.293,1.05,2.513c0.825,0.94-0.214,2.373-0.214,2.626c0,0.815-2.673,3.757-3.627,4.922
		c-0.954,1.164-2.249,3.391-2.877,4.948c-0.628,1.557-3.072,8.701-3.649,9.434c-2.202,2.8-3.18,6.033-3.667,12.122
		c-0.261,3.269-0.756,6.524-1.1,7.232c-0.344,0.709-1.668,1.894-2.943,2.635c-1.889,1.097-2.462,1.791-3.091,3.749
		c-0.898,2.791-1.845,3.891-3.526,4.094c-1,0.121-1.348-0.24-2.059-2.132c-0.675-1.797-1.344-2.538-3.174-3.515
		c-2.801-1.495-4.323-1.347-8.847,0.86c-3.694,1.802-7.315,2.144-7.853,0.741c-0.268-0.7-0.809-0.785-3.189-0.506
		c-2.76,0.324-2.929,0.273-4.609-1.407c-1.875-1.875-2.294-1.873-2.294,0.008c0,1.188-0.068,1.202-5.796,1.205
		c-6.035,0.003-9.38,0.584-9.81,1.704c-0.367,0.957,1.513,4.548,3.014,5.755c1.201,0.966,1.236,1.117,0.501,2.157
		c-1.76,2.491-5.731,1.813-7.994-1.365c-1.052-1.477-1.17-1.515-2.526-0.814c-3.67,1.898-10.332,10.681-12.139,16.002
		c-1.48,4.36-1.113,6.645,1.967,12.218c1.521,2.753,2.913,5.741,3.092,6.639c0.4,2.002-0.476,5.513-1.722,6.903
		c-0.508,0.567-1.335,1.842-1.836,2.834c-1.32,2.609-2.171,3.057-5.845,3.075c-2.453,0.012-3.729-0.256-5.023-1.056
		c-0.954-0.59-1.735-1.259-1.735-1.486c0-0.228-0.563-0.783-1.252-1.234c-1.113-0.729-1.413-0.736-2.705-0.062
		c-0.799,0.417-1.829,0.759-2.289,0.761c-0.46,0.002-1.928,0.486-3.263,1.077c-1.447,0.64-4.022,1.181-6.377,1.339
		c-3.43,0.231-4.307,0.505-6.656,2.081C222.882,1028.307,219.758,1028.847,217.303,1027.735z M348.787,965.169
		c-0.306-0.495-0.437-6.812-0.232-11.181c0.067-1.417-0.336-13.885,0.494-15.738c0.534-1.192,1.095-2.892,1.247-3.777
		c0.565-3.297,1.358-5.597,3.344-9.702c1.122-2.319,2.039-4.65,2.039-5.18c0-1.521,0.867-2.758,2.692-3.838
		c1.664-0.985,2.255-1.86,3.508-5.188c0.35-0.93,6.661-15.482,6.282-16.089c-0.357-0.572,2.117-10.478,3.419-11.934
		c1.085-1.215,1.877-1.595,3.429-1.647c2.51-0.084,2.784,0.751,1.31,3.987c-0.583,1.281-1.062,3.327-1.064,4.547
		c-0.002,1.346-0.406,2.826-1.027,3.764c-0.563,0.85-5.727,15.109-5.532,16.651c0.183,1.45-0.58,4.164-3.242,11.524
		c-1.929,5.333-3.642,11.002-3.84,12.711c-0.258,2.224-0.849,3.847-2.117,5.815c-1.419,2.202-3.301,10.651-3.301,12.578
		c0,1.923-3,8.858-3.672,10.275c-0.832,1.754-1.577,2.627-2.333,2.734C349.578,965.569,348.947,965.428,348.787,965.169z
		 M416.796,911.934c-0.581-2.905-0.349-3.597,1.996-5.942c2.495-2.495,2.933-3.783,1.288-3.783c-0.871,0-1.03-0.344-1.03-2.222
		c0-1.796-0.296-2.506-1.546-3.703c-1.368-1.311-1.546-1.823-1.546-4.458c0-2.45-0.183-3.074-1.03-3.528
		c-1.345-0.72-1.3-1.261,0.278-3.33c2.147-2.815,2.408-4.549,1.066-7.097c-0.83-1.575-1.001-6.849-1.864-8.016
		c-1.778-2.405-1.086-4.153,3.125-7.895c3.81-3.386,7.246-8.79,7.911-12.443c0.45-2.471,2.696-5.032,6.119-6.977
		c1.477-0.839,3.247-2.131,3.934-2.871c0.687-0.74,1.657-1.346,2.155-1.346c0.944,0,1.184,0.519,1.727,3.735
		c0.618,3.663,2.317,1.974,2.333-2.318c0.007-1.794,0.115-1.932,1.527-1.932c0.898,0,1.741,0.369,2.061,0.902
		c0.515,0.858,0.567,0.858,1.084-0.003c0.418-0.697,0.765-0.786,1.512-0.386c1.585,0.849,1.896,0.648,3.56-2.301
		c0.875-1.551,2.155-3.189,2.844-3.64c1.139-0.746,1.394-0.747,2.812-0.014c0.858,0.444,2.382,0.806,3.388,0.806
		c2.232,0,2.419,1.007,0.471,2.539c-0.841,0.662-2.114,1.068-3.349,1.068c-1.924,0-1.991,0.059-1.991,1.766
		c0,1.947-8.862,11.552-9.139,12.402c-0.435,1.333-0.729,1.527-2.134,1.413c-1.936-0.157-2.46,0.825-3.212,6.027
		c-0.38,2.63,0.514,11.758,1.869,12.824c0.781,0.615,2.085,1.117,2.897,1.117c1.302,0,1.476,0.186,1.476,1.569
		c0,1.932-1.536,3.554-5.051,5.335c-3.82,1.935-5.624,4.946-2.965,4.946c0.692,0,1.397,0.226,1.568,0.502
		c0.526,0.85-3.868,5.127-8.096,7.881c-2.965,1.931-3.945,2.841-3.743,3.476c0.15,0.473-0.203,1.465-0.785,2.204
		c-0.582,0.739-1.542,2.439-2.133,3.777c-1.048,2.369-1.051,2.45-0.111,3.139c0.939,0.688,0.936,0.758-0.126,2.616
		c-1.258,2.2-6.018,5.773-7.691,5.773C417.394,913.544,417.04,913.153,416.796,911.934z M159.484,835.128
		c-1.006-1.006-0.724-2.614,1.184-6.745c2.137-4.626,3.391-5.398,5.251-3.236c1.465,1.703,1.53,3.911,0.153,5.228
		c-0.57,0.545-1.324,1.307-1.674,1.693C160.703,836.133,160.571,836.215,159.484,835.128z M156.906,823.6
		c-0.576-0.403-1.56-1.563-2.186-2.576c-0.996-1.612-1.055-2-0.466-3.099c0.37-0.691,2.239-2.327,4.153-3.635
		c2.065-1.411,3.73-2.98,4.093-3.857c0.524-1.265,0.898-1.478,2.591-1.478c2.228,0,3.731,1.225,4.931,4.02
		c1.046,2.437,0.417,4.838-1.981,7.563c-2.117,2.405-3.322,2.894-3.836,1.555c-0.485-1.265-3.133-0.958-4.07,0.472
		C159.057,824.209,158.179,824.491,156.906,823.6z M367.108,816.297c-0.3-0.779-1.522-4.808-1.929-4.964
		c-1.042-0.4-0.922-1.54,0.276-2.623c0.947-0.857,1.105-0.863,2.298-0.081c2.199,1.441,3.25,7.155,1.545,8.401
		C367.984,817.99,367.727,817.904,367.108,816.297z M413.727,767.394c-1.741-1.741,2.061-5.682,5.195-5.385
		c1.225,0.116,0.636,1.736-1.356,3.728C415.661,767.642,414.483,768.151,413.727,767.394z M418.535,758.396
		c0-2.491,4.245-7.088,5.943-6.437c1.1,0.422,0.93,1.434-0.578,3.442c-0.733,0.976-1.539,2.296-1.79,2.934
		C421.466,759.964,418.535,760.014,418.535,758.396z M425.164,726.745c-1.258-1.258-0.573-2.981,1.785-4.494
		c1.182-0.758,2.523-1.652,2.98-1.986c0.457-0.334,1.227-0.455,1.71-0.27c1.315,0.505,0.575,2.343-1.804,4.478
		c-1.114,1-2.025,2.101-2.025,2.447C427.809,727.814,426.121,727.702,425.164,726.745z M434.762,715.572
		c0.665-3.302,0.754-3.411,3.083-3.761c2.662-0.399,3.36-0.079,3.36,1.541c0,0.783-2.012,2.01-1.824,2.314
		c0.397,0.642-1.775,1.579-3.66,1.579C434.533,717.246,434.453,717.106,434.762,715.572z"/>
</g>
</svg>
