<?xml version="1.0" encoding="utf-8"?>
<!-- Generator: Adobe Illustrator 17.1.0, SVG Export Plug-In . SVG Version: 6.00 Build 0)  -->
<!DOCTYPE svg PUBLIC "-//W3C//DTD SVG 1.1//EN" "http://www.w3.org/Graphics/SVG/1.1/DTD/svg11.dtd">
<svg version="1.1" id="Layer_1" xmlns="http://www.w3.org/2000/svg" xmlns:xlink="http://www.w3.org/1999/xlink" x="0px" y="0px"
	 viewBox="0 0 120 120" enable-background="new 0 0 120 120" xml:space="preserve">
<circle fill="#FFFFFF" stroke="#000000" stroke-miterlimit="10" cx="60" cy="60" r="57.206"/>
<g>
	<g>
		<path d="M30,63.5c19.667,0,39.333,0,59,0c3.869,0,3.869-6,0-6c-19.667,0-39.333,0-59,0C26.131,57.5,26.131,63.5,30,63.5L30,63.5z"
			/>
	</g>
</g>
<g>
	<g>
		<path d="M56.5,31c0,19.667,0,39.333,0,59c0,3.869,6,3.869,6,0c0-19.667,0-39.333,0-59C62.5,27.131,56.5,27.131,56.5,31L56.5,31z"
			/>
	</g>
</g>
</svg>
