<?xml version="1.0" encoding="utf-8"?>
<!-- Generator: Adobe Illustrator 17.0.2, SVG Export Plug-In . SVG Version: 6.00 Build 0)  -->
<!DOCTYPE svg PUBLIC "-//W3C//DTD SVG 1.1//EN" "http://www.w3.org/Graphics/SVG/1.1/DTD/svg11.dtd">
<svg version="1.1" id="Lager_1" xmlns="http://www.w3.org/2000/svg" xmlns:xlink="http://www.w3.org/1999/xlink" x="0px" y="0px"
	 width="385.115px" height="486.461px" viewBox="126.517 262.783 385.115 486.461"
	 enable-background="new 126.517 262.783 385.115 486.461" xml:space="preserve">
<path stroke="#000000" stroke-miterlimit="10" d="M387.747,355.302c0,0,83.725,27.672-1.587,219.048c0,0,18.498,76.127,2.406,119.81
	c-15.057,40.874-64.878,45.944-70.398,45.993c-5.749,0.052-56.336-6.404-71.93-49.274c-15.384-42.293,4.493-117.465,4.493-117.465
	c-85.312-191.376-1.587-219.048-1.587-219.048s32.253-11.964,70.389-11.964S387.747,355.302,387.747,355.302z"/>
<path stroke="#000000" stroke-miterlimit="10" d="M249.143,354.365c0,0-19.038,7.192-21.167-19.425
	c-2.129-26.617-82.678-61.296-91.564-57.493c-8.885,3.803,6.85,64.566,14.906,72.399c8.944,8.698,50.041,24.488,86.24,10.647
	S249.143,354.365,249.143,354.365z"/>
<path stroke="#000000" stroke-miterlimit="10" d="M387.946,354.883c0,0,19.038,7.192,21.167-19.425
	c2.129-26.617,82.678-61.296,91.564-57.493s-6.85,64.566-14.906,72.399c-8.944,8.698-50.041,24.488-86.24,10.647
	S387.946,354.883,387.946,354.883z"/>
<path fill="#FFFFFF" stroke="#000000" stroke-miterlimit="10" d="M253.32,683.535c0,0-9.454-41.93-2.516-46.558
	c6.938-4.628,16.626,0.349,16.626,0.349s-11.155,6.262-9.3,21.064C259.984,673.193,256.694,682.228,253.32,683.535z"/>
<path fill="#FFFFFF" stroke="#000000" stroke-miterlimit="10" d="M383.884,686.071c0,0,9.454-41.93,2.516-46.558
	c-6.938-4.628-16.626,0.349-16.626,0.349s11.155,6.262,9.3,21.064C377.221,675.729,380.511,684.764,383.884,686.071z"/>
</svg>
