<?xml version="1.0" encoding="utf-8"?>
<!-- Generator: Adobe Illustrator 17.1.0, SVG Export Plug-In . SVG Version: 6.00 Build 0)  -->
<!DOCTYPE svg PUBLIC "-//W3C//DTD SVG 1.1//EN" "http://www.w3.org/Graphics/SVG/1.1/DTD/svg11.dtd">
<svg version="1.1" id="Lager_1" xmlns="http://www.w3.org/2000/svg" xmlns:xlink="http://www.w3.org/1999/xlink" x="0px" y="0px"
	 viewBox="-570.5 -410 1191 870" enable-background="new -570.5 -410 1191 870" xml:space="preserve">
<path stroke="#000000" stroke-width="2.419" stroke-miterlimit="10" d="M125.223-32.549c0,0,40.205-9.096,64.903-20.006
	c8.225-3.629,32.464-12.506,37.036-7.693c3.435,3.604,4.185,9.168-1.935,16.087c-3.532,3.991-12.458,5.032-19.764,8.926
	c-16.208,8.66-38.027,19.836-71.483,26.972L125.223-32.549z"/>
<path stroke="#000000" stroke-width="2.419" stroke-miterlimit="10" d="M-58.963-33.928c0,0-40.205-9.096-64.903-20.006
	c-8.225-3.629-41.221,1.476-35.1,8.394c3.532,3.991,12.458,5.032,19.764,8.926c16.208,8.66,38.027,19.836,71.483,26.972
	L-58.963-33.928z"/>
<path stroke="#000000" stroke-width="2.419" stroke-miterlimit="10" d="M113.515,0.665c0,0,297.132,25.279,412.956-68.822
	c47.341-38.463,101.624-204.893,76.805-206.974c-24.819-2.08-62.484,92.311-84.256,120.517
	c-16.837,21.796-29.609,44.003-36.286,43.978c0,0,1.814-24.529,14.418-53.703c9.579-22.207,31.133-113.163,14.901-119.549
	c-27.166-10.692-40.035,72.257-60.307,108.204c-5.806,10.305-12.071,43.954-22.158,44.438c0,0,28.835-127.871,12.289-124.557
	c-35.1,7.015-35.367,69.693-43.857,85.973c-21.796,41.753-29.488,34.52-29.488,34.52c-3.604,3.967,7.886-24.432,10.184-50.316
	c2.032-22.594-4.475-43.325-14.031-38.608c-2.709,1.33-4.306,22.207-12.289,42.116c-10.716,26.779-21.046,47.365-21.046,47.365
	s-2.661-59.025-14.031-52.639c-6.967,3.895-24.747,85.151-24.747,85.151s-13.837-46.567-26.126-39.527
	c-7.402,4.233-12.289,43.857-19.304,52.639c-7.015,8.781-33.31,30.407-105.664,58.831C121.038-22.341,141.406-18.035,113.515,0.665z
	"/>
<path stroke="#000000" stroke-width="2.419" stroke-miterlimit="10" d="M-57.27-4.948c0,0-300.76,34.544-416.585-59.557
	c-47.341-38.463-97.996-214.183-73.152-216.239c24.819-2.056,62.484,92.311,84.256,120.517
	c16.837,21.796,29.609,44.003,36.286,43.978c0,0-1.814-24.529-14.418-53.703c-9.579-22.207-31.133-113.163-14.901-119.549
	c27.166-10.692,40.035,72.257,60.307,108.204c5.806,10.305,12.071,43.954,22.158,44.438c0,0-28.835-127.871-12.289-124.557
	c35.1,7.015,35.367,69.693,43.857,85.973c21.796,41.753,29.488,34.52,29.488,34.52c3.604,3.967-7.886-24.432-10.184-50.316
	c-2.032-22.594,4.475-43.325,14.03-38.608c2.709,1.33,4.306,22.207,12.289,42.116c10.716,26.779,21.046,47.365,21.046,47.365
	s2.661-59.025,14.03-52.639c6.967,3.895,24.747,85.151,24.747,85.151s13.837-46.567,26.126-39.527
	c7.402,4.233,12.289,43.857,19.304,52.639s33.31,30.407,105.664,58.831C-64.769-27.929-85.137-23.623-57.27-4.948z"/>
</svg>
