<?xml version="1.0" encoding="utf-8"?>
<!-- Generator: Adobe Illustrator 17.0.2, SVG Export Plug-In . SVG Version: 6.00 Build 0)  -->
<!DOCTYPE svg PUBLIC "-//W3C//DTD SVG 1.1//EN" "http://www.w3.org/Graphics/SVG/1.1/DTD/svg11.dtd">
<svg version="1.1" id="Lager_1" xmlns="http://www.w3.org/2000/svg" xmlns:xlink="http://www.w3.org/1999/xlink" x="0px" y="0px"
	 width="1191px" height="870px" viewBox="0 0 1191 870" enable-background="new 0 0 1191 870" xml:space="preserve">
<path stroke="#000000" stroke-miterlimit="10" d="M661.793,345.288c0,0,83.725,27.672-1.587,219.048c0,0,18.498,76.127,2.406,119.81
	c-15.057,40.874-64.878,45.944-70.398,45.993c-5.749,0.052-56.336-6.404-71.93-49.274c-15.384-42.293,4.493-117.465,4.493-117.465
	c-85.312-191.376-1.587-219.048-1.587-219.048s32.253-11.964,70.389-11.964C631.712,332.388,661.793,345.288,661.793,345.288z"/>
<path stroke="#000000" stroke-miterlimit="10" d="M523.189,344.352c0,0-19.038,7.192-21.167-19.425s-82.678-61.296-91.564-57.493
	c-8.885,3.803,6.85,64.566,14.906,72.399c8.944,8.698,50.041,24.488,86.24,10.647S523.189,344.352,523.189,344.352z"/>
<path stroke="#000000" stroke-miterlimit="10" d="M664.992,347.869c0,0,19.038,7.192,21.167-19.425
	c2.129-26.617,82.678-61.296,91.564-57.493s-6.85,64.566-14.906,72.399c-8.944,8.698-50.041,24.488-86.24,10.647
	C640.377,340.156,664.992,347.869,664.992,347.869z"/>
</svg>
