<?xml version="1.0" encoding="utf-8"?>
<!-- Generator: Adobe Illustrator 17.0.2, SVG Export Plug-In . SVG Version: 6.00 Build 0)  -->
<!DOCTYPE svg PUBLIC "-//W3C//DTD SVG 1.1//EN" "http://www.w3.org/Graphics/SVG/1.1/DTD/svg11.dtd">
<svg version="1.1" id="Lager_1" xmlns="http://www.w3.org/2000/svg" xmlns:xlink="http://www.w3.org/1999/xlink" x="0px" y="0px"
	 width="1191px" height="870px" viewBox="0 0 1191 870" enable-background="new 0 0 1191 870" xml:space="preserve">
<path stroke="#000000" stroke-miterlimit="10" d="M685.62,380.818c0,0,39.583-8.968,63.913-19.688
	c8.11-3.573,13.314-10.474,16.407-13.126c3.938-3.376,15.558,0.811,20.058,5.554c3.374,3.556,4.128,9.022-1.899,15.842
	c-3.476,3.933-12.278,4.955-19.471,8.793c-15.966,8.517-37.455,19.534-70.389,26.552L685.62,380.818z"/>
<path stroke="#000000" stroke-miterlimit="10" d="M504.246,379.458c0,0-39.583-8.968-63.913-19.688
	c-8.11-3.573-13.314-10.474-16.407-13.126c-3.938-3.376-15.558,0.811-20.058,5.554c-3.374,3.556-4.128,9.022,1.899,15.842
	c3.476,3.933,12.278,4.955,19.471,8.793c15.966,8.517,37.455,19.534,70.389,26.552L504.246,379.458z"/>
<path stroke="#000000" stroke-miterlimit="10" d="M772.995,370.425c0,0,24.08,12.843,36.923,6.421s4.534-19.475-1.887-19.475
	c0,0,15.077-8.119,4.639-18.557c-10.438-10.438-18.557,0-18.557,0s-26.86-20.999-28.173,9.19L772.995,370.425z"/>
<path stroke="#000000" stroke-miterlimit="10" d="M417.064,369.997c0,0-24.08,12.843-36.923,6.421
	c-12.843-6.421-4.534-19.475,1.887-19.475c0,0-15.077-8.119-4.639-18.557c10.438-10.438,18.557,0,18.557,0s26.86-20.999,28.173,9.19
	L417.064,369.997z"/>
<g>
	<path d="M738.857,389.178c0,0,80.316-5.877,75.419-17.63c-4.897-11.754-32.592-41.983-40.234-42.224
		c-3.196-0.101-5.856,10.405-13.583,18.037c-10.75,10.618-24.059,22.905-27.478,32.023L738.857,389.178z"/>
	<path d="M793.904,380.556c22.818,0,59.9-14.525,55.504-22.439s-41.378-0.746-41.378-0.746s13.721-8.865,22.787-21.274
		c7.667-10.494,11.051-24.373,9.772-28.85c-3.4-11.901-8.731-0.753-27.92,14.425c-3.952,3.126-10.188,10.657-16.286,13.494
		c-3.822,1.778-1.253-0.269-4.653,2.792c0,0,36.551-36.17-1.26-29.135c-11.016,2.05-21.375,29.75-23.868,30.996
		C763.085,341.579,793.904,380.556,793.904,380.556z"/>
</g>
<g>
	<path d="M450.648,387.578c0,0-80.316-5.877-75.419-17.63s32.592-41.983,40.234-42.224c3.196-0.101,5.856,10.405,13.583,18.037
		c10.75,10.618,24.059,22.905,27.478,32.023L450.648,387.578z"/>
	<path d="M395.601,378.956c-22.818,0-59.9-14.525-55.504-22.439c4.397-7.914,41.378-0.746,41.378-0.746s-13.721-8.865-22.787-21.274
		c-7.667-10.494-11.051-24.373-9.772-28.85c3.4-11.901,8.731-0.753,27.92,14.425c3.952,3.126,10.188,10.657,16.286,13.494
		c3.822,1.778,1.253-0.269,4.653,2.792c0,0-36.551-36.17,1.26-29.135c11.016,2.05,21.375,29.75,23.868,30.996
		C426.42,339.979,395.601,378.956,395.601,378.956z"/>
</g>
<path d="M743.319,385.979c0,0,46.804-1.862,95.373-6.43c30.58-2.876,63.224-10.716,73.94-22.504
	c26.12-28.732-4.366-16.064-42.864-7.501c-28.432,6.324-57.866,5.358-57.866,5.358s18.7-16.711,34.291-36.434
	c10.053-12.718,22.034-27.405,21.432-36.434c-1.072-16.074-15.293,8.57-40.721,25.718c-13.312,8.977-23.745,17.684-30.005,23.575
	c0,0,10.228-9.552,13.931-23.575c1.613-6.107,2.127-13.485-1.072-20.36c-2.977-6.398-13.56,3.567-22.504,19.289
	c-10.154,17.849-21.673,38.949-26.797,40.68L743.319,385.979z"/>
<path d="M446.751,384.955c0,0-46.804-1.862-95.373-6.43c-30.58-2.876-63.224-10.716-73.94-22.504
	c-26.12-28.732,4.366-16.064,42.864-7.501c28.432,6.324,57.866,5.358,57.866,5.358s-18.7-16.711-34.291-36.434
	c-10.053-12.718-22.034-27.405-21.432-36.434c1.072-16.074,15.293,8.57,40.721,25.718c13.312,8.977,23.745,17.684,30.005,23.575
	c0,0-10.228-9.552-13.931-23.575c-1.613-6.107-2.127-13.485,1.072-20.36c2.977-6.398,13.56,3.567,22.504,19.289
	c10.154,17.849,21.673,38.949,26.797,40.68L446.751,384.955z"/>
</svg>
