<?xml version="1.0" encoding="utf-8"?>
<!-- Generator: Adobe Illustrator 17.1.0, SVG Export Plug-In . SVG Version: 6.00 Build 0)  -->
<!DOCTYPE svg PUBLIC "-//W3C//DTD SVG 1.1//EN" "http://www.w3.org/Graphics/SVG/1.1/DTD/svg11.dtd">
<svg version="1.1" id="Lager_1" xmlns="http://www.w3.org/2000/svg" xmlns:xlink="http://www.w3.org/1999/xlink" x="0px" y="0px"
	 viewBox="-570.5 -410 1191 870" enable-background="new -570.5 -410 1191 870" xml:space="preserve">
<path stroke="#000000" stroke-miterlimit="10" d="M118.338-38.451c0,0,40.377-9.135,65.18-20.091
	c8.26-3.644,32.603-12.559,37.194-7.726c3.45,3.619,4.203,9.207-1.943,16.156c-3.547,4.008-12.511,5.053-19.848,8.964
	c-16.277,8.697-38.189,19.921-71.788,27.087L118.338-38.451z"/>
<path stroke="#000000" stroke-miterlimit="10" d="M-66.634-39.836c0,0-40.377-9.135-65.18-20.091
	c-8.26-3.644-41.397,1.482-35.25,8.43c3.547,4.008,12.511,5.053,19.848,8.964c16.277,8.697,38.189,19.921,71.788,27.087
	L-66.634-39.836z"/>
<path stroke="#000000" stroke-miterlimit="10" d="M106.58-5.095c0,0,298.4,25.387,414.718-69.116
	c47.543-38.627,102.058-205.767,77.133-207.857c-24.925-2.089-62.751,92.705-84.615,121.031
	c-16.909,21.889-29.735,44.191-36.441,44.166c0,0,1.822-24.634,14.48-53.932c9.62-22.302,31.266-113.646,14.965-120.059
	c-27.282-10.738-40.206,72.565-60.564,108.666c-5.831,10.349-12.123,44.142-22.253,44.628c0,0,28.958-128.417,12.341-125.088
	c-35.25,7.045-35.518,69.99-44.044,86.34c-21.889,41.931-29.614,34.667-29.614,34.667c-3.619,3.984,7.92-24.536,10.227-50.531
	c2.041-22.69-4.494-43.51-14.091-38.773c-2.721,1.336-4.324,22.302-12.341,42.296c-10.762,26.893-21.136,47.567-21.136,47.567
	s-2.672-59.277-14.091-52.864c-6.997,3.912-24.853,85.514-24.853,85.514s-13.896-46.766-26.237-39.696
	c-7.434,4.251-12.341,44.044-19.386,52.864c-7.045,8.818-33.452,30.537-106.115,59.082C114.135-28.2,134.59-23.875,106.58-5.095z"/>
<path stroke="#000000" stroke-miterlimit="10" d="M-64.934-10.732c0,0-302.043,34.691-418.363-59.811
	c-47.543-38.627-98.414-215.097-73.464-217.162c24.925-2.065,62.751,92.705,84.616,121.031
	c16.909,21.889,29.735,44.191,36.441,44.166c0,0-1.822-24.634-14.48-53.932c-9.62-22.302-31.266-113.646-14.965-120.059
	c27.282-10.738,40.206,72.565,60.564,108.666c5.831,10.349,12.123,44.142,22.253,44.628c0,0-28.958-128.417-12.341-125.089
	c35.25,7.045,35.518,69.99,44.044,86.34c21.889,41.931,29.614,34.667,29.614,34.667c3.619,3.984-7.92-24.536-10.227-50.531
	c-2.041-22.69,4.494-43.51,14.09-38.773c2.721,1.336,4.324,22.302,12.341,42.296c10.762,26.893,21.136,47.567,21.136,47.567
	s2.672-59.277,14.09-52.864c6.997,3.912,24.853,85.514,24.853,85.514s13.896-46.766,26.237-39.696
	c7.434,4.251,12.341,44.044,19.386,52.864s33.452,30.537,106.115,59.082C-72.465-33.811-92.92-29.487-64.934-10.732z"/>
</svg>
