<?xml version="1.0" encoding="utf-8"?>
<!-- Generator: Adobe Illustrator 17.1.0, SVG Export Plug-In . SVG Version: 6.00 Build 0)  -->
<!DOCTYPE svg PUBLIC "-//W3C//DTD SVG 1.1//EN" "http://www.w3.org/Graphics/SVG/1.1/DTD/svg11.dtd">
<svg version="1.1" id="Lager_1" xmlns="http://www.w3.org/2000/svg" xmlns:xlink="http://www.w3.org/1999/xlink" x="0px" y="0px"
	 viewBox="0 0 1191 870" enable-background="new 0 0 1191 870" xml:space="preserve">
<path stroke="#000000" stroke-miterlimit="10" d="M685.62,380.818c0,0,39.583-8.968,63.913-19.688
	c8.11-3.573,31.965-12.315,36.465-7.571c3.374,3.556,4.128,9.022-1.899,15.842c-3.476,3.933-12.278,4.955-19.471,8.793
	c-15.966,8.517-37.455,19.534-70.389,26.552L685.62,380.818z"/>
<path stroke="#000000" stroke-miterlimit="10" d="M504.246,379.458c0,0-39.583-8.968-63.913-19.688
	c-8.11-3.573-40.593,1.451-34.566,8.27c3.476,3.933,12.278,4.955,19.471,8.793c15.966,8.517,37.455,19.534,70.389,26.552
	L504.246,379.458z"/>
<path stroke="#000000" stroke-miterlimit="10" d="M672.367,415.232c0,0,261.206-7.795,383.25-56.85
	c50.475-20.288,132.676-186.586,108.226-188.616c-24.45-2.03-77.887,76.939-106.734,96.886
	c-21.502,14.868-47.772,31.935-54.359,31.918c0,0,25.224-17.155,37.625-45.885c9.438-21.864,26.943-82.324,10.964-88.618
	c-26.745-10.536-33.223,41.292-53.178,76.688c-5.725,10.155-34.105,38.998-44.049,39.461c0,0,38.351-81.032,21.727-80.706
	s-31.446,31.318-39.163,47.669c-4.261,9.028-13.309,16.909-22.942,27.531c-6.639,7.321,2.773-48.525-17.436-38.543
	c-6.235,3.08-36.708,57.815-36.708,57.815s-7.155-23.721-18.354-17.436c-10.558,5.925-25.106,41.809-27.99,43.927
	c-6.166,4.528-42.121,36.256-113.385,64.232C679.767,392.591,699.824,396.836,672.367,415.232z"/>
<path stroke="#000000" stroke-miterlimit="10" d="M512.083,410.019c0,0-262.753-9.197-384.797-58.252
	C76.811,331.479-3.843,166.583,20.608,164.553s77.887,76.939,106.734,96.886c21.502,14.868,47.772,31.935,54.359,31.918
	c0,0-25.224-17.155-37.625-45.885c-9.438-21.864-26.942-82.324-10.964-88.618c26.745-10.536,33.223,41.292,53.178,76.688
	c5.725,10.155,34.105,38.998,44.049,39.461c0,0-38.351-81.032-21.727-80.706s31.446,31.318,39.163,47.669
	c4.261,9.028,13.309,16.909,22.942,27.531c6.639,7.321-2.773-48.525,17.436-38.543c6.235,3.08,36.708,57.815,36.708,57.815
	s7.155-23.721,18.354-17.436c10.558,5.925,25.105,41.809,27.99,43.927c6.166,4.528,42.121,36.256,113.385,64.232
	C504.683,387.379,484.626,391.624,512.083,410.019z"/>
</svg>
