<?xml version="1.0" encoding="utf-8"?>
<!-- Generator: Adobe Illustrator 17.0.2, SVG Export Plug-In . SVG Version: 6.00 Build 0)  -->
<!DOCTYPE svg PUBLIC "-//W3C//DTD SVG 1.1//EN" "http://www.w3.org/Graphics/SVG/1.1/DTD/svg11.dtd">
<svg version="1.1" id="Lager_1" xmlns="http://www.w3.org/2000/svg" xmlns:xlink="http://www.w3.org/1999/xlink" x="0px" y="0px"
	 width="1191px" height="870px" viewBox="0 0 1191 870" enable-background="new 0 0 1191 870" xml:space="preserve">
<path stroke="#000000" stroke-miterlimit="10" d="M685.62,380.818c0,0,39.583-8.968,63.913-19.688
	c8.11-3.573,31.965-12.315,36.465-7.571c3.374,3.556,4.128,9.022-1.899,15.842c-3.476,3.933-12.278,4.955-19.471,8.793
	c-15.966,8.517-37.455,19.534-70.389,26.552L685.62,380.818z"/>
<path stroke="#000000" stroke-miterlimit="10" d="M504.246,379.458c0,0-39.583-8.968-63.913-19.688
	c-8.11-3.573-40.593,1.451-34.566,8.27c3.476,3.933,12.278,4.955,19.471,8.793c15.966,8.517,37.455,19.534,70.389,26.552
	L504.246,379.458z"/>
<path stroke="#000000" stroke-miterlimit="10" d="M669.61,419.232c0,0,222.377-36.017,338.992-83.467
	c48.229-19.624,139.039-145.478,115.677-147.441c-23.363-1.964-110.978,91.485-131.827,102.389
	c-22.223,11.622-26.963,10.185-33.257,10.169c0,0,7.251-11.764,27.213-36.994c14.225-17.979,43.082-79.48,27.815-85.569
	c-25.555-10.191-46.724,30.244-65.792,64.483c-5.47,9.822-24.933,39.948-34.435,40.396c0,0,19.705-51.731,7.203-59.232
	c0,0-22.631,4.188-30.005,20.003c-4.071,8.732-11.44,22.518-20.645,32.792c-6.344,7.081-8.804-24.944-28.114-15.289
	c-5.958,2.979-4.587,21.566-11.231,36.291s-21.304,25.587-26.984,29.81c-5.892,4.38-40.247,35.069-108.341,62.13
	C676.681,397.332,695.846,401.438,669.61,419.232z"/>
<path stroke="#000000" stroke-miterlimit="10" d="M520.628,415.486c0,0-222.377-36.017-338.992-83.467
	C133.407,312.395,42.597,186.541,65.959,184.578c23.363-1.964,110.978,91.485,131.827,102.389
	c22.223,11.622,26.963,10.185,33.257,10.169c0,0-7.251-11.764-27.213-36.994c-14.225-17.979-43.082-79.48-27.815-85.569
	c25.555-10.191,46.724,30.244,65.792,64.483c5.47,9.822,24.933,39.948,34.435,40.396c0,0-19.705-51.731-7.203-59.232
	c0,0,22.631,4.188,30.005,20.003c4.071,8.732,11.44,22.518,20.645,32.792c6.344,7.081,8.804-24.944,28.113-15.289
	c5.958,2.979,4.587,21.566,11.231,36.291c6.644,14.725,21.304,25.587,26.984,29.81c5.892,4.38,40.247,35.069,108.341,62.13
	C513.557,393.586,494.392,397.692,520.628,415.486z"/>
</svg>
