<?xml version="1.0" encoding="utf-8"?>
<!-- Generator: Adobe Illustrator 17.1.0, SVG Export Plug-In . SVG Version: 6.00 Build 0)  -->
<!DOCTYPE svg PUBLIC "-//W3C//DTD SVG 1.1//EN" "http://www.w3.org/Graphics/SVG/1.1/DTD/svg11.dtd">
<svg version="1.1" id="Lager_1" xmlns="http://www.w3.org/2000/svg" xmlns:xlink="http://www.w3.org/1999/xlink" x="0px" y="0px"
	 viewBox="-570.5 -410 1191 870" enable-background="new -570.5 -410 1191 870" xml:space="preserve">
<path stroke="#000000" stroke-miterlimit="10" d="M112.903-35.064c0,0,39.219-8.873,63.312-19.515
	c8.023-3.54,31.668-12.2,36.128-7.504c3.351,3.516,4.082,8.943-1.888,15.693c-3.445,3.894-12.153,4.908-19.279,8.708
	c-15.811,8.448-37.096,19.35-69.73,26.311L112.903-35.064z"/>
<path stroke="#000000" stroke-miterlimit="10" d="M-66.769-36.409c0,0-39.219-8.873-63.312-19.515
	c-8.023-3.54-40.21,1.439-34.24,8.189c3.445,3.894,12.153,4.908,19.279,8.708c15.811,8.448,37.096,19.35,69.73,26.311
	L-66.769-36.409z"/>
<path stroke="#000000" stroke-miterlimit="10" d="M99.783-0.966c0,0,302.756,8.2,389.686-51.21s121.294-219.288,97.059-221.294
	c-24.211-2.006-77.046,105.552-105.622,125.303c-21.309,14.725-47.337,31.644-53.849,31.621c0,0,24.99-16.99,37.284-45.449
	c9.344-21.663,26.901-95.428,11.067-101.658c-26.5-10.43-33.107,54.769-52.882,89.836c-5.664,10.053-33.791,38.629-43.632,39.101
	c0,0,37.992-80.279,21.521-79.948c-16.471,0.331-31.149,31.031-38.794,47.219c-4.224,8.943-13.191,16.755-22.724,27.279
	c-6.584,7.245,2.738-48.069-17.274-38.18c-6.183,3.044-36.364,57.271-36.364,57.271s-7.079-23.503-18.194-17.274
	c-10.454,5.876-24.872,41.413-27.727,43.514c-6.111,4.483-41.72,35.915-112.324,63.642C107.121-23.383,126.99-19.182,99.783-0.966z"
	/>
<path stroke="#000000" stroke-miterlimit="10" d="M-59.006-6.133c0,0-312.132,15.027-392.641-47.975
	s-112.039-220.636-87.804-222.641s70.722,103.64,99.298,123.415c21.309,14.725,47.337,31.644,53.849,31.621
	c0,0-24.99-16.99-37.284-45.449c-9.344-21.663-32.021-103.333-16.188-109.564c26.5-10.43,38.252,62.698,58.002,97.741
	c5.664,10.053,33.791,38.629,43.632,39.101c0,0-37.992-80.279-21.521-79.948c16.471,0.331,31.149,31.031,38.794,47.219
	c4.224,8.943,13.191,16.755,22.724,27.279c6.584,7.245-2.738-48.069,17.274-38.18c6.183,3.044,36.364,57.271,36.364,57.271
	s7.079-23.503,18.194-17.274c10.454,5.876,24.872,41.413,27.727,43.514c6.111,4.483,41.72,35.915,112.324,63.642
	C-66.344-28.551-86.213-24.351-59.006-6.133z"/>
</svg>
