<?xml version="1.0" encoding="utf-8"?>
<!-- Generator: Adobe Illustrator 17.1.0, SVG Export Plug-In . SVG Version: 6.00 Build 0)  -->
<!DOCTYPE svg PUBLIC "-//W3C//DTD SVG 1.1//EN" "http://www.w3.org/Graphics/SVG/1.1/DTD/svg11.dtd">
<svg version="1.1" id="Lager_1" xmlns="http://www.w3.org/2000/svg" xmlns:xlink="http://www.w3.org/1999/xlink" x="0px" y="0px"
	 viewBox="0 0 500 500" enable-background="new 0 0 500 500" xml:space="preserve">
<g>
	<circle fill="#FFFFFF" cx="250" cy="250" r="161.7"/>
	<g>
		<path d="M407.2,250c-0.2,45.3-19.8,88.2-53.7,118.3c-34,30.2-80.9,43.7-125.8,37.3c-44.2-6.2-84.1-31.8-108.8-68.9
			c-25.4-38.1-32.4-86.3-20-130.3c12.1-42.8,42.9-78.5,82.6-98c41-20.2,90.5-20.7,132.2-2.2C370.2,131.2,406.9,188.5,407.2,250
			c0,5.8,9,5.8,9,0c-0.2-44.9-18.4-88-50.5-119.3c-32.1-31.4-76.5-48.1-121.3-46.7c-44.6,1.3-87.3,21.4-117.3,54.3
			c-30.4,33.2-45.8,78.2-42.9,123c2.8,44.4,24.2,86.3,57.9,115.2c34.2,29.4,79.8,43.4,124.6,39c40.6-4,78.7-23.4,106.2-53.5
			c27.8-30.4,43.1-70.7,43.3-111.8C416.2,244.2,407.2,244.2,407.2,250z"/>
	</g>
</g>
<rect x="206.6" y="446.9" width="86.8" height="9.4"/>
<rect x="244.5" y="416.1" width="9.4" height="73.4"/>
</svg>
