<?xml version="1.0" encoding="utf-8"?>
<!-- Generator: Adobe Illustrator 17.1.0, SVG Export Plug-In . SVG Version: 6.00 Build 0)  -->
<!DOCTYPE svg PUBLIC "-//W3C//DTD SVG 1.1//EN" "http://www.w3.org/Graphics/SVG/1.1/DTD/svg11.dtd">
<svg version="1.1" id="Lager_1" xmlns="http://www.w3.org/2000/svg" xmlns:xlink="http://www.w3.org/1999/xlink" x="0px" y="0px"
	 viewBox="0 0 120 120" enable-background="new 0 0 120 120" xml:space="preserve">
<g>
	<circle fill="#FFFFFF" cx="60" cy="60" r="38.8"/>
	<g>
		<path d="M97.7,60c0,10.9-4.8,21.2-12.9,28.4c-8.2,7.2-19.4,10.5-30.2,9C44,95.9,34.5,89.7,28.5,80.8c-6.1-9.1-7.8-20.7-4.8-31.3
			C26.6,39.3,34,30.7,43.6,26c9.8-4.8,21.7-5,31.7-0.5C88.8,31.5,97.7,45.2,97.7,60c0,1.4,2.2,1.4,2.2,0c0-10.8-4.4-21.1-12.1-28.6
			c-7.7-7.5-18.4-11.5-29.1-11.2c-10.7,0.3-21,5.1-28.2,13c-7.3,8-11,18.8-10.3,29.5c0.7,10.7,5.8,20.7,13.9,27.6
			c8.2,7.1,19.2,10.4,29.9,9.4c9.7-1,18.9-5.6,25.5-12.8c6.7-7.3,10.3-17,10.4-26.8C99.9,58.6,97.7,58.6,97.7,60z"/>
	</g>
</g>
<line fill="none" stroke="#000000" stroke-width="2" stroke-miterlimit="10" x1="90.4" y1="13.8" x2="107.2" y2="13.8"/>
<line fill="none" stroke="#000000" stroke-width="2" stroke-miterlimit="10" x1="106.2" y1="12.8" x2="106.2" y2="29.6"/>
<line fill="none" stroke="#000000" stroke-width="2" stroke-miterlimit="10" x1="87.8" y1="32.4" x2="106.2" y2="13.8"/>
</svg>
