<?xml version="1.0" encoding="utf-8"?>
<!-- Generator: Adobe Illustrator 17.1.0, SVG Export Plug-In . SVG Version: 6.00 Build 0)  -->
<!DOCTYPE svg PUBLIC "-//W3C//DTD SVG 1.1//EN" "http://www.w3.org/Graphics/SVG/1.1/DTD/svg11.dtd">
<svg version="1.1" id="Lager_1" xmlns="http://www.w3.org/2000/svg" xmlns:xlink="http://www.w3.org/1999/xlink" x="0px" y="0px"
	 viewBox="0 0 842 517" enable-background="new 0 0 842 517" xml:space="preserve">
<g>
	<rect x="490.964" y="365.569" fill="#F43C11" width="123.687" height="73.787"/>
	<rect x="483.357" y="358.823" fill="#F7C421" width="125.875" height="75.975"/>
</g>
<g>
	<rect x="61.923" y="367.228" fill="#F43C11" width="123.687" height="73.787"/>
	<rect x="54.316" y="360.482" fill="#F7C421" width="125.875" height="75.975"/>
</g>
<g>
	<circle fill="#FFFFFF" cx="692.851" cy="208.648" r="89.856"/>
	<g>
		<path d="M780.159,208.648c0,25.243-11.116,49.096-29.875,65.771c-18.99,16.674-44.928,24.317-69.939,20.843
			c-24.548-3.474-46.549-17.832-60.444-38.443c-14.127-21.074-18.064-47.938-11.116-72.487
			c6.716-23.622,23.853-43.538,46.086-54.423c22.695-11.116,50.254-11.579,73.413-1.158
			C759.548,142.645,780.159,174.373,780.159,208.648c0,3.242,5.095,3.242,5.095,0c0-25.011-10.19-48.865-28.022-66.234
			s-42.612-26.632-67.392-25.938c-24.78,0.695-48.633,11.811-65.307,30.106c-16.906,18.527-25.475,43.538-23.853,68.318
			c1.621,24.78,13.432,47.938,32.191,63.918c18.99,16.443,44.465,24.085,69.244,21.769c22.464-2.316,43.77-12.969,59.055-29.643
			c15.516-16.906,23.853-39.37,24.085-62.065C785.254,205.405,780.159,205.405,780.159,208.648z"/>
	</g>
</g>
<line fill="none" stroke="#000000" stroke-width="4.6317" stroke-miterlimit="10" x1="763.253" y1="101.655" x2="802.16" y2="101.655"/>
<line fill="none" stroke="#000000" stroke-width="4.6317" stroke-miterlimit="10" x1="799.844" y1="99.339" x2="799.844" y2="138.245"/>
<line fill="none" stroke="#000000" stroke-width="4.6317" stroke-miterlimit="10" x1="757.232" y1="144.73" x2="799.844" y2="101.655"/>
<g>
	<circle fill="#FFFFFF" cx="151.177" cy="204.918" r="89.874"/>
	<g>
		<path d="M238.55,204.918c-0.111,25.178-11.005,49.022-29.847,65.752c-18.897,16.785-44.965,24.289-69.921,20.732
			c-24.567-3.446-46.743-17.675-60.472-38.295c-14.118-21.176-18.008-47.966-11.116-72.422c6.725-23.789,23.844-43.631,45.91-54.469
			c22.788-11.227,50.301-11.505,73.478-1.223C217.985,138.888,238.383,170.735,238.55,204.918c0,3.224,5.002,3.224,5.002,0
			c-0.111-24.956-10.227-48.911-28.068-66.308c-17.841-17.452-42.519-26.734-67.42-25.956c-24.789,0.723-48.522,11.894-65.196,30.18
			c-16.897,18.453-25.456,43.464-23.844,68.364c1.556,24.678,13.451,47.966,32.181,64.029
			c19.009,16.341,44.353,24.122,69.254,21.677c22.566-2.223,43.742-13.006,59.027-29.736c15.451-16.897,23.955-39.296,24.066-62.139
			C243.552,201.694,238.55,201.694,238.55,204.918z"/>
	</g>
</g>
<rect x="127.055" y="314.356" width="48.244" height="5.225"/>
<rect x="148.12" y="297.237" width="5.225" height="40.796"/>
<g>
	<circle fill="#FFFFFF" cx="423.339" cy="207.65" r="89.874"/>
	<g>
		<path d="M510.712,207.65c-0.111,25.178-11.005,49.022-29.847,65.752c-18.897,16.785-44.965,24.289-69.921,20.732
			c-24.567-3.446-46.743-17.675-60.472-38.295c-14.118-21.176-18.008-47.966-11.116-72.422c6.725-23.789,23.844-43.631,45.91-54.469
			c22.788-11.227,50.301-11.505,73.478-1.223C490.147,141.62,510.545,173.468,510.712,207.65c0,3.224,5.002,3.224,5.002,0
			c-0.111-24.956-10.227-48.911-28.068-66.308c-17.841-17.452-42.519-26.734-67.42-25.956c-24.789,0.723-48.522,11.894-65.196,30.18
			c-16.897,18.453-25.456,43.464-23.844,68.364c1.556,24.678,13.451,47.966,32.181,64.029
			c19.009,16.341,44.353,24.122,69.254,21.677c22.566-2.223,43.742-13.006,59.027-29.736c15.451-16.897,23.955-39.296,24.066-62.139
			C515.714,204.427,510.712,204.427,510.712,207.65z"/>
	</g>
</g>
<g>
	<g>
		<g>
			<g>
				<path fill="#FFFFFF" stroke="#000000" stroke-width="5.3" stroke-miterlimit="10" d="M153.182,204.499l20.868-90.389
					c49.921,11.525,81.046,61.337,69.521,111.257c-11.525,49.921-61.337,81.046-111.257,69.521
					c-49.921-11.525-81.046-61.337-69.521-111.257c9.75-42.233,47.046-71.899,90.389-71.899V204.499z"/>
			</g>
		</g>
		<g>
			<g>
				<path stroke="#000000" stroke-width="5.3" stroke-miterlimit="10" d="M153.182,204.499v-92.767
					c7.839,0,13.23,0.614,20.868,2.378L153.182,204.499z"/>
			</g>
		</g>
	</g>
</g>
<g>
	<g>
		<g>
			<g>
				<path fill="#FFFFFF" stroke="#000000" stroke-width="5.3" stroke-miterlimit="10" d="M423.598,208.015l44.974-81.136
					c44.81,24.839,61,81.3,36.161,126.11c-24.839,44.81-81.3,61-126.11,36.161s-61-81.3-36.161-126.11
					c16.692-30.112,46.707-47.793,81.136-47.793L423.598,208.015L423.598,208.015z"/>
			</g>
		</g>
		<g>
			<g>
				<path stroke="#000000" stroke-width="5.3" stroke-miterlimit="10" d="M423.598,208.015v-92.767
					c16.753,0,30.321,3.509,44.974,11.631L423.598,208.015z"/>
			</g>
		</g>
	</g>
</g>
<g>
	<g>
		<g>
			<g>
				<path fill="#FFFFFF" stroke="#000000" stroke-width="5.3" stroke-miterlimit="10" d="M694.048,209.473l64.441-66.731
					c36.854,35.59,37.88,94.318,2.29,131.172s-94.318,37.88-131.172,2.29s-37.88-94.318-2.29-131.172
					c17.902-18.538,40.96-28.326,66.731-28.326V209.473z"/>
			</g>
		</g>
		<g>
			<g>
				<path stroke="#000000" stroke-width="5.3" stroke-miterlimit="10" d="M694.048,209.473v-92.767
					c25.412,0,46.161,8.383,64.441,26.036L694.048,209.473z"/>
			</g>
		</g>
	</g>
</g>
<text transform="matrix(1 0 0 1 69.4615 74.8877)" enable-background="new    "><tspan x="0" y="0" font-family="'TwCenMT-Bold'" font-size="50">WOMEN</tspan><tspan x="174.561" y="0" font-family="'TwCenMT-Bold'" font-size="50" letter-spacing="-7">	</tspan><tspan x="180" y="0" font-family="'TwCenMT-Bold'" font-size="50" letter-spacing="22">			</tspan><tspan x="288" y="0" font-family="'TwCenMT-Bold'" font-size="50">BOTH</tspan></text>
<text transform="matrix(1 0 0 1 482.9625 74.8877)" font-family="'TwCenMT-Bold'" font-size="50" letter-spacing="5"> </text>
<text transform="matrix(1 0 0 1 501.4615 74.8877)" font-family="'TwCenMT-Bold'" font-size="50" letter-spacing="22"> </text>
<text transform="matrix(1 0 0 1 537.4615 74.8877)" font-family="'TwCenMT-Bold'" font-size="50">   </text>
<text transform="matrix(1 0 0 1 577.3785 74.8877)" font-family="'TwCenMT-Bold'" font-size="50" letter-spacing="18"> </text>
<text transform="matrix(1 0 0 1 609.4615 74.8877)" font-family="'TwCenMT-Bold'" font-size="50" letter-spacing="22"> </text>
<text transform="matrix(1 0 0 1 645.4615 74.8877)" font-family="'TwCenMT-Bold'" font-size="50">MEN</text>
<text transform="matrix(1 0 0 1 79.564 416.5532)" font-family="'TwCenMT-Bold'" font-size="60">4%</text>
<text transform="matrix(1 0 0 1 168.89 416.5532)" font-family="'TwCenMT-Bold'" font-size="50"> </text>
<text transform="matrix(1 0 0 1 182.196 416.5532)" font-family="'TwCenMT-Bold'" font-size="50" letter-spacing="-7"> </text>
<text transform="matrix(1 0 0 1 187.564 416.5532)" font-family="'Verdana'" font-size="40">of women and</text>
<text transform="matrix(1 0 0 1 473.345 416.5532)" font-family="'Verdana'" font-size="40" letter-spacing="-11"> </text>
<text transform="matrix(1 0 0 1 475.564 416.5532)" font-family="'Verdana'" font-size="40"> </text>
<text transform="matrix(1 0 0 1 489.626 416.5532)" font-family="'TwCenMT-Bold'" font-size="60">12%</text>
<text transform="matrix(1 0 0 1 610.798 416.5532)" font-family="'TwCenMT-Bold'" font-size="50"> </text>
<text transform="matrix(1 0 0 1 624.104 416.5532)" font-family="'Verdana'" font-size="40">of men </text>
<text transform="matrix(1 0 0 1 211.053 476.5532)" font-family="'Verdana'" font-size="40">prefer the 69 position</text>
</svg>
