<?xml version="1.0" encoding="utf-8"?>
<!-- Generator: Adobe Illustrator 17.1.0, SVG Export Plug-In . SVG Version: 6.00 Build 0)  -->
<!DOCTYPE svg PUBLIC "-//W3C//DTD SVG 1.1//EN" "http://www.w3.org/Graphics/SVG/1.1/DTD/svg11.dtd">
<svg version="1.1" id="Lager_1" xmlns="http://www.w3.org/2000/svg" xmlns:xlink="http://www.w3.org/1999/xlink" x="0px" y="0px"
	 viewBox="0 0 500 400" enable-background="new 0 0 500 400" xml:space="preserve">
<g>
	<g>
		<path d="M426.49,224.568c1.296,7.842-4.125,12.92-11.755,13.149c-5.241,0.157-10.556-0.281-15.791-0.467
			c-23.791-0.844-47.579-1.738-71.374-2.461c-30.325-0.921-60.556-1.129-90.783-3.936c-12.403-1.152-25.05-2.384-37.438-0.481
			c-5.199,0.799-10.287,2.64-15.331,4.092c-4.29,1.236-9.597,2.396-13.209,5.205c-18.687,14.528-42.093,15.295-64.743,12.051
			c-12.834-1.838-25.841-4.909-37.996-9.493c-0.089,0.655-0.177,1.31-0.266,1.964c11.039-0.94,22.082-1.851,33.126-2.736
			c7.814-0.626,15.629-1.239,23.448-1.793c3.562-0.252,8.583-1.266,11.885-0.652c1.591,0.296,2.094-1.9,1.455-2.99
			c-0.557-0.951-2.824-0.872-3.754-0.982c-6.335-0.753-12.749-0.991-19.114-1.346c-14.579-0.812-29.487-0.775-43.961-2.828
			c-0.609-0.086-1.216-0.192-1.808-0.361c1.394,0.396-1.098,1.552,0.705,1.137c2.179-0.502,4.457-0.663,6.676-0.891
			c7.296-0.751,14.621-1.236,21.937-1.735c12.731-0.87,25.614-1.124,38.296-2.575c3.29-0.376,3.042-4.306-0.117-4.726
			c-4.696-0.623-9.497-0.706-14.222-0.96c-15.315-0.823-30.667-1.38-45.946-2.749c-2.212-0.198-4.434-0.407-6.621-0.8
			c-2.009-0.361-1.885,0.951,0.112,0.577c5.915-1.107,12.132-1.174,18.124-1.525c14.93-0.873,29.964-1.076,44.848-2.582
			c1.14-0.115,2.856-0.069,3.879-0.668c1.232-0.722,0.69-3.385-0.831-3.385c-3.443,0-7.676-0.305-11.37-0.561
			c-15.452-1.071-30.89-2.371-46.325-3.657c-3.677-0.306-7.353-0.615-11.029-0.928c0.089,0.655,0.177,1.31,0.266,1.964
			c10.107-3.812,20.775-6.416,31.373-8.397c19.671-3.677,41.839-4.979,60.412,3.734c4.177,1.959,7.338,4.926,11.156,7.377
			c4.308,2.766,9.53,4.047,14.395,5.448c11.179,3.22,21.297,4.946,33.003,4.548c14.72-0.501,29.359-2.575,44.055-3.5
			c15.175-0.955,30.45-0.821,45.648-1.22c28.568-0.751,57.127-1.792,85.687-2.829c6.782-0.246,13.569-0.564,20.356-0.648
			c8.024-0.1,13.921,5.141,12.906,13.352c-0.158,1.278,1.844,1.263,2,0c0.521-4.22-0.836-8.662-3.766-11.733
			c-4.055-4.249-10.561-3.664-15.913-3.506c-19.967,0.587-39.928,1.44-59.892,2.111c-29.598,0.995-59.373,0.734-88.922,2.593
			c-14.593,0.918-29.107,2.936-43.728,3.434c-12.371,0.421-23.317-2.205-35.053-5.753c-3.085-0.933-6.166-1.971-8.997-3.529
			c-2.446-1.346-4.572-3.567-6.931-5.102c-4.899-3.188-10.476-5.291-16.092-6.806c-11.991-3.235-24.79-3.128-37.054-1.899
			c-15.251,1.528-30.806,4.978-45.176,10.398c-1.069,0.403-0.881,1.867,0.266,1.964c11.039,0.94,22.082,1.851,33.126,2.736
			c7.814,0.626,15.628,1.239,23.448,1.793c3.907,0.277,8.152,0.998,12.074,0.63c0.681-0.064-0.707-0.258-1.128-0.189
			c-0.959,0.158-1.934,0.239-2.901,0.331c-3.095,0.296-6.202,0.477-9.306,0.663c-8.174,0.49-16.356,0.859-24.534,1.277
			c-7.485,0.383-14.978,0.755-22.446,1.403c-1.505,0.131-8.167-0.091-8.758,2.046c-0.918,3.319,23.717,3.86,25.782,3.984
			c14.027,0.843,28.106,1.208,42.113,2.363c0.313,0.026,3.328,0.758,2.028,0.924c-1.81,0.231-3.645,0.319-5.464,0.447
			c-6.939,0.489-13.884,0.898-20.825,1.34c-13.414,0.855-27.239,1.048-40.507,3.359c-1.55,0.27-4.081,1.904-1.349,2.847
			c4.156,1.434,9.427,1.149,13.748,1.441c15.659,1.058,31.357,1.53,47.006,2.734c2.116,0.163,4.25,0.315,6.345,0.665
			c1.828,0.305,0.128-0.275-1.092-0.231c-5.677,0.2-11.352,0.697-17.016,1.121c-14.902,1.115-29.796,2.352-44.687,3.604
			c-1.682,0.141-3.365,0.283-5.047,0.427c-1.147,0.098-1.334,1.561-0.266,1.964c10.107,3.812,20.775,6.416,31.373,8.397
			c18.447,3.448,38.431,4.677,56.412-1.613c9.208-3.221,15.917-10.282,25.113-13.299c11.536-3.784,22.652-6.381,34.854-6.215
			c14.496,0.198,28.944,2.289,43.39,3.343c15.238,1.112,30.576,0.985,45.845,1.375c31.48,0.803,62.948,1.985,94.418,3.107
			c7.034,0.251,16.226,1.909,22.899-0.899c5.476-2.305,7.483-8.825,6.576-14.315C428.209,222.766,426.282,223.307,426.49,224.568z"
			/>
	</g>
</g>
<g>
	<g>
		<path d="M64.054,165.792c-0.629,3.807,0.053,8.509,2.722,11.449c4.109,4.525,10.078,4.294,15.7,4.134
			c19.632-0.558,39.258-1.41,58.887-2.075c29.514-0.998,59.168-0.842,88.644-2.528c14.71-0.841,29.331-2.868,44.055-3.5
			c6.184-0.265,12.404-0.157,18.529,0.784c5.657,0.869,11.238,2.889,16.718,4.5c3.232,0.95,6.454,1.988,9.491,3.46
			c2.48,1.202,4.579,3.402,6.855,4.964c4.813,3.304,10.34,5.514,15.921,7.125c11.927,3.443,24.747,3.455,37.009,2.321
			c15.643-1.446,31.622-4.961,46.35-10.515c1.069-0.403,0.881-1.867-0.266-1.964c-11.039-0.94-22.082-1.851-33.126-2.736
			c-7.814-0.626-15.629-1.239-23.448-1.793c-3.907-0.277-8.152-0.998-12.074-0.63c-0.678,0.064,0.704,0.257,1.128,0.186
			c0.96-0.16,1.934-0.246,2.902-0.342c3.096-0.307,6.204-0.501,9.308-0.699c8.176-0.522,16.36-0.918,24.54-1.355
			c7.485-0.4,14.975-0.786,22.446-1.407c1.512-0.126,8.104,0.159,8.749-1.926c0.929-3-24.069-3.988-26.085-4.133
			c-13.903-0.994-27.842-1.602-41.731-2.771c-0.572-0.048-3.028-0.654-1.145-0.904c1.936-0.257,3.903-0.34,5.85-0.464
			c7.019-0.448,14.046-0.773,21.069-1.139c13.262-0.69,27.059-0.589,40.164-2.946c1.639-0.295,3.949-1.912,1.312-2.943
			c-4.046-1.583-9.507-1.249-13.755-1.54c-15.654-1.072-31.349-1.471-46.997-2.615c-2.115-0.155-4.249-0.297-6.343-0.642
			c-1.832-0.301-0.124,0.276,1.092,0.233c5.677-0.2,11.352-0.697,17.016-1.121c14.902-1.115,29.796-2.352,44.687-3.604
			c1.682-0.141,3.365-0.283,5.047-0.427c1.147-0.098,1.334-1.561,0.266-1.964c-10.107-3.812-20.775-6.416-31.373-8.397
			c-18.447-3.448-38.431-4.677-56.412,1.613c-9.208,3.221-15.917,10.282-25.113,13.299c-11.536,3.784-22.652,6.381-34.854,6.215
			c-14.496-0.198-28.944-2.289-43.39-3.343c-15.238-1.112-30.576-0.985-45.845-1.375c-31.48-0.803-62.948-1.985-94.418-3.107
			c-6.925-0.247-15.304-1.646-22.025,0.511c-5.909,1.896-8.816,8.526-8.093,14.378c0.156,1.263,2.158,1.278,2,0
			c-0.898-7.268,3.698-12.637,10.946-13.314c5.299-0.495,10.916,0.205,16.215,0.392c23.531,0.83,47.06,1.72,70.596,2.442
			c30.298,0.929,60.56,0.997,90.758,3.826c12.446,1.166,25.434,2.759,37.886,0.846c5.211-0.8,10.196-2.454,15.255-3.894
			c4.864-1.384,10.093-2.686,14.395-5.448c4.791-3.075,8.715-6.433,14.065-8.672c5.041-2.11,10.425-3.339,15.809-4.17
			c11.567-1.785,23.539-1.017,35.071,0.635c12.834,1.838,25.841,4.909,37.996,9.493c0.089-0.655,0.177-1.31,0.266-1.964
			c-11.039,0.94-22.082,1.851-33.126,2.736c-7.814,0.626-15.629,1.239-23.448,1.793c-3.562,0.252-8.583,1.266-11.885,0.652
			c-1.591-0.296-2.094,1.9-1.455,2.99c0.557,0.951,2.823,0.867,3.754,0.975c6.334,0.731,12.746,0.942,19.109,1.274
			c14.55,0.76,29.539,0.578,43.96,2.82c0.611,0.095,1.221,0.214,1.811,0.403c-1.269-0.407,1.054-1.471-0.678-1.045
			c-2.135,0.525-4.394,0.659-6.575,0.869c-7.224,0.696-14.48,1.084-21.724,1.494c-12.909,0.73-26.038,0.721-38.885,2.246
			c-2.947,0.35-4.067,4.284-0.554,4.732c4.505,0.574,9.093,0.708,13.622,0.998c15.376,0.983,30.784,1.779,46.122,3.27
			c2.245,0.218,4.497,0.446,6.72,0.833c2.034,0.354,1.952-1.051-0.073-0.709c-5.941,1.005-12.117,1.108-18.119,1.463
			c-14.933,0.884-29.974,1.156-44.857,2.716c-1.142,0.12-2.856,0.077-3.88,0.678c-1.232,0.722-0.69,3.385,0.831,3.385
			c3.443,0,7.676,0.305,11.37,0.561c15.452,1.071,30.89,2.371,46.325,3.657c3.677,0.306,7.353,0.615,11.029,0.928
			c-0.089-0.655-0.177-1.31-0.266-1.964c-10.107,3.812-20.775,6.416-31.373,8.397c-19.671,3.677-41.839,4.979-60.412-3.734
			c-4.177-1.959-7.338-4.926-11.156-7.377c-4.308-2.766-9.53-4.047-14.395-5.448c-11.179-3.22-21.297-4.946-33.003-4.548
			c-14.72,0.501-29.359,2.575-44.055,3.5c-15.175,0.955-30.45,0.821-45.648,1.22c-28.202,0.742-56.396,1.764-84.589,2.789
			c-7.036,0.256-14.075,0.573-21.115,0.684c-7.949,0.126-14.042-4.848-12.672-13.141C66.191,165.063,64.264,164.522,64.054,165.792z
			"/>
	</g>
</g>
</svg>
