<?xml version="1.0" encoding="utf-8"?>
<!-- Generator: Adobe Illustrator 17.1.0, SVG Export Plug-In . SVG Version: 6.00 Build 0)  -->
<!DOCTYPE svg PUBLIC "-//W3C//DTD SVG 1.1//EN" "http://www.w3.org/Graphics/SVG/1.1/DTD/svg11.dtd">
<svg version="1.1" id="Lager_1" xmlns="http://www.w3.org/2000/svg" xmlns:xlink="http://www.w3.org/1999/xlink" x="0px" y="0px"
	 viewBox="0 0 268.779 230.306" enable-background="new 0 0 268.779 230.306" xml:space="preserve">
<g>
	<g>
		<path d="M10.601,25.752c5.615,1.604,11.231,3.209,16.846,4.813c3.085,0.881,6.169,1.763,9.254,2.644
			c0.619,0.177,1.239,0.354,1.858,0.531c-0.863-0.247-1.219-1.602-0.858-0.646c2.72,7.202,5.439,14.404,8.159,21.606
			c10.943,28.978,21.885,57.955,32.828,86.933c4.289,11.357,8.578,22.715,12.866,34.072c0.241,0.638,0.731,1.094,1.446,1.101
			c32.333,0.333,64.667,0.667,97,1c1.935,0.02,1.933-2.98,0-3c-32.333-0.333-64.667-0.667-97-1c0.482,0.367,0.964,0.734,1.446,1.101
			C77.285,129.461,60.124,84.016,42.963,38.571c-0.987-2.615-1.593-7.149-4.567-7.998c-8.999-2.571-17.998-5.142-26.997-7.714
			C9.535,22.327,8.744,25.221,10.601,25.752L10.601,25.752z"/>
	</g>
</g>
<g>
	<g>
		<path d="M76,133.806c40,0,80,0,120,0c0.642,0,1.303-0.454,1.446-1.101c6-27,12-54,18-81c0.21-0.945-0.434-1.899-1.446-1.899
			c-49.706,0-99.412,0-149.118,0c-5.961,0-11.921,0-17.882,0c-0.92,0-1.78,0.968-1.446,1.899c9.667,27,19.333,54,29,81
			c0.647,1.807,3.547,1.028,2.893-0.798c-9.667-27-19.333-54-29-81c-0.482,0.633-0.964,1.266-1.446,1.899
			c49.706,0,99.412,0,149.118,0c5.961,0,11.921,0,17.882,0c-0.482-0.633-0.964-1.266-1.446-1.899c-6,27-12,54-18,81
			c0.482-0.367,0.964-0.734,1.446-1.101c-40,0-80,0-120,0C74.065,130.806,74.065,133.806,76,133.806z"/>
	</g>
</g>
<g>
	<g>
		<path d="M75.5,53.306c1,26.333,2,52.667,3,79c0.073,1.928,3.073,1.935,3,0c-1-26.333-2-52.667-3-79
			C78.427,51.377,75.427,51.37,75.5,53.306L75.5,53.306z"/>
	</g>
</g>
<g>
	<g>
		<path d="M105.5,51.306c1,26.333,2,52.667,3,79c0.073,1.928,3.073,1.935,3,0c-1-26.333-2-52.667-3-79
			C108.427,49.377,105.427,49.37,105.5,51.306L105.5,51.306z"/>
	</g>
</g>
<g>
	<g>
		<path d="M133.5,51.306c1,26.333,2,52.667,3,79c0.073,1.928,3.074,1.935,3,0c-1-26.333-2-52.667-3-79
			C136.427,49.377,133.426,49.37,133.5,51.306L133.5,51.306z"/>
	</g>
</g>
<g>
	<g>
		<path d="M159.5,51.306c1,26.333,2,52.667,3,79c0.073,1.928,3.074,1.935,3,0c-1-26.333-2-52.667-3-79
			C162.427,49.377,159.426,49.37,159.5,51.306L159.5,51.306z"/>
	</g>
</g>
<g>
	<g>
		<path d="M187.5,53.306c1,26.333,2,52.667,3,79c0.073,1.928,3.074,1.935,3,0c-1-26.333-2-52.667-3-79
			C190.427,51.377,187.426,51.37,187.5,53.306L187.5,53.306z"/>
	</g>
</g>
<g>
	<g>
		<path d="M59.602,88.797c47.663,0,95.326,0,142.989,0c1.137,0,2.273,0,3.41,0c1.924,0,1.924-2.984,0-2.984
			c-47.663,0-95.326,0-142.989,0c-1.137,0-2.273,0-3.41,0C57.677,85.814,57.677,88.797,59.602,88.797L59.602,88.797z"/>
	</g>
</g>
<circle stroke="#000000" stroke-miterlimit="10" cx="106.5" cy="205.806" r="16.5"/>
<circle stroke="#000000" stroke-miterlimit="10" cx="174.5" cy="204.806" r="16.5"/>
<circle fill="#3B6EE0" cx="227.792" cy="41.299" r="30.994"/>
<path fill="#FFFFFF" d="M231.089,52.467c0,1.945-1.577,3.522-3.522,3.522l0,0c-1.945,0-3.522-1.577-3.522-3.522v-23.95
	c0-1.945,1.577-3.522,3.522-3.522l0,0c1.945,0,3.522,1.577,3.522,3.522V52.467z"/>
<path fill="#FFFFFF" d="M240.21,36.972c1.945,0,3.522,1.577,3.522,3.522l0,0c0,1.945-1.577,3.522-3.522,3.522h-23.95
	c-1.945,0-3.522-1.577-3.522-3.522l0,0c0-1.945,1.577-3.522,3.522-3.522H240.21z"/>
</svg>
