<?xml version="1.0" encoding="utf-8"?>
<!-- Generator: Adobe Illustrator 17.1.0, SVG Export Plug-In . SVG Version: 6.00 Build 0)  -->
<!DOCTYPE svg PUBLIC "-//W3C//DTD SVG 1.1//EN" "http://www.w3.org/Graphics/SVG/1.1/DTD/svg11.dtd">
<svg version="1.1" id="Layer_1" xmlns="http://www.w3.org/2000/svg" xmlns:xlink="http://www.w3.org/1999/xlink" x="0px" y="0px"
	 viewBox="0 6.5 50 37" enable-background="new 0 6.5 50 37" xml:space="preserve">
<polyline fill="none" stroke="#000000" stroke-width="0.1" stroke-linecap="round" stroke-linejoin="round" points="3.61,21.318 
	3.35,13.14 2.959,13.014 2.321,13.178 2.811,28.52 3.195,28.672 3.658,28.53 3.785,27.193 3.711,25.071 "/>
<polyline fill="none" stroke="#000000" stroke-width="0.1" stroke-linecap="round" stroke-linejoin="round" points="2.321,13.178 
	2.724,13.315 3.351,13.14 "/>
<line fill="none" stroke="#000000" stroke-width="0.1" stroke-linecap="round" stroke-linejoin="round" x1="2.724" y1="13.315" x2="3.2" y2="28.646"/>
<polyline fill="none" stroke="#000000" stroke-width="0.1" stroke-linecap="round" stroke-linejoin="round" points="16.088,9.848 
	16.091,9.574 16.641,9.432 17.041,9.546 17.09,17.534 "/>
<line fill="none" stroke="#000000" stroke-width="0.1" stroke-linecap="round" stroke-linejoin="round" x1="3.44" y1="13.188" x2="16.065" y2="9.864"/>
<polyline fill="none" stroke="#000000" stroke-width="0.1" stroke-linecap="round" stroke-linejoin="round" points="16.094,9.877 
	16.478,9.976 3.424,13.429 "/>
<line fill="none" stroke="#000000" stroke-width="0.1" stroke-linecap="round" stroke-linejoin="round" x1="3.459" y1="14.228" x2="16.444" y2="10.755"/>
<line fill="none" stroke="#000000" stroke-width="0.1" stroke-linecap="round" stroke-linejoin="round" x1="16.104" y1="10.872" x2="16.15" y2="17.547"/>
<polyline fill="none" stroke="#000000" stroke-width="0.1" stroke-linecap="round" stroke-linejoin="round" points="16.114,9.59 
	16.49,9.7 17.036,9.544 "/>
<line fill="none" stroke="#000000" stroke-width="0.1" stroke-linecap="round" stroke-linejoin="round" x1="16.49" y1="9.7" x2="16.546" y2="17.446"/>
<line fill="none" stroke="#000000" stroke-width="0.1" stroke-linecap="round" stroke-linejoin="round" x1="8.843" y1="12.852" x2="8.98" y2="19.701"/>
<line fill="none" stroke="#000000" stroke-width="0.1" stroke-linecap="round" stroke-linejoin="round" x1="9.037" y1="12.764" x2="9.183" y2="19.641"/>
<line fill="none" stroke="#000000" stroke-width="0.1" stroke-linecap="round" stroke-linejoin="round" x1="9.451" y1="12.653" x2="9.589" y2="19.581"/>
<line fill="none" stroke="#000000" stroke-width="0.1" stroke-linecap="round" stroke-linejoin="round" x1="9.635" y1="12.626" x2="9.764" y2="19.434"/>
<line fill="none" stroke="#000000" stroke-width="0.1" stroke-linecap="round" stroke-linejoin="round" x1="9.847" y1="12.579" x2="9.981" y2="19.413"/>
<line fill="none" stroke="#000000" stroke-width="0.1" stroke-linecap="round" stroke-linejoin="round" x1="10.223" y1="12.46" x2="10.348" y2="19.35"/>
<line fill="none" stroke="#000000" stroke-width="0.1" stroke-linecap="round" stroke-linejoin="round" x1="10.4" y1="12.426" x2="10.524" y2="19.211"/>
<line fill="none" stroke="#000000" stroke-width="0.1" stroke-linecap="round" stroke-linejoin="round" x1="10.615" y1="12.383" x2="10.741" y2="19.179"/>
<line fill="none" stroke="#000000" stroke-width="0.1" stroke-linecap="round" stroke-linejoin="round" x1="10.985" y1="12.245" x2="11.092" y2="19.113"/>
<g>
	<path fill="none" stroke="#000000" stroke-width="0.1" stroke-linecap="round" stroke-linejoin="round" d="M2.883,23.775
		c0.015,0.034,0.011,0.069-0.009,0.077c-0.02,0.008-0.049-0.012-0.064-0.047c-0.015-0.034-0.011-0.069,0.009-0.077
		C2.839,23.72,2.868,23.74,2.883,23.775z"/>
	<path fill="none" stroke="#000000" stroke-width="0.1" stroke-linecap="round" stroke-linejoin="round" d="M2.569,13.933
		c0.012,0.037,0.003,0.074-0.021,0.081c-0.023,0.008-0.053-0.017-0.064-0.054c-0.012-0.037-0.003-0.074,0.021-0.081
		C2.528,13.872,2.557,13.896,2.569,13.933z"/>
</g>
<line fill="none" stroke="#000000" stroke-width="0.1" stroke-linecap="round" stroke-linejoin="round" x1="33.357" y1="35.931" x2="3.277" y2="24.872"/>
<line fill="none" stroke="#000000" stroke-width="0.1" stroke-linecap="round" stroke-linejoin="round" x1="3.543" y1="22.684" x2="33.477" y2="33.344"/>
<line fill="none" stroke="#000000" stroke-width="0.1" stroke-linecap="round" stroke-linejoin="round" x1="3.189" y1="22.831" x2="33.397" y2="33.625"/>
<polygon fill="none" stroke="#000000" stroke-width="0.1" stroke-linecap="round" stroke-linejoin="round" points="33.309,40.298 
	33.828,40.494 34.293,40.291 34.482,38.813 34.626,33.323 34.101,33.138 33.474,33.393 "/>
<polyline fill="none" stroke="#000000" stroke-width="0.1" stroke-linecap="round" stroke-linejoin="round" points="33.484,33.398 
	33.999,33.586 34.607,33.328 "/>
<line fill="none" stroke="#000000" stroke-width="0.1" stroke-linecap="round" stroke-linejoin="round" x1="33.999" y1="33.586" x2="33.829" y2="40.467"/>
<line fill="none" stroke="#000000" stroke-width="0.1" stroke-linecap="round" stroke-linejoin="round" x1="34.678" y1="33.309" x2="46.953" y2="28.362"/>
<line fill="none" stroke="#000000" stroke-width="0.1" stroke-linecap="round" stroke-linejoin="round" x1="47.331" y1="28.464" x2="34.699" y2="33.568"/>
<line fill="none" stroke="#000000" stroke-width="0.1" stroke-linecap="round" stroke-linejoin="round" x1="47.055" y1="28.334" x2="47.337" y2="28.426"/>
<line fill="none" stroke="#000000" stroke-width="0.1" stroke-linecap="round" stroke-linejoin="round" x1="34.643" y1="35.855" x2="47.17" y2="30.659"/>
<polyline fill="none" stroke="#000000" stroke-width="0.1" stroke-linecap="round" stroke-linejoin="round" points="46.999,27.974 
	47.491,27.769 48,27.935 47.678,34.451 47.272,34.629 46.761,34.447 46.686,33.173 46.794,30.891 "/>
<polyline fill="none" stroke="#000000" stroke-width="0.1" stroke-linecap="round" stroke-linejoin="round" points="47.03,28.026 
	47.454,28.159 47.989,27.949 "/>
<polyline fill="none" stroke="#000000" stroke-width="0.1" stroke-linecap="round" stroke-linejoin="round" points="47.456,28.223 
	47.213,33.346 47.272,34.598 "/>
<line fill="none" stroke="#000000" stroke-width="0.1" stroke-linecap="round" stroke-linejoin="round" x1="46.704" y1="33.177" x2="47.178" y2="33.34"/>
<g>
	<path fill="none" stroke="#000000" stroke-width="0.1" stroke-linecap="round" stroke-linejoin="round" d="M47.744,28.824
		c-0.013,0.04-0.043,0.066-0.066,0.058c-0.023-0.007-0.031-0.046-0.017-0.086c0.013-0.04,0.043-0.066,0.067-0.058
		C47.75,28.746,47.758,28.785,47.744,28.824z"/>
	<path fill="none" stroke="#000000" stroke-width="0.1" stroke-linecap="round" stroke-linejoin="round" d="M47.684,30.123
		c-0.014,0.04-0.043,0.066-0.066,0.058c-0.023-0.008-0.031-0.046-0.017-0.086c0.013-0.04,0.043-0.066,0.066-0.058
		C47.69,30.045,47.698,30.084,47.684,30.123z"/>
	<path fill="none" stroke="#000000" stroke-width="0.1" stroke-linecap="round" stroke-linejoin="round" d="M34.356,34.278
		c-0.015,0.043-0.048,0.071-0.075,0.062c-0.026-0.009-0.036-0.051-0.022-0.094c0.015-0.043,0.049-0.07,0.075-0.062
		C34.361,34.193,34.37,34.235,34.356,34.278z"/>
	<path fill="none" stroke="#000000" stroke-width="0.1" stroke-linecap="round" stroke-linejoin="round" d="M34.317,35.65
		c-0.015,0.043-0.048,0.071-0.075,0.062c-0.026-0.009-0.036-0.051-0.022-0.094c0.015-0.043,0.049-0.07,0.076-0.062
		C34.322,35.565,34.332,35.607,34.317,35.65z"/>
	<path fill="none" stroke="#000000" stroke-width="0.1" stroke-linecap="round" stroke-linejoin="round" d="M33.739,34.963
		c0.017,0.042,0.008,0.085-0.021,0.097c-0.028,0.012-0.066-0.014-0.083-0.056c-0.017-0.042-0.007-0.085,0.021-0.097
		C33.685,34.896,33.723,34.92,33.739,34.963z"/>
</g>
<g>
	<path fill="none" stroke="#000000" stroke-width="0.1" stroke-linecap="round" stroke-linejoin="round" d="M3.588,22.631
		L3.539,21.56c0,0,0.028-0.168,0.161-0.252l12.884-3.802l30.271,9.369c0,0,0.196,0.07,0.189,0.273l-0.063,1.114"/>
	<path fill="none" stroke="#000000" stroke-width="0.1" stroke-linecap="round" stroke-linejoin="round" d="M46.855,27.052
		l-12.641,5.023c0,0-0.131,0.056-0.299,0.019L3.684,21.487"/>
</g>
<line fill="none" stroke="#000000" stroke-width="0.1" stroke-linecap="round" stroke-linejoin="round" x1="34.083" y1="32.262" x2="34.064" y2="32.934"/>
<line fill="none" stroke="#000000" stroke-width="0.1" stroke-linecap="round" stroke-linejoin="round" x1="3.487" y1="22.68" x2="3.179" y2="22.768"/>
</svg>
