<?xml version="1.0" encoding="utf-8"?>
<!-- Generator: Adobe Illustrator 17.1.0, SVG Export Plug-In . SVG Version: 6.00 Build 0)  -->
<!DOCTYPE svg PUBLIC "-//W3C//DTD SVG 1.1//EN" "http://www.w3.org/Graphics/SVG/1.1/DTD/svg11.dtd">
<svg version="1.1" id="Layer_1" xmlns="http://www.w3.org/2000/svg" xmlns:xlink="http://www.w3.org/1999/xlink" x="0px" y="0px"
	 viewBox="345.5 235 500 400" enable-background="new 345.5 235 500 400" xml:space="preserve">
<polyline fill="none" stroke="#000000" stroke-linecap="round" stroke-linejoin="round" points="381.424,398.808 378.826,317.022 
	374.914,315.769 368.536,317.406 373.436,470.824 377.272,472.348 381.908,470.929 383.169,457.555 382.435,436.34 "/>
<polyline fill="none" stroke="#000000" stroke-width="0.75" stroke-linecap="round" stroke-linejoin="round" points="
	368.535,317.406 372.561,318.771 378.829,317.021 "/>
<line fill="none" stroke="#000000" stroke-width="0.75" stroke-linecap="round" stroke-linejoin="round" x1="372.561" y1="318.772" x2="377.322" y2="472.086"/>
<polyline fill="none" stroke="#000000" stroke-linecap="round" stroke-linejoin="round" points="506.201,284.101 506.233,281.366 
	511.729,279.945 515.738,281.082 516.22,360.969 "/>
<line fill="none" stroke="#000000" stroke-linecap="round" stroke-linejoin="round" x1="379.728" y1="317.504" x2="505.972" y2="284.261"/>
<polyline fill="none" stroke="#000000" stroke-width="0.5" stroke-linecap="round" stroke-linejoin="round" points="
	506.268,284.391 510.108,285.388 379.563,319.918 "/>
<line fill="none" stroke="#000000" stroke-linecap="round" stroke-linejoin="round" x1="379.913" y1="327.91" x2="509.768" y2="293.179"/>
<line fill="none" stroke="#000000" stroke-linecap="round" stroke-linejoin="round" x1="506.362" y1="294.341" x2="506.828" y2="361.099"/>
<polyline fill="none" stroke="#000000" stroke-width="0.75" stroke-linecap="round" stroke-linejoin="round" points="
	506.467,281.523 510.22,282.63 515.685,281.064 "/>
<line fill="none" stroke="#000000" stroke-width="0.75" stroke-linecap="round" stroke-linejoin="round" x1="510.22" y1="282.629" x2="510.785" y2="360.083"/>
<line fill="none" stroke="#000000" stroke-width="0.75" stroke-linecap="round" stroke-linejoin="round" x1="433.754" y1="314.141" x2="435.124" y2="382.632"/>
<line fill="none" stroke="#000000" stroke-width="0.5" stroke-linecap="round" stroke-linejoin="round" x1="435.697" y1="313.262" x2="437.156" y2="382.035"/>
<line fill="none" stroke="#000000" stroke-width="0.75" stroke-linecap="round" stroke-linejoin="round" x1="439.838" y1="312.159" x2="441.213" y2="381.435"/>
<line fill="none" stroke="#000000" stroke-width="0.5" stroke-linecap="round" stroke-linejoin="round" x1="441.675" y1="311.889" x2="442.962" y2="379.968"/>
<line fill="none" stroke="#000000" stroke-width="0.5" stroke-linecap="round" stroke-linejoin="round" x1="443.796" y1="311.417" x2="445.138" y2="379.76"/>
<line fill="none" stroke="#000000" stroke-width="0.5" stroke-linecap="round" stroke-linejoin="round" x1="447.554" y1="310.229" x2="448.8" y2="379.129"/>
<line fill="none" stroke="#000000" stroke-width="0.5" stroke-linecap="round" stroke-linejoin="round" x1="449.323" y1="309.888" x2="450.566" y2="377.731"/>
<line fill="none" stroke="#000000" stroke-width="0.5" stroke-linecap="round" stroke-linejoin="round" x1="451.475" y1="309.459" x2="452.737" y2="377.415"/>
<line fill="none" stroke="#000000" stroke-width="0.75" stroke-linecap="round" stroke-linejoin="round" x1="455.178" y1="308.074" x2="456.247" y2="376.754"/>
<g>
	<path fill="none" stroke="#000000" stroke-width="0.5" stroke-linecap="round" stroke-linejoin="round" d="M374.15,423.373
		c0.154,0.343,0.112,0.69-0.09,0.773c-0.201,0.085-0.489-0.124-0.638-0.468c-0.152-0.343-0.112-0.69,0.094-0.773
		C373.717,422.821,374.001,423.028,374.15,423.373z"/>
	<path fill="none" stroke="#000000" stroke-width="0.5" stroke-linecap="round" stroke-linejoin="round" d="M371.009,324.959
		c0.121,0.374,0.027,0.737-0.211,0.809c-0.235,0.077-0.527-0.168-0.645-0.542c-0.124-0.374-0.03-0.737,0.209-0.811
		C370.6,324.343,370.89,324.584,371.009,324.959z"/>
</g>
<line fill="none" stroke="#000000" stroke-linecap="round" stroke-linejoin="round" x1="678.898" y1="544.931" x2="378.093" y2="434.344"/>
<line fill="none" stroke="#000000" stroke-width="0.75" stroke-linecap="round" stroke-linejoin="round" x1="380.754" y1="412.461" x2="680.098" y2="519.069"/>
<line fill="none" stroke="#000000" stroke-width="0.5" stroke-linecap="round" stroke-linejoin="round" x1="377.217" y1="413.932" x2="679.294" y2="521.871"/>
<polygon fill="none" stroke="#000000" stroke-linecap="round" stroke-linejoin="round" points="678.417,588.602 683.6,590.563 
	688.256,588.533 690.145,573.757 691.581,518.859 686.329,517.004 680.062,519.559 "/>
<polyline fill="none" stroke="#000000" stroke-width="0.75" stroke-linecap="round" stroke-linejoin="round" points="
	680.164,519.607 685.315,521.485 691.389,518.91 "/>
<line fill="none" stroke="#000000" stroke-width="0.75" stroke-linecap="round" stroke-linejoin="round" x1="685.315" y1="521.485" x2="683.616" y2="590.293"/>
<line fill="none" stroke="#000000" stroke-width="0.75" stroke-linecap="round" stroke-linejoin="round" x1="692.106" y1="518.719" x2="814.855" y2="469.249"/>
<line fill="none" stroke="#000000" stroke-width="0.5" stroke-linecap="round" stroke-linejoin="round" x1="818.636" y1="470.265" x2="692.316" y2="521.31"/>
<line fill="none" stroke="#000000" stroke-width="0.75" stroke-linecap="round" stroke-linejoin="round" x1="815.87" y1="468.962" x2="818.694" y2="469.889"/>
<line fill="none" stroke="#000000" stroke-linecap="round" stroke-linejoin="round" x1="691.756" y1="544.173" x2="817.025" y2="492.216"/>
<polyline fill="none" stroke="#000000" stroke-linecap="round" stroke-linejoin="round" points="815.31,465.363 820.229,463.315 
	825.324,464.977 822.101,530.133 818.041,531.919 812.938,530.099 812.184,517.354 813.267,494.534 "/>
<polyline fill="none" stroke="#000000" stroke-width="0.75" stroke-linecap="round" stroke-linejoin="round" points="
	815.626,465.888 819.863,467.219 825.218,465.117 "/>
<polyline fill="none" stroke="#000000" stroke-width="0.75" stroke-linecap="round" stroke-linejoin="round" points="
	819.888,467.852 817.45,519.086 818.041,531.604 "/>
<line fill="none" stroke="#000000" stroke-width="0.75" stroke-linecap="round" stroke-linejoin="round" x1="812.36" y1="517.392" x2="817.104" y2="519.022"/>
<g>
	<path fill="none" stroke="#000000" stroke-width="0.5" stroke-linecap="round" stroke-linejoin="round" d="M822.763,473.87
		c-0.132,0.397-0.428,0.657-0.657,0.578c-0.235-0.074-0.312-0.459-0.175-0.856c0.134-0.397,0.427-0.657,0.666-0.58
		C822.824,473.089,822.899,473.471,822.763,473.87z"/>
	<path fill="none" stroke="#000000" stroke-width="0.5" stroke-linecap="round" stroke-linejoin="round" d="M822.168,486.858
		c-0.137,0.399-0.433,0.657-0.661,0.58c-0.226-0.077-0.307-0.459-0.171-0.858c0.134-0.397,0.427-0.657,0.661-0.58
		C822.224,486.077,822.3,486.462,822.168,486.858z"/>
	<path fill="none" stroke="#000000" stroke-width="0.5" stroke-linecap="round" stroke-linejoin="round" d="M688.881,528.403
		c-0.148,0.429-0.482,0.706-0.753,0.619c-0.262-0.09-0.359-0.51-0.215-0.941c0.15-0.427,0.486-0.704,0.753-0.617
		C688.929,527.552,689.023,527.976,688.881,528.403z"/>
	<path fill="none" stroke="#000000" stroke-width="0.5" stroke-linecap="round" stroke-linejoin="round" d="M688.496,542.127
		c-0.148,0.431-0.482,0.706-0.753,0.619c-0.262-0.087-0.359-0.51-0.22-0.941c0.15-0.427,0.491-0.704,0.758-0.617
		C688.54,541.276,688.639,541.698,688.496,542.127z"/>
	<path fill="none" stroke="#000000" stroke-width="0.5" stroke-linecap="round" stroke-linejoin="round" d="M682.713,535.251
		c0.175,0.421,0.079,0.854-0.207,0.968c-0.284,0.115-0.657-0.137-0.826-0.56c-0.171-0.419-0.074-0.854,0.211-0.969
		C682.175,534.581,682.551,534.829,682.713,535.251z"/>
</g>
<g>
	<path fill="none" stroke="#000000" stroke-width="0.75" stroke-linecap="round" stroke-linejoin="round" d="M381.208,411.936
		l-0.491-10.713c0,0,0.28-1.68,1.611-2.521l128.841-38.023l302.706,93.69c0,0,1.961,0.699,1.891,2.73l-0.632,11.135"/>
	<path fill="none" stroke="#000000" stroke-width="0.75" stroke-linecap="round" stroke-linejoin="round" d="M813.874,456.143
		l-126.414,50.23c0,0-1.306,0.56-2.986,0.186L382.165,400.499"/>
</g>
<line fill="none" stroke="#000000" stroke-width="0.75" stroke-linecap="round" stroke-linejoin="round" x1="686.154" y1="508.241" x2="685.968" y2="514.962"/>
<line fill="none" stroke="#000000" stroke-width="0.75" stroke-linecap="round" stroke-linejoin="round" x1="380.193" y1="412.426" x2="377.112" y2="413.302"/>
</svg>
