<?xml version="1.0" encoding="utf-8"?>
<!-- Generator: Adobe Illustrator 17.1.0, SVG Export Plug-In . SVG Version: 6.00 Build 0)  -->
<!DOCTYPE svg PUBLIC "-//W3C//DTD SVG 1.1//EN" "http://www.w3.org/Graphics/SVG/1.1/DTD/svg11.dtd">
<svg version="1.1" id="Lager_1" xmlns="http://www.w3.org/2000/svg" xmlns:xlink="http://www.w3.org/1999/xlink" x="0px" y="0px"
	 viewBox="0 0 220 212" enable-background="new 0 0 220 212" xml:space="preserve">
<g>
	<g>
		<path d="M10.601,7.446c5.615,1.604,11.231,3.209,16.846,4.813c3.085,0.881,6.169,1.763,9.254,2.644
			c0.619,0.177,1.239,0.354,1.858,0.531c-0.863-0.247-1.219-1.602-0.858-0.646c2.72,7.202,5.439,14.404,8.159,21.606
			c10.943,28.978,21.885,57.955,32.828,86.933c4.289,11.357,8.578,22.715,12.866,34.072c0.241,0.638,0.731,1.094,1.446,1.101
			c32.333,0.333,64.667,0.667,97,1c1.935,0.02,1.933-2.98,0-3c-32.333-0.333-64.667-0.667-97-1c0.482,0.367,0.964,0.734,1.446,1.101
			C77.285,111.156,60.124,65.711,42.963,20.265c-0.987-2.615-1.593-7.149-4.567-7.998c-8.999-2.571-17.998-5.142-26.997-7.714
			C9.535,4.021,8.744,6.916,10.601,7.446L10.601,7.446z"/>
	</g>
</g>
<g>
	<g>
		<path d="M76,115.5c40,0,80,0,120,0c0.642,0,1.303-0.454,1.446-1.101c6-27,12-54,18-81c0.21-0.945-0.434-1.899-1.446-1.899
			c-49.706,0-99.412,0-149.118,0c-5.961,0-11.921,0-17.882,0c-0.92,0-1.78,0.968-1.446,1.899c9.667,27,19.333,54,29,81
			c0.647,1.807,3.547,1.028,2.893-0.798c-9.667-27-19.333-54-29-81C47.964,33.234,47.482,33.867,47,34.5
			c49.706,0,99.412,0,149.118,0c5.961,0,11.921,0,17.882,0c-0.482-0.633-0.964-1.266-1.446-1.899c-6,27-12,54-18,81
			c0.482-0.367,0.964-0.734,1.446-1.101c-40,0-80,0-120,0C74.065,112.5,74.065,115.5,76,115.5z"/>
	</g>
</g>
<g>
	<g>
		<path d="M75.5,35c1,26.333,2,52.667,3,79c0.073,1.928,3.073,1.935,3,0c-1-26.333-2-52.667-3-79
			C78.427,33.072,75.427,33.065,75.5,35L75.5,35z"/>
	</g>
</g>
<g>
	<g>
		<path d="M105.5,33c1,26.333,2,52.667,3,79c0.073,1.928,3.073,1.935,3,0c-1-26.333-2-52.667-3-79
			C108.427,31.072,105.427,31.065,105.5,33L105.5,33z"/>
	</g>
</g>
<g>
	<g>
		<path d="M133.5,33c1,26.333,2,52.667,3,79c0.073,1.928,3.074,1.935,3,0c-1-26.333-2-52.667-3-79
			C136.427,31.072,133.426,31.065,133.5,33L133.5,33z"/>
	</g>
</g>
<g>
	<g>
		<path d="M159.5,33c1,26.333,2,52.667,3,79c0.073,1.928,3.074,1.935,3,0c-1-26.333-2-52.667-3-79
			C162.427,31.072,159.426,31.065,159.5,33L159.5,33z"/>
	</g>
</g>
<g>
	<g>
		<path d="M187.5,35c1,26.333,2,52.667,3,79c0.073,1.928,3.074,1.935,3,0c-1-26.333-2-52.667-3-79
			C190.427,33.072,187.426,33.065,187.5,35L187.5,35z"/>
	</g>
</g>
<g>
	<g>
		<path d="M59.602,70.492c47.663,0,95.326,0,142.989,0c1.137,0,2.273,0,3.41,0c1.924,0,1.924-2.984,0-2.984
			c-47.663,0-95.326,0-142.989,0c-1.137,0-2.273,0-3.41,0C57.677,67.508,57.677,70.492,59.602,70.492L59.602,70.492z"/>
	</g>
</g>
<circle stroke="#000000" stroke-miterlimit="10" cx="106.5" cy="187.5" r="16.5"/>
<circle stroke="#000000" stroke-miterlimit="10" cx="174.5" cy="186.5" r="16.5"/>
</svg>
