<?xml version="1.0" encoding="utf-8"?>
<!-- Generator: Adobe Illustrator 17.1.0, SVG Export Plug-In . SVG Version: 6.00 Build 0)  -->
<!DOCTYPE svg PUBLIC "-//W3C//DTD SVG 1.1//EN" "http://www.w3.org/Graphics/SVG/1.1/DTD/svg11.dtd">
<svg version="1.1" id="Lager_1" xmlns="http://www.w3.org/2000/svg" xmlns:xlink="http://www.w3.org/1999/xlink" x="0px" y="0px"
	 viewBox="345.5 235 500 400" enable-background="new 345.5 235 500 400" xml:space="preserve">
<g>
	<path d="M693.539,555.052c0-0.661,0.001-1.249,0-1.837c-0.082-64.646-0.14-129.293-0.254-193.939
		c-0.059-33.098-0.218-66.195-0.33-99.292c-0.01-2.91-0.003-2.933,2.965-3.079c3.532-0.174,7.066-0.297,10.599-0.458
		c14.246-0.648,28.49-1.312,42.737-1.949c3.877-0.173,7.829-0.812,11.622-0.305c9.638,1.287,19.202,3.119,28.804,4.686
		c1.273,0.208,1.789,0.738,1.736,2.049c-0.133,3.298-0.224,6.6-0.235,9.901c-0.332,95.316-0.651,190.634-0.971,285.95
		c-0.009,2.774-0.001,5.548-0.001,8.38c0,0-0.55,2.506-1.58,2.944c-9.356,3.547-18.739,7.024-28.122,10.501
		c-0.466,0.173-1.009,0.296-1.495,0.244c-19.923-2.117-39.844-4.257-59.764-6.393c-1.209-0.13-2.418-0.263-3.628-0.381
		c-2.336-0.228-2.372-0.225-2.336-2.645c0.057-3.757,0.172-7.513,0.251-11.269C693.547,557.649,693.539,555.052,693.539,555.052z
		 M766.805,566.665c6.592-2.365,13.161-4.794,19.785-7.061c1.519-0.519,1.994-1.168,1.999-2.787
		c0.223-79.784,0.498-159.568,0.771-239.351c0.054-15.597,0.131-31.194,0.197-46.791c0.003-0.69,0-1.382,0-2.274
		c-9.598-1.462-19.127-2.913-28.847-4.394c-0.217,101.675-0.434,203.186-0.651,305.051
		C762.471,568.203,764.641,567.442,766.805,566.665z M759.255,569.342c0.209-101.778,0.417-203.395,0.626-305.211
		c-2.23,0.111-4.286,0.215-6.741,0.337c0,101.397,0,202.715,0,304.236C754.92,568.889,756.975,569.104,759.255,569.342z
		 M694.88,266.856c0,0.652-0.001,1.261,0,1.87c0.102,97.364,0.208,194.728,0.268,292.092c0.001,1.681,0.494,2.264,2.132,2.208
		c1.139-0.039,2.288,0.203,3.546,0.331c0-98.939,0-197.765,0-296.829C698.734,266.644,696.944,266.742,694.88,266.856z
		 M732.687,328.559c-10.296-0.43-20.568-0.86-30.953-1.294c0,18.931,0,37.636,0,56.715c10.311-0.448,20.522-0.892,30.953-1.345
		C732.687,364.55,732.687,346.656,732.687,328.559z M732.66,322.619c0-17.411,0-34.574,0-51.853
		c-10.27-1.383-20.525-2.765-30.93-4.167c0,18.755,0,37.414,0,56.02C712.045,322.619,722.271,322.619,732.66,322.619z
		 M732.56,439.806c0-16.951,0-33.785,0-50.857c-10.228-0.184-20.44-0.367-30.766-0.552c0,18.567,0,36.963,0,55.622
		C712.167,442.599,722.3,441.211,732.56,439.806z M701.919,448.606c0,18.292,0,36.501,0,54.99c1.242-0.271,2.397-0.514,3.547-0.775
		c8.575-1.947,17.144-3.923,25.73-5.82c1.069-0.236,1.408-0.635,1.407-1.707c-0.014-14.66,0.012-29.321,0.019-43.981
		c0-0.388-0.088-0.777-0.15-1.296C722.298,449.547,712.191,449.081,701.919,448.606z M701.921,562.957
		c3.663-1.166,7.182-2.288,10.701-3.407c6.173-1.962,12.343-3.932,18.524-5.87c0.822-0.258,1.431-0.44,1.427-1.558
		c-0.038-13.732-0.024-27.463-0.027-41.195c0-0.109-0.06-0.218-0.167-0.585c-10.038-0.757-20.168-1.521-30.458-2.297
		C701.921,526.443,701.921,544.61,701.921,562.957z M734.376,382.593c5.589,0,11.18,0,16.981,0c0-17.931,0-35.965,0-54.021
		c-5.604,0-11.198,0-16.981,0C734.376,346.684,734.376,364.529,734.376,382.593z M751.51,322.244c0-17.257,0-34.315,0-51.615
		c-5.656,0.207-11.285,0.413-17.03,0.623c0,17.11,0,34.003,0,50.991C740.198,322.244,745.788,322.244,751.51,322.244z
		 M751.255,440.063c0-16.901,0-33.691,0-50.772c-5.52,0-11.107,0-16.839,0c0,16.475,0,33.145,0,50.062
		C740.025,439.589,745.561,439.822,751.255,440.063z M734.368,450.117c0,15.391,0,30.612,0,46.069
		c5.536,0.385,11.106,0.772,16.82,1.169c0-15.533,0-30.868,0-46.475C745.577,450.627,740.035,450.375,734.368,450.117z
		 M751.109,554.252c0-14.193,0-28.253,0-42.5c-5.52-0.421-11.053-0.843-16.741-1.276c0,14.001,0,27.937,0,42.161
		C739.904,553.172,745.426,553.704,751.109,554.252z M694.69,265.995c21.735-0.887,43.368-1.771,65.148-2.659
		c0-2.512,0-4.962,0-7.677c-21.689,0.981-43.365,1.962-65.148,2.948C694.69,261.156,694.69,263.456,694.69,265.995z
		 M695.016,570.392c21.24,2.262,42.468,4.521,64.021,6.816c0-2.221,0.04-4.382-0.056-6.539c-0.011-0.243-0.765-0.608-1.202-0.654
		c-7.023-0.745-14.051-1.442-21.076-2.16c-11.925-1.218-23.85-2.445-35.773-3.666c-1.899-0.194-3.798-0.377-5.912-0.586
		C695.016,565.937,695.016,568.062,695.016,570.392z M751.114,556.71c-0.007-0.327-0.703-0.877-1.121-0.921
		c-5.698-0.595-11.404-1.126-17.11-1.648c-0.384-0.035-0.799,0.083-1.177,0.203c-9.205,2.917-18.408,5.844-27.609,8.774
		c-0.211,0.067-0.403,0.192-0.993,0.478c16.161,1.656,31.936,3.274,48.06,4.925C751.164,564.454,751.192,560.581,751.114,556.71z
		 M751.191,499.012c-5.077-0.362-10.105-0.533-15.081-1.137c-3.92-0.476-7.532,0.559-11.224,1.394
		c-6.364,1.439-12.728,2.88-19.094,4.702c15.075,1.116,30.151,2.232,45.4,3.361C751.191,504.442,751.191,501.803,751.191,499.012z
		 M789.782,261.386c-0.015-0.34-0.562-0.886-0.93-0.948c-9.297-1.583-18.602-3.114-28.016-4.672c0,2.495,0,4.855,0,7.431
		c9.575,1.458,19.165,2.919,28.989,4.415C789.826,265.415,789.87,263.397,789.782,261.386z M775.704,564.343
		c-4.846,1.739-9.683,3.501-14.545,5.193c-0.918,0.319-1.28,0.749-1.24,1.733c0.074,1.843,0.021,3.692,0.021,5.714
		c0.671-0.204,1.164-0.325,1.638-0.501c8.564-3.194,17.117-6.415,25.696-9.565c1.101-0.404,1.576-0.906,1.5-2.106
		c-0.102-1.602-0.025-3.215-0.025-5.152C784.177,561.301,779.94,562.823,775.704,564.343z M751.234,441.71
		c-3.486-0.161-6.905-0.131-10.279-0.51c-9.864-1.108-19.446,1.097-29.118,2.266c-1.368,0.165-2.73,0.39-4.089,0.827
		c14.448,0.647,28.897,1.294,43.484,1.947C751.234,444.573,751.234,443.209,751.234,441.71z M751.57,264.488
		c-14.746,0.604-29.406,1.204-44.424,1.819c14.883,2.697,29.46,4.502,44.424,2.343C751.57,267.399,751.57,266.034,751.57,264.488z
		 M703.349,447.09c15.564,0.679,31.126,1.404,46.688,2.113c0.342,0.015,0.685,0.002,1.197,0.002
		c0.034-0.662,0.064-1.263,0.108-2.137c-16.418-0.736-32.745-1.468-49.15-2.203C702.043,446.097,701.702,447.018,703.349,447.09z
		 M751.308,385.64c-16.417-0.268-32.738-0.534-49.186-0.802c0,0.656,0,1.193,0,1.945c16.408,0.285,32.774,0.571,49.186,0.856
		C751.308,386.894,751.308,386.342,751.308,385.64z M751.186,508.15c-16.273-1.204-32.535-2.408-48.857-3.615
		c-0.368,1.207-0.358,1.937,1.141,2.046c15.551,1.138,31.1,2.314,46.649,3.476c0.285,0.021,0.574,0.003,1.068,0.003
		C751.186,509.402,751.186,508.898,751.186,508.15z M702.037,326.254c16.471-0.195,32.858-0.389,49.389-0.585
		c0.056-0.536,0.107-1.019,0.19-1.815c-16.576,0.204-33.003,0.406-49.579,0.61C702.037,325.197,702.037,325.638,702.037,326.254z
		 M750.236,384.798c0.372,0.005,0.748-0.298,1.122-0.458c-0.323-0.218-0.647-0.628-0.97-0.626
		c-9.779,0.059-19.556,0.159-29.335,0.259c-0.104,0.001-0.205,0.088-0.786,0.354C730.562,384.495,740.399,384.662,750.236,384.798z
		 M751.223,326.585c-11.294-0.017-22.587-0.016-33.882,0.15c11.378,1.186,22.764,1.186,34.616,0.726
		C751.436,326.827,751.329,326.585,751.223,326.585z"/>
	<path fill="#FFFFFF" d="M760.061,569.058c2.411-0.855,4.58-1.616,6.744-2.392c6.592-2.365,13.161-4.794,19.785-7.061
		c1.519-0.52,1.994-1.168,1.999-2.787c0.223-79.784,0.498-159.568,0.771-239.351c0.054-15.597,0.131-31.194,0.197-46.791
		c0.003-0.69,0-1.382,0-2.274c-9.598-1.462-19.127-2.913-28.847-4.394C760.494,365.681,760.278,467.192,760.061,569.058z"/>
	<path fill="#FFFFFF" d="M753.14,568.703c1.78,0.186,3.836,0.401,6.115,0.638c0.209-101.778,0.417-203.395,0.626-305.211
		c-2.23,0.111-4.286,0.215-6.741,0.337C753.14,365.864,753.14,467.182,753.14,568.703z"/>
	<path fill="#FFFFFF" d="M700.825,266.528c-2.091,0.115-3.881,0.214-5.945,0.328c0,0.652-0.001,1.261,0,1.87
		c0.102,97.364,0.208,194.728,0.268,292.092c0.001,1.681,0.494,2.264,2.132,2.208c1.139-0.039,2.288,0.203,3.546,0.331
		C700.825,464.418,700.825,365.592,700.825,266.528z"/>
	<path fill="#FFFFFF" d="M732.687,382.635c0-18.085,0-35.98,0-54.076c-10.296-0.43-20.568-0.86-30.953-1.294
		c0,18.931,0,37.636,0,56.715C712.044,383.532,722.256,383.088,732.687,382.635z"/>
	<path fill="#FFFFFF" d="M701.729,322.619c10.316,0,20.542,0,30.93,0c0-17.411,0-34.574,0-51.853
		c-10.27-1.383-20.525-2.765-30.93-4.167C701.729,285.354,701.729,304.014,701.729,322.619z"/>
	<path fill="#FFFFFF" d="M701.794,444.019c10.373-1.42,20.506-2.808,30.766-4.213c0-16.951,0-33.785,0-50.857
		c-10.228-0.184-20.44-0.367-30.766-0.552C701.794,406.964,701.794,425.36,701.794,444.019z"/>
	<path fill="#FFFFFF" d="M732.474,450.018c-10.175-0.471-20.283-0.938-30.554-1.412c0,18.292,0,36.501,0,54.99
		c1.242-0.271,2.397-0.514,3.547-0.775c8.575-1.947,17.144-3.923,25.73-5.82c1.069-0.236,1.408-0.635,1.407-1.707
		c-0.014-14.66,0.012-29.321,0.019-43.981C732.623,450.926,732.536,450.538,732.474,450.018z"/>
	<path fill="#FFFFFF" d="M701.921,508.045c0,18.399,0,36.565,0,54.911c3.663-1.166,7.182-2.288,10.701-3.407
		c6.173-1.962,12.343-3.932,18.524-5.87c0.822-0.258,1.431-0.44,1.427-1.558c-0.038-13.732-0.024-27.463-0.027-41.195
		c0-0.109-0.06-0.218-0.167-0.585C722.341,509.585,712.212,508.821,701.921,508.045z"/>
	<path fill="#FFFFFF" d="M734.376,328.571c0,18.114,0,35.959,0,54.021c5.589,0,11.18,0,16.981,0c0-17.931,0-35.965,0-54.021
		C745.752,328.571,740.158,328.571,734.376,328.571z"/>
	<path fill="#FFFFFF" d="M734.479,322.244c5.719,0,11.308,0,17.03,0c0-17.257,0-34.315,0-51.615
		c-5.656,0.207-11.285,0.413-17.03,0.623C734.479,288.363,734.479,305.255,734.479,322.244z"/>
	<path fill="#FFFFFF" d="M734.415,439.352c5.61,0.237,11.146,0.47,16.838,0.71c0-16.901,0-33.691,0-50.772
		c-5.52,0-11.107,0-16.838,0C734.415,405.765,734.415,422.435,734.415,439.352z"/>
	<path fill="#FFFFFF" d="M751.188,450.881c-5.611-0.255-11.152-0.506-16.82-0.764c0,15.391,0,30.612,0,46.069
		c5.536,0.385,11.106,0.772,16.82,1.169C751.188,481.823,751.188,466.488,751.188,450.881z"/>
	<path fill="#FFFFFF" d="M734.368,552.638c5.536,0.534,11.058,1.067,16.741,1.614c0-14.193,0-28.253,0-42.5
		c-5.52-0.421-11.053-0.843-16.741-1.276C734.368,524.476,734.368,538.413,734.368,552.638z"/>
	<path fill="#FFFFFF" d="M694.69,258.606c0,2.549,0,4.849,0,7.389c21.735-0.887,43.368-1.771,65.148-2.659c0-2.512,0-4.962,0-7.677
		C738.149,256.64,716.474,257.621,694.69,258.606z"/>
	<path fill="#FFFFFF" d="M695.016,563.603c0,2.334,0,4.458,0,6.789c21.24,2.262,42.468,4.521,64.021,6.816
		c0-2.221,0.04-4.382-0.056-6.539c-0.011-0.243-0.765-0.608-1.202-0.654c-7.023-0.745-14.051-1.442-21.076-2.161
		c-11.925-1.218-23.85-2.445-35.773-3.666C699.03,563.995,697.13,563.812,695.016,563.603z"/>
	<path fill="#FFFFFF" d="M751.164,568.523c0-4.068,0.028-7.941-0.051-11.812c-0.007-0.327-0.703-0.877-1.121-0.921
		c-5.698-0.595-11.404-1.126-17.11-1.648c-0.384-0.035-0.799,0.083-1.177,0.203c-9.205,2.917-18.408,5.844-27.609,8.774
		c-0.211,0.067-0.403,0.192-0.993,0.478C719.266,565.254,735.041,566.87,751.164,568.523z"/>
	<path fill="#FFFFFF" d="M751.191,507.333c0-2.891,0-5.53,0-8.321c-5.077-0.362-10.105-0.533-15.081-1.137
		c-3.92-0.476-7.532,0.559-11.224,1.394c-6.364,1.439-12.728,2.88-19.094,4.702C720.866,505.089,735.942,506.204,751.191,507.333z"
		/>
	<path fill="#FFFFFF" d="M789.826,267.612c0-2.197,0.045-4.215-0.044-6.226c-0.015-0.34-0.562-0.886-0.93-0.948
		c-9.297-1.583-18.602-3.114-28.016-4.672c0,2.495,0,4.855,0,7.431C770.412,264.655,780.001,266.116,789.826,267.612z"/>
	<path fill="#FFFFFF" d="M788.748,559.659c-4.571,1.642-8.808,3.163-13.045,4.684c-4.846,1.739-9.683,3.501-14.545,5.193
		c-0.918,0.319-1.28,0.749-1.24,1.733c0.074,1.843,0.021,3.692,0.021,5.714c0.671-0.204,1.164-0.325,1.638-0.501
		c8.564-3.194,17.117-6.415,25.696-9.565c1.101-0.404,1.576-0.906,1.5-2.106C788.672,563.209,788.748,561.595,788.748,559.659z"/>
	<path fill="#FFFFFF" d="M751.234,446.24c0-1.667,0-3.031,0-4.531c-3.486-0.161-6.905-0.131-10.279-0.51
		c-9.864-1.108-19.446,1.097-29.118,2.266c-1.368,0.165-2.73,0.39-4.089,0.827C722.198,444.94,736.646,445.587,751.234,446.24z"/>
	<path fill="#FFFFFF" d="M751.57,268.651c0-1.251,0-2.617,0-4.162c-14.746,0.604-29.406,1.204-44.424,1.819
		C722.031,269.005,736.606,270.809,751.57,268.651z"/>
	<path fill="#FFFFFF" d="M702.192,444.865c-0.149,1.231-0.49,2.152,1.157,2.224c15.564,0.679,31.126,1.404,46.688,2.113
		c0.342,0.015,0.685,0.002,1.197,0.002c0.034-0.662,0.064-1.263,0.108-2.137C734.925,446.332,718.597,445.6,702.192,444.865z"/>
	<path fill="#FFFFFF" d="M751.308,387.639c0-0.745,0-1.297,0-2c-16.417-0.268-32.738-0.534-49.186-0.802c0,0.656,0,1.193,0,1.945
		C718.531,387.068,734.897,387.353,751.308,387.639z"/>
	<path fill="#FFFFFF" d="M751.186,510.059c0-0.658,0-1.16,0-1.909c-16.273-1.204-32.535-2.408-48.857-3.615
		c-0.368,1.207-0.358,1.937,1.141,2.046c15.551,1.138,31.1,2.314,46.649,3.476C750.405,510.077,750.693,510.059,751.186,510.059z"/>
	<path fill="#FFFFFF" d="M702.037,324.463c0,0.733,0,1.174,0,1.791c16.471-0.195,32.858-0.389,49.389-0.585
		c0.056-0.536,0.107-1.019,0.19-1.815C735.041,324.057,718.614,324.259,702.037,324.463z"/>
	<path fill="#FFFFFF" d="M720.267,384.326c10.296,0.169,20.132,0.336,29.969,0.471c0.372,0.005,0.748-0.298,1.122-0.458
		c-0.323-0.218-0.647-0.628-0.97-0.626c-9.779,0.059-19.556,0.159-29.335,0.259C720.95,383.973,720.849,384.06,720.267,384.326z"/>
	<path fill="#FFFFFF" d="M751.958,327.461c-0.523-0.635-0.629-0.876-0.735-0.876c-11.294-0.017-22.587-0.016-33.882,0.15
		C728.72,327.921,740.106,327.92,751.958,327.461z"/>
</g>
<g>
	<path d="M729.836,559.51c0.046,6.318-0.056,12.638,0.042,18.954c0.024,1.542-0.471,1.984-1.904,2.118
		c-8.709,0.821-17.412,1.709-26.115,2.586c-12.161,1.225-24.322,2.464-36.484,3.69c-10.894,1.098-21.789,2.18-32.683,3.279
		c-12.104,1.221-24.207,2.457-36.311,3.678c-10.893,1.099-21.789,2.181-32.683,3.279c-12.104,1.221-24.207,2.456-36.311,3.678
		c-10.836,1.095-21.673,2.176-32.509,3.27c-12.161,1.227-24.323,2.461-36.484,3.689c-8.473,0.855-16.955,1.629-25.412,2.616
		c-1.872,0.218-3.252-0.214-4.766-1.186c-9.016-5.79-18.094-11.484-27.126-17.248c-0.522-0.333-1.029-0.593-1.556-0.76
		c0,0,0.053-48.917,0.007-71.759c-0.003-1.625,0.301-2.285,2.125-2.432c17.73-1.425,35.452-2.952,53.174-4.479
		c18.128-1.562,36.253-3.17,54.38-4.734c16.801-1.45,33.605-2.855,50.404-4.304c16.801-1.449,33.597-2.94,50.397-4.39
		c15.473-1.335,30.948-2.627,46.421-3.961c12.528-1.079,25.052-2.195,37.579-3.274c0.493-0.042,1.029,0.046,1.5,0.205
		c10.914,3.673,21.814,7.39,32.742,11.021c1.323,0.44,1.772,0.993,1.762,2.43c-0.1,16.639-0.119,33.278-0.155,49.917
		C729.871,555.902,729.836,559.51,729.836,559.51z M411.77,517.822c-0.031,0.103-0.062,0.206-0.094,0.309
		c0.532,0.276,1.061,0.56,1.598,0.826c8.038,3.988,16.058,8.013,24.138,11.914c1.115,0.538,2.555,0.73,3.802,0.617
		c11.484-1.036,22.957-2.181,34.435-3.283c11.42-1.096,22.843-2.172,34.262-3.27c12.688-1.22,25.375-2.464,38.064-3.682
		c12.631-1.213,25.265-2.399,37.896-3.614c13.842-1.332,27.681-2.693,41.523-4.024c12.688-1.219,25.381-2.406,38.07-3.62
		c14.189-1.357,28.377-2.726,42.564-4.096c3.203-0.309,6.404-0.642,10.081-1.013c-0.716-0.324-0.961-0.463-1.223-0.55
		c-10.003-3.296-20.005-6.592-30.014-9.868c-0.537-0.176-1.14-0.29-1.697-0.247c-4.101,0.322-8.199,0.692-12.298,1.048
		c-11.489,0.998-22.976,2.001-34.465,2.992c-11.373,0.981-22.748,1.944-34.122,2.926c-12.816,1.106-25.631,2.23-38.448,3.336
		c-11.373,0.981-22.749,1.939-34.122,2.92c-11.489,0.991-22.976,2.004-34.464,2.995c-11.373,0.981-22.748,1.943-34.122,2.921
		c-11.662,1.003-23.324,2.011-34.985,3.022C422.689,516.856,417.23,517.341,411.77,517.822z M720.868,572.837
		c-94.222,9.5-188.126,18.968-282.32,28.465c0,2.256,0,4.387,0,6.516c-0.2-0.007-0.401-0.013-0.602-0.019
		c0.239-25.009,0.478-50.018,0.719-75.208c-2.64,0.262-4.924,0.488-7.469,0.74c0,25.235,0,50.317,0,75.497
		c96.504-9.732,193.119-19.474,289.673-29.21C720.868,577.391,720.868,575.272,720.868,572.837z M430.011,608.259
		c0.081-0.356,0.126-0.466,0.127-0.575c0.13-24.455,0.249-48.91,0.413-73.365c0.007-1.03-0.477-1.394-1.248-1.779
		c-8.851-4.424-17.691-8.869-26.539-13.299c-0.422-0.211-0.891-0.328-1.455-0.53c-0.035,0.594-0.074,0.938-0.074,1.281
		c-0.003,22.949,0.004,45.897-0.027,68.846c-0.002,1.018,0.378,1.528,1.2,2.045c8.678,5.453,17.329,10.948,25.99,16.429
		C428.875,607.612,429.372,607.884,430.011,608.259z M439.344,538.876c93.866-9.014,187.567-18.013,281.287-27.013
		c0-2.142,0-4.149,0-6.256c-0.538,0-0.99-0.036-1.435,0.006c-5.192,0.493-10.382,0.997-15.573,1.497
		c-11.535,1.113-23.069,2.229-34.604,3.338c-10.209,0.982-20.419,1.952-30.627,2.933c-11.478,1.104-22.954,2.22-34.431,3.322
		c-11.42,1.096-22.842,2.176-34.262,3.272c-11.593,1.112-23.185,2.237-34.777,3.352c-11.362,1.092-22.726,2.175-34.088,3.267
		c-11.535,1.109-23.069,2.228-34.605,3.336c-8.594,0.826-17.19,1.63-25.779,2.501c-0.397,0.04-1.034,0.612-1.056,0.967
		C439.285,535.173,439.344,536.958,439.344,538.876z M687.142,516.729c-0.078,0.297-0.132,0.404-0.132,0.512
		c-0.003,12.464,0.02,24.93-0.035,37.394c-0.006,1.22,0.642,1.567,1.5,1.976c10.242,4.882,20.477,9.778,30.717,14.663
		c0.49,0.234,1.012,0.4,1.532,0.602c0-19.506,0-38.847,0-58.373C709.42,514.588,698.307,515.656,687.142,516.729z M492.341,535.494
		c-0.624,0.035-1.416,0.054-2.204,0.129c-9.229,0.884-18.453,1.824-27.689,2.624c-1.564,0.136-1.873,0.675-1.867,2.113
		c0.053,11.827,0.056,23.655-0.006,35.482c-0.008,1.383,0.498,2.034,1.654,2.66c9.421,5.1,18.805,10.267,28.204,15.409
		c0.489,0.268,1.002,0.492,1.908,0.933C492.341,574.899,492.341,555.278,492.341,535.494z M664.97,577.148
		c0-19.625,0-38.972,0-58.301c-10.424,1.009-20.779,2.011-31.241,3.023c0,0.594,0,1.048,0,1.503c0,11.939,0.019,23.878-0.029,35.817
		c-0.005,1.207,0.372,1.829,1.438,2.383c9.398,4.886,18.764,9.833,28.141,14.758C663.778,576.592,664.295,576.822,664.97,577.148z
		 M548.47,588.868c0-19.711,0-39.204,0-58.818c-10.222,0.982-20.355,1.955-30.521,2.932c-0.045,0.418-0.101,0.7-0.102,0.982
		c-0.005,12.352,0.015,24.704-0.038,37.056c-0.005,1.112,0.546,1.497,1.341,1.931c9.257,5.043,18.505,10.104,27.756,15.155
		C547.347,588.344,547.807,588.545,548.47,588.868z M576.542,527.355c0,12.852-0.018,25.533,0.056,38.213
		c0.003,0.586,0.709,1.393,1.297,1.718c8.962,4.96,17.958,9.859,26.951,14.766c0.391,0.213,0.812,0.37,1.262,0.572
		c0-19.428,0-38.737,0-58.112C596.153,525.468,586.374,526.41,576.542,527.355z M553.371,529.567c0,12.915,0,25.747,0,38.696
		c7.237-0.713,14.314-1.41,21.457-2.114c0-12.922,0-25.709,0-38.627C567.66,528.206,560.583,528.88,553.371,529.567z
		 M631.969,522.031c-7.051,0.679-13.988,1.346-20.844,2.006c0,12.953,0,25.717,0,38.556c7.08-0.704,13.966-1.388,20.844-2.073
		C631.969,547.593,631.969,534.878,631.969,522.031z M458.919,577.543c0-13.023,0-25.905,0-38.91
		c-6.252,0.605-12.39,1.197-18.767,1.814c0,13.018,0,25.901,0,38.948C446.356,578.783,452.604,578.167,458.919,577.543z
		 M516.098,533.162c-6.313,0.607-12.464,1.198-18.868,1.814c0,12.999,0,25.869,0,38.812c6.288-0.624,12.549-1.244,18.868-1.871
		C516.098,558.961,516.098,546.173,516.098,533.162z M605.307,583.672c0.008-0.144,0.016-0.288,0.024-0.433
		c-9.444-5.156-18.888-10.316-28.341-15.455c-0.322-0.175-0.766-0.234-1.138-0.196c-4.145,0.422-8.287,0.881-12.431,1.314
		c-3.377,0.354-6.756,0.686-10.206,1.036c0,6.412,0,12.588,0,18.98C570.668,587.161,587.987,585.416,605.307,583.672z
		 M663.462,577.805c0.027-0.126,0.054-0.253,0.081-0.379c-0.53-0.29-1.056-0.588-1.591-0.869
		c-8.505-4.476-17.019-8.937-25.513-13.435c-1.532-0.812-2.922-1.243-4.82-0.984c-6.253,0.85-12.558,1.338-18.85,1.88
		c-1.285,0.111-1.788,0.443-1.762,1.843c0.095,5.217,0.049,10.435,0.065,15.653c0.002,0.501,0.066,1.002,0.106,1.565
		C628.706,581.311,646.084,579.558,663.462,577.805z M490.644,595.233c-0.322-0.338-0.412-0.492-0.546-0.566
		c-9.487-5.207-18.976-10.409-28.474-15.596c-0.322-0.176-0.75-0.291-1.107-0.25c-2.231,0.259-4.452,0.618-6.685,0.855
		c-4.596,0.487-9.198,0.919-13.983,1.393c0,6.449,0,12.779,0,19.281C456.746,598.648,473.556,596.955,490.644,595.233z
		 M547.394,589.507c-0.415-0.352-0.49-0.44-0.585-0.493c-9.39-5.151-18.781-10.303-28.183-15.433
		c-0.36-0.196-0.846-0.289-1.255-0.248c-3.572,0.359-7.137,0.767-10.707,1.143c-3.205,0.338-6.413,0.653-9.774,0.995
		c0,6.478,0,12.766,0,19.13C513.627,592.914,530.329,591.229,547.394,589.507z M718.944,572.215
		c-0.598-0.377-0.807-0.541-1.043-0.654c-10.072-4.819-20.147-9.635-30.225-14.441c-0.354-0.169-0.772-0.359-1.14-0.324
		c-5.581,0.539-11.159,1.113-16.775,1.683c0,6.287,0,12.446,0,18.691C686.078,575.526,702.262,573.896,718.944,572.215z
		 M669.758,518.39c0,12.81,0,25.532,0,38.427c5.242-0.517,10.358-1.02,15.526-1.53c0-12.801,0-25.501,0-38.367
		C680.017,517.419,674.902,517.902,669.758,518.39z M728.196,504.794c-1.614,0.146-3.16,0.4-4.704,0.392
		c-1.558-0.008-2.037,0.516-2.028,2.124c0.134,23.542,0.196,47.084,0.28,70.627c0.002,0.488,0.063,0.976,0.104,1.566
		c2.189-0.21,4.195-0.402,6.348-0.61C728.196,554.234,728.196,529.673,728.196,504.794z M665.952,517.773
		c0,20.029,0,39.858,0,59.821c0.802-0.126,1.417-0.223,2.048-0.322c0-19.903,0-39.7,0-59.658
		C667.265,517.671,666.644,517.719,665.952,517.773z M607.189,523.369c0,20.133,0,40.08,0,60.158c0.88-0.136,1.494-0.232,2.062-0.32
		c0-20.028,0-39.935,0-59.945C608.469,523.303,607.839,523.336,607.189,523.369z M495.123,594.727
		c0.186-20.261,0.371-40.399,0.557-60.666c-0.898,0.136-1.505,0.228-2.376,0.36c0,20.221,0,40.314,0,60.543
		C493.855,594.891,494.459,594.813,495.123,594.727z M549.489,528.952c0,20.176,0,40.178,0,60.308
		c0.753-0.087,1.36-0.157,2.07-0.238c0-20.113,0-40.124,0-60.217C550.865,528.855,550.298,528.895,549.489,528.952z
		 M437.138,531.749c-0.848-0.45-1.397-0.757-1.959-1.036c-7.676-3.806-15.411-7.498-23.003-11.465
		c-2.858-1.494-5.574-1.218-8.795-0.676c0.796,0.428,1.287,0.707,1.791,0.96c7.345,3.69,14.782,7.214,21.999,11.141
		C430.374,532.416,433.442,532.596,437.138,531.749z M689.033,494.241c0.509,0.189,1.012,0.395,1.527,0.565
		c9.272,3.055,18.564,6.05,27.806,9.191c2.453,0.834,4.751,0.443,7.586,0.051c-0.817-0.3-1.187-0.445-1.563-0.572
		c-9.304-3.14-18.634-6.207-27.898-9.462C693.917,493.11,691.551,493.91,689.033,494.241z"/>
	<path fill="#FFFFFF" d="M411.77,517.822c5.46-0.48,10.919-0.966,16.38-1.439c11.661-1.011,23.323-2.02,34.985-3.022
		c11.373-0.978,22.749-1.94,34.122-2.921c11.489-0.991,22.976-2.004,34.464-2.995c11.373-0.981,22.749-1.939,34.122-2.92
		c12.816-1.105,25.632-2.23,38.448-3.336c11.373-0.982,22.748-1.944,34.122-2.926c11.489-0.991,22.976-1.995,34.465-2.992
		c4.099-0.356,8.197-0.726,12.298-1.048c0.557-0.044,1.159,0.071,1.697,0.247c10.009,3.276,20.012,6.572,30.014,9.868
		c0.263,0.087,0.507,0.226,1.223,0.55c-3.678,0.37-6.878,0.704-10.081,1.013c-14.188,1.37-28.375,2.739-42.564,4.096
		c-12.689,1.214-25.381,2.4-38.07,3.62c-13.842,1.329-27.681,2.692-41.523,4.024c-12.631,1.215-25.265,2.401-37.896,3.614
		c-12.688,1.218-25.375,2.462-38.064,3.682c-11.42,1.098-22.842,2.174-34.262,3.27c-11.478,1.102-22.951,2.246-34.435,3.283
		c-1.248,0.113-2.688-0.079-3.802-0.617c-8.08-3.901-16.1-7.925-24.138-11.914c-0.537-0.266-1.066-0.551-1.598-0.826
		C411.707,518.027,411.738,517.924,411.77,517.822z"/>
	<path fill="#FFFFFF" d="M720.868,572.837c0,2.435,0,4.553,0,6.78c-96.553,9.736-193.168,19.479-289.673,29.21
		c0-25.18,0-50.261,0-75.497c2.545-0.253,4.83-0.478,7.469-0.74c-0.241,25.189-0.48,50.199-0.719,75.208
		c0.2,0.007,0.401,0.013,0.602,0.019c0-2.129,0-4.26,0-6.516C532.742,591.805,626.646,582.337,720.868,572.837z"/>
	<path fill="#FFFFFF" d="M430.011,608.259c-0.64-0.375-1.136-0.647-1.613-0.949c-8.66-5.48-17.312-10.977-25.99-16.429
		c-0.823-0.517-1.201-1.027-1.2-2.045c0.031-22.949,0.024-45.897,0.027-68.846c0-0.344,0.039-0.686,0.074-1.281
		c0.564,0.203,1.033,0.32,1.455,0.53c8.848,4.43,17.688,8.875,26.539,13.299c0.77,0.385,1.255,0.749,1.248,1.779
		c-0.163,24.455-0.282,48.91-0.413,73.365C430.137,607.793,430.092,607.903,430.011,608.259z"/>
	<path fill="#FFFFFF" d="M439.344,538.876c0-1.918-0.059-3.703,0.05-5.478c0.022-0.355,0.658-0.927,1.056-0.967
		c8.589-0.87,17.185-1.675,25.778-2.501c11.535-1.109,23.069-2.227,34.605-3.336c11.362-1.092,22.726-2.175,34.088-3.267
		c11.593-1.115,23.184-2.24,34.777-3.352c11.42-1.095,22.842-2.176,34.262-3.272c11.478-1.101,22.954-2.218,34.431-3.322
		c10.209-0.982,20.419-1.952,30.627-2.933c11.535-1.109,23.07-2.224,34.604-3.338c5.191-0.501,10.381-1.005,15.573-1.497
		c0.445-0.042,0.898-0.006,1.435-0.006c0,2.107,0,4.114,0,6.256C626.911,520.863,533.21,529.862,439.344,538.876z"/>
	<path fill="#FFFFFF" d="M687.142,516.729c11.164-1.073,22.278-2.14,33.581-3.226c0,19.526,0,38.868,0,58.374
		c-0.519-0.202-1.042-0.369-1.532-0.602c-10.24-4.885-20.475-9.78-30.717-14.663c-0.859-0.409-1.505-0.756-1.5-1.976
		c0.056-12.464,0.033-24.93,0.035-37.394C687.01,517.134,687.063,517.026,687.142,516.729z"/>
	<path fill="#FFFFFF" d="M492.341,535.494c0,19.785,0,39.406,0,59.349c-0.906-0.441-1.419-0.665-1.908-0.933
		c-9.398-5.142-18.783-10.309-28.204-15.409c-1.155-0.626-1.66-1.276-1.654-2.66c0.062-11.827,0.059-23.655,0.006-35.482
		c-0.007-1.438,0.302-1.978,1.867-2.113c9.236-0.8,18.46-1.739,27.689-2.624C490.924,535.547,491.717,535.529,492.341,535.494z"/>
	<path fill="#FFFFFF" d="M664.97,577.148c-0.676-0.326-1.191-0.557-1.691-0.818c-9.377-4.925-18.743-9.872-28.141-14.758
		c-1.067-0.554-1.443-1.177-1.438-2.383c0.048-11.939,0.029-23.878,0.029-35.817c0-0.454,0-0.909,0-1.503
		c10.462-1.012,20.817-2.014,31.241-3.023C664.97,538.176,664.97,557.524,664.97,577.148z"/>
	<path fill="#FFFFFF" d="M548.47,588.868c-0.663-0.323-1.123-0.525-1.563-0.765c-9.252-5.052-18.5-10.112-27.756-15.155
		c-0.796-0.434-1.346-0.818-1.341-1.931c0.052-12.352,0.033-24.703,0.038-37.056c0-0.281,0.056-0.563,0.102-0.982
		c10.166-0.977,20.299-1.95,30.521-2.932C548.47,549.665,548.47,569.157,548.47,588.868z"/>
	<path fill="#FFFFFF" d="M576.542,527.355c9.832-0.945,19.611-1.887,29.566-2.844c0,19.375,0,38.683,0,58.112
		c-0.45-0.202-0.871-0.359-1.262-0.572c-8.991-4.907-17.988-9.805-26.951-14.766c-0.588-0.325-1.293-1.132-1.297-1.718
		C576.524,552.888,576.542,540.207,576.542,527.355z"/>
	<path fill="#FFFFFF" d="M553.371,529.567c7.211-0.687,14.288-1.361,21.457-2.045c0,12.918,0,25.705,0,38.627
		c-7.142,0.704-14.22,1.401-21.457,2.114C553.371,555.314,553.371,542.482,553.371,529.567z"/>
	<path fill="#FFFFFF" d="M631.969,522.031c0,12.847,0,25.561,0,38.49c-6.877,0.684-13.764,1.369-20.844,2.073
		c0-12.839,0-25.603,0-38.556C617.981,523.379,624.918,522.711,631.969,522.031z"/>
	<path fill="#FFFFFF" d="M458.919,577.543c-6.315,0.623-12.563,1.24-18.767,1.852c0-13.047,0-25.93,0-38.948
		c6.376-0.616,12.515-1.21,18.767-1.814C458.919,551.638,458.919,564.521,458.919,577.543z"/>
	<path fill="#FFFFFF" d="M516.098,533.162c0,13.011,0,25.799,0,38.755c-6.319,0.626-12.58,1.247-18.868,1.871
		c0-12.943,0-25.813,0-38.812C503.633,534.359,509.785,533.768,516.098,533.162z"/>
	<path fill="#FFFFFF" d="M605.307,583.672c-17.319,1.745-34.639,3.489-52.092,5.247c0-6.392,0-12.569,0-18.98
		c3.45-0.349,6.829-0.682,10.206-1.036c4.144-0.434,8.285-0.893,12.431-1.314c0.371-0.038,0.815,0.021,1.137,0.196
		c9.454,5.139,18.897,10.299,28.341,15.455C605.323,583.384,605.315,583.528,605.307,583.672z"/>
	<path fill="#FFFFFF" d="M663.462,577.805c-17.377,1.753-34.755,3.506-52.284,5.274c-0.04-0.563-0.104-1.064-0.106-1.565
		c-0.016-5.218,0.03-10.437-0.065-15.653c-0.025-1.4,0.477-1.732,1.762-1.843c6.292-0.542,12.597-1.03,18.85-1.88
		c1.899-0.258,3.288,0.173,4.82,0.984c8.494,4.499,17.007,8.959,25.513,13.435c0.535,0.281,1.06,0.578,1.591,0.869
		C663.515,577.552,663.488,577.679,663.462,577.805z"/>
	<path fill="#FFFFFF" d="M490.644,595.233c-17.088,1.722-33.898,3.415-50.797,5.117c0-6.503,0-12.832,0-19.281
		c4.786-0.473,9.388-0.905,13.983-1.393c2.234-0.237,4.454-0.596,6.685-0.855c0.357-0.041,0.785,0.073,1.107,0.25
		c9.498,5.186,18.987,10.39,28.474,15.596C490.232,594.741,490.322,594.895,490.644,595.233z"/>
	<path fill="#FFFFFF" d="M547.394,589.507c-17.065,1.722-33.767,3.407-50.504,5.096c0-6.364,0-12.652,0-19.13
		c3.361-0.341,6.569-0.657,9.774-0.995c3.57-0.376,7.136-0.785,10.707-1.143c0.409-0.041,0.895,0.051,1.255,0.248
		c9.402,5.13,18.792,10.282,28.183,15.433C546.904,589.067,546.979,589.155,547.394,589.507z"/>
	<path fill="#FFFFFF" d="M718.944,572.215c-16.682,1.681-32.866,3.311-49.183,4.954c0-6.245,0-12.404,0-18.691
		c5.617-0.57,11.194-1.145,16.775-1.683c0.367-0.035,0.786,0.155,1.14,0.324c10.079,4.806,20.152,9.623,30.225,14.441
		C718.137,571.674,718.346,571.838,718.944,572.215z"/>
	<path fill="#FFFFFF" d="M669.758,518.39c5.144-0.487,10.258-0.971,15.526-1.469c0,12.865,0,25.565,0,38.367
		c-5.168,0.509-10.284,1.014-15.526,1.53C669.758,543.922,669.758,531.2,669.758,518.39z"/>
	<path fill="#FFFFFF" d="M728.196,504.794c0,24.878,0,49.44,0,74.101c-2.154,0.207-4.16,0.399-6.348,0.61
		c-0.04-0.59-0.101-1.079-0.104-1.566c-0.084-23.542-0.146-47.085-0.28-70.627c-0.009-1.609,0.469-2.132,2.028-2.124
		C725.036,505.195,726.582,504.939,728.196,504.794z"/>
	<path fill="#FFFFFF" d="M665.952,517.773c0.691-0.054,1.313-0.102,2.048-0.159c0,19.957,0,39.754,0,59.658
		c-0.631,0.099-1.245,0.196-2.048,0.322C665.952,557.631,665.952,537.802,665.952,517.773z"/>
	<path fill="#FFFFFF" d="M607.189,523.369c0.651-0.034,1.28-0.067,2.062-0.107c0,20.01,0,39.918,0,59.945
		c-0.568,0.088-1.182,0.184-2.062,0.32C607.189,563.449,607.189,543.502,607.189,523.369z"/>
	<path fill="#FFFFFF" d="M495.123,594.727c-0.664,0.087-1.268,0.165-1.819,0.237c0-20.229,0-40.321,0-60.543
		c0.871-0.132,1.478-0.224,2.376-0.36C495.494,554.328,495.309,574.466,495.123,594.727z"/>
	<path fill="#FFFFFF" d="M549.489,528.952c0.809-0.058,1.377-0.099,2.07-0.147c0,20.094,0,40.105,0,60.217
		c-0.71,0.082-1.317,0.152-2.07,0.238C549.489,569.131,549.489,549.128,549.489,528.952z"/>
	<path fill="#FFFFFF" d="M437.138,531.749c-3.696,0.847-6.764,0.667-9.968-1.076c-7.216-3.927-14.654-7.451-21.999-11.141
		c-0.503-0.253-0.994-0.532-1.791-0.96c3.221-0.542,5.937-0.817,8.795,0.676c7.592,3.966,15.327,7.659,23.003,11.465
		C435.742,530.992,436.29,531.3,437.138,531.749z"/>
	<path fill="#FFFFFF" d="M689.033,494.241c2.518-0.332,4.883-1.132,7.458-0.227c9.263,3.255,18.593,6.322,27.898,9.462
		c0.376,0.127,0.747,0.273,1.563,0.572c-2.834,0.392-5.133,0.782-7.586-0.051c-9.243-3.141-18.534-6.136-27.806-9.191
		C690.045,494.637,689.542,494.431,689.033,494.241z"/>
</g>
</svg>
