<?xml version="1.0" encoding="utf-8"?>
<!-- Generator: Adobe Illustrator 17.1.0, SVG Export Plug-In . SVG Version: 6.00 Build 0)  -->
<!DOCTYPE svg PUBLIC "-//W3C//DTD SVG 1.1//EN" "http://www.w3.org/Graphics/SVG/1.1/DTD/svg11.dtd">
<svg version="1.1" id="Lager_1" xmlns="http://www.w3.org/2000/svg" xmlns:xlink="http://www.w3.org/1999/xlink" x="0px" y="0px"
	 viewBox="345.5 235 500 400" enable-background="new 345.5 235 500 400" xml:space="preserve">
<g>
	<path d="M496.449,569.48c0.079,3.777,0.195,7.554,0.253,11.333c0.036,2.434,0,2.431-2.349,2.66
		c-1.217,0.119-2.433,0.253-3.649,0.384c-20.033,2.148-40.066,4.3-60.102,6.429c-0.489,0.053-1.035-0.072-1.503-0.246
		c-9.436-3.497-18.872-6.994-28.281-10.56c-1.035-0.44-1.59-2.961-1.59-2.961c0-2.848,0.008-5.638-0.001-8.427
		c-0.322-95.855-0.643-191.712-0.976-287.566c-0.011-3.32-0.102-6.641-0.236-9.957c-0.054-1.318,0.466-1.852,1.746-2.06
		c9.656-1.576,19.275-3.418,28.967-4.712c3.815-0.51,7.789,0.133,11.688,0.306c14.327,0.64,28.652,1.308,42.979,1.96
		c3.553,0.162,7.107,0.286,10.659,0.46c2.985,0.147,2.992,0.17,2.982,3.097c-0.113,33.284-0.273,66.569-0.332,99.853
		c-0.115,65.012-0.173,130.024-0.256,195.036c-0.001,0.591,0,1.183,0,1.847C496.448,566.354,496.44,568.966,496.449,569.48z
		 M429.552,580.44c-0.218-102.441-0.436-204.526-0.655-306.776c-9.775,1.489-19.358,2.948-29.01,4.418c0,0.897-0.003,1.592,0,2.287
		c0.067,15.686,0.144,31.371,0.198,47.056c0.275,80.234,0.551,160.469,0.775,240.704c0.005,1.628,0.482,2.28,2.011,2.803
		c6.662,2.28,13.268,4.723,19.897,7.101C424.944,578.814,427.126,579.58,429.552,580.44z M436.51,580.084
		c0-102.095,0-203.985,0-305.956c-2.469-0.122-4.537-0.228-6.779-0.339c0.211,102.391,0.419,204.584,0.63,306.937
		C432.653,580.486,434.719,580.27,436.51,580.084z M489.119,276.199c0,99.624,0,199.009,0,298.507
		c1.265-0.128,2.42-0.372,3.567-0.333c1.647,0.056,2.143-0.53,2.144-2.22c0.06-97.915,0.167-195.829,0.27-293.744
		c0.001-0.612,0-1.225,0-1.88C493.023,276.415,491.223,276.316,489.119,276.199z M457.078,392.963
		c10.49,0.456,20.759,0.902,31.128,1.352c0-19.187,0-37.998,0-57.035c-10.444,0.436-20.774,0.869-31.128,1.301
		C457.078,356.78,457.078,374.775,457.078,392.963z M488.21,332.608c0-18.711,0-37.475,0-56.337
		c-10.464,1.41-20.777,2.8-31.105,4.191c0,17.377,0,34.637,0,52.146C467.553,332.608,477.837,332.608,488.21,332.608z
		 M488.146,454.694c0-18.764,0-37.265,0-55.937c-10.384,0.186-20.654,0.37-30.94,0.555c0,17.168,0,34.098,0,51.145
		C467.524,451.87,477.715,453.266,488.146,454.694z M457.295,460.726c-0.062,0.522-0.151,0.913-0.151,1.303
		c0.007,14.742,0.033,29.487,0.019,44.23c-0.001,1.079,0.34,1.48,1.414,1.717c8.635,1.907,17.252,3.895,25.876,5.853
		c1.156,0.262,2.318,0.507,3.568,0.78c0-18.594,0-36.905,0-55.301C477.69,459.785,467.527,460.253,457.295,460.726z
		 M488.018,519.082c-10.348,0.781-20.535,1.549-30.63,2.31c-0.108,0.369-0.167,0.479-0.167,0.589
		c-0.003,13.809,0.011,27.618-0.028,41.428c-0.004,1.124,0.609,1.307,1.435,1.567c6.217,1.949,12.421,3.93,18.629,5.903
		c3.539,1.125,7.078,2.254,10.761,3.426C488.018,555.853,488.018,537.584,488.018,519.082z M455.38,338.594
		c-5.816,0-11.442,0-17.077,0c0,18.158,0,36.294,0,54.327c5.834,0,11.457,0,17.077,0C455.38,374.754,455.38,356.808,455.38,338.594z
		 M455.275,332.229c0-17.084,0-34.072,0-51.279c-5.777-0.211-11.438-0.418-17.126-0.627c0,17.398,0,34.553,0,51.907
		C443.904,332.23,449.525,332.23,455.275,332.229z M455.339,450.001c0-17.013,0-33.777,0-50.345c-5.764,0-11.383,0-16.935,0
		c0,17.178,0,34.062,0,51.059C444.131,450.473,449.699,450.239,455.339,450.001z M438.473,461.594c0,15.695,0,31.117,0,46.738
		c5.747-0.399,11.348-0.789,16.916-1.176c0-15.544,0-30.851,0-46.329C449.688,461.085,444.115,461.339,438.473,461.594z
		 M455.387,563.925c0-14.304,0-28.319,0-42.399c-5.721,0.435-11.285,0.86-16.836,1.283c0,14.327,0,28.467,0,42.741
		C444.267,564.999,449.821,564.464,455.387,563.925z M495.29,268.233c-21.906-0.991-43.704-1.978-65.516-2.965
		c0,2.73,0,5.195,0,7.72c21.903,0.893,43.658,1.782,65.516,2.674C495.29,273.109,495.29,270.797,495.29,268.233z M494.96,574.954
		c-2.126,0.211-4.036,0.394-5.946,0.589c-11.991,1.228-23.983,2.461-35.975,3.687c-7.064,0.723-14.133,1.423-21.195,2.172
		c-0.439,0.046-1.198,0.413-1.209,0.657c-0.097,2.169-0.056,4.343-0.056,6.575c21.675-2.308,43.023-4.58,64.383-6.855
		C494.962,579.438,494.962,577.301,494.96,574.954z M438.497,579.899c16.215-1.66,32.079-3.287,48.331-4.953
		c-0.593-0.288-0.787-0.413-0.999-0.481c-9.253-2.947-18.508-5.89-27.765-8.823c-0.38-0.121-0.797-0.239-1.184-0.205
		c-5.738,0.524-11.476,1.058-17.207,1.657c-0.42,0.044-1.121,0.597-1.127,0.926C438.469,571.914,438.497,575.809,438.497,579.899z
		 M438.469,518.365c15.336-1.136,30.496-2.258,45.657-3.38c-6.402-1.833-12.802-3.282-19.202-4.728
		c-3.713-0.839-7.345-1.88-11.288-1.402c-5.004,0.608-10.061,0.78-15.166,1.144C438.47,512.804,438.47,515.458,438.469,518.365z
		 M399.617,277.289c9.88-1.504,19.523-2.973,29.153-4.44c0-2.591,0-4.964,0-7.473c-9.467,1.567-18.825,3.106-28.175,4.699
		c-0.37,0.062-0.92,0.612-0.935,0.953C399.571,273.05,399.616,275.08,399.617,277.289z M400.7,570.987
		c0,1.948,0.078,3.57-0.025,5.181c-0.077,1.207,0.401,1.712,1.508,2.118c8.627,3.168,17.229,6.407,25.841,9.62
		c0.477,0.177,0.972,0.299,1.647,0.504c0-2.034-0.054-3.893,0.021-5.747c0.04-0.99-0.323-1.422-1.247-1.743
		c-4.889-1.702-9.754-3.474-14.627-5.222C409.558,574.17,405.297,572.639,400.7,570.987z M438.429,456.927
		c14.67-0.656,29.2-1.307,43.73-1.958c-1.367-0.439-2.736-0.666-4.112-0.832c-9.727-1.176-19.363-3.393-29.283-2.279
		c-3.392,0.381-6.832,0.351-10.337,0.513C438.427,453.879,438.427,455.251,438.429,456.927z M438.089,278.333
		c15.049,2.171,29.709,0.356,44.675-2.356c-15.103-0.618-29.846-1.222-44.675-1.829
		C438.089,275.703,438.089,277.075,438.089,278.333z M487.746,455.544c-16.497,0.74-32.917,1.476-49.428,2.215
		c0.044,0.879,0.075,1.483,0.109,2.149c0.515,0,0.86,0.013,1.204-0.002c15.65-0.713,31.3-1.442,46.951-2.125
		C488.239,457.71,487.895,456.784,487.746,455.544z M438.352,397.995c16.505-0.287,32.963-0.574,49.464-0.861
		c0-0.756,0-1.297,0-1.956c-16.54,0.27-32.955,0.537-49.464,0.807C438.352,396.691,438.352,397.246,438.352,397.995z
		 M438.474,521.108c0.497,0,0.788,0.018,1.074-0.003c15.637-1.169,31.274-2.351,46.913-3.496c1.507-0.11,1.518-0.844,1.147-2.057
		c-16.414,1.213-32.768,2.425-49.133,3.636C438.475,519.94,438.475,520.446,438.474,521.108z M487.902,334.462
		c-16.67-0.206-33.19-0.409-49.859-0.613c0.083,0.8,0.135,1.286,0.191,1.826c16.625,0.197,33.104,0.392,49.668,0.589
		C487.902,335.643,487.902,335.2,487.902,334.462z M469.569,394.664c-0.585-0.268-0.686-0.355-0.79-0.356
		c-9.834-0.1-19.666-0.201-29.501-0.26c-0.325-0.002-0.651,0.411-0.975,0.63c0.376,0.161,0.754,0.466,1.128,0.46
		C449.323,395.001,459.215,394.833,469.569,394.664z M437.699,337.477c11.919,0.462,23.37,0.462,34.812-0.73
		c-11.359-0.167-22.716-0.167-34.073-0.151C438.331,336.595,438.223,336.839,437.699,337.477z"/>
	<path fill="#FFFFFF" d="M428.896,273.665c-9.775,1.489-19.358,2.948-29.01,4.418c0,0.897-0.003,1.592,0,2.287
		c0.067,15.686,0.144,31.371,0.198,47.056c0.275,80.234,0.551,160.469,0.775,240.704c0.005,1.628,0.482,2.28,2.011,2.803
		c6.662,2.28,13.268,4.723,19.897,7.101c2.176,0.781,4.357,1.546,6.782,2.406C429.332,477.997,429.114,375.913,428.896,273.665z"/>
	<path fill="#FFFFFF" d="M436.51,274.127c-2.469-0.122-4.537-0.228-6.779-0.339c0.211,102.391,0.419,204.584,0.63,306.937
		c2.292-0.238,4.36-0.455,6.15-0.642C436.51,477.988,436.51,376.097,436.51,274.127z"/>
	<path fill="#FFFFFF" d="M489.119,574.706c1.265-0.128,2.42-0.372,3.567-0.333c1.647,0.057,2.143-0.53,2.144-2.22
		c0.06-97.915,0.167-195.829,0.27-293.744c0.001-0.612,0-1.225,0-1.88c-2.076-0.115-3.876-0.214-5.978-0.329
		C489.12,375.823,489.12,475.208,489.119,574.706z"/>
	<path fill="#FFFFFF" d="M488.206,394.315c0-19.187,0-37.998,0-57.035c-10.444,0.436-20.774,0.869-31.128,1.301
		c0,18.198,0,36.194,0,54.381C467.568,393.418,477.838,393.865,488.206,394.315z"/>
	<path fill="#FFFFFF" d="M488.211,276.271c-10.464,1.41-20.777,2.8-31.105,4.191c0,17.377,0,34.637,0,52.146
		c10.446,0,20.73,0,31.105,0C488.211,313.897,488.211,295.131,488.211,276.271z"/>
	<path fill="#FFFFFF" d="M488.146,398.757c-10.384,0.186-20.654,0.37-30.94,0.555c0,17.168,0,34.098,0,51.145
		c10.318,1.413,20.508,2.809,30.94,4.237C488.146,435.929,488.146,417.429,488.146,398.757z"/>
	<path fill="#FFFFFF" d="M457.142,462.029c0.007,14.742,0.034,29.487,0.019,44.23c-0.001,1.079,0.34,1.48,1.414,1.717
		c8.635,1.907,17.251,3.895,25.876,5.853c1.156,0.262,2.318,0.507,3.568,0.78c0-18.594,0-36.905,0-55.301
		c-10.329,0.477-20.494,0.946-30.727,1.42C457.23,461.25,457.142,461.639,457.142,462.029z"/>
	<path fill="#FFFFFF" d="M457.387,521.391c-0.108,0.369-0.167,0.478-0.167,0.589c-0.003,13.809,0.011,27.618-0.028,41.428
		c-0.004,1.124,0.609,1.307,1.435,1.567c6.217,1.948,12.421,3.93,18.629,5.903c3.539,1.125,7.078,2.254,10.761,3.426
		c0-18.45,0-36.718,0-55.222C477.669,519.862,467.483,520.631,457.387,521.391z"/>
	<path fill="#FFFFFF" d="M438.302,338.593c0,18.158,0,36.294,0,54.327c5.834,0,11.457,0,17.077,0c0-18.164,0-36.11,0-54.327
		C449.565,338.593,443.939,338.593,438.302,338.593z"/>
	<path fill="#FFFFFF" d="M455.276,280.95c-5.777-0.211-11.438-0.418-17.126-0.627c0,17.398,0,34.553,0,51.907
		c5.754,0,11.376,0,17.126,0C455.276,315.145,455.276,298.157,455.276,280.95z"/>
	<path fill="#FFFFFF" d="M455.34,399.655c-5.764,0-11.382,0-16.934,0c0,17.178,0,34.063,0,51.059
		c5.724-0.241,11.291-0.476,16.934-0.714C455.34,432.987,455.34,416.224,455.34,399.655z"/>
	<path fill="#FFFFFF" d="M438.473,508.332c5.747-0.399,11.348-0.789,16.916-1.176c0-15.544,0-30.851,0-46.329
		c-5.7,0.259-11.272,0.512-16.916,0.768C438.473,477.29,438.473,492.712,438.473,508.332z"/>
	<path fill="#FFFFFF" d="M455.387,521.526c-5.721,0.435-11.285,0.86-16.836,1.283c0,14.327,0,28.467,0,42.741
		c5.715-0.55,11.268-1.086,16.836-1.623C455.387,549.621,455.387,535.605,455.387,521.526z"/>
	<path fill="#FFFFFF" d="M429.774,265.269c0,2.73,0,5.195,0,7.72c21.903,0.893,43.658,1.782,65.516,2.674c0-2.554,0-4.867,0-7.431
		C473.383,267.242,451.585,266.255,429.774,265.269z"/>
	<path fill="#FFFFFF" d="M489.015,575.542c-11.991,1.228-23.983,2.461-35.975,3.687c-7.064,0.724-14.133,1.424-21.195,2.173
		c-0.439,0.046-1.198,0.413-1.209,0.657c-0.097,2.169-0.056,4.343-0.056,6.575c21.675-2.308,43.023-4.58,64.383-6.855
		c0-2.345,0-4.481,0-6.827C492.836,575.164,490.926,575.348,489.015,575.542z"/>
	<path fill="#FFFFFF" d="M486.83,574.948c-0.593-0.288-0.787-0.413-0.999-0.48c-9.253-2.947-18.508-5.89-27.765-8.823
		c-0.38-0.121-0.797-0.239-1.184-0.205c-5.738,0.524-11.476,1.058-17.207,1.657c-0.42,0.044-1.121,0.597-1.127,0.926
		c-0.079,3.893-0.052,7.788-0.052,11.879C454.711,578.239,470.575,576.614,486.83,574.948z"/>
	<path fill="#FFFFFF" d="M484.125,514.984c-6.402-1.833-12.802-3.282-19.202-4.728c-3.713-0.839-7.345-1.88-11.288-1.402
		c-5.004,0.608-10.061,0.78-15.166,1.144c0,2.807,0,5.461,0,8.368C453.804,517.23,468.966,516.109,484.125,514.984z"/>
	<path fill="#FFFFFF" d="M428.77,272.849c0-2.591,0-4.964,0-7.473c-9.467,1.567-18.825,3.106-28.175,4.699
		c-0.37,0.062-0.92,0.612-0.935,0.953c-0.09,2.022-0.044,4.052-0.044,6.262C409.497,275.785,419.14,274.315,428.77,272.849z"/>
	<path fill="#FFFFFF" d="M400.675,576.169c-0.077,1.207,0.401,1.712,1.508,2.118c8.627,3.168,17.229,6.407,25.841,9.62
		c0.477,0.177,0.972,0.299,1.647,0.504c0-2.034-0.054-3.893,0.021-5.747c0.04-0.99-0.323-1.422-1.247-1.743
		c-4.889-1.701-9.754-3.474-14.627-5.222c-4.26-1.529-8.522-3.06-13.119-4.71C400.701,572.935,400.776,574.557,400.675,576.169z"/>
	<path fill="#FFFFFF" d="M482.158,454.968c-1.367-0.439-2.736-0.666-4.112-0.832c-9.727-1.176-19.363-3.392-29.283-2.279
		c-3.393,0.381-6.832,0.351-10.337,0.513c0,1.509,0,2.881,0,4.556C453.097,456.271,467.626,455.62,482.158,454.968z"/>
	<path fill="#FFFFFF" d="M482.764,275.978c-15.103-0.618-29.846-1.222-44.675-1.829c0,1.553,0,2.927,0,4.186
		C453.137,280.504,467.795,278.69,482.764,275.978z"/>
	<path fill="#FFFFFF" d="M438.318,457.759c0.044,0.879,0.075,1.483,0.109,2.149c0.515,0,0.86,0.013,1.204-0.002
		c15.65-0.713,31.3-1.442,46.951-2.125c1.657-0.073,1.313-0.999,1.164-2.236C471.247,456.284,454.827,457.02,438.318,457.759z"/>
	<path fill="#FFFFFF" d="M487.816,397.133c0-0.756,0-1.297,0-1.956c-16.54,0.27-32.955,0.537-49.464,0.807c0,0.707,0,1.262,0,2.012
		C454.856,397.707,471.314,397.421,487.816,397.133z"/>
	<path fill="#FFFFFF" d="M439.547,521.105c15.637-1.169,31.274-2.351,46.913-3.496c1.507-0.11,1.518-0.844,1.147-2.057
		c-16.414,1.213-32.768,2.425-49.133,3.636c0,0.753,0,1.258,0,1.92C438.97,521.107,439.26,521.125,439.547,521.105z"/>
	<path fill="#FFFFFF" d="M438.042,333.849c0.083,0.8,0.135,1.286,0.191,1.826c16.625,0.197,33.104,0.392,49.668,0.589
		c0-0.62,0-1.064,0-1.801C471.231,334.257,454.711,334.054,438.042,333.849z"/>
	<path fill="#FFFFFF" d="M468.777,394.307c-9.834-0.1-19.666-0.201-29.501-0.26c-0.325-0.002-0.651,0.411-0.975,0.63
		c0.376,0.161,0.754,0.466,1.128,0.46c9.892-0.136,19.785-0.303,30.138-0.474C468.983,394.395,468.882,394.308,468.777,394.307z"/>
	<path fill="#FFFFFF" d="M472.511,336.747c-11.359-0.167-22.716-0.167-34.073-0.151c-0.106,0-0.213,0.242-0.74,0.88
		C449.618,337.938,461.068,337.939,472.511,336.747z"/>
</g>
<g>
	<path d="M459.911,566.697c-0.036-16.733-0.056-33.467-0.156-50.199c-0.011-1.445,0.441-2.001,1.771-2.443
		c10.99-3.651,21.951-7.39,32.927-11.084c0.474-0.16,1.012-0.248,1.509-0.207c12.598,1.085,25.193,2.208,37.791,3.293
		c15.561,1.342,31.123,2.641,46.683,3.983c16.895,1.458,33.786,2.958,50.682,4.415c16.894,1.458,33.793,2.87,50.689,4.328
		c18.23,1.573,36.457,3.19,54.688,4.761c17.822,1.536,35.645,3.071,53.474,4.504c1.835,0.148,2.14,0.812,2.137,2.446
		c-0.046,22.971,0.007,72.165,0.007,72.165c-0.53,0.167-1.04,0.43-1.565,0.765c-9.084,5.796-18.212,11.523-27.28,17.345
		c-1.523,0.977-2.91,1.412-4.793,1.192c-8.505-0.992-17.034-1.771-25.555-2.631c-12.229-1.235-24.46-2.476-36.691-3.71
		c-10.897-1.1-21.795-2.188-32.692-3.288c-12.173-1.229-24.344-2.471-36.516-3.699c-10.956-1.104-21.913-2.192-32.868-3.298
		c-12.173-1.228-24.344-2.471-36.516-3.699c-10.956-1.105-21.912-2.193-32.869-3.298c-12.23-1.234-24.46-2.479-36.691-3.711
		c-8.753-0.882-17.504-1.775-26.262-2.601c-1.441-0.135-1.939-0.579-1.915-2.13c0.099-6.352-0.004-12.708,0.042-19.061
		C459.945,570.838,459.91,567.209,459.911,566.697z M763.338,527.464c-11.727-1.016-23.455-2.031-35.182-3.039
		c-11.438-0.984-22.878-1.951-34.315-2.937c-11.553-0.996-23.105-2.015-34.659-3.012c-11.437-0.987-22.878-1.949-34.315-2.937
		c-12.89-1.112-25.777-2.242-38.665-3.355c-11.439-0.988-22.878-1.956-34.315-2.943c-11.554-0.996-23.106-2.005-34.66-3.009
		c-4.122-0.358-8.243-0.73-12.367-1.054c-0.56-0.043-1.167,0.071-1.706,0.248c-10.066,3.294-20.124,6.609-30.183,9.924
		c-0.263,0.087-0.51,0.228-1.23,0.553c3.698,0.373,6.917,0.708,10.138,1.018c14.268,1.378,28.535,2.754,42.805,4.119
		c12.761,1.221,25.526,2.414,38.285,3.64c13.92,1.339,27.838,2.707,41.758,4.047c12.702,1.222,25.408,2.414,38.11,3.635
		c12.761,1.225,25.52,2.476,38.279,3.703c11.484,1.104,22.971,2.187,34.456,3.288c11.543,1.108,23.08,2.259,34.629,3.302
		c1.254,0.114,2.702-0.079,3.823-0.62c8.126-3.924,16.191-7.971,24.275-11.981c0.54-0.267,1.072-0.553,1.607-0.831
		c-0.033-0.103-0.063-0.207-0.095-0.311C774.319,528.43,768.828,527.943,763.338,527.464z M468.963,591.06
		c97.1,9.791,194.262,19.588,291.311,29.375c0-25.322,0-50.546,0-75.924c-2.559-0.254-4.857-0.48-7.511-0.744
		c0.242,25.332,0.482,50.483,0.723,75.633c-0.202,0.006-0.404,0.012-0.605,0.019c0-2.141,0-4.284,0-6.552
		c-94.727-9.551-189.162-19.073-283.916-28.626C468.964,586.688,468.964,588.819,468.963,591.06z M763.088,618.91
		c8.71-5.512,17.41-11.038,26.137-16.522c0.827-0.52,1.209-1.033,1.207-2.057c-0.032-23.079-0.024-46.156-0.027-69.235
		c0-0.344-0.039-0.691-0.075-1.288c-0.568,0.203-1.039,0.321-1.463,0.533c-8.898,4.455-17.787,8.925-26.689,13.374
		c-0.775,0.387-1.262,0.753-1.255,1.789c0.165,24.594,0.285,49.186,0.415,73.779c0.001,0.11,0.046,0.22,0.127,0.578
		C762.109,619.485,762.608,619.211,763.088,618.91z M752.03,544.578c-0.022-0.357-0.662-0.932-1.062-0.972
		c-8.638-0.876-17.282-1.684-25.925-2.515c-11.602-1.114-23.2-2.239-34.801-3.355c-11.426-1.098-22.855-2.188-34.281-3.285
		c-11.658-1.122-23.315-2.253-34.974-3.371c-11.485-1.102-22.971-2.189-34.456-3.291c-11.542-1.108-23.082-2.231-34.626-3.341
		c-10.266-0.987-20.533-1.962-30.8-2.949c-11.601-1.115-23.199-2.237-34.8-3.357c-5.22-0.502-10.44-1.01-15.661-1.505
		c-0.448-0.042-0.902-0.006-1.443-0.006c0,2.119,0,4.137,0,6.291c94.25,9.051,188.48,18.101,282.877,27.166
		C752.08,548.158,752.139,546.363,752.03,544.578z M469.108,524.571c0,19.636,0,39.087,0,58.703c0.523-0.203,1.048-0.37,1.541-0.605
		c10.298-4.913,20.59-9.837,30.89-14.746c0.863-0.411,1.515-0.76,1.509-1.988c-0.056-12.535-0.033-25.071-0.035-37.606
		c0-0.109-0.055-0.216-0.133-0.515C491.653,526.735,480.476,525.661,469.108,524.571z M698.783,606.371
		c0.911-0.443,1.427-0.669,1.919-0.938c9.452-5.172,18.889-10.367,28.364-15.496c1.163-0.63,1.672-1.284,1.663-2.675
		c-0.062-11.894-0.059-23.789-0.006-35.682c0.006-1.446-0.304-1.989-1.878-2.125c-9.288-0.805-18.565-1.75-27.845-2.638
		c-0.792-0.076-1.59-0.095-2.216-0.13C698.783,566.581,698.783,586.314,698.783,606.371z M526.879,587.754
		c9.43-4.953,18.849-9.928,28.3-14.842c1.072-0.557,1.451-1.183,1.446-2.396c-0.048-12.006-0.029-24.014-0.029-36.02
		c0-0.457,0-0.914,0-1.511c-10.521-1.017-20.935-2.025-31.418-3.04c0,19.438,0,38.895,0,58.63
		C525.857,588.248,526.377,588.017,526.879,587.754z M643.91,599.595c9.304-5.08,18.604-10.169,27.913-15.241
		c0.799-0.436,1.354-0.823,1.348-1.942c-0.054-12.422-0.034-24.843-0.038-37.266c-0.001-0.283-0.057-0.568-0.102-0.988
		c-10.223-0.983-20.413-1.961-30.693-2.948c0,19.724,0,39.328,0,59.15C643.004,600.037,643.466,599.834,643.91,599.595z
		 M584.373,535.642c0,19.485,0,38.903,0,58.441c0.453-0.203,0.877-0.361,1.269-0.575c9.043-4.935,18.091-9.862,27.103-14.85
		c0.591-0.327,1.301-1.139,1.304-1.728c0.075-12.752,0.056-25.505,0.056-38.429C604.218,537.55,594.384,536.604,584.373,535.642z
		 M615.83,538.669c0,12.991,0,25.85,0,38.846c7.183,0.708,14.3,1.409,21.578,2.126c0-13.023,0-25.927,0-38.915
		C630.155,540.034,623.038,539.357,615.83,538.669z M558.365,571.853c6.917,0.689,13.842,1.377,20.962,2.085
		c0-12.912,0-25.748,0-38.774c-6.895-0.663-13.871-1.334-20.962-2.017C558.365,546.066,558.365,558.853,558.365,571.853z
		 M751.267,590.835c0-13.12,0-26.077,0-39.168c-6.413-0.62-12.585-1.216-18.873-1.824c0,13.079,0,26.033,0,39.13
		C738.745,589.6,745.028,590.219,751.267,590.835z M674.892,583.315c6.355,0.631,12.651,1.254,18.975,1.881
		c0-13.016,0-25.959,0-39.031c-6.44-0.619-12.625-1.213-18.975-1.824C674.892,557.426,674.892,570.286,674.892,583.315z
		 M637.565,600.411c0-6.428,0-12.639,0-19.087c-3.47-0.352-6.867-0.686-10.264-1.042c-4.168-0.435-8.332-0.897-12.501-1.322
		c-0.374-0.038-0.821,0.021-1.145,0.197c-9.507,5.168-19.004,10.357-28.502,15.542c0.008,0.145,0.016,0.291,0.024,0.435
		C602.596,596.89,620.013,598.645,637.565,600.411z M579.274,594.539c0.04-0.567,0.104-1.07,0.107-1.574
		c0.016-5.247-0.03-10.495,0.065-15.741c0.027-1.408-0.48-1.742-1.771-1.854c-6.328-0.545-12.668-1.035-18.957-1.891
		c-1.908-0.26-3.306,0.173-4.847,0.99c-8.542,4.524-17.104,9.01-25.658,13.511c-0.538,0.282-1.067,0.582-1.6,0.874
		c0.028,0.126,0.055,0.255,0.081,0.381C544.171,590.998,561.647,592.762,579.274,594.539z M751.572,611.909
		c0-6.539,0-12.905,0-19.39c-4.812-0.477-9.441-0.911-14.062-1.401c-2.246-0.238-4.48-0.599-6.723-0.86
		c-0.359-0.041-0.79,0.075-1.113,0.252c-9.552,5.216-19.095,10.447-28.635,15.684c-0.135,0.075-0.225,0.23-0.549,0.569
		C717.674,608.494,734.579,610.196,751.572,611.909z M694.209,606.127c0-6.4,0-12.723,0-19.238c-3.38-0.344-6.606-0.66-9.829-1.001
		c-3.591-0.378-7.175-0.789-10.768-1.149c-0.411-0.041-0.9,0.053-1.262,0.249c-9.455,5.159-18.899,10.34-28.342,15.52
		c-0.096,0.054-0.171,0.142-0.589,0.496C660.58,602.736,677.376,604.431,694.209,606.127z M520.361,588.597
		c0-6.281,0-12.474,0-18.797c-5.648-0.573-11.257-1.15-16.87-1.693c-0.37-0.035-0.79,0.156-1.146,0.326
		c-10.135,4.833-20.267,9.676-30.396,14.522c-0.237,0.114-0.448,0.279-1.049,0.657C487.675,585.304,503.95,586.945,520.361,588.597z
		 M504.749,528.007c0,12.939,0,25.71,0,38.584c5.197,0.513,10.342,1.018,15.614,1.539c0-12.968,0-25.762,0-38.645
		C515.19,528.994,510.046,528.509,504.749,528.007z M461.594,590.331c2.166,0.209,4.183,0.402,6.384,0.613
		c0.041-0.593,0.102-1.084,0.104-1.575c0.084-23.676,0.147-47.351,0.281-71.026c0.01-1.617-0.473-2.144-2.039-2.136
		c-1.552,0.008-3.107-0.247-4.73-0.394C461.594,540.832,461.594,565.532,461.594,590.331z M522.131,528.705
		c0,20.071,0,39.98,0,59.995c0.635,0.099,1.253,0.197,2.059,0.323c0-20.076,0-40.017,0-60.16
		C523.495,528.81,522.87,528.762,522.131,528.705z M581.212,534.385c0,20.123,0,40.143,0,60.284
		c0.571,0.088,1.189,0.185,2.074,0.322c0-20.191,0-40.252,0-60.498C582.632,534.459,581.999,534.426,581.212,534.385z
		 M697.815,606.492c0-20.344,0-40.55,0-60.885c-0.876-0.133-1.486-0.225-2.39-0.362c0.188,20.382,0.373,40.633,0.56,61.01
		C696.653,606.34,697.261,606.418,697.815,606.492z M639.23,539.959c0,20.207,0,40.331,0,60.558
		c0.714,0.081,1.324,0.151,2.081,0.239c0-20.244,0-40.359,0-60.649C640.498,540.05,639.928,540.01,639.23,539.959z M764.322,541.837
		c7.258-3.95,14.737-7.493,22.123-11.204c0.506-0.255,1.001-0.535,1.801-0.966c-3.239-0.546-5.971-0.823-8.844,0.679
		c-7.635,3.99-15.413,7.702-23.133,11.53c-0.565,0.28-1.118,0.59-1.97,1.042C758.015,543.771,761.1,543.591,764.322,541.837z
		 M493.479,504.972c-9.316,3.274-18.699,6.357-28.056,9.515c-0.378,0.127-0.75,0.274-1.572,0.575
		c2.851,0.394,5.162,0.788,7.629-0.052c9.294-3.159,18.638-6.171,27.963-9.243c0.518-0.171,1.024-0.378,1.536-0.568
		C498.447,504.866,496.068,504.062,493.479,504.972z"/>
	<path fill="#FFFFFF" d="M779.903,529.226c-0.535,0.277-1.067,0.564-1.607,0.831c-8.084,4.012-16.149,8.058-24.275,11.981
		c-1.121,0.541-2.569,0.734-3.823,0.62c-11.549-1.043-23.086-2.193-34.629-3.302c-11.485-1.102-22.971-2.184-34.456-3.288
		c-12.761-1.227-25.52-2.478-38.279-3.703c-12.702-1.22-25.408-2.413-38.11-3.635c-13.92-1.34-27.838-2.71-41.758-4.047
		c-12.761-1.227-25.525-2.419-38.285-3.64c-14.27-1.365-28.536-2.742-42.805-4.119c-3.221-0.311-6.44-0.647-10.138-1.018
		c0.72-0.326,0.966-0.466,1.23-0.553c10.059-3.315,20.119-6.629,30.183-9.924c0.541-0.177,1.146-0.293,1.706-0.248
		c4.125,0.323,8.245,0.696,12.367,1.054c11.555,1.002,23.106,2.013,34.66,3.009c11.439,0.988,22.878,1.955,34.314,2.943
		c12.889,1.112,25.777,2.243,38.665,3.355c11.437,0.987,22.878,1.949,34.314,2.937c11.553,0.996,23.105,2.015,34.659,3.012
		c11.437,0.987,22.878,1.954,34.314,2.938c11.728,1.008,23.456,2.022,35.182,3.039c5.492,0.476,10.981,0.965,16.473,1.447
		C779.841,529.017,779.873,529.12,779.903,529.226z"/>
	<path fill="#FFFFFF" d="M752.881,612.865c0,2.269,0,4.412,0,6.552c0.202-0.006,0.404-0.012,0.605-0.019
		c-0.24-25.15-0.481-50.302-0.723-75.633c2.654,0.263,4.952,0.49,7.511,0.744c0,25.378,0,50.601,0,75.924
		c-97.05-9.786-194.212-19.584-291.311-29.375c0-2.239,0-4.37,0-6.818C563.719,593.794,658.154,603.316,752.881,612.865z"/>
	<path fill="#FFFFFF" d="M761.338,619.282c-0.132-24.593-0.252-49.186-0.415-73.779c-0.007-1.035,0.48-1.402,1.255-1.789
		c8.901-4.449,17.791-8.919,26.689-13.374c0.425-0.211,0.896-0.329,1.463-0.533c0.035,0.598,0.075,0.943,0.075,1.288
		c0.003,23.079-0.004,46.156,0.028,69.235c0.001,1.024-0.379,1.537-1.207,2.057c-8.728,5.483-17.428,11.011-26.137,16.522
		c-0.479,0.303-0.978,0.577-1.622,0.954C761.384,619.504,761.339,619.394,761.338,619.282z"/>
	<path fill="#FFFFFF" d="M469.203,522.922c0-2.154,0-4.172,0-6.291c0.54,0,0.995-0.036,1.443,0.006
		c5.221,0.495,10.441,1.002,15.661,1.505c11.599,1.121,23.199,2.241,34.8,3.357c10.266,0.987,20.533,1.962,30.8,2.949
		c11.542,1.11,23.082,2.234,34.625,3.341c11.485,1.102,22.971,2.19,34.456,3.291c11.659,1.119,23.315,2.25,34.974,3.371
		c11.426,1.099,22.855,2.188,34.281,3.285c11.601,1.115,23.2,2.239,34.801,3.355c8.642,0.831,17.286,1.64,25.924,2.515
		c0.4,0.04,1.04,0.615,1.062,0.972c0.11,1.785,0.051,3.58,0.051,5.509C657.683,541.022,563.453,531.972,469.203,522.922z"/>
	<path fill="#FFFFFF" d="M503.014,528.331c0.002,12.535-0.021,25.071,0.035,37.606c0.005,1.227-0.645,1.576-1.508,1.988
		c-10.3,4.911-20.592,9.833-30.89,14.746c-0.493,0.234-1.018,0.402-1.541,0.606c0-19.616,0-39.068,0-58.704
		c11.367,1.092,22.544,2.166,33.771,3.244C502.961,528.113,503.013,528.222,503.014,528.331z"/>
	<path fill="#FFFFFF" d="M700.999,546.815c9.281,0.89,18.557,1.835,27.845,2.638c1.574,0.136,1.884,0.678,1.878,2.125
		c-0.054,11.894-0.057,23.789,0.006,35.682c0.006,1.391-0.501,2.045-1.663,2.675c-9.474,5.128-18.912,10.325-28.364,15.496
		c-0.492,0.27-1.008,0.495-1.919,0.938c0-20.055,0-39.787,0-59.684C699.411,546.721,700.208,546.739,700.999,546.815z"/>
	<path fill="#FFFFFF" d="M525.178,529.944c10.483,1.014,20.897,2.022,31.418,3.04c0,0.597,0,1.056,0,1.511
		c0,12.006-0.019,24.014,0.029,36.02c0.005,1.213-0.373,1.839-1.446,2.396c-9.451,4.913-18.871,9.888-28.3,14.842
		c-0.502,0.262-1.021,0.495-1.701,0.823C525.178,568.841,525.178,549.383,525.178,529.944z"/>
	<path fill="#FFFFFF" d="M642.336,541.208c10.28,0.988,20.47,1.966,30.693,2.948c0.046,0.421,0.102,0.705,0.102,0.988
		c0.005,12.423-0.014,24.843,0.038,37.266c0.005,1.12-0.548,1.505-1.348,1.942c-9.309,5.072-18.609,10.16-27.913,15.241
		c-0.442,0.241-0.904,0.444-1.571,0.769C642.336,580.539,642.336,560.937,642.336,541.208z"/>
	<path fill="#FFFFFF" d="M614.05,576.929c-0.004,0.59-0.713,1.401-1.304,1.728c-9.014,4.989-18.061,9.914-27.103,14.849
		c-0.393,0.214-0.816,0.372-1.269,0.575c0-19.539,0-38.956,0-58.441c10.011,0.962,19.846,1.909,29.733,2.86
		C614.107,551.425,614.124,564.178,614.05,576.929z"/>
	<path fill="#FFFFFF" d="M637.408,579.64c-7.278-0.717-14.396-1.418-21.578-2.126c0-12.995,0-25.855,0-38.846
		c7.21,0.688,14.327,1.366,21.578,2.057C637.408,553.714,637.408,566.618,637.408,579.64z"/>
	<path fill="#FFFFFF" d="M579.328,535.165c0,13.026,0,25.862,0,38.774c-7.12-0.708-14.046-1.397-20.962-2.085
		c0-13.003,0-25.788,0-38.708C565.456,533.83,572.433,534.502,579.328,535.165z"/>
	<path fill="#FFFFFF" d="M732.394,549.843c6.287,0.608,12.461,1.205,18.873,1.824c0,13.091,0,26.048,0,39.168
		c-6.24-0.615-12.522-1.236-18.873-1.862C732.394,575.877,732.394,562.921,732.394,549.843z"/>
	<path fill="#FFFFFF" d="M693.866,546.165c0,13.072,0,26.016,0,39.031c-6.324-0.628-12.62-1.252-18.975-1.881
		c0-13.029,0-25.889,0-38.974C681.241,544.95,687.428,545.545,693.866,546.165z"/>
	<path fill="#FFFFFF" d="M585.155,594.702c9.497-5.185,18.993-10.375,28.502-15.542c0.323-0.176,0.77-0.235,1.144-0.197
		c4.17,0.424,8.333,0.885,12.501,1.322c3.396,0.356,6.794,0.691,10.264,1.042c0,6.447,0,12.659,0,19.087
		c-17.552-1.769-34.969-3.522-52.386-5.277C585.17,594.991,585.163,594.847,585.155,594.702z"/>
	<path fill="#FFFFFF" d="M526.614,588.855c0.534-0.293,1.062-0.591,1.6-0.874c8.555-4.501,17.115-8.987,25.658-13.511
		c1.541-0.815,2.937-1.249,4.847-0.99c6.288,0.855,12.629,1.346,18.957,1.891c1.292,0.111,1.797,0.446,1.771,1.854
		c-0.096,5.245-0.05,10.494-0.065,15.741c-0.002,0.504-0.067,1.008-0.107,1.574c-17.629-1.778-35.104-3.541-52.579-5.304
		C526.668,589.109,526.641,588.981,526.614,588.855z"/>
	<path fill="#FFFFFF" d="M701.041,606.193c9.54-5.236,19.083-10.469,28.635-15.684c0.323-0.178,0.754-0.293,1.113-0.252
		c2.243,0.26,4.476,0.621,6.723,0.86c4.621,0.491,9.248,0.925,14.062,1.401c0,6.485,0,12.85,0,19.39
		c-16.994-1.712-33.899-3.414-51.084-5.146C700.813,606.422,700.904,606.268,701.041,606.193z"/>
	<path fill="#FFFFFF" d="M644.007,600.51c9.443-5.18,18.887-10.361,28.342-15.52c0.362-0.198,0.851-0.291,1.262-0.249
		c3.592,0.36,7.177,0.771,10.768,1.149c3.223,0.34,6.449,0.657,9.829,1.001c0,6.515,0,12.838,0,19.238
		c-16.831-1.699-33.628-3.393-50.79-5.125C643.836,600.651,643.912,600.562,644.007,600.51z"/>
	<path fill="#FFFFFF" d="M471.948,582.956c10.13-4.845,20.26-9.689,30.396-14.522c0.356-0.169,0.777-0.361,1.146-0.326
		c5.613,0.541,11.222,1.12,16.87,1.693c0,6.323,0,12.516,0,18.797c-16.409-1.653-32.685-3.292-49.461-4.982
		C471.5,583.235,471.711,583.071,471.948,582.956z"/>
	<path fill="#FFFFFF" d="M520.363,568.13c-5.271-0.519-10.417-1.027-15.614-1.539c0-12.874,0-25.646,0-38.584
		c5.298,0.5,10.441,0.988,15.614,1.478C520.363,542.368,520.363,555.161,520.363,568.13z"/>
	<path fill="#FFFFFF" d="M466.326,516.208c1.568-0.008,2.048,0.518,2.039,2.136c-0.135,23.675-0.197,47.351-0.281,71.026
		c-0.003,0.49-0.064,0.982-0.104,1.575c-2.2-0.212-4.217-0.406-6.384-0.613c0-24.8,0-49.501,0-74.52
		C463.217,515.958,464.772,516.216,466.326,516.208z"/>
	<path fill="#FFFFFF" d="M524.19,589.024c-0.808-0.126-1.425-0.224-2.059-0.323c0-20.016,0-39.925,0-59.995
		c0.74,0.057,1.365,0.105,2.059,0.16C524.19,549.007,524.19,568.948,524.19,589.024z"/>
	<path fill="#FFFFFF" d="M583.286,594.99c-0.885-0.137-1.503-0.234-2.074-0.322c0-20.141,0-40.161,0-60.284
		c0.787,0.04,1.419,0.074,2.074,0.108C583.286,554.739,583.286,574.799,583.286,594.99z"/>
	<path fill="#FFFFFF" d="M695.425,545.244c0.903,0.137,1.513,0.23,2.39,0.362c0,20.337,0,40.542,0,60.885
		c-0.554-0.073-1.162-0.15-1.829-0.238C695.798,585.878,695.612,565.626,695.425,545.244z"/>
	<path fill="#FFFFFF" d="M641.312,600.756c-0.757-0.086-1.368-0.157-2.081-0.239c0-20.226,0-40.35,0-60.558
		c0.697,0.048,1.268,0.09,2.081,0.148C641.312,560.397,641.312,580.513,641.312,600.756z"/>
	<path fill="#FFFFFF" d="M756.269,541.878c7.719-3.828,15.498-7.541,23.133-11.53c2.874-1.501,5.606-1.225,8.844-0.68
		c-0.801,0.431-1.295,0.711-1.801,0.966c-7.386,3.711-14.867,7.255-22.123,11.204c-3.222,1.753-6.307,1.934-10.024,1.082
		C755.151,542.468,755.703,542.158,756.269,541.878z"/>
	<path fill="#FFFFFF" d="M499.444,505.768c-9.325,3.073-18.668,6.084-27.963,9.243c-2.467,0.837-4.779,0.446-7.629,0.052
		c0.821-0.301,1.193-0.448,1.572-0.575c9.357-3.158,18.741-6.242,28.056-9.515c2.59-0.91,4.968-0.105,7.5,0.229
		C500.467,505.391,499.962,505.597,499.444,505.768z"/>
</g>
</svg>
