<?xml version="1.0" encoding="utf-8"?>
<!-- Generator: Adobe Illustrator 17.1.0, SVG Export Plug-In . SVG Version: 6.00 Build 0)  -->
<!DOCTYPE svg PUBLIC "-//W3C//DTD SVG 1.1//EN" "http://www.w3.org/Graphics/SVG/1.1/DTD/svg11.dtd">
<svg version="1.1" id="Lager_1" xmlns="http://www.w3.org/2000/svg" xmlns:xlink="http://www.w3.org/1999/xlink" x="0px" y="0px"
	 viewBox="0 0 500 400" enable-background="new 0 0 500 400" xml:space="preserve">
<g>
	<g>
		<path d="M70.638,310.668c5.931,0.993,9.79-3.197,9.73-8.958c-0.077-7.362-0.481-14.73-0.748-22.086
			c-0.487-13.397-0.945-26.795-1.322-40.195c-0.43-15.291-0.48-30.555-1.904-45.795c-0.639-6.84-1.371-13.699-1.257-20.579
			c0.1-6.059,1.758-11.595,3.465-17.353c0.778-2.625,1.553-5.466,3.362-7.584c1.514-1.774,2.755-3.767,3.817-5.837
			c2.075-4.044,3.259-8.564,3.862-13.052c2.039-15.184-1.149-31.399-6.282-45.722c-0.06-0.168-0.121-0.335-0.184-0.501
			c-0.202-0.534-0.933-0.44-0.982,0.133c-1.074,12.609-2.161,25.222-3.006,37.848c-0.12,1.785-0.377,3.657-0.256,5.449
			c0.019,0.273-0.206-1.124-0.245-1.451c-0.157-1.308-0.253-2.625-0.35-3.939c-0.592-7.986-0.903-15.992-1.362-23.986
			c-0.194-3.369-0.389-6.741-0.714-10.1c-0.095-0.981,0.021-3.23-0.878-3.919c-0.982-0.753-1.247,2.022-1.293,2.337
			c-0.406,2.767-0.613,5.568-0.839,8.354c-0.644,7.948-1.109,15.911-1.615,23.868c-0.17,2.671-0.327,5.345-0.551,8.012
			c0.007-0.085-0.366,2.369-0.772,1.156c-0.195-0.584-0.164-1.306-0.212-1.912c-0.549-6.96-0.778-13.951-1.158-20.922
			c-0.353-6.492-0.458-13.145-1.516-19.573c-0.077-0.468-0.514-2.572-1.41-1.563c-0.893,1.006-0.752,3.498-0.868,4.722
			c-0.738,7.769-0.974,15.593-1.37,23.384c-0.25,4.911-0.012,10.295-1.115,15.115c-0.102,0.446-0.009-0.379-0.012-0.581
			c-0.013-0.775-0.061-1.55-0.105-2.324c-0.154-2.725-0.358-5.448-0.56-8.171c-0.797-10.736-1.69-21.465-2.604-32.191
			c-0.049-0.573-0.78-0.667-0.982-0.133c-4.828,12.789-7.567,27.199-6.962,40.856c0.211,4.772,0.994,9.534,2.527,14.063
			c0.689,2.035,1.593,3.994,2.64,5.867c1.168,2.089,2.884,3.776,4.081,5.817c1.453,2.479,2.135,5.525,2.92,8.264
			c0.798,2.784,1.722,5.548,2.241,8.4c1.161,6.379,0.573,13.086,0.049,19.499c-0.619,7.576-1.476,15.128-1.856,22.723
			c-0.38,7.604-0.356,15.239-0.547,22.85c-0.351,13.995-0.812,27.988-1.31,41.978c-0.313,8.79-0.686,17.579-0.931,26.372
			c-0.082,2.953-0.137,5.955,1.7,8.452c1.572,2.136,4.329,2.951,6.873,2.974c0.313,0.003,0.631-0.011,0.943-0.05
			c0.631-0.079,0.639-1.08,0-1c-2.433,0.306-5.035-0.424-6.752-2.2c-2.325-2.407-1.822-6.301-1.729-9.384
			c0.282-9.379,0.67-18.755,1.001-28.132c0.501-14.207,0.952-28.415,1.294-42.626c0.185-7.676,0.184-15.366,0.675-23.031
			c0.477-7.436,1.369-14.838,1.895-22.27c0.401-5.677,0.566-11.439-0.457-17.061c-0.922-5.068-2.599-10.539-4.648-15.259
			c-0.872-2.01-2.487-3.548-3.688-5.358c-1.349-2.034-2.386-4.264-3.237-6.545c-1.779-4.766-2.488-9.885-2.712-14.943
			c-0.591-13.336,2.24-27.505,6.953-39.988c-0.327-0.044-0.655-0.089-0.982-0.133c1.074,12.609,2.161,25.222,3.006,37.848
			c0.12,1.785,0.377,3.657,0.256,5.449c-0.04,0.589,0.671,1.058,1.394,0.859c0.678-0.186,0.667-0.958,0.75-1.54
			c0.938-6.609,0.939-13.422,1.272-20.079c0.345-6.877,0.318-13.984,1.451-20.791c0.051-0.304,0.114-0.606,0.202-0.902
			c0.095-0.321-0.587-0.359-0.45,0.093c0.265,0.872,0.337,1.822,0.442,2.723c0.374,3.213,0.57,6.449,0.778,9.676
			c0.508,7.909,0.858,15.827,1.299,23.739c0.123,2.209,0.195,4.441,0.471,6.637c0.174,1.386,2.286,2.506,2.674,0.575
			c1.023-5.084,0.785-10.689,1.113-15.848c0.484-7.625,0.919-15.265,1.695-22.867c0.113-1.108,0.237-2.217,0.415-3.317
			c0.051-0.314,0.112-0.626,0.19-0.934c0.135-0.535-0.596-0.381-0.51-0.097c0.645,2.134,0.587,4.637,0.747,6.841
			c0.587,8.102,0.913,16.223,1.381,24.333c0.07,1.222-0.085,12.137,1.712,12.158c1.585,0.018,1.236-1.203,1.285-2.364
			c0.105-2.484,0.297-4.965,0.475-7.445c0.825-11.462,1.788-22.915,2.763-34.364c-0.327,0.044-0.655,0.089-0.982,0.133
			c4.932,13.066,7.731,27.846,6.857,41.791c-0.325,5.188-1.367,10.371-3.422,15.159c-1.834,4.273-5.252,7.452-6.887,11.783
			c-1.918,5.082-3.618,10.719-4.299,16.116c-0.806,6.397-0.191,12.97,0.364,19.36c0.637,7.321,1.424,14.625,1.752,21.97
			c0.326,7.288,0.321,14.6,0.504,21.894c0.339,13.504,0.78,27.006,1.258,40.506c0.314,8.878,0.675,17.756,0.948,26.636
			c0.091,2.96,0.434,6.139-1.272,8.738c-1.438,2.191-4.658,2.892-7.114,2.48C70.273,309.598,70.003,310.562,70.638,310.668z"/>
	</g>
</g>
<g>
	<g>
		<path d="M387.43,187.488c-0.113,45.795-22.951,89.132-60.642,115.144c-38.025,26.243-87.887,31.536-130.752,14.541
			c-41.955-16.634-73.737-53.868-84.131-97.693c-10.68-45.031,2.382-93.339,33.8-127.179
			c31.413-33.836,78.574-49.805,124.107-42.698c44.551,6.954,83.547,36.192,103.447,76.524
			C382.648,145.157,387.378,166.294,387.43,187.488c0.002,0.645,1.002,0.645,1,0c-0.109-44.349-21.346-86.432-56.87-112.959
			c-36.09-26.949-84.199-34.586-127.006-20.86c-41.525,13.315-75.003,46.34-89.48,87.378c-14.989,42.488-8.011,90.761,17.87,127.521
			c25.425,36.114,67.286,58.285,111.365,59.48c44.509,1.206,87.568-19.53,114.816-54.637c19.003-24.484,29.229-54.973,29.305-85.924
			C388.432,186.843,387.432,186.844,387.43,187.488z"/>
	</g>
</g>
<g>
	<g>
		<path d="M354.511,188.218c-0.074,22.956-7.51,45.28-21.252,63.67c-13.492,18.056-32.834,31.386-54.382,37.882
			c-22.256,6.71-46.536,5.646-68.233-2.58c-21.028-7.973-39.095-22.917-51.284-41.76c-12.534-19.378-18.147-42.634-16.433-65.597
			c1.703-22.804,11.157-44.635,26.228-61.774c14.835-16.87,35.005-28.592,56.918-33.406c22.833-5.016,47.117-2.075,68.197,7.95
			C330.837,109.996,354.38,147.854,354.511,188.218c0.002,0.645,1.002,0.645,1,0c-0.072-22.226-6.972-43.93-19.839-62.061
			c-12.41-17.486-30.115-30.879-50.184-38.344c-21.097-7.847-44.598-8.561-66.227-2.487c-20.862,5.858-39.58,18.343-53.359,35.013
			c-28.634,34.643-31.97,84.997-8.798,123.367c11.151,18.465,28.014,33.219,47.636,42.105c20.33,9.206,43.394,11.575,65.238,7.215
			c43.5-8.683,77.64-45.068,84.334-88.759c0.813-5.309,1.182-10.679,1.2-16.049C355.513,187.573,354.513,187.574,354.511,188.218z"
			/>
	</g>
</g>
<g>
	<g>
		<path d="M425.263,311.454c5.843,0.98,10.04-3.048,10.003-8.86c-0.019-2.991-0.183-5.985-0.293-8.974
			c-0.519-14.101-1.069-28.2-1.572-42.301c-0.586-16.424-1.146-32.851-1.498-49.282c-0.126-5.898-0.235-11.799-0.201-17.699
			c0.011-1.814,0.034-3.629,0.128-5.441c0.033-0.647,0.017-1.904,0.28-2.342c1.651-2.742,3.178-5.203,4.277-8.267
			c1.598-4.453,2.613-9.118,3.435-13.768c1.901-10.752,2.524-21.837,1.729-32.727c-0.778-10.653-3.61-20.446-9.776-29.275
			c-2.866-4.104-6.3-7.839-10.124-11.066c-2.196-1.853-4.766-3.919-7.596-4.676c-3.629-0.971-2.074,6.126-1.987,7.889
			c0.476,9.696,1.08,19.386,1.594,29.08c1.605,30.277,2.536,60.562,2.726,90.881c0.164,26.096-0.051,52.195-0.478,78.288
			c-0.1,6.086-0.226,12.172-0.331,18.259c-0.1,5.802,2.687,10.324,8.89,10.351c0.308,0.001,0.621-0.013,0.927-0.051
			c0.631-0.08,0.639-1.081,0-1c-2.401,0.303-4.993-0.38-6.759-2.055c-2.157-2.045-2.095-5.191-2.046-7.942
			c0.119-6.606,0.249-13.212,0.355-19.818c0.424-26.571,0.612-53.147,0.416-79.721c-0.221-30.082-1.246-60.128-2.86-90.166
			c-0.493-9.182-1.077-18.36-1.504-27.545c-0.082-1.765-0.262-3.591-0.118-5.357c0.095-1.166,6.217,2.834,6.598,3.12
			c8.855,6.645,15.867,16.693,18.881,27.33c2.934,10.353,2.888,21.646,2.149,32.294c-0.69,9.945-2.157,20.323-5.927,29.619
			c-0.636,1.568-1.404,3.089-2.334,4.503c-0.367,0.558-0.966,1.03-1.149,1.688c-0.264,0.945-0.249,2.012-0.293,2.983
			c-0.535,11.751,0.089,23.618,0.414,35.366c0.464,16.807,1.065,33.609,1.687,50.411c0.374,10.116,0.771,20.231,1.137,30.347
			c0.082,2.26,0.177,4.521,0.219,6.782c0.097,5.207-3.39,9.074-8.733,8.177C424.898,310.384,424.628,311.347,425.263,311.454z"/>
	</g>
</g>
</svg>
