<?xml version="1.0" encoding="utf-8"?>
<!-- Generator: Adobe Illustrator 17.1.0, SVG Export Plug-In . SVG Version: 6.00 Build 0)  -->
<!DOCTYPE svg PUBLIC "-//W3C//DTD SVG 1.1//EN" "http://www.w3.org/Graphics/SVG/1.1/DTD/svg11.dtd">
<svg version="1.1" id="Lager_1" xmlns="http://www.w3.org/2000/svg" xmlns:xlink="http://www.w3.org/1999/xlink" x="0px" y="0px"
	 viewBox="345.5 235 500 400" enable-background="new 345.5 235 500 400" xml:space="preserve">
<g>
	<g>
		<path d="M434.98,563.583c5.433,0.91,8.969-2.929,8.914-8.207c-0.07-6.744-0.44-13.494-0.685-20.233
			c-0.446-12.273-0.866-24.548-1.211-36.824c-0.394-14.009-0.44-27.992-1.745-41.954c-0.585-6.266-1.256-12.55-1.152-18.853
			c0.092-5.551,1.611-10.623,3.175-15.898c0.713-2.405,1.423-5.008,3.08-6.948c1.387-1.625,2.524-3.451,3.497-5.348
			c1.901-3.705,2.986-7.846,3.538-11.957c1.868-13.91-1.052-28.765-5.755-41.887c-0.055-0.154-0.111-0.307-0.169-0.459
			c-0.185-0.489-0.855-0.403-0.9,0.122c-0.984,11.552-1.98,23.107-2.754,34.674c-0.11,1.635-0.346,3.35-0.235,4.992
			c0.017,0.25-0.189-1.029-0.224-1.329c-0.144-1.198-0.232-2.405-0.32-3.609c-0.543-7.316-0.827-14.65-1.248-21.974
			c-0.178-3.086-0.356-6.176-0.654-9.253c-0.087-0.898,0.019-2.959-0.805-3.591c-0.9-0.69-1.142,1.853-1.184,2.141
			c-0.372,2.535-0.562,5.101-0.769,7.653c-0.59,7.282-1.016,14.577-1.48,21.866c-0.156,2.447-0.3,4.897-0.505,7.34
			c0.007-0.078-0.335,2.17-0.707,1.059c-0.178-0.535-0.15-1.196-0.194-1.752c-0.503-6.376-0.713-12.781-1.061-19.167
			c-0.323-5.948-0.42-12.042-1.389-17.931c-0.07-0.428-0.471-2.356-1.291-1.432c-0.818,0.921-0.689,3.205-0.795,4.326
			c-0.676,7.117-0.892,14.285-1.255,21.423c-0.229,4.499-0.011,9.432-1.021,13.847c-0.093,0.409-0.008-0.347-0.011-0.532
			c-0.012-0.71-0.056-1.42-0.096-2.129c-0.141-2.497-0.328-4.991-0.513-7.486c-0.73-9.836-1.548-19.665-2.385-29.491
			c-0.045-0.525-0.715-0.611-0.9-0.122c-4.423,11.716-6.932,24.918-6.378,37.429c0.193,4.372,0.91,8.735,2.315,12.884
			c0.631,1.864,1.46,3.659,2.419,5.375c1.07,1.914,2.642,3.46,3.738,5.329c1.331,2.271,1.956,5.062,2.675,7.571
			c0.731,2.551,1.578,5.083,2.053,7.695c1.064,5.844,0.525,11.988,0.045,17.863c-0.567,6.94-1.352,13.859-1.7,20.817
			c-0.348,6.966-0.326,13.961-0.501,20.934c-0.322,12.821-0.744,25.64-1.2,38.457c-0.287,8.053-0.628,16.105-0.853,24.16
			c-0.075,2.705-0.126,5.456,1.557,7.743c1.44,1.957,3.966,2.704,6.296,2.724c0.287,0.003,0.578-0.01,0.864-0.046
			c0.578-0.073,0.585-0.99,0-0.916c-2.229,0.281-4.613-0.389-6.185-2.015c-2.13-2.205-1.669-5.772-1.584-8.597
			c0.258-8.592,0.614-17.182,0.917-25.773c0.459-13.016,0.872-26.032,1.186-39.051c0.17-7.032,0.169-14.077,0.618-21.099
			c0.437-6.812,1.254-13.594,1.736-20.402c0.367-5.201,0.519-10.48-0.419-15.63c-0.844-4.643-2.381-9.655-4.258-13.979
			c-0.799-1.842-2.278-3.25-3.379-4.909c-1.236-1.864-2.186-3.907-2.966-5.996c-1.63-4.366-2.279-9.056-2.485-13.69
			c-0.541-12.218,2.052-25.198,6.37-36.634c-0.3-0.04-0.6-0.081-0.9-0.122c0.984,11.552,1.98,23.107,2.754,34.674
			c0.11,1.635,0.346,3.35,0.235,4.992c-0.037,0.54,0.615,0.969,1.277,0.787c0.621-0.17,0.611-0.878,0.687-1.411
			c0.859-6.055,0.86-12.296,1.165-18.395c0.316-6.3,0.291-12.811,1.329-19.047c0.047-0.278,0.104-0.555,0.185-0.826
			c0.087-0.294-0.538-0.329-0.412,0.085c0.243,0.799,0.309,1.669,0.405,2.495c0.343,2.944,0.522,5.908,0.713,8.865
			c0.466,7.245,0.786,14.5,1.19,21.748c0.112,2.024,0.178,4.069,0.432,6.08c0.159,1.27,2.094,2.296,2.45,0.527
			c0.937-4.658,0.719-9.792,1.02-14.519c0.443-6.986,0.842-13.984,1.553-20.949c0.104-1.015,0.217-2.031,0.38-3.039
			c0.047-0.288,0.103-0.574,0.174-0.856c0.124-0.49-0.546-0.349-0.467-0.089c0.591,1.955,0.538,4.248,0.684,6.267
			c0.538,7.422,0.836,14.862,1.265,22.292c0.064,1.12-0.078,11.119,1.568,11.138c1.452,0.016,1.132-1.102,1.177-2.166
			c0.096-2.276,0.272-4.549,0.435-6.82c0.756-10.5,1.638-20.993,2.531-31.481c-0.3,0.04-0.6,0.081-0.9,0.122
			c4.518,11.97,7.082,25.511,6.282,38.286c-0.297,4.753-1.252,9.501-3.135,13.887c-1.68,3.915-4.812,6.827-6.309,10.795
			c-1.757,4.655-3.314,9.82-3.938,14.765c-0.739,5.861-0.175,11.882,0.333,17.736c0.583,6.707,1.305,13.398,1.605,20.127
			c0.299,6.677,0.294,13.375,0.462,20.058c0.311,12.372,0.715,24.741,1.152,37.109c0.288,8.134,0.618,16.267,0.868,24.402
			c0.084,2.712,0.397,5.624-1.165,8.005c-1.318,2.007-4.267,2.649-6.517,2.272C434.646,562.603,434.398,563.486,434.98,563.583z"/>
	</g>
</g>
<g>
	<g>
		<path d="M725.201,450.735c-0.104,41.954-21.026,81.656-55.556,105.486c-34.836,24.042-80.516,28.891-119.785,13.321
			c-38.436-15.239-67.552-49.35-77.075-89.499c-9.784-41.254,2.182-85.51,30.965-116.512
			c28.778-30.998,71.984-45.628,113.697-39.117c40.814,6.371,76.54,33.156,94.77,70.105
			C720.82,411.955,725.154,431.318,725.201,450.735c0.002,0.591,0.918,0.591,0.916,0c-0.1-40.629-19.555-79.183-52.1-103.485
			c-33.063-24.688-77.137-31.685-116.354-19.111c-38.042,12.198-68.712,42.453-81.975,80.049
			c-13.732,38.924-7.339,83.148,16.371,116.825c23.292,33.085,61.643,53.397,102.024,54.491
			c40.776,1.105,80.223-17.892,105.186-50.054c17.409-22.43,26.777-50.362,26.847-78.717
			C726.119,450.144,725.203,450.145,725.201,450.735z"/>
	</g>
</g>
<g>
	<g>
		<path d="M695.043,451.404c-0.068,21.031-6.88,41.482-19.47,58.33c-12.361,16.542-30.08,28.753-49.821,34.705
			c-20.389,6.147-42.633,5.172-62.51-2.364c-19.264-7.304-35.816-20.995-46.982-38.258c-11.483-17.752-16.625-39.058-15.055-60.095
			c1.56-20.891,10.221-40.891,24.028-56.592c13.591-15.455,32.069-26.194,52.144-30.604c20.918-4.595,43.165-1.901,62.477,7.283
			C673.355,379.743,694.923,414.425,695.043,451.404c0.002,0.591,0.918,0.591,0.916,0c-0.066-20.362-6.387-40.246-18.175-56.856
			c-11.369-16.019-27.589-28.289-45.975-35.128c-19.328-7.189-40.857-7.843-60.672-2.278c-19.112,5.367-36.26,16.804-48.883,32.076
			c-26.233,31.737-29.289,77.867-8.06,113.019c10.215,16.916,25.664,30.433,43.641,38.574c18.625,8.434,39.754,10.604,59.766,6.61
			c39.851-7.955,71.128-41.288,77.26-81.314c0.745-4.863,1.083-9.783,1.099-14.703C695.961,450.813,695.045,450.814,695.043,451.404
			z"/>
	</g>
</g>
<g>
	<g>
		<path d="M759.861,564.303c5.353,0.898,9.198-2.793,9.164-8.117c-0.017-2.74-0.168-5.483-0.269-8.221
			c-0.475-12.918-0.979-25.835-1.44-38.753c-0.537-15.046-1.05-30.096-1.372-45.148c-0.115-5.403-0.215-10.809-0.184-16.214
			c0.01-1.662,0.031-3.325,0.117-4.985c0.03-0.593,0.016-1.745,0.257-2.146c1.513-2.512,2.911-4.767,3.918-7.574
			c1.464-4.08,2.394-8.353,3.147-12.613c1.742-9.85,2.312-20.006,1.584-29.982c-0.713-9.76-3.307-18.731-8.956-26.819
			c-2.625-3.76-5.772-7.182-9.275-10.138c-2.012-1.698-4.366-3.591-6.959-4.284c-3.325-0.89-1.9,5.612-1.82,7.228
			c0.436,8.883,0.99,17.76,1.46,26.641c1.47,27.738,2.323,55.482,2.497,83.258c0.15,23.907-0.047,47.817-0.438,71.722
			c-0.092,5.576-0.207,11.151-0.303,16.727c-0.092,5.315,2.462,9.458,8.145,9.483c0.282,0.001,0.569-0.012,0.849-0.047
			c0.578-0.073,0.585-0.99,0-0.916c-2.2,0.278-4.574-0.348-6.192-1.883c-1.976-1.873-1.919-4.755-1.874-7.276
			c0.109-6.052,0.228-12.104,0.325-18.156c0.389-24.342,0.561-48.689,0.381-73.034c-0.203-27.559-1.141-55.085-2.62-82.603
			c-0.451-8.412-0.987-16.82-1.378-25.235c-0.075-1.617-0.24-3.29-0.108-4.908c0.087-1.068,5.695,2.597,6.045,2.859
			c8.112,6.088,14.536,15.293,17.297,25.038c2.688,9.485,2.646,19.83,1.969,29.585c-0.632,9.111-1.976,18.618-5.43,27.135
			c-0.582,1.437-1.286,2.83-2.138,4.125c-0.336,0.511-0.885,0.944-1.052,1.546c-0.242,0.866-0.228,1.843-0.269,2.733
			c-0.49,10.766,0.081,21.637,0.379,32.4c0.425,15.397,0.975,30.79,1.545,46.183c0.343,9.267,0.706,18.534,1.042,27.801
			c0.075,2.07,0.162,4.142,0.201,6.213c0.089,4.77-3.106,8.313-8,7.491C759.526,563.323,759.279,564.205,759.861,564.303z"/>
	</g>
</g>
</svg>
