<?xml version="1.0" encoding="utf-8"?>
<!-- Generator: Adobe Illustrator 17.1.0, SVG Export Plug-In . SVG Version: 6.00 Build 0)  -->
<!DOCTYPE svg PUBLIC "-//W3C//DTD SVG 1.1//EN" "http://www.w3.org/Graphics/SVG/1.1/DTD/svg11.dtd">
<svg version="1.1" id="Lager_1" xmlns="http://www.w3.org/2000/svg" xmlns:xlink="http://www.w3.org/1999/xlink" x="0px" y="0px"
	 viewBox="0 7.5 50 37" enable-background="new 0 7.5 50 37" xml:space="preserve">
<g>
	<rect x="2.994" y="32.697" fill="#F43C11" width="7.19" height="4.289"/>
	<rect x="2.551" y="32.305" fill="#F7C421" width="7.317" height="4.416"/>
</g>
<g>
	<rect x="30.777" y="32.469" fill="#F43C11" width="7.19" height="4.289"/>
	<rect x="30.335" y="32.077" fill="#F7C421" width="7.317" height="4.416"/>
</g>
<g>
	<circle fill="#FFFFFF" cx="41.143" cy="22.04" r="5.336"/>
	<g>
		<path d="M46.328,22.04c0,1.499-0.66,2.915-1.774,3.906c-1.128,0.99-2.668,1.444-4.153,1.238c-1.458-0.206-2.764-1.059-3.589-2.283
			c-0.839-1.251-1.073-2.847-0.66-4.304c0.399-1.403,1.416-2.585,2.737-3.232c1.348-0.66,2.984-0.688,4.359-0.069
			C45.104,18.12,46.328,20.004,46.328,22.04c0,0.193,0.303,0.193,0.303,0c0-1.485-0.605-2.902-1.664-3.933s-2.53-1.581-4.002-1.54
			s-2.888,0.701-3.878,1.788c-1.004,1.1-1.513,2.585-1.416,4.057c0.096,1.471,0.798,2.847,1.912,3.796
			c1.128,0.976,2.64,1.43,4.112,1.293c1.334-0.138,2.599-0.77,3.507-1.76c0.921-1.004,1.416-2.338,1.43-3.686
			C46.63,21.847,46.328,21.847,46.328,22.04z"/>
	</g>
</g>
<line fill="none" stroke="#000000" stroke-width="0.3" stroke-miterlimit="10" x1="45.324" y1="15.686" x2="47.634" y2="15.686"/>
<line fill="none" stroke="#000000" stroke-width="0.3" stroke-miterlimit="10" x1="47.497" y1="15.549" x2="47.497" y2="17.859"/>
<line fill="none" stroke="#000000" stroke-width="0.3" stroke-miterlimit="10" x1="44.966" y1="18.244" x2="47.497" y2="15.686"/>
<g>
	<circle fill="#FFFFFF" cx="8.977" cy="21.818" r="5.337"/>
	<g>
		<path d="M14.166,21.818c-0.007,1.495-0.654,2.911-1.772,3.905c-1.122,0.997-2.67,1.442-4.152,1.231
			c-1.459-0.205-2.776-1.05-3.591-2.274c-0.838-1.257-1.069-2.848-0.66-4.301c0.399-1.413,1.416-2.591,2.726-3.235
			c1.353-0.667,2.987-0.683,4.363-0.073C12.944,17.897,14.156,19.788,14.166,21.818c0,0.191,0.297,0.191,0.297,0
			c-0.007-1.482-0.607-2.904-1.667-3.938c-1.059-1.036-2.525-1.588-4.004-1.541c-1.472,0.043-2.881,0.706-3.871,1.792
			c-1.003,1.096-1.512,2.581-1.416,4.06c0.092,1.465,0.799,2.848,1.911,3.802c1.129,0.97,2.634,1.432,4.112,1.287
			c1.34-0.132,2.598-0.772,3.505-1.766c0.918-1.003,1.423-2.333,1.429-3.69C14.463,21.627,14.166,21.627,14.166,21.818z"/>
	</g>
</g>
<rect x="7.545" y="28.317" width="2.865" height="0.31"/>
<rect x="8.796" y="27.3" width="0.31" height="2.423"/>
<g>
	<circle fill="#FFFFFF" cx="25.139" cy="21.98" r="5.337"/>
	<g>
		<path d="M30.327,21.98c-0.007,1.495-0.654,2.911-1.772,3.905c-1.122,0.997-2.67,1.442-4.152,1.231
			c-1.459-0.205-2.776-1.05-3.591-2.274c-0.838-1.257-1.069-2.848-0.66-4.301c0.399-1.413,1.416-2.591,2.726-3.235
			c1.353-0.667,2.987-0.683,4.363-0.073C29.106,18.059,30.317,19.951,30.327,21.98c0,0.191,0.297,0.191,0.297,0
			c-0.007-1.482-0.607-2.904-1.667-3.938c-1.059-1.036-2.525-1.588-4.004-1.541c-1.472,0.043-2.881,0.706-3.871,1.792
			c-1.003,1.096-1.512,2.581-1.416,4.06c0.092,1.465,0.799,2.848,1.911,3.802c1.129,0.97,2.634,1.432,4.112,1.287
			c1.34-0.132,2.598-0.772,3.505-1.766c0.918-1.003,1.423-2.333,1.429-3.69C30.624,21.789,30.327,21.789,30.327,21.98z"/>
	</g>
</g>
<g>
	<g>
		<g>
			<g>
				<path fill="#FFFFFF" stroke="#000000" stroke-width="0.3" stroke-miterlimit="10" d="M9.096,21.793l1.611,5.268
					c-2.909,0.889-5.989-0.748-6.879-3.657s0.748-5.989,3.657-6.879c0.532-0.163,1.054-0.241,1.611-0.241V21.793L9.096,21.793z"/>
			</g>
		</g>
		<g>
			<g>
				<path stroke="#000000" stroke-width="0.3" stroke-miterlimit="10" d="M9.096,21.793v-5.509c3.042,0,5.509,2.466,5.509,5.509
					c0,2.483-1.524,4.542-3.898,5.268L9.096,21.793z"/>
			</g>
		</g>
	</g>
</g>
<g>
	<g>
		<g>
			<g>
				<path fill="#FFFFFF" stroke="#000000" stroke-width="0.3" stroke-miterlimit="10" d="M25.154,22.002l3.614,4.157
					c-2.296,1.996-5.776,1.753-7.772-0.543s-1.753-5.776,0.543-7.772c1.042-0.906,2.233-1.351,3.614-1.351L25.154,22.002
					L25.154,22.002z"/>
			</g>
		</g>
		<g>
			<g>
				<path stroke="#000000" stroke-width="0.3" stroke-miterlimit="10" d="M25.154,22.002v-5.509c3.042,0,5.509,2.466,5.509,5.509
					c0,1.658-0.643,3.07-1.895,4.157L25.154,22.002z"/>
			</g>
		</g>
	</g>
</g>
<g>
	<g>
		<g>
			<g>
				<path fill="#FFFFFF" stroke="#000000" stroke-width="0.3" stroke-miterlimit="10" d="M41.214,22.089l4.993,2.328
					c-1.286,2.757-4.563,3.95-7.321,2.664c-2.757-1.286-3.95-4.563-2.664-7.321c0.923-1.98,2.808-3.181,4.993-3.181L41.214,22.089
					L41.214,22.089z"/>
			</g>
		</g>
		<g>
			<g>
				<path stroke="#000000" stroke-width="0.3" stroke-miterlimit="10" d="M41.214,22.089V16.58c3.042,0,5.509,2.466,5.509,5.509
					c0,0.855-0.155,1.553-0.516,2.328L41.214,22.089z"/>
			</g>
		</g>
	</g>
</g>
<text transform="matrix(1 0 0 1 4.1247 14.0969)" font-family="'TwCenMT-Bold'" font-size="2.9691">WOMEN</text>
<text transform="matrix(1 0 0 1 14.4902 14.0969)" font-family="'TwCenMT-Bold'" font-size="2.9691"> </text>
<text transform="matrix(1 0 0 1 14.8133 14.0969)" font-family="'TwCenMT-Bold'" font-size="2.9691">   </text>
<text transform="matrix(1 0 0 1 21.2267 14.0969)" font-family="'TwCenMT-Bold'" font-size="2.9691">BOTH</text>
<text transform="matrix(1 0 0 1 28.6795 14.0969)" font-family="'TwCenMT-Bold'" font-size="2.9691"> </text>
<text transform="matrix(1 0 0 1 29.7782 14.0969)" font-family="'TwCenMT-Bold'" font-size="2.9691"> </text>
<text transform="matrix(1 0 0 1 31.9162 14.0969)" font-family="'TwCenMT-Bold'" font-size="2.9691">   </text>
<text transform="matrix(1 0 0 1 34.2863 14.0969)" font-family="'TwCenMT-Bold'" font-size="2.9691"> </text>
<text transform="matrix(1 0 0 1 36.1915 14.0969)" font-family="'TwCenMT-Bold'" font-size="2.9691"> </text>
<text transform="matrix(1 0 0 1 38.3291 14.0969)" font-family="'TwCenMT-Bold'" font-size="2.9691">MEN</text>
<text transform="matrix(1 0 0 1 2.7215 35.5292)" font-family="'TwCenMT-Bold'" font-size="3.5629">45%</text>
<text transform="matrix(1 0 0 1 9.9171 35.5292)" font-family="'TwCenMT-Bold'" font-size="2.9691"> </text>
<text transform="matrix(1 0 0 1 10.7071 35.5292)" font-family="'TwCenMT-Bold'" font-size="2.9691"> </text>
<text transform="matrix(1 0 0 1 11.2724 35.5292)" font-family="'Verdana'" font-size="2.3753">of women and </text>
<text transform="matrix(1 0 0 1 29.0783 35.5292)" font-family="'Verdana'" font-size="2.3753"> </text>
<text transform="matrix(1 0 0 1 30.5125 35.5292)" font-family="'TwCenMT-Bold'" font-size="3.5629">32%</text>
<text transform="matrix(1 0 0 1 37.7082 35.5292)" font-family="'TwCenMT-Bold'" font-size="2.9691"> </text>
<text transform="matrix(1 0 0 1 38.4982 35.5292)" font-family="'TwCenMT-Bold'" font-size="2.9691"> </text>
<text transform="matrix(1 0 0 1 39.0635 35.5292)" font-family="'Verdana'" font-size="2.3753">of men </text>
<text transform="matrix(1 0 0 1 7.0791 39.9347)" font-family="'Verdana'" font-size="2.3753">prefer the missionary position</text>
</svg>
