<?xml version="1.0" encoding="utf-8"?>
<!-- Generator: Adobe Illustrator 17.1.0, SVG Export Plug-In . SVG Version: 6.00 Build 0)  -->
<!DOCTYPE svg PUBLIC "-//W3C//DTD SVG 1.1//EN" "http://www.w3.org/Graphics/SVG/1.1/DTD/svg11.dtd">
<svg version="1.1" id="Lager_1" xmlns="http://www.w3.org/2000/svg" xmlns:xlink="http://www.w3.org/1999/xlink" x="0px" y="0px"
	 viewBox="0 0 842 517" enable-background="new 0 0 842 517" xml:space="preserve">
<g>
	<rect x="50.411" y="388.125" fill="#F43C11" width="121.077" height="72.23"/>
	<rect x="42.965" y="381.521" fill="#F7C421" width="123.219" height="74.372"/>
</g>
<g>
	<rect x="518.291" y="384.286" fill="#F43C11" width="121.077" height="72.23"/>
	<rect x="510.846" y="377.683" fill="#F7C421" width="123.219" height="74.372"/>
</g>
<g>
	<circle fill="#FFFFFF" cx="692.851" cy="208.648" r="89.856"/>
	<g>
		<path d="M780.159,208.648c0,25.243-11.116,49.096-29.875,65.771c-18.99,16.674-44.928,24.317-69.939,20.843
			c-24.548-3.474-46.549-17.832-60.444-38.443c-14.127-21.074-18.064-47.938-11.116-72.487
			c6.716-23.622,23.853-43.538,46.086-54.423c22.695-11.116,50.254-11.579,73.413-1.158
			C759.548,142.645,780.159,174.373,780.159,208.648c0,3.242,5.095,3.242,5.095,0c0-25.011-10.19-48.865-28.022-66.234
			s-42.612-26.632-67.392-25.938c-24.78,0.695-48.633,11.811-65.307,30.106c-16.906,18.527-25.475,43.538-23.853,68.318
			c1.621,24.78,13.432,47.938,32.191,63.918c18.99,16.443,44.465,24.085,69.244,21.769c22.464-2.316,43.77-12.969,59.055-29.643
			c15.516-16.906,23.853-39.37,24.085-62.065C785.254,205.405,780.159,205.405,780.159,208.648z"/>
	</g>
</g>
<line fill="none" stroke="#000000" stroke-width="4.6317" stroke-miterlimit="10" x1="763.253" y1="101.655" x2="802.16" y2="101.655"/>
<line fill="none" stroke="#000000" stroke-width="4.6317" stroke-miterlimit="10" x1="799.844" y1="99.339" x2="799.844" y2="138.245"/>
<line fill="none" stroke="#000000" stroke-width="4.6317" stroke-miterlimit="10" x1="757.232" y1="144.73" x2="799.844" y2="101.655"/>
<g>
	<circle fill="#FFFFFF" cx="151.177" cy="204.918" r="89.874"/>
	<g>
		<path d="M238.55,204.918c-0.111,25.178-11.005,49.022-29.847,65.752c-18.897,16.785-44.965,24.289-69.921,20.732
			c-24.567-3.446-46.743-17.675-60.472-38.295c-14.118-21.176-18.008-47.966-11.116-72.422c6.725-23.789,23.844-43.631,45.91-54.469
			c22.788-11.227,50.301-11.505,73.478-1.223C217.985,138.888,238.383,170.735,238.55,204.918c0,3.224,5.002,3.224,5.002,0
			c-0.111-24.956-10.227-48.911-28.068-66.308c-17.841-17.452-42.519-26.734-67.42-25.956c-24.789,0.723-48.522,11.894-65.196,30.18
			c-16.897,18.453-25.456,43.464-23.844,68.364c1.556,24.678,13.451,47.966,32.181,64.029
			c19.009,16.341,44.353,24.122,69.254,21.677c22.566-2.223,43.742-13.006,59.027-29.736c15.451-16.897,23.955-39.296,24.066-62.139
			C243.552,201.694,238.55,201.694,238.55,204.918z"/>
	</g>
</g>
<rect x="127.055" y="314.356" width="48.244" height="5.225"/>
<rect x="148.12" y="297.237" width="5.225" height="40.796"/>
<g>
	<circle fill="#FFFFFF" cx="423.339" cy="207.65" r="89.874"/>
	<g>
		<path d="M510.712,207.65c-0.111,25.178-11.005,49.022-29.847,65.752c-18.897,16.785-44.965,24.289-69.921,20.732
			c-24.567-3.446-46.743-17.675-60.472-38.295c-14.118-21.176-18.008-47.966-11.116-72.422c6.725-23.789,23.844-43.631,45.91-54.469
			c22.788-11.227,50.301-11.505,73.478-1.223C490.147,141.62,510.545,173.468,510.712,207.65c0,3.224,5.002,3.224,5.002,0
			c-0.111-24.956-10.227-48.911-28.068-66.308c-17.841-17.452-42.519-26.734-67.42-25.956c-24.789,0.723-48.522,11.894-65.196,30.18
			c-16.897,18.453-25.456,43.464-23.844,68.364c1.556,24.678,13.451,47.966,32.181,64.029
			c19.009,16.341,44.353,24.122,69.254,21.677c22.566-2.223,43.742-13.006,59.027-29.736c15.451-16.897,23.955-39.296,24.066-62.139
			C515.714,204.427,510.712,204.427,510.712,207.65z"/>
	</g>
</g>
<g>
	<g>
		<g>
			<g>
				<path fill="#FFFFFF" stroke="#000000" stroke-width="5.3" stroke-miterlimit="10" d="M153.182,204.499l27.122,88.713
					c-48.995,14.979-100.857-12.596-115.836-61.591s12.596-100.856,61.591-115.836c8.966-2.741,17.747-4.053,27.122-4.053v92.767
					H153.182z"/>
			</g>
		</g>
		<g>
			<g>
				<path stroke="#000000" stroke-width="5.3" stroke-miterlimit="10" d="M153.182,204.499v-92.767
					c51.234,0,92.767,41.533,92.767,92.767c0,41.807-25.664,76.49-65.644,88.713L153.182,204.499z"/>
			</g>
		</g>
	</g>
</g>
<g>
	<g>
		<g>
			<g>
				<path fill="#FFFFFF" stroke="#000000" stroke-width="5.3" stroke-miterlimit="10" d="M423.598,208.015l60.861,70.012
					c-38.667,33.612-97.26,29.515-130.873-9.151s-29.515-97.26,9.151-130.873c17.555-15.26,37.6-22.755,60.861-22.755V208.015z"/>
			</g>
		</g>
		<g>
			<g>
				<path stroke="#000000" stroke-width="5.3" stroke-miterlimit="10" d="M423.598,208.015v-92.767
					c51.234,0,92.767,41.533,92.767,92.767c0,27.922-10.833,51.693-31.906,70.012L423.598,208.015z"/>
			</g>
		</g>
	</g>
</g>
<g>
	<g>
		<g>
			<g>
				<path fill="#FFFFFF" stroke="#000000" stroke-width="5.3" stroke-miterlimit="10" d="M694.048,209.473l84.075,39.205
					c-21.652,46.434-76.847,66.523-123.28,44.87c-46.434-21.652-66.523-76.847-44.87-123.28
					c15.546-33.339,47.289-53.562,84.075-53.562L694.048,209.473L694.048,209.473z"/>
			</g>
		</g>
		<g>
			<g>
				<path stroke="#000000" stroke-width="5.3" stroke-miterlimit="10" d="M694.048,209.473v-92.767
					c51.234,0,92.767,41.533,92.767,92.767c0,14.397-2.607,26.157-8.692,39.205L694.048,209.473z"/>
			</g>
		</g>
	</g>
</g>
<text transform="matrix(1 0 0 1 69.4615 74.8877)" enable-background="new    "><tspan x="0" y="0" font-family="'TwCenMT-Bold'" font-size="50">WOMEN</tspan><tspan x="174.561" y="0" font-family="'TwCenMT-Bold'" font-size="50" letter-spacing="-7">	</tspan><tspan x="180" y="0" font-family="'TwCenMT-Bold'" font-size="50" letter-spacing="22">			</tspan><tspan x="288" y="0" font-family="'TwCenMT-Bold'" font-size="50">BOTH</tspan></text>
<text transform="matrix(1 0 0 1 482.9625 74.8877)" font-family="'TwCenMT-Bold'" font-size="50" letter-spacing="5"> </text>
<text transform="matrix(1 0 0 1 501.4615 74.8877)" font-family="'TwCenMT-Bold'" font-size="50" letter-spacing="22"> </text>
<text transform="matrix(1 0 0 1 537.4615 74.8877)" font-family="'TwCenMT-Bold'" font-size="50">   </text>
<text transform="matrix(1 0 0 1 577.3785 74.8877)" font-family="'TwCenMT-Bold'" font-size="50" letter-spacing="18"> </text>
<text transform="matrix(1 0 0 1 609.4615 74.8877)" font-family="'TwCenMT-Bold'" font-size="50" letter-spacing="22"> </text>
<text transform="matrix(1 0 0 1 645.4615 74.8877)" font-family="'TwCenMT-Bold'" font-size="50">MEN</text>
<text transform="matrix(1 0 0 1 45.834 435.8025)" font-family="'TwCenMT-Bold'" font-size="60">45%</text>
<text transform="matrix(1 0 0 1 167.006 435.8025)" font-family="'TwCenMT-Bold'" font-size="50"> </text>
<text transform="matrix(1 0 0 1 180.312 435.8025)" font-family="'TwCenMT-Bold'" font-size="50" letter-spacing="-3"> </text>
<text transform="matrix(1 0 0 1 189.834 435.8025)" font-family="'Verdana'" font-size="40">of women and </text>
<text transform="matrix(1 0 0 1 489.678 435.8025)" font-family="'Verdana'" font-size="40" letter-spacing="10"> </text>
<text transform="matrix(1 0 0 1 513.834 435.8025)" font-family="'TwCenMT-Bold'" font-size="60">32%</text>
<text transform="matrix(1 0 0 1 635.006 435.8025)" font-family="'TwCenMT-Bold'" font-size="50"> </text>
<text transform="matrix(1 0 0 1 648.312 435.8025)" font-family="'TwCenMT-Bold'" font-size="50" letter-spacing="-3"> </text>
<text transform="matrix(1 0 0 1 657.834 435.8025)" font-family="'Verdana'" font-size="40">of men </text>
<text transform="matrix(1 0 0 1 211.053 490.8025)" font-family="'Verdana'" font-size="40">prefer the 69 position</text>
<rect x="2300.614" y="1479.13" fill="#F43C11" width="793.22" height="473.204"/>
</svg>
