<?xml version="1.0" encoding="utf-8"?>
<!-- Generator: Adobe Illustrator 17.1.0, SVG Export Plug-In . SVG Version: 6.00 Build 0)  -->
<!DOCTYPE svg PUBLIC "-//W3C//DTD SVG 1.1//EN" "http://www.w3.org/Graphics/SVG/1.1/DTD/svg11.dtd">
<svg version="1.1" id="Lager_1" xmlns="http://www.w3.org/2000/svg" xmlns:xlink="http://www.w3.org/1999/xlink" x="0px" y="0px"
	 viewBox="0 0 842 517" enable-background="new 0 0 842 517" xml:space="preserve">
<g>
	<rect x="174.375" y="145.826" fill="#F43C11" width="75.674" height="40.156"/>
	<rect x="169.722" y="142.155" fill="#F7C421" width="77.013" height="41.347"/>
</g>
<g>
	<g>
		<circle fill="#FFFFFF" cx="98.359" cy="449.74" r="52.015"/>
		<g>
			<path d="M148.899,449.74c0,14.612-6.435,28.421-17.294,38.073c-10.993,9.652-26.007,14.076-40.486,12.065
				c-14.21-2.011-26.946-10.323-34.989-22.254c-8.178-12.199-10.457-27.75-6.435-41.96c3.888-13.674,13.808-25.203,26.678-31.504
				c13.138-6.435,29.091-6.703,42.497-0.67C136.968,411.534,148.899,429.9,148.899,449.74c0,1.877,2.949,1.877,2.949,0
				c0-14.478-5.899-28.286-16.221-38.341s-24.667-15.417-39.011-15.015c-14.344,0.402-28.152,6.837-37.805,17.428
				c-9.786,10.725-14.746,25.203-13.808,39.547c0.938,14.344,7.775,27.75,18.634,37c10.993,9.518,25.739,13.942,40.084,12.602
				c13.004-1.341,25.337-7.507,34.185-17.16c8.982-9.786,13.808-22.79,13.942-35.928
				C151.848,447.864,148.899,447.864,148.899,449.74z"/>
		</g>
	</g>
	
		<line fill="none" stroke="#000000" stroke-width="2.6812" stroke-miterlimit="10" x1="139.113" y1="387.805" x2="161.635" y2="387.805"/>
	
		<line fill="none" stroke="#000000" stroke-width="2.6812" stroke-miterlimit="10" x1="160.294" y1="386.465" x2="160.294" y2="408.986"/>
	
		<line fill="none" stroke="#000000" stroke-width="2.6812" stroke-miterlimit="10" x1="135.627" y1="412.74" x2="160.294" y2="387.805"/>
</g>
<g>
	<g>
		<circle fill="#FFFFFF" cx="100.475" cy="164.506" r="52.026"/>
		<g>
			<path d="M151.053,164.506c-0.064,14.575-6.37,28.378-17.278,38.062c-10.939,9.717-26.029,14.06-40.475,12.001
				c-14.221-1.995-27.058-10.231-35.005-22.168c-8.172-12.258-10.424-27.766-6.435-41.923c3.893-13.771,13.803-25.257,26.576-31.531
				c13.191-6.499,29.118-6.66,42.534-0.708C139.148,126.283,150.956,144.719,151.053,164.506c0,1.866,2.896,1.866,2.896,0
				c-0.064-14.446-5.92-28.313-16.248-38.384c-10.328-10.103-24.613-15.476-39.027-15.025c-14.35,0.418-28.088,6.885-37.74,17.471
				c-9.781,10.682-14.736,25.16-13.803,39.574c0.901,14.285,7.786,27.766,18.629,37.065c11.004,9.459,25.675,13.964,40.089,12.548
				c13.063-1.287,25.321-7.529,34.169-17.213c8.944-9.781,13.867-22.747,13.931-35.971
				C153.948,162.64,151.053,162.64,151.053,164.506z"/>
		</g>
	</g>
	<rect x="86.511" y="227.857" width="27.927" height="3.024"/>
	<rect x="98.705" y="217.947" width="3.024" height="23.616"/>
</g>
<g>
	<circle fill="#FFFFFF" cx="98.235" cy="313.032" r="52.026"/>
	<g>
		<path d="M148.813,313.032c-0.064,14.575-6.37,28.378-17.278,38.062c-10.939,9.717-26.029,14.06-40.475,12.001
			c-14.221-1.995-27.058-10.231-35.005-22.168c-8.172-12.258-10.424-27.766-6.435-41.923c3.893-13.771,13.803-25.257,26.576-31.531
			c13.191-6.499,29.118-6.66,42.534-0.708C136.909,274.809,148.716,293.245,148.813,313.032c0,1.866,2.896,1.866,2.896,0
			c-0.064-14.446-5.92-28.313-16.248-38.384c-10.328-10.103-24.613-15.476-39.027-15.025c-14.35,0.418-28.088,6.885-37.74,17.471
			c-9.781,10.682-14.736,25.16-13.803,39.574c0.901,14.285,7.786,27.766,18.629,37.065c11.004,9.459,25.675,13.964,40.089,12.548
			c13.063-1.287,25.321-7.529,34.169-17.213c8.944-9.781,13.867-22.747,13.931-35.971
			C151.709,311.166,148.813,311.166,148.813,313.032z"/>
	</g>
</g>
<text transform="matrix(1 0 0 1 40.4615 71.8877)" font-family="'TwCenMT-Bold'" font-size="50">GIVE ORAL</text>
<text transform="matrix(1 0 0 1 186.2388 171.3064)" font-family="'TwCenMT-Bold'" font-size="30">8%</text>
<rect x="2300.614" y="1479.13" fill="#F43C11" width="793.22" height="473.204"/>
<line fill="none" stroke="#000000" stroke-width="3" stroke-miterlimit="10" x1="418.952" y1="0" x2="418.952" y2="517"/>
<g>
	<g>
		<circle fill="#FFFFFF" cx="517.769" cy="450.986" r="52.015"/>
		<g>
			<path d="M568.309,450.986c0,14.612-6.435,28.421-17.294,38.073c-10.993,9.652-26.007,14.076-40.486,12.065
				c-14.21-2.011-26.946-10.323-34.989-22.254c-8.178-12.199-10.457-27.75-6.435-41.96c3.888-13.674,13.808-25.203,26.678-31.504
				c13.138-6.435,29.091-6.703,42.497-0.67C556.378,412.779,568.309,431.145,568.309,450.986c0,1.877,2.949,1.877,2.949,0
				c0-14.478-5.899-28.286-16.221-38.341c-10.323-10.054-24.667-15.417-39.011-15.015c-14.344,0.402-28.152,6.837-37.805,17.428
				c-9.786,10.725-14.746,25.203-13.808,39.547s7.775,27.75,18.634,37c10.993,9.518,25.739,13.942,40.084,12.602
				c13.004-1.341,25.337-7.507,34.185-17.16c8.982-9.786,13.808-22.79,13.942-35.928
				C571.258,449.109,568.309,449.109,568.309,450.986z"/>
		</g>
	</g>
	
		<line fill="none" stroke="#000000" stroke-width="2.6812" stroke-miterlimit="10" x1="558.523" y1="389.051" x2="581.045" y2="389.051"/>
	
		<line fill="none" stroke="#000000" stroke-width="2.6812" stroke-miterlimit="10" x1="579.704" y1="387.71" x2="579.704" y2="410.232"/>
	
		<line fill="none" stroke="#000000" stroke-width="2.6812" stroke-miterlimit="10" x1="555.037" y1="413.985" x2="579.704" y2="389.051"/>
</g>
<g>
	<g>
		<circle fill="#FFFFFF" cx="519.885" cy="165.752" r="52.026"/>
		<g>
			<path d="M570.463,165.752c-0.064,14.575-6.37,28.378-17.278,38.062c-10.939,9.717-26.029,14.06-40.475,12.001
				c-14.221-1.995-27.059-10.231-35.006-22.168c-8.172-12.258-10.424-27.766-6.435-41.923c3.893-13.771,13.803-25.257,26.576-31.531
				c13.191-6.499,29.118-6.66,42.534-0.708C558.558,127.529,570.366,145.964,570.463,165.752c0,1.866,2.896,1.866,2.896,0
				c-0.064-14.446-5.92-28.313-16.248-38.384c-10.328-10.103-24.613-15.476-39.027-15.025c-14.35,0.418-28.088,6.885-37.74,17.471
				c-9.781,10.682-14.736,25.16-13.803,39.574c0.901,14.285,7.786,27.766,18.629,37.065c11.004,9.459,25.675,13.964,40.089,12.548
				c13.063-1.287,25.321-7.529,34.169-17.213c8.944-9.781,13.867-22.747,13.931-35.971
				C573.358,163.885,570.463,163.885,570.463,165.752z"/>
		</g>
	</g>
	<rect x="505.921" y="229.102" width="27.927" height="3.024"/>
	<rect x="518.115" y="219.193" width="3.024" height="23.616"/>
</g>
<g>
	<circle fill="#FFFFFF" cx="517.645" cy="314.278" r="52.026"/>
	<g>
		<path d="M568.223,314.278c-0.064,14.575-6.37,28.378-17.278,38.062c-10.939,9.717-26.029,14.06-40.475,12.001
			c-14.221-1.995-27.058-10.231-35.005-22.168c-8.172-12.258-10.424-27.766-6.435-41.923c3.893-13.771,13.803-25.257,26.576-31.531
			c13.191-6.499,29.118-6.66,42.534-0.708C556.319,276.055,568.127,294.491,568.223,314.278c0,1.866,2.896,1.866,2.896,0
			c-0.064-14.446-5.92-28.313-16.248-38.384c-10.328-10.103-24.613-15.476-39.027-15.025c-14.35,0.418-28.088,6.885-37.74,17.471
			c-9.781,10.682-14.736,25.16-13.803,39.574c0.901,14.285,7.786,27.766,18.629,37.065c11.004,9.459,25.675,13.964,40.089,12.548
			c13.063-1.287,25.321-7.529,34.169-17.213c8.944-9.781,13.867-22.747,13.931-35.971
			C571.119,312.412,568.223,312.412,568.223,314.278z"/>
	</g>
</g>
<text transform="matrix(1 0 0 1 459.8716 73.1331)" font-family="'TwCenMT-Bold'" font-size="50">RECEIVE ORAL</text>
<g>
	<g>
		<g>
			<g>
				<path fill="#FFFFFF" stroke="#000000" stroke-width="3" stroke-miterlimit="10" d="M100.698,164.869l25.999-46.903
					c25.904,14.359,35.263,46.998,20.904,72.901c-14.359,25.904-46.998,35.263-72.901,20.904
					c-25.904-14.359-35.263-46.998-20.904-72.901c9.635-17.381,27.03-27.628,46.903-27.628L100.698,164.869L100.698,164.869z"/>
			</g>
		</g>
		<g>
			<g>
				<path stroke="#000000" stroke-width="3" stroke-miterlimit="10" d="M100.698,164.869v-53.626c9.714,0,17.502,2.014,25.999,6.724
					L100.698,164.869z"/>
			</g>
		</g>
	</g>
</g>
<text transform="matrix(1 0 0 1 256.606 160.8035)" font-family="'Verdana'" font-size="16">of women prefer </text>
<text transform="matrix(1 0 0 1 256.606 180.0035)" font-family="'Verdana'" font-size="16">giving anal sex</text>
<g>
	<g>
		<g>
			<g>
				<path fill="#FFFFFF" stroke="#000000" stroke-width="3" stroke-miterlimit="10" d="M99.326,450.822l48.199-23.508
					c12.983,26.62,1.929,58.724-24.691,71.707c-26.62,12.983-58.724,1.929-71.707-24.691s-1.929-58.724,24.691-71.707
					c7.533-3.674,15.127-5.427,23.508-5.427C99.326,397.196,99.326,450.822,99.326,450.822z"/>
			</g>
		</g>
		<g>
			<g>
				<path stroke="#000000" stroke-width="3" stroke-miterlimit="10" d="M99.326,450.822v-53.626
					c21.206,0,38.903,11.058,48.199,30.118L99.326,450.822z"/>
			</g>
		</g>
	</g>
</g>
<g>
	<rect x="173.4" y="432.78" fill="#F43C11" width="75.674" height="40.156"/>
	<rect x="168.746" y="429.108" fill="#F7C421" width="77.013" height="41.347"/>
</g>
<text transform="matrix(1 0 0 1 178.2636 458.2601)" font-family="'TwCenMT-Bold'" font-size="30">18%</text>
<text transform="matrix(1 0 0 1 255.6308 447.7572)" font-family="'Verdana'" font-size="16">of men prefer </text>
<text transform="matrix(1 0 0 1 255.6308 466.9572)" font-family="'Verdana'" font-size="16">giving anal sex</text>
<g>
	<g>
		<g>
			<g>
				<path fill="#FFFFFF" stroke="#000000" stroke-width="3" stroke-miterlimit="10" d="M99.083,312.636l39.22-36.573
					c20.199,21.66,19.014,55.594-2.647,75.793s-55.594,19.014-75.793-2.647c-20.199-21.66-19.014-55.594,2.647-75.793
					c10.137-9.453,22.712-14.406,36.573-14.406C99.083,259.01,99.083,312.636,99.083,312.636z"/>
			</g>
		</g>
		<g>
			<g>
				<path stroke="#000000" stroke-width="3" stroke-miterlimit="10" d="M99.083,312.636V259.01c15.756,0,28.474,5.53,39.22,17.053
					L99.083,312.636z"/>
			</g>
		</g>
	</g>
</g>
<g>
	<rect x="177.079" y="290.539" fill="#F43C11" width="75.674" height="40.156"/>
	<rect x="172.426" y="286.867" fill="#F7C421" width="77.013" height="41.347"/>
</g>
<text transform="matrix(1 0 0 1 181.943 316.0188)" font-family="'TwCenMT-Bold'" font-size="30">13%</text>
<text transform="matrix(1 0 0 1 259.3101 305.5159)" font-family="'Verdana'" font-size="16">prefer giving </text>
<text transform="matrix(1 0 0 1 259.3101 324.7159)" font-family="'Verdana'" font-size="16">anal sex in total</text>
<g>
	<g>
		<g>
			<g>
				<path fill="#FFFFFF" stroke="#000000" stroke-width="3" stroke-miterlimit="10" d="M520.179,166.565l51.799-13.88
					c7.665,28.608-9.312,58.013-37.919,65.678s-58.013-9.312-65.678-37.919s9.312-58.013,37.919-65.678
					c4.72-1.265,8.993-1.827,13.879-1.827V166.565z"/>
			</g>
		</g>
		<g>
			<g>
				<path stroke="#000000" stroke-width="3" stroke-miterlimit="10" d="M520.179,166.565v-53.626
					c24.701,0,45.406,15.888,51.799,39.747L520.179,166.565z"/>
			</g>
		</g>
	</g>
</g>
<g>
	<g>
		<g>
			<g>
				<path fill="#FFFFFF" stroke="#000000" stroke-width="3" stroke-miterlimit="10" d="M517.805,314.687h53.626
					c0,29.617-24.009,53.626-53.626,53.626s-53.626-24.009-53.626-53.626c0-29.38,24.246-53.626,53.626-53.626V314.687z"/>
			</g>
		</g>
		<g>
			<g>
				<path stroke="#000000" stroke-width="3" stroke-miterlimit="10" d="M517.805,314.687V261.06
					c29.617,0,53.626,24.009,53.626,53.626c0,0.237,0-0.237,0,0h-53.626V314.687z"/>
			</g>
		</g>
	</g>
</g>
<g>
	<g>
		<g>
			<g>
				<path fill="#FFFFFF" stroke="#000000" stroke-width="3" stroke-miterlimit="10" d="M516.629,450.598l51.799,13.879
					c-7.665,28.608-37.071,45.585-65.678,37.919c-28.608-7.665-45.585-37.071-37.919-65.678
					c6.309-23.544,27.424-39.747,51.799-39.747L516.629,450.598L516.629,450.598z"/>
			</g>
		</g>
		<g>
			<g>
				<path stroke="#000000" stroke-width="3" stroke-miterlimit="10" d="M516.629,450.598v-53.626
					c29.617,0,53.626,24.009,53.626,53.626c0,5.213-0.478,8.845-1.827,13.879L516.629,450.598z"/>
			</g>
		</g>
	</g>
</g>
<g>
	<rect x="589.152" y="145.297" fill="#F43C11" width="75.674" height="40.156"/>
	<rect x="584.498" y="141.626" fill="#F7C421" width="77.013" height="41.347"/>
</g>
<text transform="matrix(1 0 0 1 594.0157 170.7775)" font-family="'TwCenMT-Bold'" font-size="30">21%</text>
<text transform="matrix(1 0 0 1 671.3828 160.2746)" font-family="'Verdana'" font-size="16">of women prefer </text>
<text transform="matrix(1 0 0 1 671.3828 179.4746)" font-family="'Verdana'" font-size="16">receving anal sex</text>
<polyline fill="#F43C11" points="589.704,292.785 665.379,292.785 665.379,332.941 589.704,332.941 "/>
<polyline fill="#F7C421" points="585.05,289.113 662.064,289.113 662.064,330.46 585.05,330.46 "/>
<text transform="matrix(1 0 0 1 594.5677 318.2651)" font-family="'TwCenMT-Bold'" font-size="30">25%</text>
<text transform="matrix(1 0 0 1 671.9349 307.7622)" font-family="'Verdana'" font-size="16">prefer receiving</text>
<text transform="matrix(1 0 0 1 671.9349 326.9622)" font-family="'Verdana'" font-size="16">anal sex in total</text>
<polyline fill="#F43C11" points="592.706,436.064 668.38,436.064 668.38,476.22 592.706,476.22 "/>
<polyline fill="#F7C421" points="588.052,432.393 665.065,432.393 665.065,473.74 588.052,473.74 "/>
<text transform="matrix(1 0 0 1 597.5694 461.5444)" font-family="'TwCenMT-Bold'" font-size="30">29%</text>
<text transform="matrix(1 0 0 1 674.9365 451.0415)" font-family="'Verdana'" font-size="16">of men prefer </text>
<text transform="matrix(1 0 0 1 674.9365 470.2415)" font-family="'Verdana'" font-size="16">receving anal sex</text>
<rect x="496.156" y="435.766" fill="#FFFFFF" width="19.012" height="31.277"/>
</svg>
