<?xml version="1.0" encoding="utf-8"?>
<!-- Generator: Adobe Illustrator 17.1.0, SVG Export Plug-In . SVG Version: 6.00 Build 0)  -->
<!DOCTYPE svg PUBLIC "-//W3C//DTD SVG 1.1//EN" "http://www.w3.org/Graphics/SVG/1.1/DTD/svg11.dtd">
<svg version="1.1" id="Lager_1" xmlns="http://www.w3.org/2000/svg" xmlns:xlink="http://www.w3.org/1999/xlink" x="0px" y="0px"
	 viewBox="0 0 842 517" enable-background="new 0 0 842 517" xml:space="preserve">
<g>
	<rect x="174.4" y="145.8" fill="#F43C11" width="75.7" height="40.2"/>
	<rect x="169.7" y="142.2" fill="#F7C421" width="77" height="41.3"/>
</g>
<g>
	<g>
		<circle fill="#FFFFFF" cx="98.4" cy="449.7" r="52"/>
		<g>
			<path d="M148.9,449.7c0,14.6-6.4,28.4-17.3,38.1c-11,9.7-26,14.1-40.5,12.1c-14.2-2-26.9-10.3-35-22.3
				c-8.2-12.2-10.5-27.8-6.4-42c3.9-13.7,13.8-25.2,26.7-31.5c13.1-6.4,29.1-6.7,42.5-0.7C137,411.5,148.9,429.9,148.9,449.7
				c0,1.9,2.9,1.9,2.9,0c0-14.5-5.9-28.3-16.2-38.3s-24.7-15.4-39-15c-14.3,0.4-28.2,6.8-37.8,17.4C49,424.5,44.1,439,45,453.4
				c0.9,14.3,7.8,27.8,18.6,37c11,9.5,25.7,13.9,40.1,12.6c13-1.3,25.3-7.5,34.2-17.2c9-9.8,13.8-22.8,13.9-35.9
				C151.8,447.9,148.9,447.9,148.9,449.7z"/>
		</g>
	</g>
	<line fill="none" stroke="#000000" stroke-width="2.6812" stroke-miterlimit="10" x1="139.1" y1="387.8" x2="161.6" y2="387.8"/>
	<line fill="none" stroke="#000000" stroke-width="2.6812" stroke-miterlimit="10" x1="160.3" y1="386.5" x2="160.3" y2="409"/>
	<line fill="none" stroke="#000000" stroke-width="2.6812" stroke-miterlimit="10" x1="135.6" y1="412.7" x2="160.3" y2="387.8"/>
</g>
<g>
	<g>
		<circle fill="#FFFFFF" cx="100.5" cy="164.5" r="52"/>
		<g>
			<path d="M151.1,164.5c-0.1,14.6-6.4,28.4-17.3,38.1c-10.9,9.7-26,14.1-40.5,12c-14.2-2-27.1-10.2-35-22.2
				c-8.2-12.3-10.4-27.8-6.4-41.9c3.9-13.8,13.8-25.3,26.6-31.5c13.2-6.5,29.1-6.7,42.5-0.7C139.1,126.3,151,144.7,151.1,164.5
				c0,1.9,2.9,1.9,2.9,0c-0.1-14.4-5.9-28.3-16.2-38.4c-10.3-10.1-24.6-15.5-39-15c-14.3,0.4-28.1,6.9-37.7,17.5
				c-9.8,10.7-14.7,25.2-13.8,39.6c0.9,14.3,7.8,27.8,18.6,37.1c11,9.5,25.7,14,40.1,12.5c13.1-1.3,25.3-7.5,34.2-17.2
				c8.9-9.8,13.9-22.7,13.9-36C153.9,162.6,151.1,162.6,151.1,164.5z"/>
		</g>
	</g>
	<rect x="86.5" y="227.9" width="27.9" height="3"/>
	<rect x="98.7" y="217.9" width="3" height="23.6"/>
</g>
<g>
	<circle fill="#FFFFFF" cx="98.2" cy="313" r="52"/>
	<g>
		<path d="M148.8,313c-0.1,14.6-6.4,28.4-17.3,38.1c-10.9,9.7-26,14.1-40.5,12c-14.2-2-27.1-10.2-35-22.2
			c-8.2-12.3-10.4-27.8-6.4-41.9c3.9-13.8,13.8-25.3,26.6-31.5c13.2-6.5,29.1-6.7,42.5-0.7C136.9,274.8,148.7,293.2,148.8,313
			c0,1.9,2.9,1.9,2.9,0c-0.1-14.4-5.9-28.3-16.2-38.4c-10.3-10.1-24.6-15.5-39-15c-14.3,0.4-28.1,6.9-37.7,17.5
			c-9.8,10.7-14.7,25.2-13.8,39.6c0.9,14.3,7.8,27.8,18.6,37.1c11,9.5,25.7,14,40.1,12.5c13.1-1.3,25.3-7.5,34.2-17.2
			c8.9-9.8,13.9-22.7,13.9-36C151.7,311.2,148.8,311.2,148.8,313z"/>
	</g>
</g>
<text transform="matrix(1 0 0 1 40.4615 71.8877)" font-family="'TwCenMT-Bold'" font-size="50">GIVE ORAL</text>
<text transform="matrix(1 0 0 1 186.2388 171.3064)" font-family="'TwCenMT-Bold'" font-size="30">8%</text>
<rect x="2300.6" y="1479.1" fill="#F43C11" width="793.2" height="473.2"/>
<line fill="none" stroke="#000000" stroke-width="3" stroke-miterlimit="10" x1="419" y1="0" x2="419" y2="517"/>
<g>
	<g>
		<circle fill="#FFFFFF" cx="517.8" cy="451" r="52"/>
		<g>
			<path d="M568.3,451c0,14.6-6.4,28.4-17.3,38.1c-11,9.7-26,14.1-40.5,12.1c-14.2-2-26.9-10.3-35-22.3c-8.2-12.2-10.5-27.8-6.4-42
				c3.9-13.7,13.8-25.2,26.7-31.5c13.1-6.4,29.1-6.7,42.5-0.7C556.4,412.8,568.3,431.1,568.3,451c0,1.9,2.9,1.9,2.9,0
				c0-14.5-5.9-28.3-16.2-38.3c-10.3-10.1-24.7-15.4-39-15c-14.3,0.4-28.2,6.8-37.8,17.4c-9.8,10.7-14.7,25.2-13.8,39.5
				c0.9,14.3,7.8,27.8,18.6,37c11,9.5,25.7,13.9,40.1,12.6c13-1.3,25.3-7.5,34.2-17.2c9-9.8,13.8-22.8,13.9-35.9
				C571.3,449.1,568.3,449.1,568.3,451z"/>
		</g>
	</g>
	<line fill="none" stroke="#000000" stroke-width="2.6812" stroke-miterlimit="10" x1="558.5" y1="389.1" x2="581" y2="389.1"/>
	<line fill="none" stroke="#000000" stroke-width="2.6812" stroke-miterlimit="10" x1="579.7" y1="387.7" x2="579.7" y2="410.2"/>
	<line fill="none" stroke="#000000" stroke-width="2.6812" stroke-miterlimit="10" x1="555" y1="414" x2="579.7" y2="389.1"/>
</g>
<g>
	<g>
		<circle fill="#FFFFFF" cx="519.9" cy="165.8" r="52"/>
		<g>
			<path d="M570.5,165.8c-0.1,14.6-6.4,28.4-17.3,38.1c-10.9,9.7-26,14.1-40.5,12c-14.2-2-27.1-10.2-35-22.2
				c-8.2-12.3-10.4-27.8-6.4-41.9c3.9-13.8,13.8-25.3,26.6-31.5c13.2-6.5,29.1-6.7,42.5-0.7C558.6,127.5,570.4,146,570.5,165.8
				c0,1.9,2.9,1.9,2.9,0c-0.1-14.4-5.9-28.3-16.2-38.4c-10.3-10.1-24.6-15.5-39-15c-14.3,0.4-28.1,6.9-37.7,17.5
				c-9.8,10.7-14.7,25.2-13.8,39.6c0.9,14.3,7.8,27.8,18.6,37.1c11,9.5,25.7,14,40.1,12.5c13.1-1.3,25.3-7.5,34.2-17.2
				c8.9-9.8,13.9-22.7,13.9-36C573.4,163.9,570.5,163.9,570.5,165.8z"/>
		</g>
	</g>
	<rect x="505.9" y="229.1" width="27.9" height="3"/>
	<rect x="518.1" y="219.2" width="3" height="23.6"/>
</g>
<g>
	<circle fill="#FFFFFF" cx="517.6" cy="314.3" r="52"/>
	<g>
		<path d="M568.2,314.3c-0.1,14.6-6.4,28.4-17.3,38.1c-10.9,9.7-26,14.1-40.5,12c-14.2-2-27.1-10.2-35-22.2
			c-8.2-12.3-10.4-27.8-6.4-41.9c3.9-13.8,13.8-25.3,26.6-31.5c13.2-6.5,29.1-6.7,42.5-0.7C556.3,276.1,568.1,294.5,568.2,314.3
			c0,1.9,2.9,1.9,2.9,0c-0.1-14.4-5.9-28.3-16.2-38.4c-10.3-10.1-24.6-15.5-39-15c-14.3,0.4-28.1,6.9-37.7,17.5
			c-9.8,10.7-14.7,25.2-13.8,39.6c0.9,14.3,7.8,27.8,18.6,37.1c11,9.5,25.7,14,40.1,12.5c13.1-1.3,25.3-7.5,34.2-17.2
			c8.9-9.8,13.9-22.7,13.9-36C571.1,312.4,568.2,312.4,568.2,314.3z"/>
	</g>
</g>
<text transform="matrix(1 0 0 1 459.8716 73.1331)" font-family="'TwCenMT-Bold'" font-size="50">RECEIVE ORAL</text>
<g>
	<g>
		<g>
			<g>
				<path fill="#FFFFFF" stroke="#000000" stroke-width="3" stroke-miterlimit="10" d="M100.7,164.9l26-46.9
					c25.9,14.4,35.3,47,20.9,72.9c-14.4,25.9-47,35.3-72.9,20.9c-25.9-14.4-35.3-47-20.9-72.9c9.6-17.4,27-27.6,46.9-27.6V164.9z"/>
			</g>
		</g>
		<g>
			<g>
				<path stroke="#000000" stroke-width="3" stroke-miterlimit="10" d="M100.7,164.9v-53.6c9.7,0,17.5,2,26,6.7L100.7,164.9z"/>
			</g>
		</g>
	</g>
	<g>
		<g>
		</g>
		<g>
		</g>
	</g>
</g>
<text transform="matrix(1 0 0 1 256.606 160.8035)"><tspan x="0" y="0" font-family="'Verdana'" font-size="16">of women prefer </tspan><tspan x="0" y="19.2" font-family="'Verdana'" font-size="16">giving oral sex</tspan></text>
<g>
	<g>
		<g>
			<g>
				<path fill="#FFFFFF" stroke="#000000" stroke-width="3" stroke-miterlimit="10" d="M99.3,450.8l48.2-23.5
					c13,26.6,1.9,58.7-24.7,71.7c-26.6,13-58.7,1.9-71.7-24.7s-1.9-58.7,24.7-71.7c7.5-3.7,15.1-5.4,23.5-5.4V450.8z"/>
			</g>
		</g>
		<g>
			<g>
				<path stroke="#000000" stroke-width="3" stroke-miterlimit="10" d="M99.3,450.8v-53.6c21.2,0,38.9,11.1,48.2,30.1L99.3,450.8z"
					/>
			</g>
		</g>
	</g>
	<g>
		<g>
		</g>
		<g>
		</g>
	</g>
</g>
<g>
	<rect x="173.4" y="432.8" fill="#F43C11" width="75.7" height="40.2"/>
	<rect x="168.7" y="429.1" fill="#F7C421" width="77" height="41.3"/>
</g>
<text transform="matrix(1 0 0 1 178.2636 458.2601)" font-family="'TwCenMT-Bold'" font-size="30">18%</text>
<text transform="matrix(1 0 0 1 255.6308 447.7572)"><tspan x="0" y="0" font-family="'Verdana'" font-size="16">of men prefer </tspan><tspan x="0" y="19.2" font-family="'Verdana'" font-size="16">giving oral sex</tspan></text>
<g>
	<g>
		<g>
			<g>
				<path fill="#FFFFFF" stroke="#000000" stroke-width="3" stroke-miterlimit="10" d="M99.1,312.6l39.2-36.6
					c20.2,21.7,19,55.6-2.6,75.8s-55.6,19-75.8-2.6c-20.2-21.7-19-55.6,2.6-75.8C72.6,264,85.2,259,99.1,259V312.6z"/>
			</g>
		</g>
		<g>
			<g>
				<path stroke="#000000" stroke-width="3" stroke-miterlimit="10" d="M99.1,312.6V259c15.8,0,28.5,5.5,39.2,17.1L99.1,312.6z"/>
			</g>
		</g>
	</g>
	<g>
		<g>
		</g>
		<g>
		</g>
	</g>
</g>
<g>
	<rect x="177.1" y="290.5" fill="#F43C11" width="75.7" height="40.2"/>
	<rect x="172.4" y="286.9" fill="#F7C421" width="77" height="41.3"/>
</g>
<text transform="matrix(1 0 0 1 181.943 316.0188)" font-family="'TwCenMT-Bold'" font-size="30">13%</text>
<text transform="matrix(1 0 0 1 259.3101 305.5159)"><tspan x="0" y="0" font-family="'Verdana'" font-size="16">prefer giving </tspan><tspan x="0" y="19.2" font-family="'Verdana'" font-size="16">oral sex in total</tspan></text>
<g>
	<g>
		<g>
			<g>
				<path fill="#FFFFFF" stroke="#000000" stroke-width="3" stroke-miterlimit="10" d="M520.2,166.6l51.8-13.9
					c7.7,28.6-9.3,58-37.9,65.7s-58-9.3-65.7-37.9s9.3-58,37.9-65.7c4.7-1.3,9-1.8,13.9-1.8V166.6z"/>
			</g>
		</g>
		<g>
			<g>
				<path stroke="#000000" stroke-width="3" stroke-miterlimit="10" d="M520.2,166.6v-53.6c24.7,0,45.4,15.9,51.8,39.7L520.2,166.6z
					"/>
			</g>
		</g>
	</g>
	<g>
		<g>
		</g>
		<g>
		</g>
	</g>
</g>
<g>
	<g>
		<g>
			<g>
				<path fill="#FFFFFF" stroke="#000000" stroke-width="3" stroke-miterlimit="10" d="M517.8,314.7h53.6c0,29.6-24,53.6-53.6,53.6
					c-29.6,0-53.6-24-53.6-53.6c0-29.4,24.2-53.6,53.6-53.6V314.7z"/>
			</g>
		</g>
		<g>
			<g>
				<path stroke="#000000" stroke-width="3" stroke-miterlimit="10" d="M517.8,314.7v-53.6c29.6,0,53.6,24,53.6,53.6
					c0,0.2,0-0.2,0,0H517.8z"/>
			</g>
		</g>
	</g>
	<g>
		<g>
		</g>
		<g>
		</g>
	</g>
</g>
<g>
	<g>
		<g>
			<g>
				<path fill="#FFFFFF" stroke="#000000" stroke-width="3" stroke-miterlimit="10" d="M516.6,450.6l51.8,13.9
					c-7.7,28.6-37.1,45.6-65.7,37.9c-28.6-7.7-45.6-37.1-37.9-65.7c6.3-23.5,27.4-39.7,51.8-39.7V450.6z"/>
			</g>
		</g>
		<g>
			<g>
				<path stroke="#000000" stroke-width="3" stroke-miterlimit="10" d="M516.6,450.6V397c29.6,0,53.6,24,53.6,53.6
					c0,5.2-0.5,8.8-1.8,13.9L516.6,450.6z"/>
			</g>
		</g>
	</g>
	<g>
		<g>
		</g>
		<g>
		</g>
	</g>
</g>
<g>
	<rect x="589.2" y="145.3" fill="#F43C11" width="75.7" height="40.2"/>
	<rect x="584.5" y="141.6" fill="#F7C421" width="77" height="41.3"/>
</g>
<text transform="matrix(1 0 0 1 594.0157 170.7775)" font-family="'TwCenMT-Bold'" font-size="30">21%</text>
<text transform="matrix(1 0 0 1 671.3828 160.2746)"><tspan x="0" y="0" font-family="'Verdana'" font-size="16">of women prefer </tspan><tspan x="0" y="19.2" font-family="'Verdana'" font-size="16">receving oral sex</tspan></text>
<polyline fill="#F43C11" points="589.7,292.8 665.4,292.8 665.4,332.9 589.7,332.9 "/>
<polyline fill="#F7C421" points="585.1,289.1 662.1,289.1 662.1,330.5 585.1,330.5 "/>
<text transform="matrix(1 0 0 1 594.5677 318.2651)" font-family="'TwCenMT-Bold'" font-size="30">25%</text>
<text transform="matrix(1 0 0 1 671.9349 307.7622)"><tspan x="0" y="0" font-family="'Verdana'" font-size="16">prefer receiving</tspan><tspan x="0" y="19.2" font-family="'Verdana'" font-size="16">oral sex in total</tspan></text>
<polyline fill="#F43C11" points="592.7,436.1 668.4,436.1 668.4,476.2 592.7,476.2 "/>
<polyline fill="#F7C421" points="588.1,432.4 665.1,432.4 665.1,473.7 588.1,473.7 "/>
<text transform="matrix(1 0 0 1 597.5694 461.5444)" font-family="'TwCenMT-Bold'" font-size="30">29%</text>
<text transform="matrix(1 0 0 1 674.9365 451.0415)"><tspan x="0" y="0" font-family="'Verdana'" font-size="16">of men prefer </tspan><tspan x="0" y="19.2" font-family="'Verdana'" font-size="16">receving oral sex</tspan></text>
</svg>
