<?xml version="1.0" encoding="utf-8"?>
<!-- Generator: Adobe Illustrator 17.1.0, SVG Export Plug-In . SVG Version: 6.00 Build 0)  -->
<!DOCTYPE svg PUBLIC "-//W3C//DTD SVG 1.1//EN" "http://www.w3.org/Graphics/SVG/1.1/DTD/svg11.dtd">
<svg version="1.1" id="Lager_1" xmlns="http://www.w3.org/2000/svg" xmlns:xlink="http://www.w3.org/1999/xlink" x="0px" y="0px"
	 viewBox="345.5 235 500 400" enable-background="new 345.5 235 500 400" xml:space="preserve">
<g>
	<ellipse fill="#FFFFFF" cx="606.319" cy="361.373" rx="98.395" ry="22.378"/>
	<g>
		<path d="M703.82,361.373c-0.074,2.903-2.645,4.998-4.854,6.49c-3.807,2.571-8.255,4.18-12.594,5.587
			c-13.525,4.383-27.905,6.306-42.003,7.672c-18.261,1.77-36.676,2.103-55.003,1.403c-16.38-0.625-32.818-2.155-48.894-5.434
			c-9.442-1.926-20.899-4.2-28.547-10.522c-1.953-1.615-3.639-3.881-2.904-6.523c0.819-2.943,4.101-4.927,6.564-6.326
			c9.913-5.633,22.115-7.75,33.206-9.603c17.087-2.855,34.48-3.942,51.786-4.19c23.883-0.344,48.14,0.944,71.587,5.729
			c7.718,1.575,15.556,3.547,22.701,6.933C698.254,354.195,703.71,356.99,703.82,361.373c0.029,1.15,1.817,1.153,1.787,0
			c-0.16-6.31-8.162-9.72-13.019-11.73c-11.528-4.772-24.311-6.869-36.608-8.486c-34.312-4.514-69.888-4.413-104.131,0.68
			c-11.665,1.734-23.732,4.018-34.512,8.986c-4.527,2.087-11.484,6.06-10.111,12.093c1.459,6.407,10.87,9.566,16.152,11.446
			c12.473,4.443,25.877,6.417,38.976,7.928c32.5,3.748,66.064,3.432,98.433-1.382c11.185-1.663,22.59-3.887,33.043-8.328
			c4.572-1.943,11.629-5.368,11.776-11.208C705.637,360.22,703.85,360.223,703.82,361.373z"/>
	</g>
</g>
<g>
	<g>
		<path d="M507.031,361.373c0.005,3.161-0.615,7.024,1.113,9.874c1.586,2.614,4.431,4.402,7.045,5.833
			c9.713,5.317,21.331,7.477,32.12,9.311c33.916,5.767,69.456,5.83,103.577,1.942c14.323-1.633,29.39-3.793,42.747-9.499
			c3.704-1.583,7.634-3.502,10.265-6.658c2.351-2.821,1.66-7.339,1.712-10.8c0.017-1.153-1.77-1.152-1.787,0
			c-0.045,3.04,0.509,7.366-1.187,9.538c-2.193,2.806-5.736,4.517-8.902,5.945c-11.35,5.116-24.266,7.174-36.496,8.885
			c-17.724,2.48-35.692,3.3-53.575,3.231c-17.509-0.067-35.077-1.126-52.398-3.747c-11.113-1.682-22.662-3.856-32.942-8.575
			c-2.934-1.347-5.909-3.011-8.04-5.487c-2.239-2.601-1.456-6.627-1.462-9.789C508.815,360.221,507.029,360.221,507.031,361.373
			L507.031,361.373z"/>
	</g>
</g>
<g>
	<g>
		<path d="M704.893,369.191c8.702-0.307,14.8,7.358,16.94,14.989c1.618,5.767,2.121,11.927,2.63,17.869
			c0.589,6.884,0.861,13.794,1.039,20.7c0.714,27.795,0.133,55.684-0.095,83.483c-0.195,23.768-0.486,47.536-0.866,71.302
			c-0.013,0.845-0.028,1.692-0.041,2.539c-0.002,0.192-0.006,0.383-0.009,0.574c0.008-0.462,0.394-0.563-0.614,0.057
			c-1.374,0.844-2.913,1.209-4.515,1.229c-0.547,0.007-4.168-1.072-4.161-1.282c0.021-0.63,0.042-1.26,0.062-1.891
			c0.296-9.099,0.547-18.198,0.776-27.298c0.882-34.919,1.172-69.833,1.307-104.761c0.064-16.627,0.309-33.418-1.675-49.957
			c-0.623-5.196-0.981-12.125-4.518-16.289c-3.089-3.636-7.454-4.869-11.966-5.737c-0.235-0.045-0.47-0.094-0.704-0.145
			c-1.124-0.24-1.602,1.483-0.475,1.724c5.101,1.088,10.099,2.113,12.917,7.031c1.491,2.602,1.833,6.092,2.327,9.006
			c0.625,3.694,1,7.429,1.311,11.162c1.449,17.4,1.035,34.959,0.956,52.401c-0.154,33.916-0.527,67.815-1.425,101.721
			c-0.2,7.536-0.415,15.071-0.664,22.605c-0.157,4.711,12.778,4.815,12.862-0.293c0.348-21.034,0.609-42.07,0.811-63.106
			c0.271-28.288,0.623-56.605,0.348-84.895c-0.129-13.255-0.46-26.608-2.286-39.754c-1.384-9.97-4.525-20.381-15.004-23.905
			c-1.645-0.553-3.518-0.928-5.265-0.867C703.744,367.444,703.739,369.232,704.893,369.191L704.893,369.191z"/>
	</g>
</g>
<g>
	<g>
		<path d="M704.369,370.675c1.153,0,1.153-1.787,0-1.787C703.215,368.889,703.215,370.675,704.369,370.675L704.369,370.675z"/>
	</g>
</g>
<g>
	<g>
		<path d="M698.242,376.466c1.152,0,1.152-1.787,0-1.787C697.09,374.679,697.09,376.466,698.242,376.466L698.242,376.466z"/>
	</g>
</g>
<g>
	<g>
		<path d="M631.044,389.3c8.089,12.321,9.246,26.797,9.507,41.037c0.301,16.444,0.341,32.894,0.391,49.341
			c0.112,36.94,0.043,73.881-0.076,110.821c-0.015,4.825-0.032,9.651-0.051,14.476c-0.002,0.487,0.407,0.893,0.894,0.893
			c6.36,0,12.72,0,19.081,0c0.493,0,0.885-0.407,0.894-0.893c0.528-32.908,0.651-65.829,0.457-98.74
			c-0.126-21.272-0.407-42.547-1.115-63.807c-0.303-9.11-0.693-18.219-1.276-27.317c-0.645-10.093-3.042-19.762-9.367-27.848
			c-0.709-0.908-1.964,0.366-1.264,1.264c7.793,9.963,8.645,22.105,9.289,34.244c0.601,11.308,0.961,22.629,1.241,33.948
			c0.625,25.265,0.78,50.541,0.775,75.812c-0.004,24.148-0.143,48.298-0.53,72.444c0.298-0.298,0.595-0.595,0.894-0.894
			c-6.36,0-12.719,0-19.081,0c0.298,0.298,0.596,0.596,0.894,0.894c0.106-25.923,0.159-51.846,0.174-77.769
			c0.019-34.632,0.411-69.327-0.601-103.949c-0.353-12.066-2.867-24.618-9.589-34.857
			C631.958,387.439,630.409,388.332,631.044,389.3L631.044,389.3z"/>
	</g>
</g>
<g>
	<g>
		<path d="M570.147,389.466c0,25.196,0,50.392,0,75.588c0,31.481,0,62.962,0,94.443c0,1.232,0,2.464,0,3.696
			c0,0.487,0.406,0.893,0.893,0.893c5.419,0,10.836,0,16.254,0c0.487,0,0.893-0.406,0.893-0.893c0-25.196,0-50.392,0-75.588
			c0-31.481,0-62.962,0-94.443c0-1.232,0-2.464,0-3.696c0-1.152-1.787-1.152-1.787,0c0,25.196,0,50.392,0,75.588
			c0,31.481,0,62.962,0,94.443c0,1.232,0,2.464,0,3.696c0.298-0.298,0.596-0.596,0.893-0.894c-5.418,0-10.835,0-16.254,0
			c0.298,0.298,0.596,0.595,0.893,0.894c0-25.196,0-50.392,0-75.588c0-31.481,0-62.962,0-94.443c0-1.232,0-2.464,0-3.696
			C571.934,388.314,570.147,388.314,570.147,389.466L570.147,389.466z"/>
	</g>
</g>
<g>
	<g>
		<path d="M515.274,375.305c-5.997,0.473-11.826,3.84-16.068,7.924c-4.533,4.365-7.144,10.122-8.883,16.073
			c-1.642,5.623-1.547,11.322-1.709,17.128c-0.596,21.338-0.856,42.689-1.12,64.033c-0.426,34.272-0.727,68.546-0.935,102.818
			c0,0.011,0,0.024,0,0.035c-0.002,0.295,0.167,0.639,0.443,0.771c1.597,0.77,3.193,1.54,4.79,2.31
			c0.611,0.295,1.323-0.059,1.345-0.771c0.718-23.258,0.777-46.545,0.591-69.81c-0.14-17.538-0.331-35.076-0.418-52.615
			c-0.084-16.872-0.894-33.968,0.473-50.799c0.615-7.57,1.991-15.325,5.773-22.008c4.123-7.285,13.432-10.236,21.292-10.753
			c1.143-0.075,1.151-1.863,0-1.787c-6.057,0.398-12.052,2.063-17.096,5.513c-4.933,3.375-7.487,8.752-9.201,14.302
			c-4.478,14.496-3.177,30.777-3.086,45.728c0.215,35.226,0.745,70.467,0.496,105.692c-0.087,12.178-0.234,24.362-0.61,36.536
			c0.448-0.258,0.897-0.514,1.345-0.771c-1.508-0.728-3.015-1.456-4.523-2.182c-0.025-0.012,0.174,1.153,0.18,0.097
			c0.009-1.471,0.018-2.941,0.029-4.412c0.044-6.629,0.091-13.258,0.143-19.888c0.17-22.076,0.37-44.152,0.621-66.228
			c0.256-22.532,0.535-45.064,1.053-67.592c0.27-11.774-0.394-23.656,5.686-34.25c3.903-6.8,11.27-12.393,19.219-13.294
			c0.058-0.006,0.117-0.012,0.174-0.017C516.416,377.002,516.423,375.215,515.274,375.305L515.274,375.305z"/>
	</g>
</g>
<g>
	<g>
		<path d="M528.898,382.942c0.002,0,0.006,0.001,0.009,0.001c1.152,0.059,1.145-1.727,0-1.787
			c-6.086-0.321-12.857,1.922-17.559,5.732c-9.332,7.558-10.608,20.766-11.695,31.933c-1.312,13.485-1.198,27.085-1.115,40.619
			c0.093,15.199-0.373,30.397-0.388,45.598c-0.017,18.384,0.229,36.767,0.589,55.148c0.121,6.191,0.261,12.383,0.383,18.575
			c0.037,1.857,0.071,3.713,0.093,5.57c0.004,0.288,0.005,0.575,0.008,0.863c0.007,0.965,0.631-0.1,0.111,0.117
			c-2.083,0.872-4.589,1.253-6.459-0.312c-0.877-0.734-2.149,0.523-1.264,1.264c2.604,2.179,6.027,1.85,8.96,0.443
			c0.277-0.132,0.443-0.476,0.443-0.771c-0.031-24.791-1.002-49.581-1.069-74.375c-0.044-16.052,0.455-32.102,0.403-48.15
			c-0.044-13.206-0.212-26.416,0.686-39.602c0.772-11.341,1.42-26.044,10.154-34.43c4.476-4.297,11.504-6.759,17.721-6.43
			c0-0.596,0-1.191,0-1.787c-0.002,0-0.006-0.001-0.009-0.001C527.746,381.095,527.753,382.884,528.898,382.942L528.898,382.942z"/>
	</g>
</g>
<g>
	<g>
		<path d="M567.274,388.895c0,25.339,0,50.679,0,76.017c0,30.92,0,61.841,0,92.76c0,2.857-0.087,3.148,2.255,5.313
			c0.844,0.781,2.112-0.48,1.264-1.264c-0.629-0.58-1.256-1.161-1.883-1.74c0.199,0.183,0.151,0.75,0.151,0.432
			c0-0.288,0-0.576,0-0.864c0-1.332,0-2.662,0-3.994c0-5.265,0-10.531,0-15.796c0-17.242,0-34.484,0-51.728
			c0-31.736,0-63.475,0-95.211c0-1.309,0-2.617,0-3.926C569.06,387.743,567.274,387.743,567.274,388.895L567.274,388.895z"/>
	</g>
</g>
<g>
	<g>
		<path d="M626.275,390.301c8.067,10.702,9.472,22.337,10.104,34.84c1.482,29.273,1.29,58.674,1.453,87.974
			c0.083,14.998,0.131,29.995,0.163,44.993c0.019,9.186,0.031,18.371,0.038,27.557c0.004,5.013,0.005,10.025,0.006,15.037
			c0,1.15,1.804,2.78,2.45,3.674c0.668,0.925,2.219,0.035,1.544-0.902c-0.441-0.61-0.881-1.221-1.322-1.831
			c-0.936-1.297-0.883-1.614-0.884-3.311c-0.002-4.969-0.004-9.937-0.008-14.905c-0.007-8.771-0.02-17.543-0.039-26.314
			c-0.031-14.666-0.081-29.332-0.161-43.998c-0.106-19.547-0.252-39.096-0.598-58.64c-0.242-13.684,0.051-27.727-1.853-41.322
			c-1.198-8.552-4.098-16.784-9.35-23.752C627.134,388.49,625.58,389.38,626.275,390.301L626.275,390.301z"/>
	</g>
</g>
<g>
	<g>
		<path d="M706.17,378.355c5.086,8.968,4.342,20.373,4.466,30.405c0.188,15.236,0.25,30.473,0.279,45.71
			c0.066,33.346-0.413,66.682-1.353,100.015c-0.178,6.322-0.372,12.643-0.584,18.963c-0.027,0.774-0.261,1.827-0.049,2.594
			c0.22,0.796,1.44,1.583,1.987,2.119c1.001,0.983,2.003,1.966,3.004,2.949c0.823,0.808,2.087-0.456,1.264-1.264
			c-1.257-1.232-2.513-2.466-3.769-3.698c-0.743-0.73-0.702-1.174-0.73-0.377c0.008-0.214,0.014-0.427,0.023-0.641
			c0.097-2.768,0.186-5.535,0.273-8.302c0.398-12.598,0.73-25.196,1.007-37.797c0.769-35.018,0.831-70.035,0.577-105.059
			c-0.057-7.891-0.111-15.784-0.273-23.674c-0.16-7.718-0.692-15.99-4.579-22.843C707.145,376.451,705.6,377.352,706.17,378.355
			L706.17,378.355z"/>
	</g>
</g>
</svg>
