<?xml version="1.0" encoding="utf-8"?>
<!-- Generator: Adobe Illustrator 17.1.0, SVG Export Plug-In . SVG Version: 6.00 Build 0)  -->
<!DOCTYPE svg PUBLIC "-//W3C//DTD SVG 1.1//EN" "http://www.w3.org/Graphics/SVG/1.1/DTD/svg11.dtd">
<svg version="1.1" id="Lager_1" xmlns="http://www.w3.org/2000/svg" xmlns:xlink="http://www.w3.org/1999/xlink" x="0px" y="0px"
	 viewBox="345.5 235 500 400" enable-background="new 345.5 235 500 400" xml:space="preserve">
<g>
	<ellipse fill="#FFFFFF" cx="598.038" cy="304.884" rx="124.119" ry="28.228"/>
	<g>
		<path d="M721.029,304.884c-0.093,3.662-3.337,6.305-6.123,8.187c-4.802,3.243-10.414,5.272-15.887,7.047
			c-17.061,5.529-35.2,7.954-52.985,9.678c-23.035,2.233-46.264,2.653-69.382,1.77c-20.662-0.788-41.398-2.718-61.676-6.855
			c-11.911-2.43-26.363-5.298-36.01-13.273c-2.464-2.037-4.59-4.896-3.663-8.229c1.033-3.712,5.173-6.215,8.28-7.98
			c12.504-7.106,27.897-9.776,41.888-12.113c21.554-3.601,43.495-4.972,65.325-5.286c30.127-0.434,60.726,1.191,90.303,7.226
			c9.736,1.987,19.623,4.474,28.636,8.746C714.008,295.829,720.89,299.354,721.029,304.884c0.037,1.451,2.292,1.455,2.255,0
			c-0.202-7.959-10.296-12.261-16.423-14.797c-14.542-6.019-30.666-8.665-46.178-10.705c-43.283-5.694-88.159-5.567-131.355,0.858
			c-14.715,2.188-29.937,5.069-43.535,11.336c-5.711,2.632-14.486,7.644-12.754,15.254c1.84,8.082,13.711,12.067,20.375,14.439
			c15.734,5.605,32.642,8.095,49.165,10.001c40.996,4.728,83.335,4.329,124.167-1.744c14.109-2.098,28.496-4.903,41.682-10.505
			c5.767-2.451,14.669-6.771,14.855-14.138C723.321,303.429,721.067,303.433,721.029,304.884z"/>
	</g>
</g>
<g>
	<g>
		<path d="M472.792,304.884c0.007,3.988-0.776,8.86,1.404,12.455c2,3.297,5.589,5.553,8.887,7.358
			c12.253,6.707,26.908,9.432,40.517,11.745c42.783,7.274,87.614,7.354,130.656,2.449c18.067-2.06,37.074-4.785,53.922-11.982
			c4.672-1.997,9.63-4.417,12.949-8.399c2.966-3.558,2.094-9.258,2.159-13.624c0.021-1.455-2.233-1.453-2.254,0
			c-0.057,3.835,0.642,9.292-1.498,12.031c-2.766,3.539-7.235,5.698-11.229,7.499c-14.318,6.454-30.61,9.05-46.037,11.208
			c-22.358,3.129-45.023,4.163-67.581,4.076c-22.086-0.085-44.248-1.42-66.096-4.727c-14.018-2.122-28.587-4.864-41.555-10.817
			c-3.701-1.699-7.454-3.798-10.142-6.922c-2.824-3.281-1.836-8.359-1.844-12.348C475.043,303.43,472.789,303.43,472.792,304.884
			L472.792,304.884z"/>
	</g>
</g>
<g>
	<g>
		<path d="M722.382,314.746c10.977-0.387,18.669,9.282,21.369,18.908c2.041,7.274,2.676,15.045,3.317,22.541
			c0.743,8.684,1.086,17.4,1.31,26.112c0.901,35.062,0.167,70.242-0.12,105.308c-0.246,29.982-0.613,59.964-1.093,89.943
			c-0.017,1.066-0.035,2.134-0.052,3.202c-0.003,0.242-0.008,0.483-0.012,0.724c0.01-0.583,0.497-0.71-0.775,0.072
			c-1.734,1.065-3.675,1.525-5.695,1.55c-0.69,0.009-5.258-1.352-5.249-1.617c0.026-0.795,0.053-1.589,0.078-2.385
			c0.373-11.477,0.69-22.955,0.979-34.435c1.113-44.048,1.478-88.09,1.648-132.149c0.081-20.974,0.39-42.155-2.113-63.017
			c-0.786-6.555-1.237-15.295-5.7-20.547c-3.897-4.587-9.402-6.142-15.094-7.237c-0.297-0.057-0.593-0.118-0.888-0.183
			c-1.418-0.303-2.021,1.87-0.599,2.174c6.435,1.372,12.739,2.666,16.294,8.869c1.881,3.283,2.313,7.685,2.936,11.36
			c0.788,4.66,1.262,9.371,1.654,14.08c1.827,21.949,1.306,44.099,1.206,66.1c-0.195,42.783-0.665,85.545-1.798,128.314
			c-0.252,9.506-0.523,19.011-0.838,28.515c-0.198,5.942,16.118,6.074,16.225-0.37c0.439-26.533,0.768-53.069,1.023-79.604
			c0.342-35.684,0.786-71.404,0.439-107.09c-0.163-16.721-0.581-33.564-2.884-50.147c-1.746-12.576-5.708-25.709-18.926-30.154
			c-2.075-0.698-4.438-1.171-6.641-1.094C720.933,312.542,720.927,314.797,722.382,314.746L722.382,314.746z"/>
	</g>
</g>
<g>
	<g>
		<path d="M721.721,316.618c1.454,0,1.454-2.255,0-2.255C720.266,314.364,720.266,316.618,721.721,316.618L721.721,316.618z"/>
	</g>
</g>
<g>
	<g>
		<path d="M713.993,323.923c1.454,0,1.454-2.255,0-2.255C712.539,321.668,712.539,323.923,713.993,323.923L713.993,323.923z"/>
	</g>
</g>
<g>
	<g>
		<path d="M629.226,340.112c10.203,15.542,11.663,33.803,11.992,51.766c0.38,20.743,0.43,41.494,0.493,62.24
			c0.141,46.597,0.054,93.196-0.095,139.794c-0.019,6.087-0.04,12.174-0.065,18.26c-0.002,0.614,0.514,1.127,1.128,1.127
			c8.023,0,16.046,0,24.069,0c0.622,0,1.117-0.513,1.128-1.127c0.666-41.511,0.822-83.039,0.577-124.554
			c-0.159-26.833-0.514-53.67-1.406-80.489c-0.382-11.492-0.875-22.982-1.609-34.458c-0.814-12.732-3.837-24.928-11.816-35.128
			c-0.894-1.145-2.478,0.462-1.594,1.594c9.83,12.567,10.905,27.884,11.718,43.197c0.758,14.264,1.212,28.545,1.566,42.823
			c0.788,31.87,0.984,63.754,0.978,95.632c-0.005,30.461-0.18,60.925-0.668,91.383c0.376-0.376,0.751-0.751,1.128-1.128
			c-8.023,0-16.045,0-24.069,0c0.376,0.376,0.752,0.752,1.128,1.128c0.134-32.7,0.201-65.401,0.219-98.101
			c0.024-43.686,0.519-87.452-0.758-131.125c-0.445-15.22-3.617-31.054-12.096-43.97
			C630.379,337.764,628.425,338.891,629.226,340.112L629.226,340.112z"/>
	</g>
</g>
<g>
	<g>
		<path d="M552.409,340.321c0,31.783,0,63.566,0,95.349c0,39.711,0,79.423,0,119.134c0,1.554,0,3.108,0,4.662
			c0,0.614,0.512,1.127,1.127,1.127c6.835,0,13.669,0,20.503,0c0.614,0,1.127-0.512,1.127-1.127c0-31.783,0-63.566,0-95.349
			c0-39.711,0-79.423,0-119.134c0-1.554,0-3.108,0-4.662c0-1.454-2.254-1.454-2.254,0c0,31.783,0,63.566,0,95.349
			c0,39.711,0,79.423,0,119.134c0,1.554,0,3.108,0,4.662c0.376-0.376,0.752-0.752,1.127-1.128c-6.835,0-13.668,0-20.503,0
			c0.376,0.376,0.752,0.751,1.127,1.128c0-31.783,0-63.566,0-95.349c0-39.711,0-79.423,0-119.134c0-1.554,0-3.108,0-4.662
			C554.663,338.868,552.409,338.868,552.409,340.321L552.409,340.321z"/>
	</g>
</g>
<g>
	<g>
		<path d="M483.19,322.458c-7.565,0.597-14.917,4.844-20.268,9.996c-5.718,5.506-9.012,12.769-11.205,20.275
			c-2.072,7.093-1.952,14.282-2.156,21.606c-0.752,26.917-1.079,53.849-1.413,80.774c-0.537,43.232-0.917,86.466-1.18,129.698
			c0,0.014,0,0.03,0,0.044c-0.002,0.372,0.211,0.806,0.558,0.973c2.014,0.971,4.028,1.943,6.042,2.913
			c0.771,0.372,1.669-0.075,1.696-0.973c0.906-29.338,0.98-58.714,0.745-88.061c-0.177-22.123-0.418-44.246-0.528-66.37
			c-0.106-21.283-1.127-42.848,0.597-64.08c0.776-9.55,2.511-19.332,7.282-27.762c5.201-9.189,16.944-12.912,26.859-13.564
			c1.442-0.095,1.452-2.35,0-2.255c-7.641,0.502-15.203,2.602-21.566,6.955c-6.223,4.258-9.444,11.04-11.606,18.041
			c-5.649,18.286-4.007,38.823-3.892,57.683c0.271,44.435,0.94,88.89,0.626,133.323c-0.109,15.362-0.295,30.731-0.77,46.088
			c0.565-0.325,1.131-0.649,1.696-0.973c-1.902-0.918-3.804-1.836-5.706-2.752c-0.032-0.015,0.219,1.455,0.227,0.123
			c0.011-1.856,0.023-3.71,0.037-5.566c0.055-8.362,0.115-16.724,0.18-25.087c0.214-27.847,0.467-55.695,0.783-83.542
			c0.323-28.422,0.675-56.846,1.328-85.263c0.341-14.852-0.497-29.841,7.172-43.204c4.923-8.578,14.217-15.633,24.243-16.77
			c0.073-0.008,0.147-0.015,0.219-0.021C484.63,324.599,484.64,322.344,483.19,322.458L483.19,322.458z"/>
	</g>
</g>
<g>
	<g>
		<path d="M500.376,332.092c0.003,0,0.008,0.001,0.012,0.001c1.454,0.075,1.445-2.178,0-2.255c-7.677-0.405-16.219,2.425-22.15,7.23
			c-11.772,9.534-13.381,26.195-14.752,40.282c-1.655,17.011-1.511,34.166-1.407,51.238c0.117,19.173-0.471,38.344-0.489,57.519
			c-0.022,23.19,0.289,46.38,0.743,69.566c0.153,7.81,0.329,15.62,0.483,23.431c0.047,2.342,0.09,4.684,0.117,7.026
			c0.005,0.363,0.007,0.725,0.01,1.088c0.009,1.218,0.796-0.127,0.14,0.147c-2.627,1.1-5.789,1.58-8.148-0.394
			c-1.106-0.926-2.711,0.66-1.594,1.594c3.285,2.749,7.603,2.334,11.302,0.558c0.349-0.167,0.559-0.601,0.558-0.973
			c-0.039-31.272-1.264-62.543-1.349-93.819c-0.055-20.249,0.574-40.494,0.508-60.738c-0.055-16.659-0.267-33.322,0.866-49.955
			c0.974-14.306,1.791-32.853,12.808-43.431c5.646-5.421,14.512-8.526,22.354-8.111c0-0.752,0-1.503,0-2.255
			c-0.003,0-0.008-0.001-0.012-0.001C498.923,329.762,498.931,332.018,500.376,332.092L500.376,332.092z"/>
	</g>
</g>
<g>
	<g>
		<path d="M548.784,339.601c0,31.964,0,63.928,0,95.891c0,39.003,0,78.008,0,117.011c0,3.604-0.11,3.971,2.844,6.702
			c1.065,0.985,2.664-0.606,1.594-1.594c-0.793-0.732-1.584-1.464-2.375-2.195c0.251,0.231,0.19,0.946,0.19,0.545
			c0-0.364,0-0.726,0-1.09c0-1.68,0-3.358,0-5.038c0-6.641,0-13.284,0-19.925c0-21.75,0-43.5,0-65.252c0-40.033,0-80.069,0-120.102
			c0-1.651,0-3.301,0-4.953C551.038,338.148,548.784,338.148,548.784,339.601L548.784,339.601z"/>
	</g>
</g>
<g>
	<g>
		<path d="M623.211,341.375c10.176,13.5,11.948,28.177,12.746,43.949c1.869,36.926,1.627,74.014,1.833,110.973
			c0.105,18.919,0.165,37.837,0.206,56.756c0.024,11.587,0.039,23.174,0.048,34.761c0.005,6.323,0.007,12.646,0.008,18.969
			c0,1.451,2.275,3.507,3.09,4.635c0.842,1.167,2.799,0.044,1.947-1.138c-0.556-0.77-1.111-1.54-1.668-2.31
			c-1.181-1.636-1.114-2.036-1.115-4.176c-0.002-6.268-0.005-12.535-0.01-18.802c-0.009-11.064-0.025-22.129-0.049-33.193
			c-0.039-18.5-0.102-37.001-0.203-55.501c-0.134-24.658-0.318-49.317-0.755-73.971c-0.306-17.261,0.065-34.976-2.337-52.125
			c-1.511-10.787-5.169-21.172-11.795-29.962C624.294,339.09,622.334,340.212,623.211,341.375L623.211,341.375z"/>
	</g>
</g>
<g>
	<g>
		<path d="M723.993,326.305c6.416,11.313,5.478,25.7,5.634,38.354c0.237,19.219,0.315,38.44,0.352,57.66
			c0.083,42.064-0.521,84.116-1.706,126.163c-0.225,7.974-0.469,15.948-0.737,23.921c-0.034,0.976-0.329,2.305-0.062,3.272
			c0.277,1.004,1.817,1.997,2.507,2.673c1.263,1.24,2.527,2.48,3.79,3.72c1.038,1.019,2.633-0.575,1.594-1.594
			c-1.585-1.554-3.17-3.111-4.754-4.665c-0.938-0.921-0.886-1.48-0.921-0.476c0.01-0.27,0.018-0.539,0.029-0.809
			c0.122-3.491,0.235-6.982,0.345-10.473c0.502-15.892,0.921-31.784,1.27-47.679c0.97-44.173,1.048-88.345,0.728-132.525
			c-0.072-9.954-0.14-19.91-0.345-29.863c-0.202-9.736-0.873-20.17-5.776-28.815C725.223,323.904,723.274,325.04,723.993,326.305
			L723.993,326.305z"/>
	</g>
</g>
</svg>
