<?xml version="1.0" encoding="utf-8"?>
<!-- Generator: Adobe Illustrator 17.1.0, SVG Export Plug-In . SVG Version: 6.00 Build 0)  -->
<!DOCTYPE svg PUBLIC "-//W3C//DTD SVG 1.1//EN" "http://www.w3.org/Graphics/SVG/1.1/DTD/svg11.dtd">
<svg version="1.1" id="Lager_1" xmlns="http://www.w3.org/2000/svg" xmlns:xlink="http://www.w3.org/1999/xlink" x="0px" y="0px"
	 viewBox="0 0 500 400" enable-background="new 0 0 500 400" xml:space="preserve">
<g>
	<path fill="#FFFFFF" d="M205.972,24.006l94.794,153.664l-6.654,4.267l9.168,16.11l8.222-3.435l83.289,135.476
		c0,0-6.414,12.58-14.093,13.794c0,0-25.451-12.352-31.783-19.237l-24.677-33.425c0,0,13.699-29.523-26.366-37.383l-53.932-73.945
		L191.421,31.564C191.421,31.564,194.224,22.709,205.972,24.006z"/>
	<g>
		<path d="M205.108,24.511c26.228,42.516,52.456,85.032,78.684,127.549c5.37,8.705,10.74,17.411,16.111,26.116
			c0.12-0.456,0.239-0.912,0.359-1.368c-2.218,1.422-4.436,2.845-6.654,4.267c-0.462,0.296-0.637,0.88-0.359,1.368
			c3.056,5.37,6.112,10.74,9.168,16.11c0.2,0.352,0.726,0.628,1.129,0.46c2.589-1.082,5.177-2.163,7.766-3.245
			c-0.084,0.035-1.058-1.275-0.065,0.34c1.587,2.582,3.174,5.163,4.762,7.745c6.568,10.683,13.136,21.367,19.704,32.05
			c16.034,26.08,32.068,52.161,48.102,78.241c3.365,5.474,6.73,10.947,10.095,16.421c-0.532-0.865,0.013-0.919-0.839,0.556
			c-1.036,1.794-2.223,3.498-3.494,5.132c-1.726,2.219-6.379,7.754-9.337,6.292c-7.173-3.543-14.248-7.326-21.067-11.513
			c-5.165-3.172-8.981-6.332-12.509-11.111c-4.516-6.117-9.032-12.233-13.548-18.35c-1.89-2.56-3.78-5.12-5.67-7.68
			c-0.572-0.775-1.144-1.55-1.716-2.324c-0.802-1.086-0.231-0.729-0.601,0.096c1.187-2.647,1.814-5.523,2.176-8.388
			c1.855-14.66-8.914-24.278-21.852-28.557c-2.06-0.681-6.029-0.441-7.241-2.103c-0.948-1.3-1.896-2.599-2.844-3.899
			c-3.539-4.852-7.077-9.703-10.616-14.555c-9.335-12.798-18.669-25.597-28.004-38.395c-3.231-4.43-6.462-8.859-9.692-13.289
			c-0.944-1.294-2.068-2.61-2.374-3.477c-16.757-47.327-33.514-94.654-50.271-141.981c-0.642-1.814-1.284-3.628-1.927-5.441
			c-0.032-0.091-0.064-0.182-0.096-0.272c0.266,0.75,0.429-0.458,0.848-1.162c2.673-4.486,7.907-5.506,12.735-5.138
			c1.287,0.098,1.278-1.902,0-2c-6.238-0.476-12.847,1.641-15.358,7.882c-0.485,1.204,0.503,2.805,0.902,3.932
			c3.326,9.395,6.653,18.79,9.979,28.185c10.42,29.431,20.841,58.862,31.261,88.292c3.149,8.893,6.298,17.787,9.447,26.68
			c1.664,4.701,5.312,8.505,8.228,12.503c15.427,21.151,30.854,42.302,46.28,63.454c0.234,0.32,0.476,0.78,0.895,0.867
			c4.898,1.014,9.63,2.385,14.133,4.594c5.676,2.785,10.409,7.298,12.575,13.304c2.006,5.562,1.526,12.626-0.939,18.016
			c-0.14,0.306-0.221,0.71,0,1.009c7.32,9.914,14.639,19.828,21.959,29.742c7.832,10.609,20.971,16.306,32.504,22.11
			c1.589,0.8,2.362,1.439,4.12,1.048c4.035-0.896,7.308-4.739,9.702-7.817c1.304-1.676,5.074-5.468,3.649-7.786
			c-4.125-6.71-8.25-13.42-12.376-20.13c-23.523-38.261-47.045-76.523-70.568-114.784c-0.213-0.346-0.716-0.632-1.129-0.46
			c-2.197,0.918-4.394,1.836-6.592,2.754c-1.905,0.796-0.956,0.34-0.634,0.906c-0.433-0.761-0.866-1.522-1.299-2.282
			c-2.579-4.531-5.157-9.062-7.736-13.593c-0.12,0.456-0.239,0.912-0.359,1.368c2.218-1.422,4.436-2.845,6.654-4.267
			c0.45-0.289,0.654-0.89,0.359-1.368c-26.228-42.516-52.456-85.032-78.684-127.549c-5.37-8.705-10.74-17.411-16.111-26.116
			C206.16,22.406,204.429,23.41,205.108,24.511z"/>
	</g>
</g>
<g>
	<path fill="#FFFFFF" d="M104.801,98.857l117.526,136.994l6.071-5.065l12.554,13.627l-5.754,6.813l103.702,120.506
		c0,0,13.907-2.322,17.384-9.289c0,0-4.056-28.042-8.692-36.171l-24.337-33.674c0,0-32.228,4.157-27.592-36.484l-54.041-73.866
		L116.39,87.246C116.39,87.246,107.119,87.246,104.801,98.857z"/>
	<g>
		<path d="M104.094,99.565c32.517,37.904,65.035,75.807,97.552,113.711c6.658,7.761,13.316,15.522,19.974,23.283
			c0.378,0.44,1.022,0.328,1.414,0c1.012-0.844,2.024-1.688,3.036-2.532c0.696-0.58,1.391-1.161,2.087-1.741
			c1.477-1.232-0.064-0.355-0.283-0.593c2.255,2.448,4.51,4.896,6.765,7.344c1.215,1.318,2.429,2.637,3.644,3.955
			c0.422,0.458,0.844,0.916,1.266,1.374c1.135,1.232-0.067,0.243,0.612-0.56c-1.89,2.238-3.78,4.476-5.67,6.714
			c-0.372,0.441-0.379,0.974,0,1.414c32.106,37.309,64.212,74.618,96.319,111.927c1.387,1.612,6.057,9.257,8.631,8.787
			c5.881-1.075,12.4-3.287,16.477-7.85c2.816-3.152,0.295-9.175-0.358-12.805c-1.405-7.81-2.9-15.799-5.729-23.238
			c-1.373-3.609-3.961-6.562-6.201-9.661c-6.504-8.999-13.008-17.999-19.512-26.998c-0.192-0.265-0.502-0.54-0.863-0.495
			c-8.573,1.06-17.689-2.573-22.55-9.772c-2.273-3.366-3.376-7.359-4.033-11.32c-0.464-2.796-0.489-5.662-0.44-8.487
			c0.024-1.384,1.08-5.338,0.287-6.422c-1.674-2.289-3.349-4.578-5.023-6.866c-15.951-21.803-31.903-43.606-47.854-65.409
			c-2.412-3.297-6.133-5.442-9.367-7.895c-9.972-7.565-19.944-15.13-29.916-22.695c-24.327-18.455-48.654-36.91-72.981-55.365
			c-4.609-3.496-9.218-6.993-13.826-10.489c-1.147-0.87-2.121-0.606-3.545-0.271c-5.765,1.359-8.901,6.585-10.169,11.983
			c-0.295,1.255,1.634,1.787,1.929,0.532c1.159-4.936,3.697-9.133,8.772-10.586c0.816-0.234,1.977,0.049,1.355-0.423
			c0.138,0.105,0.277,0.21,0.415,0.315c2.08,1.578,4.159,3.155,6.239,4.733c9.638,7.311,19.275,14.623,28.913,21.934
			c24.516,18.598,49.031,37.196,73.547,55.794c5.35,4.059,10.701,8.118,16.051,12.177c-0.726-0.551,0.199,0.367,0.512,0.794
			c1.064,1.455,2.129,2.909,3.193,4.364c3.688,5.04,7.375,10.081,11.063,15.121c9.329,12.751,18.657,25.502,27.986,38.253
			c3.071,4.197,6.141,8.394,9.212,12.592c0.567,0.775,1.134,1.55,1.701,2.325c0.372,0.509-0.457,4.62-0.493,5.504
			c-0.105,2.619,0.001,5.288,0.357,7.886c1.689,12.332,9.352,21.867,22.032,23.522c1.63,0.213,3.262,0.315,4.906,0.282
			c0.451-0.009,0.901-0.036,1.35-0.072c0.953-0.078-0.731-0.875-0.324-0.312c3.329,4.607,6.659,9.214,9.988,13.821
			c4.181,5.785,8.362,11.57,12.543,17.356c3.606,4.989,4.923,10.975,6.299,16.911c1.615,6.97,2.86,14.043,3.911,21.119
			c0.14,0.94-3.842,3.53-4.615,4.016c-2.019,1.272-4.307,2.099-6.562,2.843c-1.452,0.479-2.943,0.847-4.436,1.173
			c-1.497,0.328-0.387,0.097-0.159,0.361c-32.532-37.803-65.063-75.607-97.595-113.41c-1.794-2.085-3.588-4.169-5.382-6.254
			c-0.168-0.195-0.336-0.391-0.505-0.586c-0.503-0.585-0.536,1.734,0.184,0.881c1.812-2.145,3.623-4.291,5.435-6.436
			c0.363-0.43,0.393-0.988,0-1.414c-4.185-4.542-8.369-9.085-12.554-13.627c-0.393-0.427-1.01-0.337-1.414,0
			c-1.012,0.844-2.024,1.688-3.036,2.532c-0.696,0.58-1.391,1.161-2.087,1.741c-1.479,1.234-0.273-0.07,0.461,0.786
			c-0.301-0.351-0.603-0.702-0.904-1.053c-1.898-2.212-3.795-4.424-5.693-6.636c-7.7-8.976-15.4-17.951-23.1-26.927
			c-20.685-24.112-41.37-48.223-62.056-72.335c-8.59-10.013-17.179-20.025-25.769-30.038
			C104.667,97.17,103.259,98.591,104.094,99.565z"/>
	</g>
</g>
<g>
	<g>
		<path d="M232.882,238.695c5.342-15.926,10.137-31.997,20.562-45.41c3.856-4.961,8.095-8.746,8.688-15.127
			c0.775-8.342-0.519-16.949-3.029-24.9c-3.17-10.044-9.674-21.85-19.528-26.555c-8.317-3.971-20.915-4.035-27.928,2.672
			c-6.932,6.631-7.702,17.437-6.475,26.43c1.058,7.757,6.926,11.868,13.539,15.321c6.065,3.167,13.801,5.664,20.572,3.479
			c7.818-2.523,9.844-12.486,9.337-19.581c-0.346-4.841-1.826-13.056-5.833-16.322c-3.134-2.555-6.725-4.572-10.652-5.591
			c-5.113-1.327-10.143,0.285-13.755,4.046c-3.793,3.949-7.72,13.21-6.086,18.551c1.311,4.284,3.765,8.545,7.404,11.236
			c6.454,4.774,14.093,2.337,20.193-1.771c3.734-2.515,0.014-8.446-3.742-5.917c-3.509,2.363-7.658,4.684-11.768,2.454
			c-2.342-1.271-3.87-4.113-4.837-6.49c-1.137-2.795-0.312-3.295,0.546-6.443c0.976-3.577,2.849-7.74,6.654-8.938
			c3.809-1.2,8.612,1.867,11.268,3.983c1.73,1.379,2.291,5.132,2.881,7.317c1.367,5.058,1.781,12.973-3.055,16.439
			c-3.054,2.189-8.339,0.331-11.456-0.709c-4.355-1.454-8.638-3.98-12.031-7.061c-2.397-2.176-2.377-5.143-2.579-8.216
			c-0.344-5.248,0.156-11.38,3.375-15.749c3.238-4.395,9.681-5.175,14.707-4.642c6.707,0.711,10.964,4.118,14.927,9.334
			c6.748,8.88,10.016,19.959,10.503,30.996c0.102,2.308,0.086,4.669-0.158,6.969c-0.214,2.02,0.037,1.286-1.076,2.775
			c-5.252,7.03-11.318,13.526-15.243,21.455c-5.368,10.843-8.895,22.891-12.737,34.344
			C224.633,241.359,231.46,242.934,232.882,238.695L232.882,238.695z"/>
	</g>
</g>
</svg>
