<?xml version="1.0" encoding="utf-8"?>
<!-- Generator: Adobe Illustrator 17.1.0, SVG Export Plug-In . SVG Version: 6.00 Build 0)  -->
<!DOCTYPE svg PUBLIC "-//W3C//DTD SVG 1.1//EN" "http://www.w3.org/Graphics/SVG/1.1/DTD/svg11.dtd">
<svg version="1.1" id="Lager_1" xmlns="http://www.w3.org/2000/svg" xmlns:xlink="http://www.w3.org/1999/xlink" x="0px" y="0px"
	 viewBox="345.5 235 500 400" enable-background="new 345.5 235 500 400" xml:space="preserve">
<g id="Layer_1">
	<path fill="none" stroke="#000000" stroke-miterlimit="10" d="M834.747,374.156c-43.214,18.628-85.422,36.831-127.643,55.004
		c-4.441,1.911-8.828,4.135-13.464,5.36c-9.969,2.635-17.579-4.435-26.266-7.122c-1.398-0.432-4.037-1.157-5.796-1.926
		c0.846-1.17,2.524-1.103,2.509-2.137c-0.042-3.178-0.717-4.948-2.665-6.862c-4.544-4.465-10.651-10.027-15.36-14.326
		c-0.461-0.42-2.576-1.047-2.965-0.906c-2.166,0.786-3.743,1.636-3.743,1.636s-5.61-6.373-7.936-9.112
		c-5.194-6.121-4.123-10.076,3.327-13.226c13.094-5.519,26.228-10.787,37.994-15.596c17.989-7.352,35.549-16.231,54.125-21.558
		c29.863-8.564,58.685-4.36,84.655,13.853C819.262,362.669,826.817,368.369,834.747,374.156z"/>
	<g id="l9ZIP6.tif">
		<g>
			<path fill="none" stroke="#000000" stroke-width="0.75" stroke-miterlimit="10" d="M641.152,402.246
				c-15.46,6.682-32.247,14.707-47.757,21.274c-37.544,15.899-75.185,31.569-112.65,47.647
				c-26.878,11.534-49.573,20.851-76.289,32.757c-12.128,5.405-28.266,13.482-40.098,19.492c-4.973,2.525-7.48,7.373-6.677,13.395
				c-0.484-3.628-0.2,6.108,7.791,7.911c8.459,1.909,16.544,2.882,24.708-0.544c20.432-8.574,40.995-18.181,61.273-27.105
				c68.36-30.087,144.721-62.82,212.779-93.579"/>
		</g>
	</g>
	<path fill="none" stroke="#000000" stroke-width="0.75" stroke-miterlimit="10" d="M663.017,418.374"/>
</g>
<g id="Lines">
	<path fill="none" stroke="#000000" stroke-miterlimit="10" d="M628.196,387.112l14.924,6.671l25.283,19.96l13.972,15.968
		c0,0,2.895,7.914,11.265,4.813"/>
	<path fill="none" stroke="#000000" stroke-width="0.5" stroke-miterlimit="10" d="M834.747,374.156l-80.517,4.323l-85.827,35.262
		l-21.615-17.065l76.172-32.835c0,0,9.004-2.661,17.808,2.661l13.463,11.975"/>
</g>
</svg>
