<?xml version="1.0" encoding="utf-8"?>
<!-- Generator: Adobe Illustrator 17.1.0, SVG Export Plug-In . SVG Version: 6.00 Build 0)  -->
<!DOCTYPE svg PUBLIC "-//W3C//DTD SVG 1.1//EN" "http://www.w3.org/Graphics/SVG/1.1/DTD/svg11.dtd">
<svg version="1.1" id="Lager_1" xmlns="http://www.w3.org/2000/svg" xmlns:xlink="http://www.w3.org/1999/xlink" x="0px" y="0px"
	 viewBox="345.5 235 500 400" enable-background="new 345.5 235 500 400" xml:space="preserve">
<g id="Layer_1">
	<path fill="none" stroke="#000000" stroke-miterlimit="10" d="M796.288,419.871c-35.684,15.382-70.537,30.413-105.402,45.42
		c-3.667,1.578-7.29,3.415-11.118,4.426c-8.232,2.176-14.516-3.662-21.689-5.881c-1.154-0.357-3.333-0.955-4.786-1.591
		c0.699-0.966,2.084-0.911,2.072-1.765c-0.035-2.624-0.592-4.086-2.201-5.666c-3.752-3.687-8.795-8.28-12.684-11.83
		c-0.381-0.347-2.127-0.865-2.448-0.748c-1.789,0.649-3.091,1.351-3.091,1.351s-4.633-5.262-6.553-7.524
		c-4.289-5.054-3.405-8.32,2.747-10.921c10.812-4.557,21.658-8.908,31.374-12.879c14.855-6.071,29.355-13.403,44.694-17.802
		c24.66-7.072,48.459-3.6,69.904,11.439C783.501,410.385,789.74,415.092,796.288,419.871z"/>
	<g id="l9ZIP6.tif">
		<g>
			<path fill="none" stroke="#000000" stroke-width="0.75" stroke-miterlimit="10" d="M636.427,443.066
				c-12.766,5.518-26.628,12.145-39.435,17.567c-31.002,13.129-62.084,26.068-93.021,39.345
				c-22.194,9.524-40.935,17.218-62.996,27.049c-10.015,4.463-23.341,11.133-33.111,16.095c-4.106,2.085-6.177,6.088-5.514,11.061
				c-0.4-2.996-0.165,5.044,6.433,6.533c6.985,1.576,13.661,2.38,20.403-0.449c16.872-7.08,33.852-15.013,50.596-22.382
				c56.448-24.845,119.504-51.874,175.703-77.273"/>
		</g>
	</g>
	<path fill="none" stroke="#000000" stroke-width="0.75" stroke-miterlimit="10" d="M654.482,456.384"/>
</g>
<g id="Lines">
	<path fill="none" stroke="#000000" stroke-miterlimit="10" d="M625.728,430.569l12.323,5.509l20.878,16.482l11.538,13.186
		c0,0,2.391,6.535,9.302,3.974"/>
	<path fill="none" stroke="#000000" stroke-width="0.5" stroke-miterlimit="10" d="M796.288,419.871l-66.487,3.57l-70.872,29.118
		l-17.849-14.092l62.899-27.114c0,0,7.435-2.197,14.705,2.198l11.117,9.888"/>
</g>
</svg>
