<?xml version="1.0" encoding="utf-8"?>
<!-- Generator: Adobe Illustrator 17.1.0, SVG Export Plug-In . SVG Version: 6.00 Build 0)  -->
<!DOCTYPE svg PUBLIC "-//W3C//DTD SVG 1.1//EN" "http://www.w3.org/Graphics/SVG/1.1/DTD/svg11.dtd">
<svg version="1.1" id="Lager_1" xmlns="http://www.w3.org/2000/svg" xmlns:xlink="http://www.w3.org/1999/xlink" x="0px" y="0px"
	 viewBox="0 0 842 517" enable-background="new 0 0 842 517" xml:space="preserve">
<g>
	<rect x="50.4" y="387.1" fill="#F43C11" width="121.1" height="72.2"/>
	<rect x="43" y="380.5" fill="#F7C421" width="123.2" height="74.4"/>
</g>
<g>
	<rect x="500.3" y="384.3" fill="#F43C11" width="121.1" height="72.2"/>
	<rect x="492.8" y="377.7" fill="#F7C421" width="123.2" height="74.4"/>
</g>
<g>
	<circle fill="#FFFFFF" cx="692.9" cy="208.6" r="89.9"/>
	<g>
		<path d="M780.2,208.6c0,25.2-11.1,49.1-29.9,65.8c-19,16.7-44.9,24.3-69.9,20.8c-24.5-3.5-46.5-17.8-60.4-38.4
			c-14.1-21.1-18.1-47.9-11.1-72.5c6.7-23.6,23.9-43.5,46.1-54.4c22.7-11.1,50.3-11.6,73.4-1.2C759.5,142.6,780.2,174.4,780.2,208.6
			c0,3.2,5.1,3.2,5.1,0c0-25-10.2-48.9-28-66.2s-42.6-26.6-67.4-25.9c-24.8,0.7-48.6,11.8-65.3,30.1c-16.9,18.5-25.5,43.5-23.9,68.3
			c1.6,24.8,13.4,47.9,32.2,63.9c19,16.4,44.5,24.1,69.2,21.8c22.5-2.3,43.8-13,59.1-29.6c15.5-16.9,23.9-39.4,24.1-62.1
			C785.3,205.4,780.2,205.4,780.2,208.6z"/>
	</g>
</g>
<line fill="none" stroke="#000000" stroke-width="4.6317" stroke-miterlimit="10" x1="763.3" y1="101.7" x2="802.2" y2="101.7"/>
<line fill="none" stroke="#000000" stroke-width="4.6317" stroke-miterlimit="10" x1="799.8" y1="99.3" x2="799.8" y2="138.2"/>
<line fill="none" stroke="#000000" stroke-width="4.6317" stroke-miterlimit="10" x1="757.2" y1="144.7" x2="799.8" y2="101.7"/>
<g>
	<circle fill="#FFFFFF" cx="151.2" cy="204.9" r="89.9"/>
	<g>
		<path d="M238.5,204.9c-0.1,25.2-11,49-29.8,65.8c-18.9,16.8-45,24.3-69.9,20.7c-24.6-3.4-46.7-17.7-60.5-38.3
			c-14.1-21.2-18-48-11.1-72.4c6.7-23.8,23.8-43.6,45.9-54.5c22.8-11.2,50.3-11.5,73.5-1.2C218,138.9,238.4,170.7,238.5,204.9
			c0,3.2,5,3.2,5,0c-0.1-25-10.2-48.9-28.1-66.3c-17.8-17.5-42.5-26.7-67.4-26c-24.8,0.7-48.5,11.9-65.2,30.2
			C66,161.3,57.4,186.3,59,211.2c1.6,24.7,13.5,48,32.2,64c19,16.3,44.4,24.1,69.3,21.7c22.6-2.2,43.7-13,59-29.7
			c15.5-16.9,24-39.3,24.1-62.1C243.6,201.7,238.5,201.7,238.5,204.9z"/>
	</g>
</g>
<rect x="127.1" y="314.4" width="48.2" height="5.2"/>
<rect x="148.1" y="297.2" width="5.2" height="40.8"/>
<g>
	<circle fill="#FFFFFF" cx="423.3" cy="207.7" r="89.9"/>
	<g>
		<path d="M510.7,207.7c-0.1,25.2-11,49-29.8,65.8c-18.9,16.8-45,24.3-69.9,20.7c-24.6-3.4-46.7-17.7-60.5-38.3
			c-14.1-21.2-18-48-11.1-72.4c6.7-23.8,23.8-43.6,45.9-54.5c22.8-11.2,50.3-11.5,73.5-1.2C490.1,141.6,510.5,173.5,510.7,207.7
			c0,3.2,5,3.2,5,0c-0.1-25-10.2-48.9-28.1-66.3c-17.8-17.5-42.5-26.7-67.4-26c-24.8,0.7-48.5,11.9-65.2,30.2
			c-16.9,18.5-25.5,43.5-23.8,68.4c1.6,24.7,13.5,48,32.2,64c19,16.3,44.4,24.1,69.3,21.7c22.6-2.2,43.7-13,59-29.7
			c15.5-16.9,24-39.3,24.1-62.1C515.7,204.4,510.7,204.4,510.7,207.7z"/>
	</g>
</g>
<g>
	<g>
		<g>
			<g>
				<path fill="#FFFFFF" stroke="#000000" stroke-width="5.3" stroke-miterlimit="10" d="M153.2,204.5l66.7-64.4
					c35.6,36.9,34.6,95.6-2.3,131.2s-95.6,34.6-131.2-2.3s-34.6-95.6,2.3-131.2c17.9-17.3,39.5-26,64.4-26V204.5z"/>
			</g>
		</g>
		<g>
			<g>
				<path stroke="#000000" stroke-width="5.3" stroke-miterlimit="10" d="M153.2,204.5v-92.8c26.3,0,48.4,9.4,66.7,28.3L153.2,204.5
					z"/>
			</g>
		</g>
	</g>
	<g>
		<g>
		</g>
		<g>
		</g>
	</g>
</g>
<g>
	<g>
		<g>
			<g>
				<path fill="#FFFFFF" stroke="#000000" stroke-width="5.3" stroke-miterlimit="10" d="M423.6,208l72.1-58.4
					c32.2,39.8,26.1,98.2-13.7,130.5s-98.2,26.1-130.5-13.7s-26.1-98.2,13.7-130.5c17-13.8,36.5-20.7,58.4-20.7V208z"/>
			</g>
		</g>
		<g>
			<g>
				<path stroke="#000000" stroke-width="5.3" stroke-miterlimit="10" d="M423.6,208v-92.8c29.3,0,53.7,11.6,72.1,34.4L423.6,208z"
					/>
			</g>
		</g>
	</g>
	<g>
		<g>
		</g>
		<g>
		</g>
	</g>
</g>
<g>
	<g>
		<g>
			<g>
				<path fill="#FFFFFF" stroke="#000000" stroke-width="5.3" stroke-miterlimit="10" d="M694,209.5l64.4-66.7
					c36.9,35.6,37.9,94.3,2.3,131.2c-35.6,36.9-94.3,37.9-131.2,2.3s-37.9-94.3-2.3-131.2c17.9-18.5,41-28.3,66.7-28.3V209.5z"/>
			</g>
		</g>
		<g>
			<g>
				<path stroke="#000000" stroke-width="5.3" stroke-miterlimit="10" d="M694,209.5v-92.8c25.4,0,46.2,8.4,64.4,26L694,209.5z"/>
			</g>
		</g>
	</g>
	<g>
		<g>
		</g>
		<g>
		</g>
	</g>
</g>
<text transform="matrix(1 0 0 1 69.4615 74.8877)"><tspan x="0" y="0" font-family="'TwCenMT-Bold'" font-size="50">WOMEN</tspan><tspan x="174.6" y="0" font-family="'TwCenMT-Bold'" font-size="50" letter-spacing="-7">	</tspan><tspan x="180" y="0" font-family="'TwCenMT-Bold'" font-size="50" letter-spacing="22">			</tspan><tspan x="288" y="0" font-family="'TwCenMT-Bold'" font-size="50">BOTH</tspan><tspan x="407.2" y="0" font-family="'TwCenMT-Bold'" font-size="50" letter-spacing="11">	</tspan><tspan x="432" y="0" font-family="'TwCenMT-Bold'" font-size="50" letter-spacing="22">	</tspan><tspan x="468" y="0" font-family="'TwCenMT-Bold'" font-size="50">   </tspan><tspan x="507.9" y="0" font-family="'TwCenMT-Bold'" font-size="50" letter-spacing="18">	</tspan><tspan x="540" y="0" font-family="'TwCenMT-Bold'" font-size="50" letter-spacing="22">	</tspan><tspan x="576" y="0" font-family="'TwCenMT-Bold'" font-size="50">MEN</tspan></text>
<text transform="matrix(1 0 0 1 54.1289 435.8025)"><tspan x="0" y="0" font-family="'TwCenMT-Bold'" font-size="60">13%</tspan><tspan x="121.2" y="0" font-family="'TwCenMT-Bold'" font-size="50">  </tspan><tspan x="147.8" y="0" font-family="'Verdana'" font-size="40">of women and </tspan><tspan x="447.6" y="0" font-family="'TwCenMT-Bold'" font-size="60">14%</tspan><tspan x="568.8" y="0" font-family="'TwCenMT-Bold'" font-size="50">  </tspan><tspan x="595.4" y="0" font-family="'Verdana'" font-size="40">of men </tspan><tspan x="114.4" y="55" font-family="'Verdana'" font-size="40">fantasize about group sex</tspan></text>
<rect x="2300.6" y="1479.1" fill="#F43C11" width="793.2" height="473.2"/>
</svg>
