<?xml version="1.0" encoding="utf-8"?>
<!-- Generator: Adobe Illustrator 17.1.0, SVG Export Plug-In . SVG Version: 6.00 Build 0)  -->
<!DOCTYPE svg PUBLIC "-//W3C//DTD SVG 1.1//EN" "http://www.w3.org/Graphics/SVG/1.1/DTD/svg11.dtd">
<svg version="1.1" id="Lager_1" xmlns="http://www.w3.org/2000/svg" xmlns:xlink="http://www.w3.org/1999/xlink" x="0px" y="0px"
	 viewBox="0 0 842 517" enable-background="new 0 0 842 517" xml:space="preserve">
<g>
	<rect x="47.411" y="388.125" fill="#F43C11" width="121.077" height="72.23"/>
	<rect x="39.965" y="381.521" fill="#F7C421" width="123.219" height="74.372"/>
</g>
<g>
	<rect x="500.291" y="384.286" fill="#F43C11" width="121.077" height="72.23"/>
	<rect x="492.846" y="377.683" fill="#F7C421" width="123.219" height="74.372"/>
</g>
<g>
	<circle fill="#FFFFFF" cx="692.851" cy="208.648" r="89.856"/>
	<g>
		<path d="M780.159,208.648c0,25.243-11.116,49.096-29.875,65.771c-18.99,16.674-44.928,24.317-69.939,20.843
			c-24.548-3.474-46.549-17.832-60.444-38.443c-14.127-21.074-18.064-47.938-11.116-72.487
			c6.716-23.622,23.853-43.538,46.086-54.423c22.695-11.116,50.254-11.579,73.413-1.158
			C759.548,142.645,780.159,174.373,780.159,208.648c0,3.242,5.095,3.242,5.095,0c0-25.011-10.19-48.865-28.022-66.234
			s-42.612-26.632-67.392-25.938c-24.78,0.695-48.633,11.811-65.307,30.106c-16.906,18.527-25.475,43.538-23.853,68.318
			c1.621,24.78,13.432,47.938,32.191,63.918c18.99,16.443,44.465,24.085,69.244,21.769c22.464-2.316,43.77-12.969,59.055-29.643
			c15.516-16.906,23.853-39.37,24.085-62.065C785.254,205.405,780.159,205.405,780.159,208.648z"/>
	</g>
</g>
<line fill="none" stroke="#000000" stroke-width="4.6317" stroke-miterlimit="10" x1="763.253" y1="101.655" x2="802.16" y2="101.655"/>
<line fill="none" stroke="#000000" stroke-width="4.6317" stroke-miterlimit="10" x1="799.844" y1="99.339" x2="799.844" y2="138.245"/>
<line fill="none" stroke="#000000" stroke-width="4.6317" stroke-miterlimit="10" x1="757.232" y1="144.73" x2="799.844" y2="101.655"/>
<g>
	<circle fill="#FFFFFF" cx="151.177" cy="204.918" r="89.874"/>
	<g>
		<path d="M238.55,204.918c-0.111,25.178-11.005,49.022-29.847,65.752c-18.897,16.785-44.965,24.289-69.921,20.732
			c-24.567-3.446-46.743-17.675-60.472-38.295c-14.118-21.176-18.008-47.966-11.116-72.422c6.725-23.789,23.844-43.631,45.91-54.469
			c22.788-11.227,50.301-11.505,73.478-1.223C217.985,138.888,238.383,170.735,238.55,204.918c0,3.224,5.002,3.224,5.002,0
			c-0.111-24.956-10.227-48.911-28.068-66.308c-17.841-17.452-42.519-26.734-67.42-25.956c-24.789,0.723-48.522,11.894-65.196,30.18
			c-16.897,18.453-25.456,43.464-23.844,68.364c1.556,24.678,13.451,47.966,32.181,64.029
			c19.009,16.341,44.353,24.122,69.254,21.677c22.566-2.223,43.742-13.006,59.027-29.736c15.451-16.897,23.955-39.296,24.066-62.139
			C243.552,201.694,238.55,201.694,238.55,204.918z"/>
	</g>
</g>
<rect x="127.055" y="314.356" width="48.244" height="5.225"/>
<rect x="148.12" y="297.237" width="5.225" height="40.796"/>
<g>
	<circle fill="#FFFFFF" cx="423.339" cy="207.65" r="89.874"/>
	<g>
		<path d="M510.712,207.65c-0.111,25.178-11.005,49.022-29.847,65.752c-18.897,16.785-44.965,24.289-69.921,20.732
			c-24.567-3.446-46.743-17.675-60.472-38.295c-14.118-21.176-18.008-47.966-11.116-72.422c6.725-23.789,23.844-43.631,45.91-54.469
			c22.788-11.227,50.301-11.505,73.478-1.223C490.147,141.62,510.545,173.468,510.712,207.65c0,3.224,5.002,3.224,5.002,0
			c-0.111-24.956-10.227-48.911-28.068-66.308c-17.841-17.452-42.519-26.734-67.42-25.956c-24.789,0.723-48.522,11.894-65.196,30.18
			c-16.897,18.453-25.456,43.464-23.844,68.364c1.556,24.678,13.451,47.966,32.181,64.029
			c19.009,16.341,44.353,24.122,69.254,21.677c22.566-2.223,43.742-13.006,59.027-29.736c15.451-16.897,23.955-39.296,24.066-62.139
			C515.714,204.427,510.712,204.427,510.712,207.65z"/>
	</g>
</g>
<g>
	<g>
		<g>
			<g>
				<path fill="#FFFFFF" stroke="#000000" stroke-width="5.3" stroke-miterlimit="10" d="M153.182,204.499l6.471-92.541
					c51.109,3.574,89.644,47.903,86.07,99.012s-47.903,89.644-99.012,86.07s-89.644-47.903-86.07-99.012
					c3.409-48.758,43.664-86.296,92.541-86.296V204.499z"/>
			</g>
		</g>
		<g>
			<g>
				<path stroke="#000000" stroke-width="5.3" stroke-miterlimit="10" d="M153.182,204.499v-92.767c2.306,0,4.171,0.065,6.471,0.226
					L153.182,204.499z"/>
			</g>
		</g>
	</g>
	<g>
		<g>
		</g>
		<g>
		</g>
	</g>
</g>
<g>
	<g>
		<g>
			<g>
				<path fill="#FFFFFF" stroke="#000000" stroke-width="5.3" stroke-miterlimit="10" d="M423.598,208.015l8.085-92.414
					c51.039,4.465,88.794,49.46,84.329,100.499c-4.465,51.039-49.46,88.794-100.499,84.329s-88.794-49.46-84.329-100.499
					c4.166-47.619,44.613-84.682,92.414-84.682V208.015z"/>
			</g>
		</g>
		<g>
			<g>
				<path stroke="#000000" stroke-width="5.3" stroke-miterlimit="10" d="M423.598,208.015v-92.767c3.381,0,4.717,0.058,8.085,0.353
					L423.598,208.015z"/>
			</g>
		</g>
	</g>
	<g>
		<g>
		</g>
		<g>
		</g>
	</g>
</g>
<g>
	<g>
		<g>
			<g>
				<path fill="#FFFFFF" stroke="#000000" stroke-width="5.3" stroke-miterlimit="10" d="M694.048,209.473l11.305-92.075
					c50.852,6.244,87.014,52.529,80.77,103.381s-52.529,87.014-103.381,80.77c-50.852-6.244-87.014-52.529-80.77-103.381
					c5.701-46.428,45.299-81.461,92.075-81.461V209.473z"/>
			</g>
		</g>
		<g>
			<g>
				<path stroke="#000000" stroke-width="5.3" stroke-miterlimit="10" d="M694.048,209.473v-92.767
					c4.406,0,6.932,0.155,11.305,0.691L694.048,209.473z"/>
			</g>
		</g>
	</g>
	<g>
		<g>
		</g>
		<g>
		</g>
	</g>
</g>
<text transform="matrix(1 0 0 1 69.4615 74.8877)"><tspan x="0" y="0" font-family="'TwCenMT-Bold'" font-size="50">WOMEN</tspan><tspan x="174.561" y="0" font-family="'TwCenMT-Bold'" font-size="50" letter-spacing="-7">	</tspan><tspan x="180" y="0" font-family="'TwCenMT-Bold'" font-size="50" letter-spacing="22">			</tspan><tspan x="288" y="0" font-family="'TwCenMT-Bold'" font-size="50">BOTH</tspan><tspan x="407.189" y="0" font-family="'TwCenMT-Bold'" font-size="50" letter-spacing="11">	</tspan><tspan x="432" y="0" font-family="'TwCenMT-Bold'" font-size="50" letter-spacing="22">	</tspan><tspan x="468" y="0" font-family="'TwCenMT-Bold'" font-size="50">   </tspan><tspan x="507.917" y="0" font-family="'TwCenMT-Bold'" font-size="50" letter-spacing="18">	</tspan><tspan x="540" y="0" font-family="'TwCenMT-Bold'" font-size="50" letter-spacing="22">	</tspan><tspan x="576" y="0" font-family="'TwCenMT-Bold'" font-size="50">MEN</tspan></text>
<text transform="matrix(1 0 0 1 75.1812 435.8025)"><tspan x="0" y="0" font-family="'TwCenMT-Bold'" font-size="60">1%</tspan><tspan x="89.326" y="0" font-family="'TwCenMT-Bold'" font-size="50"> </tspan><tspan x="102.632" y="0" font-family="'TwCenMT-Bold'" font-size="50" letter-spacing="-7">	</tspan><tspan x="108" y="0" font-family="'Verdana'" font-size="40">of women and </tspan><tspan x="407.844" y="0" font-family="'Verdana'" font-size="40" letter-spacing="10">	</tspan><tspan x="432" y="0" font-family="'TwCenMT-Bold'" font-size="60">2%</tspan><tspan x="521.326" y="0" font-family="'TwCenMT-Bold'" font-size="50"> </tspan><tspan x="534.632" y="0" font-family="'TwCenMT-Bold'" font-size="50" letter-spacing="-7">	</tspan><tspan x="540" y="0" font-family="'TwCenMT-Bold'" font-size="50"> </tspan><tspan x="553.306" y="0" font-family="'Verdana'" font-size="40">of men </tspan><tspan x="59.182" y="55" font-family="'Verdana'" font-size="40">fantasize about masturbation</tspan></text>
<rect x="2300.614" y="1479.13" fill="#F43C11" width="793.22" height="473.204"/>
</svg>
