<?xml version="1.0" encoding="utf-8"?>
<!-- Generator: Adobe Illustrator 17.1.0, SVG Export Plug-In . SVG Version: 6.00 Build 0)  -->
<!DOCTYPE svg PUBLIC "-//W3C//DTD SVG 1.1//EN" "http://www.w3.org/Graphics/SVG/1.1/DTD/svg11.dtd">
<svg version="1.1" id="Lager_1" xmlns="http://www.w3.org/2000/svg" xmlns:xlink="http://www.w3.org/1999/xlink" x="0px" y="0px"
	 viewBox="275 275 50 50" enable-background="new 275 275 50 50" xml:space="preserve">
<g>
	<g>
		<path fill="#FFFFFF" d="M291.475,305.921c0,0,3.522-0.153,2.144-3.215c-0.684-1.519-1.599-3.907-0.612-6.278
			c0.986-2.37,2.88-4.169,6.119-3.404c0,0-2.14-4.137-1.767-6.831c0.23-1.663,2.359-3.422,4.829-2.827
			c1.494,0.36,3.416,1.296,5.771,4.005l-1.178,0.589l-0.236,4.593c0,0,4.202,1.865,5.182,4.947c0.824,2.591,0.865,4.372-2.473,8.48"
			/>
		<g>
			<path d="M291.475,306.226c0.681-0.033,1.403-0.241,1.956-0.644c1.272-0.929,0.718-2.37,0.219-3.566
				c-0.451-1.08-0.755-2.212-0.771-3.387c-0.017-1.221,0.441-2.374,1.095-3.384c1.147-1.772,3.055-2.374,5.07-1.926
				c0.267,0.059,0.469-0.206,0.345-0.448c-0.48-0.933-0.867-1.92-1.19-2.917c-0.518-1.593-1.062-3.649,0.113-5.072
				c1.232-1.491,3.182-1.538,4.854-0.883c1.822,0.714,3.308,2.144,4.577,3.588c0.021-0.16,0.041-0.32,0.062-0.479
				c-0.393,0.196-0.785,0.393-1.178,0.589c-0.098,0.049-0.146,0.16-0.151,0.263c-0.078,1.531-0.157,3.062-0.236,4.593
				c-0.005,0.097,0.06,0.223,0.151,0.264c2.055,0.919,4.302,2.562,5.042,4.764c0.383,1.139,0.593,2.321,0.324,3.509
				c-0.397,1.755-1.616,3.307-2.719,4.674c-0.245,0.303,0.184,0.738,0.432,0.432c1.166-1.445,2.354-3.006,2.847-4.827
				c0.349-1.288,0.127-2.583-0.258-3.833c-0.745-2.419-3.121-4.245-5.359-5.246c0.05,0.088,0.101,0.176,0.151,0.263
				c0.078-1.531,0.157-3.062,0.236-4.593c-0.05,0.088-0.101,0.176-0.151,0.264c0.393-0.196,0.785-0.393,1.178-0.589
				c0.186-0.093,0.184-0.34,0.062-0.479c-2.341-2.664-6.892-6.213-10.191-2.82c-1.368,1.407-1.025,3.449-0.557,5.168
				c0.343,1.261,0.837,2.512,1.435,3.675c0.115-0.149,0.23-0.299,0.345-0.448c-1.777-0.395-3.509-0.12-4.874,1.137
				c-1.461,1.346-2.185,3.45-2.035,5.399c0.082,1.064,0.422,2.092,0.83,3.071c0.299,0.717,0.747,1.539,0.346,2.307
				c-0.346,0.665-1.299,0.937-1.999,0.971C291.083,305.635,291.081,306.245,291.475,306.226L291.475,306.226z"/>
		</g>
	</g>
	<g>
		<path fill="#FFFFFF" d="M295.944,316.933c0,0,2.473-15.665,2.002-20.376c0,0-2.456-0.012-2.338,2.933
			c0.118,2.944,4.714,7.65-3.368,9.493"/>
		<g>
			<path d="M296.239,317.014c0.442-2.803,0.829-5.617,1.18-8.433c0.283-2.268,0.537-4.541,0.716-6.82
				c0.135-1.719,0.281-3.482,0.117-5.204c-0.016-0.165-0.127-0.306-0.305-0.305c-0.988,0.004-1.91,0.612-2.337,1.49
				c-0.654,1.343-0.166,2.829,0.307,4.135c0.433,1.196,1.003,2.529,0.722,3.824c-0.419,1.926-2.839,2.604-4.479,2.988
				c-0.383,0.09-0.221,0.678,0.162,0.588c1.691-0.396,3.718-1.024,4.618-2.654c0.633-1.147,0.365-2.516-0.01-3.697
				c-0.375-1.183-0.991-2.355-1.019-3.616c-0.027-1.218,0.713-2.443,2.037-2.447c-0.102-0.102-0.203-0.203-0.305-0.305
				c0.161,1.679,0.021,3.396-0.107,5.073c-0.173,2.276-0.429,4.547-0.709,6.812c-0.347,2.809-0.734,5.614-1.176,8.409
				C295.59,317.237,296.178,317.402,296.239,317.014L296.239,317.014z"/>
		</g>
	</g>
	<g>
		<path fill="#FFFFFF" d="M295.944,316.933"/>
		<g>
			<path d="M295.944,317.238c0.393,0,0.393-0.61,0-0.61S295.551,317.238,295.944,317.238L295.944,317.238z"/>
		</g>
	</g>
	<g>
		<path fill="#FFFFFF" d="M306.191,294.555c0,0,3.533,10.6,0.471,20.494l2.591,0.942"/>
		<g>
			<path d="M305.897,294.636c0.69,2.08,1.09,4.288,1.373,6.456c0.604,4.621,0.462,9.398-0.902,13.876
				c-0.051,0.169,0.06,0.32,0.213,0.375c0.864,0.314,1.727,0.628,2.591,0.942c0.371,0.135,0.529-0.455,0.162-0.588
				c-0.864-0.314-1.727-0.628-2.591-0.942c0.071,0.125,0.142,0.25,0.213,0.375c1.382-4.537,1.517-9.357,0.924-14.038
				c-0.282-2.221-0.687-4.487-1.395-6.618C306.362,294.102,305.773,294.262,305.897,294.636L305.897,294.636z"/>
		</g>
	</g>
	<g>
		<path d="M303.532,308.641l-6.447,1.276l-0.958,7.512c0,0,7.635,1.951,7.522,0.939c-0.113-1.011-1.541-1.707-1.541-1.707
			L303.532,308.641z"/>
		<g>
			<path d="M303.451,308.346c-2.149,0.425-4.298,0.851-6.447,1.276c-0.144,0.028-0.208,0.165-0.224,0.294
				c-0.319,2.504-0.911,4.974-1.23,7.478c-0.017,0.131,0.377,0.298,0.496,0.329c1.854,0.473,3.736,0.897,5.634,1.147
				c0.57,0.075,1.765,0.34,2.19-0.215c0.274-0.357-0.109-0.977-0.336-1.252c-0.341-0.416-0.79-0.765-1.272-1.005
				c0.047,0.115,0.093,0.23,0.14,0.345c0.475-2.674,0.949-5.347,1.424-8.021c0.068-0.385-0.52-0.549-0.588-0.162
				c-0.475,2.674-0.95,5.347-1.424,8.021c-0.023,0.129,0.011,0.28,0.14,0.345c0.358,0.178,0.682,0.419,0.966,0.699
				c0.115,0.113,0.205,0.243,0.29,0.38c0.076,0.123,0.092,0.432,0.151,0.32c0.044-0.083-0.048-0.001-0.159,0.013
				c-0.83,0.105-1.736-0.097-2.55-0.237c-1.493-0.257-2.977-0.592-4.445-0.966c0.075,0.098,0.149,0.196,0.224,0.294
				c0.319-2.504,0.639-5.008,0.958-7.513c-0.075,0.098-0.149,0.196-0.224,0.294c2.149-0.425,4.298-0.851,6.447-1.276
				C303.999,308.858,303.836,308.27,303.451,308.346z"/>
		</g>
	</g>
	<g>
		<path d="M302.736,316.273l-0.241-6.558c0,0,5.104-1.209,6.044-1.209c0,0-0.708,5.565-1.344,6.159c0,0,4.022,1.988,2.772,2.448
			C309.022,317.46,302.736,316.273,302.736,316.273l0.002,0.022"/>
		<g>
			<path d="M303.041,316.273c-0.08-2.186-0.161-4.372-0.241-6.558c-0.075,0.098-0.149,0.196-0.224,0.294
				c0.867-0.205,1.735-0.401,2.605-0.59c1.082-0.236,2.243-0.587,3.357-0.607c-0.102-0.102-0.203-0.203-0.305-0.305
				c-0.116,0.907-0.256,1.811-0.411,2.712c-0.113,0.658-0.24,1.315-0.396,1.964c-0.09,0.375-0.168,0.975-0.447,1.267
				c-0.128,0.134-0.119,0.389,0.062,0.479c0.731,0.363,1.449,0.767,2.121,1.231c0.187,0.129,0.365,0.27,0.53,0.426
				c0.068,0.064,0.129,0.132,0.18,0.21c0.074,0.112-0.011,0.047,0.055-0.001c-0.25,0.184-0.814,0.074-1.095,0.058
				c-2.015-0.117-4.034-0.501-6.015-0.874c-0.178-0.034-0.406,0.082-0.386,0.294c0.001,0.007,0.001,0.015,0.002,0.022
				c0.035,0.389,0.646,0.392,0.61,0C303.042,316.287,303.042,316.28,303.041,316.273c-0.129,0.098-0.258,0.196-0.386,0.294
				c0.936,0.176,1.875,0.335,2.816,0.482c1.346,0.211,2.759,0.486,4.127,0.427c0.372-0.016,0.739-0.106,0.895-0.478
				c0.162-0.386-0.318-0.809-0.565-1.018c-0.762-0.646-1.687-1.136-2.579-1.578c0.021,0.16,0.041,0.32,0.062,0.479
				c0.301-0.315,0.411-0.813,0.523-1.219c0.194-0.708,0.327-1.433,0.455-2.155c0.177-0.996,0.327-1.998,0.455-3.002
				c0.021-0.163-0.154-0.308-0.305-0.305c-1.128,0.021-2.295,0.365-3.391,0.601c-0.913,0.197-1.825,0.403-2.734,0.618
				c-0.128,0.03-0.229,0.163-0.224,0.294c0.08,2.186,0.161,4.372,0.241,6.558C302.445,316.665,303.056,316.667,303.041,316.273
				L303.041,316.273z"/>
		</g>
	</g>
	<g>
		<line fill="none" x1="309.254" y1="303.388" x2="307.84" y2="305.155"/>
		<g>
			<path d="M309.038,303.173c-0.471,0.589-0.942,1.178-1.413,1.767c-0.243,0.304,0.186,0.739,0.432,0.432
				c0.471-0.589,0.942-1.178,1.413-1.767C309.713,303.3,309.284,302.865,309.038,303.173L309.038,303.173z"/>
		</g>
	</g>
	<g>
		<g>
			<path d="M306.862,297.881c0.458,0.289,0.865,0.668,1.21,1.083c0.87,1.043,0.549,2.105-0.504,2.866
				c-0.316,0.228-0.012,0.758,0.308,0.527c1.108-0.801,1.705-1.911,1.047-3.211c-0.37-0.73-1.067-1.358-1.753-1.792
				C306.836,297.143,306.53,297.671,306.862,297.881L306.862,297.881z"/>
		</g>
	</g>
	<g>
		<g>
			<path d="M300.244,287.923c0.848,2.396,3.836,3.079,6.065,2.933c0.391-0.026,0.393-0.636,0-0.61
				c-1.97,0.129-4.761-0.461-5.477-2.485C300.702,287.392,300.112,287.551,300.244,287.923L300.244,287.923z"/>
		</g>
	</g>
	<g>
		<ellipse fill="#FFFFFF" cx="303.984" cy="287.349" rx="0.037" ry="0.05"/>
		<g>
			<path d="M303.717,287.349c0.009-0.038,0.018-0.076,0.026-0.114c0.036-0.036,0.073-0.073,0.109-0.109
				c0.017-0.007,0.034-0.014,0.051-0.021c0.054,0,0.108,0,0.162,0c0.017,0.007,0.034,0.014,0.051,0.021
				c0.036,0.036,0.073,0.073,0.109,0.109c0.035,0.076,0.035,0.152,0,0.228c-0.036,0.036-0.073,0.073-0.109,0.109
				c-0.017,0.007-0.034,0.014-0.051,0.021c-0.054,0-0.108,0-0.162,0c-0.017-0.007-0.034-0.014-0.051-0.021
				c-0.036-0.036-0.073-0.073-0.109-0.109C303.734,287.425,303.725,287.387,303.717,287.349c0.01,0.084,0.027,0.153,0.089,0.216
				c0.057,0.057,0.135,0.089,0.216,0.089c0.151,0,0.325-0.14,0.305-0.305c-0.008-0.069-0.013-0.136-0.057-0.194
				c-0.071-0.095-0.162-0.161-0.285-0.161c-0.088,0-0.176,0.037-0.238,0.099c-0.073,0.073-0.093,0.158-0.105,0.256
				c-0.007,0.056,0.023,0.15,0.057,0.194c0.071,0.095,0.162,0.161,0.285,0.161c0.088,0,0.176-0.037,0.238-0.099
				c0.073-0.073,0.093-0.158,0.105-0.256c0.02-0.165-0.154-0.305-0.305-0.305c-0.081,0-0.159,0.032-0.216,0.089
				C303.744,287.196,303.727,287.265,303.717,287.349z"/>
		</g>
	</g>
</g>
<g>
	<g>
		<path d="M291.772,307.802c0.896-0.075,1.831-0.677,2.589-1.097c0.344-0.191,0.036-0.718-0.308-0.527
			c-0.59,0.327-1.189,0.645-1.823,0.877c-0.124,0.045-0.25,0.085-0.378,0.117c-0.05,0.013-0.194,0.03-0.08,0.02
			C291.383,307.225,291.379,307.835,291.772,307.802L291.772,307.802z"/>
	</g>
</g>
<g>
	<path d="M297.831,304.601c0,0,3.734-0.471,4.602,2.185l0.495,0.012c0,0,1.656-2.426,4.674-2.064c0,0,0.483-1.449,0.121-1.811
		c0,0-7.365-0.845-9.779-0.362C297.943,302.561,297.59,304.118,297.831,304.601z"/>
	<g>
		<path d="M297.831,304.967c1.598-0.195,3.652,0.226,4.249,1.916c0.056,0.158,0.181,0.265,0.353,0.269
			c0.29,0.007,0.628,0.089,0.819-0.182c0.134-0.191,0.352-0.412,0.544-0.595c1.031-0.983,2.395-1.419,3.805-1.275
			c0.165,0.017,0.306-0.125,0.353-0.269c0.171-0.521,0.659-2.174-0.255-2.277c-0.749-0.085-1.5-0.157-2.251-0.223
			c-1.375-0.122-2.752-0.219-4.132-0.265c-1.149-0.039-2.336-0.073-3.471,0.142c-0.118,0.022-0.23,0.14-0.256,0.256
			c-0.149,0.67-0.375,1.573-0.112,2.235c0.172,0.433,0.881,0.245,0.706-0.195c-0.215-0.542-0.011-1.295,0.112-1.846
			c-0.085,0.085-0.17,0.171-0.256,0.256c1.836-0.349,3.85-0.116,5.698,0.013c1.33,0.092,2.66,0.211,3.984,0.362
			c-0.105-0.06-0.211-0.121-0.316-0.181c0.273,0.357-0.031,1.141-0.158,1.529c0.118-0.09,0.235-0.179,0.353-0.269
			c-1.897-0.193-3.891,0.657-4.99,2.246c0.105-0.06,0.211-0.121,0.316-0.181c-0.165-0.004-0.33-0.008-0.495-0.012
			c0.118,0.09,0.235,0.179,0.353,0.269c-0.709-2.009-2.993-2.693-4.955-2.454C297.369,304.291,297.363,305.024,297.831,304.967z"/>
	</g>
</g>
<g>
	<ellipse fill="#FFFFFF" cx="300.159" cy="296.756" rx="0.037" ry="0.05"/>
	<g>
		<path d="M299.892,296.756c0.009-0.038,0.018-0.076,0.026-0.114c0.036-0.036,0.073-0.073,0.109-0.109
			c0.017-0.007,0.034-0.014,0.051-0.021c0.054,0,0.108,0,0.162,0c0.017,0.007,0.034,0.014,0.051,0.021
			c0.036,0.036,0.073,0.073,0.109,0.109c0.035,0.076,0.035,0.152,0,0.228c-0.036,0.036-0.073,0.073-0.109,0.109
			c-0.017,0.007-0.034,0.014-0.051,0.021c-0.054,0-0.108,0-0.162,0c-0.017-0.007-0.034-0.014-0.051-0.021
			c-0.036-0.036-0.073-0.073-0.109-0.109C299.909,296.832,299.9,296.794,299.892,296.756c0.01,0.084,0.027,0.153,0.089,0.216
			c0.057,0.057,0.135,0.089,0.216,0.089c0.151,0,0.325-0.14,0.305-0.305c-0.008-0.069-0.013-0.136-0.057-0.194
			c-0.071-0.095-0.162-0.161-0.285-0.161c-0.088,0-0.176,0.037-0.238,0.099c-0.073,0.073-0.093,0.158-0.105,0.256
			c-0.007,0.056,0.023,0.15,0.057,0.194c0.071,0.095,0.162,0.161,0.285,0.161c0.088,0,0.176-0.037,0.238-0.099
			c0.073-0.073,0.093-0.158,0.105-0.256c0.02-0.166-0.154-0.305-0.305-0.305c-0.081,0-0.159,0.032-0.216,0.089
			C299.918,296.602,299.902,296.671,299.892,296.756z"/>
	</g>
</g>
<g>
	<ellipse fill="#FFFFFF" cx="304.727" cy="296.756" rx="0.037" ry="0.05"/>
	<g>
		<path d="M304.46,296.756c0.009-0.038,0.018-0.076,0.026-0.114c0.036-0.036,0.073-0.073,0.109-0.109
			c0.017-0.007,0.034-0.014,0.051-0.021c0.054,0,0.108,0,0.162,0c0.017,0.007,0.034,0.014,0.051,0.021
			c0.036,0.036,0.073,0.073,0.109,0.109c0.035,0.076,0.035,0.152,0,0.228c-0.036,0.036-0.073,0.073-0.109,0.109
			c-0.017,0.007-0.034,0.014-0.051,0.021c-0.054,0-0.108,0-0.162,0c-0.017-0.007-0.034-0.014-0.051-0.021
			c-0.036-0.036-0.073-0.073-0.109-0.109C304.477,296.832,304.469,296.794,304.46,296.756c0.01,0.084,0.027,0.153,0.089,0.216
			c0.057,0.057,0.135,0.089,0.216,0.089c0.151,0,0.325-0.14,0.305-0.305c-0.008-0.069-0.013-0.136-0.057-0.194
			c-0.071-0.095-0.162-0.161-0.285-0.161c-0.088,0-0.176,0.037-0.238,0.099c-0.073,0.073-0.093,0.158-0.105,0.256
			c-0.007,0.056,0.023,0.15,0.057,0.194c0.071,0.095,0.162,0.161,0.285,0.161c0.088,0,0.176-0.037,0.238-0.099
			c0.073-0.073,0.093-0.158,0.105-0.256c0.02-0.165-0.154-0.305-0.305-0.305c-0.081,0-0.159,0.033-0.216,0.089
			C304.487,296.603,304.47,296.672,304.46,296.756z"/>
	</g>
</g>
<g>
	<line fill="none" x1="302.704" y1="306.969" x2="302.601" y2="309.047"/>
	<g>
		<path d="M302.338,306.969c-0.035,0.693-0.069,1.385-0.103,2.078c-0.024,0.472,0.709,0.47,0.732,0
			c0.035-0.693,0.069-1.385,0.103-2.078C303.094,306.497,302.361,306.499,302.338,306.969L302.338,306.969z"/>
	</g>
</g>
</svg>
