<?xml version="1.0" encoding="utf-8"?>
<!-- Generator: Adobe Illustrator 17.0.2, SVG Export Plug-In . SVG Version: 6.00 Build 0)  -->
<!DOCTYPE svg PUBLIC "-//W3C//DTD SVG 1.1//EN" "http://www.w3.org/Graphics/SVG/1.1/DTD/svg11.dtd">
<svg version="1.1" id="Lager_1" xmlns="http://www.w3.org/2000/svg" xmlns:xlink="http://www.w3.org/1999/xlink" x="0px" y="0px"
	 width="600px" height="600px" viewBox="75.404 -61.648 600 600" enable-background="new 75.404 -61.648 600 600"
	 xml:space="preserve">
<g>
	<g>
		<path fill="#FFFFFF" d="M141.321,312.062c0,0,2.36-69.695,12.743-94.645c10.383-24.951,31.1-46.029,64.582-45.144
			c0,0-22.527-43.543-18.597-71.909c2.425-17.504,24.83-36.022,50.832-29.755c15.724,3.789,35.954,13.638,60.751,42.154
			l-12.398,6.199l-2.48,48.353c0,0,44.23,19.63,54.551,52.072c8.678,27.276,9.102,46.02-26.036,89.266"/>
		<g>
			<path d="M144.947,312.062c0.801-23.424,2.559-47.078,6.552-70.181c2.567-14.852,6.878-28.377,15.762-40.758
				c10.896-15.186,27.711-24.265,46.334-25.188c1.682-0.084,3.368-0.065,5.05-0.035c2.872,0.052,4.354-3.086,3.132-5.457
				c-4.832-9.369-8.748-19.278-12.058-29.273c-4.872-14.711-10.959-34.844-2.818-49.393c4.419-7.898,12.33-13.652,20.747-16.632
				c8.926-3.16,18.139-2.425,27.051,0.27c16.215,4.904,30.135,15.385,42.187,26.991c4.265,4.108,8.283,8.466,12.182,12.92
				c0.245-1.899,0.489-3.797,0.734-5.696c-4.133,2.066-8.265,4.133-12.398,6.199c-1.164,0.582-1.733,1.903-1.796,3.132
				c-0.827,16.118-1.653,32.235-2.48,48.353c-0.059,1.152,0.708,2.646,1.796,3.132c7.861,3.505,15.319,8.143,22.329,13.098
				c12.991,9.183,25.468,21.369,30.556,36.807c3.937,11.946,6.277,24.266,3.414,36.716c-4.236,18.418-16.893,34.654-28.517,49.022
				c-2.913,3.601,2.186,8.766,5.129,5.129c11.931-14.748,24.003-30.65,29.544-49.07c3.747-12.454,2.659-25.184-0.732-37.567
				c-4.355-15.906-13.174-28.575-25.567-39.358c-9.104-7.923-19.426-14.621-30.24-19.968c-0.745-0.369-1.496-0.732-2.255-1.071
				c0.599,1.044,1.198,2.087,1.796,3.132c0.827-16.118,1.653-32.235,2.48-48.353c-0.599,1.044-1.198,2.087-1.796,3.132
				c4.133-2.066,8.265-4.133,12.398-6.199c2.212-1.106,2.179-4.045,0.734-5.696c-21.85-24.961-58.015-55.803-93.573-39.995
				c-7.981,3.548-14.818,9.736-19.482,17.072c-4.377,6.885-5.387,14.803-5.125,22.801c0.553,16.871,6.297,33.609,12.699,49.063
				c2.094,5.055,4.29,10.098,6.8,14.964c1.044-1.819,2.087-3.638,3.132-5.457c-18.784-0.341-36.299,6.188-49.717,19.427
				c-10.959,10.813-18.326,25.147-21.987,40.001c-6.475,26.272-7.964,54.163-9.134,81.12c-0.041,0.956-0.081,1.912-0.114,2.868
				C137.534,316.742,144.787,316.726,144.947,312.062L144.947,312.062z"/>
		</g>
	</g>
	<g>
		<path fill="#FFFFFF" d="M293.034,188.39c0,0,37.194,111.583,4.959,215.727l27.276,9.919l-140.098,9.919
			c0,0,26.036-164.895,21.077-214.487c0,0-8.946-3.987-19.291,21.15c-13.225,32.138-16.143,69.668-16.143,82.381"/>
		<g>
			<path d="M289.537,189.354c6.282,18.896,10.102,38.83,13.114,58.465c6.637,43.258,7.109,88.052-1.853,131.003
				c-1.712,8.205-3.846,16.318-6.302,24.332c-0.614,2.003,0.72,3.801,2.533,4.461c9.092,3.307,18.184,6.612,27.276,9.919
				c0.322-2.374,0.643-4.749,0.964-7.123c-40.092,2.838-80.184,5.677-120.275,8.515c-6.607,0.467-13.216,0.936-19.823,1.403
				c1.165,1.53,2.331,3.061,3.497,4.59c6.816-43.193,12.653-86.604,17.168-130.098c1.692-16.296,3.156-32.624,4.035-48.984
				c0.649-12.067,1.175-24.316,0.003-36.369c-0.114-1.173-0.583-2.617-1.796-3.132c-3.771-1.598-7.832-0.181-10.951,2.22
				c-9.848,7.584-14.236,21.561-17.996,32.848c-7.556,22.682-11.872,47.637-11.944,71.594c-0.015,4.678,7.238,4.677,7.253,0
				c0.063-20.741,3.668-41.812,9.256-61.729c3.243-11.556,7.067-24.807,14.915-34.169c1.569-1.871,3.556-3.629,5.589-4.17
				c0.99-0.264-0.713,0.029,0.181-0.052c0.297-0.027,0.596-0.015,0.891,0.006c-1.42-0.1,1.031,0.514-0.855-0.284
				c-0.599-1.044-1.198-2.087-1.796-3.132c2.385,24.513-0.605,49.886-2.934,74.287c-2.862,29.995-6.642,59.904-10.765,89.749
				c-2.281,16.514-4.649,33.021-7.248,49.488c-0.34,2.153,0.928,4.772,3.497,4.59c40.092-2.838,80.184-5.677,120.276-8.515
				c6.607-0.467,13.216-0.936,19.823-1.403c4.158-0.294,4.843-5.713,0.964-7.123c-9.092-3.306-18.184-6.612-27.276-9.919
				c0.845,1.487,1.688,2.974,2.533,4.461c13.425-43.816,15.657-90.365,11.131-135.766c-2.652-26.6-7.415-53.297-15.159-78.916
				c-0.301-0.994-0.604-1.987-0.932-2.973C295.063,183.01,288.058,184.903,289.537,189.354L289.537,189.354z"/>
		</g>
	</g>
	<g>
		<line fill="none" x1="255.84" y1="318.57" x2="245.922" y2="417.755"/>
		<g>
			<path d="M252.214,318.57c-3.307,33.062-6.612,66.123-9.919,99.185c-0.465,4.653,6.792,4.608,7.253,0
				c3.307-33.062,6.612-66.123,9.919-99.185C259.932,313.917,252.674,313.962,252.214,318.57L252.214,318.57z"/>
		</g>
	</g>
	<g>
		<line fill="none" x1="325.269" y1="281.376" x2="310.392" y2="299.973"/>
		<g>
			<path d="M322.705,278.811c-4.959,6.199-9.919,12.398-14.878,18.597c-2.891,3.614,2.206,8.781,5.129,5.129
				c4.959-6.199,9.919-12.398,14.878-18.597C330.724,280.327,325.627,275.159,322.705,278.811L322.705,278.811z"/>
		</g>
	</g>
	<g>
		<g>
			<path d="M299.882,223.756c5.205,3.274,10.069,7.715,13.68,12.679c2.804,3.853,4.744,8.214,4.555,13.044
				c-0.255,6.499-5.905,11.651-10.796,15.128c-3.777,2.686-0.16,8.98,3.66,6.262c6.388-4.543,12.249-10.271,13.976-18.197
				c1.322-6.069-0.486-12.197-3.529-17.447c-4.141-7.146-10.92-13.349-17.886-17.732
				C299.572,214.996,295.935,221.273,299.882,223.756L299.882,223.756z"/>
		</g>
	</g>
	<g>
		<g>
			<path d="M230.027,118.685c2.393,6.818,7.524,12.87,12.955,17.458c14.167,11.968,33.293,14.962,51.292,13.72
				c4.639-0.32,4.671-7.575,0-7.253c-16.293,1.124-33.761-1.118-46.65-12.006c-3.279-2.77-6.13-6.015-8.402-9.654
				c-0.696-1.115-1.325-2.274-1.889-3.461c-0.615-1.294,0.094,0.43-0.313-0.732C235.482,112.375,228.474,114.26,230.027,118.685
				L230.027,118.685z"/>
		</g>
	</g>
	<g>
		<ellipse fill="#FFFFFF" cx="269.803" cy="112.535" rx="0.393" ry="0.525"/>
		<g>
			<path d="M266.57,112.535c-0.003,0.04-0.007,0.08-0.01,0.12c0.044-0.322,0.086-0.643,0.13-0.964
				c-0.01,0.037-0.019,0.073-0.03,0.11c0.122-0.289,0.243-0.578,0.366-0.866c-0.024,0.067-0.06,0.127-0.107,0.179
				c0.189-0.245,0.378-0.489,0.567-0.734c-0.024,0.021-0.048,0.041-0.073,0.062c0.245-0.189,0.489-0.378,0.734-0.567
				c-0.027,0.013-0.055,0.027-0.083,0.039c0.289-0.122,0.578-0.243,0.866-0.366c-0.03,0.005-0.06,0.009-0.09,0.014
				c0.643,0,1.285,0,1.928,0c-0.03-0.005-0.06-0.009-0.09-0.014c0.288,0.122,0.578,0.243,0.866,0.366
				c-0.027-0.013-0.055-0.027-0.083-0.039c0.245,0.189,0.489,0.378,0.734,0.567c-0.024-0.021-0.048-0.041-0.073-0.062
				c0.189,0.245,0.378,0.489,0.567,0.734c-0.048-0.052-0.083-0.112-0.107-0.179c0.122,0.289,0.243,0.578,0.366,0.866
				c-0.01-0.037-0.019-0.073-0.03-0.11c0.044,0.322,0.086,0.643,0.13,0.964c-0.014-0.08-0.014-0.16,0-0.24
				c-0.044,0.322-0.086,0.643-0.13,0.964c0.01-0.037,0.019-0.073,0.03-0.11c-0.122,0.289-0.243,0.578-0.366,0.866
				c0.024-0.067,0.06-0.127,0.107-0.179c-0.189,0.245-0.378,0.489-0.567,0.734c0.024-0.021,0.048-0.041,0.073-0.062
				c-0.245,0.189-0.489,0.378-0.734,0.567c0.027-0.013,0.055-0.027,0.083-0.039c-0.289,0.122-0.578,0.243-0.866,0.366
				c0.03-0.005,0.06-0.009,0.09-0.014c-0.643,0-1.285,0-1.928,0c0.03,0.005,0.06,0.009,0.09,0.014
				c-0.289-0.122-0.578-0.243-0.866-0.366c0.027,0.013,0.055,0.027,0.083,0.039c-0.245-0.189-0.489-0.378-0.734-0.567
				c0.024,0.021,0.048,0.041,0.073,0.062c-0.189-0.245-0.378-0.489-0.567-0.734c0.048,0.052,0.083,0.112,0.107,0.179
				c-0.122-0.289-0.243-0.578-0.366-0.866c0.01,0.037,0.019,0.073,0.03,0.11c-0.044-0.322-0.086-0.643-0.13-0.964
				C266.563,112.454,266.567,112.495,266.57,112.535c0.085,0.992,0.338,1.84,1.062,2.564c0.677,0.677,1.606,1.062,2.564,1.062
				s1.887-0.385,2.564-1.062c0.629-0.629,1.141-1.649,1.062-2.564c-0.067-0.772-0.158-1.593-0.642-2.24
				c-0.384-0.513-0.767-1.073-1.374-1.363c-0.705-0.336-1.207-0.549-2.003-0.549c-1.117,0-1.984,0.477-2.81,1.177
				c-0.853,0.723-1.119,1.931-1.21,2.974c-0.058,0.671,0.239,1.7,0.642,2.24c0.384,0.513,0.767,1.073,1.374,1.363
				c0.705,0.336,1.207,0.549,2.003,0.549c1.117,0,1.984-0.477,2.81-1.177c0.853-0.723,1.119-1.931,1.21-2.974
				c0.079-0.915-0.433-1.935-1.062-2.564c-0.677-0.677-1.606-1.062-2.564-1.062s-1.887,0.385-2.564,1.062
				C266.908,110.695,266.655,111.543,266.57,112.535z"/>
		</g>
	</g>
</g>
<g>
	<g>
		<path d="M151.622,293.703c-0.117,5.964-0.235,11.927-0.351,17.89c-0.092,4.68,7.161,4.671,7.253,0
			c0.117-5.963,0.235-11.927,0.351-17.89C158.967,289.024,151.714,289.032,151.622,293.703L151.622,293.703z"/>
	</g>
</g>
<g>
	<g>
		<path fill="#FFFFFF" d="M221.752,404.409c-1.717,6.742-128.82,5.944-131.367,0c-2.547-5.944-4.105-71.323,0-75.199
			c4.105-3.876,126.433-5.825,131.367,0C226.685,335.035,223.469,397.667,221.752,404.409z"/>
		<g>
			<path d="M218.255,403.445c0.254-0.758,1.223-1.6,0.942-1.432c-0.643,0.384,0.765-0.23-0.395,0.162
				c-1.235,0.418-2.538,0.653-3.819,0.878c-3.652,0.641-7.602,0.944-11.561,1.235c-11.99,0.883-24.033,1.119-36.051,1.223
				c-22.743,0.199-47.04,0.678-69.189-2.537c-1.325-0.193-2.645-0.424-3.948-0.734c-0.467-0.111-0.928-0.245-1.383-0.398
				c-0.339-0.114-0.102-0.049,0.332,0.298c0.146,0.117,0.809,1.865,0.451,0.532c-0.16-0.596-0.257-1.212-0.356-1.821
				c-0.268-1.637-0.455-3.929-0.619-5.93c-1.085-13.262-1.282-26.641-1.148-39.94c0.06-5.946,0.213-11.907,0.751-17.831
				c0.15-1.646,0.344-3.23,0.722-4.849c0.19-0.816,0.392-1.159,0.239-0.864c-0.127,0.245-1.084,0.89-1.169,0.919
				c2.65-0.936,4.077-0.796,6.828-1.063c4.558-0.442,9.135-0.706,13.707-0.944c26.024-1.351,52.192-1.595,78.239-0.849
				c8.717,0.25,18.348,0.337,26.416,1.909c0.538,0.105,1.069,0.231,1.597,0.376c0.87,0.238,0.718,0.239,0.45,0.112
				c1.043,0.492-0.715-0.953-0.426-0.509c0.271,0.416,0.189,0.318,0.481,1.454c1.203,4.685,1.158,9.795,1.298,14.596
				c0.333,11.374-0.026,22.781-0.578,34.143C219.726,388.625,219.717,397.346,218.255,403.445c-1.09,4.546,5.904,6.475,6.994,1.928
				c2.331-9.724,1.984-20.644,2.368-30.565c0.502-12.994,1.099-26.345-0.504-39.286c-0.427-3.449-0.819-7.427-3.785-9.669
				c-1.796-1.358-4.774-1.59-6.911-1.891c-9.911-1.398-20.011-1.596-30.003-1.828c-25.825-0.599-51.774-0.332-77.566,1.169
				c-6.288,0.366-14.079-0.002-19.968,2.575c-2.698,1.181-3.114,5.214-3.452,7.713c-0.742,5.485-0.946,11.028-1.084,16.557
				c-0.34,13.619-0.064,27.297,0.787,40.894c0.367,5.868-0.716,15.752,6.209,17.932c7.329,2.307,15.842,2.26,23.437,2.706
				c12.625,0.741,25.28,1.005,37.925,1.097c16.101,0.116,32.241-0.048,48.314-1.069c5.431-0.345,10.891-0.78,16.255-1.722
				c3.025-0.531,6.876-1.311,7.98-4.61C226.737,400.925,219.732,399.033,218.255,403.445z"/>
		</g>
	</g>
	<g>
		<path fill="#FFFFFF" d="M129.56,320.74c0-4.376,2.954-11.108,7.62-13.976"/>
		<g>
			<path d="M133.186,320.74c0.121-4.053,2.418-8.589,5.823-10.845c3.879-2.57,0.251-8.855-3.66-6.262
				c-5.596,3.708-9.215,10.399-9.415,17.108C125.794,325.42,133.047,325.406,133.186,320.74L133.186,320.74z"/>
		</g>
	</g>
	<g>
		<path fill="#FFFFFF" d="M174.539,307.348c5.622,2.462,6.608,14.999,6.539,15.471"/>
		<g>
			<path d="M172.708,310.479c3.543,1.777,4.905,8.741,4.743,12.34c-0.21,4.678,7.043,4.658,7.253,0
				c0.277-6.177-2.477-15.665-8.335-18.603C172.201,302.125,168.527,308.381,172.708,310.479L172.708,310.479z"/>
		</g>
	</g>
</g>
<g>
	<g>
		<path fill="#FFFFFF" d="M612.215,313.628c0,0-2.36-69.695-12.743-94.645c-10.384-24.952-31.1-46.029-64.582-45.144
			c0,0,22.527-43.543,18.597-71.909c-2.425-17.504-24.83-36.022-50.832-29.755c-15.724,3.789-35.954,13.638-60.751,42.154
			l12.398,6.199l2.48,48.353c0,0-44.23,19.63-54.551,52.072c-8.678,27.276-9.102,46.02,26.036,89.266"/>
		<g>
			<path d="M615.842,313.628c-0.803-23.474-2.661-47.117-6.501-70.295c-2.426-14.644-6.355-28.29-14.453-40.89
				c-9.546-14.855-23.893-25.996-41.117-30.303c-6.146-1.537-12.564-2.041-18.882-1.927c1.044,1.819,2.087,3.638,3.132,5.457
				c4.801-9.309,8.745-19.153,12.136-29.05c5.181-15.123,10.646-34.157,5.814-50.035c-5.262-17.287-23.466-28.074-40.69-29.223
				c-15.32-1.022-31.186,6.617-43.584,14.906c-12.174,8.139-22.744,18.516-32.356,29.497c-1.445,1.651-1.479,4.589,0.734,5.696
				c4.133,2.066,8.265,4.133,12.398,6.199c-0.599-1.044-1.198-2.087-1.796-3.132c0.827,16.118,1.653,32.235,2.48,48.353
				c0.599-1.044,1.198-2.087,1.796-3.132c-7.861,3.505-15.319,8.143-22.329,13.098c-13.016,9.201-25.255,20.854-31.789,35.642
				c-5.139,11.631-8.124,25.544-6.831,38.255c1.663,16.329,10.303,31.013,19.569,44.172c3.833,5.443,7.944,10.693,12.13,15.868
				c2.943,3.638,8.042-1.528,5.129-5.129c-11.734-14.504-24.005-30.554-28.517-49.022c-3.038-12.438-0.363-24.773,3.414-36.716
				c4.896-15.485,17.699-27.599,30.556-36.807c6.968-4.991,14.483-9.599,22.329-13.098c1.087-0.485,1.855-1.979,1.796-3.132
				c-0.827-16.118-1.653-32.235-2.48-48.353c-0.063-1.228-0.632-2.549-1.796-3.132c-4.133-2.066-8.265-4.133-12.398-6.199
				c0.245,1.899,0.489,3.797,0.734,5.696c20.838-23.806,61.985-59.784,94.202-32.94c6.348,5.29,10.772,12.504,11.492,20.799
				c0.749,8.632-0.789,17.364-2.808,25.724c-3.286,13.606-8.448,26.861-14.554,39.441c-0.34,0.7-0.684,1.4-1.041,2.092
				c-1.223,2.371,0.259,5.509,3.132,5.457c19.257-0.35,36.298,7.196,48.769,21.879c9.906,11.662,14.877,25.765,17.729,40.549
				c4.652,24.113,6.304,49.026,7.194,73.545c0.002,0.063,0.005,0.126,0.006,0.189C608.748,318.291,616.002,318.307,615.842,313.628
				L615.842,313.628z"/>
		</g>
	</g>
	<g>
		<path fill="#FFFFFF" d="M460.502,189.956c0,0-37.194,111.583-4.959,215.727l-27.276,9.919l140.098,9.919
			c0,0-26.036-164.895-21.077-214.487c0,0,8.946-3.987,19.291,21.15c13.225,32.138,16.143,69.668,16.143,82.381"/>
		<g>
			<path d="M457.005,188.992c-6.282,18.896-10.102,38.83-13.114,58.465c-6.555,42.72-7.299,86.553,0.703,129.131
				c1.908,10.152,4.426,20.184,7.452,30.059c0.845-1.487,1.688-2.974,2.533-4.461c-9.092,3.307-18.184,6.612-27.276,9.919
				c-3.879,1.41-3.194,6.829,0.964,7.123c40.092,2.838,80.184,5.677,120.276,8.515c6.607,0.467,13.216,0.936,19.823,1.403
				c2.568,0.182,3.837-2.437,3.497-4.59c-6.812-43.168-12.639-86.553-17.1-130.026c-1.636-15.941-3.047-31.914-3.885-47.918
				c-0.619-11.809-1.109-23.787,0.039-35.579c-0.599,1.044-1.198,2.087-1.796,3.132c-1.557,0.66-0.695,0.284-0.235,0.199
				c-1.648,0.305,1.173,0.247,0.143,0.064c2.055,0.365,3.787,1.957,5.389,3.665c3.919,4.174,6.479,9.846,8.666,15.055
				c2.687,6.399,4.841,13.024,6.757,19.688c5.705,19.839,9.193,41.04,9.256,61.729c0.015,4.677,7.267,4.678,7.253,0
				c-0.073-24.036-4.534-48.797-11.944-71.594c-3.584-11.024-7.977-24.607-17.262-32.281c-3.253-2.689-7.583-4.526-11.685-2.788
				c-1.213,0.514-1.682,1.958-1.796,3.132c-2.385,24.513,0.605,49.886,2.934,74.287c2.874,30.111,6.682,60.132,10.806,90.095
				c2.346,17.043,4.784,34.077,7.466,51.07c1.165-1.53,2.331-3.061,3.497-4.59c-40.092-2.838-80.184-5.677-120.275-8.515
				c-6.607-0.468-13.216-0.936-19.823-1.403c0.322,2.374,0.643,4.749,0.964,7.123c9.092-3.307,18.184-6.612,27.276-9.919
				c1.813-0.659,3.146-2.458,2.533-4.461c-13.482-44.005-15.417-90.64-10.627-136.197c2.68-25.488,7.404-51.117,14.964-75.64
				c0.202-0.655,0.406-1.31,0.622-1.962C465.478,186.469,458.473,184.576,457.005,188.992L457.005,188.992z"/>
		</g>
	</g>
	<g>
		<line fill="none" x1="497.696" y1="320.136" x2="507.615" y2="419.321"/>
		<g>
			<path d="M494.07,320.136c3.307,33.062,6.612,66.123,9.919,99.185c0.461,4.608,7.718,4.653,7.253,0
				c-3.307-33.062-6.612-66.123-9.919-99.185C500.862,315.528,493.604,315.483,494.07,320.136L494.07,320.136z"/>
		</g>
	</g>
	<g>
		<line fill="none" x1="428.267" y1="282.942" x2="443.145" y2="301.539"/>
		<g>
			<path d="M425.702,285.506c4.959,6.199,9.919,12.398,14.878,18.597c2.922,3.652,8.019-1.515,5.129-5.129
				c-4.959-6.199-9.919-12.398-14.878-18.597C427.909,276.725,422.812,281.893,425.702,285.506L425.702,285.506z"/>
		</g>
	</g>
	<g>
		<g>
			<path d="M449.993,219.06c-7.057,4.44-13.541,10.611-17.886,17.732c-3.235,5.303-4.581,11.319-3.529,17.447
				c1.348,7.853,7.815,13.817,13.976,18.197c3.821,2.717,7.437-3.577,3.66-6.262c-5.082-3.614-10.253-8.542-10.796-15.128
				c-0.396-4.797,1.889-9.231,4.555-13.044c3.49-4.993,8.522-9.434,13.68-12.679C457.601,222.839,453.965,216.561,449.993,219.06
				L449.993,219.06z"/>
		</g>
	</g>
	<g>
		<g>
			<path d="M516.516,118.323c-0.405,1.156,0.261-0.522-0.222,0.535c-0.525,1.149-1.138,2.256-1.786,3.339
				c-2.273,3.801-5.261,7.078-8.596,9.973c-12.677,11.001-30.536,13.118-46.65,12.006c-4.671-0.322-4.639,6.933,0,7.253
				c18.196,1.256,36.892-1.882,51.292-13.72c5.461-4.49,10.58-10.69,12.955-17.458C525.062,115.826,518.053,113.94,516.516,118.323
				L516.516,118.323z"/>
		</g>
	</g>
	<g>
		<ellipse fill="#FFFFFF" cx="483.733" cy="114.101" rx="0.393" ry="0.525"/>
		<g>
			<path d="M479.713,114.101c0.067,0.772,0.158,1.593,0.642,2.24c0.384,0.513,0.767,1.073,1.374,1.363
				c0.705,0.336,1.207,0.549,2.003,0.549c1.117,0,1.984-0.477,2.81-1.177c0.853-0.723,1.119-1.931,1.21-2.974
				c0.058-0.671-0.239-1.7-0.642-2.24c-0.384-0.513-0.767-1.073-1.374-1.363c-0.705-0.336-1.207-0.549-2.003-0.549
				c-1.117,0-1.984,0.477-2.81,1.177C480.07,111.85,479.803,113.058,479.713,114.101c-0.079,0.915,0.433,1.935,1.062,2.564
				c0.677,0.677,1.606,1.062,2.564,1.062s1.887-0.385,2.564-1.062c0.724-0.724,0.977-1.572,1.062-2.564
				c0.003-0.04,0.007-0.08,0.01-0.12c-0.044,0.322-0.086,0.643-0.13,0.964c0.01-0.037,0.019-0.073,0.03-0.11
				c-0.122,0.289-0.243,0.578-0.366,0.866c0.024-0.067,0.06-0.127,0.107-0.179c-0.189,0.245-0.378,0.489-0.567,0.734
				c0.024-0.021,0.048-0.041,0.073-0.062c-0.245,0.189-0.489,0.378-0.734,0.567c0.027-0.013,0.055-0.027,0.083-0.039
				c-0.289,0.122-0.578,0.243-0.866,0.366c0.03-0.005,0.06-0.009,0.09-0.014c-0.643,0-1.285,0-1.928,0
				c0.03,0.005,0.06,0.009,0.09,0.014c-0.289-0.122-0.578-0.243-0.866-0.366c0.027,0.013,0.055,0.027,0.083,0.039
				c-0.245-0.189-0.489-0.378-0.734-0.567c0.024,0.021,0.048,0.041,0.073,0.062c-0.189-0.245-0.378-0.489-0.567-0.734
				c0.048,0.052,0.083,0.112,0.107,0.179c-0.122-0.289-0.243-0.578-0.366-0.866c0.01,0.037,0.019,0.073,0.03,0.11
				c-0.043-0.322-0.086-0.643-0.13-0.964c0.014,0.08,0.014,0.16,0,0.24c0.044-0.322,0.086-0.643,0.13-0.964
				c-0.01,0.037-0.019,0.073-0.03,0.11c0.122-0.288,0.243-0.578,0.366-0.866c-0.024,0.067-0.06,0.127-0.107,0.179
				c0.189-0.245,0.378-0.489,0.567-0.734c-0.024,0.021-0.048,0.041-0.073,0.062c0.245-0.189,0.489-0.378,0.734-0.567
				c-0.027,0.013-0.055,0.027-0.083,0.039c0.289-0.122,0.578-0.243,0.866-0.366c-0.03,0.005-0.06,0.009-0.09,0.014
				c0.643,0,1.285,0,1.928,0c-0.03-0.005-0.06-0.009-0.09-0.014c0.289,0.122,0.578,0.243,0.866,0.366
				c-0.027-0.013-0.055-0.027-0.083-0.039c0.245,0.189,0.489,0.378,0.734,0.567c-0.024-0.021-0.048-0.041-0.073-0.062
				c0.189,0.245,0.378,0.489,0.567,0.734c-0.048-0.052-0.083-0.112-0.107-0.179c0.122,0.289,0.243,0.578,0.366,0.866
				c-0.01-0.037-0.019-0.073-0.03-0.11c0.044,0.322,0.086,0.643,0.13,0.964c-0.003-0.04-0.007-0.08-0.01-0.12
				c-0.085-0.992-0.338-1.84-1.062-2.564c-0.677-0.677-1.606-1.062-2.564-1.062s-1.887,0.385-2.564,1.062
				C480.147,112.165,479.634,113.184,479.713,114.101z"/>
		</g>
	</g>
</g>
<g>
	<g>
		<path d="M594.662,295.269c0.117,5.963,0.234,11.927,0.351,17.89c0.092,4.671,7.345,4.68,7.253,0
			c-0.117-5.964-0.235-11.927-0.351-17.89C601.823,290.598,594.57,290.589,594.662,295.269L594.662,295.269z"/>
	</g>
</g>
<g>
	<g>
		<path fill="#FFFFFF" d="M531.784,405.975c1.717,6.742,128.82,5.944,131.367,0c2.547-5.944,4.105-71.323,0-75.199
			c-4.105-3.876-126.433-5.825-131.367,0C526.85,336.602,530.067,399.233,531.784,405.975z"/>
		<g>
			<path d="M528.287,406.939c1.816,5.429,11.891,5.261,16.325,5.704c11.144,1.113,22.387,1.385,33.578,1.586
				c24.337,0.436,49.021,0.523,73.262-1.966c4.568-0.469,13.711-0.314,15.381-5.869c1.116-3.712,1.159-7.95,1.438-11.788
				c0.467-6.409,0.697-12.837,0.861-19.26c0.322-12.684,0.622-25.604-0.773-38.238c-0.347-3.142-0.542-7.539-3.44-9.514
				c-1.82-1.24-4.635-1.323-6.721-1.597c-9.371-1.233-18.917-1.47-28.351-1.812c-13.459-0.488-26.93-0.693-40.398-0.708
				c-12.512-0.014-25.038,0.124-37.536,0.766c-6.733,0.346-15.084,0.017-21.332,2.959c-3.949,1.86-4.052,8.535-4.408,12.137
				c-0.811,8.194-0.709,16.504-0.589,24.726c0.131,8.965,0.5,17.93,1.07,26.877C526.991,396.189,527.055,401.8,528.287,406.939
				c1.09,4.548,8.084,2.618,6.993-1.928c-0.701-2.925-0.857-6.885-1.131-10.574c-0.49-6.592-0.804-13.198-1.04-19.803
				c-0.446-12.499-1.279-25.674,0.655-38.09c0.131-0.843,0.305-1.677,0.518-2.503c0.292-1.135,0.052-0.489,0.387-1.087
				c-0.356,0.636-1.391,0.784,0.261,0.332c3.195-0.874,5.652-0.975,9.018-1.264c11.315-0.971,22.714-1.128,34.063-1.244
				c24.728-0.253,49.664-0.148,74.327,1.873c3.358,0.276,5.441,0.399,8.253,1.026c0.349,0.078,0.694,0.174,1.031,0.293
				c-0.496-0.176-1.173-0.745-1.31-0.969c-0.159-0.259,0.027,0.03,0.239,0.864c0.231,0.902,0.367,1.829,0.501,2.75
				c1.75,12.051,1.122,24.854,0.867,37.021c-0.137,6.553-0.384,13.108-0.81,19.649c-0.252,3.875-0.324,7.659-1.27,11.181
				c-0.181,0.675,0.613-0.876,1.052-1.181c-0.838,0.583,0.696-0.201-0.207,0.124c-1.127,0.405-2.328,0.622-3.503,0.836
				c-3.521,0.64-7.197,0.938-11.056,1.247c-25.097,2.01-50.488,1.991-75.64,1.311c-8.631-0.234-17.277-0.581-25.873-1.414
				c-2.788-0.27-4.983-0.517-7.745-1.093c-0.865-0.181-1.723-0.402-2.554-0.703c-0.474-0.171,0.753,0.419-0.106-0.093
				c0.197,0.118,0.798,0.686,1.073,1.51C533.805,400.599,526.799,402.491,528.287,406.939z"/>
		</g>
	</g>
	<g>
		<path fill="#FFFFFF" d="M623.976,322.306c0-4.376-2.954-11.108-7.619-13.976"/>
		<g>
			<path d="M627.603,322.306c-0.2-6.709-3.82-13.399-9.415-17.108c-3.912-2.592-7.54,3.693-3.66,6.262
				c3.405,2.256,5.702,6.792,5.823,10.845C620.488,326.972,627.742,326.986,627.603,322.306L627.603,322.306z"/>
		</g>
	</g>
	<g>
		<path fill="#FFFFFF" d="M578.998,308.913c-5.622,2.462-6.607,14.999-6.539,15.471"/>
		<g>
			<path d="M577.168,305.782c-5.857,2.938-8.612,12.425-8.335,18.603c0.21,4.657,7.463,4.678,7.253,0
				c-0.162-3.6,1.199-10.563,4.743-12.34C585.01,309.947,581.336,303.691,577.168,305.782L577.168,305.782z"/>
		</g>
	</g>
</g>
</svg>
