<?xml version="1.0" encoding="utf-8"?>
<!-- Generator: Adobe Illustrator 17.1.0, SVG Export Plug-In . SVG Version: 6.00 Build 0)  -->
<!DOCTYPE svg PUBLIC "-//W3C//DTD SVG 1.1//EN" "http://www.w3.org/Graphics/SVG/1.1/DTD/svg11.dtd">
<svg version="1.1" id="Lager_1" xmlns="http://www.w3.org/2000/svg" xmlns:xlink="http://www.w3.org/1999/xlink" x="0px" y="0px"
	 viewBox="275 275 50 50" enable-background="new 275 275 50 50" xml:space="preserve">
<g>
	<g>
		<g>
			<path fill="#FFFFFF" d="M292.896,307.563c0,0,3.659-0.159,2.227-3.341c-0.71-1.578-1.661-4.059-0.636-6.522
				c1.025-2.463,2.992-4.332,6.357-3.536c0,0-2.223-4.298-1.836-7.097c0.239-1.728,2.451-3.555,5.017-2.937
				c1.552,0.374,3.549,1.346,5.996,4.16l-1.224,0.612l-0.245,4.772c0,0,4.365,1.938,5.384,5.139c0.857,2.692,0.898,4.542-2.57,8.81"
				/>
			<g>
				<path d="M292.893,307.88c0.709-0.035,1.459-0.25,2.035-0.67c1.32-0.964,0.746-2.461,0.228-3.702
					c-0.468-1.122-0.785-2.299-0.802-3.519c-0.018-1.27,0.458-2.469,1.139-3.52c1.191-1.84,3.175-2.465,5.267-1.999
					c0.278,0.062,0.486-0.215,0.357-0.466c-0.499-0.969-0.9-1.993-1.236-3.028c-0.538-1.657-1.104-3.793,0.118-5.272
					c1.279-1.548,3.306-1.597,5.043-0.916c1.893,0.742,3.438,2.228,4.756,3.728c0.021-0.166,0.042-0.333,0.062-0.499
					c-0.408,0.204-0.816,0.408-1.224,0.612c-0.1,0.05-0.151,0.165-0.157,0.271c-0.082,1.591-0.163,3.181-0.245,4.772
					c-0.005,0.103,0.062,0.233,0.159,0.277c2.133,0.954,4.468,2.66,5.236,4.947c0.398,1.185,0.616,2.413,0.337,3.648
					c-0.412,1.824-1.68,3.436-2.826,4.857c-0.254,0.315,0.193,0.765,0.451,0.446c1.211-1.5,2.445-3.123,2.957-5.014
					c0.362-1.337,0.132-2.682-0.268-3.98c-0.775-2.515-3.242-4.413-5.57-5.454c0.053,0.092,0.106,0.184,0.159,0.277
					c0.082-1.591,0.163-3.181,0.245-4.772c-0.052,0.09-0.104,0.181-0.157,0.271c0.408-0.204,0.816-0.408,1.224-0.612
					c0.194-0.097,0.189-0.355,0.062-0.499c-2.433-2.768-7.16-6.453-10.588-2.928c-1.42,1.46-1.064,3.582-0.578,5.366
					c0.357,1.31,0.87,2.612,1.492,3.821c0.119-0.155,0.238-0.311,0.357-0.466c-1.847-0.411-3.646-0.124-5.065,1.182
					c-1.517,1.397-2.269,3.583-2.112,5.606c0.085,1.106,0.438,2.174,0.862,3.191c0.311,0.746,0.776,1.601,0.36,2.401
					c-0.359,0.689-1.349,0.972-2.074,1.008C292.491,307.266,292.485,307.9,292.893,307.88L292.893,307.88z"/>
			</g>
		</g>
		<g>
			<path fill="#FFFFFF" d="M308.185,295.755c0,0,3.671,11.013,0.489,21.292l2.692,0.979l-13.827,0.979c0,0,2.57-16.275,2.08-21.169
				c0,0-2.551-0.012-2.429,3.047c0.122,3.059,4.897,7.948-3.5,9.863"/>
			<g>
				<path d="M307.879,295.837c0.708,2.134,1.115,4.395,1.415,6.617c0.65,4.825,0.499,9.832-0.925,14.509
					c-0.053,0.175,0.064,0.332,0.222,0.389c0.897,0.326,1.795,0.653,2.692,0.979c0.029-0.208,0.057-0.415,0.086-0.623
					c-4.609,0.326-9.218,0.653-13.827,0.979c0.101,0.134,0.202,0.267,0.304,0.401c0.459-2.912,0.861-5.834,1.226-8.759
					c0.294-2.356,0.558-4.718,0.744-7.085c0.141-1.785,0.292-3.618,0.121-5.407c-0.016-0.17-0.129-0.32-0.315-0.319
					c-1.028,0.004-1.987,0.636-2.431,1.549c-0.678,1.394-0.171,2.937,0.319,4.292c0.45,1.243,1.043,2.629,0.75,3.976
					c-0.435,2-2.948,2.705-4.651,3.104c-0.399,0.093-0.233,0.705,0.164,0.612c1.759-0.412,3.865-1.064,4.801-2.76
					c0.657-1.19,0.378-2.611-0.011-3.837c-0.389-1.228-1.03-2.447-1.06-3.757c-0.028-1.264,0.738-2.54,2.114-2.545
					c-0.105-0.107-0.21-0.213-0.315-0.319c0.167,1.745,0.021,3.529-0.111,5.271c-0.179,2.365-0.446,4.724-0.737,7.077
					c-0.361,2.919-0.763,5.834-1.221,8.74c-0.029,0.186,0.081,0.417,0.304,0.401c4.609-0.326,9.218-0.653,13.827-0.979
					c0.365-0.026,0.428-0.499,0.086-0.623c-0.897-0.326-1.795-0.653-2.692-0.979c0.074,0.13,0.148,0.26,0.222,0.389
					c1.435-4.713,1.576-9.719,0.96-14.582c-0.292-2.308-0.714-4.661-1.449-6.876C308.363,295.287,307.75,295.449,307.879,295.837
					L307.879,295.837z"/>
			</g>
		</g>
		<g>
			<line fill="none" x1="304.514" y1="308.603" x2="303.535" y2="318.393"/>
			<g>
				<path d="M304.197,308.601c-0.326,3.263-0.653,6.526-0.979,9.789c-0.041,0.408,0.594,0.407,0.634,0.005
					c0.326-3.263,0.653-6.526,0.979-9.789C304.872,308.198,304.238,308.198,304.197,308.601L304.197,308.601z"/>
			</g>
		</g>
		<g>
			<line fill="none" x1="311.367" y1="304.932" x2="309.898" y2="306.768"/>
			<g>
				<path d="M311.141,304.709c-0.489,0.612-0.979,1.224-1.468,1.836c-0.252,0.316,0.195,0.766,0.451,0.446
					c0.489-0.612,0.979-1.224,1.468-1.836C311.845,304.84,311.397,304.39,311.141,304.709L311.141,304.709z"/>
			</g>
		</g>
		<g>
			<g>
				<path d="M308.883,299.211c0.475,0.3,0.898,0.695,1.257,1.125c0.904,1.083,0.568,2.187-0.525,2.977
					c-0.328,0.237-0.011,0.787,0.321,0.547c1.152-0.832,1.771-1.986,1.087-3.336c-0.385-0.759-1.109-1.411-1.823-1.861
					C308.854,298.443,308.538,298.993,308.883,299.211L308.883,299.211z"/>
			</g>
		</g>
		<g>
			<ellipse fill="#FFFFFF" cx="305.892" cy="288.268" rx="0.039" ry="0.052"/>
			<g>
				<path d="M305.614,288.266c0.009-0.038,0.018-0.076,0.027-0.114c0.038-0.038,0.076-0.077,0.114-0.115
					c0.019-0.008,0.037-0.015,0.056-0.023c0.055,0,0.11,0,0.166,0c0.017,0.007,0.035,0.014,0.052,0.021
					c0.038,0.038,0.077,0.076,0.115,0.114c0.037,0.079,0.037,0.157,0.001,0.235c-0.038,0.038-0.076,0.077-0.114,0.115
					c-0.019,0.008-0.037,0.015-0.056,0.023c-0.055,0-0.11,0-0.166,0c-0.017-0.007-0.035-0.014-0.052-0.021
					c-0.038-0.038-0.077-0.076-0.115-0.114C305.633,288.347,305.623,288.306,305.614,288.266c0.011,0.089,0.028,0.162,0.094,0.228
					c0.058,0.058,0.138,0.091,0.221,0.092c0.156,0.001,0.34-0.143,0.319-0.315c-0.009-0.073-0.013-0.143-0.059-0.205
					c-0.073-0.098-0.167-0.166-0.294-0.167c-0.092-0.001-0.186,0.038-0.251,0.104c-0.074,0.075-0.095,0.162-0.108,0.262
					c-0.007,0.059,0.024,0.158,0.059,0.205c0.073,0.098,0.167,0.166,0.294,0.167c0.092,0.001,0.186-0.038,0.251-0.104
					c0.074-0.075,0.095-0.162,0.108-0.262c0.021-0.172-0.157-0.318-0.315-0.319c-0.085-0.001-0.168,0.034-0.228,0.094
					C305.643,288.109,305.625,288.18,305.614,288.266z"/>
			</g>
		</g>
	</g>
	<g>
		<g>
			<path d="M293.202,309.518c0.932-0.078,1.904-0.703,2.692-1.141c0.357-0.198,0.037-0.745-0.321-0.547
				c-0.612,0.339-1.234,0.669-1.892,0.91c-0.129,0.047-0.26,0.088-0.393,0.122c-0.052,0.013-0.202,0.031-0.083,0.021
				C292.802,308.918,292.795,309.552,293.202,309.518L293.202,309.518z"/>
		</g>
	</g>
</g>
<g>
	<path d="M300.34,292.827c0,0,5.41,1.163,8.191,0.405l0.253,1.163c0,0-2.427,0.961-8.595-0.253L300.34,292.827z"/>
	<g>
		<path d="M300.256,293.133c1.034,0.221,2.085,0.374,3.134,0.498c1.707,0.201,3.54,0.342,5.222-0.093
			c-0.129-0.075-0.259-0.149-0.388-0.224c0.084,0.388,0.169,0.775,0.253,1.163c0.075-0.129,0.149-0.259,0.224-0.388
			c-0.574,0.223-1.239,0.27-1.845,0.314c-2.2,0.158-4.43-0.149-6.584-0.567c0.078,0.103,0.156,0.205,0.233,0.308
			c0.051-0.438,0.101-0.876,0.152-1.315c0.047-0.407-0.588-0.406-0.634-0.005c-0.051,0.438-0.101,0.876-0.152,1.315
			c-0.015,0.132,0.106,0.283,0.233,0.308c2.179,0.422,4.413,0.722,6.637,0.596c0.691-0.039,1.47-0.088,2.124-0.343
			c0.167-0.065,0.264-0.205,0.224-0.388c-0.084-0.388-0.169-0.775-0.253-1.163c-0.037-0.17-0.227-0.266-0.388-0.224
			c-1.628,0.421-3.403,0.258-5.054,0.071c-0.995-0.112-1.991-0.266-2.971-0.475C300.024,292.436,299.856,293.047,300.256,293.133z"
			/>
	</g>
</g>
<g>
	<ellipse fill="#FFFFFF" cx="301.481" cy="293.643" rx="0.224" ry="0.195"/>
	<g>
		<path fill="#FFFFFF" d="M301.388,293.641c0.001-0.025,0.007-0.049,0.02-0.07c0.029-0.033,0.031-0.037,0.006-0.012
			c0.016-0.02,0.036-0.032,0.06-0.037c-0.035,0.008-0.032,0.009,0.009,0.001c0.038,0.008,0.04,0.008,0.006,0
			c0.023,0.005,0.041,0.017,0.056,0.035c-0.025-0.025-0.022-0.021,0.008,0.013c0.014,0.024,0.021,0.049,0.021,0.077
			c-0.001,0.025-0.007,0.049-0.02,0.07c-0.029,0.033-0.031,0.037-0.006,0.012c-0.016,0.02-0.036,0.032-0.06,0.037
			c0.035-0.008,0.032-0.009-0.009-0.001c-0.038-0.008-0.04-0.008-0.006,0c-0.023-0.005-0.041-0.017-0.056-0.035
			c0.025,0.025,0.022,0.021-0.008-0.013C301.395,293.694,301.388,293.669,301.388,293.641c0.011,0.172,0.133,0.318,0.315,0.319
			c0.163,0.001,0.331-0.142,0.319-0.315c-0.02-0.3-0.242-0.5-0.539-0.514c-0.294-0.015-0.525,0.23-0.543,0.51
			c-0.02,0.3,0.272,0.501,0.539,0.514c0.294,0.015,0.525-0.23,0.543-0.51c0.011-0.172-0.15-0.318-0.315-0.319
			C301.527,293.325,301.399,293.469,301.388,293.641z"/>
	</g>
</g>
<g>
	<ellipse cx="308.629" cy="291.512" rx="1.767" ry="1.704"/>
	<g>
		<path d="M310.079,291.51c-0.089,1.797-2.812,1.802-2.9,0.005C307.09,289.717,309.991,289.719,310.079,291.51
			c0.02,0.407,0.654,0.413,0.634,0.005c-0.057-1.163-0.933-1.971-2.082-2.024c-1.146-0.052-2.033,0.933-2.087,2.019
			c-0.057,1.161,1.019,1.975,2.082,2.023c1.146,0.052,2.033-0.933,2.087-2.019C310.734,291.105,310.099,291.103,310.079,291.51z"/>
	</g>
</g>
<g>
	<g>
		<path d="M306.864,290.966c-2.536,0.077-5.432-0.09-7.74-1.215c-0.565-0.275-2.62-1.522-2.97-0.236
			c-0.323,1.19,1.484,0.992,2.075,0.771c-0.102-0.176-0.205-0.353-0.308-0.529c-0.421,0.415-1.661,1.532-1.072,2.174
			c0.416,0.454,1.356-0.051,1.668-0.39c0.35-0.38,0.401-0.921,0.389-1.411c-0.01-0.409-0.644-0.413-0.634-0.005
			c0.006,0.253-0.001,0.485-0.076,0.73c-0.076,0.247-0.283,0.42-0.514,0.514c-0.11,0.038-0.223,0.063-0.339,0.075
			c-0.171,0.017-0.026,0.146,0.008,0.036c0.149-0.477,0.673-0.933,1.021-1.277c0.213-0.21-0.003-0.643-0.308-0.529
			c-0.34,0.128-0.956,0.367-1.281,0.075c-0.171-0.154,0.59-0.107,0.661-0.092c0.658,0.148,1.217,0.604,1.836,0.859
			c0.631,0.26,1.284,0.447,1.95,0.595c1.825,0.406,3.76,0.547,5.629,0.49C307.268,291.587,307.273,290.953,306.864,290.966
			L306.864,290.966z"/>
	</g>
</g>
<g>
	<ellipse fill="#FFFFFF" cx="306.667" cy="299.544" rx="0.039" ry="0.052"/>
	<g>
		<path d="M306.389,299.542c0.009-0.038,0.018-0.076,0.027-0.114c0.038-0.038,0.076-0.077,0.114-0.115
			c0.019-0.008,0.037-0.015,0.056-0.023c0.055,0,0.11,0,0.166,0c0.017,0.007,0.035,0.014,0.052,0.021
			c0.038,0.038,0.077,0.076,0.115,0.114c0.037,0.079,0.037,0.157,0.001,0.235c-0.038,0.038-0.076,0.077-0.114,0.115
			c-0.019,0.008-0.037,0.015-0.056,0.023c-0.055,0-0.11,0-0.166,0c-0.017-0.007-0.035-0.014-0.052-0.021
			c-0.038-0.038-0.077-0.076-0.115-0.114C306.408,299.622,306.398,299.582,306.389,299.542c0.011,0.089,0.028,0.162,0.094,0.228
			c0.058,0.058,0.138,0.091,0.221,0.092c0.156,0.001,0.34-0.143,0.319-0.315c-0.009-0.073-0.013-0.143-0.059-0.205
			c-0.073-0.098-0.167-0.166-0.294-0.167c-0.092-0.001-0.186,0.039-0.251,0.104c-0.074,0.075-0.095,0.162-0.108,0.262
			c-0.007,0.059,0.024,0.158,0.059,0.205c0.073,0.098,0.167,0.166,0.294,0.167c0.092,0.001,0.186-0.038,0.251-0.104
			c0.074-0.075,0.095-0.162,0.108-0.262c0.021-0.172-0.157-0.318-0.315-0.319c-0.085-0.001-0.168,0.034-0.228,0.094
			C306.418,299.385,306.399,299.456,306.389,299.542z"/>
	</g>
</g>
<g>
	<ellipse fill="#FFFFFF" cx="302.407" cy="299.498" rx="0.039" ry="0.052"/>
	<g>
		<path d="M302.129,299.496c0.009-0.038,0.018-0.076,0.027-0.114c0.038-0.038,0.076-0.077,0.114-0.115
			c0.019-0.008,0.037-0.015,0.056-0.023c0.055,0,0.11,0,0.166,0c0.017,0.007,0.035,0.014,0.052,0.021
			c0.038,0.038,0.077,0.076,0.115,0.114c0.037,0.079,0.037,0.157,0.001,0.236c-0.038,0.038-0.076,0.077-0.114,0.115
			c-0.019,0.008-0.037,0.015-0.056,0.023c-0.055,0-0.11,0-0.166,0c-0.017-0.007-0.035-0.014-0.052-0.021
			c-0.038-0.038-0.077-0.076-0.115-0.114C302.148,299.577,302.138,299.536,302.129,299.496c0.011,0.089,0.028,0.162,0.094,0.228
			c0.058,0.058,0.138,0.091,0.221,0.092c0.156,0.001,0.34-0.143,0.319-0.315c-0.009-0.073-0.013-0.143-0.059-0.205
			c-0.073-0.098-0.167-0.166-0.294-0.167c-0.092-0.001-0.186,0.038-0.251,0.104c-0.074,0.075-0.095,0.162-0.108,0.263
			c-0.007,0.059,0.024,0.158,0.059,0.204c0.073,0.098,0.167,0.166,0.294,0.167c0.092,0.001,0.186-0.038,0.251-0.104
			c0.074-0.075,0.095-0.162,0.108-0.262c0.021-0.172-0.157-0.318-0.315-0.319c-0.085-0.001-0.168,0.034-0.228,0.094
			C302.158,299.339,302.14,299.41,302.129,299.496z"/>
	</g>
</g>
<g>
	<ellipse fill="#FFFFFF" cx="303.504" cy="293.974" rx="0.224" ry="0.195"/>
	<g>
		<path fill="#FFFFFF" d="M303.411,293.972c0-0.025,0.007-0.049,0.02-0.07c0.029-0.033,0.031-0.037,0.006-0.012
			c0.016-0.02,0.036-0.032,0.06-0.037c-0.035,0.008-0.032,0.009,0.009,0.001c0.038,0.008,0.04,0.008,0.006,0
			c0.023,0.005,0.041,0.017,0.056,0.035c-0.025-0.025-0.022-0.021,0.008,0.013c0.014,0.024,0.021,0.049,0.021,0.077
			c0,0.025-0.007,0.049-0.02,0.07c-0.029,0.033-0.031,0.037-0.006,0.012c-0.016,0.02-0.036,0.032-0.06,0.037
			c0.035-0.008,0.032-0.009-0.009-0.001c-0.038-0.008-0.04-0.008-0.006,0c-0.023-0.005-0.041-0.017-0.056-0.035
			c0.025,0.025,0.022,0.021-0.008-0.013C303.418,294.025,303.411,293.999,303.411,293.972c0.011,0.172,0.133,0.318,0.315,0.319
			c0.163,0.001,0.331-0.142,0.319-0.315c-0.02-0.3-0.242-0.5-0.539-0.514c-0.294-0.015-0.525,0.23-0.543,0.51
			c-0.02,0.3,0.272,0.501,0.539,0.514c0.294,0.015,0.525-0.23,0.543-0.51c0.011-0.172-0.15-0.318-0.315-0.319
			C303.55,293.656,303.422,293.799,303.411,293.972z"/>
	</g>
</g>
<g>
	<ellipse fill="#FFFFFF" cx="305.445" cy="294.162" rx="0.224" ry="0.195"/>
	<g>
		<path fill="#FFFFFF" d="M305.352,294.16c0-0.025,0.007-0.049,0.02-0.07c0.029-0.033,0.031-0.037,0.006-0.012
			c0.016-0.02,0.036-0.032,0.06-0.037c-0.035,0.008-0.032,0.009,0.009,0c0.038,0.008,0.04,0.008,0.006,0
			c0.023,0.005,0.041,0.017,0.056,0.035c-0.025-0.025-0.022-0.021,0.008,0.013c0.014,0.024,0.021,0.049,0.021,0.077
			c0,0.025-0.007,0.049-0.02,0.07c-0.029,0.033-0.031,0.037-0.006,0.012c-0.016,0.02-0.036,0.032-0.06,0.037
			c0.035-0.008,0.032-0.009-0.009-0.001c-0.038-0.008-0.04-0.008-0.006,0c-0.023-0.005-0.041-0.017-0.056-0.035
			c0.025,0.025,0.022,0.021-0.008-0.013C305.359,294.213,305.352,294.187,305.352,294.16c0.011,0.172,0.133,0.318,0.315,0.319
			c0.163,0.001,0.331-0.142,0.319-0.315c-0.02-0.3-0.242-0.5-0.539-0.514c-0.294-0.015-0.525,0.23-0.543,0.51
			c-0.02,0.3,0.272,0.501,0.539,0.514c0.294,0.015,0.525-0.23,0.543-0.51c0.011-0.172-0.15-0.318-0.315-0.319
			C305.491,293.844,305.364,293.987,305.352,294.16z"/>
	</g>
</g>
<g>
	<ellipse fill="#FFFFFF" cx="307.431" cy="294.108" rx="0.224" ry="0.195"/>
	<g>
		<path fill="#FFFFFF" d="M307.338,294.106c0-0.025,0.007-0.049,0.02-0.07c0.029-0.033,0.031-0.037,0.006-0.012
			c0.016-0.02,0.036-0.032,0.06-0.037c-0.035,0.008-0.032,0.008,0.009,0c0.038,0.008,0.04,0.008,0.006,0
			c0.023,0.005,0.041,0.017,0.056,0.035c-0.025-0.025-0.022-0.021,0.008,0.013c0.014,0.024,0.021,0.049,0.021,0.077
			c0,0.025-0.007,0.049-0.02,0.07c-0.029,0.033-0.031,0.037-0.006,0.012c-0.016,0.02-0.036,0.032-0.06,0.037
			c0.035-0.008,0.032-0.009-0.009-0.001c-0.038-0.008-0.04-0.008-0.006,0c-0.023-0.005-0.041-0.017-0.056-0.035
			c0.025,0.025,0.022,0.021-0.008-0.013C307.344,294.159,307.337,294.133,307.338,294.106c0.011,0.172,0.133,0.318,0.315,0.319
			c0.163,0.001,0.331-0.142,0.319-0.315c-0.02-0.3-0.242-0.5-0.539-0.514c-0.294-0.015-0.525,0.23-0.543,0.51
			c-0.02,0.3,0.272,0.501,0.539,0.514c0.294,0.015,0.525-0.23,0.543-0.51c0.011-0.172-0.15-0.318-0.315-0.319
			C307.476,293.79,307.349,293.933,307.338,294.106z"/>
	</g>
</g>
<g>
	<g>
		<path d="M300.02,293.102c-1.208-0.267-2.437-0.454-3.664-0.608c-2.191-0.275-4.469-0.442-6.658-0.066
			c-0.881,0.151-1.797,0.422-2.506,0.988c-0.943,0.752-1.113,2.186-1.107,3.313c0.008,1.639,0.743,3.104,1.623,4.444
			c0.769,1.17,1.67,2.247,2.559,3.327c0.264,0.32,0.545,0.639,0.76,0.995c0.297,0.49,0.413,1.162,0.459,1.724
			c0.102,1.249-0.312,2.461-0.955,3.516c-0.597,0.981-1.406,1.831-2.293,2.555c-0.555,0.452-1.216,0.958-1.917,1.157
			c-0.419,0.119-0.896-0.177-1.002-0.633c-0.115-0.493,0.184-1.047,0.421-1.454c0.199-0.341,0.485-0.571,0.832-0.751
			c0.701-0.364,1.551-0.45,2.329-0.452c0.32-0.001,0.643,0.018,0.959,0.074c0.11,0.019,0.218,0.045,0.324,0.081
			c0.036,0.012,0.014,0.003,0.058,0.026c0.035,0.019-0.016-0.026-0.01-0.013c0.13,0.298,0.564,0.04,0.436-0.255
			c-0.104-0.239-0.496-0.295-0.717-0.334c-0.472-0.083-0.957-0.096-1.435-0.075c-1.033,0.047-2.257,0.281-2.969,1.1
			c-0.68,0.782-1.191,2.315-0.135,3.006c0.603,0.394,1.241,0.142,1.806-0.17c1.84-1.013,3.506-2.757,4.309-4.703
			c0.484-1.172,0.611-2.441,0.298-3.676c-0.116-0.457-0.28-0.886-0.559-1.265c-0.302-0.411-0.635-0.8-0.96-1.194
			c-0.932-1.129-1.85-2.277-2.6-3.538c-0.39-0.655-0.725-1.345-0.928-2.082c-0.245-0.888-0.244-1.848-0.065-2.747
			c0.1-0.503,0.25-1.068,0.626-1.437c0.282-0.276,0.641-0.478,1.004-0.629c0.929-0.387,1.959-0.512,2.955-0.57
			c1.903-0.111,3.827,0.065,5.711,0.331c0.963,0.136,1.926,0.293,2.876,0.503C300.203,293.659,300.338,293.172,300.02,293.102
			L300.02,293.102z"/>
	</g>
</g>
</svg>
