<?xml version="1.0" encoding="utf-8"?>
<!-- Generator: Adobe Illustrator 17.1.0, SVG Export Plug-In . SVG Version: 6.00 Build 0)  -->
<!DOCTYPE svg PUBLIC "-//W3C//DTD SVG 1.1//EN" "http://www.w3.org/Graphics/SVG/1.1/DTD/svg11.dtd">
<svg version="1.1" id="Lager_1" xmlns="http://www.w3.org/2000/svg" xmlns:xlink="http://www.w3.org/1999/xlink" x="0px" y="0px"
	 viewBox="0 0 50 50" enable-background="new 0 0 50 50" xml:space="preserve">
<g>
	<g>
		<path d="M20.981,16.132c0.783,2.215,3.532,2.858,5.598,2.722c0.429-0.028,0.431-0.697,0-0.669
			c-1.406,0.092-2.895-0.092-4.016-1.019c-0.288-0.238-0.538-0.522-0.738-0.837c-0.08-0.126-0.196-0.367-0.199-0.374
			C21.484,15.549,20.837,15.723,20.981,16.132L20.981,16.132z"/>
	</g>
</g>
<g>
	<g>
		<path d="M18.369,30.228c-0.389,4.12-0.941,8.23-1.585,12.319c-0.031,0.199,0.086,0.44,0.323,0.424
			c4.056-0.287,8.111-0.574,12.166-0.861c0.383-0.027,0.447-0.528,0.089-0.658c-0.789-0.287-1.579-0.574-2.368-0.861
			c0.078,0.137,0.156,0.274,0.234,0.411c1.64-5.378,1.426-11.181,0.569-16.68c-0.134-0.858-0.289-1.712-0.457-2.564
			c-0.07-0.352-0.207-0.951-0.227-1.175c-0.052-0.579,0.078-1.233,0.108-1.813c0.042-0.812,0.08-1.624,0.117-2.436
			c0.002-0.062,0.006-0.123,0.008-0.184c-0.056,0.096-0.11,0.193-0.166,0.289c0.359-0.179,0.718-0.359,1.076-0.538
			c0.203-0.102,0.201-0.373,0.067-0.525c-2.163-2.46-6.355-5.705-9.395-2.578c-1.266,1.302-0.958,3.187-0.523,4.779
			c0.315,1.156,0.768,2.306,1.318,3.373c0.126-0.164,0.252-0.328,0.378-0.492c-0.853-0.193-1.762-0.304-2.6,0.01
			c-0.653,0.245-1.123,0.758-1.486,1.335c-1.042,1.653-1.635,3.685-0.836,5.549c0.316,0.738,0.674,1.482,1.372,1.916
			c0.856,0.532,1.981,0.731,2.973,0.636c1.075-0.103,2.133-0.648,3.054-1.178c0.526-0.303,1.084-0.638,1.541-1.044
			c0.323-0.287-0.152-0.759-0.473-0.473c-1.009,0.896-2.425,1.589-3.71,1.94c-0.923,0.252-1.95,0.072-2.804-0.328
			c-0.669-0.313-0.951-0.906-1.259-1.546c-0.815-1.687-0.245-3.386,0.604-4.936c0.284-0.517,0.65-0.956,1.187-1.218
			c0.683-0.331,1.558-0.177,2.26-0.017c0.293,0.066,0.515-0.227,0.378-0.492c-0.437-0.848-0.788-1.747-1.083-2.653
			c-0.466-1.433-0.97-3.3,0.089-4.582c1.115-1.349,2.872-1.385,4.384-0.793c1.655,0.648,3.006,1.954,4.159,3.266
			c0.022-0.175,0.045-0.351,0.067-0.525c-0.359,0.179-0.718,0.359-1.076,0.538c-0.107,0.053-0.16,0.175-0.166,0.289
			c-0.064,1.415-0.113,2.833-0.22,4.246c-0.023,0.314,0.053,0.614,0.114,0.922c0.141,0.708,0.28,1.417,0.404,2.128
			c0.951,5.405,1.261,11.126-0.137,16.48c-0.079,0.301-0.167,0.6-0.258,0.898c-0.056,0.185,0.066,0.351,0.234,0.411
			c0.789,0.287,1.579,0.574,2.368,0.861c0.03-0.22,0.059-0.438,0.089-0.658c-4.056,0.287-8.111,0.574-12.166,0.861
			c0.107,0.142,0.215,0.282,0.323,0.424c0.654-4.146,1.214-8.317,1.61-12.496C19.079,29.798,18.408,29.802,18.369,30.228
			L18.369,30.228z"/>
	</g>
</g>
<g>
	<g>
		<path d="M27.666,27.509c0.669,0.733,1.764,1.379,2.787,1.178c1.568-0.308,2.231-2.007,2.42-3.414
			c0.21-1.578,0.063-3.183-0.155-4.752c-0.091-0.657-0.206-1.31-0.332-1.959c-0.04-0.2-0.08-0.401-0.12-0.601
			c-0.014-0.071-0.056-0.352-0.05-0.25c-0.023-0.429-0.694-0.431-0.669,0c0.038,0.687,0.27,1.395,0.385,2.071
			c0.237,1.392,0.393,2.807,0.37,4.221c-0.023,1.364-0.227,3.084-1.513,3.864c-0.894,0.542-2.035-0.162-2.647-0.832
			C27.847,26.716,27.375,27.191,27.666,27.509L27.666,27.509z"/>
	</g>
</g>
<g>
	<g>
		<path d="M27.159,23.541c0.554,0.7,1.356,1.556,2.275,1.711c1.121,0.189,1.29-0.963,1.296-1.789
			c0.014-2.002-0.452-4.07-0.911-6.012c-0.099-0.42-0.745-0.242-0.645,0.178c0.382,1.619,0.703,3.273,0.846,4.93
			c0.036,0.424,0.298,2.027-0.408,2.041c-0.745,0.015-1.558-1.003-1.979-1.534C27.365,22.73,26.894,23.207,27.159,23.541
			L27.159,23.541z"/>
	</g>
</g>
<g>
	<g>
		<path d="M25.537,14.241c0.431,0,0.431-0.669,0-0.669S25.106,14.241,25.537,14.241L25.537,14.241z"/>
	</g>
</g>
<g>
	<g>
		<path fill="#FFFFFF" d="M37.026,16.293c-0.301,0-0.545-1.116-0.545-2.493s0.244-2.493,0.545-2.493s0.544,1.116,0.544,2.493
			C37.57,15.176,37.327,16.293,37.026,16.293"/>
		<g>
			<path d="M37.114,15.97c-0.042-0.008-0.143-0.461-0.166-0.569c-0.099-0.453-0.117-0.924-0.13-1.386
				c-0.021-0.74-0.051-1.728,0.316-2.399c-0.072,0-0.144,0-0.217,0c0.037,0.059,0.066,0.123,0.086,0.192
				c0.063,0.175,0.095,0.363,0.129,0.545c0.088,0.475,0.099,0.966,0.103,1.448c0.005,0.483-0.029,0.97-0.103,1.448
				c-0.02,0.126-0.131,0.71-0.195,0.723c-0.423,0.083-0.244,0.728,0.178,0.645c0.881-0.172,0.784-2.22,0.79-2.816
				c0.005-0.545,0.074-2.827-0.88-2.827c-0.913,0-0.862,2.079-0.877,2.612c-0.02,0.714,0.033,1.439,0.185,2.137
				c0.071,0.327,0.22,0.819,0.603,0.894C37.358,16.698,37.538,16.053,37.114,15.97L37.114,15.97z"/>
		</g>
	</g>
	<g>
		<path fill="#FFFFFF" d="M25.401,16.7c0.119-0.354,0.192-0.851,0.192-1.399c0-0.54-0.071-1.03-0.186-1.383"/>
		<g>
			<path d="M25.723,16.789c0.285-0.94,0.285-2.019,0.006-2.96c-0.122-0.413-0.768-0.237-0.645,0.178
				c0.246,0.831,0.245,1.776-0.006,2.604C24.952,17.025,25.598,17.201,25.723,16.789L25.723,16.789z"/>
		</g>
	</g>
	<g>
		<path fill="#FFFFFF" d="M25.54,16.799c0.141,0.332-0.323,0.675-0.495,0.675c-0.351,0-0.743-0.991-0.743-2.07
			s0.37-2.542,0.719-2.542c0.174,0,0.517,0.765,0.437,1.167C25.46,14.029,24.982,15.484,25.54,16.799z"/>
		<g>
			<path d="M25.218,16.887c0.033,0.156-0.214,0.185-0.134,0.251c-0.148-0.12-0.212-0.364-0.268-0.533
				c-0.149-0.435-0.181-0.902-0.174-1.357c0.007-0.407,0.072-0.811,0.158-1.207c0.041-0.188,0.098-0.372,0.159-0.553
				c0.028-0.08,0.063-0.157,0.106-0.231c0.099-0.108,0.04-0.141-0.179-0.098c0.399,0.332,0.2,0.92,0.128,1.328
				C24.87,15.293,24.922,16.121,25.218,16.887c0.155,0.399,0.802,0.225,0.645-0.178c-0.271-0.701-0.315-1.428-0.184-2.165
				c0.07-0.395,0.157-0.674,0.065-1.085c-0.073-0.327-0.306-0.931-0.721-0.931c-0.407,0-0.589,0.468-0.71,0.781
				c-0.44,1.135-0.536,2.725-0.003,3.841c0.18,0.378,0.443,0.724,0.902,0.632c0.475-0.095,0.744-0.639,0.652-1.071
				C25.774,16.287,25.129,16.466,25.218,16.887z"/>
		</g>
	</g>
	<g>
		<ellipse fill="#FFFFFF" cx="37.345" cy="15.51" rx="0.56" ry="2.566"/>
		<g>
			<path d="M37.572,15.51c-0.006,0.708,0.03,1.63-0.338,2.266c0.074,0,0.149,0,0.224,0c-0.035-0.055-0.064-0.112-0.085-0.173
				c-0.063-0.164-0.095-0.341-0.13-0.511c-0.105-0.517-0.119-1.055-0.123-1.58c-0.006-0.701-0.027-1.637,0.338-2.266
				c-0.074,0-0.149,0-0.224,0c0.035,0.055,0.064,0.112,0.085,0.173c0.063,0.164,0.095,0.341,0.13,0.511
				C37.553,14.447,37.567,14.983,37.572,15.51c0.003,0.431,0.673,0.432,0.669,0c-0.005-0.557,0.084-2.901-0.895-2.901
				c-0.979,0-0.89,2.344-0.895,2.901c-0.005,0.555-0.077,2.901,0.895,2.901c0.979,0,0.89-2.344,0.895-2.901
				C38.245,15.078,37.575,15.079,37.572,15.51z"/>
		</g>
	</g>
	<g>
		<path fill="#FFFFFF" d="M25.494,16.7c0,0-0.203-0.594-0.172-1.255c0.023-0.481-0.028-0.804,0.172-1.311l11.42-1.145
			c0,0-0.555,3.671,0.238,5.092L25.494,16.7z"/>
		<g>
			<path d="M25.817,16.61c-0.239-0.728-0.254-1.664,0-2.388c-0.108,0.081-0.215,0.164-0.323,0.245
				c3.807-0.381,7.613-0.764,11.42-1.145c-0.108-0.142-0.215-0.282-0.323-0.424c-0.107,0.717-0.166,1.442-0.193,2.167
				c-0.038,1.045-0.033,2.234,0.465,3.183c0.096-0.168,0.193-0.336,0.289-0.503c-3.886-0.46-7.772-0.922-11.659-1.382
				c-0.428-0.051-0.423,0.619,0,0.669c3.886,0.46,7.772,0.922,11.659,1.382c0.27,0.031,0.394-0.303,0.289-0.503
				c-0.458-0.875-0.403-2.016-0.368-2.974c0.022-0.621,0.072-1.246,0.164-1.859c0.029-0.193-0.085-0.447-0.323-0.424
				c-3.807,0.381-7.613,0.764-11.42,1.145c-0.159,0.016-0.268,0.093-0.323,0.245c-0.293,0.832-0.275,1.907,0,2.744
				C25.306,17.196,25.952,17.022,25.817,16.61z"/>
		</g>
	</g>
	<g>
		<path fill="#FFFFFF" d="M25.665,13.883c0,0,0.105-0.63-0.172-0.709l11.32-1.816c0,0-0.291,1.001-0.235,1.558L25.665,13.883z"/>
		<g>
			<path d="M25.988,13.972c0.058-0.387,0.065-0.875-0.327-1.087c-0.027,0.203-0.053,0.408-0.08,0.611
				c3.773-0.605,7.547-1.211,11.32-1.816c-0.137-0.137-0.274-0.274-0.411-0.411c-0.15,0.528-0.279,1.097-0.246,1.648
				c0.112-0.112,0.223-0.223,0.335-0.335c-3.637,0.322-7.275,0.644-10.914,0.966c-0.427,0.037-0.43,0.708,0,0.669
				c3.637-0.322,7.275-0.644,10.914-0.966c0.173-0.015,0.346-0.141,0.335-0.335c-0.029-0.495,0.087-0.996,0.223-1.469
				c0.076-0.266-0.17-0.451-0.411-0.411c-3.773,0.605-7.547,1.211-11.32,1.816c-0.292,0.046-0.318,0.482-0.08,0.611
				c0.048,0.026,0.017,0.337,0.019,0.331C25.279,14.216,25.924,14.398,25.988,13.972z"/>
		</g>
	</g>
</g>
<g>
	<path fill="#FFFFFF" d="M25.917,20.924l1.517-4.368l2.144,0.107c0,0-1.675,5.808-2.881,6.594L25.917,20.924z"/>
	<g>
		<path fill="#FFFFFF" d="M26.24,21.013c0.506-1.456,1.011-2.912,1.517-4.368c-0.108,0.081-0.215,0.164-0.323,0.245
			c0.715,0.036,1.429,0.071,2.144,0.107c-0.108-0.142-0.215-0.282-0.323-0.424c-0.271,0.934-0.578,1.861-0.906,2.776
			c-0.271,0.755-0.565,1.505-0.91,2.23c-0.217,0.456-0.48,1.087-0.91,1.388c0.164,0.066,0.328,0.134,0.492,0.2
			c-0.26-0.777-0.519-1.555-0.78-2.332c-0.136-0.407-0.783-0.232-0.645,0.178c0.26,0.777,0.519,1.555,0.78,2.332
			c0.064,0.191,0.304,0.33,0.492,0.2c0.464-0.323,0.751-0.851,1.008-1.34c0.373-0.714,0.671-1.47,0.955-2.224
			c0.4-1.061,0.758-2.141,1.073-3.23c0.063-0.217-0.109-0.413-0.323-0.424c-0.715-0.036-1.429-0.071-2.144-0.107
			c-0.155-0.008-0.275,0.109-0.323,0.245c-0.506,1.456-1.011,2.912-1.517,4.368C25.452,21.244,26.099,21.418,26.24,21.013z"/>
	</g>
</g>
<g>
	<g>
		<path d="M19.035,23.271c-0.482,0.55-0.531,1.069-0.508,1.799c0.013,0.373,0.184,0.732,0.553,0.861
			c0.93,0.324,2.098-0.667,2.752-1.187c2.709-2.15,5.103-5.527,5.538-9.015c0.053-0.428-0.617-0.423-0.669,0
			c-0.377,3.024-2.389,5.815-4.553,7.856c-0.708,0.667-1.577,1.453-2.546,1.701c-0.775,0.2-0.422-1.169-0.093-1.544
			C19.791,23.421,19.319,22.945,19.035,23.271L19.035,23.271z"/>
	</g>
</g>
<g>
	<g>
		<path d="M24.461,27.423c3.312-2.913,5.101-7.18,5.916-11.437c0.08-0.422-0.565-0.602-0.645-0.178
			c-0.796,4.153-2.511,8.298-5.744,11.141C23.663,27.236,24.139,27.708,24.461,27.423L24.461,27.423z"/>
	</g>
</g>
<g>
	<g>
		<path d="M28.273,15.397c0.02-0.15-0.027,0.177-0.034,0.221c-0.038,0.248-0.083,0.493-0.129,0.738
			c-0.1,0.518-0.208,1.067-0.443,1.543c-0.189,0.386,0.387,0.725,0.578,0.338c0.427-0.869,0.571-1.888,0.696-2.84
			C28.999,14.971,28.328,14.976,28.273,15.397L28.273,15.397z"/>
	</g>
</g>
<g>
	<line fill="none" x1="23.243" y1="33.483" x2="22.38" y2="42.097"/>
	<g>
		<path d="M22.908,33.483c-0.287,2.872-0.574,5.742-0.861,8.614c-0.043,0.43,0.626,0.425,0.669,0
			c0.287-2.872,0.574-5.742,0.861-8.614C23.62,33.055,22.95,33.059,22.908,33.483L22.908,33.483z"/>
	</g>
</g>
<g>
	<path fill="#FFFFFF" d="M23.263,15.022c0.017,0,0.03,0.019,0.03,0.041s-0.014,0.041-0.03,0.041"/>
	<g>
		<path d="M23.173,15.345c0.003,0.001,0.008,0.002,0.012,0.003c-0.049-0.029-0.099-0.057-0.148-0.086
			c-0.012-0.015-0.024-0.03-0.036-0.046c-0.012-0.027-0.022-0.053-0.034-0.08c0.001,0.006,0.001,0.01,0.002,0.016
			c0-0.059,0-0.119,0-0.178c-0.001,0.006-0.001,0.01-0.002,0.016c0.012-0.027,0.022-0.053,0.034-0.08
			c0.012-0.015,0.024-0.03,0.036-0.046c0.049-0.029,0.099-0.057,0.148-0.086c-0.003,0.001-0.008,0.002-0.012,0.003
			c-0.175,0.048-0.282,0.237-0.234,0.411c0.049,0.177,0.236,0.281,0.411,0.234c0.163-0.044,0.277-0.195,0.277-0.364
			c0-0.168-0.113-0.32-0.277-0.364c-0.175-0.048-0.363,0.057-0.411,0.234C22.892,15.108,22.998,15.297,23.173,15.345L23.173,15.345z
			"/>
	</g>
</g>
</svg>
