<?xml version="1.0" encoding="utf-8"?>
<!-- Generator: Adobe Illustrator 17.0.2, SVG Export Plug-In . SVG Version: 6.00 Build 0)  -->
<!DOCTYPE svg PUBLIC "-//W3C//DTD SVG 1.1//EN" "http://www.w3.org/Graphics/SVG/1.1/DTD/svg11.dtd">
<svg version="1.1" id="Lager_1" xmlns="http://www.w3.org/2000/svg" xmlns:xlink="http://www.w3.org/1999/xlink" x="0px" y="0px"
	 width="600px" height="600px" viewBox="0 0 600 600" enable-background="new 0 0 600 600" xml:space="preserve">
<g>
	<g>
		<g>
			<path fill="#FFFFFF" d="M34.148,152.243c0,0,19.019-0.826,11.577-17.363c-3.691-8.202-8.635-21.102-3.307-33.901
				C47.745,88.18,57.97,78.464,75.46,82.597c0,0-11.558-22.339-9.542-36.891c1.244-8.98,12.738-18.479,26.076-15.263
				c8.066,1.944,18.446,6.996,31.167,21.625l-6.362,3.18l-1.271,24.805c0,0,22.691,10.07,27.985,26.713
				c4.453,13.992,4.67,23.608-13.358,45.794"/>
			<g>
				<path d="M34.148,154.06c10.363-0.55,17.482-7.63,13.95-18.159c-1.681-5.01-4.019-9.617-5.274-14.803
					c-1.961-8.1-0.654-16.013,3.12-23.341c5.867-11.382,16.663-16.012,29.029-13.409c1.587,0.336,2.8-1.214,2.053-2.668
					c-5.644-11.009-14.166-29.688-7.022-41.378c6.109-10,18.883-9.883,28.392-5.782c9.314,4.019,16.849,11.356,23.479,18.835
					c0.123-0.951,0.244-1.904,0.37-2.856c-2.12,1.059-4.241,2.12-6.362,3.18c-0.584,0.293-0.868,0.953-0.9,1.569
					c-0.424,8.27-0.849,16.537-1.271,24.805c-0.03,0.58,0.354,1.324,0.9,1.569c11.163,5.022,22.978,13.749,27.151,25.629
					c6.052,17.225-2.173,30.669-12.89,44.028c-1.452,1.809,1.104,4.399,2.57,2.57c8.29-10.335,17.175-22.12,16.319-36.07
					c-0.777-12.674-7.546-22.965-17.299-30.665c-3.789-2.993-7.926-5.553-12.216-7.759c-2.446-1.257-0.833-0.584-0.883,0.401
					c0.1-1.927,0.197-3.854,0.297-5.782c0.266-5.169,0.529-10.335,0.794-15.503c0.036-0.696,0.073-1.393,0.108-2.09
					c0.097-1.897,0.296-0.131-0.624,0.329c2.049-1.023,4.094-2.049,6.143-3.071c1.104-0.552,1.097-2.031,0.37-2.856
					C111.579,36.26,88.644,18.199,70.055,34.665c-13.422,11.886-2.796,35.919,3.837,48.85c0.686-0.89,1.367-1.779,2.053-2.668
					c-8.542-1.797-17.607-1.231-24.599,4.556c-7.809,6.463-12.322,16.145-13.054,26.166c-0.393,5.377,0.951,10.903,2.562,15.977
					c1.586,4.989,4.89,9.71,4.749,15.079c-0.143,5.356-7.053,7.569-11.453,7.803C31.815,150.549,31.804,154.183,34.148,154.06
					L34.148,154.06z"/>
			</g>
		</g>
		<g>
			<path fill="#FFFFFF" d="M113.619,90.863c0,0,19.08,57.243,2.546,110.67l13.992,5.087l-71.872,5.087
				c0,0,13.356-84.593,10.813-110.035c0,0-13.262-0.064-12.626,15.837c0.637,15.9,25.456,41.311-18.191,51.264"/>
			<g>
				<path d="M111.867,91.347c11.396,34.469,12.976,74.984,2.546,109.704c-0.301,1.006,0.357,1.904,1.27,2.236
					c4.663,1.696,9.329,3.392,13.992,5.087c0.161-1.19,0.323-2.38,0.484-3.57c-23.958,1.696-47.914,3.392-71.873,5.087
					c0.584,0.766,1.167,1.534,1.751,2.301c2.373-15.053,4.447-30.158,6.34-45.278c2.657-21.22,6.513-43.807,4.539-65.239
					c-0.089-0.979-0.757-1.83-1.817-1.817c-15.228,0.167-15.737,17.285-12.023,28.086c2.297,6.68,5.4,13.382,5.146,20.593
					c-0.423,11.98-15.003,16.229-24.423,18.488c-2.28,0.546-1.312,4.05,0.966,3.504c9.039-2.166,18.968-5.299,24.436-13.375
					c3.643-5.38,2.95-12.317,1.417-18.265c-1.707-6.616-4.933-12.776-6.147-19.528c-1.303-7.247,2.43-15.779,10.629-15.872
					c-0.606-0.606-1.213-1.213-1.817-1.817c1.936,20.996-1.809,43.078-4.369,63.874c-1.879,15.256-3.986,30.492-6.38,45.677
					c-0.17,1.08,0.464,2.393,1.751,2.301c23.958-1.696,47.914-3.392,71.872-5.087c2.084-0.149,2.426-2.863,0.484-3.57
					c-4.663-1.696-9.329-3.392-13.992-5.087c0.423,0.746,0.844,1.49,1.27,2.236c10.609-35.316,9.049-76.579-2.546-111.635
					C114.64,88.167,111.129,89.116,111.867,91.347L111.867,91.347z"/>
			</g>
		</g>
		<g>
			<line fill="none" x1="94.538" y1="157.649" x2="89.451" y2="208.532"/>
			<g>
				<path d="M92.721,157.649c-1.696,16.96-3.392,33.922-5.087,50.884c-0.233,2.333,3.403,2.31,3.634,0
					c1.696-16.96,3.392-33.922,5.087-50.884C96.59,155.316,92.954,155.34,92.721,157.649L92.721,157.649z"/>
			</g>
		</g>
		<g>
			<line fill="none" x1="130.159" y1="138.567" x2="122.526" y2="148.109"/>
			<g>
				<path d="M128.872,137.283c-2.546,3.18-5.087,6.362-7.633,9.542c-1.45,1.81,1.106,4.4,2.57,2.57
					c2.546-3.18,5.087-6.362,7.633-9.542C132.89,138.043,130.336,135.451,128.872,137.283L128.872,137.283z"/>
			</g>
		</g>
		<g>
			<g>
				<path d="M117.156,108.971c2.324,1.476,4.373,3.377,6.183,5.439c4.906,5.579,3.403,11.343-2.367,15.595
					c-1.864,1.373-0.056,4.532,1.834,3.137c5.994-4.417,9.214-10.214,5.823-17.363c-1.932-4.073-5.877-7.559-9.639-9.946
					C117.004,104.573,115.183,107.719,117.156,108.971L117.156,108.971z"/>
			</g>
		</g>
		<g>
			<g>
				<path d="M81.338,55.095c4.706,13.06,20.705,16.665,32.918,15.965c2.33-0.134,2.343-3.77,0-3.634
					c-10.426,0.599-25.363-2.054-29.413-13.293C84.055,51.938,80.542,52.883,81.338,55.095L81.338,55.095z"/>
			</g>
		</g>
		<g>
			<ellipse fill="#FFFFFF" cx="101.703" cy="51.951" rx="0.202" ry="0.27"/>
			<g>
				<path d="M100.151,51.467c0.027-0.067,0.056-0.134,0.083-0.201c0.363-0.278,0.724-0.558,1.084-0.834
					c-0.034,0.013-0.067,0.023-0.102,0.036c0.323,0,0.646,0,0.966,0c-0.034-0.013-0.067-0.023-0.102-0.036
					c0.363,0.278,0.724,0.558,1.084,0.834c0.027,0.067,0.056,0.134,0.083,0.201c0,0.323,0,0.646,0,0.966
					c-0.027,0.067-0.056,0.134-0.083,0.201c-0.363,0.278-0.724,0.558-1.084,0.834c0.034-0.013,0.067-0.023,0.102-0.036
					c-0.323,0-0.646,0-0.966,0c0.034,0.013,0.067,0.023,0.102,0.036c-0.363-0.278-0.724-0.558-1.084-0.834
					c-0.027-0.067-0.056-0.134-0.083-0.201c0.197,0.973,1.331,1.517,2.236,1.27c1.004-0.276,1.467-1.266,1.27-2.236
					c-0.183-0.904-1.026-1.603-1.956-1.603c-1.123,0-2.019,0.987-2.019,2.087c0,0.989,0.643,1.698,1.537,2.02
					c1.053,0.38,2.233-0.529,2.437-1.539c0.196-0.97-0.267-1.959-1.27-2.236C101.481,49.949,100.348,50.495,100.151,51.467z"/>
			</g>
		</g>
	</g>
	<g>
		<g>
			<path d="M35.753,162.575c4.876-0.407,9.94-3.663,14.066-5.95c2.05-1.136,0.217-4.276-1.834-3.137
				c-3.171,1.757-6.396,3.469-9.804,4.719c-0.669,0.244-1.35,0.456-2.042,0.634c-0.296,0.074-1.083,0.16-0.386,0.102
				C33.432,159.133,33.415,162.769,35.753,162.575L35.753,162.575z"/>
		</g>
	</g>
</g>
<g>
	<ellipse fill="#FFFFFF" cx="107.793" cy="109.911" rx="0.202" ry="0.27"/>
	<g>
		<path d="M106.241,109.43c0.027-0.067,0.056-0.134,0.083-0.202c0.363-0.278,0.724-0.558,1.084-0.834
			c-0.034,0.013-0.067,0.023-0.102,0.036c0.323,0,0.646,0,0.966,0c-0.034-0.013-0.067-0.023-0.102-0.036
			c0.363,0.278,0.724,0.558,1.084,0.834c0.027,0.067,0.056,0.134,0.083,0.202c0,0.323,0,0.646,0,0.966
			c-0.027,0.067-0.056,0.134-0.083,0.202c-0.363,0.278-0.724,0.558-1.084,0.834c0.034-0.013,0.067-0.023,0.102-0.036
			c-0.323,0-0.646,0-0.966,0c0.034,0.013,0.067,0.023,0.102,0.036c-0.363-0.278-0.724-0.558-1.084-0.834
			c-0.027-0.067-0.056-0.134-0.083-0.202c0.197,0.973,1.331,1.517,2.236,1.27c1.004-0.276,1.467-1.266,1.27-2.236
			c-0.183-0.904-1.026-1.603-1.956-1.603c-1.123,0-2.019,0.987-2.019,2.087c0,0.989,0.643,1.7,1.537,2.02
			c1.053,0.38,2.233-0.529,2.437-1.539c0.196-0.97-0.267-1.959-1.27-2.236C107.571,107.911,106.438,108.458,106.241,109.43z"/>
	</g>
</g>
<g>
	<ellipse fill="#FFFFFF" cx="84.701" cy="110.451" rx="0.202" ry="0.27"/>
	<g>
		<path d="M83.151,109.967c0.027-0.067,0.056-0.134,0.083-0.202c0.363-0.278,0.724-0.558,1.084-0.834
			c-0.034,0.013-0.067,0.023-0.102,0.036c0.323,0,0.646,0,0.966,0c-0.034-0.013-0.067-0.023-0.102-0.036
			c0.363,0.278,0.724,0.558,1.084,0.834c0.027,0.067,0.056,0.134,0.083,0.202c0,0.323,0,0.646,0,0.966
			c-0.027,0.067-0.056,0.134-0.083,0.202c-0.363,0.278-0.724,0.558-1.084,0.834c0.034-0.013,0.067-0.023,0.102-0.036
			c-0.323,0-0.646,0-0.966,0c0.034,0.013,0.067,0.023,0.102,0.036c-0.363-0.278-0.724-0.558-1.084-0.834
			c-0.027-0.067-0.056-0.134-0.083-0.202c0.197,0.973,1.331,1.517,2.236,1.27c1.004-0.276,1.467-1.266,1.27-2.236
			c-0.183-0.904-1.026-1.603-1.956-1.603c-1.123,0-2.019,0.987-2.019,2.087c0,0.989,0.643,1.698,1.537,2.02
			c1.053,0.38,2.233-0.529,2.437-1.539c0.196-0.97-0.267-1.959-1.27-2.236C84.482,108.449,83.348,108.995,83.151,109.967z"/>
	</g>
</g>
<g>
	<g>
		<g>
			<path fill="#FFFFFF" d="M343.896,304.542c0,0,19.019-0.826,11.577-17.363c-3.691-8.202-8.635-21.102-3.307-33.901
				c5.327-12.799,15.553-22.515,33.042-18.382c0,0-11.558-22.339-9.542-36.891c1.244-8.98,12.738-18.479,26.076-15.263
				c8.066,1.944,18.446,6.996,31.167,21.625l-6.362,3.18l-1.271,24.805c0,0,22.691,10.07,27.985,26.713
				c4.453,13.992,4.67,23.608-13.358,45.794"/>
			<g>
				<path d="M343.896,306.359c10.363-0.55,17.482-7.63,13.95-18.159c-1.681-5.01-4.019-9.617-5.274-14.803
					c-1.961-8.1-0.654-16.013,3.12-23.339c5.867-11.382,16.663-16.012,29.029-13.409c1.587,0.336,2.8-1.214,2.053-2.668
					c-5.644-11.009-14.166-29.688-7.022-41.378c6.109-10,18.883-9.883,28.392-5.782c9.314,4.019,16.849,11.356,23.479,18.835
					c0.123-0.951,0.244-1.904,0.37-2.856c-2.12,1.059-4.241,2.12-6.362,3.18c-0.584,0.293-0.868,0.953-0.9,1.569
					c-0.424,8.27-0.849,16.537-1.271,24.805c-0.03,0.58,0.354,1.324,0.9,1.569c11.163,5.023,22.978,13.749,27.151,25.629
					c6.052,17.225-2.173,30.669-12.89,44.028c-1.452,1.809,1.104,4.397,2.57,2.57c8.29-10.336,17.175-22.12,16.319-36.07
					c-0.777-12.674-7.546-22.965-17.299-30.665c-3.789-2.993-7.926-5.553-12.216-7.759c-2.446-1.257-0.833-0.584-0.883,0.403
					c0.1-1.927,0.197-3.854,0.297-5.782c0.266-5.169,0.53-10.335,0.794-15.503c0.036-0.696,0.073-1.393,0.108-2.09
					c0.097-1.897,0.296-0.132-0.624,0.329c2.049-1.023,4.094-2.049,6.143-3.071c1.104-0.552,1.097-2.031,0.37-2.856
					c-12.869-14.522-35.805-32.582-54.394-16.117c-13.422,11.886-2.796,35.919,3.837,48.85c0.686-0.89,1.367-1.779,2.053-2.67
					c-8.542-1.797-17.607-1.231-24.599,4.556c-7.809,6.463-12.322,16.145-13.054,26.166c-0.39,5.377,0.949,10.904,2.562,15.977
					c1.586,4.989,4.89,9.71,4.749,15.079c-0.143,5.356-7.053,7.569-11.453,7.803C341.565,302.849,341.552,306.485,343.896,306.359
					L343.896,306.359z"/>
			</g>
		</g>
		<g>
			<path fill="#FFFFFF" d="M423.37,243.167c0,0,19.08,57.243,2.546,110.67l13.992,5.087l-71.873,5.087
				c0,0,13.358-84.593,10.813-110.035c0,0-13.262-0.064-12.626,15.837s25.456,41.311-18.191,51.264"/>
			<g>
				<path d="M421.616,243.648c11.396,34.469,12.973,74.984,2.546,109.704c-0.301,1.006,0.357,1.904,1.27,2.236
					c4.666,1.696,9.329,3.392,13.992,5.087c0.161-1.19,0.323-2.38,0.484-3.57c-23.958,1.696-47.914,3.392-71.872,5.087
					c0.584,0.766,1.167,1.534,1.751,2.301c2.373-15.053,4.447-30.158,6.34-45.278c2.657-21.22,6.513-43.807,4.539-65.239
					c-0.089-0.979-0.757-1.83-1.817-1.817c-15.228,0.167-15.737,17.285-12.023,28.086c2.297,6.68,5.4,13.382,5.146,20.593
					c-0.423,11.98-15.003,16.229-24.423,18.488c-2.28,0.546-1.312,4.05,0.966,3.504c9.039-2.166,18.968-5.299,24.436-13.375
					c3.643-5.38,2.95-12.318,1.417-18.263c-1.707-6.614-4.933-12.776-6.147-19.529c-1.303-7.247,2.43-15.779,10.629-15.872
					c-0.606-0.604-1.212-1.213-1.817-1.817c1.936,20.996-1.809,43.078-4.369,63.874c-1.879,15.256-3.986,30.492-6.38,45.677
					c-0.17,1.08,0.464,2.393,1.751,2.301c23.958-1.696,47.914-3.392,71.873-5.087c2.084-0.149,2.426-2.863,0.484-3.568
					c-4.663-1.696-9.329-3.392-13.992-5.087c0.423,0.746,0.844,1.49,1.27,2.236c10.609-35.316,9.049-76.579-2.546-111.635
					C424.387,240.469,420.88,241.418,421.616,243.648L421.616,243.648z"/>
			</g>
		</g>
		<g>
			<line fill="none" x1="404.288" y1="309.951" x2="399.198" y2="360.832"/>
			<g>
				<path d="M402.47,309.951c-1.696,16.96-3.392,33.922-5.087,50.884c-0.233,2.333,3.403,2.31,3.634,0
					c1.696-16.96,3.392-33.922,5.087-50.884C406.337,307.618,402.701,307.639,402.47,309.951L402.47,309.951z"/>
			</g>
		</g>
		<g>
			<line fill="none" x1="439.906" y1="290.869" x2="432.273" y2="300.409"/>
			<g>
				<path d="M438.62,289.585c-2.546,3.18-5.087,6.362-7.633,9.542c-1.45,1.81,1.106,4.4,2.57,2.57
					c2.546-3.18,5.087-6.362,7.633-9.542C442.641,290.342,440.085,287.753,438.62,289.585L438.62,289.585z"/>
			</g>
		</g>
		<g>
			<g>
				<path d="M426.903,261.273c2.324,1.476,4.373,3.376,6.183,5.439c4.906,5.579,3.403,11.343-2.367,15.595
					c-1.866,1.373-0.056,4.532,1.834,3.137c5.994-4.417,9.214-10.214,5.823-17.363c-1.932-4.073-5.877-7.559-9.639-9.946
					C426.755,256.873,424.932,260.021,426.903,261.273L426.903,261.273z"/>
			</g>
		</g>
		<g>
			<g>
				<path d="M391.086,207.394c4.706,13.06,20.705,16.663,32.918,15.965c2.33-0.134,2.343-3.77,0-3.634
					c-10.426,0.599-25.363-2.054-29.413-13.293C393.802,204.24,390.291,205.184,391.086,207.394L391.086,207.394z"/>
			</g>
		</g>
		<g>
			<ellipse fill="#FFFFFF" cx="411.451" cy="204.25" rx="0.202" ry="0.27"/>
			<g>
				<path d="M409.9,203.767c0.027-0.067,0.056-0.134,0.083-0.202c0.363-0.278,0.724-0.558,1.084-0.834
					c-0.034,0.013-0.067,0.023-0.102,0.036c0.323,0,0.646,0,0.966,0c-0.034-0.013-0.067-0.023-0.102-0.036
					c0.363,0.278,0.724,0.558,1.084,0.834c0.027,0.067,0.056,0.134,0.083,0.202c0,0.323,0,0.646,0,0.967
					c-0.027,0.067-0.056,0.134-0.083,0.202c-0.363,0.278-0.724,0.558-1.084,0.834c0.034-0.013,0.067-0.023,0.102-0.036
					c-0.323,0-0.646,0-0.966,0c0.034,0.013,0.067,0.023,0.102,0.036c-0.363-0.278-0.724-0.558-1.084-0.834
					c-0.027-0.067-0.056-0.134-0.083-0.202c0.197,0.973,1.331,1.517,2.236,1.27c1.004-0.276,1.467-1.266,1.27-2.236
					c-0.183-0.904-1.026-1.603-1.954-1.603c-1.123,0-2.019,0.987-2.019,2.087c0,0.989,0.643,1.698,1.537,2.02
					c1.053,0.38,2.233-0.529,2.437-1.539c0.196-0.97-0.267-1.959-1.27-2.236C411.231,202.249,410.097,202.797,409.9,203.767z"/>
			</g>
		</g>
	</g>
	<g>
		<g>
			<path d="M345.501,314.874c4.876-0.407,9.94-3.663,14.066-5.95c2.05-1.136,0.217-4.276-1.834-3.137
				c-3.171,1.757-6.396,3.469-9.804,4.719c-0.669,0.244-1.35,0.456-2.042,0.634c-0.296,0.074-1.083,0.16-0.384,0.102
				C343.183,311.433,343.164,315.071,345.501,314.874L345.501,314.874z"/>
		</g>
	</g>
</g>
<g>
	<ellipse fill="#FFFFFF" cx="418.047" cy="265.021" rx="0.202" ry="0.27"/>
	<g>
		<path d="M416.496,264.537c0.027-0.067,0.056-0.134,0.083-0.202c0.363-0.278,0.724-0.558,1.084-0.834
			c-0.034,0.013-0.067,0.023-0.102,0.036c0.323,0,0.646,0,0.966,0c-0.034-0.013-0.067-0.023-0.102-0.036
			c0.363,0.278,0.724,0.558,1.084,0.834c0.027,0.067,0.056,0.134,0.083,0.202c0,0.323,0,0.646,0,0.967
			c-0.027,0.067-0.056,0.134-0.083,0.202c-0.363,0.277-0.724,0.558-1.084,0.834c0.034-0.013,0.067-0.023,0.102-0.036
			c-0.323,0-0.646,0-0.966,0c0.034,0.013,0.067,0.023,0.102,0.036c-0.363-0.278-0.724-0.558-1.084-0.834
			c-0.027-0.067-0.056-0.134-0.083-0.202c0.197,0.973,1.331,1.517,2.236,1.27c1.004-0.276,1.467-1.266,1.27-2.236
			c-0.183-0.904-1.026-1.603-1.954-1.603c-1.123,0-2.019,0.987-2.019,2.087c0,0.989,0.643,1.698,1.537,2.02
			c1.053,0.38,2.233-0.529,2.437-1.539c0.196-0.97-0.267-1.959-1.27-2.236C417.827,263.02,416.694,263.567,416.496,264.537z"/>
	</g>
</g>
<g>
	<ellipse fill="#FFFFFF" cx="394.361" cy="265.93" rx="0.202" ry="0.27"/>
	<g>
		<path d="M392.812,265.446c0.027-0.067,0.056-0.134,0.083-0.202c0.363-0.278,0.724-0.558,1.084-0.834
			c-0.034,0.013-0.067,0.023-0.102,0.036c0.323,0,0.646,0,0.966,0c-0.034-0.013-0.067-0.023-0.102-0.036
			c0.363,0.278,0.724,0.558,1.084,0.834c0.027,0.067,0.056,0.134,0.083,0.202c0,0.323,0,0.646,0,0.966
			c-0.027,0.067-0.056,0.134-0.083,0.202c-0.363,0.278-0.724,0.558-1.084,0.834c0.034-0.013,0.067-0.023,0.102-0.036
			c-0.323,0-0.646,0-0.966,0c0.034,0.013,0.067,0.023,0.102,0.036c-0.363-0.278-0.724-0.558-1.084-0.834
			c-0.027-0.067-0.056-0.134-0.083-0.202c0.197,0.973,1.331,1.517,2.236,1.27c1.004-0.276,1.467-1.266,1.27-2.236
			c-0.183-0.904-1.026-1.603-1.956-1.603c-1.123,0-2.019,0.987-2.019,2.087c0,0.989,0.643,1.698,1.537,2.02
			c1.053,0.38,2.233-0.529,2.437-1.539c0.196-0.97-0.267-1.959-1.27-2.236C394.141,263.928,393.008,264.474,392.812,265.446z"/>
	</g>
</g>
<g>
	<g>
		<g>
			<path fill="#FFFFFF" d="M170.991,313.938c0,0,19.019-0.826,11.577-17.363c-3.691-8.202-8.635-21.102-3.307-33.901
				c5.327-12.799,15.553-22.515,33.042-18.382c0,0-11.558-22.339-9.542-36.891c1.244-8.98,12.738-18.479,26.076-15.263
				c8.066,1.944,18.446,6.996,31.167,21.625l-6.362,3.18l-1.271,24.805c0,0,22.691,10.07,27.985,26.713
				c4.453,13.992,4.67,23.608-13.356,45.794"/>
			<g>
				<path d="M170.991,315.755c10.363-0.55,17.482-7.63,13.95-18.159c-1.681-5.01-4.019-9.617-5.275-14.803
					c-1.961-8.1-0.654-16.013,3.12-23.338c5.867-11.382,16.663-16.012,29.029-13.409c1.587,0.336,2.797-1.214,2.053-2.668
					c-5.644-11.009-14.166-29.688-7.022-41.378c6.109-10,18.883-9.883,28.392-5.782c9.314,4.019,16.849,11.356,23.479,18.835
					c0.123-0.951,0.244-1.904,0.37-2.856c-2.12,1.059-4.241,2.12-6.362,3.18c-0.584,0.293-0.868,0.953-0.9,1.569
					c-0.424,8.27-0.849,16.537-1.271,24.805c-0.03,0.58,0.354,1.324,0.9,1.569c11.163,5.023,22.975,13.749,27.151,25.629
					c6.053,17.225-2.173,30.669-12.89,44.028c-1.452,1.809,1.104,4.397,2.57,2.57c8.29-10.335,17.175-22.12,16.319-36.07
					c-0.777-12.674-7.546-22.965-17.299-30.665c-3.789-2.993-7.926-5.553-12.216-7.759c-2.446-1.257-0.833-0.584-0.883,0.403
					c0.1-1.927,0.197-3.854,0.297-5.782c0.266-5.169,0.53-10.335,0.794-15.503c0.036-0.696,0.073-1.393,0.108-2.09
					c0.097-1.897,0.296-0.132-0.624,0.329c2.049-1.023,4.094-2.049,6.143-3.071c1.104-0.552,1.097-2.031,0.37-2.856
					c-12.869-14.522-35.805-32.582-54.394-16.117c-13.422,11.886-2.796,35.919,3.837,48.85c0.683-0.89,1.367-1.779,2.053-2.668
					c-8.542-1.797-17.607-1.231-24.599,4.556c-7.809,6.463-12.322,16.145-13.054,26.166c-0.39,5.377,0.949,10.904,2.562,15.977
					c1.586,4.989,4.89,9.71,4.749,15.079c-0.143,5.356-7.052,7.569-11.453,7.803C168.658,312.245,168.648,315.881,170.991,315.755
					L170.991,315.755z"/>
			</g>
		</g>
		<g>
			<path fill="#FFFFFF" d="M250.465,252.563c0,0,19.08,57.243,2.546,110.67l13.992,5.087l-71.873,5.087
				c0,0,13.358-84.593,10.813-110.035c0,0-13.262-0.064-12.626,15.837s25.456,41.311-18.191,51.264"/>
			<g>
				<path d="M248.712,253.044c11.396,34.469,12.973,74.984,2.546,109.704c-0.301,1.006,0.357,1.904,1.27,2.236
					c4.663,1.696,9.329,3.392,13.992,5.087c0.161-1.19,0.323-2.38,0.484-3.57c-23.958,1.696-47.914,3.392-71.873,5.087
					c0.584,0.766,1.167,1.534,1.751,2.301c2.373-15.053,4.447-30.158,6.34-45.278c2.657-21.22,6.513-43.807,4.539-65.239
					c-0.089-0.979-0.757-1.83-1.817-1.817c-15.228,0.167-15.737,17.285-12.023,28.086c2.297,6.68,5.4,13.38,5.146,20.593
					c-0.423,11.98-15.003,16.229-24.423,18.488c-2.28,0.546-1.312,4.05,0.966,3.504c9.039-2.166,18.968-5.299,24.436-13.375
					c3.643-5.38,2.95-12.317,1.417-18.263c-1.707-6.616-4.933-12.776-6.147-19.529c-1.303-7.247,2.43-15.779,10.629-15.872
					c-0.606-0.604-1.212-1.212-1.817-1.817c1.936,20.996-1.809,43.078-4.369,63.874c-1.879,15.256-3.986,30.492-6.38,45.677
					c-0.17,1.08,0.464,2.393,1.751,2.301c23.958-1.696,47.914-3.392,71.872-5.087c2.084-0.149,2.426-2.863,0.484-3.568
					c-4.663-1.696-9.329-3.392-13.992-5.087c0.423,0.746,0.844,1.49,1.27,2.236c10.609-35.316,9.049-76.579-2.546-111.635
					C251.483,249.863,247.976,250.811,248.712,253.044L248.712,253.044z"/>
			</g>
		</g>
		<g>
			<line fill="none" x1="231.383" y1="319.345" x2="226.294" y2="370.228"/>
			<g>
				<path d="M229.565,319.345c-1.696,16.96-3.392,33.922-5.087,50.884c-0.233,2.333,3.403,2.31,3.634,0
					c1.696-16.96,3.392-33.922,5.087-50.884C233.435,317.012,229.797,317.035,229.565,319.345L229.565,319.345z"/>
			</g>
		</g>
		<g>
			<line fill="none" x1="267.002" y1="300.265" x2="259.369" y2="309.804"/>
			<g>
				<path d="M265.716,298.978c-2.546,3.18-5.087,6.362-7.633,9.542c-1.45,1.81,1.106,4.4,2.57,2.57
					c2.546-3.18,5.087-6.362,7.633-9.542C269.735,299.738,267.181,297.149,265.716,298.978L265.716,298.978z"/>
			</g>
		</g>
		<g>
			<g>
				<path d="M253.999,270.667c2.324,1.476,4.373,3.377,6.183,5.439c4.906,5.579,3.403,11.343-2.367,15.595
					c-1.866,1.373-0.056,4.532,1.834,3.137c5.994-4.417,9.214-10.214,5.823-17.363c-1.932-4.073-5.877-7.559-9.639-9.946
					C253.849,266.269,252.027,269.417,253.999,270.667L253.999,270.667z"/>
			</g>
		</g>
		<g>
			<g>
				<path d="M218.182,216.79c4.706,13.06,20.705,16.663,32.918,15.965c2.33-0.134,2.343-3.77,0-3.634
					c-10.426,0.599-25.363-2.054-29.413-13.293C220.898,213.636,217.385,214.58,218.182,216.79L218.182,216.79z"/>
			</g>
		</g>
		<g>
			<ellipse fill="#FFFFFF" cx="238.547" cy="213.646" rx="0.202" ry="0.27"/>
			<g>
				<path d="M236.997,213.163c0.027-0.067,0.056-0.134,0.083-0.202c0.363-0.278,0.724-0.558,1.084-0.834
					c-0.034,0.013-0.067,0.023-0.102,0.036c0.323,0,0.646,0,0.966,0c-0.034-0.013-0.067-0.023-0.102-0.036
					c0.363,0.278,0.724,0.558,1.084,0.834c0.027,0.067,0.056,0.134,0.083,0.202c0,0.323,0,0.646,0,0.967
					c-0.027,0.067-0.056,0.134-0.083,0.202c-0.363,0.278-0.724,0.558-1.084,0.834c0.034-0.013,0.067-0.023,0.102-0.036
					c-0.323,0-0.646,0-0.966,0c0.034,0.013,0.067,0.023,0.102,0.036c-0.363-0.278-0.724-0.558-1.084-0.834
					c-0.027-0.067-0.056-0.134-0.083-0.202c0.197,0.973,1.331,1.517,2.236,1.27c1.004-0.276,1.467-1.266,1.27-2.236
					c-0.183-0.904-1.026-1.603-1.954-1.603c-1.123,0-2.019,0.987-2.019,2.087c0,0.989,0.643,1.698,1.537,2.02
					c1.053,0.38,2.233-0.529,2.437-1.539c0.196-0.97-0.267-1.959-1.27-2.236C238.326,211.645,237.193,212.193,236.997,213.163z"/>
			</g>
		</g>
	</g>
	<g>
		<g>
			<path d="M172.597,324.27c4.876-0.407,9.94-3.663,14.066-5.95c2.05-1.136,0.217-4.276-1.834-3.137
				c-3.171,1.757-6.396,3.469-9.804,4.719c-0.669,0.244-1.35,0.456-2.042,0.634c-0.296,0.074-1.083,0.16-0.386,0.102
				C170.277,320.828,170.26,324.464,172.597,324.27L172.597,324.27z"/>
		</g>
	</g>
</g>
<g>
	<ellipse fill="#FFFFFF" cx="244.636" cy="271.609" rx="0.202" ry="0.27"/>
	<g>
		<path d="M243.084,271.126c0.027-0.067,0.056-0.134,0.083-0.201c0.363-0.278,0.724-0.558,1.084-0.834
			c-0.034,0.013-0.067,0.023-0.102,0.036c0.323,0,0.646,0,0.966,0c-0.034-0.013-0.067-0.023-0.102-0.036
			c0.363,0.277,0.724,0.558,1.084,0.834c0.027,0.067,0.056,0.134,0.083,0.201c0,0.323,0,0.646,0,0.967
			c-0.027,0.067-0.056,0.134-0.083,0.202c-0.363,0.278-0.724,0.558-1.084,0.834c0.034-0.013,0.067-0.023,0.102-0.036
			c-0.323,0-0.646,0-0.966,0c0.034,0.013,0.067,0.023,0.102,0.036c-0.363-0.278-0.724-0.558-1.084-0.834
			c-0.027-0.067-0.056-0.134-0.083-0.202c0.197,0.973,1.331,1.517,2.236,1.27c1.004-0.276,1.467-1.266,1.27-2.236
			c-0.183-0.904-1.026-1.603-1.954-1.603c-1.123,0-2.019,0.987-2.019,2.087c0,0.989,0.643,1.7,1.537,2.02
			c1.053,0.38,2.233-0.529,2.437-1.539c0.196-0.97-0.267-1.959-1.27-2.236C244.416,269.607,243.282,270.153,243.084,271.126z"/>
	</g>
</g>
<g>
	<ellipse fill="#FFFFFF" cx="221.546" cy="272.146" rx="0.202" ry="0.27"/>
	<g>
		<path d="M219.995,271.663c0.027-0.067,0.056-0.134,0.083-0.202c0.363-0.278,0.724-0.558,1.084-0.834
			c-0.034,0.013-0.067,0.023-0.102,0.036c0.323,0,0.646,0,0.966,0c-0.034-0.013-0.067-0.023-0.102-0.036
			c0.363,0.278,0.724,0.558,1.084,0.834c0.027,0.067,0.056,0.134,0.083,0.202c0,0.323,0,0.646,0,0.966
			c-0.027,0.067-0.056,0.134-0.083,0.202c-0.363,0.278-0.724,0.558-1.084,0.834c0.034-0.013,0.067-0.023,0.102-0.036
			c-0.323,0-0.646,0-0.966,0c0.034,0.013,0.067,0.023,0.102,0.036c-0.363-0.278-0.724-0.558-1.084-0.834
			c-0.027-0.067-0.056-0.134-0.083-0.202c0.197,0.973,1.331,1.517,2.236,1.27c1.004-0.276,1.467-1.266,1.27-2.236
			c-0.183-0.904-1.026-1.603-1.956-1.603c-1.123,0-2.019,0.987-2.019,2.087c0,0.989,0.643,1.698,1.537,2.02
			c1.053,0.38,2.233-0.529,2.437-1.539c0.196-0.97-0.267-1.959-1.27-2.236C221.325,270.144,220.192,270.693,219.995,271.663z"/>
	</g>
</g>
<g>
	<g>
		<g>
			<path fill="#FFFFFF" d="M28.713,419.259c0,0,19.019-0.826,11.577-17.363c-3.691-8.202-8.635-21.102-3.307-33.901
				c5.327-12.799,15.553-22.515,33.042-18.382c0,0-11.558-22.339-9.542-36.891c1.244-8.98,12.738-18.479,26.076-15.263
				c8.066,1.944,18.446,6.996,31.166,21.625l-6.362,3.18l-1.271,24.805c0,0,22.691,10.07,27.985,26.713
				c4.453,13.992,4.67,23.608-13.356,45.794"/>
			<g>
				<path d="M28.713,421.079c10.363-0.55,17.482-7.63,13.95-18.159c-1.681-5.01-4.019-9.617-5.275-14.803
					c-1.961-8.1-0.654-16.013,3.12-23.339c5.867-11.382,16.663-16.012,29.029-13.409c1.587,0.336,2.797-1.214,2.053-2.668
					c-5.644-11.009-14.166-29.688-7.022-41.378c6.109-10,18.883-9.883,28.392-5.782c9.314,4.019,16.849,11.356,23.479,18.835
					c0.123-0.951,0.244-1.904,0.37-2.856c-2.12,1.06-4.241,2.12-6.362,3.18c-0.584,0.293-0.868,0.953-0.9,1.569
					c-0.424,8.27-0.849,16.537-1.271,24.805c-0.03,0.58,0.354,1.324,0.9,1.569c11.163,5.023,22.975,13.749,27.151,25.629
					c6.053,17.225-2.173,30.669-12.89,44.028c-1.452,1.809,1.104,4.397,2.57,2.57c8.29-10.335,17.175-22.12,16.319-36.07
					c-0.777-12.674-7.546-22.965-17.299-30.665c-3.789-2.993-7.926-5.553-12.216-7.759c-2.446-1.257-0.833-0.584-0.883,0.401
					c0.1-1.927,0.197-3.854,0.297-5.782c0.266-5.169,0.53-10.336,0.794-15.503c0.036-0.696,0.073-1.393,0.108-2.09
					c0.097-1.897,0.296-0.132-0.624,0.329c2.049-1.023,4.094-2.049,6.143-3.071c1.104-0.552,1.097-2.031,0.37-2.856
					c-12.869-14.522-35.805-32.582-54.394-16.117c-13.422,11.886-2.796,35.919,3.837,48.85c0.683-0.89,1.367-1.779,2.053-2.668
					c-8.542-1.797-17.607-1.231-24.599,4.556c-7.809,6.463-12.322,16.145-13.054,26.166c-0.39,5.377,0.949,10.903,2.562,15.977
					c1.586,4.989,4.89,9.71,4.749,15.082c-0.143,5.356-7.052,7.569-11.453,7.803C26.38,417.566,26.37,421.202,28.713,421.079
					L28.713,421.079z"/>
			</g>
		</g>
		<g>
			<path fill="#FFFFFF" d="M108.185,357.883c0,0,19.08,57.243,2.546,110.67l13.992,5.087l-71.873,5.087
				c0,0,13.358-84.593,10.813-110.035c0,0-13.262-0.064-12.626,15.837c0.637,15.9,25.456,41.311-18.192,51.264"/>
			<g>
				<path d="M106.433,358.366c11.396,34.469,12.973,74.984,2.546,109.704c-0.301,1.006,0.357,1.904,1.27,2.236
					c4.663,1.696,9.329,3.392,13.992,5.087c0.161-1.189,0.323-2.38,0.484-3.568c-23.958,1.696-47.914,3.392-71.873,5.087
					c0.584,0.766,1.167,1.534,1.751,2.301c2.373-15.053,4.447-30.158,6.34-45.278c2.657-21.22,6.513-43.807,4.539-65.239
					c-0.089-0.979-0.757-1.83-1.817-1.817c-15.228,0.167-15.737,17.285-12.023,28.086c2.297,6.68,5.4,13.382,5.146,20.593
					c-0.423,11.98-15.003,16.229-24.423,18.488c-2.28,0.546-1.312,4.05,0.966,3.504c9.039-2.166,18.968-5.299,24.436-13.375
					c3.643-5.38,2.95-12.318,1.417-18.265c-1.707-6.616-4.933-12.776-6.147-19.528c-1.303-7.247,2.43-15.779,10.629-15.872
					c-0.604-0.604-1.213-1.213-1.817-1.817c1.936,20.996-1.809,43.078-4.369,63.874c-1.879,15.256-3.986,30.492-6.38,45.677
					c-0.17,1.08,0.464,2.393,1.751,2.301c23.958-1.696,47.914-3.392,71.873-5.087c2.084-0.149,2.426-2.863,0.484-3.57
					c-4.663-1.696-9.329-3.392-13.992-5.087c0.423,0.746,0.844,1.49,1.27,2.236c10.609-35.316,9.049-76.579-2.546-111.635
					C109.205,355.186,105.695,356.134,106.433,358.366L106.433,358.366z"/>
			</g>
		</g>
		<g>
			<line fill="none" x1="89.104" y1="424.668" x2="84.016" y2="475.55"/>
			<g>
				<path d="M87.287,424.668c-1.696,16.96-3.392,33.922-5.087,50.884c-0.233,2.333,3.403,2.31,3.634,0
					c1.696-16.96,3.392-33.922,5.087-50.884C91.154,422.335,87.518,422.359,87.287,424.668L87.287,424.668z"/>
			</g>
		</g>
		<g>
			<line fill="none" x1="124.724" y1="405.586" x2="117.091" y2="415.127"/>
			<g>
				<path d="M123.438,404.301c-2.546,3.18-5.087,6.362-7.633,9.542c-1.45,1.81,1.106,4.4,2.57,2.57
					c2.546-3.18,5.087-6.362,7.633-9.542C127.455,405.061,124.902,402.471,123.438,404.301L123.438,404.301z"/>
			</g>
		</g>
		<g>
			<g>
				<path d="M111.72,375.989c2.324,1.476,4.373,3.376,6.183,5.439c4.906,5.579,3.403,11.343-2.367,15.593
					c-1.866,1.373-0.056,4.532,1.834,3.137c5.994-4.417,9.214-10.214,5.823-17.363c-1.932-4.073-5.877-7.559-9.639-9.946
					C111.569,371.592,109.749,374.738,111.72,375.989L111.72,375.989z"/>
			</g>
		</g>
		<g>
			<g>
				<path d="M75.904,322.111c4.706,13.06,20.705,16.665,32.918,15.965c2.33-0.134,2.343-3.77,0-3.634
					c-10.426,0.599-25.363-2.054-29.413-13.293C78.62,318.958,75.107,319.901,75.904,322.111L75.904,322.111z"/>
			</g>
		</g>
		<g>
			<ellipse fill="#FFFFFF" cx="96.267" cy="318.968" rx="0.202" ry="0.27"/>
			<g>
				<path d="M94.716,318.485c0.027-0.067,0.056-0.134,0.083-0.201c0.363-0.278,0.724-0.558,1.084-0.834
					c-0.034,0.013-0.067,0.023-0.102,0.036c0.323,0,0.646,0,0.966,0c-0.034-0.013-0.067-0.023-0.102-0.036
					c0.363,0.278,0.724,0.558,1.084,0.834c0.027,0.067,0.056,0.134,0.083,0.201c0,0.323,0,0.646,0,0.966
					c-0.027,0.067-0.056,0.134-0.083,0.202c-0.363,0.277-0.724,0.558-1.084,0.834c0.034-0.013,0.067-0.023,0.102-0.036
					c-0.323,0-0.646,0-0.966,0c0.034,0.013,0.067,0.023,0.102,0.036c-0.363-0.278-0.724-0.558-1.084-0.834
					c-0.027-0.067-0.056-0.134-0.083-0.202c0.197,0.973,1.331,1.517,2.236,1.27c1.004-0.276,1.467-1.266,1.27-2.236
					c-0.183-0.904-1.026-1.603-1.956-1.603c-1.123,0-2.019,0.987-2.019,2.087c0,0.989,0.643,1.698,1.537,2.02
					c1.053,0.38,2.233-0.529,2.437-1.539c0.196-0.97-0.267-1.959-1.27-2.236C96.047,316.968,94.913,317.513,94.716,318.485z"/>
			</g>
		</g>
	</g>
	<g>
		<g>
			<path d="M30.317,429.59c4.876-0.407,9.94-3.663,14.066-5.95c2.05-1.136,0.217-4.276-1.834-3.137
				c-3.171,1.757-6.396,3.469-9.804,4.719c-0.669,0.244-1.35,0.456-2.042,0.634c-0.296,0.074-1.083,0.159-0.386,0.102
				C27.997,426.149,27.98,429.788,30.317,429.59L30.317,429.59z"/>
		</g>
	</g>
</g>
<g>
	<ellipse fill="#FFFFFF" cx="102.356" cy="376.929" rx="0.202" ry="0.27"/>
	<g>
		<path d="M100.806,376.448c0.027-0.067,0.056-0.134,0.083-0.202c0.363-0.277,0.724-0.558,1.084-0.834
			c-0.034,0.013-0.067,0.023-0.102,0.036c0.323,0,0.646,0,0.966,0c-0.034-0.013-0.067-0.023-0.102-0.036
			c0.363,0.277,0.724,0.559,1.084,0.834c0.027,0.067,0.056,0.134,0.083,0.202c0,0.323,0,0.646,0,0.966
			c-0.027,0.067-0.056,0.134-0.083,0.202c-0.363,0.277-0.724,0.558-1.084,0.834c0.034-0.013,0.067-0.023,0.102-0.036
			c-0.323,0-0.646,0-0.966,0c0.034,0.013,0.067,0.023,0.102,0.036c-0.363-0.278-0.724-0.558-1.084-0.834
			c-0.027-0.067-0.056-0.134-0.083-0.202c0.197,0.973,1.331,1.517,2.236,1.27c1.004-0.276,1.467-1.266,1.27-2.236
			c-0.183-0.904-1.026-1.603-1.956-1.603c-1.123,0-2.019,0.987-2.019,2.087c0,0.987,0.643,1.698,1.537,2.02
			c1.053,0.38,2.233-0.529,2.437-1.539c0.196-0.97-0.267-1.959-1.27-2.236C102.137,374.931,101.003,375.476,100.806,376.448z"/>
	</g>
</g>
<g>
	<ellipse fill="#FFFFFF" cx="79.265" cy="377.467" rx="0.202" ry="0.27"/>
	<g>
		<path d="M77.717,376.985c0.027-0.067,0.056-0.134,0.083-0.202c0.363-0.277,0.724-0.558,1.084-0.834
			c-0.034,0.013-0.067,0.023-0.102,0.036c0.323,0,0.646,0,0.966,0c-0.034-0.013-0.067-0.023-0.102-0.036
			c0.363,0.277,0.724,0.558,1.084,0.834c0.027,0.067,0.056,0.134,0.083,0.202c0,0.323,0,0.646,0,0.966
			c-0.027,0.067-0.056,0.134-0.083,0.202c-0.363,0.278-0.724,0.558-1.084,0.834c0.034-0.013,0.067-0.023,0.102-0.036
			c-0.323,0-0.646,0-0.966,0c0.034,0.013,0.067,0.023,0.102,0.036c-0.363-0.277-0.724-0.559-1.084-0.834
			c-0.027-0.067-0.056-0.134-0.083-0.202c0.197,0.973,1.331,1.517,2.236,1.27c1.004-0.276,1.467-1.266,1.27-2.236
			c-0.183-0.904-1.026-1.603-1.956-1.603c-1.123,0-2.019,0.987-2.019,2.087c0,0.987,0.643,1.7,1.537,2.02
			c1.053,0.38,2.233-0.529,2.437-1.539c0.196-0.97-0.267-1.959-1.27-2.236C79.047,375.468,77.911,376.012,77.717,376.985z"/>
	</g>
</g>
<g>
	<g>
		<g>
			<path fill="#FFFFFF" d="M250.152,124.119c0,0,19.019-0.826,11.577-17.363c-3.691-8.202-8.635-21.102-3.307-33.901
				c5.327-12.799,15.553-22.515,33.042-18.382c0,0-11.558-22.339-9.542-36.891c1.244-8.98,12.738-18.479,26.076-15.263
				c8.066,1.944,18.446,6.996,31.167,21.625l-6.362,3.18l-1.271,24.805c0,0,22.691,10.07,27.985,26.713
				c4.453,13.992,4.67,23.608-13.358,45.794"/>
			<g>
				<path d="M250.152,125.936c10.363-0.55,17.482-7.63,13.95-18.159c-1.681-5.01-4.019-9.617-5.274-14.803
					c-1.961-8.1-0.654-16.013,3.12-23.338c5.867-11.382,16.663-16.012,29.029-13.409c1.587,0.336,2.8-1.214,2.053-2.668
					c-5.644-11.009-14.166-29.688-7.022-41.378c6.109-10,18.883-9.883,28.392-5.782c9.314,4.019,16.849,11.356,23.479,18.835
					c0.123-0.951,0.244-1.904,0.37-2.856c-2.12,1.059-4.241,2.12-6.362,3.18c-0.584,0.293-0.868,0.953-0.9,1.569
					c-0.424,8.27-0.849,16.537-1.271,24.805c-0.03,0.58,0.354,1.324,0.9,1.569c11.163,5.023,22.978,13.749,27.151,25.629
					c6.052,17.225-2.173,30.669-12.89,44.028c-1.452,1.809,1.104,4.397,2.57,2.57c8.29-10.335,17.175-22.119,16.319-36.07
					c-0.777-12.674-7.546-22.965-17.299-30.665c-3.789-2.993-7.926-5.553-12.216-7.759c-2.446-1.257-0.833-0.584-0.883,0.403
					c0.1-1.927,0.197-3.854,0.297-5.782c0.266-5.169,0.53-10.335,0.794-15.503c0.036-0.696,0.073-1.393,0.108-2.09
					c0.097-1.897,0.296-0.132-0.624,0.329c2.049-1.023,4.094-2.049,6.143-3.071c1.104-0.552,1.097-2.031,0.37-2.856
					C327.583,8.142,304.648-9.919,286.059,6.546c-13.422,11.886-2.796,35.919,3.837,48.85c0.686-0.89,1.367-1.779,2.053-2.67
					c-8.542-1.797-17.607-1.231-24.599,4.556c-7.809,6.463-12.322,16.145-13.054,26.166c-0.39,5.377,0.949,10.903,2.562,15.977
					c1.586,4.989,4.89,9.71,4.749,15.079c-0.143,5.356-7.053,7.569-11.453,7.803C247.821,122.426,247.808,126.062,250.152,125.936
					L250.152,125.936z"/>
			</g>
		</g>
		<g>
			<path fill="#FFFFFF" d="M329.625,62.743c0,0,19.08,57.243,2.546,110.67l13.992,5.087l-71.872,5.087
				c0,0,13.358-84.593,10.813-110.035c0,0-13.262-0.064-12.626,15.837s25.456,41.311-18.191,51.264"/>
			<g>
				<path d="M327.871,63.226c11.396,34.469,12.973,74.984,2.546,109.704c-0.301,1.006,0.357,1.904,1.27,2.236
					c4.666,1.696,9.329,3.392,13.992,5.087c0.161-1.19,0.323-2.38,0.484-3.57c-23.958,1.696-47.914,3.392-71.872,5.087
					c0.584,0.766,1.167,1.534,1.751,2.301c2.373-15.053,4.447-30.158,6.34-45.278c2.657-21.22,6.513-43.807,4.539-65.239
					c-0.089-0.979-0.757-1.83-1.817-1.817c-15.228,0.167-15.737,17.285-12.023,28.086c2.297,6.68,5.4,13.382,5.146,20.593
					c-0.423,11.98-15.003,16.229-24.423,18.488c-2.28,0.546-1.312,4.05,0.966,3.504c9.039-2.166,18.968-5.299,24.436-13.375
					c3.643-5.38,2.95-12.318,1.417-18.263c-1.707-6.614-4.933-12.776-6.147-19.528c-1.303-7.247,2.43-15.779,10.629-15.872
					c-0.606-0.606-1.212-1.213-1.817-1.817c1.936,20.996-1.809,43.078-4.369,63.874c-1.879,15.256-3.986,30.492-6.38,45.677
					c-0.17,1.08,0.464,2.393,1.751,2.301c23.958-1.696,47.914-3.392,71.873-5.087c2.084-0.149,2.426-2.863,0.484-3.567
					c-4.663-1.696-9.329-3.392-13.992-5.087c0.423,0.746,0.844,1.49,1.27,2.236c10.609-35.316,9.049-76.579-2.546-111.635
					C330.644,60.046,327.135,60.995,327.871,63.226L327.871,63.226z"/>
			</g>
		</g>
		<g>
			<line fill="none" x1="310.545" y1="129.528" x2="305.455" y2="180.41"/>
			<g>
				<path d="M308.725,129.528c-1.696,16.96-3.392,33.922-5.087,50.884c-0.233,2.333,3.403,2.31,3.634,0
					c1.696-16.96,3.392-33.922,5.087-50.884C312.592,127.196,308.956,127.216,308.725,129.528L308.725,129.528z"/>
			</g>
		</g>
		<g>
			<line fill="none" x1="346.163" y1="110.446" x2="338.53" y2="119.987"/>
			<g>
				<path d="M344.876,109.161c-2.546,3.18-5.087,6.362-7.633,9.542c-1.45,1.81,1.106,4.4,2.57,2.57
					c2.546-3.18,5.087-6.362,7.633-9.542C348.896,109.92,346.34,107.33,344.876,109.161L344.876,109.161z"/>
			</g>
		</g>
		<g>
			<g>
				<path d="M333.16,80.85c2.324,1.476,4.373,3.376,6.183,5.439c4.906,5.579,3.403,11.343-2.367,15.595
					c-1.866,1.373-0.056,4.532,1.834,3.137c5.994-4.417,9.214-10.214,5.823-17.363c-1.932-4.073-5.877-7.559-9.639-9.946
					C333.011,76.449,331.187,79.598,333.16,80.85L333.16,80.85z"/>
			</g>
		</g>
		<g>
			<g>
				<path d="M297.342,26.971c4.706,13.06,20.705,16.663,32.918,15.965c2.33-0.134,2.343-3.77,0-3.634
					c-10.426,0.599-25.363-2.054-29.413-13.293C300.059,23.817,296.546,24.761,297.342,26.971L297.342,26.971z"/>
			</g>
		</g>
		<g>
			<ellipse fill="#FFFFFF" cx="317.706" cy="23.828" rx="0.202" ry="0.27"/>
			<g>
				<path d="M316.155,23.344c0.027-0.067,0.056-0.134,0.083-0.202c0.363-0.278,0.724-0.558,1.084-0.834
					c-0.034,0.013-0.067,0.023-0.102,0.036c0.323,0,0.646,0,0.966,0c-0.034-0.013-0.067-0.023-0.102-0.036
					c0.363,0.278,0.724,0.558,1.084,0.834c0.027,0.067,0.056,0.134,0.083,0.202c0,0.323,0,0.646,0,0.967
					c-0.027,0.067-0.056,0.134-0.083,0.202c-0.363,0.278-0.724,0.558-1.084,0.834c0.034-0.013,0.067-0.023,0.102-0.036
					c-0.323,0-0.646,0-0.966,0c0.034,0.013,0.067,0.023,0.102,0.036c-0.363-0.278-0.724-0.558-1.084-0.834
					c-0.027-0.067-0.056-0.134-0.083-0.202c0.197,0.973,1.331,1.517,2.236,1.27c1.004-0.276,1.467-1.266,1.27-2.236
					c-0.183-0.904-1.026-1.603-1.954-1.603c-1.123,0-2.019,0.987-2.019,2.087c0,0.989,0.643,1.698,1.537,2.02
					c1.053,0.38,2.233-0.529,2.437-1.539c0.196-0.97-0.267-1.959-1.27-2.236C317.488,21.825,316.352,22.374,316.155,23.344z"/>
			</g>
		</g>
	</g>
	<g>
		<g>
			<path d="M251.756,134.451c4.876-0.407,9.94-3.663,14.066-5.95c2.05-1.136,0.217-4.276-1.834-3.137
				c-3.171,1.757-6.396,3.469-9.804,4.719c-0.669,0.244-1.35,0.456-2.042,0.634c-0.296,0.074-1.083,0.16-0.384,0.102
				C249.438,131.009,249.419,134.648,251.756,134.451L251.756,134.451z"/>
		</g>
	</g>
</g>
<g>
	<ellipse fill="#FFFFFF" cx="324.304" cy="84.598" rx="0.202" ry="0.27"/>
	<g>
		<path d="M322.752,84.115c0.027-0.067,0.056-0.134,0.083-0.202c0.363-0.278,0.724-0.558,1.084-0.834
			c-0.034,0.013-0.067,0.023-0.102,0.036c0.323,0,0.646,0,0.966,0c-0.034-0.013-0.067-0.023-0.102-0.036
			c0.363,0.278,0.724,0.558,1.084,0.834c0.027,0.067,0.056,0.134,0.083,0.202c0,0.323,0,0.646,0,0.967
			c-0.027,0.067-0.056,0.134-0.083,0.202c-0.363,0.278-0.724,0.558-1.084,0.834c0.034-0.013,0.067-0.023,0.102-0.036
			c-0.323,0-0.646,0-0.966,0c0.034,0.013,0.067,0.023,0.102,0.036c-0.363-0.278-0.724-0.558-1.084-0.834
			c-0.027-0.067-0.056-0.134-0.083-0.202c0.197,0.973,1.331,1.517,2.236,1.27c1.004-0.276,1.467-1.266,1.27-2.236
			c-0.183-0.904-1.026-1.603-1.954-1.603c-1.123,0-2.019,0.987-2.019,2.087c0,0.989,0.643,1.698,1.537,2.02
			c1.053,0.38,2.233-0.529,2.437-1.539c0.196-0.97-0.267-1.959-1.27-2.236C324.083,82.597,322.949,83.145,322.752,84.115z"/>
	</g>
</g>
<g>
	<ellipse fill="#FFFFFF" cx="300.617" cy="85.507" rx="0.202" ry="0.27"/>
	<g>
		<path d="M299.068,85.024c0.027-0.067,0.056-0.134,0.083-0.201c0.363-0.278,0.724-0.558,1.084-0.834
			c-0.034,0.013-0.067,0.023-0.102,0.036c0.323,0,0.646,0,0.966,0c-0.034-0.013-0.067-0.023-0.102-0.036
			c0.363,0.278,0.724,0.558,1.084,0.834c0.027,0.067,0.056,0.134,0.083,0.201c0,0.323,0,0.646,0,0.966
			c-0.027,0.067-0.056,0.134-0.083,0.202c-0.363,0.278-0.724,0.558-1.084,0.834c0.034-0.013,0.067-0.023,0.102-0.036
			c-0.323,0-0.646,0-0.966,0c0.034,0.013,0.067,0.023,0.102,0.036c-0.363-0.278-0.724-0.558-1.084-0.834
			c-0.027-0.067-0.056-0.134-0.083-0.202c0.197,0.973,1.331,1.517,2.236,1.27c1.004-0.276,1.467-1.266,1.27-2.236
			c-0.183-0.904-1.026-1.603-1.956-1.603c-1.123,0-2.019,0.987-2.019,2.087c0,0.989,0.643,1.698,1.537,2.02
			c1.053,0.38,2.233-0.529,2.437-1.539c0.196-0.97-0.267-1.959-1.27-2.236C300.396,83.505,299.263,84.051,299.068,85.024z"/>
	</g>
</g>
<g>
	<g>
		<g>
			<path fill="#FFFFFF" d="M459.308,175.683c0,0,19.019-0.826,11.577-17.363c-3.691-8.202-8.635-21.102-3.307-33.901
				c5.327-12.799,15.553-22.515,33.042-18.382c0,0-11.558-22.339-9.542-36.891c1.244-8.98,12.738-18.479,26.076-15.263
				c8.066,1.944,18.446,6.996,31.167,21.625l-6.362,3.18l-1.271,24.805c0,0,22.691,10.07,27.985,26.713
				c4.453,13.992,4.67,23.608-13.358,45.794"/>
			<g>
				<path d="M459.308,177.5c10.363-0.55,17.482-7.63,13.95-18.159c-1.681-5.01-4.019-9.617-5.274-14.803
					c-1.961-8.1-0.654-16.013,3.12-23.338c5.867-11.382,16.663-16.012,29.029-13.409c1.587,0.336,2.8-1.214,2.053-2.668
					c-5.644-11.009-14.166-29.688-7.022-41.378c6.109-10,18.883-9.883,28.392-5.782c9.314,4.019,16.849,11.356,23.479,18.835
					c0.123-0.951,0.244-1.904,0.37-2.856c-2.12,1.059-4.24,2.12-6.362,3.18c-0.584,0.293-0.868,0.953-0.9,1.569
					c-0.424,8.27-0.849,16.537-1.271,24.805c-0.03,0.58,0.354,1.324,0.9,1.569c11.163,5.023,22.978,13.749,27.151,25.629
					c6.052,17.225-2.173,30.669-12.89,44.028c-1.452,1.809,1.104,4.397,2.57,2.57c8.29-10.335,17.175-22.119,16.319-36.07
					c-0.777-12.674-7.546-22.965-17.299-30.665c-3.789-2.993-7.926-5.553-12.216-7.759c-2.446-1.257-0.833-0.584-0.883,0.403
					c0.1-1.927,0.197-3.854,0.297-5.782c0.266-5.169,0.53-10.335,0.794-15.503c0.036-0.696,0.073-1.393,0.108-2.09
					c0.097-1.897,0.296-0.132-0.624,0.329c2.049-1.023,4.094-2.049,6.143-3.071c1.104-0.552,1.097-2.031,0.37-2.856
					c-12.869-14.522-35.805-32.582-54.394-16.117c-13.422,11.886-2.796,35.919,3.837,48.85c0.686-0.89,1.367-1.779,2.053-2.67
					c-8.542-1.797-17.607-1.231-24.599,4.556c-7.809,6.463-12.322,16.145-13.054,26.166c-0.39,5.377,0.949,10.904,2.562,15.977
					c1.586,4.989,4.89,9.71,4.749,15.079c-0.143,5.356-7.053,7.569-11.453,7.803C456.978,173.989,456.965,177.625,459.308,177.5
					L459.308,177.5z"/>
			</g>
		</g>
		<g>
			<path fill="#FFFFFF" d="M538.781,114.307c0,0,19.08,57.243,2.546,110.67l13.992,5.087l-71.872,5.087
				c0,0,13.358-84.593,10.813-110.035c0,0-13.262-0.064-12.626,15.837c0.637,15.9,25.456,41.311-18.192,51.264"/>
			<g>
				<path d="M537.028,114.788c11.396,34.469,12.973,74.984,2.546,109.704c-0.301,1.006,0.357,1.904,1.27,2.236
					c4.666,1.696,9.329,3.392,13.992,5.087c0.161-1.19,0.323-2.38,0.484-3.57c-23.958,1.696-47.914,3.392-71.872,5.087
					c0.584,0.766,1.167,1.534,1.751,2.301c2.373-15.053,4.447-30.158,6.34-45.278c2.657-21.22,6.513-43.807,4.539-65.239
					c-0.089-0.979-0.757-1.83-1.817-1.817c-15.228,0.167-15.737,17.285-12.023,28.086c2.297,6.68,5.4,13.382,5.146,20.593
					c-0.423,11.98-15.003,16.229-24.423,18.488c-2.28,0.546-1.312,4.05,0.966,3.504c9.039-2.166,18.968-5.299,24.436-13.375
					c3.643-5.38,2.95-12.318,1.417-18.263c-1.707-6.614-4.933-12.776-6.147-19.529c-1.303-7.247,2.43-15.779,10.629-15.872
					c-0.606-0.604-1.213-1.213-1.817-1.817c1.936,20.996-1.809,43.078-4.369,63.874c-1.879,15.256-3.986,30.492-6.38,45.677
					c-0.17,1.08,0.464,2.393,1.751,2.301c23.958-1.696,47.914-3.392,71.873-5.087c2.084-0.149,2.426-2.863,0.484-3.568
					c-4.663-1.696-9.329-3.392-13.992-5.087c0.423,0.746,0.844,1.49,1.27,2.236c10.609-35.316,9.049-76.579-2.546-111.635
					C539.8,111.609,536.291,112.558,537.028,114.788L537.028,114.788z"/>
			</g>
		</g>
		<g>
			<line fill="none" x1="519.701" y1="181.091" x2="514.611" y2="231.974"/>
			<g>
				<path d="M517.882,181.091c-1.696,16.96-3.392,33.922-5.087,50.884c-0.233,2.333,3.403,2.31,3.634,0
					c1.696-16.96,3.392-33.922,5.087-50.884C521.749,178.758,518.113,178.78,517.882,181.091L517.882,181.091z"/>
			</g>
		</g>
		<g>
			<line fill="none" x1="555.319" y1="162.009" x2="547.686" y2="171.551"/>
			<g>
				<path d="M554.033,160.725c-2.546,3.18-5.087,6.362-7.633,9.542c-1.45,1.81,1.106,4.4,2.57,2.57
					c2.546-3.18,5.087-6.362,7.633-9.542C558.053,161.482,555.497,158.892,554.033,160.725L554.033,160.725z"/>
			</g>
		</g>
		<g>
			<g>
				<path d="M542.315,132.413c2.324,1.476,4.373,3.376,6.183,5.439c4.906,5.579,3.403,11.343-2.367,15.595
					c-1.866,1.373-0.056,4.532,1.834,3.137c5.994-4.417,9.214-10.214,5.823-17.363c-1.932-4.073-5.877-7.559-9.639-9.946
					C542.167,128.013,540.344,131.16,542.315,132.413L542.315,132.413z"/>
			</g>
		</g>
		<g>
			<g>
				<path d="M506.498,78.534c4.706,13.06,20.705,16.663,32.918,15.965c2.33-0.134,2.343-3.77,0-3.634
					c-10.426,0.599-25.363-2.054-29.413-13.293C509.215,75.38,505.702,76.325,506.498,78.534L506.498,78.534z"/>
			</g>
		</g>
		<g>
			<ellipse fill="#FFFFFF" cx="526.862" cy="75.39" rx="0.202" ry="0.27"/>
			<g>
				<path d="M525.311,74.907c0.027-0.067,0.056-0.134,0.083-0.202c0.363-0.278,0.724-0.558,1.084-0.834
					c-0.034,0.013-0.067,0.023-0.102,0.036c0.323,0,0.646,0,0.966,0c-0.034-0.013-0.067-0.023-0.102-0.036
					c0.363,0.278,0.724,0.558,1.084,0.834c0.027,0.067,0.056,0.134,0.083,0.202c0,0.323,0,0.646,0,0.967
					c-0.027,0.067-0.056,0.134-0.083,0.202c-0.363,0.278-0.724,0.558-1.084,0.834c0.034-0.013,0.067-0.023,0.102-0.036
					c-0.323,0-0.646,0-0.966,0c0.034,0.013,0.067,0.023,0.102,0.036c-0.363-0.278-0.724-0.558-1.084-0.834
					c-0.027-0.067-0.056-0.134-0.083-0.202c0.197,0.973,1.331,1.517,2.236,1.27c1.004-0.276,1.467-1.266,1.27-2.236
					c-0.183-0.904-1.026-1.603-1.954-1.603c-1.123,0-2.019,0.987-2.019,2.087c0,0.989,0.643,1.698,1.537,2.02
					c1.053,0.38,2.233-0.529,2.437-1.539c0.196-0.97-0.267-1.959-1.27-2.236C526.644,73.389,525.508,73.937,525.311,74.907z"/>
			</g>
		</g>
	</g>
	<g>
		<g>
			<path d="M460.912,186.014c4.876-0.407,9.94-3.663,14.066-5.95c2.05-1.136,0.217-4.276-1.834-3.137
				c-3.171,1.757-6.396,3.469-9.804,4.719c-0.669,0.244-1.35,0.456-2.042,0.634c-0.296,0.074-1.083,0.16-0.384,0.102
				C458.595,182.573,458.575,186.211,460.912,186.014L460.912,186.014z"/>
		</g>
	</g>
</g>
<g>
	<ellipse fill="#FFFFFF" cx="533.46" cy="136.162" rx="0.202" ry="0.27"/>
	<g>
		<path d="M531.908,135.677c0.027-0.067,0.056-0.134,0.083-0.202c0.363-0.278,0.724-0.558,1.084-0.834
			c-0.034,0.013-0.067,0.023-0.102,0.036c0.323,0,0.646,0,0.966,0c-0.034-0.013-0.067-0.023-0.102-0.036
			c0.363,0.278,0.724,0.558,1.084,0.834c0.027,0.067,0.056,0.134,0.083,0.202c0,0.323,0,0.646,0,0.967
			c-0.027,0.067-0.056,0.134-0.083,0.202c-0.363,0.278-0.724,0.558-1.084,0.834c0.034-0.013,0.067-0.023,0.102-0.036
			c-0.323,0-0.646,0-0.966,0c0.034,0.013,0.067,0.023,0.102,0.036c-0.363-0.278-0.724-0.558-1.084-0.834
			c-0.027-0.067-0.056-0.134-0.083-0.202c0.197,0.973,1.331,1.517,2.236,1.27c1.004-0.276,1.467-1.266,1.27-2.236
			c-0.183-0.904-1.026-1.603-1.954-1.603c-1.123,0-2.019,0.987-2.019,2.087c0,0.989,0.643,1.698,1.537,2.02
			c1.053,0.38,2.233-0.529,2.437-1.539c0.196-0.97-0.267-1.959-1.27-2.236C533.238,134.16,532.105,134.707,531.908,135.677z"/>
	</g>
</g>
<g>
	<ellipse fill="#FFFFFF" cx="509.773" cy="137.07" rx="0.202" ry="0.27"/>
	<g>
		<path d="M508.223,136.586c0.027-0.067,0.056-0.134,0.083-0.202c0.363-0.278,0.724-0.558,1.084-0.834
			c-0.034,0.013-0.067,0.023-0.102,0.036c0.323,0,0.646,0,0.966,0c-0.034-0.013-0.067-0.023-0.102-0.036
			c0.363,0.278,0.724,0.558,1.084,0.834c0.027,0.067,0.056,0.134,0.083,0.202c0,0.323,0,0.646,0,0.966
			c-0.027,0.067-0.056,0.134-0.083,0.202c-0.363,0.278-0.724,0.558-1.084,0.834c0.034-0.013,0.067-0.023,0.102-0.036
			c-0.323,0-0.646,0-0.966,0c0.034,0.013,0.067,0.023,0.102,0.036c-0.363-0.278-0.724-0.558-1.084-0.834
			c-0.027-0.067-0.056-0.134-0.083-0.202c0.197,0.973,1.331,1.517,2.236,1.27c1.004-0.276,1.467-1.266,1.27-2.236
			c-0.183-0.904-1.026-1.603-1.956-1.603c-1.123,0-2.019,0.987-2.019,2.087c0,0.989,0.643,1.698,1.537,2.02
			c1.053,0.38,2.233-0.529,2.437-1.539c0.196-0.97-0.267-1.959-1.27-2.236C509.552,135.069,508.419,135.614,508.223,136.586z"/>
	</g>
</g>
<g>
	<g>
		<g>
			<path fill="#FFFFFF" d="M240.501,513.88c0,0,19.019-0.826,11.577-17.363c-3.691-8.202-8.635-21.102-3.307-33.901
				c5.327-12.799,15.553-22.515,33.042-18.382c0,0-11.558-22.339-9.542-36.891c1.244-8.98,12.738-18.479,26.076-15.263
				c8.066,1.944,18.446,6.996,31.167,21.625l-6.362,3.18l-1.271,24.805c0,0,22.691,10.07,27.985,26.713
				c4.453,13.992,4.67,23.608-13.358,45.794"/>
			<g>
				<path d="M240.501,515.697c10.363-0.55,17.482-7.63,13.95-18.159c-1.681-5.01-4.019-9.617-5.274-14.803
					c-1.961-8.1-0.654-16.013,3.12-23.339c5.867-11.382,16.663-16.012,29.029-13.409c1.587,0.336,2.8-1.214,2.053-2.668
					c-5.644-11.009-14.166-29.688-7.022-41.378c6.109-10,18.883-9.883,28.392-5.782c9.314,4.019,16.849,11.356,23.479,18.833
					c0.123-0.951,0.244-1.904,0.37-2.856c-2.12,1.059-4.241,2.12-6.362,3.18c-0.584,0.293-0.868,0.953-0.9,1.569
					c-0.424,8.27-0.849,16.537-1.271,24.805c-0.03,0.58,0.354,1.324,0.9,1.569c11.163,5.022,22.978,13.749,27.151,25.629
					c6.052,17.225-2.173,30.669-12.89,44.028c-1.452,1.809,1.104,4.399,2.57,2.57c8.29-10.336,17.175-22.12,16.319-36.07
					c-0.777-12.674-7.546-22.965-17.299-30.665c-3.789-2.993-7.926-5.553-12.216-7.759c-2.446-1.257-0.833-0.584-0.883,0.403
					c0.1-1.927,0.197-3.855,0.297-5.782c0.266-5.169,0.53-10.335,0.794-15.503c0.036-0.696,0.073-1.393,0.108-2.09
					c0.097-1.897,0.296-0.132-0.624,0.329c2.049-1.023,4.094-2.049,6.143-3.071c1.104-0.552,1.097-2.031,0.37-2.856
					c-12.869-14.522-35.805-32.582-54.394-16.117c-13.422,11.886-2.796,35.919,3.837,48.85c0.686-0.89,1.367-1.779,2.053-2.67
					c-8.542-1.797-17.607-1.231-24.599,4.556c-7.809,6.463-12.322,16.145-13.054,26.166c-0.39,5.377,0.949,10.903,2.562,15.977
					c1.586,4.989,4.89,9.71,4.749,15.079c-0.143,5.356-7.053,7.569-11.453,7.803C238.171,512.186,238.158,515.822,240.501,515.697
					L240.501,515.697z"/>
			</g>
		</g>
		<g>
			<path fill="#FFFFFF" d="M319.974,452.504c0,0,19.08,57.243,2.546,110.67l13.992,5.087l-71.872,5.087
				c0,0,13.358-84.593,10.813-110.035c0,0-13.262-0.064-12.626,15.837c0.637,15.9,25.456,41.311-18.191,51.264"/>
			<g>
				<path d="M318.221,452.986c11.396,34.469,12.973,74.984,2.546,109.704c-0.301,1.006,0.357,1.904,1.27,2.236
					c4.666,1.696,9.329,3.392,13.992,5.087c0.161-1.19,0.323-2.38,0.484-3.57c-23.958,1.696-47.914,3.392-71.872,5.087
					c0.584,0.766,1.167,1.534,1.751,2.3c2.373-15.053,4.447-30.158,6.34-45.278c2.657-21.22,6.513-43.807,4.539-65.239
					c-0.089-0.979-0.757-1.83-1.817-1.817c-15.228,0.167-15.737,17.285-12.023,28.086c2.297,6.68,5.4,13.382,5.146,20.593
					c-0.423,11.98-15.003,16.229-24.423,18.488c-2.28,0.546-1.312,4.05,0.966,3.504c9.039-2.166,18.968-5.299,24.436-13.375
					c3.643-5.38,2.95-12.318,1.417-18.263c-1.707-6.614-4.933-12.776-6.147-19.529c-1.303-7.247,2.43-15.779,10.629-15.87
					c-0.606-0.606-1.212-1.212-1.817-1.817c1.936,20.996-1.809,43.078-4.369,63.874c-1.879,15.256-3.986,30.492-6.38,45.677
					c-0.17,1.08,0.464,2.393,1.751,2.301c23.958-1.696,47.914-3.392,71.872-5.087c2.084-0.149,2.426-2.863,0.484-3.569
					c-4.663-1.696-9.329-3.392-13.992-5.087c0.423,0.746,0.844,1.49,1.27,2.236c10.609-35.316,9.049-76.579-2.546-111.635
					C320.993,449.806,317.484,450.754,318.221,452.986L318.221,452.986z"/>
			</g>
		</g>
		<g>
			<line fill="none" x1="300.894" y1="519.289" x2="295.804" y2="570.17"/>
			<g>
				<path d="M299.075,519.289c-1.696,16.96-3.392,33.922-5.087,50.884c-0.233,2.333,3.403,2.31,3.634,0
					c1.696-16.96,3.392-33.922,5.087-50.884C302.942,516.956,299.307,516.977,299.075,519.289L299.075,519.289z"/>
			</g>
		</g>
		<g>
			<line fill="none" x1="336.512" y1="500.205" x2="328.879" y2="509.747"/>
			<g>
				<path d="M335.226,498.921c-2.546,3.18-5.087,6.362-7.633,9.541c-1.45,1.81,1.106,4.4,2.57,2.57
					c2.546-3.18,5.087-6.362,7.633-9.542C339.246,499.68,336.69,497.09,335.226,498.921L335.226,498.921z"/>
			</g>
		</g>
		<g>
			<g>
				<path d="M323.509,470.61c2.324,1.476,4.373,3.376,6.183,5.439c4.906,5.579,3.403,11.343-2.367,15.595
					c-1.866,1.373-0.056,4.532,1.834,3.137c5.994-4.417,9.214-10.214,5.823-17.363c-1.932-4.073-5.877-7.559-9.639-9.946
					C323.36,466.209,321.537,469.358,323.509,470.61L323.509,470.61z"/>
			</g>
		</g>
		<g>
			<g>
				<path d="M287.692,416.731c4.706,13.06,20.705,16.663,32.918,15.965c2.33-0.134,2.343-3.77,0-3.634
					c-10.426,0.599-25.363-2.054-29.413-13.293C290.408,413.576,286.895,414.522,287.692,416.731L287.692,416.731z"/>
			</g>
		</g>
		<g>
			<ellipse fill="#FFFFFF" cx="308.057" cy="413.588" rx="0.202" ry="0.27"/>
			<g>
				<path d="M306.504,413.103c0.027-0.067,0.056-0.134,0.083-0.202c0.363-0.277,0.724-0.558,1.084-0.834
					c-0.034,0.013-0.067,0.023-0.102,0.036c0.323,0,0.646,0,0.966,0c-0.034-0.013-0.067-0.023-0.102-0.036
					c0.363,0.277,0.724,0.559,1.084,0.834c0.027,0.067,0.056,0.134,0.083,0.202c0,0.323,0,0.646,0,0.967
					c-0.027,0.067-0.056,0.134-0.083,0.202c-0.363,0.277-0.724,0.558-1.084,0.834c0.034-0.013,0.067-0.023,0.102-0.036
					c-0.323,0-0.646,0-0.966,0c0.034,0.013,0.067,0.023,0.102,0.036c-0.363-0.277-0.724-0.558-1.084-0.834
					c-0.027-0.067-0.056-0.134-0.083-0.202c0.197,0.973,1.331,1.517,2.236,1.27c1.004-0.276,1.467-1.266,1.27-2.236
					c-0.183-0.904-1.026-1.603-1.954-1.603c-1.123,0-2.019,0.987-2.019,2.087c0,0.989,0.643,1.697,1.537,2.02
					c1.053,0.38,2.233-0.529,2.437-1.539c0.196-0.97-0.267-1.959-1.27-2.236C307.837,411.586,306.701,412.133,306.504,413.103z"/>
			</g>
		</g>
	</g>
	<g>
		<g>
			<path d="M242.105,524.21c4.876-0.407,9.94-3.663,14.066-5.95c2.05-1.136,0.217-4.276-1.834-3.137
				c-3.171,1.757-6.396,3.469-9.804,4.719c-0.669,0.244-1.35,0.456-2.042,0.634c-0.296,0.074-1.083,0.159-0.384,0.102
				C239.788,520.77,239.768,524.409,242.105,524.21L242.105,524.21z"/>
		</g>
	</g>
</g>
<g>
	<ellipse fill="#FFFFFF" cx="314.653" cy="474.359" rx="0.202" ry="0.27"/>
	<g>
		<path d="M313.101,473.875c0.027-0.067,0.056-0.134,0.083-0.202c0.363-0.277,0.724-0.558,1.084-0.834
			c-0.034,0.013-0.067,0.023-0.102,0.036c0.323,0,0.646,0,0.966,0c-0.034-0.013-0.067-0.023-0.102-0.036
			c0.363,0.277,0.724,0.558,1.084,0.834c0.027,0.067,0.056,0.134,0.083,0.202c0,0.323,0,0.646,0,0.967
			c-0.027,0.067-0.056,0.134-0.083,0.201c-0.363,0.277-0.724,0.559-1.084,0.834c0.034-0.013,0.067-0.023,0.102-0.036
			c-0.323,0-0.646,0-0.966,0c0.034,0.013,0.067,0.023,0.102,0.036c-0.363-0.277-0.724-0.558-1.084-0.834
			c-0.027-0.067-0.056-0.134-0.083-0.201c0.197,0.973,1.331,1.517,2.236,1.27c1.004-0.276,1.467-1.266,1.27-2.236
			c-0.183-0.904-1.026-1.603-1.954-1.603c-1.123,0-2.019,0.987-2.019,2.087c0,0.989,0.643,1.697,1.537,2.02
			c1.053,0.38,2.233-0.529,2.437-1.539c0.196-0.97-0.267-1.959-1.27-2.236C314.433,472.356,313.3,472.905,313.101,473.875z"/>
	</g>
</g>
<g>
	<ellipse fill="#FFFFFF" cx="290.967" cy="475.266" rx="0.202" ry="0.27"/>
	<g>
		<path d="M289.418,474.783c0.027-0.067,0.056-0.134,0.083-0.201c0.363-0.278,0.724-0.559,1.084-0.834
			c-0.034,0.013-0.067,0.023-0.102,0.036c0.323,0,0.646,0,0.966,0c-0.034-0.013-0.067-0.023-0.102-0.036
			c0.363,0.277,0.724,0.558,1.084,0.834c0.027,0.067,0.056,0.134,0.083,0.201c0,0.323,0,0.646,0,0.966
			c-0.027,0.067-0.056,0.134-0.083,0.202c-0.363,0.277-0.724,0.558-1.084,0.834c0.034-0.013,0.067-0.023,0.102-0.036
			c-0.323,0-0.646,0-0.966,0c0.034,0.013,0.067,0.023,0.102,0.036c-0.363-0.277-0.724-0.558-1.084-0.834
			c-0.027-0.067-0.056-0.134-0.083-0.202c0.197,0.973,1.331,1.517,2.236,1.27c1.004-0.276,1.467-1.266,1.27-2.236
			c-0.183-0.904-1.026-1.603-1.956-1.603c-1.123,0-2.019,0.987-2.019,2.087c0,0.989,0.643,1.697,1.537,2.02
			c1.053,0.38,2.233-0.529,2.437-1.539c0.196-0.97-0.267-1.959-1.27-2.236C290.746,473.265,289.612,473.811,289.418,474.783z"/>
	</g>
</g>
<g>
	<g>
		<g>
			<path fill="#FFFFFF" d="M446.447,467.773c0,0,19.019-0.826,11.577-17.363c-3.691-8.202-8.635-21.102-3.307-33.901
				c5.327-12.799,15.553-22.515,33.042-18.382c0,0-11.558-22.339-9.542-36.891c1.244-8.98,12.738-18.479,26.076-15.263
				c8.066,1.944,18.446,6.996,31.167,21.625l-6.362,3.18l-1.271,24.805c0,0,22.691,10.07,27.985,26.713
				c4.453,13.992,4.67,23.608-13.358,45.794"/>
			<g>
				<path d="M446.447,469.59c10.363-0.55,17.482-7.63,13.95-18.159c-1.681-5.01-4.019-9.617-5.274-14.803
					c-1.961-8.1-0.654-16.013,3.12-23.339c5.867-11.382,16.663-16.012,29.029-13.409c1.587,0.336,2.8-1.214,2.053-2.668
					c-5.644-11.009-14.166-29.688-7.022-41.378c6.109-10,18.883-9.883,28.392-5.782c9.314,4.019,16.849,11.356,23.479,18.833
					c0.123-0.951,0.244-1.904,0.37-2.856c-2.12,1.059-4.24,2.12-6.362,3.18c-0.584,0.293-0.868,0.953-0.9,1.569
					c-0.424,8.27-0.849,16.537-1.271,24.805c-0.03,0.58,0.354,1.324,0.9,1.569c11.163,5.022,22.978,13.749,27.151,25.629
					c6.052,17.225-2.173,30.669-12.89,44.028c-1.452,1.809,1.104,4.399,2.57,2.57c8.29-10.335,17.175-22.12,16.319-36.07
					c-0.777-12.674-7.546-22.965-17.299-30.665c-3.789-2.993-7.926-5.553-12.216-7.759c-2.446-1.257-0.833-0.584-0.883,0.403
					c0.1-1.927,0.197-3.855,0.297-5.782c0.266-5.169,0.53-10.335,0.794-15.503c0.036-0.696,0.073-1.393,0.108-2.09
					c0.097-1.897,0.296-0.132-0.624,0.329c2.049-1.023,4.094-2.049,6.143-3.071c1.104-0.552,1.097-2.031,0.37-2.856
					c-12.869-14.522-35.805-32.582-54.394-16.117c-13.422,11.886-2.796,35.919,3.837,48.85c0.686-0.89,1.367-1.779,2.053-2.67
					c-8.542-1.797-17.607-1.231-24.599,4.556c-7.809,6.463-12.322,16.145-13.054,26.165c-0.39,5.377,0.949,10.903,2.562,15.977
					c1.586,4.989,4.89,9.71,4.749,15.079c-0.143,5.356-7.053,7.569-11.453,7.803C444.117,466.08,444.104,469.716,446.447,469.59
					L446.447,469.59z"/>
			</g>
		</g>
		<g>
			<path fill="#FFFFFF" d="M525.92,406.397c0,0,19.08,57.243,2.546,110.67l13.992,5.087l-71.873,5.087
				c0,0,13.358-84.593,10.813-110.035c0,0-13.262-0.064-12.626,15.837c0.637,15.9,25.456,41.311-18.191,51.264"/>
			<g>
				<path d="M524.168,406.879c11.396,34.469,12.973,74.983,2.546,109.704c-0.301,1.006,0.357,1.904,1.27,2.236
					c4.666,1.696,9.329,3.392,13.992,5.087c0.161-1.19,0.323-2.38,0.484-3.57c-23.958,1.696-47.914,3.392-71.873,5.087
					c0.584,0.766,1.167,1.534,1.751,2.301c2.373-15.053,4.447-30.158,6.34-45.278c2.657-21.22,6.513-43.807,4.539-65.239
					c-0.089-0.979-0.757-1.83-1.817-1.817c-15.228,0.167-15.737,17.285-12.023,28.086c2.297,6.68,5.4,13.382,5.146,20.593
					c-0.423,11.98-15.003,16.229-24.423,18.488c-2.28,0.546-1.312,4.05,0.966,3.504c9.039-2.166,18.968-5.299,24.436-13.375
					c3.643-5.38,2.95-12.318,1.417-18.263c-1.707-6.614-4.933-12.776-6.147-19.528c-1.303-7.247,2.43-15.779,10.629-15.87
					c-0.606-0.606-1.212-1.213-1.817-1.817c1.936,20.996-1.809,43.078-4.369,63.874c-1.879,15.256-3.986,30.492-6.38,45.677
					c-0.17,1.08,0.464,2.393,1.751,2.301c23.958-1.696,47.914-3.392,71.872-5.087c2.084-0.149,2.426-2.863,0.484-3.569
					c-4.663-1.696-9.329-3.392-13.992-5.087c0.423,0.746,0.844,1.49,1.27,2.236c10.609-35.316,9.049-76.579-2.546-111.635
					C526.939,403.7,523.431,404.648,524.168,406.879L524.168,406.879z"/>
			</g>
		</g>
		<g>
			<line fill="none" x1="506.84" y1="473.182" x2="501.75" y2="524.063"/>
			<g>
				<path d="M505.021,473.182c-1.696,16.96-3.392,33.922-5.087,50.884c-0.233,2.333,3.403,2.31,3.634,0
					c1.696-16.96,3.392-33.922,5.087-50.884C508.889,470.849,505.253,470.87,505.021,473.182L505.021,473.182z"/>
			</g>
		</g>
		<g>
			<line fill="none" x1="542.458" y1="454.1" x2="534.825" y2="463.64"/>
			<g>
				<path d="M541.172,452.815c-2.546,3.18-5.087,6.362-7.633,9.541c-1.45,1.81,1.106,4.4,2.57,2.57
					c2.546-3.18,5.087-6.362,7.633-9.542C545.192,453.573,542.636,450.984,541.172,452.815L541.172,452.815z"/>
			</g>
		</g>
		<g>
			<g>
				<path d="M529.455,424.503c2.324,1.476,4.373,3.376,6.183,5.439c4.906,5.579,3.403,11.343-2.367,15.595
					c-1.866,1.373-0.056,4.532,1.834,3.137c5.994-4.417,9.214-10.214,5.823-17.363c-1.932-4.073-5.877-7.559-9.639-9.946
					C529.306,420.103,527.483,423.252,529.455,424.503L529.455,424.503z"/>
			</g>
		</g>
		<g>
			<g>
				<path d="M493.637,370.625c4.706,13.06,20.705,16.663,32.918,15.965c2.33-0.134,2.343-3.77,0-3.634
					c-10.426,0.599-25.363-2.054-29.413-13.293C496.354,367.471,492.841,368.415,493.637,370.625L493.637,370.625z"/>
			</g>
		</g>
		<g>
			<ellipse fill="#FFFFFF" cx="514.002" cy="367.481" rx="0.202" ry="0.27"/>
			<g>
				<path d="M512.45,366.998c0.027-0.067,0.056-0.134,0.083-0.202c0.363-0.277,0.724-0.558,1.084-0.834
					c-0.034,0.013-0.067,0.023-0.102,0.036c0.323,0,0.646,0,0.966,0c-0.034-0.013-0.067-0.023-0.102-0.036
					c0.363,0.278,0.724,0.559,1.084,0.834c0.027,0.067,0.056,0.134,0.083,0.202c0,0.323,0,0.646,0,0.967
					c-0.027,0.067-0.056,0.134-0.083,0.202c-0.363,0.277-0.724,0.558-1.084,0.834c0.034-0.013,0.067-0.023,0.102-0.036
					c-0.323,0-0.646,0-0.966,0c0.034,0.013,0.067,0.023,0.102,0.036c-0.363-0.277-0.724-0.558-1.084-0.834
					c-0.027-0.067-0.056-0.134-0.083-0.202c0.197,0.973,1.331,1.517,2.236,1.27c1.004-0.276,1.467-1.266,1.27-2.236
					c-0.183-0.904-1.026-1.603-1.954-1.603c-1.123,0-2.019,0.987-2.019,2.087c0,0.989,0.643,1.697,1.537,2.02
					c1.053,0.38,2.233-0.529,2.437-1.539c0.196-0.97-0.267-1.959-1.27-2.236C513.783,365.479,512.647,366.028,512.45,366.998z"/>
			</g>
		</g>
	</g>
	<g>
		<g>
			<path d="M448.052,478.104c4.876-0.407,9.94-3.663,14.066-5.95c2.05-1.136,0.217-4.276-1.834-3.137
				c-3.171,1.757-6.396,3.469-9.804,4.719c-0.669,0.244-1.35,0.456-2.042,0.634c-0.296,0.074-1.083,0.159-0.384,0.102
				C445.734,474.663,445.715,478.302,448.052,478.104L448.052,478.104z"/>
		</g>
	</g>
</g>
<g>
	<ellipse fill="#FFFFFF" cx="543.145" cy="426.366" rx="0.202" ry="0.27"/>
	<g>
		<path d="M541.594,425.883c0.027-0.067,0.056-0.134,0.083-0.202c0.363-0.277,0.724-0.558,1.084-0.834
			c-0.034,0.013-0.067,0.023-0.102,0.036c0.323,0,0.646,0,0.966,0c-0.034-0.013-0.067-0.023-0.102-0.036
			c0.363,0.277,0.724,0.558,1.084,0.834c0.027,0.067,0.056,0.134,0.083,0.202c0,0.323,0,0.646,0,0.967
			c-0.027,0.067-0.056,0.134-0.083,0.201c-0.363,0.277-0.724,0.559-1.084,0.834c0.034-0.013,0.067-0.023,0.102-0.036
			c-0.323,0-0.646,0-0.966,0c0.034,0.013,0.067,0.023,0.102,0.036c-0.363-0.277-0.724-0.558-1.084-0.834
			c-0.027-0.067-0.056-0.134-0.083-0.201c0.197,0.973,1.331,1.517,2.236,1.27c1.004-0.276,1.467-1.266,1.27-2.236
			c-0.183-0.904-1.026-1.603-1.954-1.603c-1.123,0-2.019,0.987-2.019,2.087c0,0.989,0.643,1.698,1.537,2.02
			c1.053,0.38,2.233-0.529,2.437-1.539c0.196-0.97-0.267-1.959-1.27-2.236C542.925,424.364,541.791,424.913,541.594,425.883z"/>
	</g>
</g>
<g>
	<ellipse fill="#FFFFFF" cx="519.459" cy="427.276" rx="0.202" ry="0.27"/>
	<g>
		<path d="M517.91,426.79c0.027-0.067,0.056-0.134,0.083-0.201c0.363-0.278,0.724-0.559,1.084-0.834
			c-0.034,0.013-0.067,0.023-0.102,0.036c0.323,0,0.646,0,0.966,0c-0.034-0.013-0.067-0.023-0.102-0.036
			c0.363,0.277,0.724,0.558,1.084,0.834c0.027,0.067,0.056,0.134,0.083,0.201c0,0.323,0,0.646,0,0.966
			c-0.027,0.067-0.056,0.134-0.083,0.202c-0.363,0.277-0.724,0.558-1.084,0.834c0.034-0.013,0.067-0.023,0.102-0.036
			c-0.323,0-0.646,0-0.966,0c0.034,0.013,0.067,0.023,0.102,0.036c-0.363-0.277-0.724-0.558-1.084-0.834
			c-0.027-0.067-0.056-0.134-0.083-0.202c0.197,0.973,1.331,1.517,2.236,1.27c1.004-0.276,1.467-1.266,1.27-2.236
			c-0.183-0.904-1.026-1.603-1.956-1.603c-1.123,0-2.019,0.987-2.019,2.087c0,0.989,0.643,1.697,1.537,2.02
			c1.053,0.38,2.233-0.529,2.437-1.539c0.196-0.97-0.267-1.959-1.27-2.236C519.237,425.273,518.104,425.819,517.91,426.79z"/>
	</g>
</g>
</svg>
