<?xml version="1.0" encoding="utf-8"?>
<!-- Generator: Adobe Illustrator 17.0.2, SVG Export Plug-In . SVG Version: 6.00 Build 0)  -->
<!DOCTYPE svg PUBLIC "-//W3C//DTD SVG 1.1//EN" "http://www.w3.org/Graphics/SVG/1.1/DTD/svg11.dtd">
<svg version="1.1" id="Lager_1" xmlns="http://www.w3.org/2000/svg" xmlns:xlink="http://www.w3.org/1999/xlink" x="0px" y="0px"
	 width="600px" height="600px" viewBox="-198.765 -150 600 600" enable-background="new -198.765 -150 600 600"
	 xml:space="preserve">
<g>
	<g>
		<path fill="#FFFFFF" d="M-78.231,248.658c0,0,59.828-2.602,36.417-54.626c-11.613-25.806-27.162-66.38-10.404-106.65
			S-3.296,16.548,51.731,29.555c0,0-36.357-70.274-30.015-116.055c3.915-28.25,40.073-58.136,82.039-48.022
			c25.376,6.117,58.027,22.011,98.045,68.033l-20.008,10.004l-4.002,78.037c0,0,71.381,31.682,88.041,84.04
			c14.006,44.021,14.69,74.272-42.02,144.067"/>
		<g>
			<path d="M-78.231,253.842c11.57-0.562,23.832-4.089,33.224-10.948c21.605-15.777,12.2-40.262,3.724-60.581
				c-7.655-18.352-12.826-37.585-13.102-57.55c-0.288-20.736,7.497-40.326,18.607-57.492c19.478-30.098,51.9-40.334,86.132-32.718
				c4.535,1.01,7.972-3.5,5.853-7.614C48.046,11.089,41.486-5.679,35.983-22.614c-8.793-27.066-18.049-61.989,1.922-86.161
				c20.927-25.327,54.06-26.133,82.47-14.999c30.948,12.129,56.204,36.417,77.761,60.95c0.35-2.714,0.699-5.428,1.049-8.14
				c-6.67,3.334-13.34,6.67-20.008,10.004c-1.663,0.831-2.478,2.72-2.567,4.477c-1.333,26.013-2.668,52.024-4.002,78.037
				c-0.085,1.648,1.014,3.782,2.567,4.476c34.918,15.611,73.082,43.521,85.659,80.942c6.506,19.357,10.069,39.43,5.509,59.613
				c-6.737,29.816-27.448,56.179-46.196,79.412c-4.157,5.15,3.131,12.536,7.332,7.332c19.805-24.541,39.992-51.062,48.366-81.997
				c5.922-21.874,2.154-43.888-4.387-65.122c-12.658-41.091-53.017-72.124-91.05-89.13c0.856,1.493,1.713,2.984,2.567,4.476
				c1.333-26.013,2.668-52.024,4.002-78.037c-0.856,1.493-1.713,2.984-2.567,4.476c6.67-3.334,13.34-6.67,20.008-10.004
				c3.158-1.58,3.12-5.785,1.049-8.14C165.7-115.404,88.376-175.699,32.33-118.06C9.087-94.155,14.911-59.457,22.869-30.255
				c5.835,21.416,14.215,42.679,24.385,62.43c1.951-2.538,3.902-5.076,5.853-7.614c-30.183-6.714-59.621-2.036-82.804,19.316
				c-24.825,22.864-37.118,58.617-34.564,91.728c1.395,18.074,7.172,35.549,14.107,52.175c5.08,12.175,12.683,26.15,5.884,39.196
				c-5.886,11.296-22.069,15.924-33.962,16.502C-84.884,243.8-84.918,254.168-78.231,253.842L-78.231,253.842z"/>
		</g>
	</g>
	<g>
		<path fill="#FFFFFF" d="M171.785,55.568c0,0,60.027,180.084,8.003,348.163l44.021,16.007L-2.296,435.745
			c0,0,42.02-266.125,34.016-346.162c0,0-41.719-0.201-39.718,49.824c2.001,50.023,80.083,129.959-57.226,161.276"/>
		<g>
			<path d="M166.786,56.947c11.729,35.343,18.509,72.856,23.326,109.673c10.268,78.499,7.848,159.657-15.323,235.732
				c-0.873,2.865,1.024,5.432,3.62,6.376c14.674,5.335,29.347,10.672,44.021,16.007c0.46-3.394,0.919-6.788,1.379-10.183
				c-75.369,5.335-150.737,10.672-226.106,16.007c1.667,2.187,3.332,4.375,4.999,6.562c7.514-47.628,14.078-95.425,20.048-143.269
				c4.808-38.532,9.119-77.145,12.171-115.86c2.301-29.196,4.779-59.161,1.982-88.41c-0.267-2.803-2.154-5.194-5.184-5.184
				c-16.778,0.062-32.457,10.4-39.71,25.306c-11.105,22.82-2.816,48.066,5.213,70.243c7.354,20.322,17.048,42.965,12.266,64.964
				c-7.114,32.727-48.228,44.242-76.092,50.77c-6.508,1.524-3.747,11.52,2.756,9.996c28.733-6.732,63.162-17.392,78.45-45.093
				c10.753-19.486,6.193-42.737-0.166-62.81c-6.365-20.091-16.838-40.007-17.319-61.433C-3.35,115.651,9.224,94.847,31.72,94.764
				c-1.727-1.727-3.456-3.456-5.184-5.184c2.729,28.532,0.35,57.699-1.81,86.186c-2.932,38.675-7.294,77.243-12.051,115.732
				C6.779,339.213,0.198,386.872-7.295,434.364c-0.485,3.077,1.327,6.822,4.999,6.562c75.369-5.335,150.737-10.672,226.106-16.007
				c5.944-0.421,6.923-8.165,1.379-10.183c-14.674-5.335-29.347-10.672-44.021-16.007c1.207,2.125,2.413,4.25,3.62,6.376
				c23.475-77.079,25.773-158.964,15.692-238.49c-4.783-37.736-11.68-76.225-23.697-112.431
				C174.688,47.878,164.676,50.583,166.786,56.947L166.786,56.947z"/>
		</g>
	</g>
	<g>
		<line fill="none" x1="111.758" y1="265.667" x2="95.749" y2="425.742"/>
		<g>
			<path d="M106.574,265.667c-5.335,53.359-10.672,106.716-16.007,160.076c-0.666,6.652,9.708,6.587,10.367,0
				c5.335-53.359,10.672-106.716,16.007-160.076C117.607,259.015,107.234,259.079,106.574,265.667L106.574,265.667z"/>
		</g>
	</g>
	<g>
		<line fill="none" x1="223.809" y1="205.639" x2="199.799" y2="235.654"/>
		<g>
			<path d="M220.146,201.974c-8.003,10.004-16.007,20.008-24.012,30.015c-4.132,5.165,3.154,12.55,7.332,7.332
				c8.003-10.004,16.007-20.008,24.012-30.015C231.607,204.14,224.321,196.753,220.146,201.974L220.146,201.974z"/>
		</g>
	</g>
	<g>
		<g>
			<path d="M183.177,112.068c7.775,4.912,14.69,11.354,20.564,18.391c14.781,17.711,9.328,35.766-8.559,48.692
				c-5.364,3.875-0.197,12.876,5.233,8.951c18.831-13.608,28.97-32.47,17.779-54.551c-6.287-12.407-18.126-23.071-29.785-30.436
				C182.737,99.537,177.541,108.51,183.177,112.068L183.177,112.068z"/>
		</g>
	</g>
	<g>
		<g>
			<path d="M70.742-57.106C85.144-16.392,135.911-4.8,173.786-7.279c6.635-0.433,6.678-10.805,0-10.367
				c-33.465,2.192-80.886-7.835-93.049-42.217C78.525-66.121,68.507-63.425,70.742-57.106L70.742-57.106z"/>
		</g>
	</g>
	<g>
		<ellipse fill="#FFFFFF" cx="134.292" cy="-66.855" rx="0.634" ry="0.846"/>
		<g>
			<path d="M129.743-66.855c0.149-0.645,0.299-1.29,0.448-1.932c0.62-0.62,1.24-1.24,1.86-1.86c0.288-0.12,0.576-0.241,0.863-0.359
				c0.919,0,1.837,0,2.756,0c0.288,0.12,0.576,0.241,0.863,0.359c0.62,0.62,1.24,1.24,1.86,1.86c0.597,1.29,0.597,2.577,0,3.867
				c-0.62,0.62-1.24,1.24-1.86,1.86c-0.288,0.12-0.576,0.241-0.863,0.359c-0.919,0-1.837,0-2.756,0
				c-0.288-0.12-0.576-0.241-0.863-0.359c-0.62-0.62-1.24-1.24-1.86-1.86C130.041-65.567,129.892-66.21,129.743-66.855
				c0.174,1.433,0.456,2.604,1.518,3.666c0.968,0.968,2.295,1.518,3.666,1.518c2.569,0,5.524-2.372,5.184-5.184
				c-0.141-1.174-0.226-2.31-0.968-3.299c-1.211-1.613-2.753-2.731-4.85-2.731c-1.491,0-2.988,0.628-4.041,1.682
				c-1.236,1.236-1.576,2.681-1.779,4.348c-0.116,0.954,0.398,2.54,0.968,3.299c1.211,1.613,2.753,2.731,4.85,2.731
				c1.491,0,2.988-0.628,4.041-1.682c1.236-1.236,1.576-2.681,1.777-4.348c0.34-2.812-2.615-5.184-5.184-5.184
				c-1.368,0-2.698,0.552-3.666,1.518C130.201-69.459,129.917-68.287,129.743-66.855z"/>
		</g>
	</g>
	<g>
		<ellipse fill="#FFFFFF" cx="77.115" cy="97.268" rx="0.634" ry="0.846"/>
		<g>
			<path d="M72.566,97.268c0.149-0.645,0.299-1.29,0.448-1.932c0.62-0.62,1.24-1.24,1.86-1.86c0.288-0.12,0.576-0.241,0.863-0.359
				c0.919,0,1.837,0,2.756,0c0.288,0.12,0.576,0.241,0.863,0.359c0.62,0.62,1.24,1.24,1.86,1.86c0.597,1.29,0.597,2.577,0,3.867
				c-0.62,0.62-1.24,1.24-1.86,1.86c-0.288,0.12-0.576,0.241-0.863,0.359c-0.919,0-1.837,0-2.756,0
				c-0.288-0.12-0.576-0.241-0.863-0.359c-0.62-0.62-1.24-1.24-1.86-1.86C72.863,98.556,72.716,97.913,72.566,97.268
				c0.174,1.433,0.456,2.604,1.518,3.666c0.968,0.968,2.295,1.518,3.666,1.518c2.569,0,5.524-2.372,5.184-5.184
				c-0.141-1.174-0.226-2.31-0.968-3.299c-1.211-1.613-2.754-2.731-4.85-2.731c-1.491,0-2.988,0.628-4.041,1.682
				c-1.236,1.236-1.576,2.681-1.779,4.348c-0.116,0.954,0.398,2.54,0.968,3.299c1.211,1.613,2.753,2.731,4.85,2.731
				c1.491,0,2.988-0.628,4.039-1.682c1.236-1.236,1.576-2.681,1.779-4.348c0.34-2.812-2.615-5.184-5.184-5.184
				c-1.368,0-2.698,0.552-3.666,1.518C73.023,94.664,72.738,95.833,72.566,97.268z"/>
		</g>
	</g>
	<g>
		<ellipse fill="#FFFFFF" cx="145.401" cy="98.51" rx="0.634" ry="0.846"/>
		<g>
			<path d="M140.852,98.51c0.149-0.645,0.299-1.29,0.448-1.932c0.62-0.62,1.24-1.24,1.86-1.86c0.288-0.12,0.576-0.241,0.863-0.359
				c0.919,0,1.837,0,2.756,0c0.288,0.12,0.576,0.241,0.865,0.359c0.62,0.62,1.24,1.24,1.86,1.86c0.597,1.29,0.597,2.577,0,3.867
				c-0.62,0.62-1.24,1.24-1.86,1.86c-0.288,0.12-0.576,0.241-0.865,0.359c-0.919,0-1.837,0-2.756,0
				c-0.288-0.12-0.576-0.241-0.863-0.359c-0.62-0.62-1.24-1.24-1.86-1.86C141.151,99.8,140.999,99.155,140.852,98.51
				c0.174,1.433,0.456,2.604,1.518,3.666c0.968,0.968,2.295,1.518,3.666,1.518c2.569,0,5.524-2.372,5.184-5.184
				c-0.141-1.174-0.226-2.31-0.968-3.299c-1.211-1.613-2.753-2.731-4.85-2.731c-1.491,0-2.988,0.628-4.041,1.682
				c-1.236,1.236-1.576,2.681-1.779,4.348c-0.116,0.954,0.398,2.54,0.968,3.299c1.211,1.613,2.753,2.731,4.85,2.731
				c1.491,0,2.988-0.628,4.039-1.682c1.236-1.236,1.576-2.681,1.779-4.348c0.34-2.812-2.615-5.184-5.184-5.184
				c-1.368,0-2.698,0.552-3.666,1.518C141.308,95.906,141.024,97.078,140.852,98.51z"/>
		</g>
	</g>
</g>
<g>
	<g>
		<path d="M-73.184,280.626c15.227-1.273,31.105-11.507,43.981-18.644c5.847-3.241,0.62-12.196-5.233-8.951
			c-10.017,5.551-20.203,10.95-30.975,14.897c-2.105,0.771-4.248,1.439-6.421,1.993c-0.848,0.216-3.297,0.502-1.354,0.338
			C-79.796,270.811-79.85,281.184-73.184,280.626L-73.184,280.626z"/>
	</g>
</g>
</svg>
