<?xml version="1.0" encoding="utf-8"?>
<!-- Generator: Adobe Illustrator 17.1.0, SVG Export Plug-In . SVG Version: 6.00 Build 0)  -->
<!DOCTYPE svg PUBLIC "-//W3C//DTD SVG 1.1//EN" "http://www.w3.org/Graphics/SVG/1.1/DTD/svg11.dtd">
<svg version="1.1" id="Lager_1" xmlns="http://www.w3.org/2000/svg" xmlns:xlink="http://www.w3.org/1999/xlink" x="0px" y="0px"
	 viewBox="275 275 50 50" enable-background="new 275 275 50 50" xml:space="preserve">
<g>
	<g>
		<g>
			<path fill="#FFFFFF" d="M287.232,292.88c0,0,0.941-0.041,0.573-0.859c-0.183-0.406-0.427-1.044-0.164-1.678
				c0.264-0.633,0.77-1.114,1.635-0.91c0,0-0.572-1.105-0.472-1.826c0.062-0.444,0.63-0.914,1.29-0.755
				c0.399,0.096,0.913,0.346,1.542,1.07l-0.315,0.157l-0.063,1.227c0,0,1.123,0.498,1.385,1.322c0.22,0.692,0.231,1.168-0.661,2.266
				"/>
			<g>
				<path d="M287.232,292.97c0.513-0.027,0.865-0.378,0.69-0.899c-0.083-0.248-0.199-0.476-0.261-0.733
					c-0.097-0.401-0.032-0.792,0.154-1.155c0.29-0.563,0.825-0.792,1.436-0.664c0.079,0.017,0.139-0.06,0.102-0.132
					c-0.279-0.545-0.701-1.469-0.347-2.048c0.302-0.495,0.934-0.489,1.405-0.286c0.461,0.199,0.834,0.562,1.162,0.932
					c0.006-0.047,0.012-0.094,0.018-0.141c-0.105,0.052-0.21,0.105-0.315,0.157c-0.029,0.014-0.043,0.047-0.045,0.078
					c-0.021,0.409-0.042,0.818-0.063,1.227c-0.001,0.029,0.018,0.066,0.045,0.078c0.552,0.249,1.137,0.68,1.344,1.268
					c0.299,0.852-0.108,1.518-0.638,2.179c-0.072,0.09,0.055,0.218,0.127,0.127c0.41-0.511,0.85-1.095,0.808-1.785
					c-0.038-0.627-0.373-1.136-0.856-1.517c-0.188-0.148-0.392-0.275-0.604-0.384c-0.121-0.062-0.041-0.029-0.044,0.02
					c0.005-0.095,0.01-0.191,0.015-0.286c0.013-0.256,0.026-0.511,0.039-0.767c0.002-0.034,0.004-0.069,0.005-0.103
					c0.005-0.094,0.015-0.006-0.031,0.016c0.101-0.051,0.203-0.101,0.304-0.152c0.055-0.027,0.054-0.1,0.018-0.141
					c-0.637-0.719-1.772-1.612-2.692-0.798c-0.664,0.588-0.138,1.777,0.19,2.417c0.034-0.044,0.068-0.088,0.102-0.132
					c-0.423-0.089-0.871-0.061-1.217,0.225c-0.386,0.32-0.61,0.799-0.646,1.295c-0.019,0.266,0.047,0.54,0.127,0.791
					c0.078,0.247,0.242,0.48,0.235,0.746c-0.007,0.265-0.349,0.375-0.567,0.386C287.116,292.797,287.116,292.976,287.232,292.97
					L287.232,292.97z"/>
			</g>
		</g>
		<g>
			<path fill="#FFFFFF" d="M291.164,289.843c0,0,0.944,2.833,0.126,5.476l0.692,0.252l-3.557,0.252c0,0,0.661-4.186,0.535-5.445
				c0,0-0.656-0.003-0.625,0.784c0.032,0.787,1.26,2.044-0.9,2.537"/>
			<g>
				<path d="M291.078,289.867c0.564,1.706,0.642,3.711,0.126,5.429c-0.015,0.05,0.018,0.094,0.063,0.111
					c0.231,0.084,0.462,0.168,0.692,0.252c0.008-0.059,0.016-0.118,0.024-0.177c-1.186,0.084-2.371,0.168-3.557,0.252
					c0.029,0.038,0.058,0.076,0.087,0.114c0.117-0.745,0.22-1.492,0.314-2.241c0.131-1.05,0.322-2.168,0.225-3.228
					c-0.004-0.048-0.037-0.091-0.09-0.09c-0.754,0.008-0.779,0.855-0.595,1.39c0.114,0.331,0.267,0.662,0.255,1.019
					c-0.021,0.593-0.742,0.803-1.209,0.915c-0.113,0.027-0.065,0.2,0.048,0.173c0.447-0.107,0.939-0.262,1.209-0.662
					c0.18-0.266,0.146-0.609,0.07-0.904c-0.084-0.327-0.244-0.632-0.304-0.966c-0.064-0.359,0.12-0.781,0.526-0.785
					c-0.03-0.03-0.06-0.06-0.09-0.09c0.096,1.039-0.09,2.132-0.216,3.161c-0.093,0.755-0.197,1.509-0.316,2.26
					c-0.008,0.053,0.023,0.118,0.087,0.114c1.186-0.084,2.371-0.168,3.557-0.252c0.103-0.007,0.12-0.142,0.024-0.177
					c-0.231-0.084-0.462-0.168-0.692-0.252c0.021,0.037,0.042,0.074,0.063,0.111c0.525-1.748,0.448-3.789-0.126-5.524
					C291.215,289.71,291.041,289.757,291.078,289.867L291.078,289.867z"/>
			</g>
		</g>
		<g>
			<line fill="none" x1="290.22" y1="293.148" x2="289.968" y2="295.666"/>
			<g>
				<path d="M290.13,293.148c-0.084,0.839-0.168,1.679-0.252,2.518c-0.012,0.115,0.168,0.114,0.18,0
					c0.084-0.839,0.168-1.679,0.252-2.518C290.322,293.032,290.142,293.034,290.13,293.148L290.13,293.148z"/>
			</g>
		</g>
		<g>
			<line fill="none" x1="291.983" y1="292.204" x2="291.605" y2="292.676"/>
			<g>
				<path d="M291.919,292.14c-0.126,0.157-0.252,0.315-0.378,0.472c-0.072,0.09,0.055,0.218,0.127,0.127
					c0.126-0.157,0.252-0.315,0.378-0.472C292.118,292.178,291.992,292.049,291.919,292.14L291.919,292.14z"/>
			</g>
		</g>
		<g>
			<g>
				<path d="M291.339,290.739c0.115,0.073,0.216,0.167,0.306,0.269c0.243,0.276,0.168,0.561-0.117,0.772
					c-0.092,0.068-0.003,0.224,0.091,0.155c0.297-0.219,0.456-0.505,0.288-0.859c-0.096-0.202-0.291-0.374-0.477-0.492
					C291.332,290.521,291.242,290.677,291.339,290.739L291.339,290.739z"/>
			</g>
		</g>
		<g>
			<g>
				<path d="M289.567,288.073c0.233,0.646,1.025,0.825,1.629,0.79c0.115-0.007,0.116-0.187,0-0.18
					c-0.516,0.03-1.255-0.102-1.455-0.658C289.701,287.917,289.528,287.964,289.567,288.073L289.567,288.073z"/>
			</g>
		</g>
		<g>
			<ellipse fill="#FFFFFF" cx="290.575" cy="287.918" rx="0.013" ry="0.013"/>
			<g>
				<path d="M290.498,287.894c0.001-0.003,0.003-0.007,0.004-0.01c0.018-0.014,0.036-0.028,0.054-0.041
					c-0.002,0.001-0.003,0.001-0.005,0.002c0.016,0,0.032,0,0.048,0c-0.002-0.001-0.003-0.001-0.005-0.002
					c0.018,0.014,0.036,0.028,0.054,0.041c0.001,0.003,0.003,0.007,0.004,0.01c0,0.016,0,0.032,0,0.048
					c-0.001,0.003-0.003,0.007-0.004,0.01c-0.018,0.014-0.036,0.028-0.054,0.041c0.002-0.001,0.003-0.001,0.005-0.002
					c-0.016,0-0.032,0-0.048,0c0.002,0.001,0.003,0.001,0.005,0.002c-0.018-0.014-0.036-0.028-0.054-0.041
					c-0.001-0.003-0.003-0.007-0.004-0.01c0.01,0.048,0.066,0.075,0.111,0.063c0.05-0.014,0.073-0.063,0.063-0.111
					c-0.009-0.045-0.051-0.079-0.097-0.079c-0.056,0-0.1,0.049-0.1,0.103c0,0.049,0.032,0.084,0.076,0.1
					c0.052,0.019,0.111-0.026,0.121-0.076c0.01-0.048-0.013-0.097-0.063-0.111C290.564,287.818,290.508,287.845,290.498,287.894z"/>
			</g>
		</g>
	</g>
	<g>
		<g>
			<path d="M287.311,293.392c0.241-0.02,0.492-0.181,0.696-0.294c0.101-0.056,0.011-0.212-0.091-0.155
				c-0.157,0.087-0.316,0.172-0.485,0.234c-0.033,0.012-0.067,0.023-0.101,0.031c-0.015,0.004-0.054,0.008-0.019,0.005
				C287.196,293.221,287.196,293.401,287.311,293.392L287.311,293.392z"/>
		</g>
	</g>
</g>
<g>
	<ellipse fill="#FFFFFF" cx="290.876" cy="290.786" rx="0.013" ry="0.013"/>
	<g>
		<path d="M290.799,290.762c0.001-0.003,0.003-0.007,0.004-0.01c0.018-0.014,0.036-0.028,0.054-0.041
			c-0.002,0.001-0.003,0.001-0.005,0.002c0.016,0,0.032,0,0.048,0c-0.002-0.001-0.003-0.001-0.005-0.002
			c0.018,0.014,0.036,0.028,0.054,0.041c0.001,0.003,0.003,0.007,0.004,0.01c0,0.016,0,0.032,0,0.048
			c-0.001,0.003-0.003,0.007-0.004,0.01c-0.018,0.014-0.036,0.028-0.054,0.041c0.002-0.001,0.003-0.001,0.005-0.002
			c-0.016,0-0.032,0-0.048,0c0.002,0.001,0.003,0.001,0.005,0.002c-0.018-0.014-0.036-0.028-0.054-0.041
			c-0.001-0.003-0.003-0.007-0.004-0.01c0.01,0.048,0.066,0.075,0.111,0.063c0.05-0.014,0.073-0.063,0.063-0.111
			c-0.009-0.045-0.051-0.079-0.097-0.079c-0.056,0-0.1,0.049-0.1,0.103c0,0.049,0.032,0.084,0.076,0.1
			c0.052,0.019,0.111-0.026,0.121-0.076c0.01-0.048-0.013-0.097-0.063-0.111C290.865,290.687,290.809,290.714,290.799,290.762z"/>
	</g>
</g>
<g>
	<ellipse fill="#FFFFFF" cx="289.733" cy="290.812" rx="0.013" ry="0.013"/>
	<g>
		<path d="M289.657,290.788c0.001-0.003,0.003-0.007,0.004-0.01c0.018-0.014,0.036-0.028,0.054-0.041
			c-0.002,0.001-0.003,0.001-0.005,0.002c0.016,0,0.032,0,0.048,0c-0.002-0.001-0.003-0.001-0.005-0.002
			c0.018,0.014,0.036,0.028,0.054,0.041c0.001,0.003,0.003,0.007,0.004,0.01c0,0.016,0,0.032,0,0.048
			c-0.001,0.003-0.003,0.007-0.004,0.01c-0.018,0.014-0.036,0.028-0.054,0.041c0.002-0.001,0.003-0.001,0.005-0.002
			c-0.016,0-0.032,0-0.048,0c0.002,0.001,0.003,0.001,0.005,0.002c-0.018-0.014-0.036-0.028-0.054-0.041
			c-0.001-0.003-0.003-0.007-0.004-0.01c0.01,0.048,0.066,0.075,0.111,0.063c0.05-0.014,0.073-0.063,0.063-0.111
			c-0.009-0.045-0.051-0.079-0.097-0.079c-0.056,0-0.1,0.049-0.1,0.103c0,0.049,0.032,0.084,0.076,0.1
			c0.052,0.019,0.111-0.026,0.121-0.076c0.01-0.048-0.013-0.097-0.063-0.111C289.723,290.713,289.666,290.74,289.657,290.788z"/>
	</g>
</g>
<g>
	<g>
		<g>
			<path fill="#FFFFFF" d="M302.559,300.417c0,0,0.941-0.041,0.573-0.859c-0.183-0.406-0.427-1.044-0.164-1.678
				c0.264-0.633,0.77-1.114,1.635-0.91c0,0-0.572-1.105-0.472-1.826c0.062-0.444,0.63-0.914,1.29-0.755
				c0.399,0.096,0.913,0.346,1.542,1.07l-0.315,0.157l-0.063,1.227c0,0,1.123,0.498,1.385,1.322c0.22,0.692,0.231,1.168-0.661,2.266
				"/>
			<g>
				<path d="M302.559,300.507c0.513-0.027,0.865-0.378,0.69-0.899c-0.083-0.248-0.199-0.476-0.261-0.733
					c-0.097-0.401-0.032-0.792,0.154-1.155c0.29-0.563,0.825-0.792,1.436-0.664c0.079,0.017,0.139-0.06,0.102-0.132
					c-0.279-0.545-0.701-1.469-0.347-2.048c0.302-0.495,0.934-0.489,1.405-0.286c0.461,0.199,0.834,0.562,1.162,0.932
					c0.006-0.047,0.012-0.094,0.018-0.141c-0.105,0.052-0.21,0.105-0.315,0.157c-0.029,0.014-0.043,0.047-0.045,0.078
					c-0.021,0.409-0.042,0.818-0.063,1.227c-0.001,0.029,0.018,0.066,0.045,0.078c0.552,0.249,1.137,0.68,1.344,1.268
					c0.299,0.852-0.108,1.518-0.638,2.179c-0.072,0.09,0.055,0.218,0.127,0.127c0.41-0.511,0.85-1.095,0.808-1.785
					c-0.038-0.627-0.373-1.136-0.856-1.517c-0.188-0.148-0.392-0.275-0.604-0.384c-0.121-0.062-0.041-0.029-0.044,0.02
					c0.005-0.095,0.01-0.191,0.015-0.286c0.013-0.256,0.026-0.511,0.039-0.767c0.002-0.034,0.004-0.069,0.005-0.103
					c0.005-0.094,0.015-0.007-0.031,0.016c0.101-0.051,0.203-0.101,0.304-0.152c0.055-0.027,0.054-0.1,0.018-0.141
					c-0.637-0.719-1.772-1.612-2.692-0.798c-0.664,0.588-0.138,1.777,0.19,2.417c0.034-0.044,0.068-0.088,0.102-0.132
					c-0.423-0.089-0.871-0.061-1.217,0.225c-0.386,0.32-0.61,0.799-0.646,1.295c-0.019,0.266,0.047,0.54,0.127,0.791
					c0.078,0.247,0.242,0.48,0.235,0.746c-0.007,0.265-0.349,0.375-0.567,0.386C302.444,300.333,302.443,300.513,302.559,300.507
					L302.559,300.507z"/>
			</g>
		</g>
		<g>
			<path fill="#FFFFFF" d="M306.492,297.38c0,0,0.944,2.833,0.126,5.476l0.692,0.252l-3.557,0.252c0,0,0.661-4.186,0.535-5.445
				c0,0-0.656-0.003-0.625,0.784c0.031,0.787,1.26,2.044-0.9,2.537"/>
			<g>
				<path d="M306.405,297.404c0.564,1.706,0.642,3.711,0.126,5.429c-0.015,0.05,0.018,0.094,0.063,0.111
					c0.231,0.084,0.462,0.168,0.692,0.252c0.008-0.059,0.016-0.118,0.024-0.177c-1.186,0.084-2.371,0.168-3.557,0.252
					c0.029,0.038,0.058,0.076,0.087,0.114c0.117-0.745,0.22-1.492,0.314-2.241c0.131-1.05,0.322-2.168,0.225-3.228
					c-0.004-0.048-0.037-0.091-0.09-0.09c-0.754,0.008-0.779,0.855-0.595,1.39c0.114,0.331,0.267,0.662,0.255,1.019
					c-0.021,0.593-0.742,0.803-1.209,0.915c-0.113,0.027-0.065,0.2,0.048,0.173c0.447-0.107,0.939-0.262,1.209-0.662
					c0.18-0.266,0.146-0.61,0.07-0.904c-0.084-0.327-0.244-0.632-0.304-0.966c-0.064-0.359,0.12-0.781,0.526-0.785
					c-0.03-0.03-0.06-0.06-0.09-0.09c0.096,1.039-0.09,2.132-0.216,3.161c-0.093,0.755-0.197,1.509-0.316,2.26
					c-0.008,0.053,0.023,0.118,0.087,0.114c1.186-0.084,2.371-0.168,3.557-0.252c0.103-0.007,0.12-0.142,0.024-0.177
					c-0.231-0.084-0.462-0.168-0.692-0.252c0.021,0.037,0.042,0.074,0.063,0.111c0.525-1.748,0.448-3.789-0.126-5.524
					C306.543,297.246,306.369,297.293,306.405,297.404L306.405,297.404z"/>
			</g>
		</g>
		<g>
			<line fill="none" x1="305.548" y1="300.684" x2="305.296" y2="303.202"/>
			<g>
				<path d="M305.458,300.684c-0.084,0.839-0.168,1.679-0.252,2.518c-0.012,0.115,0.168,0.114,0.18,0
					c0.084-0.839,0.168-1.679,0.252-2.518C305.649,300.569,305.469,300.57,305.458,300.684L305.458,300.684z"/>
			</g>
		</g>
		<g>
			<line fill="none" x1="307.31" y1="299.74" x2="306.933" y2="300.212"/>
			<g>
				<path d="M307.247,299.677c-0.126,0.157-0.252,0.315-0.378,0.472c-0.072,0.09,0.055,0.218,0.127,0.127
					c0.126-0.157,0.252-0.315,0.378-0.472C307.446,299.714,307.319,299.586,307.247,299.677L307.247,299.677z"/>
			</g>
		</g>
		<g>
			<g>
				<path d="M306.667,298.276c0.115,0.073,0.216,0.167,0.306,0.269c0.243,0.276,0.168,0.561-0.117,0.772
					c-0.092,0.068-0.003,0.224,0.091,0.155c0.297-0.219,0.456-0.505,0.288-0.859c-0.096-0.202-0.291-0.374-0.477-0.492
					C306.66,298.058,306.569,298.214,306.667,298.276L306.667,298.276z"/>
			</g>
		</g>
		<g>
			<g>
				<path d="M304.895,295.609c0.233,0.646,1.025,0.825,1.629,0.79c0.115-0.007,0.116-0.187,0-0.18
					c-0.516,0.03-1.255-0.102-1.455-0.658C305.029,295.453,304.855,295.5,304.895,295.609L304.895,295.609z"/>
			</g>
		</g>
		<g>
			<ellipse fill="#FFFFFF" cx="305.902" cy="295.454" rx="0.013" ry="0.013"/>
			<g>
				<path d="M305.826,295.43c0.001-0.003,0.003-0.007,0.004-0.01c0.018-0.014,0.036-0.028,0.054-0.041
					c-0.002,0.001-0.003,0.001-0.005,0.002c0.016,0,0.032,0,0.048,0c-0.002-0.001-0.003-0.001-0.005-0.002
					c0.018,0.014,0.036,0.028,0.054,0.041c0.001,0.003,0.003,0.007,0.004,0.01c0,0.016,0,0.032,0,0.048
					c-0.001,0.003-0.003,0.007-0.004,0.01c-0.018,0.014-0.036,0.028-0.054,0.041c0.002-0.001,0.003-0.001,0.005-0.002
					c-0.016,0-0.032,0-0.048,0c0.002,0.001,0.003,0.001,0.005,0.002c-0.018-0.014-0.036-0.028-0.054-0.041
					c-0.001-0.003-0.003-0.007-0.004-0.01c0.01,0.048,0.066,0.075,0.111,0.063c0.05-0.014,0.073-0.063,0.063-0.111
					c-0.009-0.045-0.051-0.079-0.097-0.079c-0.056,0-0.1,0.049-0.1,0.103c0,0.049,0.032,0.084,0.076,0.1
					c0.052,0.019,0.11-0.026,0.121-0.076c0.01-0.048-0.013-0.097-0.063-0.111C305.892,295.355,305.835,295.382,305.826,295.43z"/>
			</g>
		</g>
	</g>
	<g>
		<g>
			<path d="M302.639,300.928c0.241-0.02,0.492-0.181,0.696-0.294c0.101-0.056,0.011-0.212-0.091-0.155
				c-0.157,0.087-0.316,0.172-0.485,0.233c-0.033,0.012-0.067,0.023-0.101,0.031c-0.015,0.004-0.054,0.008-0.019,0.005
				C302.524,300.758,302.523,300.938,302.639,300.928L302.639,300.928z"/>
		</g>
	</g>
</g>
<g>
	<ellipse fill="#FFFFFF" cx="306.229" cy="298.461" rx="0.013" ry="0.013"/>
	<g>
		<path d="M306.152,298.437c0.001-0.003,0.003-0.007,0.004-0.01c0.018-0.014,0.036-0.028,0.054-0.041
			c-0.002,0.001-0.003,0.001-0.005,0.002c0.016,0,0.032,0,0.048,0c-0.002-0.001-0.003-0.001-0.005-0.002
			c0.018,0.014,0.036,0.028,0.054,0.041c0.001,0.003,0.003,0.007,0.004,0.01c0,0.016,0,0.032,0,0.048
			c-0.001,0.003-0.003,0.007-0.004,0.01c-0.018,0.014-0.036,0.028-0.054,0.041c0.002-0.001,0.003-0.001,0.005-0.002
			c-0.016,0-0.032,0-0.048,0c0.002,0.001,0.003,0.001,0.005,0.002c-0.018-0.014-0.036-0.028-0.054-0.041
			c-0.001-0.003-0.003-0.007-0.004-0.01c0.01,0.048,0.066,0.075,0.111,0.063c0.05-0.014,0.073-0.063,0.063-0.111
			c-0.009-0.045-0.051-0.079-0.097-0.079c-0.056,0-0.1,0.049-0.1,0.103c0,0.049,0.032,0.084,0.076,0.1
			c0.052,0.019,0.111-0.026,0.121-0.076c0.01-0.048-0.013-0.097-0.063-0.111C306.218,298.362,306.162,298.389,306.152,298.437z"/>
	</g>
</g>
<g>
	<ellipse fill="#FFFFFF" cx="305.057" cy="298.506" rx="0.013" ry="0.013"/>
	<g>
		<path d="M304.98,298.482c0.001-0.003,0.003-0.007,0.004-0.01c0.018-0.014,0.036-0.028,0.054-0.041
			c-0.002,0.001-0.003,0.001-0.005,0.002c0.016,0,0.032,0,0.048,0c-0.002-0.001-0.003-0.001-0.005-0.002
			c0.018,0.014,0.036,0.028,0.054,0.041c0.001,0.003,0.003,0.007,0.004,0.01c0,0.016,0,0.032,0,0.048
			c-0.001,0.003-0.003,0.007-0.004,0.01c-0.018,0.014-0.036,0.028-0.054,0.041c0.002-0.001,0.003-0.001,0.005-0.002
			c-0.016,0-0.032,0-0.048,0c0.002,0.001,0.003,0.001,0.005,0.002c-0.018-0.014-0.036-0.028-0.054-0.041
			c-0.001-0.003-0.003-0.007-0.004-0.01c0.01,0.048,0.066,0.075,0.111,0.063c0.05-0.014,0.073-0.063,0.063-0.111
			c-0.009-0.045-0.051-0.079-0.097-0.079c-0.056,0-0.1,0.049-0.1,0.103c0,0.049,0.032,0.084,0.076,0.1
			c0.052,0.019,0.111-0.026,0.121-0.076c0.01-0.048-0.013-0.097-0.063-0.111C305.046,298.407,304.99,298.434,304.98,298.482z"/>
	</g>
</g>
<g>
	<g>
		<g>
			<path fill="#FFFFFF" d="M294.003,300.882c0,0,0.941-0.041,0.573-0.859c-0.183-0.406-0.427-1.044-0.164-1.678
				c0.264-0.633,0.77-1.114,1.635-0.91c0,0-0.572-1.105-0.472-1.826c0.062-0.444,0.63-0.914,1.29-0.755
				c0.399,0.096,0.913,0.346,1.542,1.07l-0.315,0.157l-0.063,1.227c0,0,1.123,0.498,1.385,1.322c0.22,0.692,0.231,1.168-0.661,2.266
				"/>
			<g>
				<path d="M294.003,300.972c0.513-0.027,0.865-0.378,0.69-0.899c-0.083-0.248-0.199-0.476-0.261-0.733
					c-0.097-0.401-0.032-0.792,0.154-1.155c0.29-0.563,0.825-0.792,1.436-0.664c0.079,0.017,0.138-0.06,0.102-0.132
					c-0.279-0.545-0.701-1.469-0.347-2.048c0.302-0.495,0.934-0.489,1.405-0.286c0.461,0.199,0.834,0.562,1.162,0.932
					c0.006-0.047,0.012-0.094,0.018-0.141c-0.105,0.052-0.21,0.105-0.315,0.157c-0.029,0.014-0.043,0.047-0.045,0.078
					c-0.021,0.409-0.042,0.818-0.063,1.227c-0.001,0.029,0.018,0.066,0.045,0.078c0.552,0.249,1.137,0.68,1.344,1.268
					c0.3,0.852-0.108,1.518-0.638,2.179c-0.072,0.09,0.055,0.218,0.127,0.127c0.41-0.511,0.85-1.095,0.808-1.785
					c-0.038-0.627-0.373-1.136-0.856-1.517c-0.188-0.148-0.392-0.275-0.604-0.384c-0.121-0.062-0.041-0.029-0.044,0.02
					c0.005-0.095,0.01-0.191,0.015-0.286c0.013-0.256,0.026-0.511,0.039-0.767c0.002-0.034,0.004-0.069,0.005-0.103
					c0.005-0.094,0.015-0.007-0.031,0.016c0.101-0.051,0.203-0.101,0.304-0.152c0.055-0.027,0.054-0.1,0.018-0.141
					c-0.637-0.719-1.772-1.612-2.692-0.798c-0.664,0.588-0.138,1.777,0.19,2.417c0.034-0.044,0.068-0.088,0.102-0.132
					c-0.423-0.089-0.871-0.061-1.217,0.225c-0.386,0.32-0.61,0.799-0.646,1.295c-0.019,0.266,0.047,0.54,0.127,0.791
					c0.078,0.247,0.242,0.48,0.235,0.746c-0.007,0.265-0.349,0.375-0.567,0.386C293.888,300.798,293.887,300.978,294.003,300.972
					L294.003,300.972z"/>
			</g>
		</g>
		<g>
			<path fill="#FFFFFF" d="M297.936,297.845c0,0,0.944,2.833,0.126,5.476l0.692,0.252l-3.557,0.252c0,0,0.661-4.186,0.535-5.445
				c0,0-0.656-0.003-0.625,0.784c0.031,0.787,1.26,2.044-0.9,2.537"/>
			<g>
				<path d="M297.849,297.868c0.564,1.706,0.642,3.711,0.126,5.429c-0.015,0.05,0.018,0.094,0.063,0.111
					c0.231,0.084,0.462,0.168,0.692,0.252c0.008-0.059,0.016-0.118,0.024-0.177c-1.186,0.084-2.371,0.168-3.557,0.252
					c0.029,0.038,0.058,0.076,0.087,0.114c0.117-0.745,0.22-1.492,0.314-2.241c0.131-1.05,0.322-2.168,0.225-3.228
					c-0.004-0.048-0.037-0.091-0.09-0.09c-0.754,0.008-0.779,0.855-0.595,1.39c0.114,0.331,0.267,0.662,0.255,1.019
					c-0.021,0.593-0.742,0.803-1.209,0.915c-0.113,0.027-0.065,0.2,0.048,0.173c0.447-0.107,0.939-0.262,1.209-0.662
					c0.18-0.266,0.146-0.609,0.07-0.904c-0.084-0.327-0.244-0.632-0.304-0.966c-0.064-0.359,0.12-0.781,0.526-0.785
					c-0.03-0.03-0.06-0.06-0.09-0.09c0.096,1.039-0.09,2.132-0.216,3.161c-0.093,0.755-0.197,1.509-0.316,2.26
					c-0.008,0.053,0.023,0.118,0.087,0.114c1.186-0.084,2.371-0.168,3.557-0.252c0.103-0.007,0.12-0.142,0.024-0.177
					c-0.231-0.084-0.462-0.168-0.692-0.252c0.021,0.037,0.042,0.074,0.063,0.111c0.525-1.748,0.448-3.789-0.126-5.524
					C297.987,297.711,297.813,297.758,297.849,297.868L297.849,297.868z"/>
			</g>
		</g>
		<g>
			<line fill="none" x1="296.992" y1="301.149" x2="296.74" y2="303.667"/>
			<g>
				<path d="M296.902,301.149c-0.084,0.839-0.168,1.679-0.252,2.518c-0.012,0.115,0.168,0.114,0.18,0
					c0.084-0.839,0.168-1.679,0.252-2.518C297.093,301.034,296.913,301.035,296.902,301.149L296.902,301.149z"/>
			</g>
		</g>
		<g>
			<line fill="none" x1="298.754" y1="300.205" x2="298.377" y2="300.677"/>
			<g>
				<path d="M298.691,300.141c-0.126,0.157-0.252,0.315-0.378,0.472c-0.072,0.09,0.055,0.218,0.127,0.127
					c0.126-0.157,0.252-0.315,0.378-0.472C298.89,300.179,298.763,300.051,298.691,300.141L298.691,300.141z"/>
			</g>
		</g>
		<g>
			<g>
				<path d="M298.111,298.741c0.115,0.073,0.216,0.167,0.306,0.269c0.243,0.276,0.168,0.561-0.117,0.772
					c-0.092,0.068-0.003,0.224,0.091,0.155c0.297-0.219,0.456-0.505,0.288-0.859c-0.096-0.202-0.291-0.374-0.477-0.492
					C298.104,298.523,298.013,298.679,298.111,298.741L298.111,298.741z"/>
			</g>
		</g>
		<g>
			<g>
				<path d="M296.339,296.074c0.233,0.646,1.025,0.825,1.629,0.79c0.115-0.007,0.116-0.187,0-0.18
					c-0.516,0.03-1.255-0.102-1.455-0.658C296.473,295.918,296.299,295.965,296.339,296.074L296.339,296.074z"/>
			</g>
		</g>
		<g>
			<ellipse fill="#FFFFFF" cx="297.346" cy="295.919" rx="0.013" ry="0.013"/>
			<g>
				<path d="M297.27,295.895c0.001-0.003,0.003-0.007,0.004-0.01c0.018-0.014,0.036-0.028,0.054-0.041
					c-0.002,0.001-0.003,0.001-0.005,0.002c0.016,0,0.032,0,0.048,0c-0.002-0.001-0.003-0.001-0.005-0.002
					c0.018,0.014,0.036,0.028,0.054,0.041c0.001,0.003,0.003,0.007,0.004,0.01c0,0.016,0,0.032,0,0.048
					c-0.001,0.003-0.003,0.007-0.004,0.01c-0.018,0.014-0.036,0.028-0.054,0.041c0.002-0.001,0.003-0.001,0.005-0.002
					c-0.016,0-0.032,0-0.048,0c0.002,0.001,0.003,0.001,0.005,0.002c-0.018-0.014-0.036-0.028-0.054-0.041
					c-0.001-0.003-0.003-0.007-0.004-0.01c0.01,0.048,0.066,0.075,0.111,0.063c0.05-0.014,0.073-0.063,0.063-0.111
					c-0.009-0.045-0.051-0.079-0.097-0.079c-0.056,0-0.1,0.049-0.1,0.103c0,0.049,0.032,0.084,0.076,0.1
					c0.052,0.019,0.111-0.026,0.121-0.076c0.01-0.048-0.013-0.097-0.063-0.111C297.335,295.82,297.279,295.847,297.27,295.895z"/>
			</g>
		</g>
	</g>
	<g>
		<g>
			<path d="M294.083,301.393c0.241-0.02,0.492-0.181,0.696-0.294c0.101-0.056,0.011-0.212-0.091-0.155
				c-0.157,0.087-0.316,0.172-0.485,0.234c-0.033,0.012-0.067,0.023-0.101,0.031c-0.015,0.004-0.054,0.008-0.019,0.005
				C293.968,301.223,293.967,301.403,294.083,301.393L294.083,301.393z"/>
		</g>
	</g>
</g>
<g>
	<ellipse fill="#FFFFFF" cx="297.648" cy="298.787" rx="0.013" ry="0.013"/>
	<g>
		<path d="M297.571,298.763c0.001-0.003,0.003-0.007,0.004-0.01c0.018-0.014,0.036-0.028,0.054-0.041
			c-0.002,0.001-0.003,0.001-0.005,0.002c0.016,0,0.032,0,0.048,0c-0.002-0.001-0.003-0.001-0.005-0.002
			c0.018,0.014,0.036,0.028,0.054,0.041c0.001,0.003,0.003,0.007,0.004,0.01c0,0.016,0,0.032,0,0.048
			c-0.001,0.003-0.003,0.007-0.004,0.01c-0.018,0.014-0.036,0.028-0.054,0.041c0.002-0.001,0.003-0.001,0.005-0.002
			c-0.016,0-0.032,0-0.048,0c0.002,0.001,0.003,0.001,0.005,0.002c-0.018-0.014-0.036-0.028-0.054-0.041
			c-0.001-0.003-0.003-0.007-0.004-0.01c0.01,0.048,0.066,0.075,0.111,0.063c0.05-0.014,0.073-0.063,0.063-0.111
			c-0.009-0.045-0.051-0.079-0.097-0.079c-0.056,0-0.1,0.049-0.1,0.103c0,0.049,0.032,0.084,0.076,0.1
			c0.052,0.019,0.111-0.026,0.121-0.076c0.01-0.048-0.013-0.097-0.063-0.111C297.637,298.688,297.581,298.715,297.571,298.763z"/>
	</g>
</g>
<g>
	<ellipse fill="#FFFFFF" cx="296.505" cy="298.814" rx="0.013" ry="0.013"/>
	<g>
		<path d="M296.428,298.79c0.001-0.003,0.003-0.007,0.004-0.01c0.018-0.014,0.036-0.028,0.054-0.041
			c-0.002,0.001-0.003,0.001-0.005,0.002c0.016,0,0.032,0,0.048,0c-0.002-0.001-0.003-0.001-0.005-0.002
			c0.018,0.014,0.036,0.028,0.054,0.041c0.001,0.003,0.003,0.007,0.004,0.01c0,0.016,0,0.032,0,0.048
			c-0.001,0.003-0.003,0.007-0.004,0.01c-0.018,0.014-0.036,0.028-0.054,0.041c0.002-0.001,0.003-0.001,0.005-0.002
			c-0.016,0-0.032,0-0.048,0c0.002,0.001,0.003,0.001,0.005,0.002c-0.018-0.014-0.036-0.028-0.054-0.041
			c-0.001-0.003-0.003-0.007-0.004-0.01c0.01,0.048,0.066,0.075,0.111,0.063c0.05-0.014,0.073-0.063,0.063-0.111
			c-0.009-0.045-0.051-0.079-0.097-0.079c-0.056,0-0.1,0.049-0.1,0.103c0,0.049,0.032,0.084,0.076,0.1
			c0.052,0.019,0.111-0.026,0.121-0.076c0.01-0.048-0.013-0.097-0.063-0.111C296.494,298.715,296.438,298.742,296.428,298.79z"/>
	</g>
</g>
<g>
	<g>
		<g>
			<path fill="#FFFFFF" d="M286.963,306.093c0,0,0.941-0.041,0.573-0.859c-0.183-0.406-0.427-1.044-0.164-1.678
				c0.264-0.633,0.77-1.114,1.635-0.91c0,0-0.572-1.105-0.472-1.826c0.062-0.444,0.63-0.914,1.29-0.755
				c0.399,0.096,0.913,0.346,1.542,1.07l-0.315,0.157l-0.063,1.227c0,0,1.123,0.498,1.385,1.322c0.22,0.692,0.231,1.168-0.661,2.266
				"/>
			<g>
				<path d="M286.963,306.184c0.513-0.027,0.865-0.378,0.69-0.899c-0.083-0.248-0.199-0.476-0.261-0.733
					c-0.097-0.401-0.032-0.792,0.154-1.155c0.29-0.563,0.825-0.792,1.436-0.664c0.079,0.017,0.138-0.06,0.102-0.132
					c-0.279-0.545-0.701-1.469-0.348-2.048c0.302-0.495,0.934-0.489,1.405-0.286c0.461,0.199,0.834,0.562,1.162,0.932
					c0.006-0.047,0.012-0.094,0.018-0.141c-0.105,0.052-0.21,0.105-0.315,0.157c-0.029,0.014-0.043,0.047-0.045,0.078
					c-0.021,0.409-0.042,0.818-0.063,1.227c-0.001,0.029,0.018,0.066,0.045,0.078c0.552,0.249,1.137,0.68,1.344,1.268
					c0.3,0.852-0.108,1.518-0.638,2.179c-0.072,0.09,0.055,0.218,0.127,0.127c0.41-0.511,0.85-1.095,0.808-1.785
					c-0.038-0.627-0.373-1.136-0.856-1.517c-0.188-0.148-0.392-0.275-0.605-0.384c-0.121-0.062-0.041-0.029-0.044,0.02
					c0.005-0.095,0.01-0.191,0.015-0.286c0.013-0.256,0.026-0.511,0.039-0.767c0.002-0.034,0.004-0.069,0.005-0.103
					c0.005-0.094,0.015-0.007-0.031,0.016c0.101-0.051,0.203-0.101,0.304-0.152c0.055-0.027,0.054-0.1,0.018-0.141
					c-0.637-0.719-1.772-1.612-2.692-0.798c-0.664,0.588-0.138,1.777,0.19,2.417c0.034-0.044,0.068-0.088,0.102-0.132
					c-0.423-0.089-0.871-0.061-1.217,0.225c-0.386,0.32-0.61,0.799-0.646,1.295c-0.019,0.266,0.047,0.54,0.127,0.791
					c0.078,0.247,0.242,0.48,0.235,0.746c-0.007,0.265-0.349,0.375-0.567,0.386C286.847,306.01,286.847,306.19,286.963,306.184
					L286.963,306.184z"/>
			</g>
		</g>
		<g>
			<path fill="#FFFFFF" d="M290.896,303.056c0,0,0.944,2.833,0.126,5.476l0.692,0.252l-3.557,0.252c0,0,0.661-4.186,0.535-5.445
				c0,0-0.656-0.003-0.625,0.784c0.032,0.787,1.26,2.044-0.9,2.537"/>
			<g>
				<path d="M290.809,303.08c0.564,1.706,0.642,3.711,0.126,5.429c-0.015,0.05,0.018,0.094,0.063,0.111
					c0.231,0.084,0.462,0.168,0.692,0.252c0.008-0.059,0.016-0.118,0.024-0.177c-1.186,0.084-2.371,0.168-3.557,0.252
					c0.029,0.038,0.058,0.076,0.087,0.114c0.117-0.745,0.22-1.492,0.314-2.241c0.132-1.05,0.322-2.168,0.225-3.228
					c-0.004-0.048-0.037-0.091-0.09-0.09c-0.754,0.008-0.779,0.855-0.595,1.39c0.114,0.331,0.267,0.662,0.255,1.019
					c-0.021,0.593-0.742,0.803-1.209,0.915c-0.113,0.027-0.065,0.2,0.048,0.173c0.447-0.107,0.939-0.262,1.209-0.662
					c0.18-0.266,0.146-0.61,0.07-0.904c-0.084-0.327-0.244-0.632-0.304-0.966c-0.064-0.359,0.12-0.781,0.526-0.785
					c-0.03-0.03-0.06-0.06-0.09-0.09c0.096,1.039-0.09,2.132-0.216,3.161c-0.093,0.755-0.197,1.509-0.316,2.26
					c-0.008,0.053,0.023,0.118,0.087,0.114c1.186-0.084,2.371-0.168,3.557-0.252c0.103-0.007,0.12-0.142,0.024-0.177
					c-0.231-0.084-0.462-0.168-0.692-0.252c0.021,0.037,0.042,0.074,0.063,0.111c0.525-1.748,0.448-3.789-0.126-5.524
					C290.946,302.923,290.772,302.97,290.809,303.08L290.809,303.08z"/>
			</g>
		</g>
		<g>
			<line fill="none" x1="289.951" y1="306.361" x2="289.7" y2="308.879"/>
			<g>
				<path d="M289.861,306.361c-0.084,0.839-0.168,1.679-0.252,2.518c-0.012,0.115,0.168,0.114,0.18,0
					c0.084-0.839,0.168-1.679,0.252-2.518C290.053,306.246,289.873,306.247,289.861,306.361L289.861,306.361z"/>
			</g>
		</g>
		<g>
			<line fill="none" x1="291.714" y1="305.417" x2="291.336" y2="305.889"/>
			<g>
				<path d="M291.65,305.353c-0.126,0.157-0.252,0.315-0.378,0.472c-0.072,0.09,0.055,0.218,0.127,0.127
					c0.126-0.157,0.252-0.315,0.378-0.472C291.849,305.391,291.723,305.263,291.65,305.353L291.65,305.353z"/>
			</g>
		</g>
		<g>
			<g>
				<path d="M291.07,303.952c0.115,0.073,0.216,0.167,0.306,0.269c0.243,0.276,0.168,0.561-0.117,0.772
					c-0.092,0.068-0.003,0.224,0.091,0.155c0.297-0.219,0.456-0.505,0.288-0.859c-0.096-0.202-0.291-0.374-0.477-0.492
					C291.063,303.735,290.973,303.89,291.07,303.952L291.07,303.952z"/>
			</g>
		</g>
		<g>
			<g>
				<path d="M289.298,301.286c0.233,0.646,1.025,0.825,1.629,0.79c0.115-0.007,0.116-0.187,0-0.18
					c-0.516,0.03-1.255-0.102-1.455-0.658C289.433,301.13,289.259,301.177,289.298,301.286L289.298,301.286z"/>
			</g>
		</g>
		<g>
			<ellipse fill="#FFFFFF" cx="290.306" cy="301.131" rx="0.013" ry="0.013"/>
			<g>
				<path d="M290.229,301.107c0.001-0.003,0.003-0.007,0.004-0.01c0.018-0.014,0.036-0.028,0.054-0.041
					c-0.002,0.001-0.003,0.001-0.005,0.002c0.016,0,0.032,0,0.048,0c-0.002-0.001-0.003-0.001-0.005-0.002
					c0.018,0.014,0.036,0.028,0.054,0.041c0.001,0.003,0.003,0.007,0.004,0.01c0,0.016,0,0.032,0,0.048
					c-0.001,0.003-0.003,0.007-0.004,0.01c-0.018,0.014-0.036,0.028-0.054,0.041c0.002-0.001,0.003-0.001,0.005-0.002
					c-0.016,0-0.032,0-0.048,0c0.002,0.001,0.003,0.001,0.005,0.002c-0.018-0.014-0.036-0.028-0.054-0.041
					c-0.001-0.003-0.003-0.007-0.004-0.01c0.01,0.048,0.066,0.075,0.111,0.063c0.05-0.014,0.073-0.063,0.063-0.111
					c-0.009-0.045-0.051-0.079-0.097-0.079c-0.056,0-0.1,0.049-0.1,0.103c0,0.049,0.032,0.084,0.076,0.1
					c0.052,0.019,0.111-0.026,0.121-0.076c0.01-0.048-0.013-0.097-0.063-0.111C290.295,301.032,290.239,301.059,290.229,301.107z"/>
			</g>
		</g>
	</g>
	<g>
		<g>
			<path d="M287.042,306.605c0.241-0.02,0.492-0.181,0.696-0.294c0.101-0.056,0.011-0.212-0.091-0.155
				c-0.157,0.087-0.316,0.172-0.485,0.234c-0.033,0.012-0.067,0.023-0.101,0.031c-0.015,0.004-0.054,0.008-0.019,0.005
				C286.927,306.434,286.927,306.615,287.042,306.605L287.042,306.605z"/>
		</g>
	</g>
</g>
<g>
	<ellipse fill="#FFFFFF" cx="290.607" cy="303.999" rx="0.013" ry="0.013"/>
	<g>
		<path d="M290.53,303.975c0.001-0.003,0.003-0.007,0.004-0.01c0.018-0.014,0.036-0.028,0.054-0.041
			c-0.002,0.001-0.003,0.001-0.005,0.002c0.016,0,0.032,0,0.048,0c-0.002-0.001-0.003-0.001-0.005-0.002
			c0.018,0.014,0.036,0.028,0.054,0.041c0.001,0.003,0.003,0.007,0.004,0.01c0,0.016,0,0.032,0,0.048
			c-0.001,0.003-0.003,0.007-0.004,0.01c-0.018,0.014-0.036,0.028-0.054,0.041c0.002-0.001,0.003-0.001,0.005-0.002
			c-0.016,0-0.032,0-0.048,0c0.002,0.001,0.003,0.001,0.005,0.002c-0.018-0.014-0.036-0.028-0.054-0.041
			c-0.001-0.003-0.003-0.007-0.004-0.01c0.01,0.048,0.066,0.075,0.111,0.063c0.05-0.014,0.073-0.063,0.063-0.111
			c-0.009-0.045-0.051-0.079-0.097-0.079c-0.056,0-0.1,0.049-0.1,0.103c0,0.049,0.032,0.084,0.076,0.1
			c0.052,0.019,0.111-0.026,0.121-0.076c0.01-0.048-0.013-0.097-0.063-0.111C290.596,303.9,290.54,303.927,290.53,303.975z"/>
	</g>
</g>
<g>
	<ellipse fill="#FFFFFF" cx="289.464" cy="304.025" rx="0.013" ry="0.013"/>
	<g>
		<path d="M289.388,304.002c0.001-0.003,0.003-0.007,0.004-0.01c0.018-0.014,0.036-0.028,0.054-0.041
			c-0.002,0.001-0.003,0.001-0.005,0.002c0.016,0,0.032,0,0.048,0c-0.002-0.001-0.003-0.001-0.005-0.002
			c0.018,0.014,0.036,0.028,0.054,0.041c0.001,0.003,0.003,0.007,0.004,0.01c0,0.016,0,0.032,0,0.048
			c-0.001,0.003-0.003,0.007-0.004,0.01c-0.018,0.014-0.036,0.028-0.054,0.041c0.002-0.001,0.003-0.001,0.005-0.002
			c-0.016,0-0.032,0-0.048,0c0.002,0.001,0.003,0.001,0.005,0.002c-0.018-0.014-0.036-0.028-0.054-0.041
			c-0.001-0.003-0.003-0.007-0.004-0.01c0.01,0.048,0.066,0.075,0.111,0.063c0.05-0.014,0.073-0.063,0.063-0.111
			c-0.009-0.045-0.051-0.079-0.097-0.079c-0.056,0-0.1,0.049-0.1,0.103c0,0.049,0.032,0.084,0.076,0.1
			c0.052,0.019,0.111-0.026,0.121-0.076c0.01-0.048-0.013-0.097-0.063-0.111C289.454,303.927,289.397,303.953,289.388,304.002z"/>
	</g>
</g>
<g>
	<g>
		<g>
			<path fill="#FFFFFF" d="M297.921,291.489c0,0,0.941-0.041,0.573-0.859c-0.183-0.406-0.427-1.044-0.164-1.678
				c0.264-0.633,0.77-1.114,1.635-0.91c0,0-0.572-1.105-0.472-1.826c0.062-0.444,0.63-0.914,1.29-0.755
				c0.399,0.096,0.913,0.346,1.542,1.07l-0.315,0.157l-0.063,1.227c0,0,1.123,0.498,1.385,1.322c0.22,0.692,0.231,1.168-0.661,2.266
				"/>
			<g>
				<path d="M297.921,291.579c0.513-0.027,0.865-0.378,0.69-0.899c-0.083-0.248-0.199-0.476-0.261-0.733
					c-0.097-0.401-0.032-0.792,0.154-1.155c0.29-0.563,0.825-0.792,1.436-0.664c0.079,0.017,0.139-0.06,0.102-0.132
					c-0.279-0.545-0.701-1.469-0.347-2.048c0.302-0.495,0.934-0.489,1.405-0.286c0.461,0.199,0.834,0.562,1.162,0.932
					c0.006-0.047,0.012-0.094,0.018-0.141c-0.105,0.052-0.21,0.105-0.315,0.157c-0.029,0.014-0.043,0.047-0.045,0.078
					c-0.021,0.409-0.042,0.818-0.063,1.227c-0.001,0.029,0.018,0.066,0.045,0.078c0.552,0.249,1.137,0.68,1.344,1.268
					c0.299,0.852-0.108,1.518-0.638,2.179c-0.072,0.09,0.055,0.218,0.127,0.127c0.41-0.511,0.85-1.095,0.808-1.785
					c-0.038-0.627-0.373-1.136-0.856-1.517c-0.188-0.148-0.392-0.275-0.604-0.384c-0.121-0.062-0.041-0.029-0.044,0.02
					c0.005-0.095,0.01-0.191,0.015-0.286c0.013-0.256,0.026-0.511,0.039-0.767c0.002-0.034,0.004-0.069,0.005-0.103
					c0.005-0.094,0.015-0.007-0.031,0.016c0.101-0.051,0.203-0.101,0.304-0.152c0.055-0.027,0.054-0.1,0.018-0.141
					c-0.637-0.719-1.772-1.612-2.692-0.798c-0.664,0.588-0.138,1.777,0.19,2.417c0.034-0.044,0.068-0.088,0.102-0.132
					c-0.423-0.089-0.871-0.061-1.217,0.225c-0.386,0.32-0.61,0.799-0.646,1.295c-0.019,0.266,0.047,0.54,0.127,0.791
					c0.078,0.247,0.242,0.48,0.235,0.746c-0.007,0.265-0.349,0.375-0.567,0.386C297.805,291.405,297.805,291.585,297.921,291.579
					L297.921,291.579z"/>
			</g>
		</g>
		<g>
			<path fill="#FFFFFF" d="M301.853,288.452c0,0,0.944,2.833,0.126,5.476l0.692,0.252l-3.557,0.252c0,0,0.661-4.186,0.535-5.445
				c0,0-0.656-0.003-0.625,0.784c0.031,0.787,1.26,2.044-0.9,2.537"/>
			<g>
				<path d="M301.767,288.475c0.564,1.706,0.642,3.711,0.126,5.429c-0.015,0.05,0.018,0.094,0.063,0.111
					c0.231,0.084,0.462,0.168,0.692,0.252c0.008-0.059,0.016-0.118,0.024-0.177c-1.186,0.084-2.371,0.168-3.557,0.252
					c0.029,0.038,0.058,0.076,0.087,0.114c0.117-0.745,0.22-1.492,0.314-2.241c0.132-1.05,0.322-2.168,0.225-3.228
					c-0.004-0.048-0.037-0.091-0.09-0.09c-0.754,0.008-0.779,0.855-0.595,1.39c0.114,0.331,0.267,0.662,0.255,1.019
					c-0.021,0.593-0.742,0.803-1.209,0.915c-0.113,0.027-0.065,0.2,0.048,0.173c0.447-0.107,0.939-0.262,1.209-0.662
					c0.18-0.266,0.146-0.61,0.07-0.904c-0.084-0.327-0.244-0.632-0.304-0.966c-0.064-0.359,0.12-0.781,0.526-0.785
					c-0.03-0.03-0.06-0.06-0.09-0.09c0.096,1.039-0.09,2.132-0.216,3.161c-0.093,0.755-0.197,1.509-0.316,2.26
					c-0.008,0.053,0.023,0.118,0.087,0.114c1.186-0.084,2.371-0.168,3.557-0.252c0.103-0.007,0.12-0.142,0.024-0.177
					c-0.231-0.084-0.462-0.168-0.692-0.252c0.021,0.037,0.042,0.074,0.063,0.111c0.525-1.748,0.448-3.789-0.126-5.524
					C301.904,288.318,301.73,288.365,301.767,288.475L301.767,288.475z"/>
			</g>
		</g>
		<g>
			<line fill="none" x1="300.909" y1="291.756" x2="300.657" y2="294.274"/>
			<g>
				<path d="M300.819,291.756c-0.084,0.839-0.168,1.679-0.252,2.518c-0.012,0.115,0.168,0.114,0.18,0
					c0.084-0.839,0.168-1.679,0.252-2.518C301.01,291.641,300.831,291.642,300.819,291.756L300.819,291.756z"/>
			</g>
		</g>
		<g>
			<line fill="none" x1="302.672" y1="290.812" x2="302.294" y2="291.284"/>
			<g>
				<path d="M302.608,290.749c-0.126,0.157-0.252,0.315-0.378,0.472c-0.072,0.09,0.055,0.218,0.127,0.127
					c0.126-0.157,0.252-0.315,0.378-0.472C302.807,290.786,302.68,290.658,302.608,290.749L302.608,290.749z"/>
			</g>
		</g>
		<g>
			<g>
				<path d="M302.028,289.348c0.115,0.073,0.216,0.167,0.306,0.269c0.243,0.276,0.168,0.561-0.117,0.772
					c-0.092,0.068-0.003,0.224,0.091,0.155c0.297-0.219,0.456-0.505,0.288-0.859c-0.096-0.202-0.291-0.374-0.477-0.492
					C302.021,289.13,301.931,289.286,302.028,289.348L302.028,289.348z"/>
			</g>
		</g>
		<g>
			<g>
				<path d="M300.256,286.681c0.233,0.646,1.025,0.825,1.629,0.79c0.115-0.007,0.116-0.187,0-0.18
					c-0.516,0.03-1.255-0.102-1.456-0.658C300.39,286.525,300.216,286.572,300.256,286.681L300.256,286.681z"/>
			</g>
		</g>
		<g>
			<ellipse fill="#FFFFFF" cx="301.263" cy="286.526" rx="0.013" ry="0.013"/>
			<g>
				<path d="M301.187,286.502c0.001-0.003,0.003-0.007,0.004-0.01c0.018-0.014,0.036-0.028,0.054-0.041
					c-0.002,0.001-0.003,0.001-0.005,0.002c0.016,0,0.032,0,0.048,0c-0.002-0.001-0.003-0.001-0.005-0.002
					c0.018,0.014,0.036,0.028,0.054,0.041c0.001,0.003,0.003,0.007,0.004,0.01c0,0.016,0,0.032,0,0.048
					c-0.001,0.003-0.003,0.007-0.004,0.01c-0.018,0.014-0.036,0.028-0.054,0.041c0.002-0.001,0.003-0.001,0.005-0.002
					c-0.016,0-0.032,0-0.048,0c0.002,0.001,0.003,0.001,0.005,0.002c-0.018-0.014-0.036-0.028-0.054-0.041
					c-0.001-0.003-0.003-0.007-0.004-0.01c0.01,0.048,0.066,0.075,0.111,0.063c0.05-0.014,0.073-0.063,0.063-0.111
					c-0.009-0.045-0.051-0.079-0.097-0.079c-0.056,0-0.1,0.049-0.1,0.103c0,0.049,0.032,0.084,0.076,0.1
					c0.052,0.019,0.111-0.026,0.121-0.076c0.01-0.048-0.013-0.097-0.063-0.111C301.253,286.427,301.197,286.454,301.187,286.502z"/>
			</g>
		</g>
	</g>
	<g>
		<g>
			<path d="M298,292c0.241-0.02,0.492-0.181,0.696-0.294c0.101-0.056,0.011-0.212-0.091-0.155c-0.157,0.087-0.317,0.172-0.485,0.234
				c-0.033,0.012-0.067,0.023-0.101,0.031c-0.015,0.004-0.054,0.008-0.019,0.005C297.885,291.83,297.884,292.01,298,292L298,292z"/>
		</g>
	</g>
</g>
<g>
	<ellipse fill="#FFFFFF" cx="301.59" cy="289.533" rx="0.013" ry="0.013"/>
	<g>
		<path d="M301.513,289.509c0.001-0.003,0.003-0.007,0.004-0.01c0.018-0.014,0.036-0.028,0.054-0.041
			c-0.002,0.001-0.003,0.001-0.005,0.002c0.016,0,0.032,0,0.048,0c-0.002-0.001-0.003-0.001-0.005-0.002
			c0.018,0.014,0.036,0.028,0.054,0.041c0.001,0.003,0.003,0.007,0.004,0.01c0,0.016,0,0.032,0,0.048
			c-0.001,0.003-0.003,0.007-0.004,0.01c-0.018,0.014-0.036,0.028-0.054,0.041c0.002-0.001,0.003-0.001,0.005-0.002
			c-0.016,0-0.032,0-0.048,0c0.002,0.001,0.003,0.001,0.005,0.002c-0.018-0.014-0.036-0.028-0.054-0.041
			c-0.001-0.003-0.003-0.007-0.004-0.01c0.01,0.048,0.066,0.075,0.111,0.063c0.05-0.014,0.073-0.063,0.063-0.111
			c-0.009-0.045-0.051-0.079-0.097-0.079c-0.056,0-0.1,0.049-0.1,0.103c0,0.049,0.032,0.084,0.076,0.1
			c0.052,0.019,0.111-0.026,0.121-0.076c0.01-0.048-0.013-0.097-0.063-0.111C301.579,289.434,301.523,289.461,301.513,289.509z"/>
	</g>
</g>
<g>
	<ellipse fill="#FFFFFF" cx="300.418" cy="289.578" rx="0.013" ry="0.013"/>
	<g>
		<path d="M300.341,289.554c0.001-0.003,0.003-0.007,0.004-0.01c0.018-0.014,0.036-0.028,0.054-0.041
			c-0.002,0.001-0.003,0.001-0.005,0.002c0.016,0,0.032,0,0.048,0c-0.002-0.001-0.003-0.001-0.005-0.002
			c0.018,0.014,0.036,0.028,0.054,0.041c0.001,0.003,0.003,0.007,0.004,0.01c0,0.016,0,0.032,0,0.048
			c-0.001,0.003-0.003,0.007-0.004,0.01c-0.018,0.014-0.036,0.028-0.054,0.041c0.002-0.001,0.003-0.001,0.005-0.002
			c-0.016,0-0.032,0-0.048,0c0.002,0.001,0.003,0.001,0.005,0.002c-0.018-0.014-0.036-0.028-0.054-0.041
			c-0.001-0.003-0.003-0.007-0.004-0.01c0.01,0.048,0.066,0.075,0.111,0.063c0.05-0.014,0.073-0.063,0.063-0.111
			c-0.009-0.045-0.051-0.079-0.097-0.079c-0.056,0-0.1,0.049-0.1,0.103c0,0.049,0.032,0.084,0.076,0.1
			c0.052,0.019,0.111-0.026,0.121-0.076c0.01-0.048-0.013-0.097-0.063-0.111C300.407,289.479,300.351,289.506,300.341,289.554z"/>
	</g>
</g>
<g>
	<g>
		<g>
			<path fill="#FFFFFF" d="M308.271,294.04c0,0,0.941-0.041,0.573-0.859c-0.183-0.406-0.427-1.044-0.164-1.678
				c0.264-0.633,0.77-1.114,1.635-0.91c0,0-0.572-1.105-0.472-1.826c0.062-0.444,0.63-0.914,1.29-0.755
				c0.399,0.096,0.913,0.346,1.542,1.07l-0.315,0.157l-0.063,1.227c0,0,1.123,0.498,1.385,1.322c0.22,0.692,0.231,1.168-0.661,2.266
				"/>
			<g>
				<path d="M308.271,294.13c0.513-0.027,0.865-0.378,0.69-0.899c-0.083-0.248-0.199-0.476-0.261-0.733
					c-0.097-0.401-0.032-0.792,0.154-1.155c0.29-0.563,0.825-0.792,1.436-0.664c0.079,0.017,0.139-0.06,0.102-0.132
					c-0.279-0.545-0.701-1.469-0.347-2.048c0.302-0.495,0.934-0.489,1.405-0.286c0.461,0.199,0.834,0.562,1.162,0.932
					c0.006-0.047,0.012-0.094,0.018-0.141c-0.105,0.052-0.21,0.105-0.315,0.157c-0.029,0.014-0.043,0.047-0.045,0.078
					c-0.021,0.409-0.042,0.818-0.063,1.227c-0.001,0.029,0.018,0.066,0.045,0.078c0.552,0.249,1.137,0.68,1.344,1.268
					c0.299,0.852-0.108,1.518-0.638,2.179c-0.072,0.09,0.055,0.218,0.127,0.127c0.41-0.511,0.85-1.095,0.808-1.785
					c-0.038-0.627-0.373-1.136-0.856-1.517c-0.188-0.148-0.392-0.275-0.604-0.384c-0.121-0.062-0.041-0.029-0.044,0.02
					c0.005-0.095,0.01-0.191,0.015-0.286c0.013-0.256,0.026-0.511,0.039-0.767c0.002-0.034,0.004-0.069,0.005-0.103
					c0.005-0.094,0.015-0.007-0.031,0.016c0.101-0.051,0.203-0.101,0.304-0.152c0.055-0.027,0.054-0.1,0.018-0.141
					c-0.637-0.719-1.772-1.612-2.692-0.798c-0.664,0.588-0.138,1.777,0.19,2.417c0.034-0.044,0.068-0.088,0.102-0.132
					c-0.423-0.089-0.871-0.061-1.217,0.225c-0.386,0.32-0.61,0.799-0.646,1.295c-0.019,0.266,0.047,0.54,0.127,0.791
					c0.078,0.247,0.242,0.48,0.235,0.746c-0.007,0.265-0.349,0.375-0.567,0.386C308.155,293.956,308.155,294.136,308.271,294.13
					L308.271,294.13z"/>
			</g>
		</g>
		<g>
			<path fill="#FFFFFF" d="M312.203,291.003c0,0,0.944,2.833,0.126,5.476l0.692,0.252l-3.557,0.252c0,0,0.661-4.186,0.535-5.445
				c0,0-0.656-0.003-0.625,0.784c0.032,0.787,1.26,2.044-0.9,2.537"/>
			<g>
				<path d="M312.116,291.027c0.564,1.706,0.642,3.711,0.126,5.429c-0.015,0.05,0.018,0.094,0.063,0.111
					c0.231,0.084,0.462,0.168,0.692,0.252c0.008-0.059,0.016-0.118,0.024-0.177c-1.186,0.084-2.371,0.168-3.557,0.252
					c0.029,0.038,0.058,0.076,0.087,0.114c0.117-0.745,0.22-1.492,0.314-2.241c0.132-1.05,0.322-2.168,0.225-3.228
					c-0.004-0.048-0.037-0.091-0.09-0.09c-0.754,0.008-0.779,0.855-0.595,1.39c0.114,0.331,0.267,0.662,0.255,1.019
					c-0.021,0.593-0.742,0.803-1.209,0.915c-0.113,0.027-0.065,0.2,0.048,0.173c0.447-0.107,0.939-0.262,1.209-0.662
					c0.18-0.266,0.146-0.61,0.07-0.904c-0.084-0.327-0.244-0.632-0.304-0.966c-0.064-0.359,0.12-0.781,0.526-0.785
					c-0.03-0.03-0.06-0.06-0.09-0.09c0.096,1.039-0.09,2.132-0.216,3.161c-0.093,0.755-0.197,1.509-0.316,2.26
					c-0.008,0.053,0.023,0.118,0.087,0.114c1.186-0.084,2.371-0.168,3.557-0.252c0.103-0.007,0.12-0.142,0.024-0.177
					c-0.231-0.084-0.462-0.168-0.692-0.252c0.021,0.037,0.042,0.074,0.063,0.111c0.525-1.748,0.448-3.789-0.126-5.524
					C312.254,290.87,312.08,290.917,312.116,291.027L312.116,291.027z"/>
			</g>
		</g>
		<g>
			<line fill="none" x1="311.259" y1="294.308" x2="311.007" y2="296.826"/>
			<g>
				<path d="M311.169,294.308c-0.084,0.839-0.168,1.679-0.252,2.518c-0.012,0.115,0.168,0.114,0.18,0
					c0.084-0.839,0.168-1.679,0.252-2.518C311.36,294.192,311.18,294.194,311.169,294.308L311.169,294.308z"/>
			</g>
		</g>
		<g>
			<line fill="none" x1="313.022" y1="293.364" x2="312.644" y2="293.836"/>
			<g>
				<path d="M312.958,293.3c-0.126,0.157-0.252,0.315-0.378,0.472c-0.072,0.09,0.055,0.218,0.127,0.127
					c0.126-0.157,0.252-0.315,0.378-0.472C313.157,293.338,313.03,293.209,312.958,293.3L312.958,293.3z"/>
			</g>
		</g>
		<g>
			<g>
				<path d="M312.378,291.899c0.115,0.073,0.216,0.167,0.306,0.269c0.243,0.276,0.168,0.561-0.117,0.772
					c-0.092,0.068-0.003,0.224,0.091,0.155c0.297-0.219,0.456-0.505,0.288-0.859c-0.096-0.202-0.291-0.374-0.477-0.492
					C312.371,291.681,312.281,291.837,312.378,291.899L312.378,291.899z"/>
			</g>
		</g>
		<g>
			<g>
				<path d="M310.606,289.233c0.233,0.646,1.025,0.825,1.629,0.79c0.115-0.007,0.116-0.187,0-0.18
					c-0.516,0.03-1.255-0.102-1.455-0.658C310.74,289.077,310.566,289.124,310.606,289.233L310.606,289.233z"/>
			</g>
		</g>
		<g>
			<ellipse fill="#FFFFFF" cx="311.613" cy="289.077" rx="0.013" ry="0.013"/>
			<g>
				<path d="M311.537,289.053c0.001-0.003,0.003-0.007,0.004-0.01c0.018-0.014,0.036-0.028,0.054-0.041
					c-0.002,0.001-0.003,0.001-0.005,0.002c0.016,0,0.032,0,0.048,0c-0.002-0.001-0.003-0.001-0.005-0.002
					c0.018,0.014,0.036,0.028,0.054,0.041c0.001,0.003,0.003,0.007,0.004,0.01c0,0.016,0,0.032,0,0.048
					c-0.001,0.003-0.003,0.007-0.004,0.01c-0.018,0.014-0.036,0.028-0.054,0.041c0.002-0.001,0.003-0.001,0.005-0.002
					c-0.016,0-0.032,0-0.048,0c0.002,0.001,0.003,0.001,0.005,0.002c-0.018-0.014-0.036-0.028-0.054-0.041
					c-0.001-0.003-0.003-0.007-0.004-0.01c0.01,0.048,0.066,0.075,0.111,0.063c0.05-0.014,0.073-0.063,0.063-0.111
					c-0.009-0.045-0.051-0.079-0.097-0.079c-0.056,0-0.1,0.049-0.1,0.103c0,0.049,0.032,0.084,0.076,0.1
					c0.052,0.019,0.111-0.026,0.121-0.076c0.01-0.048-0.013-0.097-0.063-0.111C311.603,288.978,311.546,289.005,311.537,289.053z"/>
			</g>
		</g>
	</g>
	<g>
		<g>
			<path d="M308.35,294.552c0.241-0.02,0.492-0.181,0.696-0.294c0.101-0.056,0.011-0.212-0.091-0.155
				c-0.157,0.087-0.316,0.172-0.485,0.234c-0.033,0.012-0.067,0.023-0.101,0.031c-0.015,0.004-0.054,0.008-0.019,0.005
				C308.235,294.381,308.234,294.561,308.35,294.552L308.35,294.552z"/>
		</g>
	</g>
</g>
<g>
	<ellipse fill="#FFFFFF" cx="311.94" cy="292.085" rx="0.013" ry="0.013"/>
	<g>
		<path d="M311.863,292.061c0.001-0.003,0.003-0.007,0.004-0.01c0.018-0.014,0.036-0.028,0.054-0.041
			c-0.002,0.001-0.003,0.001-0.005,0.002c0.016,0,0.032,0,0.048,0c-0.002-0.001-0.003-0.001-0.005-0.002
			c0.018,0.014,0.036,0.028,0.054,0.041c0.001,0.003,0.003,0.007,0.004,0.01c0,0.016,0,0.032,0,0.048
			c-0.001,0.003-0.003,0.007-0.004,0.01c-0.018,0.014-0.036,0.028-0.054,0.041c0.002-0.001,0.003-0.001,0.005-0.002
			c-0.016,0-0.032,0-0.048,0c0.002,0.001,0.003,0.001,0.005,0.002c-0.018-0.014-0.036-0.028-0.054-0.041
			c-0.001-0.003-0.003-0.007-0.004-0.01c0.01,0.048,0.066,0.075,0.111,0.063c0.05-0.014,0.073-0.063,0.063-0.111
			c-0.009-0.045-0.051-0.079-0.097-0.079c-0.056,0-0.1,0.049-0.1,0.103c0,0.049,0.032,0.084,0.076,0.1
			c0.052,0.019,0.11-0.026,0.121-0.076c0.01-0.048-0.013-0.097-0.063-0.111C311.929,291.986,311.873,292.013,311.863,292.061z"/>
	</g>
</g>
<g>
	<ellipse fill="#FFFFFF" cx="310.768" cy="292.13" rx="0.013" ry="0.013"/>
	<g>
		<path d="M310.691,292.106c0.001-0.003,0.003-0.007,0.004-0.01c0.018-0.014,0.036-0.028,0.054-0.041
			c-0.002,0.001-0.003,0.001-0.005,0.002c0.016,0,0.032,0,0.048,0c-0.002-0.001-0.003-0.001-0.005-0.002
			c0.018,0.014,0.036,0.028,0.054,0.041c0.001,0.003,0.003,0.007,0.004,0.01c0,0.016,0,0.032,0,0.048
			c-0.001,0.003-0.003,0.007-0.004,0.01c-0.018,0.014-0.036,0.028-0.054,0.041c0.002-0.001,0.003-0.001,0.005-0.002
			c-0.016,0-0.032,0-0.048,0c0.002,0.001,0.003,0.001,0.005,0.002c-0.018-0.014-0.036-0.028-0.054-0.041
			c-0.001-0.003-0.003-0.007-0.004-0.01c0.01,0.048,0.066,0.075,0.111,0.063c0.05-0.014,0.073-0.063,0.063-0.111
			c-0.009-0.045-0.051-0.079-0.097-0.079c-0.056,0-0.1,0.049-0.1,0.103c0,0.049,0.032,0.084,0.076,0.1
			c0.052,0.019,0.111-0.026,0.121-0.076c0.01-0.048-0.013-0.097-0.063-0.111C310.757,292.031,310.701,292.058,310.691,292.106z"/>
	</g>
</g>
<g>
	<g>
		<g>
			<path fill="#FFFFFF" d="M297.443,310.776c0,0,0.941-0.041,0.573-0.859c-0.183-0.406-0.427-1.044-0.164-1.678
				c0.264-0.633,0.77-1.114,1.635-0.91c0,0-0.572-1.105-0.472-1.826c0.062-0.444,0.63-0.914,1.29-0.755
				c0.399,0.096,0.913,0.346,1.542,1.07l-0.315,0.157l-0.063,1.227c0,0,1.123,0.498,1.385,1.322c0.22,0.692,0.231,1.168-0.661,2.266
				"/>
			<g>
				<path d="M297.443,310.866c0.513-0.027,0.865-0.378,0.69-0.899c-0.083-0.248-0.199-0.476-0.261-0.733
					c-0.097-0.401-0.032-0.792,0.154-1.155c0.29-0.563,0.825-0.792,1.436-0.664c0.079,0.017,0.139-0.06,0.102-0.132
					c-0.279-0.545-0.701-1.469-0.347-2.048c0.302-0.495,0.934-0.489,1.405-0.286c0.461,0.199,0.834,0.562,1.162,0.932
					c0.006-0.047,0.012-0.094,0.018-0.141c-0.105,0.052-0.21,0.105-0.315,0.157c-0.029,0.014-0.043,0.047-0.045,0.078
					c-0.021,0.409-0.042,0.818-0.063,1.227c-0.001,0.029,0.018,0.066,0.045,0.078c0.552,0.249,1.137,0.68,1.344,1.268
					c0.299,0.852-0.108,1.518-0.638,2.179c-0.072,0.09,0.055,0.218,0.127,0.127c0.41-0.511,0.85-1.095,0.808-1.785
					c-0.038-0.627-0.373-1.136-0.856-1.517c-0.188-0.148-0.392-0.275-0.604-0.384c-0.121-0.062-0.041-0.029-0.044,0.02
					c0.005-0.095,0.01-0.191,0.015-0.286c0.013-0.256,0.026-0.511,0.039-0.767c0.002-0.034,0.004-0.069,0.005-0.103
					c0.005-0.094,0.015-0.007-0.031,0.016c0.101-0.051,0.203-0.101,0.304-0.152c0.055-0.027,0.054-0.1,0.018-0.141
					c-0.637-0.719-1.772-1.612-2.692-0.798c-0.664,0.588-0.138,1.777,0.19,2.417c0.034-0.044,0.068-0.088,0.102-0.132
					c-0.423-0.089-0.871-0.061-1.217,0.225c-0.386,0.32-0.61,0.799-0.646,1.295c-0.019,0.266,0.047,0.54,0.127,0.791
					c0.078,0.247,0.242,0.48,0.235,0.746c-0.007,0.265-0.349,0.375-0.567,0.386C297.328,310.692,297.327,310.872,297.443,310.866
					L297.443,310.866z"/>
			</g>
		</g>
		<g>
			<path fill="#FFFFFF" d="M301.376,307.739c0,0,0.944,2.833,0.126,5.476l0.692,0.252l-3.557,0.252c0,0,0.661-4.186,0.535-5.445
				c0,0-0.656-0.003-0.625,0.784c0.032,0.787,1.26,2.044-0.9,2.537"/>
			<g>
				<path d="M301.289,307.762c0.564,1.706,0.642,3.711,0.126,5.429c-0.015,0.05,0.018,0.094,0.063,0.111
					c0.231,0.084,0.462,0.168,0.692,0.252c0.008-0.059,0.016-0.118,0.024-0.177c-1.186,0.084-2.371,0.168-3.557,0.252
					c0.029,0.038,0.058,0.076,0.087,0.114c0.117-0.745,0.22-1.492,0.314-2.241c0.131-1.05,0.322-2.168,0.225-3.228
					c-0.004-0.048-0.037-0.091-0.09-0.09c-0.754,0.008-0.779,0.855-0.595,1.39c0.114,0.331,0.267,0.662,0.255,1.019
					c-0.021,0.593-0.742,0.803-1.209,0.915c-0.113,0.027-0.065,0.2,0.048,0.173c0.447-0.107,0.939-0.262,1.209-0.662
					c0.18-0.266,0.146-0.61,0.07-0.904c-0.084-0.327-0.244-0.632-0.304-0.966c-0.064-0.359,0.12-0.781,0.526-0.785
					c-0.03-0.03-0.06-0.06-0.09-0.09c0.096,1.039-0.09,2.132-0.216,3.161c-0.093,0.755-0.197,1.509-0.316,2.26
					c-0.008,0.053,0.023,0.118,0.087,0.114c1.186-0.084,2.371-0.168,3.557-0.252c0.103-0.007,0.12-0.142,0.024-0.177
					c-0.231-0.084-0.462-0.168-0.692-0.252c0.021,0.037,0.042,0.074,0.063,0.111c0.525-1.748,0.448-3.789-0.126-5.524
					C301.426,307.605,301.253,307.652,301.289,307.762L301.289,307.762z"/>
			</g>
		</g>
		<g>
			<line fill="none" x1="300.432" y1="311.043" x2="300.18" y2="313.561"/>
			<g>
				<path d="M300.342,311.043c-0.084,0.839-0.168,1.679-0.252,2.518c-0.012,0.115,0.168,0.114,0.18,0
					c0.084-0.839,0.168-1.679,0.252-2.518C300.533,310.928,300.353,310.929,300.342,311.043L300.342,311.043z"/>
			</g>
		</g>
		<g>
			<line fill="none" x1="302.194" y1="310.099" x2="301.816" y2="310.571"/>
			<g>
				<path d="M302.13,310.035c-0.126,0.157-0.252,0.315-0.378,0.472c-0.072,0.09,0.055,0.218,0.127,0.127
					c0.126-0.157,0.252-0.315,0.378-0.472C302.329,310.073,302.203,309.945,302.13,310.035L302.13,310.035z"/>
			</g>
		</g>
		<g>
			<g>
				<path d="M301.551,308.635c0.115,0.073,0.216,0.167,0.306,0.269c0.243,0.276,0.168,0.561-0.117,0.772
					c-0.092,0.068-0.003,0.224,0.091,0.155c0.297-0.219,0.456-0.505,0.288-0.859c-0.096-0.202-0.291-0.374-0.477-0.492
					C301.543,308.417,301.453,308.573,301.551,308.635L301.551,308.635z"/>
			</g>
		</g>
		<g>
			<g>
				<path d="M299.778,305.968c0.233,0.646,1.025,0.825,1.629,0.79c0.115-0.007,0.116-0.187,0-0.18
					c-0.516,0.03-1.255-0.102-1.455-0.658C299.913,305.812,299.739,305.859,299.778,305.968L299.778,305.968z"/>
			</g>
		</g>
		<g>
			<ellipse fill="#FFFFFF" cx="300.786" cy="305.813" rx="0.013" ry="0.013"/>
			<g>
				<path d="M300.709,305.789c0.001-0.003,0.003-0.007,0.004-0.01c0.018-0.014,0.036-0.028,0.054-0.041
					c-0.002,0.001-0.003,0.001-0.005,0.002c0.016,0,0.032,0,0.048,0c-0.002-0.001-0.003-0.001-0.005-0.002
					c0.018,0.014,0.036,0.028,0.054,0.041c0.001,0.003,0.003,0.007,0.004,0.01c0,0.016,0,0.032,0,0.048
					c-0.001,0.003-0.003,0.007-0.004,0.01c-0.018,0.014-0.036,0.028-0.054,0.041c0.002-0.001,0.003-0.001,0.005-0.002
					c-0.016,0-0.032,0-0.048,0c0.002,0.001,0.003,0.001,0.005,0.002c-0.018-0.014-0.036-0.028-0.054-0.041
					c-0.001-0.003-0.003-0.007-0.004-0.01c0.01,0.048,0.066,0.075,0.111,0.063c0.05-0.014,0.073-0.063,0.063-0.111
					c-0.009-0.045-0.051-0.079-0.097-0.079c-0.056,0-0.1,0.049-0.1,0.103c0,0.049,0.032,0.084,0.076,0.1
					c0.052,0.019,0.111-0.026,0.121-0.076c0.01-0.048-0.013-0.097-0.063-0.111C300.775,305.714,300.719,305.741,300.709,305.789z"/>
			</g>
		</g>
	</g>
	<g>
		<g>
			<path d="M297.522,311.287c0.241-0.02,0.492-0.181,0.696-0.294c0.101-0.056,0.011-0.212-0.091-0.155
				c-0.157,0.087-0.316,0.172-0.485,0.233c-0.033,0.012-0.067,0.023-0.101,0.031c-0.015,0.004-0.054,0.008-0.019,0.005
				C297.408,311.117,297.407,311.297,297.522,311.287L297.522,311.287z"/>
		</g>
	</g>
</g>
<g>
	<ellipse fill="#FFFFFF" cx="301.112" cy="308.82" rx="0.013" ry="0.013"/>
	<g>
		<path d="M301.036,308.796c0.001-0.003,0.003-0.007,0.004-0.01c0.018-0.014,0.036-0.028,0.054-0.041
			c-0.002,0.001-0.003,0.001-0.005,0.002c0.016,0,0.032,0,0.048,0c-0.002-0.001-0.003-0.001-0.005-0.002
			c0.018,0.014,0.036,0.028,0.054,0.041c0.001,0.003,0.003,0.007,0.004,0.01c0,0.016,0,0.032,0,0.048
			c-0.001,0.003-0.003,0.007-0.004,0.01c-0.018,0.014-0.036,0.028-0.054,0.041c0.002-0.001,0.003-0.001,0.005-0.002
			c-0.016,0-0.032,0-0.048,0c0.002,0.001,0.003,0.001,0.005,0.002c-0.018-0.014-0.036-0.028-0.054-0.041
			c-0.001-0.003-0.003-0.007-0.004-0.01c0.01,0.048,0.066,0.075,0.111,0.063c0.05-0.014,0.073-0.063,0.063-0.111
			c-0.009-0.045-0.051-0.079-0.097-0.079c-0.056,0-0.1,0.049-0.1,0.103c0,0.049,0.032,0.084,0.076,0.1
			c0.052,0.019,0.111-0.026,0.121-0.076c0.01-0.048-0.013-0.097-0.063-0.111C301.102,308.721,301.045,308.748,301.036,308.796z"/>
	</g>
</g>
<g>
	<ellipse fill="#FFFFFF" cx="299.94" cy="308.865" rx="0.013" ry="0.013"/>
	<g>
		<path d="M299.864,308.841c0.001-0.003,0.003-0.007,0.004-0.01c0.018-0.014,0.036-0.028,0.054-0.041
			c-0.002,0.001-0.003,0.001-0.005,0.002c0.016,0,0.032,0,0.048,0c-0.002-0.001-0.003-0.001-0.005-0.002
			c0.018,0.014,0.036,0.028,0.054,0.041c0.001,0.003,0.003,0.007,0.004,0.01c0,0.016,0,0.032,0,0.048
			c-0.001,0.003-0.003,0.007-0.004,0.01c-0.018,0.014-0.036,0.028-0.054,0.041c0.002-0.001,0.003-0.001,0.005-0.002
			c-0.016,0-0.032,0-0.048,0c0.002,0.001,0.003,0.001,0.005,0.002c-0.018-0.014-0.036-0.028-0.054-0.041
			c-0.001-0.003-0.003-0.007-0.004-0.01c0.01,0.048,0.066,0.075,0.111,0.063c0.05-0.014,0.073-0.063,0.063-0.111
			c-0.009-0.045-0.051-0.079-0.097-0.079c-0.056,0-0.1,0.049-0.1,0.103c0,0.049,0.032,0.084,0.076,0.1
			c0.052,0.019,0.111-0.026,0.121-0.076c0.01-0.048-0.013-0.097-0.063-0.111C299.929,308.766,299.873,308.793,299.864,308.841z"/>
	</g>
</g>
<g>
	<g>
		<g>
			<path fill="#FFFFFF" d="M307.634,308.494c0,0,0.941-0.041,0.573-0.859c-0.183-0.406-0.427-1.044-0.164-1.678
				c0.264-0.633,0.77-1.114,1.635-0.91c0,0-0.572-1.105-0.472-1.826c0.062-0.444,0.63-0.914,1.29-0.755
				c0.399,0.096,0.913,0.346,1.542,1.07l-0.315,0.157l-0.063,1.227c0,0,1.123,0.498,1.385,1.322c0.22,0.692,0.231,1.168-0.661,2.266
				"/>
			<g>
				<path d="M307.634,308.584c0.513-0.027,0.865-0.378,0.69-0.899c-0.083-0.248-0.199-0.476-0.261-0.733
					c-0.097-0.401-0.032-0.792,0.154-1.155c0.29-0.563,0.825-0.792,1.436-0.664c0.079,0.017,0.139-0.06,0.102-0.132
					c-0.279-0.545-0.701-1.469-0.347-2.048c0.302-0.495,0.934-0.489,1.405-0.286c0.461,0.199,0.834,0.562,1.162,0.932
					c0.006-0.047,0.012-0.094,0.018-0.141c-0.105,0.052-0.21,0.105-0.315,0.157c-0.029,0.014-0.043,0.047-0.045,0.078
					c-0.021,0.409-0.042,0.818-0.063,1.227c-0.001,0.029,0.018,0.066,0.045,0.078c0.552,0.249,1.137,0.68,1.344,1.268
					c0.299,0.852-0.108,1.518-0.638,2.179c-0.072,0.09,0.055,0.218,0.127,0.127c0.41-0.511,0.85-1.095,0.808-1.785
					c-0.038-0.627-0.373-1.136-0.856-1.517c-0.188-0.148-0.392-0.275-0.604-0.384c-0.121-0.062-0.041-0.029-0.044,0.02
					c0.005-0.095,0.01-0.191,0.015-0.286c0.013-0.256,0.026-0.511,0.039-0.767c0.002-0.034,0.004-0.069,0.005-0.103
					c0.005-0.094,0.015-0.007-0.031,0.016c0.101-0.051,0.203-0.101,0.304-0.152c0.055-0.027,0.054-0.101,0.018-0.141
					c-0.637-0.719-1.772-1.612-2.692-0.798c-0.664,0.588-0.138,1.777,0.19,2.417c0.034-0.044,0.068-0.088,0.102-0.132
					c-0.423-0.089-0.871-0.061-1.217,0.225c-0.386,0.32-0.61,0.799-0.646,1.295c-0.019,0.266,0.047,0.54,0.127,0.791
					c0.078,0.247,0.242,0.48,0.235,0.746c-0.007,0.265-0.349,0.375-0.567,0.386C307.519,308.41,307.518,308.59,307.634,308.584
					L307.634,308.584z"/>
			</g>
		</g>
		<g>
			<path fill="#FFFFFF" d="M311.567,305.457c0,0,0.944,2.833,0.126,5.476l0.692,0.252l-3.557,0.252c0,0,0.661-4.186,0.535-5.445
				c0,0-0.656-0.003-0.625,0.784c0.031,0.787,1.26,2.044-0.9,2.537"/>
			<g>
				<path d="M311.48,305.481c0.564,1.706,0.642,3.71,0.126,5.429c-0.015,0.05,0.018,0.094,0.063,0.111
					c0.231,0.084,0.462,0.168,0.692,0.252c0.008-0.059,0.016-0.118,0.024-0.177c-1.186,0.084-2.371,0.168-3.557,0.252
					c0.029,0.038,0.058,0.076,0.087,0.114c0.117-0.745,0.22-1.492,0.314-2.241c0.132-1.05,0.322-2.168,0.225-3.228
					c-0.004-0.048-0.037-0.091-0.09-0.09c-0.754,0.008-0.779,0.855-0.595,1.39c0.114,0.331,0.267,0.662,0.255,1.019
					c-0.021,0.593-0.742,0.803-1.209,0.915c-0.113,0.027-0.065,0.2,0.048,0.173c0.447-0.107,0.939-0.262,1.209-0.662
					c0.18-0.266,0.146-0.61,0.07-0.904c-0.084-0.327-0.244-0.632-0.304-0.966c-0.064-0.359,0.12-0.781,0.526-0.785
					c-0.03-0.03-0.06-0.06-0.09-0.09c0.096,1.039-0.09,2.132-0.216,3.161c-0.093,0.755-0.197,1.509-0.316,2.26
					c-0.008,0.053,0.023,0.118,0.087,0.114c1.186-0.084,2.371-0.168,3.557-0.252c0.103-0.007,0.12-0.142,0.024-0.177
					c-0.231-0.084-0.462-0.168-0.692-0.252c0.021,0.037,0.042,0.074,0.063,0.111c0.525-1.748,0.448-3.789-0.126-5.524
					C311.617,305.324,311.444,305.37,311.48,305.481L311.48,305.481z"/>
			</g>
		</g>
		<g>
			<line fill="none" x1="310.623" y1="308.762" x2="310.371" y2="311.28"/>
			<g>
				<path d="M310.533,308.762c-0.084,0.839-0.168,1.679-0.252,2.518c-0.012,0.115,0.168,0.114,0.18,0
					c0.084-0.839,0.168-1.679,0.252-2.518C310.724,308.646,310.544,308.647,310.533,308.762L310.533,308.762z"/>
			</g>
		</g>
		<g>
			<line fill="none" x1="312.385" y1="307.818" x2="312.007" y2="308.29"/>
			<g>
				<path d="M312.322,307.754c-0.126,0.157-0.252,0.315-0.378,0.472c-0.072,0.09,0.055,0.218,0.127,0.127
					c0.126-0.157,0.252-0.315,0.378-0.472C312.52,307.791,312.394,307.663,312.322,307.754L312.322,307.754z"/>
			</g>
		</g>
		<g>
			<g>
				<path d="M311.742,306.353c0.115,0.073,0.216,0.167,0.306,0.269c0.243,0.276,0.168,0.561-0.117,0.772
					c-0.092,0.068-0.003,0.224,0.091,0.155c0.297-0.219,0.456-0.505,0.288-0.859c-0.096-0.202-0.291-0.374-0.477-0.492
					C311.734,306.135,311.644,306.291,311.742,306.353L311.742,306.353z"/>
			</g>
		</g>
		<g>
			<g>
				<path d="M309.969,303.687c0.233,0.646,1.025,0.825,1.629,0.79c0.115-0.007,0.116-0.187,0-0.18
					c-0.516,0.03-1.255-0.102-1.456-0.658C310.104,303.531,309.93,303.578,309.969,303.687L309.969,303.687z"/>
			</g>
		</g>
		<g>
			<ellipse fill="#FFFFFF" cx="310.977" cy="303.531" rx="0.013" ry="0.013"/>
			<g>
				<path d="M310.9,303.507c0.001-0.003,0.003-0.007,0.004-0.01c0.018-0.014,0.036-0.028,0.054-0.041
					c-0.002,0.001-0.003,0.001-0.005,0.002c0.016,0,0.032,0,0.048,0c-0.002-0.001-0.003-0.001-0.005-0.002
					c0.018,0.014,0.036,0.028,0.054,0.041c0.001,0.003,0.003,0.007,0.004,0.01c0,0.016,0,0.032,0,0.048
					c-0.001,0.003-0.003,0.007-0.004,0.01c-0.018,0.014-0.036,0.028-0.054,0.041c0.002-0.001,0.003-0.001,0.005-0.002
					c-0.016,0-0.032,0-0.048,0c0.002,0.001,0.003,0.001,0.005,0.002c-0.018-0.014-0.036-0.028-0.054-0.041
					c-0.001-0.003-0.003-0.007-0.004-0.01c0.01,0.048,0.066,0.075,0.111,0.063c0.05-0.014,0.073-0.063,0.063-0.111
					c-0.009-0.045-0.051-0.079-0.097-0.079c-0.056,0-0.1,0.049-0.1,0.103c0,0.049,0.032,0.084,0.076,0.1
					c0.052,0.019,0.111-0.026,0.121-0.076c0.01-0.048-0.013-0.097-0.063-0.111C310.966,303.432,310.91,303.459,310.9,303.507z"/>
			</g>
		</g>
	</g>
	<g>
		<g>
			<path d="M307.714,309.005c0.241-0.02,0.492-0.181,0.696-0.294c0.101-0.056,0.011-0.212-0.091-0.155
				c-0.157,0.087-0.316,0.172-0.485,0.234c-0.033,0.012-0.067,0.023-0.101,0.031c-0.015,0.004-0.054,0.008-0.019,0.005
				C307.599,308.835,307.598,309.015,307.714,309.005L307.714,309.005z"/>
		</g>
	</g>
</g>
<g>
	<ellipse fill="#FFFFFF" cx="312.419" cy="306.445" rx="0.013" ry="0.013"/>
	<g>
		<path d="M312.342,306.421c0.001-0.003,0.003-0.007,0.004-0.01c0.018-0.014,0.036-0.028,0.054-0.041
			c-0.002,0.001-0.003,0.001-0.005,0.002c0.016,0,0.032,0,0.048,0c-0.002-0.001-0.003-0.001-0.005-0.002
			c0.018,0.014,0.036,0.028,0.054,0.041c0.001,0.003,0.003,0.007,0.004,0.01c0,0.016,0,0.032,0,0.048
			c-0.001,0.003-0.003,0.007-0.004,0.01c-0.018,0.014-0.036,0.028-0.054,0.041c0.002-0.001,0.003-0.001,0.005-0.002
			c-0.016,0-0.032,0-0.048,0c0.002,0.001,0.003,0.001,0.005,0.002c-0.018-0.014-0.036-0.028-0.054-0.041
			c-0.001-0.003-0.003-0.007-0.004-0.01c0.01,0.048,0.066,0.075,0.111,0.063c0.05-0.014,0.073-0.063,0.063-0.111
			c-0.009-0.045-0.051-0.079-0.097-0.079c-0.056,0-0.1,0.049-0.1,0.103c0,0.049,0.032,0.084,0.076,0.1
			c0.052,0.019,0.111-0.026,0.121-0.076c0.01-0.048-0.013-0.097-0.063-0.111C312.408,306.346,312.352,306.373,312.342,306.421z"/>
	</g>
</g>
<g>
	<ellipse fill="#FFFFFF" cx="311.247" cy="306.49" rx="0.013" ry="0.013"/>
	<g>
		<path d="M311.17,306.466c0.001-0.003,0.003-0.007,0.004-0.01c0.018-0.014,0.036-0.028,0.054-0.041
			c-0.002,0.001-0.003,0.001-0.005,0.002c0.016,0,0.032,0,0.048,0c-0.002-0.001-0.003-0.001-0.005-0.002
			c0.018,0.014,0.036,0.028,0.054,0.041c0.001,0.003,0.003,0.007,0.004,0.01c0,0.016,0,0.032,0,0.048
			c-0.001,0.003-0.003,0.007-0.004,0.01c-0.018,0.014-0.036,0.028-0.054,0.041c0.002-0.001,0.003-0.001,0.005-0.002
			c-0.016,0-0.032,0-0.048,0c0.002,0.001,0.003,0.001,0.005,0.002c-0.018-0.014-0.036-0.028-0.054-0.041
			c-0.001-0.003-0.003-0.007-0.004-0.01c0.01,0.048,0.066,0.075,0.111,0.063c0.05-0.014,0.073-0.063,0.063-0.111
			c-0.009-0.045-0.051-0.079-0.097-0.079c-0.056,0-0.1,0.049-0.1,0.103c0,0.049,0.032,0.084,0.076,0.1
			c0.052,0.019,0.111-0.026,0.121-0.076c0.01-0.048-0.013-0.097-0.063-0.111C311.236,306.391,311.18,306.418,311.17,306.466z"/>
	</g>
</g>
</svg>
