<?xml version="1.0" encoding="utf-8"?>
<!-- Generator: Adobe Illustrator 17.0.2, SVG Export Plug-In . SVG Version: 6.00 Build 0)  -->
<!DOCTYPE svg PUBLIC "-//W3C//DTD SVG 1.1//EN" "http://www.w3.org/Graphics/SVG/1.1/DTD/svg11.dtd">
<svg version="1.1" id="Lager_1" xmlns="http://www.w3.org/2000/svg" xmlns:xlink="http://www.w3.org/1999/xlink" x="0px" y="0px"
	 width="600px" height="600px" viewBox="-184.376 -150 600 600" enable-background="new -184.376 -150 600 600"
	 xml:space="preserve">
<g>
	<g>
		<path d="M32.724-45.968C47.008-5.587,97.105,6.115,134.769,3.65c7.809-0.51,7.86-12.716,0-12.202
			c-25.631,1.678-52.772-1.682-73.205-18.575c-5.255-4.344-9.798-9.509-13.452-15.256c-1.454-2.288-3.575-6.693-3.622-6.829
			C41.885-56.575,30.092-53.406,32.724-45.968L32.724-45.968z"/>
	</g>
</g>
<g>
	<g>
		<path d="M-14.911,210.985c-7.099,75.103-17.151,150.028-28.901,224.543c-0.571,3.622,1.562,8.029,5.883,7.722
			c73.921-5.232,147.842-10.467,221.763-15.699c6.996-0.496,8.149-9.611,1.621-11.984c-14.392-5.232-28.783-10.467-43.175-15.699
			c1.419,2.501,2.841,5.003,4.26,7.504c29.892-98.027,25.983-203.813,10.384-304.04c-2.434-15.638-5.273-31.212-8.326-46.74
			c-1.263-6.422-3.77-17.338-4.136-21.41c-0.952-10.55,1.419-22.475,1.964-33.054c0.763-14.798,1.462-29.601,2.143-44.403
			c0.051-1.116,0.102-2.235,0.153-3.351c-1.007,1.755-2.015,3.512-3.022,5.267c6.542-3.27,13.084-6.542,19.626-9.812
			c3.717-1.859,3.673-6.808,1.234-9.582c-39.415-44.855-115.825-103.99-171.249-46.99C-27.763-83.013-22.136-48.66-14.23-19.637
			C-8.485,1.45-0.222,22.392,9.789,41.839c2.296-2.987,4.594-5.975,6.89-8.962c-15.559-3.508-32.108-5.56-47.397,0.187
			c-11.899,4.474-20.462,13.812-27.1,24.334c-19,30.117-29.802,67.174-15.236,101.139c5.765,13.444,12.287,27.002,25.015,34.921
			c15.602,9.704,36.121,13.326,54.191,11.583c19.594-1.889,38.874-11.815,55.676-21.483c9.597-5.523,19.754-11.622,28.082-19.018
			c5.895-5.234-2.766-13.832-8.629-8.629c-18.38,16.322-44.202,28.956-67.623,35.358c-16.82,4.598-35.539,1.312-51.122-5.973
			c-12.195-5.7-17.334-16.521-22.951-28.167c-14.839-30.764-4.46-61.738,11.02-89.966c5.165-9.42,11.838-17.442,21.621-22.193
			c12.452-6.046,28.403-3.215,41.209-0.327c5.34,1.204,9.379-4.128,6.89-8.962C12.359,20.212,5.962,3.849,0.591-12.68
			c-8.484-26.113-17.678-60.156,1.623-83.515c20.314-24.584,52.345-25.249,79.896-14.449c30.174,11.827,54.807,35.604,75.82,59.517
			c0.411-3.195,0.824-6.388,1.234-9.582c-6.542,3.27-13.084,6.542-19.624,9.812c-1.95,0.974-2.928,3.205-3.022,5.267
			c-1.171,25.796-2.064,51.655-4.012,77.407c-0.433,5.716,0.966,11.195,2.082,16.797c2.57,12.907,5.102,25.818,7.38,38.781
			c17.32,98.523,22.992,202.808-2.495,300.4c-1.436,5.493-3.044,10.941-4.7,16.37c-1.027,3.372,1.208,6.394,4.26,7.504
			c14.392,5.232,28.783,10.467,43.175,15.699c0.541-3.994,1.082-7.99,1.623-11.984c-73.921,5.232-147.842,10.467-221.763,15.699
			c1.96,2.575,3.923,5.149,5.883,7.724C-20.127,363.181-9.911,287.165-2.71,210.981C-1.969,203.149-14.177,203.22-14.911,210.985
			L-14.911,210.985z"/>
	</g>
</g>
<g>
	<g>
		<path d="M154.556,161.424c12.199,13.373,32.161,25.151,50.805,21.487c28.576-5.617,40.682-36.578,44.098-62.23
			c3.831-28.759,1.145-58.024-2.821-86.619c-1.659-11.964-3.754-23.864-6.058-35.72c-0.71-3.654-1.452-7.301-2.192-10.949
			c-0.262-1.293-1.011-6.422-0.907-4.545c-0.433-7.823-12.637-7.866-12.202,0c0.693,12.513,4.905,25.41,7.004,37.745
			c4.319,25.387,7.156,51.155,6.729,76.937c-0.413,24.873-4.134,56.227-27.578,70.439c-16.295,9.879-37.097-2.945-48.253-15.171
			C157.871,146.971,149.267,155.622,154.556,161.424L154.556,161.424z"/>
	</g>
</g>
<g>
	<g>
		<path d="M145.33,89.101c10.109,12.757,24.728,28.358,41.477,31.185c20.444,3.449,23.51-17.564,23.616-32.596
			c0.258-36.501-8.244-74.177-16.602-109.57c-1.808-7.656-13.572-4.409-11.766,3.244c6.967,29.499,12.822,59.647,15.413,89.864
			c0.663,7.722,5.417,36.934-7.441,37.203c-13.578,0.283-28.399-18.276-36.068-27.956C149.072,74.311,140.498,83.007,145.33,89.101
			L145.33,89.101z"/>
	</g>
</g>
<g>
	<g>
		<path d="M115.759-80.427c7.868,0,7.868-12.202,0-12.202S107.891-80.427,115.759-80.427L115.759-80.427z"/>
	</g>
</g>
<g>
	<g>
		<path fill="#FFFFFF" d="M325.168-43.021c-5.481,0-9.924-20.346-9.924-45.447c0-25.099,4.443-45.447,9.924-45.447
			c5.481,0,9.924,20.346,9.924,45.447S330.649-43.021,325.168-43.021"/>
		<g>
			<path d="M326.791-48.904c-0.765-0.148-2.605-8.407-3.034-10.373c-1.804-8.256-2.139-16.848-2.375-25.267
				c-0.378-13.497-0.94-31.49,5.763-43.728c-1.318,0-2.633,0-3.951,0c0.679,1.09,1.198,2.251,1.558,3.488
				c1.153,3.191,1.733,6.605,2.351,9.928c1.609,8.657,1.81,17.613,1.891,26.39c0.081,8.814-0.521,17.684-1.891,26.39
				c-0.362,2.294-2.387,12.946-3.555,13.172c-7.72,1.503-4.441,13.263,3.244,11.766c16.061-3.13,14.302-40.458,14.404-51.328
				c0.092-9.928,1.362-51.547-16.025-51.547c-16.647,0-15.716,37.906-15.988,47.625c-0.364,13.001,0.6,26.233,3.378,38.949
				c1.299,5.952,4.01,14.941,10.99,16.299C331.232-35.641,334.509-47.401,326.791-48.904L326.791-48.904z"/>
		</g>
	</g>
	<g>
		<path fill="#FFFFFF" d="M113.272-35.596c2.16-6.465,3.502-15.506,3.502-25.511c0-9.847-1.299-18.76-3.4-25.202"/>
		<g>
			<path d="M119.155-33.975c5.194-17.133,5.184-36.798,0.102-53.957c-2.229-7.526-14.005-4.319-11.766,3.244
				c4.482,15.136,4.478,32.358-0.102,47.47C105.101-29.67,116.88-26.465,119.155-33.975L119.155-33.975z"/>
		</g>
	</g>
	<g>
		<path fill="#FFFFFF" d="M115.826-33.809c2.572,6.05-5.883,12.299-9.019,12.299c-6.388,0-13.529-18.062-13.529-37.717
			s6.733-46.325,13.119-46.325c3.187,0,9.43,13.938,7.957,21.273C114.356-84.278,105.644-57.75,115.826-33.809z"/>
		<g>
			<path d="M109.943-32.188c0.6,2.833-3.902,3.378-2.442,4.567c-2.684-2.188-3.848-6.64-4.899-9.725
				c-2.701-7.921-3.309-16.429-3.176-24.733c0.118-7.417,1.324-14.78,2.89-22.012c0.742-3.429,1.773-6.778,2.908-10.091
				c0.514-1.462,1.153-2.865,1.918-4.212c1.806-1.975,0.72-2.568-3.258-1.779c7.262,6.06,3.64,16.777,2.324,24.21
				C103.602-61.252,104.54-46.151,109.943-32.188c2.808,7.256,14.609,4.106,11.766-3.244c-4.946-12.779-5.731-26.028-3.353-39.462
				c1.275-7.199,2.855-12.283,1.182-19.783c-1.33-5.952-5.572-16.976-13.139-16.976c-7.419,0-10.731,8.539-12.942,14.229
				c-8.039,20.694-9.759,49.668-0.071,70.002c3.282,6.89,8.073,13.198,16.438,11.516c8.657-1.743,13.556-11.644,11.886-19.522
				C120.081-43.127,108.318-39.863,109.943-32.188z"/>
		</g>
	</g>
	<g>
		<ellipse fill="#FFFFFF" cx="331.007" cy="-57.291" rx="10.215" ry="46.773"/>
		<g>
			<path d="M335.121-57.291c-0.114,12.897,0.553,29.725-6.154,41.308c1.36,0,2.719,0,4.079,0c-0.645-0.988-1.157-2.044-1.537-3.166
				c-1.147-2.987-1.743-6.202-2.375-9.326c-1.908-9.428-2.156-19.232-2.241-28.818c-0.112-12.781-0.482-29.849,6.154-41.308
				c-1.36,0-2.719,0-4.079,0c0.645,0.988,1.157,2.044,1.537,3.166c1.147,2.987,1.743,6.202,2.375,9.326
				C334.787-76.681,335.035-66.879,335.121-57.291c0.069,7.864,12.271,7.872,12.202,0c-0.089-10.154,1.515-52.873-16.315-52.873
				c-17.831,0-16.226,42.72-16.315,52.873c-0.09,10.133-1.403,52.873,16.315,52.873c17.831,0,16.226-42.72,16.315-52.873
				C347.391-65.163,335.19-65.157,335.121-57.291z"/>
		</g>
	</g>
	<g>
		<path fill="#FFFFFF" d="M114.972-35.608c0,0-3.717-10.823-3.144-22.882c0.417-8.769-0.506-14.662,3.144-23.887l208.169-20.869
			c0,0-10.119,66.915,4.338,92.819L114.972-35.608z"/>
		<g>
			<path d="M120.855-37.233c-4.36-13.269-4.639-30.337,0-43.525c-1.96,1.493-3.923,2.985-5.883,4.478
				c69.39-6.955,138.78-13.912,208.168-20.867c-1.96-2.575-3.923-5.149-5.883-7.724c-1.952,13.072-3.034,26.294-3.512,39.496
				c-0.689,19.049-0.596,40.725,8.464,58.024c1.755-3.061,3.512-6.119,5.267-9.18c-70.836-8.395-141.67-16.789-212.506-25.184
				c-7.805-0.925-7.715,11.286,0,12.202c70.836,8.395,141.67,16.789,212.506,25.184c4.907,0.582,7.185-5.521,5.267-9.18
				c-8.352-15.947-7.343-36.757-6.713-54.216c0.409-11.305,1.318-22.707,2.989-33.904c0.527-3.526-1.537-8.159-5.883-7.724
				c-69.39,6.955-138.78,13.912-208.168,20.867c-2.896,0.291-4.901,1.688-5.883,4.478c-5.334,15.167-5.013,34.758,0,50.012
				C111.533-26.551,123.318-29.735,120.855-37.233z"/>
		</g>
	</g>
	<g>
		<path fill="#FFFFFF" d="M118.094-86.942c0,0,1.916-11.48-3.144-12.917l206.346-33.101c0,0-5.3,18.239-4.277,28.407L118.094-86.942
			z"/>
		<g>
			<path d="M123.977-85.322c1.062-7.063,1.196-15.949-5.948-19.807c-0.486,3.717-0.972,7.433-1.458,11.15
				c68.782-11.034,137.564-22.066,206.346-33.101c-2.501-2.501-5.003-5.003-7.504-7.504c-2.743,9.609-5.076,19.994-4.494,30.028
				c2.034-2.034,4.067-4.067,6.101-6.101c-66.307,5.871-132.617,11.74-198.924,17.611c-7.774,0.687-7.842,12.895,0,12.202
				c66.307-5.871,132.617-11.74,198.924-17.611c3.156-0.279,6.306-2.566,6.101-6.101c-0.523-9.023,1.592-18.144,4.059-26.784
				c1.387-4.858-3.103-8.212-7.504-7.504c-68.782,11.034-137.564,22.066-206.346,33.101c-5.312,0.852-5.808,8.801-1.458,11.15
				c0.866,0.468,0.325,6.137,0.342,6.028C111.056-80.87,122.81-77.559,123.977-85.322z"/>
		</g>
	</g>
</g>
<g>
	<path fill="#FFFFFF" d="M122.682,41.398l27.639-79.619l39.077,1.946c0,0-30.526,105.869-52.503,120.187L122.682,41.398z"/>
	<g>
		<path fill="#FFFFFF" d="M128.565,43.018c9.212-26.54,18.424-53.081,27.639-79.619c-1.96,1.493-3.923,2.985-5.883,4.478
			c13.025,0.649,26.052,1.297,39.077,1.946c-1.96-2.575-3.923-5.149-5.883-7.724c-4.925,17.041-10.524,33.91-16.513,50.604
			c-4.942,13.778-10.288,27.429-16.596,40.643c-3.965,8.305-8.746,19.811-16.592,25.294c2.987,1.216,5.975,2.43,8.962,3.646
			c-4.736-14.172-9.474-28.342-14.211-42.514c-2.481-7.423-14.268-4.24-11.766,3.244c4.736,14.172,9.474,28.342,14.211,42.514
			c1.161,3.471,5.56,6.023,8.962,3.646c8.443-5.899,13.686-15.504,18.357-24.432c6.808-13.015,12.23-26.805,17.403-40.534
			c7.284-19.331,13.812-39.021,19.549-58.87c1.147-3.966-1.993-7.528-5.883-7.724c-13.025-0.649-26.052-1.297-39.077-1.946
			c-2.823-0.14-5.019,1.991-5.883,4.478c-9.212,26.54-18.424,53.081-27.639,79.619C114.212,47.228,126.002,50.402,128.565,43.018z"
			/>
	</g>
</g>
<g>
	<g>
		<path d="M-2.76,84.174c-8.793,10.03-9.686,19.484-9.247,32.792c0.224,6.79,3.343,13.34,10.078,15.695
			c16.946,5.92,38.236-12.153,50.171-21.625C97.62,71.848,141.25,10.288,149.173-53.274c0.972-7.795-11.242-7.701-12.202,0
			C130.102,1.846,93.424,52.731,53.975,89.925c-12.901,12.163-28.749,26.479-46.409,31.02c-14.125,3.634-7.685-21.318-1.7-28.145
			C11.031,86.911,2.435,78.246-2.76,84.174L-2.76,84.174z"/>
	</g>
</g>
<g>
	<g>
		<path d="M96.147,159.864c60.369-53.099,92.97-130.868,107.839-208.463c1.472-7.687-10.286-10.967-11.766-3.244
			c-14.508,75.7-45.78,151.254-104.701,203.078C81.601,156.44,90.264,165.036,96.147,159.864L96.147,159.864z"/>
	</g>
</g>
<g>
	<g>
		<path d="M165.621-59.342c0.362-2.729-0.484,3.227-0.606,4.02c-0.691,4.504-1.499,8.986-2.361,13.46
			c-1.822,9.444-3.795,19.449-8.063,28.135c-3.457,7.034,7.065,13.22,10.536,6.158c7.783-15.836,10.394-34.423,12.696-51.773
			C178.855-67.125,166.64-67.023,165.621-59.342L165.621-59.342z"/>
	</g>
</g>
<g>
	<line fill="none" x1="73.932" y1="270.335" x2="58.231" y2="427.338"/>
	<g>
		<path d="M67.832,270.335c-5.232,52.334-10.467,104.667-15.699,157.001c-0.783,7.827,11.427,7.752,12.202,0
			c5.232-52.334,10.467-104.667,15.699-157.001C80.816,262.508,68.606,262.585,67.832,270.335L67.832,270.335z"/>
	</g>
</g>
<g>
	<path fill="#FFFFFF" d="M74.296-66.192c0.309,0,0.557,0.334,0.557,0.744s-0.25,0.744-0.557,0.744"/>
	<g>
		<path d="M72.676-60.308c0.073,0.02,0.144,0.039,0.218,0.059c-0.897-0.523-1.796-1.045-2.692-1.57
			c-0.22-0.279-0.437-0.559-0.657-0.838c-0.205-0.486-0.411-0.972-0.614-1.458c0.014,0.096,0.028,0.193,0.045,0.289
			c0-1.082,0-2.162,0-3.244c-0.014,0.096-0.028,0.193-0.045,0.289c0.205-0.486,0.411-0.972,0.614-1.458
			c0.22-0.279,0.437-0.559,0.657-0.838c0.897-0.523,1.796-1.045,2.692-1.57c-0.073,0.02-0.144,0.039-0.218,0.059
			c-3.209,0.864-5.139,4.313-4.26,7.504c0.885,3.217,4.295,5.125,7.504,4.26c2.975-0.801,5.037-3.551,5.037-6.627
			c0-3.077-2.062-5.826-5.037-6.627c-3.209-0.864-6.619,1.043-7.504,4.26C67.537-64.622,69.465-61.175,72.676-60.308L72.676-60.308z
			"/>
	</g>
</g>
</svg>
