<?xml version="1.0" encoding="utf-8"?>
<!-- Generator: Adobe Illustrator 17.1.0, SVG Export Plug-In . SVG Version: 6.00 Build 0)  -->
<!DOCTYPE svg PUBLIC "-//W3C//DTD SVG 1.1//EN" "http://www.w3.org/Graphics/SVG/1.1/DTD/svg11.dtd">
<svg version="1.1" id="Lager_1" xmlns="http://www.w3.org/2000/svg" xmlns:xlink="http://www.w3.org/1999/xlink" x="0px" y="0px"
	 viewBox="275 275 50 50" enable-background="new 275 275 50 50" xml:space="preserve">
<g>
	<g>
		<path fill="#FFFFFF" d="M288.904,306.109c0,0,3.607-0.157,2.195-3.293c-0.7-1.556-1.638-4.002-0.627-6.43
			c1.01-2.428,2.949-4.27,6.267-3.486c0,0-2.192-4.237-1.81-6.997c0.236-1.703,2.416-3.505,4.946-2.895
			c1.53,0.369,3.498,1.327,5.911,4.102l-1.206,0.603l-0.241,4.705c0,0,4.303,1.91,5.308,5.067c0.844,2.654,0.886,4.478-2.533,8.686"
			/>
		<g>
			<path d="M288.904,306.422c0.698-0.034,1.437-0.247,2.003-0.66c1.303-0.951,0.736-2.427,0.224-3.652
				c-0.461-1.106-0.773-2.266-0.79-3.47c-0.017-1.25,0.452-2.431,1.122-3.466c1.174-1.815,3.129-2.432,5.193-1.973
				c0.273,0.061,0.481-0.211,0.353-0.459c-0.492-0.956-0.888-1.966-1.219-2.987c-0.53-1.632-1.088-3.737,0.116-5.194
				c1.262-1.527,3.259-1.576,4.972-0.904c1.866,0.731,3.388,2.195,4.688,3.675c0.021-0.164,0.042-0.327,0.063-0.491
				c-0.402,0.201-0.804,0.402-1.206,0.603c-0.1,0.05-0.149,0.164-0.155,0.27c-0.08,1.568-0.161,3.136-0.241,4.705
				c-0.005,0.099,0.061,0.228,0.155,0.27c2.105,0.941,4.406,2.624,5.164,4.88c0.392,1.167,0.607,2.377,0.332,3.594
				c-0.406,1.798-1.655,3.387-2.785,4.788c-0.251,0.31,0.189,0.756,0.442,0.442c1.194-1.48,2.411-3.078,2.916-4.943
				c0.357-1.319,0.13-2.646-0.264-3.926c-0.763-2.477-3.196-4.348-5.489-5.373c0.052,0.09,0.103,0.18,0.155,0.27
				c0.08-1.568,0.161-3.136,0.241-4.705c-0.052,0.09-0.103,0.18-0.155,0.27c0.402-0.201,0.804-0.402,1.206-0.603
				c0.19-0.095,0.188-0.349,0.063-0.491c-2.397-2.728-7.059-6.363-10.438-2.888c-1.401,1.441-1.05,3.533-0.57,5.294
				c0.352,1.291,0.857,2.573,1.47,3.764c0.118-0.153,0.235-0.306,0.353-0.459c-1.82-0.405-3.594-0.123-4.992,1.165
				c-1.497,1.378-2.238,3.534-2.084,5.53c0.084,1.09,0.432,2.143,0.85,3.146c0.306,0.734,0.765,1.577,0.355,2.363
				c-0.355,0.681-1.331,0.96-2.048,0.995C288.503,305.816,288.501,306.441,288.904,306.422L288.904,306.422z"/>
		</g>
	</g>
	<g>
		<path fill="#FFFFFF" d="M303.977,294.468c0,0,3.619,10.857,0.482,20.99l2.654,0.965l-13.631,0.965c0,0,2.533-16.044,2.051-20.869
			c0,0-2.515-0.012-2.395,3.004c0.121,3.016,4.828,7.835-3.45,9.723"/>
		<g>
			<path d="M303.676,294.551c0.707,2.131,1.116,4.392,1.406,6.612c0.619,4.733,0.473,9.625-0.924,14.212
				c-0.053,0.173,0.062,0.327,0.218,0.384c0.885,0.322,1.769,0.643,2.654,0.965c0.028-0.205,0.055-0.409,0.083-0.614
				c-4.544,0.322-9.088,0.643-13.632,0.965c0.1,0.132,0.201,0.264,0.301,0.396c0.453-2.871,0.849-5.753,1.209-8.637
				c0.29-2.323,0.55-4.651,0.734-6.985c0.139-1.76,0.288-3.567,0.119-5.33c-0.016-0.169-0.13-0.313-0.313-0.313
				c-1.012,0.004-1.957,0.627-2.394,1.526c-0.669,1.376-0.17,2.898,0.314,4.235c0.443,1.225,1.028,2.59,0.739,3.917
				c-0.429,1.973-2.908,2.667-4.587,3.061c-0.392,0.092-0.226,0.695,0.166,0.603c1.732-0.406,3.808-1.049,4.73-2.719
				c0.648-1.175,0.373-2.577-0.01-3.787c-0.384-1.211-1.015-2.412-1.044-3.704c-0.028-1.247,0.73-2.502,2.086-2.507
				c-0.104-0.104-0.208-0.208-0.313-0.313c0.165,1.72,0.021,3.479-0.109,5.196c-0.177,2.332-0.44,4.657-0.727,6.977
				c-0.355,2.877-0.752,5.75-1.204,8.613c-0.029,0.186,0.08,0.411,0.301,0.396c4.544-0.322,9.088-0.643,13.632-0.965
				c0.358-0.025,0.417-0.492,0.083-0.614c-0.885-0.322-1.769-0.643-2.654-0.965c0.073,0.128,0.145,0.256,0.218,0.384
				c1.415-4.647,1.554-9.584,0.946-14.378c-0.288-2.275-0.704-4.595-1.429-6.778C304.152,294.005,303.548,294.168,303.676,294.551
				L303.676,294.551z"/>
		</g>
	</g>
	<g>
		<line fill="none" x1="300.358" y1="307.135" x2="299.393" y2="316.785"/>
		<g>
			<path d="M300.046,307.135c-0.322,3.217-0.643,6.434-0.965,9.651c-0.04,0.401,0.585,0.397,0.625,0
				c0.322-3.217,0.643-6.434,0.965-9.651C300.711,306.734,300.085,306.737,300.046,307.135L300.046,307.135z"/>
		</g>
	</g>
	<g>
		<line fill="none" x1="307.113" y1="303.516" x2="305.666" y2="305.325"/>
		<g>
			<path d="M306.893,303.295c-0.482,0.603-0.965,1.206-1.448,1.81c-0.249,0.311,0.19,0.757,0.442,0.442
				c0.482-0.603,0.965-1.206,1.448-1.81C307.584,303.425,307.144,302.98,306.893,303.295L306.893,303.295z"/>
		</g>
	</g>
	<g>
		<g>
			<path d="M304.664,297.874c0.469,0.296,0.886,0.685,1.24,1.109c0.891,1.068,0.562,2.156-0.516,2.936
				c-0.323,0.234-0.012,0.776,0.315,0.54c1.135-0.82,1.747-1.958,1.072-3.289c-0.379-0.748-1.093-1.391-1.796-1.835
				C304.637,297.119,304.324,297.66,304.664,297.874L304.664,297.874z"/>
		</g>
	</g>
	<g>
		<g>
			<path d="M297.885,287.675c0.868,2.455,3.929,3.153,6.212,3.004c0.4-0.026,0.403-0.651,0-0.625
				c-2.018,0.132-4.876-0.472-5.61-2.545C298.355,287.132,297.751,287.294,297.885,287.675L297.885,287.675z"/>
		</g>
	</g>
	<g>
		<ellipse fill="#FFFFFF" cx="301.717" cy="287.088" rx="0.038" ry="0.051"/>
		<g>
			<path d="M301.442,287.088c0.009-0.039,0.018-0.078,0.027-0.116c0.037-0.037,0.075-0.075,0.112-0.112
				c0.017-0.007,0.035-0.015,0.052-0.022c0.055,0,0.111,0,0.166,0c0.017,0.007,0.035,0.015,0.052,0.022
				c0.037,0.037,0.075,0.075,0.112,0.112c0.036,0.078,0.036,0.155,0,0.233c-0.037,0.037-0.075,0.075-0.112,0.112
				c-0.017,0.007-0.035,0.015-0.052,0.022c-0.055,0-0.111,0-0.166,0c-0.017-0.007-0.035-0.015-0.052-0.022
				c-0.037-0.037-0.075-0.075-0.112-0.112C301.46,287.165,301.451,287.126,301.442,287.088c0.01,0.086,0.027,0.157,0.092,0.221
				c0.058,0.058,0.138,0.092,0.221,0.092c0.155,0,0.333-0.143,0.313-0.313c-0.009-0.071-0.014-0.139-0.058-0.199
				c-0.073-0.097-0.166-0.165-0.292-0.165c-0.09,0-0.18,0.038-0.244,0.101c-0.075,0.075-0.095,0.162-0.107,0.262
				c-0.007,0.058,0.024,0.153,0.058,0.199c0.073,0.097,0.166,0.165,0.292,0.165c0.09,0,0.18-0.038,0.244-0.101
				c0.075-0.075,0.095-0.162,0.107-0.262c0.02-0.17-0.158-0.313-0.313-0.313c-0.082,0-0.163,0.033-0.221,0.092
				C301.47,286.931,301.453,287.001,301.442,287.088z"/>
		</g>
	</g>
	<g>
		<ellipse fill="#FFFFFF" cx="298.27" cy="296.982" rx="0.038" ry="0.051"/>
		<g>
			<path d="M297.995,296.982c0.009-0.039,0.018-0.078,0.027-0.116c0.037-0.037,0.075-0.075,0.112-0.112
				c0.017-0.007,0.035-0.015,0.052-0.022c0.055,0,0.111,0,0.166,0c0.017,0.007,0.035,0.015,0.052,0.022
				c0.037,0.037,0.075,0.075,0.112,0.112c0.036,0.078,0.036,0.155,0,0.233c-0.037,0.037-0.075,0.075-0.112,0.112
				c-0.017,0.007-0.035,0.015-0.052,0.022c-0.055,0-0.111,0-0.166,0c-0.017-0.007-0.035-0.015-0.052-0.022
				c-0.037-0.037-0.075-0.075-0.112-0.112C298.013,297.06,298.004,297.021,297.995,296.982c0.01,0.086,0.027,0.157,0.092,0.221
				c0.058,0.058,0.138,0.092,0.221,0.092c0.155,0,0.333-0.143,0.313-0.313c-0.008-0.071-0.014-0.139-0.058-0.199
				c-0.073-0.097-0.166-0.165-0.292-0.165c-0.09,0-0.18,0.038-0.244,0.101c-0.075,0.075-0.095,0.162-0.107,0.262
				c-0.007,0.057,0.024,0.153,0.058,0.199c0.073,0.097,0.166,0.165,0.292,0.165c0.09,0,0.18-0.038,0.243-0.101
				c0.075-0.075,0.095-0.162,0.107-0.262c0.021-0.17-0.158-0.313-0.313-0.313c-0.082,0-0.163,0.033-0.221,0.092
				C298.023,296.825,298.006,296.896,297.995,296.982z"/>
		</g>
	</g>
	<g>
		<ellipse fill="#FFFFFF" cx="302.386" cy="297.057" rx="0.038" ry="0.051"/>
		<g>
			<path d="M302.112,297.057c0.009-0.039,0.018-0.078,0.027-0.116c0.037-0.037,0.075-0.075,0.112-0.112
				c0.017-0.007,0.035-0.015,0.052-0.022c0.055,0,0.111,0,0.166,0c0.017,0.007,0.035,0.015,0.052,0.022
				c0.037,0.037,0.075,0.075,0.112,0.112c0.036,0.078,0.036,0.155,0,0.233c-0.037,0.037-0.075,0.075-0.112,0.112
				c-0.017,0.007-0.035,0.015-0.052,0.022c-0.055,0-0.111,0-0.166,0c-0.017-0.007-0.035-0.015-0.052-0.022
				c-0.037-0.037-0.075-0.075-0.112-0.112C302.13,297.135,302.121,297.096,302.112,297.057c0.01,0.086,0.027,0.157,0.091,0.221
				c0.058,0.058,0.138,0.092,0.221,0.092c0.155,0,0.333-0.143,0.313-0.313c-0.009-0.071-0.014-0.139-0.058-0.199
				c-0.073-0.097-0.166-0.165-0.292-0.165c-0.09,0-0.18,0.038-0.244,0.101c-0.075,0.074-0.095,0.162-0.107,0.262
				c-0.007,0.058,0.024,0.153,0.058,0.199c0.073,0.097,0.166,0.165,0.292,0.165c0.09,0,0.18-0.038,0.243-0.101
				c0.075-0.075,0.095-0.162,0.107-0.262c0.02-0.17-0.158-0.313-0.313-0.313c-0.082,0-0.163,0.033-0.221,0.092
				C302.14,296.9,302.123,296.971,302.112,297.057z"/>
		</g>
	</g>
</g>
<g>
	<g>
		<path d="M289.208,308.036c0.918-0.077,1.875-0.694,2.652-1.124c0.353-0.195,0.037-0.735-0.315-0.54
			c-0.604,0.335-1.218,0.66-1.867,0.898c-0.127,0.047-0.256,0.087-0.387,0.12c-0.051,0.013-0.199,0.03-0.082,0.02
			C288.81,307.445,288.806,308.07,289.208,308.036L289.208,308.036z"/>
	</g>
</g>
</svg>
