<?xml version="1.0" encoding="utf-8"?>
<!-- Generator: Adobe Illustrator 17.0.2, SVG Export Plug-In . SVG Version: 6.00 Build 0)  -->
<!DOCTYPE svg PUBLIC "-//W3C//DTD SVG 1.1//EN" "http://www.w3.org/Graphics/SVG/1.1/DTD/svg11.dtd">
<svg version="1.1" id="Lager_1" xmlns="http://www.w3.org/2000/svg" xmlns:xlink="http://www.w3.org/1999/xlink" x="0px" y="0px"
	 width="600px" height="600px" viewBox="-209.563 -150 600 600" enable-background="new -209.563 -150 600 600"
	 xml:space="preserve">
<g>
	<g>
		<path fill="#FFFFFF" d="M-68.544,233.526c0,0,55.304-2.405,33.663-50.495c-10.735-23.854-25.108-61.36-9.618-98.584
			S0.724,18.97,51.589,30.993c0,0-33.608-64.96-27.745-107.278c3.619-26.114,37.042-53.74,75.834-44.391
			c23.457,5.654,53.638,20.347,90.631,62.888l-18.495,9.248l-3.699,72.135c0,0,65.983,29.286,81.383,77.684
			c12.947,40.691,13.579,68.655-38.842,133.171"/>
		<g>
			<path d="M-68.544,238.318c10.695-0.519,22.029-3.78,30.712-10.12c19.971-14.583,11.277-37.217,3.442-55.999
				c-7.076-16.964-11.856-34.742-12.111-53.197c-0.266-19.168,6.93-37.276,17.2-53.144c18.005-27.821,47.975-37.284,79.618-30.244
				c4.192,0.933,7.369-3.235,5.411-7.038C48.183,13.924,42.119-1.576,37.033-17.231c-8.128-25.019-16.684-57.301,1.777-79.645
				c19.344-23.411,49.972-24.157,76.233-13.865c28.607,11.212,51.953,33.663,71.88,56.341c0.324-2.509,0.646-5.018,0.97-7.525
				c-6.166,3.082-12.331,6.166-18.495,9.248c-1.537,0.769-2.29,2.515-2.373,4.138c-1.232,24.046-2.467,48.09-3.699,72.135
				c-0.079,1.524,0.937,3.496,2.373,4.138c32.278,14.43,67.555,40.23,79.181,74.82c6.014,17.893,9.307,36.448,5.092,55.104
				c-6.227,27.561-25.372,51.93-42.702,73.406c-3.843,4.761,2.894,11.588,6.777,6.777c18.307-22.685,36.967-47.2,44.709-75.796
				c5.474-20.22,1.991-40.569-4.056-60.197c-11.701-37.983-49.008-66.669-84.164-82.389c0.792,1.38,1.583,2.758,2.373,4.138
				c1.232-24.046,2.467-48.09,3.699-72.135c-0.792,1.38-1.583,2.758-2.373,4.138c6.166-3.082,12.331-6.166,18.495-9.248
				c2.919-1.46,2.884-5.347,0.97-7.525c-36.759-41.832-108.235-97.567-160.042-44.287c-21.485,22.097-16.101,54.171-8.745,81.164
				c5.393,19.797,13.14,39.451,22.541,57.709c1.804-2.346,3.607-4.692,5.411-7.038c-27.9-6.206-55.112-1.882-76.542,17.855
				c-22.948,21.134-34.311,54.184-31.95,84.791c1.29,16.707,6.63,32.86,13.041,48.229c4.696,11.254,11.724,24.172,5.439,36.232
				c-5.441,10.442-20.4,14.72-31.394,15.254C-74.694,229.036-74.725,238.619-68.544,238.318L-68.544,238.318z"/>
		</g>
	</g>
	<g>
		<path fill="#FFFFFF" d="M1.648,406.465c0,0,38.842-245.998,31.444-319.983c0,0-38.564-0.186-36.714,46.056
			c1.85,46.24,74.027,120.131-52.898,149.079"/>
		<g>
			<path d="M6.269,407.74c6.946-44.026,13.014-88.208,18.532-132.434c4.445-35.618,8.429-71.311,11.25-107.098
				c2.127-26.988,4.418-54.687,1.832-81.724c-0.247-2.591-1.991-4.801-4.792-4.792C17.583,81.75,3.09,91.306-3.615,105.085
				c-10.265,21.094-2.603,44.431,4.818,64.931c6.798,18.785,15.758,39.716,11.339,60.051c-6.576,30.252-44.58,40.897-70.337,46.93
				c-6.016,1.409-3.463,10.649,2.547,9.24c26.56-6.223,58.386-16.076,72.517-41.682c9.94-18.012,5.725-39.505-0.153-58.06
				c-5.884-18.572-15.565-36.981-16.009-56.787C0.675,110.582,12.297,91.35,33.092,91.274c-1.597-1.597-3.195-3.195-4.792-4.792
				c2.522,26.374,0.324,53.335-1.673,79.668c-2.71,35.75-6.743,71.401-11.139,106.979c-5.451,44.107-11.534,88.162-18.461,132.062
				C-3.925,411.236,5.309,413.831,6.269,407.74L6.269,407.74z"/>
		</g>
	</g>
	<g>
		<path fill="#FFFFFF" d="M1.648,406.465"/>
		<g>
			<path d="M1.648,411.257c6.179,0,6.179-9.583,0-9.583S-4.531,411.257,1.648,411.257L1.648,411.257z"/>
		</g>
	</g>
	<g>
		<path fill="#FFFFFF" d="M162.565,55.039c0,0,55.488,166.465,7.398,321.832l40.691,14.796"/>
		<g>
			<path d="M157.944,56.313c10.842,32.67,17.11,67.346,21.562,101.379c9.491,72.563,7.254,147.582-14.164,217.905
				c-0.807,2.649,0.947,5.022,3.346,5.894c13.564,4.931,27.128,9.865,40.691,14.796c5.821,2.116,8.307-7.147,2.547-9.24
				c-13.564-4.931-27.128-9.865-40.691-14.796c1.115,1.965,2.231,3.929,3.346,5.894c21.7-71.25,23.823-146.942,14.505-220.454
				c-4.422-34.882-10.796-70.46-21.905-103.928C165.248,47.93,155.993,50.431,157.944,56.313L157.944,56.313z"/>
		</g>
	</g>
	<g>
		<path d="M120.809,276.24L19.569,296.278L4.519,414.254c0,0,119.901,30.633,118.118,14.752
			c-1.781-15.879-24.195-26.802-24.195-26.802L120.809,276.24z"/>
		<g>
			<path d="M119.535,271.619c-33.748,6.679-67.493,13.359-101.241,20.038c-2.26,0.447-3.26,2.595-3.517,4.621
				C9.761,335.603,0.472,374.389-4.545,413.714c-0.261,2.051,5.925,4.684,7.79,5.161c29.115,7.425,58.669,14.091,88.472,18.018
				c8.949,1.179,27.718,5.344,34.395-3.373c4.299-5.612-1.717-15.335-5.276-19.666c-5.363-6.53-12.399-12.013-19.977-15.787
				c0.734,1.804,1.468,3.607,2.202,5.411c7.456-41.989,14.911-83.976,22.367-125.965c1.073-6.041-8.161-8.625-9.24-2.547
				c-7.456,41.989-14.911,83.976-22.365,125.965c-0.36,2.028,0.171,4.4,2.202,5.411c5.627,2.8,10.708,6.576,15.168,10.984
				c1.802,1.779,3.226,3.824,4.55,5.966c1.2,1.938,1.445,6.789,2.377,5.029c0.694-1.309-0.757-0.01-2.49,0.209
				c-13.042,1.652-27.256-1.526-40.04-3.726c-23.444-4.036-46.748-9.292-69.797-15.17c1.173,1.541,2.346,3.08,3.517,4.621
				c5.016-39.325,10.032-78.652,15.049-117.977c-1.173,1.541-2.346,3.08-3.517,4.621c33.748-6.679,67.493-13.359,101.241-20.038
				C128.142,279.661,125.57,270.425,119.535,271.619z"/>
		</g>
	</g>
	<g>
		<path d="M108.304,396.096l-3.791-102.983c0,0,80.16-18.982,94.914-18.982c0,0-11.112,87.388-21.1,96.725
			c0,0,63.167,31.223,43.526,38.438C207.014,414.745,108.304,396.096,108.304,396.096l0.031,0.347"/>
		<g>
			<path d="M113.095,396.096c-1.263-34.328-2.526-68.655-3.791-102.983c-1.173,1.541-2.346,3.08-3.517,4.621
				c13.608-3.22,27.252-6.294,40.916-9.273c16.996-3.705,35.227-9.219,52.724-9.539c-1.597-1.597-3.195-3.195-4.792-4.792
				c-1.819,14.24-4.021,28.44-6.459,42.587c-1.782,10.338-3.772,20.648-6.219,30.85c-1.411,5.882-2.633,15.316-7.019,19.9
				c-2.016,2.108-1.873,6.116,0.97,7.525c11.484,5.696,22.76,12.046,33.309,19.335c2.94,2.032,5.725,4.24,8.326,6.691
				c1.064,1.002,2.024,2.076,2.829,3.291c1.163,1.758-0.172,0.744,0.859-0.017c-3.923,2.892-12.784,1.165-17.196,0.908
				c-31.641-1.834-63.344-7.862-94.456-13.729c-2.798-0.527-6.369,1.29-6.066,4.621c0.01,0.115,0.021,0.23,0.031,0.347
				c0.554,6.102,10.143,6.156,9.583,0C113.116,396.326,113.105,396.211,113.095,396.096c-2.022,1.541-4.044,3.08-6.066,4.621
				c14.695,2.771,29.445,5.257,44.216,7.572c21.136,3.314,43.333,7.638,64.814,6.708c5.846-0.253,11.603-1.669,14.054-7.507
				c2.545-6.058-4.995-12.701-8.866-15.984c-11.967-10.148-26.493-17.84-40.504-24.786c0.324,2.509,0.646,5.018,0.97,7.525
				c4.728-4.943,6.461-12.761,8.209-19.137c3.044-11.112,5.129-22.505,7.143-33.84c2.779-15.641,5.14-31.377,7.153-47.137
				c0.328-2.564-2.426-4.836-4.792-4.792c-17.708,0.326-36.048,5.733-53.251,9.443c-14.342,3.093-28.657,6.332-42.936,9.71
				c-2.009,0.475-3.594,2.559-3.517,4.621c1.263,34.328,2.526,68.655,3.791,102.983
				C103.738,402.256,113.323,402.279,113.095,396.096L113.095,396.096z"/>
		</g>
	</g>
	<g>
		<line fill="none" x1="210.654" y1="193.76" x2="188.46" y2="221.505"/>
		<g>
			<path d="M207.267,190.372c-7.398,9.248-14.796,18.495-22.196,27.745c-3.82,4.774,2.915,11.601,6.777,6.777
				c7.398-9.248,14.796-18.495,22.196-27.745C217.862,192.375,211.127,185.546,207.267,190.372L207.267,190.372z"/>
		</g>
	</g>
	<g>
		<g>
			<path d="M173.094,107.266c7.187,4.54,13.579,10.495,19.009,17c13.663,16.372,8.623,33.061-7.912,45.01
				c-4.958,3.582-0.182,11.902,4.838,8.274c17.407-12.579,26.779-30.014,16.435-50.426c-5.811-11.469-16.755-21.326-27.532-28.134
				C172.688,95.682,167.885,103.977,173.094,107.266L173.094,107.266z"/>
		</g>
	</g>
	<g>
		<g>
			<path d="M69.163-49.114c13.313,37.634,60.241,48.35,95.251,46.058c6.133-0.401,6.173-9.987,0-9.583
				c-30.934,2.026-74.769-7.243-86.011-39.024C76.358-57.447,67.097-54.955,69.163-49.114L69.163-49.114z"/>
		</g>
	</g>
	<g>
		<ellipse fill="#FFFFFF" cx="127.907" cy="-58.125" rx="0.586" ry="0.782"/>
		<g>
			<path d="M123.702-58.126c0.138-0.596,0.276-1.192,0.414-1.786c0.573-0.573,1.146-1.146,1.719-1.719
				c0.266-0.111,0.533-0.222,0.797-0.332c0.849,0,1.698,0,2.547,0c0.266,0.111,0.533,0.222,0.797,0.332
				c0.573,0.573,1.146,1.146,1.719,1.719c0.552,1.192,0.552,2.382,0,3.574c-0.573,0.573-1.146,1.146-1.719,1.719
				c-0.266,0.111-0.533,0.222-0.797,0.332c-0.849,0-1.698,0-2.547,0c-0.266-0.111-0.533-0.222-0.797-0.332
				c-0.573-0.573-1.146-1.146-1.719-1.719C123.978-56.935,123.84-57.529,123.702-58.126c0.161,1.324,0.422,2.407,1.403,3.389
				c0.895,0.895,2.122,1.403,3.389,1.403c2.375,0,5.106-2.193,4.792-4.792c-0.13-1.085-0.209-2.135-0.895-3.049
				c-1.119-1.491-2.545-2.524-4.483-2.524c-1.378,0-2.762,0.581-3.735,1.554c-1.142,1.142-1.457,2.478-1.644,4.019
				c-0.107,0.882,0.368,2.348,0.895,3.049c1.119,1.491,2.545,2.524,4.483,2.524c1.378,0,2.762-0.581,3.735-1.554
				c1.142-1.142,1.457-2.478,1.643-4.019c0.314-2.599-2.417-4.792-4.792-4.792c-1.265,0-2.494,0.51-3.389,1.403
				C124.125-60.533,123.863-59.45,123.702-58.126z"/>
		</g>
	</g>
</g>
<g>
	<g>
		<path d="M-63.879,263.076c14.076-1.177,28.753-10.637,40.655-17.234c5.405-2.996,0.573-11.273-4.838-8.274
			c-9.259,5.131-18.675,10.122-28.632,13.771c-1.945,0.713-3.927,1.33-5.936,1.842c-0.784,0.199-3.047,0.464-1.252,0.312
			C-69.991,254.003-70.04,263.592-63.879,263.076L-63.879,263.076z"/>
	</g>
</g>
<g>
	<path d="M31.277,212.804c0,0,58.633-7.394,72.266,34.317l7.766,0.184c0,0,25.999-38.102,73.398-32.416
		c0,0,7.584-22.75,1.896-28.439c0,0-115.652-13.271-153.57-5.688C33.033,180.762,27.486,205.22,31.277,212.804z"/>
	<g>
		<path d="M31.277,218.554c25.098-3.055,57.358,3.55,66.721,30.095c0.876,2.484,2.838,4.157,5.545,4.22
			c4.56,0.107,9.865,1.401,12.866-2.856c2.112-2.994,5.529-6.469,8.544-9.343c16.191-15.431,37.608-22.288,59.752-20.03
			c2.595,0.264,4.807-1.966,5.545-4.22c2.678-8.178,10.344-34.133-4.011-35.758c-11.766-1.334-23.559-2.459-35.354-3.507
			c-21.587-1.919-43.221-3.436-64.883-4.165c-18.037-0.606-36.682-1.154-54.501,2.229c-1.851,0.351-3.613,2.206-4.015,4.015
			c-2.346,10.524-5.888,24.709-1.756,35.099c2.706,6.804,13.832,3.841,11.089-3.057c-3.383-8.508-0.171-20.341,1.756-28.983
			c-1.338,1.338-2.677,2.678-4.015,4.015c28.833-5.474,60.454-1.815,89.475,0.205c20.883,1.453,41.765,3.308,62.566,5.688
			c-1.654-0.949-3.31-1.899-4.964-2.848c4.284,5.6-0.481,17.913-2.476,24.007c1.848-1.407,3.697-2.814,5.545-4.22
			c-29.79-3.038-61.109,10.325-78.362,35.264c1.654-0.949,3.31-1.899,4.964-2.848c-2.589-0.061-5.177-0.123-7.766-0.184
			c1.848,1.407,3.697,2.814,5.545,4.22c-11.132-31.557-47.009-42.288-77.81-38.537C24.013,207.938,23.927,219.449,31.277,218.554z"
			/>
	</g>
</g>
<g>
	<ellipse fill="#FFFFFF" cx="67.838" cy="89.599" rx="0.586" ry="0.782"/>
	<g>
		<path d="M63.633,89.599c0.138-0.596,0.276-1.192,0.414-1.786c0.573-0.573,1.146-1.146,1.719-1.719
			c0.266-0.111,0.533-0.222,0.797-0.332c0.849,0,1.698,0,2.547,0c0.266,0.111,0.533,0.222,0.797,0.332
			c0.573,0.573,1.146,1.146,1.719,1.719c0.552,1.192,0.552,2.382,0,3.574c-0.573,0.573-1.146,1.146-1.719,1.719
			c-0.266,0.111-0.533,0.222-0.797,0.332c-0.849,0-1.698,0-2.547,0c-0.266-0.111-0.533-0.222-0.797-0.332
			c-0.573-0.573-1.146-1.146-1.719-1.719C63.909,90.791,63.771,90.195,63.633,89.599c0.161,1.324,0.422,2.407,1.403,3.389
			c0.895,0.895,2.122,1.403,3.389,1.403c2.375,0,5.106-2.193,4.792-4.792c-0.13-1.085-0.209-2.135-0.895-3.049
			c-1.119-1.491-2.545-2.524-4.483-2.524c-1.378,0-2.762,0.581-3.735,1.554c-1.142,1.142-1.457,2.478-1.644,4.019
			c-0.107,0.882,0.368,2.348,0.895,3.049c1.119,1.491,2.545,2.524,4.483,2.524c1.378,0,2.762-0.581,3.734-1.554
			c1.142-1.142,1.457-2.478,1.644-4.019c0.314-2.599-2.417-4.792-4.792-4.792c-1.265,0-2.494,0.51-3.389,1.403
			C64.055,87.191,63.792,88.274,63.633,89.599z"/>
	</g>
</g>
<g>
	<ellipse fill="#FFFFFF" cx="139.577" cy="89.61" rx="0.586" ry="0.782"/>
	<g>
		<path d="M135.372,89.61c0.138-0.596,0.276-1.192,0.414-1.786c0.573-0.573,1.146-1.146,1.719-1.719
			c0.266-0.111,0.533-0.222,0.797-0.332c0.849,0,1.698,0,2.547,0c0.266,0.111,0.533,0.222,0.797,0.332
			c0.573,0.573,1.146,1.146,1.719,1.719c0.552,1.192,0.552,2.382,0,3.574c-0.573,0.573-1.146,1.146-1.719,1.719
			c-0.266,0.111-0.533,0.222-0.797,0.332c-0.849,0-1.698,0-2.547,0c-0.266-0.111-0.533-0.222-0.797-0.332
			c-0.573-0.573-1.146-1.146-1.719-1.719C135.648,90.802,135.51,90.206,135.372,89.61c0.161,1.324,0.422,2.407,1.403,3.389
			c0.895,0.895,2.122,1.403,3.389,1.403c2.375,0,5.106-2.193,4.792-4.792c-0.13-1.085-0.209-2.135-0.895-3.049
			c-1.119-1.491-2.545-2.524-4.483-2.524c-1.378,0-2.762,0.581-3.734,1.554c-1.142,1.142-1.457,2.478-1.644,4.019
			c-0.107,0.882,0.368,2.348,0.895,3.049c1.119,1.491,2.545,2.524,4.483,2.524c1.378,0,2.762-0.581,3.735-1.554
			c1.142-1.142,1.457-2.478,1.644-4.019c0.314-2.599-2.417-4.792-4.792-4.792c-1.265,0-2.494,0.51-3.389,1.403
			C135.793,87.205,135.533,88.286,135.372,89.61z"/>
	</g>
</g>
<g>
	<line fill="none" x1="107.801" y1="249.992" x2="106.178" y2="282.618"/>
	<g>
		<path d="M102.052,249.992c-0.542,10.875-1.083,21.752-1.625,32.626c-0.37,7.415,11.132,7.379,11.5,0
			c0.542-10.875,1.083-21.752,1.625-32.626C113.921,242.576,102.42,242.611,102.052,249.992L102.052,249.992z"/>
	</g>
</g>
</svg>
