<?xml version="1.0" encoding="utf-8"?>
<!-- Generator: Adobe Illustrator 17.1.0, SVG Export Plug-In . SVG Version: 6.00 Build 0)  -->
<!DOCTYPE svg PUBLIC "-//W3C//DTD SVG 1.1//EN" "http://www.w3.org/Graphics/SVG/1.1/DTD/svg11.dtd">
<svg version="1.1" id="Lager_1" xmlns="http://www.w3.org/2000/svg" xmlns:xlink="http://www.w3.org/1999/xlink" x="0px" y="0px"
	 viewBox="275 275 50 50" enable-background="new 275 275 50 50" xml:space="preserve">
<g>
	<g>
		<path fill="#FFFFFF" d="M286.339,302.992c0,0,0.139-4.1,0.75-5.568c0.611-1.468,1.83-2.708,3.8-2.656c0,0-1.325-2.562-1.094-4.231
			c0.143-1.03,1.461-2.119,2.991-1.751c0.925,0.223,2.115,0.802,3.574,2.48l-0.729,0.365l-0.146,2.845c0,0,2.602,1.155,3.209,3.064
			c0.511,1.605,0.535,2.708-1.532,5.252"/>
		<g>
			<path d="M286.552,302.992c0.047-1.378,0.151-2.77,0.385-4.129c0.151-0.874,0.405-1.67,0.927-2.398
				c0.641-0.893,1.63-1.428,2.726-1.482c0.099-0.005,0.198-0.004,0.297-0.002c0.169,0.003,0.256-0.182,0.184-0.321
				c-0.284-0.551-0.515-1.134-0.709-1.722c-0.287-0.866-0.645-2.05-0.166-2.906c0.26-0.465,0.725-0.803,1.221-0.979
				c0.525-0.186,1.067-0.143,1.591,0.016c0.954,0.289,1.773,0.905,2.482,1.588c0.251,0.242,0.487,0.498,0.717,0.76
				c0.014-0.112,0.029-0.223,0.043-0.335c-0.243,0.122-0.486,0.243-0.729,0.365c-0.068,0.034-0.102,0.112-0.106,0.184
				c-0.049,0.948-0.097,1.896-0.146,2.845c-0.003,0.068,0.042,0.156,0.106,0.184c0.462,0.206,0.901,0.479,1.314,0.771
				c0.764,0.54,1.498,1.257,1.798,2.165c0.232,0.703,0.369,1.428,0.201,2.16c-0.249,1.084-0.994,2.039-1.678,2.884
				c-0.171,0.212,0.129,0.516,0.302,0.302c0.702-0.868,1.412-1.803,1.738-2.887c0.22-0.733,0.156-1.482-0.043-2.21
				c-0.256-0.936-0.775-1.681-1.504-2.316c-0.536-0.466-1.143-0.86-1.779-1.175c-0.044-0.022-0.088-0.043-0.133-0.063
				c0.035,0.061,0.07,0.123,0.106,0.184c0.049-0.948,0.097-1.897,0.146-2.845c-0.035,0.061-0.07,0.123-0.106,0.184
				c0.243-0.122,0.486-0.243,0.729-0.365c0.13-0.065,0.128-0.238,0.043-0.335c-1.286-1.469-3.413-3.283-5.505-2.353
				c-0.47,0.209-0.872,0.573-1.146,1.004c-0.258,0.405-0.317,0.871-0.302,1.341c0.033,0.993,0.37,1.977,0.747,2.887
				c0.123,0.297,0.252,0.594,0.4,0.88c0.061-0.107,0.123-0.214,0.184-0.321c-1.105-0.02-2.136,0.364-2.925,1.143
				c-0.645,0.636-1.078,1.479-1.294,2.353c-0.381,1.546-0.469,3.187-0.537,4.773c-0.002,0.056-0.005,0.112-0.007,0.169
				C286.116,303.268,286.543,303.267,286.552,302.992L286.552,302.992z"/>
		</g>
	</g>
	<g>
		<path fill="#FFFFFF" d="M295.265,295.716c0,0,2.188,6.565,0.292,12.692l1.605,0.584l-8.242,0.584c0,0,1.532-9.701,1.24-12.619
			c0,0-0.526-0.235-1.135,1.244c-0.778,1.891-0.95,4.099-0.95,4.847"/>
		<g>
			<path d="M295.059,295.773c0.37,1.112,0.594,2.285,0.772,3.44c0.391,2.545,0.418,5.18-0.109,7.707
				c-0.101,0.483-0.226,0.96-0.371,1.432c-0.036,0.118,0.042,0.224,0.149,0.262c0.535,0.195,1.07,0.389,1.605,0.584
				c0.019-0.14,0.038-0.279,0.057-0.419c-2.359,0.167-4.718,0.334-7.076,0.501c-0.389,0.027-0.778,0.055-1.166,0.083
				c0.069,0.09,0.137,0.18,0.206,0.27c0.401-2.541,0.744-5.095,1.01-7.654c0.1-0.959,0.186-1.919,0.237-2.882
				c0.038-0.71,0.069-1.431,0-2.14c-0.007-0.069-0.034-0.154-0.106-0.184c-0.222-0.094-0.461-0.011-0.644,0.131
				c-0.579,0.446-0.838,1.269-1.059,1.933c-0.445,1.334-0.698,2.803-0.703,4.212c-0.001,0.275,0.426,0.275,0.427,0
				c0.004-1.22,0.216-2.46,0.545-3.632c0.191-0.68,0.416-1.46,0.878-2.01c0.092-0.11,0.209-0.214,0.329-0.245
				c0.058-0.016-0.042,0.002,0.011-0.003c0.017-0.002,0.035-0.001,0.052,0c-0.084-0.006,0.061,0.03-0.05-0.017
				c-0.035-0.061-0.07-0.123-0.106-0.184c0.14,1.442-0.036,2.935-0.173,4.371c-0.168,1.765-0.391,3.524-0.633,5.28
				c-0.134,0.972-0.274,1.943-0.426,2.912c-0.02,0.127,0.055,0.281,0.206,0.27c2.359-0.167,4.718-0.334,7.076-0.501
				c0.389-0.027,0.778-0.055,1.166-0.083c0.245-0.017,0.285-0.336,0.057-0.419c-0.535-0.195-1.07-0.389-1.605-0.584
				c0.05,0.087,0.099,0.175,0.149,0.262c0.79-2.578,0.921-5.317,0.655-7.988c-0.156-1.565-0.436-3.136-0.892-4.643
				c-0.018-0.058-0.036-0.117-0.055-0.175C295.384,295.4,294.972,295.511,295.059,295.773L295.059,295.773z"/>
		</g>
	</g>
	<g>
		<line fill="none" x1="293.077" y1="303.375" x2="292.493" y2="309.211"/>
		<g>
			<path d="M292.863,303.375c-0.195,1.945-0.389,3.89-0.584,5.835c-0.027,0.274,0.4,0.271,0.427,0
				c0.195-1.945,0.389-3.89,0.584-5.835C293.317,303.101,292.89,303.104,292.863,303.375L292.863,303.375z"/>
		</g>
	</g>
	<g>
		<line fill="none" x1="297.161" y1="301.187" x2="296.286" y2="302.281"/>
		<g>
			<path d="M297.011,301.036c-0.292,0.365-0.584,0.729-0.875,1.094c-0.17,0.213,0.13,0.517,0.302,0.302
				c0.292-0.365,0.584-0.729,0.875-1.094C297.482,301.125,297.183,300.821,297.011,301.036L297.011,301.036z"/>
		</g>
	</g>
	<g>
		<g>
			<path d="M295.668,297.797c0.306,0.193,0.592,0.454,0.805,0.746c0.165,0.227,0.279,0.483,0.268,0.767
				c-0.015,0.382-0.347,0.685-0.635,0.89c-0.222,0.158-0.009,0.528,0.215,0.368c0.376-0.267,0.721-0.604,0.822-1.071
				c0.078-0.357-0.029-0.718-0.208-1.026c-0.244-0.42-0.642-0.785-1.052-1.043C295.65,297.282,295.436,297.651,295.668,297.797
				L295.668,297.797z"/>
		</g>
	</g>
	<g>
		<g>
			<path d="M291.558,291.615c0.141,0.401,0.443,0.757,0.762,1.027c0.833,0.704,1.959,0.88,3.018,0.807
				c0.273-0.019,0.275-0.446,0-0.427c-0.959,0.066-1.986-0.066-2.745-0.706c-0.193-0.163-0.361-0.354-0.494-0.568
				c-0.041-0.066-0.078-0.134-0.111-0.204c-0.036-0.076,0.006,0.025-0.018-0.043C291.879,291.244,291.467,291.355,291.558,291.615
				L291.558,291.615z"/>
		</g>
	</g>
	<g>
		<ellipse fill="#FFFFFF" cx="293.898" cy="291.253" rx="0.023" ry="0.031"/>
		<g>
			<path d="M293.708,291.253c0,0.002,0,0.005-0.001,0.007c0.003-0.019,0.005-0.038,0.008-0.057
				c-0.001,0.002-0.001,0.004-0.002,0.006c0.007-0.017,0.014-0.034,0.022-0.051c-0.001,0.004-0.004,0.007-0.006,0.011
				c0.011-0.014,0.022-0.029,0.033-0.043c-0.001,0.001-0.003,0.002-0.004,0.004c0.014-0.011,0.029-0.022,0.043-0.033
				c-0.002,0.001-0.003,0.002-0.005,0.002c0.017-0.007,0.034-0.014,0.051-0.022c-0.002,0-0.004,0.001-0.005,0.001
				c0.038,0,0.076,0,0.113,0c-0.002,0-0.004-0.001-0.005-0.001c0.017,0.007,0.034,0.014,0.051,0.022
				c-0.002-0.001-0.003-0.002-0.005-0.002c0.014,0.011,0.029,0.022,0.043,0.033c-0.001-0.001-0.003-0.002-0.004-0.004
				c0.011,0.014,0.022,0.029,0.033,0.043c-0.003-0.003-0.005-0.007-0.006-0.011c0.007,0.017,0.014,0.034,0.022,0.051
				c-0.001-0.002-0.001-0.004-0.002-0.006c0.003,0.019,0.005,0.038,0.008,0.057c-0.001-0.005-0.001-0.009,0-0.014
				c-0.003,0.019-0.005,0.038-0.008,0.057c0.001-0.002,0.001-0.004,0.002-0.006c-0.007,0.017-0.014,0.034-0.022,0.051
				c0.001-0.004,0.004-0.007,0.006-0.011c-0.011,0.014-0.022,0.029-0.033,0.043c0.001-0.001,0.003-0.002,0.004-0.004
				c-0.014,0.011-0.029,0.022-0.043,0.033c0.002-0.001,0.003-0.002,0.005-0.002c-0.017,0.007-0.034,0.014-0.051,0.022
				c0.002,0,0.004-0.001,0.005-0.001c-0.038,0-0.076,0-0.113,0c0.002,0,0.004,0.001,0.005,0.001
				c-0.017-0.007-0.034-0.014-0.051-0.022c0.002,0.001,0.003,0.002,0.005,0.002c-0.014-0.011-0.029-0.022-0.043-0.033
				c0.001,0.001,0.003,0.002,0.004,0.004c-0.011-0.014-0.022-0.029-0.033-0.043c0.003,0.003,0.005,0.007,0.006,0.011
				c-0.007-0.017-0.014-0.034-0.022-0.051c0.001,0.002,0.001,0.004,0.002,0.006c-0.003-0.019-0.005-0.038-0.008-0.057
				C293.708,291.249,293.708,291.251,293.708,291.253c0.005,0.058,0.02,0.108,0.062,0.151c0.04,0.04,0.095,0.062,0.151,0.062
				c0.056,0,0.111-0.023,0.151-0.062c0.037-0.037,0.067-0.097,0.062-0.151c-0.004-0.045-0.009-0.094-0.038-0.132
				c-0.023-0.03-0.045-0.063-0.081-0.08c-0.041-0.02-0.071-0.032-0.118-0.032c-0.066,0-0.117,0.028-0.165,0.069
				c-0.05,0.043-0.066,0.114-0.071,0.175c-0.003,0.039,0.014,0.1,0.038,0.132c0.023,0.03,0.045,0.063,0.081,0.08
				c0.042,0.02,0.071,0.032,0.118,0.032c0.066,0,0.117-0.028,0.165-0.069c0.05-0.043,0.066-0.114,0.071-0.175
				c0.005-0.054-0.025-0.114-0.062-0.151c-0.04-0.04-0.095-0.062-0.151-0.062c-0.056,0-0.111,0.023-0.151,0.062
				C293.728,291.145,293.713,291.195,293.708,291.253z"/>
		</g>
	</g>
</g>
<g>
	<g>
		<path d="M286.945,301.912c-0.007,0.351-0.014,0.702-0.021,1.053c-0.005,0.275,0.421,0.275,0.427,0
			c0.007-0.351,0.014-0.702,0.021-1.053C287.377,301.637,286.951,301.637,286.945,301.912L286.945,301.912z"/>
	</g>
</g>
<g>
	<g>
		<path fill="#FFFFFF" d="M291.071,308.425c-0.101,0.397-7.579,0.35-7.729,0s-0.242-4.196,0-4.424c0.242-0.228,7.439-0.343,7.729,0
			C291.361,304.344,291.172,308.029,291.071,308.425z"/>
		<g>
			<path d="M290.865,308.369c0.015-0.045,0.072-0.094,0.055-0.084c-0.038,0.023,0.045-0.014-0.023,0.01
				c-0.073,0.025-0.149,0.038-0.225,0.052c-0.215,0.038-0.447,0.056-0.68,0.073c-0.705,0.052-1.414,0.066-2.121,0.072
				c-1.338,0.012-2.768,0.04-4.071-0.149c-0.078-0.011-0.156-0.025-0.232-0.043c-0.027-0.007-0.055-0.014-0.081-0.023
				c-0.02-0.007-0.006-0.003,0.02,0.018c0.009,0.007,0.048,0.11,0.027,0.031c-0.009-0.035-0.015-0.071-0.021-0.107
				c-0.016-0.096-0.027-0.231-0.036-0.349c-0.064-0.78-0.075-1.567-0.068-2.35c0.004-0.35,0.013-0.701,0.044-1.049
				c0.009-0.097,0.02-0.19,0.042-0.285c0.011-0.048,0.023-0.068,0.014-0.051c-0.007,0.014-0.064,0.052-0.069,0.054
				c0.156-0.055,0.24-0.047,0.402-0.063c0.268-0.026,0.537-0.042,0.806-0.056c1.531-0.079,3.071-0.094,4.603-0.05
				c0.513,0.015,1.079,0.02,1.554,0.112c0.032,0.006,0.063,0.014,0.094,0.022c0.051,0.014,0.042,0.014,0.026,0.007
				c0.061,0.029-0.042-0.056-0.025-0.03c0.016,0.024,0.011,0.019,0.028,0.086c0.071,0.276,0.068,0.576,0.076,0.859
				c0.02,0.669-0.002,1.34-0.034,2.009C290.952,307.497,290.951,308.01,290.865,308.369c-0.064,0.267,0.347,0.381,0.411,0.113
				c0.137-0.572,0.117-1.215,0.139-1.798c0.03-0.764,0.065-1.55-0.03-2.311c-0.025-0.203-0.048-0.437-0.223-0.569
				c-0.106-0.08-0.281-0.094-0.407-0.111c-0.583-0.082-1.177-0.094-1.765-0.108c-1.519-0.035-3.046-0.02-4.564,0.069
				c-0.37,0.022-0.828,0-1.175,0.151c-0.159,0.069-0.183,0.307-0.203,0.454c-0.044,0.323-0.056,0.649-0.064,0.974
				c-0.02,0.801-0.004,1.606,0.046,2.406c0.022,0.345-0.042,0.927,0.365,1.055c0.431,0.136,0.932,0.133,1.379,0.159
				c0.743,0.044,1.487,0.059,2.231,0.065c0.947,0.007,1.897-0.003,2.842-0.063c0.32-0.02,0.641-0.046,0.956-0.101
				c0.178-0.031,0.405-0.077,0.47-0.271C291.364,308.22,290.952,308.109,290.865,308.369z"/>
		</g>
	</g>
	<g>
		<path fill="#FFFFFF" d="M285.647,303.503c0-0.257,0.174-0.654,0.448-0.822"/>
		<g>
			<path d="M285.861,303.503c0.007-0.238,0.142-0.505,0.343-0.638c0.228-0.151,0.015-0.521-0.215-0.368
				c-0.329,0.218-0.542,0.612-0.554,1.007C285.426,303.778,285.852,303.777,285.861,303.503L285.861,303.503z"/>
		</g>
	</g>
	<g>
		<path fill="#FFFFFF" d="M288.293,302.715c0.331,0.145,0.389,0.882,0.385,0.91"/>
		<g>
			<path d="M288.186,302.899c0.208,0.105,0.289,0.514,0.279,0.726c-0.012,0.275,0.414,0.274,0.427,0
				c0.016-0.363-0.146-0.922-0.49-1.094C288.156,302.408,287.94,302.776,288.186,302.899L288.186,302.899z"/>
		</g>
	</g>
</g>
<g>
	<g>
		<path fill="#FFFFFF" d="M314.044,303.084c0,0-0.139-4.1-0.75-5.568c-0.611-1.468-1.83-2.708-3.8-2.656
			c0,0,1.325-2.562,1.094-4.231c-0.143-1.03-1.461-2.119-2.991-1.751c-0.925,0.223-2.115,0.802-3.574,2.48l0.729,0.365l0.146,2.845
			c0,0-2.602,1.155-3.209,3.064c-0.511,1.605-0.535,2.708,1.532,5.252"/>
		<g>
			<path d="M314.257,303.084c-0.047-1.381-0.157-2.772-0.382-4.136c-0.143-0.862-0.374-1.664-0.85-2.406
				c-0.562-0.874-1.406-1.529-2.419-1.783c-0.362-0.09-0.739-0.12-1.111-0.113c0.061,0.107,0.123,0.214,0.184,0.321
				c0.282-0.548,0.514-1.127,0.714-1.709c0.305-0.89,0.626-2.01,0.342-2.944c-0.31-1.017-1.381-1.652-2.394-1.719
				c-0.901-0.06-1.835,0.389-2.564,0.877c-0.716,0.479-1.338,1.089-1.904,1.735c-0.085,0.097-0.087,0.27,0.043,0.335
				c0.243,0.122,0.486,0.243,0.729,0.365c-0.035-0.061-0.07-0.123-0.106-0.184c0.049,0.948,0.097,1.896,0.146,2.845
				c0.035-0.061,0.07-0.123,0.106-0.184c-0.462,0.206-0.901,0.479-1.314,0.771c-0.766,0.541-1.486,1.227-1.87,2.097
				c-0.302,0.684-0.478,1.503-0.402,2.251c0.098,0.961,0.606,1.825,1.151,2.599c0.226,0.32,0.467,0.629,0.714,0.934
				c0.173,0.214,0.473-0.09,0.302-0.302c-0.69-0.853-1.412-1.798-1.678-2.884c-0.179-0.732-0.021-1.457,0.201-2.16
				c0.288-0.911,1.041-1.624,1.798-2.165c0.41-0.294,0.852-0.565,1.314-0.771c0.064-0.029,0.109-0.116,0.106-0.184
				c-0.049-0.948-0.097-1.897-0.146-2.845c-0.004-0.072-0.037-0.15-0.106-0.184c-0.243-0.122-0.486-0.243-0.729-0.365
				c0.014,0.112,0.029,0.223,0.043,0.335c1.226-1.401,3.647-3.517,5.542-1.938c0.374,0.311,0.634,0.736,0.676,1.224
				c0.044,0.508-0.046,1.022-0.165,1.513c-0.193,0.801-0.497,1.58-0.856,2.32c-0.02,0.041-0.04,0.082-0.061,0.123
				c-0.072,0.139,0.015,0.324,0.184,0.321c1.133-0.021,2.136,0.423,2.869,1.287c0.583,0.686,0.875,1.516,1.043,2.386
				c0.274,1.419,0.371,2.884,0.423,4.327c0,0.004,0,0.007,0,0.011C313.84,303.359,314.266,303.36,314.257,303.084L314.257,303.084z"
				/>
		</g>
	</g>
	<g>
		<path fill="#FFFFFF" d="M305.118,295.808c0,0-2.188,6.565-0.292,12.692l-1.605,0.584l8.242,0.584c0,0-1.532-9.701-1.24-12.619
			c0,0,0.526-0.235,1.135,1.244c0.778,1.891,0.95,4.099,0.95,4.847"/>
		<g>
			<path d="M304.912,295.752c-0.37,1.112-0.594,2.285-0.772,3.44c-0.386,2.513-0.429,5.092,0.041,7.597
				c0.112,0.597,0.26,1.188,0.438,1.768c0.05-0.087,0.099-0.175,0.149-0.262c-0.535,0.195-1.07,0.389-1.605,0.584
				c-0.228,0.083-0.188,0.402,0.057,0.419c2.359,0.167,4.718,0.334,7.076,0.501c0.389,0.027,0.778,0.055,1.166,0.083
				c0.151,0.011,0.226-0.143,0.206-0.27c-0.401-2.54-0.744-5.092-1.006-7.65c-0.096-0.938-0.179-1.878-0.229-2.819
				c-0.036-0.695-0.065-1.399,0.002-2.093c-0.035,0.061-0.07,0.123-0.106,0.184c-0.092,0.039-0.041,0.017-0.014,0.012
				c-0.097,0.018,0.069,0.015,0.008,0.004c0.121,0.021,0.223,0.115,0.317,0.216c0.231,0.246,0.381,0.579,0.51,0.886
				c0.158,0.376,0.285,0.766,0.398,1.158c0.336,1.167,0.541,2.415,0.545,3.632c0.001,0.275,0.428,0.275,0.427,0
				c-0.004-1.414-0.267-2.871-0.703-4.212c-0.211-0.649-0.469-1.448-1.016-1.899c-0.191-0.158-0.446-0.266-0.687-0.164
				c-0.071,0.03-0.099,0.115-0.106,0.184c-0.14,1.442,0.036,2.935,0.173,4.371c0.169,1.772,0.393,3.538,0.636,5.301
				c0.138,1.003,0.281,2.005,0.439,3.005c0.069-0.09,0.137-0.18,0.206-0.27c-2.359-0.167-4.718-0.334-7.076-0.501
				c-0.389-0.028-0.778-0.055-1.166-0.083c0.019,0.14,0.038,0.279,0.057,0.419c0.535-0.195,1.07-0.389,1.605-0.584
				c0.107-0.039,0.185-0.145,0.149-0.262c-0.793-2.589-0.907-5.333-0.625-8.013c0.158-1.5,0.436-3.007,0.88-4.45
				c0.012-0.039,0.024-0.077,0.037-0.115C305.41,295.603,304.998,295.492,304.912,295.752L304.912,295.752z"/>
		</g>
	</g>
	<g>
		<line fill="none" x1="307.306" y1="303.467" x2="307.89" y2="309.303"/>
		<g>
			<path d="M307.093,303.467c0.195,1.945,0.389,3.89,0.584,5.835c0.027,0.271,0.454,0.274,0.427,0
				c-0.195-1.945-0.389-3.89-0.584-5.835C307.492,303.196,307.065,303.194,307.093,303.467L307.093,303.467z"/>
		</g>
	</g>
	<g>
		<line fill="none" x1="303.221" y1="301.279" x2="304.097" y2="302.373"/>
		<g>
			<path d="M303.07,301.43c0.292,0.365,0.584,0.729,0.875,1.094c0.172,0.215,0.472-0.089,0.302-0.302
				c-0.292-0.365-0.584-0.729-0.875-1.094C303.2,300.913,302.9,301.217,303.07,301.43L303.07,301.43z"/>
		</g>
	</g>
	<g>
		<g>
			<path d="M304.499,297.521c-0.415,0.261-0.797,0.624-1.052,1.043c-0.19,0.312-0.27,0.666-0.208,1.026
				c0.079,0.462,0.46,0.813,0.822,1.071c0.225,0.16,0.438-0.21,0.215-0.368c-0.299-0.213-0.603-0.503-0.635-0.89
				c-0.023-0.282,0.111-0.543,0.268-0.767c0.205-0.294,0.501-0.555,0.805-0.746C304.947,297.743,304.733,297.374,304.499,297.521
				L304.499,297.521z"/>
		</g>
	</g>
	<g>
		<g>
			<path d="M308.413,291.594c-0.024,0.068,0.015-0.031-0.013,0.031c-0.031,0.068-0.067,0.133-0.105,0.196
				c-0.134,0.224-0.31,0.416-0.506,0.587c-0.746,0.647-1.797,0.772-2.745,0.706c-0.275-0.019-0.273,0.408,0,0.427
				c1.071,0.074,2.171-0.111,3.018-0.807c0.321-0.264,0.622-0.629,0.762-1.027C308.916,291.447,308.504,291.336,308.413,291.594
				L308.413,291.594z"/>
		</g>
	</g>
	<g>
		<ellipse fill="#FFFFFF" cx="306.484" cy="291.346" rx="0.023" ry="0.031"/>
		<g>
			<path d="M306.248,291.346c0.004,0.045,0.009,0.094,0.038,0.132c0.023,0.03,0.045,0.063,0.081,0.08
				c0.041,0.02,0.071,0.032,0.118,0.032c0.066,0,0.117-0.028,0.165-0.069c0.05-0.043,0.066-0.114,0.071-0.175
				c0.003-0.039-0.014-0.1-0.038-0.132c-0.023-0.03-0.045-0.063-0.081-0.08c-0.041-0.02-0.071-0.032-0.118-0.032
				c-0.066,0-0.117,0.028-0.165,0.069C306.269,291.213,306.253,291.284,306.248,291.346c-0.005,0.054,0.025,0.114,0.062,0.151
				c0.04,0.04,0.094,0.062,0.151,0.062s0.111-0.023,0.151-0.062c0.043-0.043,0.057-0.092,0.062-0.151c0-0.002,0-0.005,0.001-0.007
				c-0.003,0.019-0.005,0.038-0.008,0.057c0.001-0.002,0.001-0.004,0.002-0.006c-0.007,0.017-0.014,0.034-0.022,0.051
				c0.001-0.004,0.004-0.007,0.006-0.011c-0.011,0.014-0.022,0.029-0.033,0.043c0.001-0.001,0.003-0.002,0.004-0.004
				c-0.014,0.011-0.029,0.022-0.043,0.033c0.002-0.001,0.003-0.002,0.005-0.002c-0.017,0.007-0.034,0.014-0.051,0.022
				c0.002,0,0.004-0.001,0.005-0.001c-0.038,0-0.076,0-0.113,0c0.002,0,0.004,0.001,0.005,0.001
				c-0.017-0.007-0.034-0.014-0.051-0.022c0.002,0.001,0.003,0.002,0.005,0.002c-0.014-0.011-0.029-0.022-0.043-0.033
				c0.001,0.001,0.003,0.002,0.004,0.004c-0.011-0.014-0.022-0.029-0.033-0.043c0.003,0.003,0.005,0.007,0.006,0.011
				c-0.007-0.017-0.014-0.034-0.022-0.051c0.001,0.002,0.001,0.004,0.002,0.006c-0.003-0.019-0.005-0.038-0.008-0.057
				c0.001,0.005,0.001,0.009,0,0.014c0.003-0.019,0.005-0.038,0.008-0.057c-0.001,0.002-0.001,0.004-0.002,0.006
				c0.007-0.017,0.014-0.034,0.022-0.051c-0.001,0.004-0.004,0.007-0.006,0.011c0.011-0.014,0.022-0.029,0.033-0.043
				c-0.001,0.001-0.003,0.002-0.004,0.004c0.014-0.011,0.029-0.022,0.043-0.033c-0.002,0.001-0.003,0.002-0.005,0.002
				c0.017-0.007,0.034-0.014,0.051-0.022c-0.002,0-0.004,0.001-0.005,0.001c0.038,0,0.076,0,0.113,0
				c-0.002,0-0.004-0.001-0.005-0.001c0.017,0.007,0.034,0.014,0.051,0.022c-0.002-0.001-0.003-0.002-0.005-0.002
				c0.014,0.011,0.029,0.022,0.043,0.033c-0.001-0.001-0.003-0.002-0.004-0.004c0.011,0.014,0.022,0.029,0.033,0.043
				c-0.003-0.003-0.005-0.007-0.006-0.011c0.007,0.017,0.014,0.034,0.022,0.051c-0.001-0.002-0.001-0.004-0.002-0.006
				c0.003,0.019,0.005,0.038,0.008,0.057c0-0.002,0-0.005-0.001-0.007c-0.005-0.058-0.02-0.108-0.062-0.151
				c-0.04-0.04-0.094-0.062-0.151-0.062s-0.111,0.023-0.151,0.062C306.274,291.232,306.243,291.292,306.248,291.346z"/>
		</g>
	</g>
</g>
<g>
	<g>
		<path d="M313.011,302.004c0.007,0.351,0.014,0.702,0.021,1.053c0.005,0.275,0.432,0.275,0.427,0
			c-0.007-0.351-0.014-0.702-0.021-1.053C313.432,301.73,313.005,301.729,313.011,302.004L313.011,302.004z"/>
	</g>
</g>
<g>
	<g>
		<path fill="#FFFFFF" d="M309.312,308.518c0.101,0.397,7.579,0.35,7.729,0c0.15-0.35,0.242-4.196,0-4.424
			c-0.242-0.228-7.439-0.343-7.729,0C309.021,304.436,309.211,308.121,309.312,308.518z"/>
		<g>
			<path d="M309.106,308.574c0.107,0.319,0.7,0.31,0.96,0.336c0.656,0.065,1.317,0.081,1.976,0.093
				c1.432,0.026,2.884,0.031,4.31-0.116c0.269-0.028,0.807-0.018,0.905-0.345c0.066-0.218,0.068-0.468,0.085-0.694
				c0.027-0.377,0.041-0.755,0.051-1.133c0.019-0.746,0.037-1.506-0.045-2.25c-0.02-0.185-0.032-0.444-0.202-0.56
				c-0.107-0.073-0.273-0.078-0.395-0.094c-0.551-0.073-1.113-0.086-1.668-0.107c-0.792-0.029-1.584-0.041-2.377-0.042
				c-0.736-0.001-1.473,0.007-2.208,0.045c-0.396,0.02-0.887,0.001-1.255,0.174c-0.232,0.109-0.238,0.502-0.259,0.714
				c-0.048,0.482-0.042,0.971-0.035,1.455c0.008,0.527,0.029,1.055,0.063,1.581C309.03,307.942,309.033,308.272,309.106,308.574
				c0.064,0.268,0.476,0.154,0.411-0.113c-0.041-0.172-0.05-0.405-0.067-0.622c-0.029-0.388-0.047-0.776-0.061-1.165
				c-0.026-0.735-0.075-1.51,0.039-2.241c0.008-0.05,0.018-0.099,0.03-0.147c0.017-0.067,0.003-0.029,0.023-0.064
				c-0.021,0.037-0.082,0.046,0.015,0.02c0.188-0.051,0.333-0.057,0.531-0.074c0.666-0.057,1.336-0.066,2.004-0.073
				c1.455-0.015,2.922-0.009,4.373,0.11c0.198,0.016,0.32,0.023,0.486,0.06c0.021,0.005,0.041,0.01,0.061,0.017
				c-0.029-0.01-0.069-0.044-0.077-0.057c-0.009-0.015,0.002,0.002,0.014,0.051c0.014,0.053,0.022,0.108,0.029,0.162
				c0.103,0.709,0.066,1.462,0.051,2.178c-0.008,0.386-0.023,0.771-0.048,1.156c-0.015,0.228-0.019,0.451-0.075,0.658
				c-0.011,0.04,0.036-0.052,0.062-0.069c-0.049,0.034,0.041-0.012-0.012,0.007c-0.066,0.024-0.137,0.037-0.206,0.049
				c-0.207,0.038-0.423,0.055-0.65,0.073c-1.477,0.118-2.97,0.117-4.45,0.077c-0.508-0.014-1.016-0.034-1.522-0.083
				c-0.164-0.016-0.293-0.03-0.456-0.064c-0.051-0.011-0.101-0.024-0.15-0.041c-0.028-0.01,0.044,0.025-0.006-0.005
				c0.012,0.007,0.047,0.04,0.063,0.089C309.43,308.201,309.018,308.313,309.106,308.574z"/>
		</g>
	</g>
	<g>
		<path fill="#FFFFFF" d="M314.736,303.595c0-0.257-0.174-0.654-0.448-0.822"/>
		<g>
			<path d="M314.949,303.595c-0.012-0.395-0.225-0.788-0.554-1.007c-0.23-0.152-0.444,0.217-0.215,0.368
				c0.2,0.133,0.335,0.4,0.343,0.638C314.53,303.87,314.957,303.87,314.949,303.595L314.949,303.595z"/>
		</g>
	</g>
	<g>
		<path fill="#FFFFFF" d="M312.089,302.807c-0.331,0.145-0.389,0.882-0.385,0.91"/>
		<g>
			<path d="M311.982,302.623c-0.345,0.173-0.507,0.731-0.49,1.094c0.012,0.274,0.439,0.275,0.427,0
				c-0.01-0.212,0.071-0.621,0.279-0.726C312.443,302.868,312.227,302.5,311.982,302.623L311.982,302.623z"/>
		</g>
	</g>
</g>
</svg>
