<?xml version="1.0" encoding="utf-8"?>
<!-- Generator: Adobe Illustrator 17.1.0, SVG Export Plug-In . SVG Version: 6.00 Build 0)  -->
<!DOCTYPE svg PUBLIC "-//W3C//DTD SVG 1.1//EN" "http://www.w3.org/Graphics/SVG/1.1/DTD/svg11.dtd">
<svg version="1.1" id="Lager_1" xmlns="http://www.w3.org/2000/svg" xmlns:xlink="http://www.w3.org/1999/xlink" x="0px" y="0px"
	 viewBox="0 0 50 50" enable-background="new 0 0 50 50" xml:space="preserve">
<g>
	<g>
		<path fill="#FFFFFF" d="M15.123,31.42c0,0,3.053-0.16,1.608-3.371c-0.717-1.593-1.677-4.097-0.642-6.583s3.019-4.372,6.416-3.569
			c0,0-2.244-4.337-1.852-7.163c0.242-1.743,2.474-3.588,5.064-2.964c1.566,0.377,3.582,1.358,6.052,4.199l-1.234,0.618
			l-0.247,4.817c0,0,4.406,1.955,5.434,5.187c0.865,2.717,0.907,4.584-2.594,8.892"/>
		<g>
			<path d="M15.123,31.74c0.714-0.035,0.831-0.252,1.411-0.675c1.333-0.974,0.753-2.485,0.229-3.739
				c-0.472-1.133-0.792-2.32-0.808-3.551c-0.018-1.279,0.462-2.489,1.148-3.549c1.202-1.857,3.203-2.49,5.316-2.019
				c0.279,0.063,0.493-0.216,0.361-0.47c-0.504-0.979-0.909-2.014-1.248-3.059c-0.543-1.67-1.114-3.826,0.119-5.318
				c1.292-1.563,3.337-1.613,5.09-0.926c1.91,0.748,3.469,2.248,4.8,3.762c0.021-0.168,0.043-0.335,0.065-0.503
				c-0.412,0.206-0.823,0.412-1.234,0.618c-0.103,0.051-0.153,0.168-0.158,0.276c-0.083,1.605-0.164,3.211-0.247,4.817
				c-0.005,0.101,0.063,0.233,0.158,0.276c2.155,0.964,4.51,2.687,5.287,4.996c0.401,1.194,0.622,2.434,0.34,3.679
				c-0.416,1.84-1.694,3.468-2.851,4.901c-0.257,0.318,0.193,0.773,0.452,0.452c1.222-1.515,2.469-3.152,2.985-5.062
				c0.366-1.35,0.133-2.709-0.271-4.019c-0.781-2.536-3.272-4.451-5.619-5.501c0.053,0.093,0.105,0.184,0.158,0.276
				c0.083-1.605,0.164-3.211,0.247-4.817c-0.053,0.093-0.105,0.184-0.158,0.276c0.412-0.206,0.823-0.412,1.234-0.618
				c0.195-0.098,0.193-0.357,0.065-0.503c-2.455-2.793-7.227-6.515-10.686-2.957c-1.435,1.475-1.075,3.617-0.584,5.42
				c0.36,1.322,0.877,2.634,1.505,3.853c0.12-0.157,0.241-0.313,0.361-0.47c-1.863-0.415-3.679-0.125-5.11,1.192
				c-1.533,1.411-2.291,3.618-2.133,5.662c0.086,1.115,0.442,2.194,0.871,3.221c0.313,0.752,0.783,1.614,0.363,2.419
				c-0.363,0.697-0.722,0.982-1.456,1.019C14.712,31.121,14.71,31.761,15.123,31.74L15.123,31.74z"/>
		</g>
	</g>
	<g>
		<path fill="#FFFFFF" d="M29.914,19.503c0,0,3.704,11.116,0.494,21.489l2.717,0.987L19.17,42.967c0,0,2.594-16.425,2.099-21.365
			c0,0-2.575-0.013-2.451,3.075c0.124,3.088,4.942,8.022-3.533,9.954"/>
		<g>
			<path d="M29.606,19.588c0.724,2.182,1.143,4.496,1.44,6.77c0.634,4.845,0.485,9.854-0.946,14.549
				c-0.054,0.177,0.063,0.336,0.223,0.393c0.906,0.33,1.811,0.659,2.717,0.987c0.029-0.209,0.056-0.419,0.085-0.628
				c-4.652,0.33-9.304,0.659-13.955,0.987c0.103,0.135,0.206,0.269,0.308,0.405c0.464-2.94,0.868-5.89,1.237-8.842
				c0.297-2.379,0.563-4.762,0.751-7.151c0.142-1.802,0.294-3.652,0.123-5.456c-0.016-0.173-0.133-0.321-0.32-0.32
				c-1.035,0.004-2.004,0.642-2.451,1.561c-0.685,1.409-0.174,2.966,0.322,4.336c0.454,1.254,1.053,2.652,0.757,4.01
				c-0.439,2.02-2.976,2.731-4.697,3.134c-0.402,0.094-0.232,0.711,0.17,0.617c1.773-0.416,3.899-1.074,4.842-2.783
				c0.664-1.203,0.382-2.638-0.01-3.877c-0.393-1.241-1.039-2.469-1.069-3.792c-0.029-1.277,0.747-2.561,2.135-2.566
				c-0.107-0.107-0.213-0.213-0.32-0.32c0.168,1.761,0.021,3.562-0.112,5.32c-0.18,2.387-0.45,4.767-0.744,7.143
				c-0.363,2.945-0.771,5.886-1.233,8.819c-0.03,0.19,0.081,0.421,0.308,0.405c4.652-0.33,9.304-0.659,13.955-0.987
				c0.367-0.026,0.427-0.504,0.085-0.628c-0.906-0.33-1.811-0.659-2.717-0.987c0.074,0.132,0.149,0.262,0.223,0.393
				c1.449-4.757,1.59-9.811,0.969-14.72c-0.296-2.33-0.721-4.704-1.462-6.94C30.094,19.028,29.476,19.194,29.606,19.588
				L29.606,19.588z"/>
		</g>
	</g>
	<g>
		<line fill="none" x1="26.209" y1="32.47" x2="25.221" y2="42.35"/>
		<g>
			<path d="M25.889,32.47c-0.33,3.293-0.659,6.587-0.987,9.88c-0.041,0.411,0.599,0.406,0.64,0c0.33-3.293,0.659-6.587,0.987-9.88
				C26.571,32.059,25.931,32.063,25.889,32.47L25.889,32.47z"/>
		</g>
	</g>
	<g>
		<line fill="none" x1="33.125" y1="28.765" x2="31.644" y2="30.618"/>
		<g>
			<path d="M33.193,28.025c-0.505,0.632-0.979,1.224-1.483,1.852c-0.256,0.318,0.194,0.774,0.452,0.452
				c0.494-0.618,0.987-1.234,1.483-1.852C33.9,28.159,33.451,27.703,33.193,28.025L33.193,28.025z"/>
		</g>
	</g>
	<g>
		<g>
			<path d="M30.618,22.99c0.48,0.303,0.907,0.701,1.269,1.135c0.912,1.093,0.575,2.208-0.529,3.005
				c-0.331,0.239-0.013,0.795,0.323,0.553c1.162-0.84,1.788-2.004,1.098-3.367c-0.388-0.766-1.119-1.424-1.838-1.878
				C30.59,22.217,30.269,22.771,30.618,22.99L30.618,22.99z"/>
		</g>
	</g>
	<g>
		<g>
			<path d="M23.522,14.227c0.264,0.467,0.788,0.81,1.246,1.055c1.525,0.82,3.4,0.865,5.082,0.749c0.41-0.028,0.412-0.668,0-0.64
				c-1.559,0.107-3.238,0.079-4.674-0.619c-0.4-0.194-0.914-0.536-1.102-0.868C23.872,13.545,23.319,13.867,23.522,14.227
				L23.522,14.227z"/>
		</g>
	</g>
	<g>
		<ellipse fill="#FFFFFF" cx="27.6" cy="11.946" rx="0.039" ry="0.053"/>
		<g>
			<path d="M27.319,11.946c0.009-0.04,0.019-0.08,0.028-0.119c0.039-0.039,0.076-0.076,0.115-0.115
				c0.018-0.008,0.035-0.015,0.053-0.023c0.056,0,0.113,0,0.17,0c0.018,0.008,0.035,0.015,0.053,0.023
				c0.039,0.039,0.076,0.076,0.115,0.115c0.036,0.08,0.036,0.159,0,0.238c-0.039,0.039-0.076,0.076-0.115,0.115
				c-0.018,0.008-0.035,0.015-0.053,0.023c-0.056,0-0.113,0-0.17,0c-0.018-0.008-0.035-0.015-0.053-0.023
				c-0.039-0.039-0.076-0.076-0.115-0.115C27.338,12.026,27.329,11.986,27.319,11.946c0.011,0.089,0.028,0.16,0.094,0.227
				c0.06,0.06,0.142,0.094,0.227,0.094c0.159,0,0.341-0.147,0.32-0.32c-0.009-0.073-0.014-0.143-0.06-0.203
				c-0.075-0.099-0.17-0.169-0.3-0.169c-0.091,0-0.184,0.039-0.249,0.104c-0.076,0.076-0.098,0.165-0.11,0.268
				c-0.008,0.059,0.025,0.157,0.06,0.204c0.075,0.099,0.17,0.169,0.3,0.169c0.091,0,0.184-0.039,0.249-0.104
				c0.076-0.076,0.098-0.165,0.11-0.268c0.021-0.173-0.162-0.32-0.32-0.32c-0.084,0-0.167,0.034-0.227,0.094
				C27.348,11.786,27.33,11.858,27.319,11.946z"/>
		</g>
	</g>
	<g>
		<ellipse fill="#020202" cx="24.684" cy="22.798" rx="0.105" ry="0.14"/>
		<g>
			<path d="M24.601,22.798c0.003-0.044-0.013,0.028,0.006-0.015c-0.011,0.019-0.01,0.018,0.004-0.003
				c0.019-0.02,0.043-0.03,0.073-0.03c0.044-0.004,0.063,0.018,0.084,0.046c-0.01-0.018-0.01-0.018,0,0.003
				c-0.005-0.021-0.005-0.021,0-0.001c-0.001,0.005-0.003,0.01-0.004,0.015c0.006-0.021,0.005-0.021-0.004,0
				c0.011-0.019,0.01-0.018-0.004,0.003c-0.019,0.02-0.043,0.03-0.073,0.03C24.64,22.85,24.621,22.828,24.6,22.8
				C24.61,22.818,24.61,22.818,24.601,22.798C24.605,22.82,24.605,22.82,24.601,22.798c0.005,0.103,0.081,0.188,0.188,0.188
				c0.099,0,0.193-0.085,0.188-0.188c-0.008-0.174-0.113-0.313-0.293-0.328c-0.074-0.006-0.154,0.039-0.203,0.09
				c-0.061,0.065-0.086,0.15-0.09,0.238c-0.009,0.174,0.125,0.315,0.293,0.328c0.074,0.006,0.154-0.039,0.203-0.09
				c0.061-0.065,0.086-0.15,0.09-0.238c0.005-0.103-0.089-0.188-0.188-0.188C24.683,22.61,24.605,22.697,24.601,22.798z"/>
		</g>
	</g>
	<g>
		<ellipse fill="#020202" cx="28.832" cy="22.881" rx="0.105" ry="0.14"/>
		<g>
			<path d="M28.749,22.881c0.003-0.044-0.013,0.028,0.006-0.015c-0.011,0.019-0.01,0.018,0.004-0.003
				c0.019-0.02,0.043-0.03,0.073-0.03c0.044-0.004,0.063,0.018,0.084,0.046c-0.01-0.018-0.01-0.018,0,0.003
				c-0.005-0.021-0.005-0.021,0-0.001c-0.001,0.005-0.003,0.01-0.004,0.015c0.006-0.021,0.005-0.021-0.004,0
				c0.011-0.019,0.01-0.018-0.004,0.003c-0.019,0.02-0.043,0.03-0.073,0.03c-0.044,0.004-0.063-0.018-0.084-0.046
				C28.759,22.901,28.759,22.901,28.749,22.881C28.754,22.902,28.754,22.902,28.749,22.881c0.005,0.103,0.081,0.188,0.188,0.188
				c0.099,0,0.193-0.085,0.188-0.188c-0.008-0.174-0.113-0.313-0.293-0.328c-0.074-0.006-0.154,0.039-0.203,0.09
				c-0.061,0.065-0.086,0.15-0.09,0.238c-0.009,0.174,0.125,0.315,0.293,0.328c0.074,0.006,0.154-0.039,0.203-0.09
				c0.061-0.065,0.086-0.15,0.09-0.238c0.005-0.103-0.089-0.188-0.188-0.188C28.832,22.693,28.754,22.78,28.749,22.881z"/>
		</g>
	</g>
</g>
<g>
	<g>
		<path d="M15.344,33.279c0.94-0.079,1.37-0.595,2.164-1.036c0.361-0.201,0.039-0.753-0.323-0.553
			c-0.618,0.342-1.247,0.675-1.912,0.92c-0.065,0.024-0.135,0.263-0.101,0.425C15.207,33.196,15.344,33.279,15.344,33.279z"/>
	</g>
</g>
<g>
	<path d="M21.122,10.806c0,0,5.421,3.848,9.053,3.578l0.271-1.843l1.193-0.543l-1.518-1.518l-8.89-0.759L21.122,10.806z"/>
	<g>
		<path d="M20.961,11.083c1.044,0.739,2.165,1.382,3.305,1.961c1.793,0.914,3.857,1.782,5.91,1.659
			c0.129-0.008,0.287-0.09,0.308-0.234c0.083-0.561,0.165-1.122,0.247-1.682c0.036-0.249,0.054-0.05-0.11,0.024
			c0.122-0.055,0.243-0.11,0.363-0.165c0.272-0.124,0.544-0.247,0.815-0.371c0.19-0.086,0.199-0.368,0.065-0.503
			c-0.34-0.34-0.678-0.678-1.016-1.016c-0.209-0.209-0.447-0.57-0.764-0.598c-0.871-0.074-1.742-0.149-2.613-0.223
			c-2.08-0.178-4.159-0.355-6.24-0.533c-0.187-0.016-0.303,0.158-0.32,0.32c-0.036,0.361-0.073,0.723-0.109,1.084
			c-0.041,0.411,0.599,0.406,0.64,0c0.036-0.361,0.073-0.723,0.109-1.084c-0.107,0.107-0.213,0.213-0.32,0.32
			c2.001,0.17,4.001,0.342,6.003,0.513c0.914,0.078,1.827,0.155,2.741,0.234c0.241,0.02,0.059,0.058-0.073-0.075
			c0.138,0.138,0.276,0.276,0.414,0.414c0.366,0.366,0.732,0.732,1.098,1.098c0.021-0.168,0.043-0.335,0.065-0.503
			c-0.286,0.13-1.287,0.38-1.341,0.744c-0.09,0.61-0.179,1.222-0.269,1.832c0.103-0.078,0.206-0.157,0.308-0.234
			c-2.049,0.123-4.087-0.796-5.865-1.716c-1.043-0.539-2.068-1.14-3.026-1.82C20.947,10.291,20.627,10.846,20.961,11.083z"/>
	</g>
</g>
<g>
	<g>
		<ellipse fill="#FFFFFF" cx="27.799" cy="12.037" rx="0.425" ry="0.566"/>
		<g>
			<path fill="#FFFFFF" d="M27.904,12.037c-0.004,0.076-0.041,0.241-0.104,0.246c-0.061,0.005-0.101-0.178-0.104-0.246
				c-0.004-0.076,0.046-0.242,0.104-0.246C27.862,11.787,27.901,11.97,27.904,12.037c0.019,0.411,0.659,0.412,0.64,0
				c-0.021-0.449-0.268-0.847-0.744-0.886c-0.474-0.039-0.727,0.498-0.744,0.886c-0.021,0.447,0.3,0.85,0.744,0.886
				c0.474,0.039,0.727-0.498,0.744-0.886C28.564,11.625,27.923,11.626,27.904,12.037z"/>
		</g>
	</g>
	<g>
		<ellipse fill="#FFFFFF" cx="27.728" cy="11.946" rx="0.039" ry="0.053"/>
		<g>
			<path d="M27.447,11.946c0.009-0.04,0.019-0.08,0.028-0.119c0.039-0.039,0.076-0.076,0.115-0.115
				c0.018-0.008,0.035-0.015,0.053-0.023c0.056,0,0.113,0,0.17,0c0.018,0.008,0.035,0.015,0.053,0.023
				c0.039,0.039,0.076,0.076,0.115,0.115c0.036,0.08,0.036,0.159,0,0.238c-0.039,0.039-0.076,0.076-0.115,0.115
				c-0.018,0.008-0.035,0.015-0.053,0.023c-0.056,0-0.113,0-0.17,0c-0.018-0.008-0.035-0.015-0.053-0.023
				c-0.039-0.039-0.076-0.076-0.115-0.115C27.466,12.026,27.457,11.986,27.447,11.946c0.011,0.089,0.028,0.16,0.094,0.227
				c0.06,0.06,0.142,0.094,0.227,0.094c0.159,0,0.341-0.147,0.32-0.32c-0.009-0.073-0.014-0.143-0.06-0.203
				c-0.075-0.099-0.17-0.169-0.3-0.169c-0.091,0-0.184,0.039-0.249,0.104c-0.076,0.076-0.098,0.165-0.11,0.268
				c-0.008,0.059,0.025,0.157,0.06,0.204c0.075,0.099,0.17,0.169,0.3,0.169c0.091,0,0.184-0.039,0.249-0.104
				c0.076-0.076,0.098-0.165,0.11-0.268c0.021-0.173-0.162-0.32-0.32-0.32c-0.084,0-0.167,0.034-0.227,0.094
				C27.476,11.786,27.458,11.858,27.447,11.946z"/>
		</g>
	</g>
</g>
<g>
	<path fill="#020202" d="M20.855,9.609c0,0-0.96-2.495-3.647-1.728C17.207,7.881,18.936,10.377,20.855,9.609z"/>
	<g>
		<path d="M21.164,9.524c-0.654-1.662-2.351-2.394-4.04-1.951c-0.188,0.049-0.311,0.3-0.192,0.47c0.875,1.247,2.42,2.44,4.009,1.875
			c0.386-0.138,0.219-0.756-0.17-0.617c-1.3,0.462-2.57-0.561-3.286-1.58c-0.064,0.157-0.128,0.313-0.192,0.47
			c0.935-0.244,1.833-0.135,2.56,0.53c0.208,0.19,0.377,0.417,0.525,0.657c0.045,0.074,0.198,0.388,0.169,0.317
			C20.696,10.072,21.315,9.908,21.164,9.524z"/>
	</g>
</g>
<g>
	<path fill="#020202" d="M20.659,9.888c0,0-1.728-0.576-2.88,0.768C17.779,10.656,19.315,12,20.659,9.888z"/>
	<g>
		<path d="M20.744,9.58c-1.132-0.363-2.395-0.019-3.191,0.85c-0.11,0.12-0.137,0.336,0,0.452c0.343,0.293,0.766,0.45,1.209,0.508
			c0.947,0.123,1.693-0.624,2.172-1.34c0.231-0.343-0.325-0.664-0.553-0.323c-0.395,0.59-0.954,1.149-1.721,1.005
			c-0.223-0.041-0.556-0.216-0.657-0.302c0,0.15,0,0.302,0,0.452c0.65-0.711,1.644-0.982,2.568-0.685
			C20.967,10.324,21.135,9.707,20.744,9.58z"/>
	</g>
</g>
</svg>
