<?xml version="1.0" encoding="utf-8"?>
<!-- Generator: Adobe Illustrator 17.1.0, SVG Export Plug-In . SVG Version: 6.00 Build 0)  -->
<!DOCTYPE svg PUBLIC "-//W3C//DTD SVG 1.1//EN" "http://www.w3.org/Graphics/SVG/1.1/DTD/svg11.dtd">
<svg version="1.1" xmlns="http://www.w3.org/2000/svg" xmlns:xlink="http://www.w3.org/1999/xlink" x="0px" y="0px"
	 viewBox="0 0 600.163 254.959" enable-background="new 0 0 600.163 254.959" xml:space="preserve">
<g id="Layer_2">
	<g>
		<g>
			<line fill="none" stroke="#000000" stroke-miterlimit="10" x1="28.168" y1="218.621" x2="592.252" y2="218.621"/>
			<g>
				<g>
					<line fill="none" stroke="#000000" stroke-miterlimit="10" x1="28.168" y1="218.621" x2="28.168" y2="213.783"/>
					<line fill="none" stroke="#000000" stroke-miterlimit="10" x1="114.368" y1="218.621" x2="114.368" y2="213.783"/>
					<line fill="none" stroke="#000000" stroke-miterlimit="10" x1="200.568" y1="218.621" x2="200.568" y2="213.783"/>
					<line fill="none" stroke="#000000" stroke-miterlimit="10" x1="286.768" y1="218.621" x2="286.768" y2="213.783"/>
					<line fill="none" stroke="#000000" stroke-miterlimit="10" x1="398.984" y1="218.621" x2="398.984" y2="213.783"/>
					<line fill="none" stroke="#000000" stroke-miterlimit="10" x1="592.252" y1="218.621" x2="592.252" y2="213.783"/>
				</g>
				<g>
				</g>
			</g>
		</g>
		<g>
			<g>
				<text transform="matrix(1 0 0 1 16.1259 225.4235)" font-family="'TwCenMT-Bold'" font-size="10">0</text>
				<text transform="matrix(1 0 0 1 16.1259 186.7233)" font-family="'TwCenMT-Bold'" font-size="10">2</text>
				<text transform="matrix(1 0 0 1 16.1259 148.0231)" font-family="'TwCenMT-Bold'" font-size="10">4</text>
				<text transform="matrix(1 0 0 1 16.1259 109.3234)" font-family="'TwCenMT-Bold'" font-size="10">6</text>
				<text transform="matrix(1 0 0 1 16.1259 70.6237)" font-family="'TwCenMT-Bold'" font-size="10">8</text>
				<text transform="matrix(1 0 0 1 10.8182 31.9235)" font-family="'TwCenMT-Bold'" font-size="10">10</text>
			</g>
			<line fill="none" stroke="#000000" stroke-miterlimit="10" x1="28.168" y1="218.621" x2="28.168" y2="25.121"/>
			<g>
				<g>
					<line fill="none" stroke="#000000" stroke-miterlimit="10" x1="28.168" y1="218.621" x2="38.943" y2="218.621"/>
					<line fill="none" stroke="#000000" stroke-miterlimit="10" x1="28.168" y1="179.921" x2="38.943" y2="179.921"/>
					<line fill="none" stroke="#000000" stroke-miterlimit="10" x1="28.168" y1="141.221" x2="38.943" y2="141.221"/>
					<line fill="none" stroke="#000000" stroke-miterlimit="10" x1="28.168" y1="102.521" x2="38.943" y2="102.521"/>
					<line fill="none" stroke="#000000" stroke-miterlimit="10" x1="28.168" y1="63.821" x2="38.943" y2="63.821"/>
					<line fill="none" stroke="#000000" stroke-miterlimit="10" x1="28.168" y1="25.121" x2="38.943" y2="25.121"/>
				</g>
				<g>
				</g>
			</g>
		</g>
		<g>
			<text transform="matrix(1 0 0 1 481.8372 235.2497)"><tspan x="0" y="0" font-family="'TwCenMT-Bold'" font-size="10">VE</tspan><tspan x="11.138" y="0" font-family="'TwCenMT-Bold'" font-size="10">R</tspan><tspan x="16.069" y="0" font-family="'TwCenMT-Bold'" font-size="10">Y </tspan><tspan x="-18.894" y="12" font-family="'TwCenMT-Bold'" font-size="10">S</tspan><tspan x="-14.133" y="12" font-family="'TwCenMT-Bold'" font-size="10">A</tspan><tspan x="-7.854" y="12" font-family="'TwCenMT-Bold'" font-size="10">TIS</tspan><tspan x="4.295" y="12" font-family="'TwCenMT-Bold'" font-size="10">F</tspan><tspan x="8.387" y="12" font-family="'TwCenMT-Bold'" font-size="10">A</tspan><tspan x="14.769" y="12" font-family="'TwCenMT-Bold'" font-size="10">C</tspan><tspan x="20.599" y="12" font-family="'TwCenMT-Bold'" font-size="10">T</tspan><tspan x="25.291" y="12" font-family="'TwCenMT-Bold'" font-size="10">O</tspan><tspan x="32.693" y="12" font-family="'TwCenMT-Bold'" font-size="10">R</tspan><tspan x="37.625" y="12" font-family="'TwCenMT-Bold'" font-size="10">Y</tspan></text>
			<text transform="matrix(1 0 0 1 314.4394 235.2497)"><tspan x="0" y="0" font-family="'TwCenMT-Bold'" font-size="10">SOMEWH</tspan><tspan x="39.141" y="0" font-family="'TwCenMT-Bold'" font-size="10">A</tspan><tspan x="45.42" y="0" font-family="'TwCenMT-Bold'" font-size="10">T </tspan><tspan x="-4.739" y="12" font-family="'TwCenMT-Bold'" font-size="10">S</tspan><tspan x="0.021" y="12" font-family="'TwCenMT-Bold'" font-size="10">A</tspan><tspan x="6.301" y="12" font-family="'TwCenMT-Bold'" font-size="10">TIS</tspan><tspan x="18.449" y="12" font-family="'TwCenMT-Bold'" font-size="10">F</tspan><tspan x="22.541" y="12" font-family="'TwCenMT-Bold'" font-size="10">A</tspan><tspan x="28.923" y="12" font-family="'TwCenMT-Bold'" font-size="10">C</tspan><tspan x="34.753" y="12" font-family="'TwCenMT-Bold'" font-size="10">T</tspan><tspan x="39.445" y="12" font-family="'TwCenMT-Bold'" font-size="10">O</tspan><tspan x="46.848" y="12" font-family="'TwCenMT-Bold'" font-size="10">R</tspan><tspan x="51.779" y="12" font-family="'TwCenMT-Bold'" font-size="10">Y</tspan></text>
			<text transform="matrix(1 0 0 1 229.0956 235.2497)"><tspan x="0" y="0" font-family="'TwCenMT-Bold'" font-size="10">EITHER</tspan><tspan x="5.007" y="12" font-family="'TwCenMT-Bold'" font-size="10">W</tspan><tspan x="12.526" y="12" font-family="'TwCenMT-Bold'" font-size="10" letter-spacing="-1">A</tspan><tspan x="18.308" y="12" font-family="'TwCenMT-Bold'" font-size="10">Y</tspan></text>
			<text transform="matrix(1 0 0 1 132.3632 235.2497)"><tspan x="0" y="0" font-family="'TwCenMT-Bold'" font-size="10">SOMEWH</tspan><tspan x="39.141" y="0" font-family="'TwCenMT-Bold'" font-size="10">A</tspan><tspan x="45.42" y="0" font-family="'TwCenMT-Bold'" font-size="10">T</tspan><tspan x="-12.684" y="12" font-family="'TwCenMT-Bold'" font-size="10">UNS</tspan><tspan x="5.305" y="12" font-family="'TwCenMT-Bold'" font-size="10">A</tspan><tspan x="11.584" y="12" font-family="'TwCenMT-Bold'" font-size="10">TIS</tspan><tspan x="23.732" y="12" font-family="'TwCenMT-Bold'" font-size="10">F</tspan><tspan x="27.824" y="12" font-family="'TwCenMT-Bold'" font-size="10">A</tspan><tspan x="34.206" y="12" font-family="'TwCenMT-Bold'" font-size="10">C</tspan><tspan x="40.036" y="12" font-family="'TwCenMT-Bold'" font-size="10">T</tspan><tspan x="44.729" y="12" font-family="'TwCenMT-Bold'" font-size="10">O</tspan><tspan x="52.131" y="12" font-family="'TwCenMT-Bold'" font-size="10">R</tspan><tspan x="57.062" y="12" font-family="'TwCenMT-Bold'" font-size="10">Y</tspan></text>
			<text transform="matrix(1 0 0 1 58.9877 235.2497)"><tspan x="0" y="0" font-family="'TwCenMT-Bold'" font-size="10">VE</tspan><tspan x="11.138" y="0" font-family="'TwCenMT-Bold'" font-size="10">R</tspan><tspan x="16.069" y="0" font-family="'TwCenMT-Bold'" font-size="10">Y </tspan><tspan x="-25.508" y="12" font-family="'TwCenMT-Bold'" font-size="10">UNS</tspan><tspan x="-7.52" y="12" font-family="'TwCenMT-Bold'" font-size="10">A</tspan><tspan x="-1.24" y="12" font-family="'TwCenMT-Bold'" font-size="10">TIS</tspan><tspan x="10.908" y="12" font-family="'TwCenMT-Bold'" font-size="10">F</tspan><tspan x="15" y="12" font-family="'TwCenMT-Bold'" font-size="10">A</tspan><tspan x="21.382" y="12" font-family="'TwCenMT-Bold'" font-size="10">C</tspan><tspan x="27.212" y="12" font-family="'TwCenMT-Bold'" font-size="10">T</tspan><tspan x="31.904" y="12" font-family="'TwCenMT-Bold'" font-size="10">O</tspan><tspan x="39.307" y="12" font-family="'TwCenMT-Bold'" font-size="10">R</tspan><tspan x="44.238" y="12" font-family="'TwCenMT-Bold'" font-size="10">Y</tspan></text>
		</g>
	</g>
</g>
<g id="Amounts">
	<text transform="matrix(1 0 0 1 76.688 209.4066)" font-family="'Verdana'" font-size="13">0.4</text>
	<text transform="matrix(1 0 0 1 168.3921 193.8511)" font-family="'Verdana'" font-size="13">1.1</text>
	<text transform="matrix(1 0 0 1 263.664 179.1155)" font-family="'Verdana'" font-size="13">1.7</text>
	<text transform="matrix(1 0 0 1 393.3425 114.5325)" font-family="'Verdana'" font-size="13">5.2</text>
	<text transform="matrix(1 0 0 1 574.8992 45.8586)" font-family="'Verdana'" font-size="13">8.8</text>
	<text transform="matrix(1 0 0 1 3.9802 8.1832)"><tspan x="0" y="0" font-family="'TwCenMT-Bold'" font-size="10">SCREWS PER </tspan><tspan x="10.901" y="12" font-family="'TwCenMT-Bold'" font-size="10">MONTH</tspan></text>
</g>
<g id="Horses">
	<g>
		<g>
			<defs>
				<rect id="SVGID_1_" x="136.664" y="182.541" width="44.167" height="48.804"/>
			</defs>
			<clipPath id="SVGID_2_">
				<use xlink:href="#SVGID_1_"  overflow="visible"/>
			</clipPath>
			<g clip-path="url(#SVGID_2_)">
				<defs>
					<rect id="SVGID_3_" x="136.664" y="182.541" width="44.167" height="48.804"/>
				</defs>
				<clipPath id="SVGID_4_">
					<use xlink:href="#SVGID_3_"  overflow="visible"/>
				</clipPath>
				<path clip-path="url(#SVGID_4_)" fill="#D01819" d="M150.017,213.332c0.011,1.533-0.029,3.066-0.086,4.597
					c-0.015,0.393,0.095,0.546,0.445,0.519c1.596-0.123,1.309,0.262,1.456-1.491c0.072-0.854,0.233-1.684,0.409-2.514
					c0.179-0.847,0.38-1.688,0.573-2.531c0.123-0.539,0.424-0.967,0.721-1.396c0.154-0.222,0.345-0.254,0.587-0.165
					c0.583,0.214,1.174,0.401,1.76,0.604c0.158,0.055,0.305,0.095,0.431-0.071c0.127-0.167,0.005-0.288-0.058-0.421
					c-0.015-0.031-0.051-0.069-0.044-0.089c0.22-0.622-0.463-1.083-0.246-1.708c0.068-0.196-0.107-0.265-0.21-0.362
					c-0.335-0.314-0.426-0.703-0.21-1.118c0.131-0.251,0.057-0.367-0.108-0.517c-0.351-0.321-0.591-0.724-0.655-1.231
					c-0.03-0.231-0.093-0.289-0.308-0.194c-1.078,0.478-1.998-0.068-2.272-1.33c-0.011-0.051-0.002-0.119-0.029-0.151
					c-0.15-0.179,0.122-0.622-0.233-0.607c-0.354,0.015-0.755-0.013-0.921,0.574c-0.574,2.026-1.076,4.054-1.009,6.208
					C150.046,211.068,150.017,212.201,150.017,213.332"/>
				<path clip-path="url(#SVGID_4_)" fill="#D01819" d="M165.144,212.996c0.05-1.408,0.112-2.816,0.146-4.224
					c0.013-0.545,0.143-1.065,0.205-1.599c0.062-0.537-0.111-0.694-0.562-0.55c-0.46,0.147-0.926,0.233-1.24-0.336
					c-0.077-0.139-0.22-0.146-0.34-0.116c-0.286,0.073-0.523-0.159-0.753-0.168c-0.6-0.025-1.122-0.141-1.684-0.434
					c-0.309-0.161-0.843,0.119-1.188-0.314c-0.009-0.012-0.026-0.02-0.04-0.025c-0.09-0.035-0.158,0.028-0.208,0.087
					c-0.342,0.402-1.039,0.086-1.25,0.773c-0.059,0.191,0.007,0.305,0.087,0.423c0.256,0.381,0.286,0.769,0.03,1.155
					c-0.131,0.198-0.097,0.326,0.056,0.487c0.267,0.28,0.455,0.595,0.169,0.999c-0.092,0.129-0.071,0.258,0.014,0.382
					c0.22,0.321,0.214,0.644-0.009,0.957c-0.123,0.172-0.139,0.324-0.025,0.518c0.117,0.199,0.267,0.197,0.449,0.189
					c0.93-0.04,1.857-0.113,2.751-0.416c0.339-0.115,0.469,0.023,0.601,0.345c0.806,1.966,0.981,4.049,0.98,6.17
					c0,1.076,0.033,1.101,1.011,1.044c0.62-0.036,0.678-0.105,0.709-0.808C165.119,216.023,165.026,214.506,165.144,212.996"/>
				<path clip-path="url(#SVGID_4_)" fill="#D01819" d="M162.983,199.276c0.024,0.302-0.237,0.277-0.373,0.357
					c-0.397,0.234-0.755,0.584-1.324,0.602c0.963-0.71,0.242-1.501,0.183-2.252c-0.008-0.097-0.109-0.124-0.187-0.08
					c-0.09,0.05-0.163,0.152-0.095,0.251c0.163,0.238,0.033,0.371-0.113,0.517c-0.14,0.14-0.308,0.278-0.083,0.502
					c0.028,0.028,0.021,0.146-0.009,0.187c-0.167,0.224-0.352,0.413,0.032,0.629c0.117,0.066,0.031,0.334-0.061,0.42
					c-0.201,0.186-0.126,0.405-0.129,0.62c0.041,0.023,0.131,0.027,0.068,0.107c-0.052,0.067-0.093,0.003-0.12-0.055
					c-0.052-0.03-0.153-0.07-0.15-0.089c0.079-0.5-0.146-1.008,0.005-1.49c0.062-0.197,0.035-0.298-0.082-0.39
					c-0.177-0.138-0.183,0.063-0.253,0.168c-0.589,0.882-0.942,1.956-1.764,2.648c-0.146,0.122-0.091,0.241,0.028,0.334
					c0.075,0.059,0.162,0.114,0.25,0.137c0.53,0.133,1.064,0.229,1.478,0.69c0.081,0.091,0.301,0.037,0.456,0.039
					c0.284,0.003,0.57-0.011,0.785,0.255c0.053,0.066,0.133,0.131,0.206,0.083c0.453-0.292,0.833-0.087,1.211,0.192
					c0.256,0.188,0.558-0.137,0.838,0.092c0.123,0.1,0.296,0.105,0.259,0.339l-0.01-0.013c0.479-0.084,0.941-0.193,1.37,0.244
					c0.236,0.241,0.653-0.003,0.752-0.366c0.132-0.482,0.21-0.984,0.441-1.428c0.1-0.193,0.015-0.375-0.021-0.556
					c-0.054-0.272-0.112-0.544-0.196-0.806c-0.081-0.252,0.003-0.648-0.265-0.732c-0.369-0.116-0.757,0.011-1.071,0.274
					c-0.185,0.155-0.342,0.357-0.493,0.556c-0.935,1.228-2.552,1.619-3.863,0.926c-0.174-0.092-0.319-0.22-0.396-0.418
					c0.032-0.126,0.121-0.096,0.193-0.088c1.131,0.128,2.15-0.196,3.148-0.792c0.646-0.385,1.355-0.708,2.122-0.715
					c0.366-0.003,0.467-0.172,0.403-0.55c-0.167-0.978-0.17-1.982-0.413-2.953c-0.094-0.377-0.224-0.44-0.5-0.304
					c-0.119,0.059-0.235,0.088-0.362,0.091c-0.227,0.005-0.357,0.31-0.319,0.371c0.225,0.359,0.149,0.836,0.336,1.152
					c0.34,0.575,0.206,1.237-0.408,1.294c-0.434,0.041-0.642,0.249-0.797,0.642c-0.107,0.269-0.312,0.435-0.569,0.297
					c-0.219-0.117-0.328,0.204-0.517,0.093c-0.005,0.041-0.009,0.082-0.014,0.123c-0.026-0.007-0.053-0.014-0.079-0.021
					c-0.183,0.325-0.627,0.24-0.787,0.618c-0.035,0.084-0.138,0.189-0.294,0.104c0.253-0.464,0.53-0.84,1.088-0.711
					c0.001-0.069,0.031-0.105,0.094-0.105c0.083-0.264,0.18-0.488,0.499-0.322c0.236,0.123,0.367-0.057,0.43-0.261
					c0.138-0.447,0.354-0.707,0.827-0.634c0.273,0.042,0.427-0.197,0.519-0.446c0.088-0.238-0.024-0.397-0.226-0.491
					c-0.028-0.013-0.078-0.048-0.075-0.056c0.169-0.543-0.398-0.96-0.21-1.515c-0.301-0.112-0.574,0.084-0.863,0.097
					c-0.031,0.184,0.093,0.248,0.189,0.329c0.616,0.527,0.666,0.735,0.23,1.443c-0.231,0.376-0.498,0.75-0.957,0.829
					L162.983,199.276z"/>
				<path clip-path="url(#SVGID_4_)" fill="#D01819" d="M159.056,204.001c0.164,0.51-0.291,0.571-0.394,0.853
					c0.372,0.05,0.718-0.247,0.8-0.712c0.065-0.372,0.074-0.825-0.327-0.907c-0.434-0.089-0.631-0.408-0.842-0.729
					c-0.169-0.257-0.344-0.317-0.601-0.223c-0.156,0.057-0.364,0.063-0.106,0.298c0.156,0.142,0.038,0.204-0.078,0.236
					c-0.48,0.134-0.942,0.247-1.466,0.186c-0.278-0.032-0.51-0.031-0.784-0.17c-0.243-0.123-0.239,0.415-0.532,0.44
					c-0.064-0.168,0.186-0.262,0.1-0.477c-0.638,0.095-1.304,0.252-1.939-0.215c0.15-0.114,0.284-0.217,0.418-0.32
					c-0.51-0.117-0.982-0.038-1.426,0.22c-0.048,0.028-0.102,0.096-0.108,0.152c-0.012,0.113,0.092,0.156,0.158,0.142
					c0.354-0.074,0.345,0.219,0.424,0.46c0.197,0.604,0.513,1.128,1.07,1.374c0.533,0.235,0.916,0.053,1.326-0.557
					c0.169-0.252,0.307-0.442,0.44,0.022c0.028,0.097,0.089,0.184,0.139,0.273c0.256,0.462,0.551,0.867,1.113,0.801
					c0.566-0.066,0.796-0.538,1.004-1.033C158.309,204.789,158.687,204.694,159.056,204.001 M158.356,204.276
					c-0.251-0.013-0.441-0.141-0.446-0.429c-0.006-0.326,0.219-0.435,0.477-0.459c0.274-0.026,0.356,0.207,0.379,0.424
					C158.798,204.113,158.604,204.237,158.356,204.276 M156.403,204.92c-0.361,0.044-0.534-0.134-0.562-0.419
					c-0.035-0.359,0.297-0.32,0.469-0.369c0.176-0.05,0.411,0.041,0.426,0.332C156.752,204.763,156.575,204.887,156.403,204.92
					 M153.644,204.513c-0.227-0.026-0.394-0.155-0.378-0.425c0.015-0.258,0.19-0.412,0.415-0.408
					c0.235,0.004,0.381,0.191,0.385,0.441C154.072,204.402,153.877,204.492,153.644,204.513"/>
				<path clip-path="url(#SVGID_4_)" fill="#D01819" d="M165.876,196.341c0.222,0.572,0.167,1.222,0.558,1.739
					c0.695,0.919,1.372,1.852,2.194,2.644c0.244,0.235,0.374,0.149,0.528-0.063c0.147-0.202,0.504-0.318,0.208-0.7
					c-0.307-0.395-0.533-0.891-0.892-1.206c-0.893-0.785-0.944-1.765-0.695-2.86c0.061-0.269,0.136-0.537,0.175-0.81
					c0.047-0.329-0.174-0.533-0.418-0.37c-0.579,0.388-0.999,1.002-1.58,1.394C165.903,196.143,165.901,196.261,165.876,196.341"/>
				<path clip-path="url(#SVGID_4_)" fill="#D01819" d="M157.604,207.162c-0.047,0.104-0.128,0.206-0.134,0.313
					c-0.012,0.22,0.165,0.329,0.302,0.429c0.143,0.104,0.221-0.079,0.299-0.169c0.301-0.35,0.312-0.737,0.006-1.17
					c-0.15-0.213-0.275-0.364-0.008-0.585c0.191-0.159,0.238-0.412,0.154-0.662c-0.085-0.254-0.337-0.284-0.519-0.402
					c-0.131-0.085-0.168,0.077-0.229,0.178c-0.138,0.229-0.252,0.48-0.471,0.622c0.061,0.255,0.323,0.161,0.393,0.353
					c-0.045,0.19-0.184,0.086-0.267,0.081c-0.284-0.019-0.453,0.143-0.54,0.406c-0.085,0.257-0.075,0.517,0.148,0.706
					c0.292,0.247,0.41,0.511,0.123,0.868c-0.064,0.08-0.119,0.287-0.079,0.333c0.335,0.388,0.187,0.92,0.357,1.343
					c0.089,0.22,0.116,0.377,0,0.572c-0.078,0.131-0.171,0.281,0.001,0.403c0.115,0.081,0.251,0.05,0.357-0.035
					c0.136-0.109,0.16-0.275,0.051-0.409c-0.146-0.179-0.131-0.315-0.004-0.497c0.108-0.154,0.078-0.333-0.056-0.469
					c-0.238-0.243-0.214-0.472,0.006-0.713c0.242-0.264,0.214-0.541-0.037-0.76C157.063,207.551,157.258,207.33,157.604,207.162"/>
				<path clip-path="url(#SVGID_4_)" fill="#D01819" d="M166.808,200.375c-0.306-0.052-0.351,0.127-0.273,0.43
					c0.104,0.4,0.206,0.801,0.287,1.207c0.059,0.296,0.254,0.311,0.46,0.336c0.28,0.033,0.558,0.292,0.811,0.176
					c0.247-0.113,0.209-0.512,0.335-0.769c0.34-0.691,0.304-0.791-0.373-1.028C167.654,200.585,167.269,200.365,166.808,200.375"/>
				<path clip-path="url(#SVGID_4_)" fill="#D01819" d="M157.727,211.252c0.126,0,0.251-0.002,0.377,0
					c0.232,0.004,0.372-0.094,0.169-0.319c-0.209-0.231-0.035-0.317,0.074-0.451c0.25-0.306,0.294-0.629-0.014-0.905
					c-0.208-0.186-0.127-0.296,0.013-0.449c0.183-0.2,0.188-0.417,0.034-0.654c-0.249-0.385-0.326-0.348-0.57,0.022
					c-0.233,0.355-0.24,0.586-0.058,0.996c0.135,0.304,0.049,0.772,0.047,1.159c-0.003,0.413-0.378,0.403-0.658,0.327
					c-0.268-0.073-0.345-0.266-0.268-0.597c0.145-0.623-0.031-1.212-0.329-1.739c-0.113-0.199-0.287-0.076-0.348,0.107
					c-0.053,0.158-0.085,0.356,0.049,0.489c0.244,0.24,0.476,0.455,0.148,0.827c-0.079,0.09,0.005,0.233,0.064,0.337
					c0.041,0.073,0.106,0.133,0.138,0.211C156.871,211.287,156.958,211.339,157.727,211.252"/>
				<path clip-path="url(#SVGID_4_)" fill="#D01819" d="M164.04,204.089c-0.272-0.112-0.53-0.322-0.844-0.128
					c-0.048,0.03-0.14,0.033-0.184,0.002c-0.422-0.299-0.842-0.531-1.341-0.178c-0.078,0.055-0.152-0.096-0.21-0.174
					c-0.125-0.17-0.283-0.307-0.48-0.292c-0.462,0.037-0.926,0.134-1.242-0.393c-0.041-0.069-0.152-0.054-0.216,0.003
					c-0.088,0.079,0.011,0.153,0.027,0.227c0.172,0.82,0.268,0.874,0.897,0.521c0.332-0.186,0.62-0.1,0.839,0.212
					c0.205,0.293,0.42,0.402,0.723,0.177c0.212-0.157,0.392-0.07,0.537,0.128c0.182,0.249,0.38,0.336,0.654,0.158
					c0.258-0.167,0.485-0.061,0.678,0.162c0.13,0.15,0.246,0.334,0.469,0.289c0.359-0.072,0.642-0.014,0.964,0.261
					c0.268,0.229,0.542-0.142,0.768-0.429c-0.489,0.16-0.831-0.128-1.191-0.375c-0.176-0.12-0.368-0.032-0.543,0.058
					c-0.23,0.118-0.326,0.026-0.316-0.24C164.03,204.076,164.04,204.089,164.04,204.089"/>
				<path clip-path="url(#SVGID_4_)" fill="#D01819" d="M170.103,201.384c-0.019-0.126-0.022-0.269-0.062-0.399
					c-0.161-0.528-0.382-0.582-0.721-0.173c-0.375,0.453-0.692,0.949-0.844,1.55c-0.039,0.153-0.161,0.338,0.043,0.461
					c0.187,0.113,0.388,0.326,0.605,0.148C169.609,202.576,170.06,202.138,170.103,201.384"/>
				<path clip-path="url(#SVGID_4_)" fill="#D01819" d="M156.657,205.906c-0.742,0.113-1.188-0.293-1.559-0.882
					c-0.149,0.657,0.069,1.197,0.674,1.613c0.235,0.162,0.381,0.232,0.062,0.481c-0.231,0.18-0.23,0.485-0.114,0.757
					c0.138,0.322,0.435,0.442,0.704,0.562c0.117,0.052,0.408-0.71,0.326-0.849C156.295,206.811,156.295,206.811,156.657,205.906"/>
				<path clip-path="url(#SVGID_4_)" fill="#D01819" d="M165.177,206.088c-0.402-0.019-0.73-0.142-0.938-0.547
					c-0.098-0.191-0.309-0.132-0.469-0.058c-0.231,0.107-0.432,0.069-0.6-0.123c-0.184-0.21-0.461-0.215-0.61-0.108
					c-0.365,0.261-0.604,0.072-0.853-0.166c-0.153-0.147-0.362-0.192-0.462-0.051c-0.108,0.15,0.049,0.376,0.161,0.48
					c0.242,0.226,0.535,0.376,0.851,0.148c0.189-0.136,0.32-0.159,0.469,0.078c0.124,0.197,0.356,0.289,0.546,0.17
					c0.298-0.186,0.419-0.034,0.575,0.217C164.172,206.654,164.772,206.64,165.177,206.088"/>
				<path clip-path="url(#SVGID_4_)" fill="#D01819" d="M161.062,201.989c1.267,0.592,2.486,0.163,3.641-1.301
					C163.413,201.147,162.387,202.107,161.062,201.989"/>
				<path clip-path="url(#SVGID_4_)" fill="#D01819" d="M162.046,199.689c0.557-0.237,0.707-0.689,0.428-1.28
					c-0.094-0.199-0.192-0.397-0.265-0.606c-0.065-0.185-0.096-0.385-0.153-0.62c-0.42,0.321-0.411,0.783-0.277,1.168
					c0.154,0.444,0.234,0.886,0.273,1.348L162.046,199.689z"/>
				<path clip-path="url(#SVGID_4_)" fill="#D01819" d="M166.222,198.409c0.065,0.478,0.132,0.956,0.195,1.435
					c0.021,0.161,0.099,0.241,0.247,0.256c0.355,0.036,0.71,0.081,1.104,0.119c-0.484-0.618-0.967-1.235-1.451-1.853
					C166.286,198.38,166.254,198.395,166.222,198.409"/>
				<path clip-path="url(#SVGID_4_)" fill="#D01819" d="M162.355,205.097c0.351-0.224,0.723-0.156,1.085,0.168
					c0.176,0.158,0.346-0.047,0.505-0.118c0.122-0.054,0.061-0.18-0.011-0.252c-0.178-0.176-0.326-0.53-0.609-0.362
					c-0.359,0.213-0.61,0.136-0.866-0.159c-0.18-0.207-0.367-0.128-0.545,0.017c-0.101,0.082-0.214,0.17-0.134,0.334
					C161.889,204.948,162.028,205.13,162.355,205.097"/>
				<path clip-path="url(#SVGID_4_)" fill="#D01819" d="M162.975,199.286c0.151-0.263,0.389-0.481,0.362-0.835
					c-0.015-0.198,0.028-0.45-0.279-0.416c-0.082,0.009-0.197-0.048-0.169-0.13c0.143-0.433-0.272-0.595-0.313-0.959
					c-0.348,0.445-0.3,0.874,0.118,1.042c0.253,0.102,0.135,0.227,0.115,0.394c-0.038,0.314-0.263,0.69,0.175,0.894
					C162.983,199.276,162.975,199.286,162.975,199.286"/>
				<path clip-path="url(#SVGID_4_)" fill="#D01819" d="M158.503,205.25c0.397,0.174,0.721,0.005,0.986-0.272
					c0.176-0.184,0.234-0.271,0.383,0.039c0.206,0.427,0.574,0.443,1.216,0.042c-0.654,0.037-0.928-0.336-1.125-0.829
					c-0.082-0.206-0.265-0.262-0.331-0.014C159.464,204.845,159.046,205.103,158.503,205.25"/>
				<path clip-path="url(#SVGID_4_)" fill="#D01819" d="M165.792,205.921c0.019-0.244,0.036-0.459,0.059-0.743
					c-0.396,0.23-0.677,0.177-0.932-0.148c-0.147-0.187-0.175-0.16-0.663,0.121c0.224,0.448,0.418,0.864,0.986,0.408
					C165.497,205.355,165.509,205.878,165.792,205.921"/>
				<path clip-path="url(#SVGID_4_)" fill="#D01819" d="M160.812,204.8c0.213-0.059,0.566-0.087,0.542-0.357
					c-0.026-0.289-0.241-0.636-0.595-0.628c-0.25,0.006-0.561,0.153-0.558,0.441C160.205,204.585,160.476,204.779,160.812,204.8"/>
				<path clip-path="url(#SVGID_4_)" fill="#D01819" d="M163.572,198.559c0.453-0.546,0.46-0.829,0.099-1.237
					c-0.121-0.136-0.258-0.257-0.364-0.406c-0.103-0.145-0.222-0.221-0.36-0.121c-0.216,0.156-0.025,0.331,0.049,0.433
					C163.268,197.604,163.6,197.935,163.572,198.559"/>
				<path clip-path="url(#SVGID_4_)" fill="#D01819" d="M155.638,202.213c0.301,0.526,0.85,0.767,1.323,0.582
					c0.076-0.03,0.153-0.08,0.146-0.175c-0.013-0.162-0.17-0.186-0.259-0.275c-0.062-0.061-0.193-0.117-0.231,0.013
					c-0.162,0.55-0.376,0.063-0.542,0.02C155.932,202.342,155.854,202.067,155.638,202.213"/>
				<path clip-path="url(#SVGID_4_)" fill="#D01819" d="M157.192,205.171c-0.577,0.128-1.054,0.332-1.62-0.093
					C155.998,205.85,156.639,205.873,157.192,205.171"/>
				<path clip-path="url(#SVGID_4_)" fill="#D01819" d="M154.635,204.863c-0.55,0.034-1.004,0.219-1.539-0.042
					C153.485,205.361,154.017,205.364,154.635,204.863"/>
				<path clip-path="url(#SVGID_4_)" fill="#D01819" d="M154.492,202.643c0.204-0.082,0.483-0.096,0.539-0.431
					c0.017-0.102-0.104-0.123-0.175-0.099c-0.245,0.082-0.524,0.147-0.64,0.423C154.174,202.636,154.364,202.648,154.492,202.643"/>
				<path clip-path="url(#SVGID_4_)" fill="#D01819" d="M162.051,199.699l-0.057,0.009c0.008,0.005,0.02,0.016,0.023,0.013
					c0.011-0.008,0.019-0.022,0.028-0.033C162.046,199.689,162.051,199.699,162.051,199.699"/>
				<path clip-path="url(#SVGID_4_)" fill="#EDEDED" d="M162.517,200.418c-0.558-0.129-0.835,0.248-1.088,0.711
					c0.155,0.085,0.259-0.02,0.294-0.103c0.159-0.378,0.604-0.293,0.787-0.618L162.517,200.418z"/>
				<path clip-path="url(#SVGID_4_)" fill="#EDEDED" d="M160.772,201.082c0.027,0.057,0.068,0.122,0.12,0.055
					c0.063-0.081-0.027-0.084-0.068-0.107C160.807,201.048,160.79,201.065,160.772,201.082"/>
				<path clip-path="url(#SVGID_4_)" fill="#EDEDED" d="M162.509,200.408c0.027,0.007,0.053,0.014,0.079,0.021
					c0.005-0.041,0.009-0.082,0.014-0.123c0,0,0.008,0.008,0.008,0.008c-0.064,0-0.094,0.037-0.094,0.105L162.509,200.408"/>
				<path clip-path="url(#SVGID_4_)" fill="#EDEDED" d="M158.356,204.276c0.248-0.04,0.442-0.163,0.41-0.464
					c-0.023-0.218-0.106-0.45-0.379-0.424c-0.258,0.024-0.483,0.133-0.477,0.459C157.915,204.135,158.105,204.263,158.356,204.276"
					/>
				<path clip-path="url(#SVGID_4_)" fill="#EDEDED" d="M156.403,204.92c0.172-0.033,0.349-0.157,0.334-0.457
					c-0.015-0.291-0.25-0.382-0.426-0.332c-0.173,0.049-0.505,0.01-0.47,0.369C155.869,204.786,156.042,204.964,156.403,204.92"/>
				<path clip-path="url(#SVGID_4_)" fill="#EDEDED" d="M153.644,204.513c0.233-0.021,0.427-0.111,0.422-0.392
					c-0.004-0.25-0.15-0.438-0.385-0.441c-0.226-0.004-0.401,0.15-0.415,0.408C153.251,204.357,153.417,204.486,153.644,204.513"/>
			</g>
		</g>
	</g>
	<g>
		<g>
			<defs>
				<rect id="SVGID_5_" x="64.67" y="205.326" width="16.302" height="18.013"/>
			</defs>
			<clipPath id="SVGID_6_">
				<use xlink:href="#SVGID_5_"  overflow="visible"/>
			</clipPath>
			<g clip-path="url(#SVGID_6_)">
				<defs>
					<rect id="SVGID_7_" x="64.67" y="205.326" width="16.302" height="18.013"/>
				</defs>
				<clipPath id="SVGID_8_">
					<use xlink:href="#SVGID_7_"  overflow="visible"/>
				</clipPath>
				<path clip-path="url(#SVGID_8_)" fill="#D01819" d="M69.599,216.691c0.004,0.566-0.011,1.132-0.032,1.697
					c-0.005,0.145,0.035,0.202,0.164,0.192c0.589-0.046,0.483,0.097,0.537-0.55c0.026-0.315,0.086-0.622,0.151-0.928
					c0.066-0.313,0.14-0.623,0.212-0.934c0.046-0.199,0.156-0.357,0.266-0.515c0.057-0.082,0.127-0.094,0.217-0.061
					c0.215,0.079,0.433,0.148,0.65,0.223c0.058,0.02,0.112,0.035,0.159-0.026c0.047-0.062,0.002-0.106-0.022-0.156
					c-0.005-0.011-0.019-0.025-0.016-0.033c0.081-0.23-0.171-0.4-0.091-0.63c0.025-0.072-0.04-0.098-0.078-0.133
					c-0.123-0.116-0.157-0.259-0.078-0.413c0.048-0.093,0.021-0.135-0.04-0.191c-0.13-0.118-0.218-0.267-0.242-0.454
					c-0.011-0.085-0.034-0.107-0.114-0.071c-0.398,0.176-0.738-0.025-0.839-0.491c-0.004-0.019-0.001-0.044-0.011-0.056
					c-0.055-0.066,0.045-0.23-0.086-0.224c-0.131,0.006-0.279-0.005-0.34,0.212c-0.212,0.748-0.397,1.496-0.372,2.291
					C69.61,215.855,69.599,216.273,69.599,216.691"/>
				<path clip-path="url(#SVGID_8_)" fill="#D01819" d="M75.182,216.567c0.019-0.52,0.041-1.039,0.054-1.559
					c0.005-0.201,0.053-0.393,0.076-0.59c0.023-0.198-0.041-0.256-0.208-0.203c-0.17,0.054-0.342,0.086-0.458-0.124
					c-0.028-0.051-0.081-0.054-0.126-0.043c-0.105,0.027-0.193-0.059-0.278-0.062c-0.221-0.009-0.414-0.052-0.622-0.16
					c-0.114-0.059-0.311,0.044-0.438-0.116c-0.004-0.004-0.009-0.007-0.015-0.009c-0.033-0.013-0.058,0.01-0.077,0.032
					c-0.126,0.149-0.384,0.032-0.461,0.285c-0.022,0.071,0.003,0.112,0.032,0.156c0.095,0.141,0.105,0.284,0.011,0.426
					c-0.048,0.073-0.036,0.12,0.021,0.18c0.098,0.103,0.168,0.22,0.062,0.369c-0.034,0.048-0.026,0.095,0.005,0.141
					c0.081,0.119,0.079,0.238-0.003,0.353c-0.045,0.063-0.051,0.12-0.009,0.191c0.043,0.073,0.099,0.073,0.166,0.07
					c0.343-0.015,0.685-0.042,1.015-0.153c0.125-0.042,0.173,0.008,0.222,0.127c0.297,0.726,0.362,1.494,0.362,2.277
					c0,0.397,0.012,0.406,0.373,0.385c0.229-0.013,0.25-0.039,0.262-0.298C75.173,217.684,75.139,217.124,75.182,216.567"/>
				<path clip-path="url(#SVGID_8_)" fill="#D01819" d="M74.385,211.503c0.009,0.111-0.087,0.102-0.138,0.132
					c-0.147,0.086-0.279,0.216-0.489,0.222c0.355-0.262,0.089-0.554,0.068-0.831c-0.003-0.036-0.04-0.046-0.069-0.03
					c-0.033,0.018-0.06,0.056-0.035,0.093c0.06,0.088,0.012,0.137-0.042,0.191c-0.052,0.052-0.114,0.102-0.031,0.185
					c0.01,0.01,0.008,0.054-0.003,0.069c-0.062,0.083-0.13,0.152,0.012,0.232c0.043,0.024,0.011,0.123-0.023,0.155
					c-0.074,0.069-0.047,0.15-0.048,0.229c0.015,0.009,0.048,0.01,0.025,0.04c-0.019,0.025-0.034,0.001-0.044-0.02
					c-0.019-0.011-0.056-0.026-0.055-0.033c0.029-0.184-0.054-0.372,0.002-0.55c0.023-0.073,0.013-0.11-0.03-0.144
					c-0.065-0.051-0.068,0.023-0.093,0.062c-0.217,0.326-0.348,0.722-0.651,0.977c-0.054,0.045-0.034,0.089,0.01,0.123
					c0.028,0.022,0.06,0.042,0.092,0.05c0.195,0.049,0.393,0.085,0.546,0.255c0.03,0.033,0.111,0.014,0.168,0.014
					c0.105,0.001,0.21-0.004,0.29,0.094c0.02,0.024,0.049,0.048,0.076,0.031c0.167-0.108,0.307-0.032,0.447,0.071
					c0.094,0.069,0.206-0.05,0.309,0.034c0.045,0.037,0.109,0.039,0.096,0.125l-0.004-0.005c0.177-0.031,0.347-0.071,0.506,0.09
					c0.087,0.089,0.241-0.001,0.278-0.135c0.049-0.178,0.078-0.363,0.163-0.527c0.037-0.071,0.005-0.138-0.008-0.205
					c-0.02-0.1-0.041-0.201-0.072-0.297c-0.03-0.093,0.001-0.239-0.098-0.27c-0.136-0.043-0.279,0.004-0.395,0.101
					c-0.068,0.057-0.126,0.132-0.182,0.205c-0.345,0.453-0.942,0.598-1.426,0.342c-0.064-0.034-0.118-0.081-0.146-0.154
					c0.012-0.046,0.045-0.035,0.071-0.033c0.417,0.047,0.793-0.072,1.162-0.292c0.238-0.142,0.5-0.261,0.783-0.264
					c0.135-0.001,0.172-0.064,0.149-0.203c-0.062-0.361-0.063-0.732-0.153-1.09c-0.035-0.139-0.083-0.162-0.185-0.112
					c-0.044,0.022-0.087,0.032-0.134,0.033c-0.084,0.002-0.132,0.115-0.118,0.137c0.083,0.132,0.055,0.308,0.124,0.425
					c0.125,0.212,0.076,0.457-0.151,0.478c-0.16,0.015-0.237,0.092-0.294,0.237c-0.039,0.099-0.115,0.161-0.21,0.11
					c-0.081-0.043-0.121,0.075-0.191,0.034c-0.002,0.015-0.004,0.03-0.005,0.045c-0.01-0.003-0.019-0.005-0.029-0.008
					c-0.067,0.12-0.232,0.089-0.29,0.228c-0.013,0.031-0.051,0.07-0.108,0.038c0.093-0.171,0.196-0.31,0.402-0.262
					c0-0.025,0.011-0.039,0.035-0.039c0.031-0.097,0.066-0.18,0.184-0.119c0.087,0.045,0.136-0.021,0.159-0.096
					c0.051-0.165,0.131-0.261,0.305-0.234c0.101,0.016,0.158-0.073,0.192-0.165c0.033-0.088-0.009-0.147-0.083-0.181
					c-0.011-0.005-0.029-0.018-0.028-0.021c0.062-0.2-0.147-0.354-0.077-0.559c-0.111-0.041-0.212,0.031-0.318,0.036
					c-0.011,0.068,0.034,0.091,0.07,0.122c0.227,0.195,0.246,0.271,0.085,0.533c-0.085,0.139-0.184,0.277-0.353,0.306
					L74.385,211.503z"/>
				<path clip-path="url(#SVGID_8_)" fill="#D01819" d="M72.935,213.247c0.061,0.188-0.107,0.211-0.146,0.315
					c0.137,0.018,0.265-0.091,0.295-0.263c0.024-0.137,0.027-0.304-0.121-0.335c-0.16-0.033-0.233-0.151-0.311-0.269
					c-0.062-0.095-0.127-0.117-0.222-0.082c-0.058,0.021-0.134,0.023-0.039,0.11c0.058,0.052,0.014,0.075-0.029,0.087
					c-0.177,0.049-0.348,0.091-0.541,0.069c-0.103-0.012-0.188-0.012-0.289-0.063c-0.09-0.045-0.088,0.153-0.196,0.162
					c-0.023-0.062,0.069-0.097,0.037-0.176c-0.235,0.035-0.481,0.093-0.716-0.079c0.055-0.042,0.105-0.08,0.154-0.118
					c-0.188-0.043-0.362-0.014-0.526,0.081c-0.018,0.01-0.038,0.036-0.04,0.056c-0.004,0.042,0.034,0.057,0.058,0.052
					c0.131-0.027,0.127,0.081,0.157,0.17c0.073,0.223,0.189,0.416,0.395,0.507c0.197,0.087,0.338,0.02,0.489-0.206
					c0.062-0.093,0.113-0.163,0.162,0.008c0.01,0.036,0.033,0.068,0.051,0.101c0.095,0.171,0.203,0.32,0.411,0.296
					c0.209-0.025,0.294-0.199,0.371-0.381C72.66,213.538,72.799,213.503,72.935,213.247 M72.677,213.348
					c-0.093-0.005-0.163-0.052-0.165-0.158c-0.002-0.12,0.081-0.161,0.176-0.17c0.101-0.009,0.131,0.076,0.14,0.157
					C72.84,213.288,72.768,213.334,72.677,213.348 M71.956,213.586c-0.133,0.016-0.197-0.05-0.208-0.155
					c-0.013-0.132,0.11-0.118,0.173-0.136c0.065-0.018,0.152,0.015,0.157,0.122C72.085,213.528,72.02,213.574,71.956,213.586
					 M70.938,213.436c-0.084-0.01-0.145-0.057-0.14-0.157c0.005-0.095,0.07-0.152,0.153-0.151c0.087,0.001,0.141,0.071,0.142,0.163
					C71.095,213.395,71.024,213.428,70.938,213.436"/>
				<path clip-path="url(#SVGID_8_)" fill="#D01819" d="M75.452,210.419c0.082,0.211,0.062,0.451,0.206,0.642
					c0.257,0.339,0.506,0.683,0.81,0.976c0.09,0.087,0.138,0.055,0.195-0.023c0.054-0.075,0.186-0.118,0.077-0.258
					c-0.113-0.146-0.197-0.329-0.329-0.445c-0.33-0.29-0.348-0.651-0.257-1.056c0.022-0.099,0.05-0.198,0.065-0.299
					c0.018-0.121-0.064-0.197-0.154-0.137c-0.214,0.143-0.369,0.37-0.583,0.515C75.463,210.346,75.462,210.39,75.452,210.419"/>
				<path clip-path="url(#SVGID_8_)" fill="#D01819" d="M72.399,214.413c-0.017,0.038-0.047,0.076-0.049,0.116
					c-0.004,0.081,0.061,0.122,0.111,0.158c0.053,0.038,0.082-0.029,0.11-0.062c0.111-0.129,0.115-0.272,0.002-0.432
					c-0.055-0.079-0.101-0.134-0.003-0.216c0.071-0.059,0.088-0.152,0.057-0.244c-0.031-0.094-0.125-0.105-0.191-0.148
					c-0.048-0.032-0.062,0.029-0.085,0.066c-0.051,0.085-0.093,0.177-0.174,0.229c0.022,0.094,0.119,0.059,0.145,0.13
					c-0.016,0.07-0.068,0.032-0.098,0.03c-0.105-0.007-0.167,0.053-0.199,0.15c-0.031,0.095-0.028,0.191,0.055,0.26
					c0.108,0.091,0.151,0.189,0.046,0.32c-0.024,0.03-0.044,0.106-0.029,0.123c0.123,0.143,0.069,0.34,0.132,0.496
					c0.033,0.081,0.043,0.139,0,0.211c-0.029,0.048-0.063,0.104,0,0.149c0.043,0.03,0.093,0.018,0.132-0.013
					c0.05-0.04,0.059-0.102,0.019-0.151c-0.054-0.066-0.048-0.116-0.002-0.183c0.04-0.057,0.029-0.123-0.021-0.173
					c-0.088-0.09-0.079-0.174,0.002-0.263c0.089-0.097,0.079-0.2-0.014-0.281C72.2,214.557,72.272,214.476,72.399,214.413"/>
				<path clip-path="url(#SVGID_8_)" fill="#D01819" d="M75.796,211.908c-0.113-0.019-0.13,0.047-0.101,0.159
					c0.038,0.148,0.076,0.296,0.106,0.445c0.022,0.109,0.094,0.115,0.17,0.124c0.103,0.012,0.206,0.108,0.299,0.065
					c0.091-0.042,0.077-0.189,0.124-0.284c0.126-0.255,0.112-0.292-0.138-0.38C76.109,211.986,75.967,211.905,75.796,211.908"/>
				<path clip-path="url(#SVGID_8_)" fill="#D01819" d="M72.445,215.923c0.046,0,0.093-0.001,0.139,0
					c0.086,0.002,0.137-0.035,0.063-0.118c-0.077-0.085-0.013-0.117,0.027-0.167c0.092-0.113,0.109-0.232-0.005-0.334
					c-0.077-0.069-0.047-0.109,0.005-0.166c0.068-0.074,0.069-0.154,0.013-0.241c-0.092-0.142-0.12-0.129-0.21,0.008
					c-0.086,0.131-0.088,0.216-0.021,0.367c0.05,0.112,0.018,0.285,0.017,0.428c-0.001,0.152-0.139,0.149-0.243,0.121
					c-0.099-0.027-0.127-0.098-0.099-0.22c0.054-0.23-0.011-0.447-0.122-0.642c-0.042-0.074-0.106-0.028-0.128,0.039
					c-0.019,0.058-0.032,0.131,0.018,0.18c0.09,0.089,0.176,0.168,0.055,0.305c-0.029,0.033,0.002,0.086,0.024,0.124
					c0.015,0.027,0.039,0.049,0.051,0.078C72.129,215.936,72.161,215.955,72.445,215.923"/>
				<path clip-path="url(#SVGID_8_)" fill="#D01819" d="M74.775,213.279c-0.1-0.041-0.196-0.119-0.311-0.047
					c-0.018,0.011-0.052,0.012-0.068,0.001c-0.156-0.11-0.311-0.196-0.495-0.066c-0.029,0.02-0.056-0.036-0.077-0.064
					c-0.046-0.063-0.105-0.113-0.177-0.108c-0.171,0.014-0.342,0.049-0.458-0.145c-0.015-0.025-0.056-0.02-0.08,0.001
					c-0.032,0.029,0.004,0.056,0.01,0.084c0.063,0.303,0.099,0.323,0.331,0.192c0.123-0.069,0.229-0.037,0.31,0.078
					c0.076,0.108,0.155,0.148,0.267,0.065c0.078-0.058,0.145-0.026,0.198,0.047c0.067,0.092,0.14,0.124,0.241,0.058
					c0.095-0.062,0.179-0.022,0.25,0.06c0.048,0.055,0.091,0.123,0.173,0.107c0.132-0.027,0.237-0.005,0.356,0.096
					c0.099,0.084,0.2-0.052,0.283-0.158c-0.181,0.059-0.307-0.047-0.44-0.138c-0.065-0.044-0.136-0.012-0.2,0.021
					c-0.085,0.044-0.12,0.01-0.116-0.089C74.771,213.275,74.775,213.279,74.775,213.279"/>
				<path clip-path="url(#SVGID_8_)" fill="#D01819" d="M77.013,212.281c-0.007-0.047-0.008-0.099-0.023-0.147
					c-0.059-0.195-0.141-0.215-0.266-0.064c-0.138,0.167-0.255,0.35-0.312,0.572c-0.014,0.057-0.059,0.125,0.016,0.17
					c0.069,0.042,0.143,0.12,0.223,0.055C76.831,212.721,76.997,212.559,77.013,212.281"/>
				<path clip-path="url(#SVGID_8_)" fill="#D01819" d="M72.05,213.95c-0.274,0.042-0.439-0.108-0.575-0.326
					c-0.055,0.242,0.025,0.442,0.249,0.595c0.087,0.06,0.141,0.086,0.023,0.177c-0.085,0.067-0.085,0.179-0.042,0.28
					c0.051,0.119,0.16,0.163,0.26,0.208c0.043,0.019,0.151-0.262,0.12-0.314C71.916,214.284,71.916,214.284,72.05,213.95"/>
				<path clip-path="url(#SVGID_8_)" fill="#D01819" d="M75.195,214.017c-0.148-0.007-0.269-0.052-0.346-0.202
					c-0.036-0.071-0.114-0.049-0.173-0.021c-0.085,0.039-0.159,0.025-0.222-0.045c-0.068-0.078-0.17-0.079-0.225-0.04
					c-0.135,0.096-0.223,0.027-0.315-0.061c-0.057-0.054-0.133-0.071-0.171-0.019c-0.04,0.055,0.018,0.139,0.06,0.177
					c0.089,0.083,0.198,0.139,0.314,0.055c0.07-0.05,0.118-0.059,0.173,0.029c0.046,0.073,0.131,0.107,0.201,0.063
					c0.11-0.069,0.155-0.013,0.212,0.08C74.823,214.226,75.045,214.221,75.195,214.017"/>
				<path clip-path="url(#SVGID_8_)" fill="#D01819" d="M73.676,212.504c0.468,0.219,0.917,0.06,1.344-0.48
					C74.543,212.193,74.165,212.548,73.676,212.504"/>
				<path clip-path="url(#SVGID_8_)" fill="#D01819" d="M74.039,211.655c0.205-0.087,0.261-0.254,0.158-0.473
					c-0.035-0.073-0.071-0.147-0.098-0.224c-0.024-0.068-0.036-0.142-0.056-0.229c-0.155,0.118-0.152,0.289-0.102,0.431
					c0.057,0.164,0.086,0.327,0.101,0.498L74.039,211.655z"/>
				<path clip-path="url(#SVGID_8_)" fill="#D01819" d="M75.58,211.183c0.024,0.177,0.049,0.353,0.072,0.53
					c0.008,0.059,0.036,0.089,0.091,0.094c0.131,0.013,0.262,0.03,0.408,0.044c-0.179-0.228-0.357-0.456-0.535-0.684
					C75.604,211.172,75.592,211.178,75.58,211.183"/>
				<path clip-path="url(#SVGID_8_)" fill="#D01819" d="M74.153,213.652c0.13-0.083,0.267-0.058,0.4,0.062
					c0.065,0.058,0.128-0.017,0.186-0.044c0.045-0.02,0.023-0.066-0.004-0.093c-0.066-0.065-0.12-0.196-0.225-0.134
					c-0.132,0.079-0.225,0.05-0.32-0.059c-0.066-0.076-0.136-0.047-0.201,0.006c-0.037,0.03-0.079,0.063-0.049,0.123
					C73.981,213.596,74.032,213.663,74.153,213.652"/>
				<path clip-path="url(#SVGID_8_)" fill="#D01819" d="M74.382,211.507c0.056-0.097,0.144-0.177,0.134-0.308
					c-0.006-0.073,0.011-0.166-0.103-0.154c-0.03,0.003-0.073-0.018-0.063-0.048c0.053-0.16-0.1-0.22-0.116-0.354
					c-0.129,0.164-0.111,0.322,0.044,0.384c0.093,0.037,0.05,0.084,0.042,0.145c-0.014,0.116-0.097,0.255,0.065,0.33
					C74.385,211.503,74.382,211.507,74.382,211.507"/>
				<path clip-path="url(#SVGID_8_)" fill="#D01819" d="M72.731,213.708c0.147,0.064,0.266,0.002,0.364-0.101
					c0.065-0.068,0.086-0.1,0.141,0.014c0.076,0.158,0.212,0.164,0.449,0.015c-0.242,0.014-0.342-0.124-0.415-0.306
					c-0.03-0.076-0.098-0.097-0.122-0.005C73.086,213.558,72.932,213.654,72.731,213.708"/>
				<path clip-path="url(#SVGID_8_)" fill="#D01819" d="M75.422,213.955c0.007-0.09,0.013-0.17,0.022-0.274
					c-0.146,0.085-0.25,0.065-0.344-0.055c-0.054-0.069-0.065-0.059-0.245,0.045c0.083,0.165,0.154,0.319,0.364,0.151
					C75.313,213.747,75.317,213.939,75.422,213.955"/>
				<path clip-path="url(#SVGID_8_)" fill="#D01819" d="M73.584,213.542c0.079-0.022,0.209-0.032,0.2-0.132
					c-0.01-0.107-0.089-0.235-0.22-0.232c-0.092,0.002-0.207,0.057-0.206,0.163C73.359,213.462,73.459,213.534,73.584,213.542"/>
				<path clip-path="url(#SVGID_8_)" fill="#D01819" d="M74.602,211.238c0.167-0.202,0.17-0.306,0.037-0.457
					c-0.045-0.05-0.095-0.095-0.134-0.15c-0.038-0.053-0.082-0.082-0.133-0.045c-0.08,0.058-0.009,0.122,0.018,0.16
					C74.49,210.886,74.612,211.008,74.602,211.238"/>
				<path clip-path="url(#SVGID_8_)" fill="#D01819" d="M71.674,212.587c0.111,0.194,0.314,0.283,0.488,0.215
					c0.028-0.011,0.057-0.029,0.054-0.064c-0.005-0.06-0.063-0.069-0.096-0.101c-0.023-0.023-0.071-0.043-0.085,0.005
					c-0.06,0.203-0.139,0.023-0.2,0.008C71.782,212.635,71.753,212.533,71.674,212.587"/>
				<path clip-path="url(#SVGID_8_)" fill="#D01819" d="M72.247,213.679c-0.213,0.047-0.389,0.122-0.598-0.034
					C71.807,213.929,72.043,213.938,72.247,213.679"/>
				<path clip-path="url(#SVGID_8_)" fill="#D01819" d="M71.303,213.565c-0.203,0.013-0.371,0.081-0.568-0.016
					C70.879,213.749,71.075,213.75,71.303,213.565"/>
				<path clip-path="url(#SVGID_8_)" fill="#D01819" d="M71.251,212.745c0.075-0.03,0.178-0.035,0.199-0.159
					c0.006-0.038-0.038-0.045-0.065-0.037c-0.091,0.03-0.194,0.054-0.236,0.156C71.133,212.743,71.204,212.747,71.251,212.745"/>
				<polyline clip-path="url(#SVGID_8_)" fill="#D01819" points="74.041,211.659 74.02,211.662 74.029,211.667 74.039,211.655 
					74.041,211.659 				"/>
				<path clip-path="url(#SVGID_8_)" fill="#EDEDED" d="M74.213,211.924c-0.206-0.048-0.308,0.091-0.402,0.262
					c0.057,0.031,0.095-0.007,0.108-0.038c0.059-0.139,0.223-0.108,0.29-0.228L74.213,211.924z"/>
				<path clip-path="url(#SVGID_8_)" fill="#EDEDED" d="M73.569,212.17c0.01,0.021,0.025,0.045,0.044,0.02
					c0.023-0.03-0.01-0.031-0.025-0.04C73.582,212.157,73.575,212.163,73.569,212.17"/>
				<path clip-path="url(#SVGID_8_)" fill="#EDEDED" d="M74.21,211.921c0.01,0.003,0.019,0.005,0.029,0.008
					c0.002-0.015,0.004-0.03,0.005-0.045c0,0,0.003,0.003,0.003,0.003c-0.024,0-0.035,0.014-0.035,0.039L74.21,211.921"/>
				<path clip-path="url(#SVGID_8_)" fill="#EDEDED" d="M72.677,213.348c0.091-0.015,0.163-0.06,0.151-0.171
					c-0.009-0.08-0.039-0.166-0.14-0.157c-0.095,0.009-0.178,0.049-0.176,0.17C72.514,213.296,72.584,213.344,72.677,213.348"/>
				<path clip-path="url(#SVGID_8_)" fill="#EDEDED" d="M71.956,213.586c0.063-0.012,0.129-0.058,0.123-0.169
					c-0.006-0.107-0.092-0.141-0.157-0.122c-0.064,0.018-0.186,0.004-0.173,0.136C71.759,213.536,71.823,213.602,71.956,213.586"/>
				<path clip-path="url(#SVGID_8_)" fill="#EDEDED" d="M70.938,213.436c0.086-0.008,0.158-0.041,0.156-0.145
					c-0.001-0.092-0.055-0.161-0.142-0.163c-0.083-0.001-0.148,0.055-0.153,0.151C70.793,213.378,70.854,213.426,70.938,213.436"/>
			</g>
		</g>
	</g>
	<g>
		<g>
			<defs>
				<rect id="SVGID_9_" x="209.165" y="160.99" width="74.673" height="78.634"/>
			</defs>
			<clipPath id="SVGID_10_">
				<use xlink:href="#SVGID_9_"  overflow="visible"/>
			</clipPath>
			<g clip-path="url(#SVGID_10_)">
				<defs>
					<rect id="SVGID_11_" x="209.165" y="160.99" width="74.673" height="78.634"/>
				</defs>
				<clipPath id="SVGID_12_">
					<use xlink:href="#SVGID_11_"  overflow="visible"/>
				</clipPath>
				<path clip-path="url(#SVGID_12_)" fill="#D01819" d="M231.74,210.602c0.019,2.47-0.049,4.939-0.146,7.406
					c-0.025,0.633,0.161,0.88,0.752,0.836c2.698-0.199,2.213,0.422,2.462-2.403c0.121-1.376,0.394-2.714,0.691-4.05
					c0.303-1.364,0.643-2.72,0.969-4.079c0.209-0.868,0.716-1.559,1.219-2.25c0.261-0.358,0.584-0.409,0.993-0.266
					c0.985,0.345,1.984,0.647,2.975,0.974c0.267,0.088,0.515,0.154,0.728-0.114c0.215-0.27,0.009-0.465-0.099-0.679
					c-0.025-0.05-0.087-0.111-0.074-0.144c0.372-1.002-0.783-1.745-0.416-2.751c0.115-0.316-0.181-0.427-0.355-0.583
					c-0.566-0.505-0.721-1.132-0.355-1.801c0.222-0.405,0.097-0.591-0.182-0.833c-0.594-0.517-0.998-1.167-1.108-1.984
					c-0.05-0.372-0.157-0.465-0.52-0.312c-1.823,0.77-3.379-0.109-3.841-2.143c-0.019-0.082-0.003-0.192-0.049-0.244
					c-0.254-0.288,0.206-1.003-0.393-0.978c-0.599,0.024-1.276-0.02-1.557,0.925c-0.97,3.264-1.819,6.532-1.705,10.002
					C231.79,206.954,231.74,208.779,231.74,210.602"/>
				<path clip-path="url(#SVGID_12_)" fill="#D01819" d="M257.316,210.06c0.085-2.269,0.189-4.537,0.246-6.806
					c0.022-0.878,0.242-1.716,0.346-2.577c0.104-0.865-0.187-1.118-0.951-0.887c-0.778,0.237-1.566,0.375-2.096-0.541
					c-0.13-0.223-0.373-0.236-0.575-0.186c-0.483,0.118-0.884-0.256-1.272-0.271c-1.014-0.04-1.897-0.227-2.847-0.699
					c-0.522-0.259-1.426,0.192-2.008-0.505c-0.016-0.019-0.043-0.031-0.068-0.04c-0.153-0.056-0.267,0.046-0.351,0.14
					c-0.578,0.648-1.757,0.139-2.113,1.245c-0.099,0.308,0.012,0.491,0.147,0.682c0.433,0.615,0.483,1.238,0.051,1.861
					c-0.221,0.319-0.165,0.525,0.094,0.784c0.451,0.451,0.769,0.959,0.285,1.609c-0.155,0.208-0.121,0.415,0.023,0.615
					c0.372,0.518,0.362,1.038-0.015,1.541c-0.207,0.277-0.234,0.522-0.042,0.835c0.197,0.32,0.451,0.317,0.759,0.305
					c1.572-0.064,3.14-0.182,4.651-0.67c0.573-0.185,0.794,0.037,1.017,0.556c1.362,3.168,1.659,6.524,1.657,9.942
					c0,1.733,0.056,1.774,1.709,1.682c1.048-0.058,1.146-0.169,1.198-1.302C257.274,214.937,257.117,212.494,257.316,210.06"/>
				<path clip-path="url(#SVGID_12_)" fill="#D01819" d="M253.663,187.955c0.041,0.486-0.401,0.447-0.63,0.575
					c-0.672,0.376-1.277,0.941-2.238,0.97c1.628-1.144,0.409-2.419,0.31-3.629c-0.013-0.156-0.184-0.2-0.317-0.129
					c-0.152,0.08-0.275,0.245-0.16,0.405c0.276,0.383,0.056,0.598-0.191,0.834c-0.237,0.225-0.52,0.447-0.14,0.809
					c0.047,0.044,0.036,0.236-0.015,0.301c-0.282,0.361-0.596,0.665,0.054,1.014c0.198,0.106,0.052,0.539-0.104,0.677
					c-0.339,0.3-0.213,0.653-0.219,0.999c0.07,0.037,0.221,0.043,0.115,0.173c-0.088,0.108-0.158,0.004-0.203-0.088
					c-0.088-0.049-0.259-0.112-0.254-0.144c0.133-0.805-0.247-1.625,0.008-2.401c0.105-0.318,0.06-0.48-0.139-0.628
					c-0.299-0.223-0.31,0.102-0.428,0.27c-0.996,1.421-1.593,3.151-2.983,4.266c-0.246,0.197-0.154,0.388,0.047,0.537
					c0.127,0.095,0.273,0.184,0.423,0.22c0.895,0.214,1.8,0.369,2.499,1.112c0.138,0.146,0.508,0.06,0.772,0.062
					c0.481,0.004,0.964-0.017,1.327,0.411c0.09,0.106,0.225,0.211,0.349,0.134c0.766-0.47,1.408-0.14,2.048,0.309
					c0.433,0.303,0.943-0.22,1.416,0.147c0.207,0.161,0.5,0.169,0.438,0.547l-0.018-0.02c0.81-0.135,1.591-0.312,2.316,0.393
					c0.399,0.388,1.104-0.004,1.272-0.589c0.223-0.776,0.356-1.585,0.745-2.301c0.169-0.311,0.025-0.604-0.036-0.896
					c-0.092-0.438-0.19-0.877-0.332-1.298c-0.137-0.407,0.005-1.044-0.448-1.18c-0.625-0.187-1.28,0.018-1.811,0.442
					c-0.313,0.25-0.579,0.576-0.834,0.895c-1.58,1.979-4.315,2.609-6.531,1.491c-0.294-0.148-0.539-0.354-0.67-0.674
					c0.055-0.203,0.205-0.155,0.326-0.142c1.912,0.206,3.634-0.315,5.323-1.276c1.092-0.621,2.291-1.141,3.588-1.152
					c0.619-0.005,0.79-0.278,0.681-0.886c-0.282-1.576-0.287-3.194-0.699-4.759c-0.159-0.607-0.379-0.708-0.846-0.49
					c-0.201,0.094-0.398,0.142-0.612,0.146c-0.384,0.008-0.604,0.5-0.54,0.597c0.381,0.578,0.252,1.347,0.569,1.857
					c0.575,0.926,0.348,1.993-0.69,2.085c-0.734,0.065-1.085,0.401-1.348,1.034c-0.18,0.433-0.527,0.701-0.963,0.478
					c-0.37-0.189-0.554,0.328-0.874,0.15c-0.008,0.066-0.016,0.132-0.024,0.198c-0.044-0.011-0.089-0.022-0.134-0.034
					c-0.309,0.524-1.061,0.387-1.33,0.996c-0.06,0.135-0.234,0.304-0.497,0.167c0.428-0.747,0.896-1.354,1.84-1.146
					c0.001-0.111,0.052-0.17,0.159-0.17c0.141-0.425,0.304-0.787,0.844-0.519c0.399,0.197,0.621-0.092,0.727-0.421
					c0.233-0.72,0.598-1.14,1.398-1.021c0.461,0.068,0.722-0.317,0.877-0.718c0.149-0.383-0.041-0.64-0.382-0.791
					c-0.048-0.022-0.131-0.077-0.127-0.09c0.286-0.874-0.672-1.547-0.354-2.441c-0.509-0.181-0.97,0.136-1.459,0.156
					c-0.052,0.296,0.158,0.399,0.319,0.53c1.041,0.849,1.126,1.184,0.389,2.326c-0.391,0.605-0.843,1.209-1.618,1.335
					L253.663,187.955z"/>
				<path clip-path="url(#SVGID_12_)" fill="#D01819" d="M247.023,195.568c0.277,0.822-0.492,0.919-0.666,1.374
					c0.629,0.08,1.215-0.398,1.352-1.146c0.11-0.599,0.125-1.329-0.553-1.461c-0.734-0.143-1.067-0.658-1.424-1.174
					c-0.286-0.414-0.582-0.511-1.016-0.36c-0.264,0.092-0.616,0.102-0.179,0.48c0.264,0.228,0.063,0.328-0.132,0.381
					c-0.811,0.216-1.593,0.398-2.478,0.3c-0.47-0.052-0.862-0.051-1.325-0.274c-0.411-0.199-0.405,0.668-0.899,0.709
					c-0.108-0.271,0.314-0.422,0.169-0.769c-1.078,0.153-2.205,0.406-3.279-0.347c0.253-0.184,0.48-0.35,0.708-0.516
					c-0.863-0.188-1.66-0.061-2.412,0.354c-0.082,0.045-0.172,0.155-0.183,0.245c-0.021,0.182,0.156,0.251,0.267,0.229
					c0.599-0.119,0.584,0.353,0.717,0.742c0.333,0.974,0.867,1.817,1.809,2.214c0.902,0.379,1.549,0.086,2.241-0.898
					c0.286-0.406,0.52-0.712,0.743,0.036c0.047,0.157,0.151,0.296,0.234,0.439c0.433,0.745,0.932,1.396,1.883,1.29
					c0.957-0.107,1.346-0.867,1.697-1.665C245.76,196.837,246.4,196.684,247.023,195.568 M245.839,196.011
					c-0.425-0.021-0.746-0.228-0.755-0.691c-0.01-0.525,0.37-0.701,0.806-0.74c0.463-0.041,0.602,0.333,0.641,0.684
					C246.586,195.748,246.258,195.947,245.839,196.011 M242.538,197.048c-0.61,0.071-0.904-0.216-0.951-0.676
					c-0.06-0.578,0.502-0.516,0.794-0.595c0.298-0.081,0.696,0.066,0.721,0.534C243.128,196.795,242.829,196.995,242.538,197.048
					 M237.874,196.392c-0.384-0.042-0.665-0.25-0.64-0.685c0.025-0.416,0.321-0.664,0.702-0.658
					c0.397,0.006,0.644,0.308,0.651,0.711C238.596,196.213,238.268,196.358,237.874,196.392"/>
				<path clip-path="url(#SVGID_12_)" fill="#D01819" d="M258.553,183.225c0.376,0.922,0.282,1.969,0.943,2.803
					c1.176,1.481,2.319,2.983,3.71,4.261c0.412,0.379,0.632,0.239,0.893-0.102c0.249-0.326,0.852-0.513,0.352-1.128
					c-0.519-0.636-0.901-1.435-1.508-1.944c-1.51-1.265-1.595-2.844-1.175-4.608c0.103-0.434,0.23-0.865,0.296-1.305
					c0.08-0.53-0.295-0.859-0.707-0.596c-0.978,0.626-1.69,1.615-2.672,2.246C258.6,182.906,258.595,183.096,258.553,183.225"/>
				<path clip-path="url(#SVGID_12_)" fill="#D01819" d="M244.568,200.66c-0.08,0.168-0.216,0.332-0.226,0.505
					c-0.02,0.355,0.28,0.531,0.51,0.691c0.242,0.168,0.374-0.127,0.506-0.273c0.51-0.564,0.527-1.187,0.01-1.885
					c-0.254-0.343-0.465-0.587-0.014-0.943c0.323-0.256,0.402-0.664,0.261-1.067c-0.143-0.409-0.57-0.457-0.877-0.647
					c-0.222-0.138-0.285,0.125-0.387,0.287c-0.233,0.369-0.427,0.774-0.797,1.002c0.103,0.411,0.547,0.259,0.665,0.569
					c-0.075,0.305-0.312,0.139-0.451,0.131c-0.479-0.031-0.765,0.23-0.913,0.653c-0.143,0.414-0.127,0.834,0.25,1.137
					c0.494,0.398,0.693,0.824,0.209,1.398c-0.109,0.129-0.201,0.463-0.134,0.537c0.566,0.626,0.316,1.483,0.603,2.163
					c0.15,0.355,0.197,0.607,0,0.921c-0.132,0.21-0.289,0.453,0.002,0.649c0.195,0.131,0.424,0.081,0.603-0.057
					c0.23-0.176,0.271-0.444,0.087-0.659c-0.247-0.288-0.221-0.508-0.007-0.8c0.182-0.249,0.132-0.536-0.094-0.755
					c-0.402-0.391-0.363-0.761,0.01-1.148c0.41-0.425,0.362-0.871-0.063-1.225C243.654,201.288,243.984,200.932,244.568,200.66"/>
				<path clip-path="url(#SVGID_12_)" fill="#D01819" d="M260.128,189.724c-0.517-0.083-0.594,0.205-0.461,0.694
					c0.176,0.644,0.349,1.29,0.485,1.944c0.099,0.478,0.429,0.502,0.778,0.541c0.473,0.053,0.943,0.47,1.372,0.283
					c0.417-0.182,0.353-0.825,0.567-1.239c0.575-1.113,0.513-1.275-0.631-1.657C261.56,190.064,260.909,189.709,260.128,189.724"/>
				<path clip-path="url(#SVGID_12_)" fill="#D01819" d="M244.776,207.251c0.212,0,0.425-0.003,0.637,0.001
					c0.393,0.007,0.63-0.151,0.286-0.513c-0.353-0.373-0.06-0.511,0.125-0.727c0.423-0.493,0.497-1.014-0.024-1.458
					c-0.352-0.3-0.215-0.476,0.021-0.723c0.31-0.323,0.317-0.671,0.057-1.053c-0.422-0.62-0.552-0.561-0.963,0.035
					c-0.395,0.572-0.405,0.944-0.098,1.604c0.229,0.49,0.083,1.243,0.079,1.868c-0.004,0.666-0.638,0.65-1.113,0.526
					c-0.453-0.118-0.584-0.429-0.453-0.962c0.246-1.005-0.053-1.953-0.557-2.801c-0.191-0.321-0.485-0.123-0.588,0.172
					c-0.089,0.254-0.144,0.574,0.083,0.787c0.413,0.386,0.805,0.734,0.251,1.332c-0.134,0.145,0.009,0.375,0.108,0.543
					c0.07,0.118,0.179,0.215,0.233,0.339C243.329,207.306,243.476,207.39,244.776,207.251"/>
				<path clip-path="url(#SVGID_12_)" fill="#D01819" d="M255.449,195.709c-0.46-0.18-0.896-0.519-1.426-0.206
					c-0.081,0.048-0.236,0.054-0.311,0.004c-0.714-0.482-1.423-0.856-2.267-0.287c-0.132,0.089-0.257-0.155-0.354-0.281
					c-0.212-0.274-0.479-0.495-0.811-0.47c-0.781,0.059-1.565,0.216-2.1-0.634c-0.07-0.11-0.258-0.087-0.366,0.005
					c-0.148,0.127,0.019,0.246,0.045,0.365c0.291,1.321,0.453,1.408,1.517,0.84c0.561-0.299,1.048-0.161,1.418,0.341
					c0.347,0.471,0.711,0.647,1.222,0.285c0.358-0.254,0.662-0.113,0.907,0.206c0.308,0.401,0.642,0.541,1.106,0.255
					c0.436-0.269,0.821-0.098,1.146,0.26c0.22,0.242,0.417,0.538,0.794,0.466c0.607-0.116,1.085-0.023,1.63,0.42
					c0.454,0.369,0.916-0.228,1.298-0.692c-0.827,0.258-1.404-0.206-2.014-0.604c-0.297-0.193-0.622-0.052-0.918,0.093
					c-0.389,0.19-0.552,0.042-0.534-0.386C255.432,195.688,255.449,195.709,255.449,195.709"/>
				<path clip-path="url(#SVGID_12_)" fill="#D01819" d="M265.701,191.35c-0.031-0.203-0.037-0.434-0.104-0.642
					c-0.272-0.851-0.646-0.938-1.219-0.279c-0.634,0.73-1.17,1.53-1.427,2.498c-0.066,0.247-0.272,0.545,0.072,0.743
					c0.317,0.183,0.656,0.524,1.023,0.239C264.865,193.271,265.628,192.566,265.701,191.35"/>
				<path clip-path="url(#SVGID_12_)" fill="#D01819" d="M242.967,198.637c-1.255,0.183-2.009-0.472-2.635-1.421
					c-0.252,1.058,0.117,1.928,1.139,2.598c0.397,0.26,0.644,0.374,0.105,0.775c-0.391,0.291-0.389,0.781-0.192,1.22
					c0.233,0.519,0.735,0.713,1.191,0.906c0.198,0.083,0.69-1.144,0.552-1.369C242.354,200.095,242.355,200.095,242.967,198.637"/>
				<path clip-path="url(#SVGID_12_)" fill="#D01819" d="M257.372,198.929c-0.68-0.031-1.234-0.228-1.586-0.882
					c-0.166-0.308-0.522-0.213-0.793-0.094c-0.391,0.172-0.73,0.111-1.015-0.199c-0.312-0.339-0.779-0.347-1.032-0.175
					c-0.617,0.42-1.022,0.116-1.442-0.267c-0.259-0.236-0.611-0.309-0.782-0.081c-0.182,0.242,0.083,0.605,0.273,0.774
					c0.41,0.364,0.905,0.605,1.438,0.238c0.319-0.219,0.542-0.256,0.793,0.126c0.209,0.318,0.601,0.465,0.923,0.274
					c0.503-0.3,0.708-0.055,0.972,0.35C255.672,199.842,256.687,199.819,257.372,198.929"/>
				<path clip-path="url(#SVGID_12_)" fill="#D01819" d="M250.414,192.326c2.142,0.955,4.202,0.262,6.156-2.096
					C254.389,190.969,252.655,192.515,250.414,192.326"/>
				<path clip-path="url(#SVGID_12_)" fill="#D01819" d="M252.078,188.62c0.941-0.381,1.195-1.111,0.724-2.063
					c-0.159-0.32-0.325-0.64-0.448-0.976c-0.109-0.299-0.163-0.62-0.259-0.999c-0.71,0.517-0.694,1.262-0.469,1.881
					c0.26,0.716,0.396,1.427,0.461,2.172L252.078,188.62z"/>
				<path clip-path="url(#SVGID_12_)" fill="#D01819" d="M259.138,186.558c0.111,0.771,0.223,1.541,0.33,2.312
					c0.036,0.259,0.167,0.388,0.418,0.412c0.601,0.058,1.201,0.131,1.867,0.191c-0.818-0.995-1.635-1.991-2.453-2.986
					C259.246,186.511,259.192,186.534,259.138,186.558"/>
				<path clip-path="url(#SVGID_12_)" fill="#D01819" d="M252.6,197.334c0.593-0.361,1.222-0.251,1.834,0.27
					c0.298,0.254,0.585-0.076,0.854-0.19c0.206-0.087,0.103-0.29-0.019-0.405c-0.301-0.284-0.551-0.854-1.029-0.583
					c-0.606,0.343-1.03,0.219-1.464-0.256c-0.304-0.333-0.621-0.206-0.921,0.028c-0.17,0.133-0.361,0.274-0.226,0.537
					C251.812,197.093,252.048,197.386,252.6,197.334"/>
				<path clip-path="url(#SVGID_12_)" fill="#D01819" d="M253.648,187.971c0.255-0.423,0.658-0.775,0.613-1.346
					c-0.025-0.319,0.048-0.725-0.472-0.671c-0.139,0.014-0.332-0.077-0.286-0.21c0.241-0.698-0.459-0.959-0.529-1.544
					c-0.589,0.718-0.507,1.408,0.2,1.678c0.427,0.164,0.228,0.365,0.194,0.634c-0.064,0.505-0.445,1.111,0.296,1.441
					C253.663,187.955,253.648,187.971,253.648,187.971"/>
				<path clip-path="url(#SVGID_12_)" fill="#D01819" d="M246.088,197.579c0.671,0.28,1.218,0.007,1.668-0.439
					c0.298-0.296,0.395-0.437,0.648,0.063c0.348,0.688,0.97,0.714,2.055,0.067c-1.106,0.059-1.568-0.542-1.902-1.336
					c-0.139-0.332-0.447-0.423-0.56-0.023C247.712,196.928,247.006,197.343,246.088,197.579"/>
				<path clip-path="url(#SVGID_12_)" fill="#D01819" d="M258.412,198.66c0.032-0.392,0.061-0.74,0.099-1.197
					c-0.669,0.37-1.144,0.285-1.576-0.238c-0.249-0.301-0.296-0.257-1.12,0.195c0.379,0.721,0.708,1.391,1.667,0.658
					C257.912,197.749,257.933,198.591,258.412,198.66"/>
				<path clip-path="url(#SVGID_12_)" fill="#D01819" d="M249.992,196.855c0.36-0.095,0.958-0.14,0.917-0.576
					c-0.044-0.466-0.408-1.025-1.006-1.011c-0.423,0.009-0.948,0.247-0.943,0.71C248.966,196.508,249.423,196.82,249.992,196.855"/>
				<path clip-path="url(#SVGID_12_)" fill="#D01819" d="M254.658,186.798c0.765-0.88,0.777-1.335,0.168-1.993
					c-0.204-0.22-0.437-0.414-0.616-0.654c-0.174-0.233-0.375-0.356-0.609-0.195c-0.366,0.252-0.042,0.533,0.084,0.698
					C254.144,185.26,254.705,185.794,254.658,186.798"/>
				<path clip-path="url(#SVGID_12_)" fill="#D01819" d="M241.245,192.686c0.509,0.848,1.437,1.236,2.238,0.938
					c0.128-0.048,0.259-0.128,0.246-0.282c-0.023-0.26-0.287-0.3-0.438-0.443c-0.105-0.099-0.326-0.189-0.391,0.021
					c-0.274,0.887-0.635,0.102-0.917,0.033C241.742,192.895,241.61,192.451,241.245,192.686"/>
				<path clip-path="url(#SVGID_12_)" fill="#D01819" d="M243.872,197.452c-0.976,0.206-1.782,0.534-2.738-0.15
					C241.853,198.546,242.937,198.584,243.872,197.452"/>
				<path clip-path="url(#SVGID_12_)" fill="#D01819" d="M239.549,196.957c-0.929,0.055-1.698,0.352-2.603-0.068
					C237.605,197.759,238.503,197.763,239.549,196.957"/>
				<path clip-path="url(#SVGID_12_)" fill="#D01819" d="M239.306,193.379c0.345-0.132,0.817-0.155,0.911-0.694
					c0.029-0.165-0.176-0.198-0.296-0.16c-0.415,0.133-0.887,0.237-1.081,0.681C238.769,193.367,239.091,193.387,239.306,193.379"/>
				<path clip-path="url(#SVGID_12_)" fill="#D01819" d="M252.087,188.635l-0.096,0.015c0.013,0.008,0.034,0.026,0.04,0.022
					c0.018-0.013,0.031-0.035,0.047-0.053C252.078,188.619,252.087,188.635,252.087,188.635"/>
				<path clip-path="url(#SVGID_12_)" fill="#EDEDED" d="M252.874,189.795c-0.943-0.208-1.412,0.399-1.84,1.146
					c0.263,0.137,0.437-0.032,0.497-0.167c0.27-0.609,1.021-0.472,1.33-0.996L252.874,189.795z"/>
				<path clip-path="url(#SVGID_12_)" fill="#EDEDED" d="M249.925,190.865c0.045,0.092,0.115,0.197,0.203,0.088
					c0.106-0.13-0.045-0.136-0.115-0.173C249.984,190.809,249.955,190.837,249.925,190.865"/>
				<path clip-path="url(#SVGID_12_)" fill="#EDEDED" d="M252.861,189.778c0.045,0.011,0.089,0.022,0.134,0.034
					c0.008-0.066,0.016-0.132,0.024-0.199c0,0,0.014,0.012,0.014,0.012c-0.108,0-0.158,0.059-0.159,0.169L252.861,189.778"/>
				<path clip-path="url(#SVGID_12_)" fill="#EDEDED" d="M245.84,196.011c0.419-0.064,0.747-0.263,0.693-0.747
					c-0.039-0.351-0.179-0.725-0.641-0.684c-0.436,0.039-0.816,0.215-0.806,0.74C245.094,195.783,245.415,195.99,245.84,196.011"/>
				<path clip-path="url(#SVGID_12_)" fill="#EDEDED" d="M242.538,197.048c0.291-0.053,0.59-0.253,0.564-0.736
					c-0.026-0.469-0.423-0.615-0.721-0.534c-0.292,0.079-0.854,0.017-0.794,0.595C241.634,196.832,241.928,197.119,242.538,197.048"
					/>
				<path clip-path="url(#SVGID_12_)" fill="#EDEDED" d="M237.874,196.392c0.394-0.033,0.722-0.179,0.714-0.632
					c-0.007-0.403-0.254-0.705-0.651-0.711c-0.382-0.006-0.678,0.242-0.702,0.658C237.208,196.141,237.49,196.349,237.874,196.392"
					/>
			</g>
		</g>
	</g>
	<g>
		<g>
			<defs>
				<rect id="SVGID_13_" x="251.32" y="63.626" width="194.866" height="210.379"/>
			</defs>
			<clipPath id="SVGID_14_">
				<use xlink:href="#SVGID_13_"  overflow="visible"/>
			</clipPath>
			<g clip-path="url(#SVGID_14_)">
				<defs>
					<rect id="SVGID_15_" x="251.32" y="63.626" width="194.866" height="210.379"/>
				</defs>
				<clipPath id="SVGID_16_">
					<use xlink:href="#SVGID_15_"  overflow="visible"/>
				</clipPath>
				<path clip-path="url(#SVGID_16_)" fill="#D01819" d="M310.232,196.36c0.051,6.609-0.127,13.215-0.381,19.814
					c-0.065,1.693,0.419,2.354,1.961,2.237c7.041-0.532,5.774,1.129,6.424-6.429c0.317-3.682,1.029-7.261,1.804-10.837
					c0.791-3.65,1.678-7.277,2.529-10.912c0.545-2.322,1.87-4.17,3.182-6.019c0.68-0.957,1.523-1.094,2.592-0.711
					c2.571,0.924,5.179,1.73,7.764,2.606c0.697,0.236,1.344,0.411,1.9-0.305c0.561-0.722,0.022-1.243-0.257-1.817
					c-0.064-0.133-0.226-0.298-0.194-0.385c0.971-2.681-2.043-4.668-1.086-7.361c0.301-0.846-0.473-1.143-0.927-1.559
					c-1.476-1.352-1.881-3.029-0.927-4.818c0.579-1.083,0.252-1.58-0.474-2.229c-1.549-1.382-2.605-3.122-2.892-5.307
					c-0.131-0.995-0.409-1.244-1.358-0.834c-4.758,2.06-8.817-0.291-10.024-5.734c-0.049-0.219-0.007-0.513-0.127-0.652
					c-0.662-0.77,0.538-2.682-1.026-2.616c-1.562,0.065-3.329-0.055-4.062,2.474c-2.532,8.733-4.747,17.475-4.45,26.76
					C310.36,186.599,310.232,191.482,310.232,196.36"/>
				<path clip-path="url(#SVGID_16_)" fill="#D01819" d="M376.974,194.91c0.222-6.069,0.492-12.138,0.642-18.209
					c0.058-2.35,0.632-4.592,0.903-6.894c0.272-2.313-0.489-2.992-2.481-2.372c-2.031,0.633-4.085,1.003-5.471-1.446
					c-0.339-0.597-0.972-0.631-1.5-0.499c-1.261,0.317-2.306-0.685-3.321-0.725c-2.647-0.106-4.95-0.607-7.43-1.869
					c-1.362-0.693-3.72,0.513-5.24-1.352c-0.042-0.052-0.113-0.084-0.176-0.108c-0.398-0.149-0.697,0.122-0.916,0.373
					c-1.507,1.735-4.586,0.371-5.514,3.331c-0.259,0.825,0.031,1.314,0.383,1.825c1.13,1.644,1.261,3.313,0.133,4.98
					c-0.578,0.853-0.43,1.405,0.246,2.097c1.177,1.205,2.006,2.565,0.743,4.305c-0.404,0.558-0.315,1.111,0.06,1.645
					c0.971,1.385,0.944,2.776-0.039,4.123c-0.541,0.742-0.612,1.397-0.11,2.233c0.514,0.856,1.178,0.849,1.98,0.815
					c4.103-0.173,8.193-0.488,12.138-1.792c1.497-0.494,2.071,0.099,2.653,1.488c3.554,8.476,4.329,17.454,4.325,26.598
					c-0.001,4.637,0.147,4.745,4.459,4.5c2.736-0.156,2.99-0.453,3.127-3.484C376.864,207.958,376.454,201.422,376.974,194.91"/>
				<path clip-path="url(#SVGID_16_)" fill="#D01819" d="M367.439,135.769c0.107,1.301-1.045,1.196-1.644,1.539
					c-1.753,1.007-3.331,2.517-5.84,2.596c4.249-3.061,1.067-6.471,0.808-9.708c-0.033-0.419-0.48-0.534-0.826-0.346
					c-0.396,0.215-0.718,0.655-0.418,1.082c0.721,1.025,0.145,1.6-0.499,2.23c-0.618,0.603-1.358,1.197-0.365,2.164
					c0.122,0.119,0.094,0.63-0.038,0.805c-0.736,0.965-1.554,1.779,0.14,2.713c0.516,0.284,0.135,1.441-0.271,1.81
					c-0.885,0.804-0.556,1.747-0.571,2.674c0.182,0.1,0.577,0.115,0.299,0.463c-0.231,0.289-0.412,0.012-0.529-0.236
					c-0.231-0.13-0.675-0.3-0.662-0.384c0.348-2.154-0.644-4.346,0.021-6.423c0.273-0.85,0.156-1.285-0.362-1.681
					c-0.779-0.595-0.808,0.273-1.116,0.723c-2.599,3.802-4.156,8.431-7.785,11.414c-0.643,0.528-0.402,1.037,0.123,1.438
					c0.332,0.255,0.713,0.493,1.104,0.589c2.336,0.572,4.696,0.988,6.521,2.976c0.36,0.391,1.326,0.161,2.014,0.166
					c1.255,0.012,2.516-0.046,3.464,1.099c0.236,0.284,0.587,0.564,0.911,0.36c1.999-1.258,3.673-0.376,5.344,0.826
					c1.129,0.811,2.462-0.589,3.696,0.394c0.541,0.431,1.305,0.451,1.143,1.462l-0.046-0.055c2.114-0.362,4.153-0.834,6.044,1.051
					c1.042,1.039,2.881-0.012,3.32-1.577c0.582-2.076,0.929-4.241,1.944-6.156c0.44-0.831,0.065-1.616-0.095-2.396
					c-0.24-1.171-0.495-2.346-0.865-3.473c-0.358-1.088,0.014-2.793-1.168-3.156c-1.63-0.501-3.341,0.047-4.725,1.181
					c-0.817,0.669-1.51,1.54-2.177,2.395c-4.124,5.295-11.259,6.98-17.043,3.99c-0.767-0.396-1.406-0.947-1.749-1.803
					c0.143-0.543,0.536-0.413,0.85-0.38c4.99,0.55,9.484-0.844,13.891-3.414c2.849-1.661,5.979-3.054,9.363-3.083
					c1.616-0.014,2.061-0.743,1.776-2.371c-0.737-4.217-0.749-8.546-1.823-12.731c-0.416-1.623-0.99-1.896-2.207-1.31
					c-0.525,0.252-1.039,0.379-1.596,0.39c-1.003,0.021-1.575,1.338-1.408,1.598c0.995,1.547,0.658,3.603,1.484,4.967
					c1.499,2.477,0.909,5.332-1.802,5.579c-1.916,0.175-2.832,1.074-3.518,2.765c-0.471,1.159-1.375,1.876-2.512,1.279
					c-0.965-0.506-1.447,0.877-2.28,0.401c-0.02,0.177-0.042,0.353-0.063,0.53c-0.116-0.029-0.233-0.06-0.349-0.09
					c-0.807,1.402-2.768,1.036-3.471,2.664c-0.156,0.361-0.611,0.814-1.297,0.447c1.116-1.999,2.339-3.622,4.801-3.065
					c0.004-0.297,0.135-0.454,0.416-0.454c0.368-1.136,0.792-2.105,2.202-1.389c1.042,0.528,1.62-0.245,1.897-1.127
					c0.607-1.927,1.561-3.049,3.649-2.732c1.204,0.183,1.883-0.848,2.29-1.922c0.389-1.025-0.106-1.712-0.996-2.117
					c-0.126-0.058-0.342-0.205-0.33-0.242c0.745-2.339-1.754-4.139-0.925-6.53c-1.329-0.484-2.53,0.364-3.807,0.419
					c-0.136,0.793,0.412,1.068,0.833,1.419c2.716,2.272,2.938,3.167,1.015,6.222c-1.02,1.619-2.199,3.235-4.223,3.572
					L367.439,135.769z"/>
				<path clip-path="url(#SVGID_16_)" fill="#D01819" d="M350.114,156.137c0.724,2.2-1.284,2.459-1.739,3.675
					c1.642,0.215,3.17-1.065,3.528-3.067c0.286-1.603,0.325-3.555-1.443-3.909c-1.916-0.382-2.786-1.76-3.717-3.142
					c-0.746-1.108-1.519-1.367-2.65-0.962c-0.688,0.246-1.608,0.273-0.467,1.284c0.688,0.61,0.166,0.878-0.345,1.018
					c-2.117,0.577-4.157,1.066-6.468,0.804c-1.228-0.14-2.251-0.136-3.459-0.734c-1.072-0.531-1.056,1.788-2.347,1.897
					c-0.281-0.726,0.819-1.129,0.441-2.057c-2.813,0.408-5.755,1.087-8.557-0.928c0.66-0.493,1.253-0.937,1.846-1.381
					c-2.252-0.503-4.333-0.162-6.293,0.947c-0.213,0.121-0.45,0.415-0.476,0.655c-0.054,0.486,0.406,0.671,0.696,0.612
					c1.562-0.318,1.524,0.944,1.871,1.985c0.868,2.606,2.263,4.862,4.722,5.923c2.353,1.015,4.042,0.229,5.849-2.403
					c0.745-1.086,1.356-1.906,1.94,0.097c0.123,0.42,0.395,0.791,0.612,1.175c1.13,1.992,2.431,3.735,4.913,3.451
					c2.497-0.286,3.512-2.319,4.429-4.454C346.817,159.532,348.486,159.123,350.114,156.137 M347.025,157.323
					c-1.108-0.057-1.946-0.609-1.969-1.849c-0.026-1.405,0.966-1.876,2.103-1.981c1.207-0.11,1.572,0.892,1.674,1.829
					C348.973,156.62,348.118,157.153,347.025,157.323 M338.409,160.097c-1.593,0.189-2.358-0.579-2.482-1.808
					c-0.156-1.547,1.31-1.38,2.071-1.592c0.778-0.216,1.815,0.176,1.881,1.43C339.949,159.42,339.168,159.954,338.409,160.097
					 M326.237,158.342c-1.003-0.114-1.736-0.67-1.669-1.833c0.064-1.113,0.837-1.776,1.833-1.76
					c1.037,0.016,1.682,0.824,1.699,1.902C328.122,157.863,327.265,158.252,326.237,158.342"/>
				<path clip-path="url(#SVGID_16_)" fill="#D01819" d="M380.201,123.114c0.98,2.468,0.736,5.268,2.46,7.498
					c3.068,3.964,6.053,7.982,9.681,11.399c1.075,1.014,1.651,0.641,2.33-0.272c0.649-0.872,2.223-1.373,0.918-3.017
					c-1.353-1.702-2.351-3.839-3.935-5.201c-3.94-3.385-4.163-7.608-3.067-12.329c0.269-1.161,0.599-2.313,0.774-3.491
					c0.21-1.417-0.77-2.299-1.845-1.595c-2.553,1.674-4.41,4.32-6.972,6.009C380.324,122.261,380.311,122.77,380.201,123.114"/>
				<path clip-path="url(#SVGID_16_)" fill="#D01819" d="M343.706,169.761c-0.208,0.449-0.564,0.889-0.59,1.351
					c-0.053,0.95,0.73,1.42,1.331,1.848c0.631,0.449,0.976-0.339,1.32-0.73c1.33-1.508,1.376-3.176,0.026-5.044
					c-0.663-0.918-1.213-1.569-0.036-2.523c0.843-0.684,1.049-1.778,0.681-2.855c-0.374-1.095-1.489-1.223-2.289-1.731
					c-0.579-0.368-0.742,0.333-1.01,0.768c-0.608,0.988-1.114,2.071-2.079,2.68c0.269,1.099,1.426,0.693,1.734,1.523
					c-0.197,0.817-0.814,0.372-1.177,0.349c-1.251-0.082-1.997,0.616-2.381,1.748c-0.374,1.107-0.33,2.23,0.653,3.042
					c1.289,1.066,1.808,2.205,0.545,3.741c-0.285,0.345-0.524,1.239-0.351,1.436c1.476,1.674,0.825,3.968,1.574,5.788
					c0.391,0.95,0.513,1.623,0,2.465c-0.344,0.563-0.754,1.212,0.006,1.736c0.509,0.349,1.106,0.216,1.574-0.151
					c0.6-0.471,0.706-1.188,0.226-1.762c-0.644-0.77-0.577-1.359-0.019-2.142c0.475-0.666,0.344-1.434-0.246-2.021
					c-1.049-1.047-0.946-2.036,0.027-3.073c1.069-1.137,0.944-2.331-0.165-3.278C341.321,171.44,342.182,170.488,343.706,169.761"/>
				<path clip-path="url(#SVGID_16_)" fill="#D01819" d="M384.313,140.503c-1.35-0.223-1.55,0.549-1.202,1.856
					c0.459,1.723,0.911,3.451,1.265,5.202c0.258,1.278,1.119,1.342,2.031,1.447c1.233,0.141,2.46,1.258,3.58,0.758
					c1.089-0.486,0.921-2.208,1.479-3.316c1.5-2.979,1.34-3.41-1.646-4.433C388.05,141.411,386.35,140.463,384.313,140.503"/>
				<path clip-path="url(#SVGID_16_)" fill="#D01819" d="M344.25,187.394c0.554,0,1.109-0.008,1.663,0.002
					c1.025,0.019,1.643-0.404,0.747-1.374c-0.922-0.997-0.156-1.367,0.327-1.945c1.104-1.318,1.298-2.713-0.062-3.9
					c-0.92-0.803-0.56-1.274,0.056-1.933c0.808-0.864,0.828-1.796,0.15-2.818c-1.1-1.659-1.44-1.502-2.514,0.094
					c-1.03,1.531-1.057,2.526-0.255,4.292c0.596,1.311,0.216,3.326,0.206,4.998c-0.012,1.781-1.666,1.738-2.904,1.408
					c-1.183-0.315-1.523-1.149-1.183-2.575c0.641-2.688-0.137-5.225-1.454-7.495c-0.498-0.858-1.267-0.329-1.536,0.461
					c-0.232,0.681-0.377,1.535,0.217,2.106c1.077,1.034,2.1,1.963,0.655,3.564c-0.35,0.388,0.023,1.004,0.283,1.452
					c0.182,0.316,0.467,0.574,0.607,0.908C340.473,187.543,340.856,187.767,344.25,187.394"/>
				<path clip-path="url(#SVGID_16_)" fill="#D01819" d="M372.102,156.514c-1.2-0.481-2.337-1.387-3.722-0.55
					c-0.211,0.128-0.616,0.144-0.811,0.009c-1.863-1.29-3.713-2.29-5.917-0.768c-0.345,0.239-0.67-0.416-0.925-0.752
					c-0.553-0.733-1.25-1.325-2.117-1.258c-2.038,0.159-4.083,0.577-5.48-1.696c-0.182-0.296-0.672-0.234-0.954,0.013
					c-0.387,0.339,0.05,0.657,0.118,0.977c0.759,3.533,1.181,3.767,3.959,2.247c1.464-0.8,2.735-0.431,3.701,0.913
					c0.906,1.261,1.854,1.731,3.188,0.762c0.935-0.678,1.728-0.302,2.368,0.551c0.803,1.072,1.675,1.448,2.885,0.683
					c1.137-0.721,2.142-0.261,2.99,0.696c0.575,0.648,1.087,1.439,2.071,1.246c1.583-0.31,2.83-0.062,4.254,1.123
					c1.184,0.987,2.39-0.61,3.388-1.85c-2.158,0.691-3.664-0.551-5.257-1.617c-0.775-0.518-1.624-0.139-2.395,0.248
					c-1.015,0.509-1.44,0.113-1.392-1.034C372.056,156.46,372.102,156.514,372.102,156.514"/>
				<path clip-path="url(#SVGID_16_)" fill="#D01819" d="M398.854,144.853c-0.082-0.544-0.097-1.16-0.272-1.719
					c-0.709-2.277-1.687-2.51-3.181-0.747c-1.655,1.952-3.054,4.093-3.724,6.684c-0.171,0.661-0.71,1.457,0.188,1.989
					c0.827,0.489,1.711,1.403,2.671,0.639C396.675,149.994,398.664,148.106,398.854,144.853"/>
				<path clip-path="url(#SVGID_16_)" fill="#D01819" d="M339.529,164.35c-3.274,0.489-5.243-1.262-6.877-3.802
					c-0.659,2.832,0.304,5.158,2.973,6.952c1.037,0.696,1.68,0.999,0.275,2.072c-1.019,0.777-1.016,2.09-0.502,3.265
					c0.608,1.39,1.918,1.907,3.108,2.424c0.516,0.223,1.802-3.061,1.44-3.662C337.93,168.248,337.931,168.248,339.529,164.35"/>
				<path clip-path="url(#SVGID_16_)" fill="#D01819" d="M377.12,165.131c-1.773-0.083-3.22-0.611-4.14-2.358
					c-0.434-0.824-1.363-0.569-2.07-0.25c-1.019,0.461-1.905,0.297-2.649-0.531c-0.814-0.906-2.032-0.928-2.692-0.467
					c-1.611,1.124-2.666,0.311-3.764-0.714c-0.677-0.632-1.595-0.827-2.04-0.218c-0.475,0.647,0.216,1.62,0.712,2.07
					c1.069,0.973,2.361,1.619,3.753,0.637c0.832-0.586,1.414-0.686,2.07,0.338c0.546,0.851,1.569,1.244,2.408,0.733
					c1.313-0.802,1.847-0.147,2.536,0.937C372.684,167.573,375.331,167.512,377.12,165.131"/>
				<path clip-path="url(#SVGID_16_)" fill="#D01819" d="M358.962,147.465c5.591,2.554,10.966,0.702,16.064-5.607
					C369.336,143.832,364.811,147.97,358.962,147.465"/>
				<path clip-path="url(#SVGID_16_)" fill="#D01819" d="M363.304,137.548c2.455-1.02,3.118-2.972,1.889-5.519
					c-0.414-0.857-0.848-1.711-1.168-2.611c-0.285-0.799-0.426-1.659-0.675-2.673c-1.852,1.382-1.811,3.376-1.224,5.033
					c0.678,1.915,1.033,3.818,1.202,5.812L363.304,137.548z"/>
				<path clip-path="url(#SVGID_16_)" fill="#D01819" d="M381.728,132.032c0.288,2.062,0.583,4.122,0.862,6.186
					c0.095,0.694,0.436,1.037,1.09,1.102c1.568,0.155,3.133,0.349,4.872,0.512c-2.134-2.662-4.267-5.326-6.4-7.989
					C382.01,131.907,381.869,131.969,381.728,132.032"/>
				<path clip-path="url(#SVGID_16_)" fill="#D01819" d="M364.667,160.863c1.548-0.966,3.188-0.672,4.785,0.724
					c0.777,0.68,1.526-0.204,2.228-0.508c0.538-0.234,0.27-0.776-0.05-1.084c-0.786-0.759-1.439-2.285-2.685-1.561
					c-1.582,0.918-2.689,0.587-3.82-0.684c-0.794-0.892-1.621-0.551-2.404,0.075c-0.444,0.356-0.942,0.732-0.589,1.438
					C362.611,160.218,363.227,161.003,364.667,160.863"/>
				<path clip-path="url(#SVGID_16_)" fill="#D01819" d="M367.403,135.812c0.666-1.132,1.717-2.072,1.599-3.601
					c-0.066-0.854,0.126-1.939-1.233-1.795c-0.362,0.038-0.867-0.206-0.747-0.561c0.629-1.867-1.198-2.567-1.382-4.132
					c-1.537,1.92-1.323,3.766,0.522,4.491c1.115,0.438,0.595,0.977,0.506,1.697c-0.168,1.352-1.161,2.973,0.773,3.855
					C367.44,135.769,367.403,135.812,367.403,135.812"/>
				<path clip-path="url(#SVGID_16_)" fill="#D01819" d="M347.673,161.518c1.752,0.749,3.179,0.02,4.352-1.174
					c0.777-0.791,1.032-1.169,1.69,0.168c0.908,1.841,2.53,1.911,5.364,0.18c-2.887,0.158-4.092-1.451-4.962-3.575
					c-0.363-0.889-1.167-1.131-1.461-0.062C351.912,159.775,350.07,160.887,347.673,161.518"/>
				<path clip-path="url(#SVGID_16_)" fill="#D01819" d="M379.834,164.411c0.085-1.05,0.16-1.98,0.258-3.203
					c-1.746,0.99-2.985,0.764-4.114-0.637c-0.649-0.806-0.774-0.688-2.923,0.523c0.989,1.93,1.846,3.723,4.35,1.76
					C378.53,161.972,378.584,164.226,379.834,164.411"/>
				<path clip-path="url(#SVGID_16_)" fill="#D01819" d="M357.862,159.58c0.94-0.253,2.499-0.376,2.393-1.541
					c-0.115-1.248-1.064-2.741-2.626-2.705c-1.104,0.024-2.475,0.661-2.461,1.9C355.183,158.652,356.376,159.489,357.862,159.58"/>
				<path clip-path="url(#SVGID_16_)" fill="#D01819" d="M370.036,132.676c1.997-2.355,2.029-3.572,0.438-5.333
					c-0.532-0.588-1.14-1.108-1.607-1.749c-0.453-0.624-0.979-0.953-1.588-0.522c-0.954,0.674-0.11,1.425,0.218,1.868
					C368.697,128.561,370.16,129.988,370.036,132.676"/>
				<path clip-path="url(#SVGID_16_)" fill="#D01819" d="M335.035,148.429c1.328,2.268,3.751,3.307,5.839,2.509
					c0.335-0.128,0.677-0.343,0.642-0.753c-0.059-0.696-0.749-0.804-1.142-1.184c-0.274-0.264-0.852-0.506-1.021,0.057
					c-0.715,2.372-1.658,0.272-2.392,0.088C336.332,148.986,335.987,147.799,335.035,148.429"/>
				<path clip-path="url(#SVGID_16_)" fill="#D01819" d="M341.891,161.178c-2.547,0.552-4.65,1.43-7.146-0.401
					C336.622,164.106,339.45,164.207,341.891,161.178"/>
				<path clip-path="url(#SVGID_16_)" fill="#D01819" d="M330.608,159.854c-2.425,0.146-4.431,0.943-6.792-0.182
					C325.536,161.999,327.879,162.01,330.608,159.854"/>
				<path clip-path="url(#SVGID_16_)" fill="#D01819" d="M329.975,150.281c0.901-0.353,2.132-0.414,2.377-1.858
					c0.075-0.442-0.459-0.529-0.772-0.427c-1.082,0.356-2.314,0.635-2.822,1.822C328.574,150.25,329.413,150.302,329.975,150.281"/>
				<path clip-path="url(#SVGID_16_)" fill="#D01819" d="M363.328,137.59l-0.25,0.04c0.035,0.021,0.088,0.068,0.103,0.058
					c0.048-0.036,0.082-0.094,0.122-0.141C363.304,137.548,363.328,137.59,363.328,137.59"/>
				<path clip-path="url(#SVGID_16_)" fill="#EDEDED" d="M365.381,140.692c-2.462-0.555-3.686,1.068-4.801,3.065
					c0.686,0.367,1.141-0.086,1.296-0.446c0.703-1.628,2.665-1.263,3.471-2.664L365.381,140.692z"/>
				<path clip-path="url(#SVGID_16_)" fill="#EDEDED" d="M357.685,143.555c0.117,0.247,0.299,0.526,0.53,0.236
					c0.277-0.347-0.118-0.363-0.3-0.462C357.84,143.405,357.763,143.481,357.685,143.555"/>
				<path clip-path="url(#SVGID_16_)" fill="#EDEDED" d="M365.347,140.647c0.117,0.031,0.233,0.06,0.35,0.09
					c0.02-0.177,0.042-0.353,0.063-0.531c-0.001,0,0.037,0.033,0.037,0.033c-0.282-0.001-0.413,0.158-0.416,0.453L365.347,140.647"
					/>
				<path clip-path="url(#SVGID_16_)" fill="#EDEDED" d="M347.025,157.323c1.093-0.17,1.949-0.704,1.807-2
					c-0.102-0.938-0.468-1.941-1.674-1.829c-1.137,0.104-2.129,0.575-2.103,1.98C345.079,156.714,345.917,157.266,347.025,157.323"
					/>
				<path clip-path="url(#SVGID_16_)" fill="#EDEDED" d="M338.408,160.097c0.759-0.143,1.54-0.677,1.472-1.97
					c-0.067-1.254-1.105-1.645-1.881-1.43c-0.763,0.211-2.228,0.045-2.072,1.593C336.051,159.518,336.816,160.287,338.408,160.097"
					/>
				<path clip-path="url(#SVGID_16_)" fill="#EDEDED" d="M326.237,158.342c1.028-0.089,1.884-0.479,1.863-1.691
					c-0.018-1.078-0.663-1.886-1.699-1.902c-0.996-0.016-1.768,0.647-1.833,1.76C324.501,157.672,325.235,158.228,326.237,158.342"
					/>
			</g>
		</g>
	</g>
	<g>
		<g>
			<defs>
				<rect id="SVGID_17_" x="339.434" y="-41.07" width="327.063" height="353.099"/>
			</defs>
			<clipPath id="SVGID_18_">
				<use xlink:href="#SVGID_17_"  overflow="visible"/>
			</clipPath>
			<g clip-path="url(#SVGID_18_)">
				<defs>
					<rect id="SVGID_19_" x="339.434" y="-41.07" width="327.063" height="353.099"/>
				</defs>
				<clipPath id="SVGID_20_">
					<use xlink:href="#SVGID_19_"  overflow="visible"/>
				</clipPath>
				<path clip-path="url(#SVGID_20_)" fill="#D01819" d="M438.312,181.709c0.085,11.093-0.213,22.18-0.639,33.257
					c-0.11,2.841,0.703,3.951,3.292,3.755c11.817-0.893,9.691,1.894,10.782-10.791c0.531-6.179,1.727-12.187,3.029-18.188
					c1.328-6.126,2.816-12.214,4.245-18.315c0.914-3.896,3.138-6.998,5.341-10.102c1.141-1.607,2.556-1.836,4.35-1.193
					c4.316,1.55,8.692,2.904,13.032,4.373c1.169,0.395,2.255,0.69,3.189-0.512c0.942-1.211,0.038-2.087-0.432-3.049
					c-0.108-0.222-0.379-0.5-0.325-0.646c1.63-4.5-3.429-7.835-1.823-12.355c0.505-1.419-0.793-1.919-1.555-2.616
					c-2.478-2.269-3.158-5.085-1.555-8.086c0.971-1.818,0.424-2.652-0.796-3.741c-2.6-2.32-4.373-5.24-4.854-8.907
					c-0.219-1.67-0.687-2.089-2.28-1.4c-7.985,3.457-14.798-0.489-16.824-9.624c-0.082-0.367-0.011-0.862-0.213-1.095
					c-1.11-1.292,0.903-4.502-1.722-4.391c-2.621,0.109-5.588-0.092-6.818,4.152c-4.25,14.657-7.967,29.33-7.468,44.914
					C438.528,165.327,438.312,173.522,438.312,181.709"/>
				<path clip-path="url(#SVGID_20_)" fill="#D01819" d="M550.332,179.276c0.373-10.187,0.826-20.372,1.078-30.562
					c0.098-3.944,1.061-7.706,1.516-11.571c0.456-3.882-0.821-5.021-4.164-3.981c-3.408,1.063-6.857,1.684-9.182-2.428
					c-0.569-1.003-1.632-1.059-2.518-0.837c-2.116,0.531-3.871-1.149-5.573-1.216c-4.443-0.178-8.307-1.019-12.471-3.137
					c-2.286-1.163-6.244,0.862-8.795-2.269c-0.07-0.087-0.19-0.141-0.296-0.182c-0.669-0.251-1.169,0.205-1.537,0.627
					c-2.53,2.911-7.697,0.623-9.254,5.591c-0.435,1.384,0.052,2.205,0.643,3.063c1.897,2.759,2.116,5.561,0.224,8.358
					c-0.97,1.432-0.721,2.359,0.412,3.52c1.975,2.023,3.367,4.304,1.248,7.226c-0.679,0.936-0.528,1.864,0.101,2.761
					c1.63,2.325,1.585,4.659-0.065,6.921c-0.908,1.245-1.027,2.345-0.185,3.748c0.863,1.437,1.977,1.425,3.323,1.368
					c6.886-0.29,13.751-0.819,20.373-3.008c2.512-0.83,3.477,0.166,4.453,2.498c5.966,14.226,7.266,29.295,7.259,44.642
					c-0.002,7.782,0.247,7.964,7.483,7.553c4.592-0.261,5.019-0.761,5.248-5.847C550.147,201.175,549.459,190.206,550.332,179.276"
					/>
				<path clip-path="url(#SVGID_20_)" fill="#D01819" d="M534.329,80.013c0.18,2.184-1.755,2.007-2.759,2.583
					c-2.942,1.69-5.591,4.225-9.802,4.357c7.132-5.138,1.791-10.861,1.356-16.294c-0.056-0.703-0.806-0.897-1.387-0.581
					c-0.664,0.36-1.205,1.1-0.702,1.817c1.21,1.72,0.244,2.685-0.837,3.743c-1.037,1.012-2.28,2.009-0.613,3.632
					c0.204,0.199,0.159,1.058-0.064,1.351c-1.235,1.619-2.608,2.985,0.235,4.553c0.867,0.477,0.227,2.419-0.455,3.038
					c-1.485,1.349-0.934,2.932-0.958,4.488c0.306,0.168,0.968,0.192,0.502,0.777c-0.388,0.485-0.692,0.019-0.888-0.395
					c-0.388-0.219-1.133-0.503-1.11-0.644c0.584-3.616-1.081-7.295,0.036-10.78c0.458-1.427,0.262-2.157-0.608-2.821
					c-1.308-0.999-1.356,0.459-1.872,1.213c-4.361,6.381-6.976,14.15-13.066,19.157c-1.079,0.886-0.675,1.741,0.206,2.413
					c0.558,0.427,1.197,0.828,1.853,0.989c3.922,0.96,7.882,1.658,10.945,4.995c0.603,0.657,2.226,0.27,3.38,0.279
					c2.106,0.019,4.222-0.078,5.814,1.845c0.396,0.477,0.984,0.946,1.529,0.604c3.356-2.112,6.165-0.63,8.97,1.386
					c1.895,1.361,4.132-0.989,6.203,0.662c0.908,0.724,2.19,0.757,1.918,2.454l-0.077-0.092c3.549-0.607,6.97-1.4,10.144,1.764
					c1.748,1.744,4.836-0.019,5.572-2.646c0.976-3.485,1.558-7.118,3.262-10.332c0.739-1.395,0.11-2.712-0.159-4.022
					c-0.402-1.965-0.831-3.937-1.452-5.83c-0.6-1.826,0.023-4.687-1.961-5.296c-2.736-0.84-5.607,0.079-7.931,1.983
					c-1.372,1.123-2.535,2.585-3.653,4.02c-6.922,8.888-18.898,11.716-28.605,6.697c-1.287-0.664-2.36-1.589-2.935-3.026
					c0.24-0.911,0.899-0.694,1.426-0.637c8.374,0.923,15.918-1.416,23.315-5.731c4.782-2.788,10.036-5.125,15.715-5.175
					c2.713-0.023,3.459-1.246,2.981-3.979c-1.236-7.078-1.258-14.343-3.06-21.368c-0.698-2.724-1.661-3.181-3.704-2.198
					c-0.881,0.424-1.743,0.636-2.679,0.655c-1.683,0.035-2.644,2.246-2.363,2.682c1.67,2.597,1.104,6.047,2.491,8.337
					c2.517,4.158,1.526,8.949-3.024,9.364c-3.215,0.293-4.754,1.803-5.905,4.641c-0.79,1.946-2.307,3.148-4.216,2.147
					c-1.619-0.849-2.428,1.472-3.827,0.673c-0.034,0.297-0.07,0.593-0.106,0.89c-0.195-0.049-0.391-0.101-0.585-0.152
					c-1.354,2.353-4.646,1.739-5.825,4.472c-0.262,0.606-1.025,1.366-2.177,0.75c1.872-3.354,3.926-6.079,8.057-5.145
					c0.007-0.498,0.227-0.763,0.698-0.763c0.618-1.907,1.33-3.533,3.696-2.33c1.748,0.886,2.72-0.411,3.184-1.891
					c1.019-3.234,2.62-5.118,6.124-4.585c2.021,0.307,3.161-1.423,3.843-3.226c0.652-1.72-0.178-2.874-1.671-3.554
					c-0.211-0.097-0.574-0.344-0.554-0.406c1.251-3.926-2.944-6.947-1.552-10.96c-2.231-0.812-4.247,0.611-6.389,0.703
					c-0.229,1.331,0.692,1.792,1.398,2.382c4.559,3.813,4.93,5.316,1.704,10.443c-1.712,2.717-3.691,5.429-7.087,5.996
					L534.329,80.013z"/>
				<path clip-path="url(#SVGID_20_)" fill="#D01819" d="M505.251,114.199c1.215,3.692-2.155,4.128-2.919,6.169
					c2.755,0.36,5.32-1.787,5.921-5.148c0.481-2.691,0.546-5.967-2.422-6.561c-3.215-0.641-4.675-2.954-6.239-5.274
					c-1.253-1.859-2.549-2.295-4.448-1.615c-1.155,0.413-2.698,0.459-0.783,2.156c1.155,1.024,0.278,1.474-0.579,1.709
					c-3.554,0.969-6.978,1.788-10.855,1.349c-2.061-0.235-3.778-0.228-5.805-1.232c-1.799-0.892-1.773,3.001-3.939,3.183
					c-0.471-1.218,1.375-1.894,0.741-3.453c-4.721,0.685-9.66,1.824-14.361-1.557c1.107-0.828,2.103-1.573,3.099-2.318
					c-3.779-0.844-7.272-0.272-10.562,1.589c-0.358,0.203-0.756,0.697-0.8,1.1c-0.09,0.816,0.682,1.126,1.168,1.028
					c2.621-0.533,2.558,1.584,3.14,3.331c1.457,4.373,3.799,8.16,7.925,9.942c3.949,1.704,6.783,0.385,9.817-4.032
					c1.251-1.822,2.276-3.199,3.256,0.162c0.206,0.704,0.662,1.328,1.027,1.972c1.897,3.344,4.08,6.269,8.245,5.793
					c4.191-0.48,5.895-3.893,7.434-7.475C499.717,119.898,502.518,119.212,505.251,114.199 M500.065,116.191
					c-1.859-0.095-3.266-1.022-3.305-3.104c-0.044-2.359,1.621-3.148,3.529-3.324c2.026-0.185,2.638,1.497,2.809,3.07
					C503.336,115.01,501.9,115.905,500.065,116.191 M485.604,120.846c-2.674,0.318-3.957-0.971-4.165-3.035
					c-0.262-2.597,2.198-2.316,3.477-2.671c1.305-0.362,3.047,0.295,3.158,2.399C488.189,119.709,486.878,120.606,485.604,120.846
					 M465.175,117.9c-1.683-0.191-2.914-1.125-2.801-3.077c0.108-1.868,1.405-2.98,3.076-2.954c1.74,0.026,2.823,1.382,2.852,3.192
					C468.338,117.096,466.901,117.75,465.175,117.9"/>
				<path clip-path="url(#SVGID_20_)" fill="#D01819" d="M555.748,58.774c1.645,4.142,1.235,8.842,4.129,12.584
					c5.15,6.652,10.159,13.397,16.249,19.133c1.804,1.702,2.77,1.075,3.91-0.457c1.089-1.464,3.732-2.304,1.54-5.063
					c-2.271-2.857-3.946-6.444-6.605-8.729c-6.613-5.681-6.988-12.77-5.148-20.693c0.451-1.949,1.006-3.882,1.298-5.86
					c0.352-2.378-1.292-3.859-3.097-2.676c-4.284,2.809-7.401,7.251-11.702,10.086C555.954,57.342,555.933,58.197,555.748,58.774"/>
				<path clip-path="url(#SVGID_20_)" fill="#D01819" d="M494.496,137.067c-0.348,0.754-0.947,1.492-0.991,2.267
					c-0.088,1.594,1.225,2.383,2.234,3.102c1.06,0.754,1.639-0.568,2.216-1.225c2.232-2.532,2.309-5.33,0.044-8.466
					c-1.112-1.541-2.036-2.634-0.061-4.235c1.415-1.148,1.761-2.984,1.143-4.792c-0.628-1.838-2.499-2.053-3.841-2.906
					c-0.971-0.618-1.246,0.56-1.696,1.289c-1.02,1.658-1.869,3.476-3.49,4.498c0.451,1.845,2.394,1.163,2.911,2.556
					c-0.33,1.372-1.365,0.625-1.975,0.586c-2.1-0.138-3.352,1.035-3.997,2.934c-0.628,1.857-0.554,3.743,1.096,5.106
					c2.164,1.788,3.035,3.7,0.914,6.278c-0.478,0.579-0.88,2.08-0.589,2.41c2.478,2.809,1.385,6.659,2.641,9.714
					c0.656,1.594,0.862,2.724,0,4.137c-0.577,0.945-1.266,2.034,0.01,2.913c0.854,0.586,1.856,0.362,2.641-0.254
					c1.007-0.791,1.186-1.993,0.379-2.957c-1.081-1.292-0.968-2.281-0.031-3.595c0.798-1.118,0.577-2.406-0.412-3.392
					c-1.761-1.757-1.588-3.418,0.046-5.157c1.794-1.908,1.585-3.912-0.276-5.501C490.492,139.884,491.936,138.287,494.496,137.067"
					/>
				<path clip-path="url(#SVGID_20_)" fill="#D01819" d="M562.65,87.96c-2.267-0.374-2.602,0.922-2.018,3.114
					c0.77,2.892,1.529,5.793,2.123,8.73c0.433,2.145,1.877,2.253,3.41,2.429c2.07,0.237,4.129,2.112,6.008,1.273
					c1.828-0.816,1.545-3.706,2.482-5.565c2.518-5,2.249-5.724-2.762-7.44C568.921,89.484,566.069,87.893,562.65,87.96"/>
				<path clip-path="url(#SVGID_20_)" fill="#D01819" d="M495.407,166.662c0.93,0,1.861-0.014,2.791,0.004
					c1.72,0.032,2.757-0.678,1.254-2.306c-1.547-1.674-0.262-2.295,0.549-3.264c1.853-2.212,2.178-4.553-0.105-6.546
					c-1.544-1.347-0.94-2.138,0.093-3.245c1.356-1.449,1.39-3.014,0.252-4.73c-1.846-2.784-2.417-2.521-4.219,0.157
					c-1.729,2.569-1.774,4.239-0.428,7.203c1.001,2.2,0.363,5.583,0.345,8.388c-0.02,2.989-2.796,2.917-4.875,2.364
					c-1.985-0.528-2.556-1.928-1.985-4.322c1.076-4.511-0.231-8.769-2.44-12.579c-0.836-1.441-2.126-0.553-2.577,0.773
					c-0.389,1.142-0.633,2.576,0.365,3.535c1.807,1.735,3.524,3.294,1.099,5.982c-0.587,0.651,0.039,1.684,0.474,2.436
					c0.306,0.53,0.783,0.964,1.019,1.524C489.069,166.911,489.712,167.287,495.407,166.662"/>
				<path clip-path="url(#SVGID_20_)" fill="#D01819" d="M542.155,114.833c-2.015-0.807-3.923-2.329-6.247-0.923
					c-0.355,0.215-1.034,0.242-1.361,0.016c-3.127-2.164-6.232-3.843-9.931-1.289c-0.579,0.401-1.125-0.697-1.552-1.262
					c-0.929-1.231-2.098-2.225-3.554-2.112c-3.421,0.267-6.854,0.969-9.197-2.846c-0.306-0.496-1.128-0.392-1.601,0.021
					c-0.649,0.568,0.083,1.103,0.198,1.64c1.274,5.93,1.982,6.322,6.644,3.771c2.458-1.344,4.59-0.724,6.213,1.532
					c1.521,2.117,3.112,2.906,5.351,1.278c1.57-1.139,2.901-0.507,3.974,0.925c1.348,1.799,2.811,2.431,4.842,1.146
					c1.908-1.209,3.594-0.438,5.019,1.169c0.965,1.088,1.825,2.415,3.477,2.092c2.657-0.521,4.751-0.104,7.14,1.886
					c1.987,1.656,4.011-1.024,5.686-3.106c-3.622,1.16-6.15-0.925-8.823-2.714c-1.3-0.869-2.726-0.233-4.02,0.417
					c-1.704,0.854-2.417,0.189-2.337-1.735C542.078,114.741,542.155,114.833,542.155,114.833"/>
				<path clip-path="url(#SVGID_20_)" fill="#D01819" d="M587.056,95.26c-0.137-0.913-0.164-1.947-0.456-2.885
					c-1.191-3.822-2.831-4.212-5.339-1.253c-2.778,3.277-5.125,6.87-6.25,11.218c-0.288,1.109-1.192,2.445,0.316,3.339
					c1.388,0.821,2.872,2.355,4.482,1.072C583.398,103.888,586.737,100.721,587.056,95.26"/>
				<path clip-path="url(#SVGID_20_)" fill="#D01819" d="M487.484,127.984c-5.495,0.821-8.8-2.119-11.542-6.38
					c-1.105,4.753,0.51,8.658,4.989,11.668c1.74,1.169,2.819,1.677,0.461,3.478c-1.711,1.305-1.706,3.508-0.842,5.48
					c1.02,2.332,3.22,3.201,5.217,4.068c0.867,0.374,3.024-5.138,2.417-6.146C484.8,134.527,484.802,134.527,487.484,127.984"/>
				<path clip-path="url(#SVGID_20_)" fill="#D01819" d="M550.577,129.294c-2.976-0.139-5.405-1.026-6.948-3.958
					c-0.728-1.382-2.288-0.955-3.475-0.42c-1.711,0.773-3.197,0.498-4.446-0.892c-1.365-1.52-3.411-1.557-4.518-0.784
					c-2.703,1.887-4.474,0.523-6.317-1.199c-1.137-1.061-2.677-1.388-3.424-0.365c-0.796,1.086,0.363,2.719,1.195,3.475
					c1.794,1.633,3.962,2.717,6.299,1.07c1.397-0.983,2.373-1.151,3.475,0.567c0.916,1.428,2.633,2.089,4.041,1.231
					c2.204-1.345,3.101-0.247,4.257,1.573C543.131,133.394,547.575,133.291,550.577,129.294"/>
				<path clip-path="url(#SVGID_20_)" fill="#D01819" d="M520.1,99.644c9.383,4.287,18.405,1.178,26.961-9.41
					C537.512,93.548,529.917,100.491,520.1,99.644"/>
				<path clip-path="url(#SVGID_20_)" fill="#D01819" d="M527.388,82.999c4.121-1.713,5.233-4.988,3.171-9.264
					c-0.695-1.439-1.423-2.872-1.961-4.382c-0.479-1.342-0.715-2.784-1.133-4.486c-3.109,2.32-3.04,5.665-2.054,8.448
					c1.138,3.215,1.733,6.409,2.018,9.754L527.388,82.999z"/>
				<path clip-path="url(#SVGID_20_)" fill="#D01819" d="M558.311,73.742c0.484,3.46,0.978,6.919,1.447,10.383
					c0.159,1.165,0.731,1.741,1.83,1.85c2.631,0.26,5.259,0.586,8.177,0.86c-3.581-4.468-7.161-8.939-10.742-13.409
					C558.785,73.532,558.548,73.636,558.311,73.742"/>
				<path clip-path="url(#SVGID_20_)" fill="#D01819" d="M529.676,122.131c2.599-1.621,5.351-1.128,8.031,1.215
					c1.303,1.141,2.561-0.343,3.74-0.853c0.903-0.392,0.453-1.303-0.083-1.82c-1.32-1.275-2.415-3.835-4.507-2.62
					c-2.656,1.541-4.513,0.985-6.412-1.148c-1.333-1.497-2.721-0.925-4.034,0.125c-0.746,0.597-1.581,1.229-0.989,2.413
					C526.224,121.049,527.259,122.366,529.676,122.131"/>
				<path clip-path="url(#SVGID_20_)" fill="#D01819" d="M534.268,80.087c1.119-1.9,2.881-3.478,2.684-6.043
					c-0.111-1.434,0.211-3.254-2.069-3.012c-0.608,0.064-1.455-0.346-1.254-0.941c1.056-3.134-2.011-4.308-2.319-6.935
					c-2.579,3.222-2.221,6.32,0.877,7.537c1.871,0.734,0.999,1.64,0.849,2.848c-0.281,2.269-1.949,4.989,1.297,6.471
					C534.33,80.014,534.268,80.087,534.268,80.087"/>
				<path clip-path="url(#SVGID_20_)" fill="#D01819" d="M501.153,123.231c2.94,1.257,5.336,0.034,7.305-1.97
					c1.305-1.328,1.732-1.961,2.837,0.282c1.524,3.09,4.247,3.208,9.002,0.302c-4.845,0.265-6.868-2.435-8.329-6.001
					c-0.61-1.492-1.959-1.898-2.451-0.104C508.268,120.305,505.176,122.172,501.153,123.231"/>
				<path clip-path="url(#SVGID_20_)" fill="#D01819" d="M555.133,128.086c0.142-1.762,0.268-3.323,0.433-5.376
					c-2.93,1.661-5.011,1.282-6.904-1.07c-1.089-1.352-1.298-1.155-4.906,0.877c1.66,3.24,3.099,6.248,7.302,2.954
					C552.943,123.994,553.035,127.775,555.133,128.086"/>
				<path clip-path="url(#SVGID_20_)" fill="#D01819" d="M518.255,119.978c1.578-0.425,4.195-0.63,4.016-2.586
					c-0.193-2.094-1.786-4.601-4.407-4.541c-1.853,0.041-4.154,1.109-4.131,3.188C513.757,118.421,515.761,119.825,518.255,119.978"
					/>
				<path clip-path="url(#SVGID_20_)" fill="#D01819" d="M538.688,74.822c3.352-3.953,3.405-5.996,0.734-8.951
					c-0.893-0.987-1.913-1.859-2.697-2.936c-0.76-1.047-1.643-1.6-2.666-0.876c-1.601,1.132-0.185,2.392,0.366,3.136
					C536.439,67.915,538.896,70.311,538.688,74.822"/>
				<path clip-path="url(#SVGID_20_)" fill="#D01819" d="M479.941,101.262c2.229,3.806,6.296,5.551,9.8,4.211
					c0.563-0.215,1.137-0.576,1.078-1.264c-0.1-1.169-1.258-1.349-1.917-1.988c-0.46-0.443-1.429-0.849-1.714,0.095
					c-1.2,3.981-2.783,0.457-4.015,0.148C482.118,102.197,481.539,100.206,479.941,101.262"/>
				<path clip-path="url(#SVGID_20_)" fill="#D01819" d="M491.449,122.66c-4.275,0.927-7.804,2.399-11.993-0.673
					C482.605,127.575,487.352,127.745,491.449,122.66"/>
				<path clip-path="url(#SVGID_20_)" fill="#D01819" d="M472.511,120.438c-4.07,0.245-7.437,1.582-11.4-0.305
					C463.998,124.037,467.931,124.057,472.511,120.438"/>
				<path clip-path="url(#SVGID_20_)" fill="#D01819" d="M471.45,104.37c1.513-0.593,3.578-0.696,3.99-3.118
					c0.126-0.742-0.77-0.888-1.295-0.717c-1.817,0.597-3.884,1.066-4.736,3.058C469.098,104.319,470.506,104.406,471.45,104.37"/>
				<path clip-path="url(#SVGID_20_)" fill="#D01819" d="M527.429,83.07l-0.42,0.067c0.059,0.035,0.147,0.115,0.173,0.097
					c0.08-0.06,0.137-0.157,0.204-0.237C527.388,82.999,527.429,83.07,527.429,83.07"/>
				<path clip-path="url(#SVGID_20_)" fill="#EDEDED" d="M530.874,88.277c-4.132-0.932-6.186,1.792-8.057,5.145
					c1.151,0.616,1.915-0.145,2.175-0.749c1.181-2.733,4.473-2.12,5.825-4.472L530.874,88.277z"/>
				<path clip-path="url(#SVGID_20_)" fill="#EDEDED" d="M517.958,93.081c0.196,0.415,0.502,0.883,0.89,0.395
					c0.464-0.583-0.198-0.609-0.504-0.775C518.218,92.83,518.089,92.958,517.958,93.081"/>
				<path clip-path="url(#SVGID_20_)" fill="#EDEDED" d="M530.818,88.2c0.196,0.051,0.391,0.101,0.587,0.152
					c0.034-0.297,0.07-0.593,0.106-0.892c-0.002,0,0.062,0.055,0.062,0.055c-0.473-0.002-0.693,0.265-0.698,0.761L530.818,88.2"/>
				<path clip-path="url(#SVGID_20_)" fill="#EDEDED" d="M500.065,116.19c1.835-0.286,3.271-1.181,3.034-3.356
					c-0.172-1.575-0.785-3.257-2.809-3.07c-1.908,0.175-3.573,0.966-3.529,3.323C496.8,115.168,498.206,116.095,500.065,116.19"/>
				<path clip-path="url(#SVGID_20_)" fill="#EDEDED" d="M485.603,120.846c1.274-0.24,2.585-1.137,2.471-3.307
					c-0.113-2.104-1.854-2.761-3.158-2.399c-1.28,0.355-3.74,0.076-3.478,2.673C481.646,119.875,482.931,121.165,485.603,120.846"/>
				<path clip-path="url(#SVGID_20_)" fill="#EDEDED" d="M465.175,117.9c1.725-0.15,3.163-0.803,3.127-2.839
					c-0.029-1.81-1.112-3.166-2.852-3.192c-1.671-0.026-2.968,1.086-3.076,2.954C462.261,116.775,463.493,117.709,465.175,117.9"/>
			</g>
		</g>
	</g>
</g>
</svg>
