<?xml version="1.0" encoding="utf-8"?>
<!-- Generator: Adobe Illustrator 17.1.0, SVG Export Plug-In . SVG Version: 6.00 Build 0)  -->
<!DOCTYPE svg PUBLIC "-//W3C//DTD SVG 1.1//EN" "http://www.w3.org/Graphics/SVG/1.1/DTD/svg11.dtd">
<svg version="1.1" xmlns="http://www.w3.org/2000/svg" xmlns:xlink="http://www.w3.org/1999/xlink" x="0px" y="0px"
	 viewBox="0 0 593.5 238" enable-background="new 0 0 593.5 238" xml:space="preserve">
<g id="Layer_2">
	<g>
		<g>
			<line fill="none" stroke="#000000" stroke-miterlimit="10" x1="21.5" y1="201.7" x2="585.6" y2="201.7"/>
			<g>
				<g>
					<line fill="none" stroke="#000000" stroke-miterlimit="10" x1="21.5" y1="201.7" x2="21.5" y2="196.8"/>
					<line fill="none" stroke="#000000" stroke-miterlimit="10" x1="107.7" y1="201.7" x2="107.7" y2="196.8"/>
					<line fill="none" stroke="#000000" stroke-miterlimit="10" x1="193.9" y1="201.7" x2="193.9" y2="196.8"/>
					<line fill="none" stroke="#000000" stroke-miterlimit="10" x1="280.1" y1="201.7" x2="280.1" y2="196.8"/>
					<line fill="none" stroke="#000000" stroke-miterlimit="10" x1="392.3" y1="201.7" x2="392.3" y2="196.8"/>
					<line fill="none" stroke="#000000" stroke-miterlimit="10" x1="585.6" y1="201.7" x2="585.6" y2="196.8"/>
				</g>
				<g>
				</g>
			</g>
		</g>
		<g>
			<g>
				<text transform="matrix(1 0 0 1 9.4624 208.465)" font-family="'TwCenMT-Bold'" font-size="10">0</text>
				<text transform="matrix(1 0 0 1 9.4624 169.7648)" font-family="'TwCenMT-Bold'" font-size="10">2</text>
				<text transform="matrix(1 0 0 1 9.4624 131.0646)" font-family="'TwCenMT-Bold'" font-size="10">4</text>
				<text transform="matrix(1 0 0 1 9.4624 92.3649)" font-family="'TwCenMT-Bold'" font-size="10">6</text>
				<text transform="matrix(1 0 0 1 9.4624 53.6652)" font-family="'TwCenMT-Bold'" font-size="10">8</text>
				<text transform="matrix(1 0 0 1 4.1548 14.965)" font-family="'TwCenMT-Bold'" font-size="10">10</text>
			</g>
			<line fill="none" stroke="#000000" stroke-miterlimit="10" x1="21.5" y1="201.7" x2="21.5" y2="8.2"/>
			<g>
				<g>
					<line fill="none" stroke="#000000" stroke-miterlimit="10" x1="21.5" y1="201.7" x2="32.3" y2="201.7"/>
					<line fill="none" stroke="#000000" stroke-miterlimit="10" x1="21.5" y1="163" x2="32.3" y2="163"/>
					<line fill="none" stroke="#000000" stroke-miterlimit="10" x1="21.5" y1="124.3" x2="32.3" y2="124.3"/>
					<line fill="none" stroke="#000000" stroke-miterlimit="10" x1="21.5" y1="85.6" x2="32.3" y2="85.6"/>
					<line fill="none" stroke="#000000" stroke-miterlimit="10" x1="21.5" y1="46.9" x2="32.3" y2="46.9"/>
					<line fill="none" stroke="#000000" stroke-miterlimit="10" x1="21.5" y1="8.2" x2="32.3" y2="8.2"/>
				</g>
				<g>
				</g>
			</g>
		</g>
		<g>
			<text transform="matrix(1 0 0 1 475.1737 218.2912)"><tspan x="0" y="0" font-family="'TwCenMT-Bold'" font-size="10">VE</tspan><tspan x="11.1" y="0" font-family="'TwCenMT-Bold'" font-size="10">R</tspan><tspan x="16.1" y="0" font-family="'TwCenMT-Bold'" font-size="10">Y </tspan><tspan x="-18.9" y="12" font-family="'TwCenMT-Bold'" font-size="10">S</tspan><tspan x="-14.1" y="12" font-family="'TwCenMT-Bold'" font-size="10">A</tspan><tspan x="-7.9" y="12" font-family="'TwCenMT-Bold'" font-size="10">TIS</tspan><tspan x="4.3" y="12" font-family="'TwCenMT-Bold'" font-size="10">F</tspan><tspan x="8.4" y="12" font-family="'TwCenMT-Bold'" font-size="10">A</tspan><tspan x="14.8" y="12" font-family="'TwCenMT-Bold'" font-size="10">C</tspan><tspan x="20.6" y="12" font-family="'TwCenMT-Bold'" font-size="10">T</tspan><tspan x="25.3" y="12" font-family="'TwCenMT-Bold'" font-size="10">O</tspan><tspan x="32.7" y="12" font-family="'TwCenMT-Bold'" font-size="10">R</tspan><tspan x="37.6" y="12" font-family="'TwCenMT-Bold'" font-size="10">Y</tspan></text>
			<text transform="matrix(1 0 0 1 307.776 218.2912)"><tspan x="0" y="0" font-family="'TwCenMT-Bold'" font-size="10">SOMEWH</tspan><tspan x="39.1" y="0" font-family="'TwCenMT-Bold'" font-size="10">A</tspan><tspan x="45.4" y="0" font-family="'TwCenMT-Bold'" font-size="10">T </tspan><tspan x="-4.7" y="12" font-family="'TwCenMT-Bold'" font-size="10">S</tspan><tspan x="0" y="12" font-family="'TwCenMT-Bold'" font-size="10">A</tspan><tspan x="6.3" y="12" font-family="'TwCenMT-Bold'" font-size="10">TIS</tspan><tspan x="18.4" y="12" font-family="'TwCenMT-Bold'" font-size="10">F</tspan><tspan x="22.5" y="12" font-family="'TwCenMT-Bold'" font-size="10">A</tspan><tspan x="28.9" y="12" font-family="'TwCenMT-Bold'" font-size="10">C</tspan><tspan x="34.8" y="12" font-family="'TwCenMT-Bold'" font-size="10">T</tspan><tspan x="39.4" y="12" font-family="'TwCenMT-Bold'" font-size="10">O</tspan><tspan x="46.8" y="12" font-family="'TwCenMT-Bold'" font-size="10">R</tspan><tspan x="51.8" y="12" font-family="'TwCenMT-Bold'" font-size="10">Y</tspan></text>
			<text transform="matrix(1 0 0 1 222.4321 218.2912)"><tspan x="0" y="0" font-family="'TwCenMT-Bold'" font-size="10">EITHER</tspan><tspan x="5" y="12" font-family="'TwCenMT-Bold'" font-size="10">W</tspan><tspan x="12.5" y="12" font-family="'TwCenMT-Bold'" font-size="10" letter-spacing="-1">A</tspan><tspan x="18.3" y="12" font-family="'TwCenMT-Bold'" font-size="10">Y</tspan></text>
			<text transform="matrix(1 0 0 1 125.6997 218.2912)"><tspan x="0" y="0" font-family="'TwCenMT-Bold'" font-size="10">SOMEWH</tspan><tspan x="39.1" y="0" font-family="'TwCenMT-Bold'" font-size="10">A</tspan><tspan x="45.4" y="0" font-family="'TwCenMT-Bold'" font-size="10">T</tspan><tspan x="-12.7" y="12" font-family="'TwCenMT-Bold'" font-size="10">UNS</tspan><tspan x="5.3" y="12" font-family="'TwCenMT-Bold'" font-size="10">A</tspan><tspan x="11.6" y="12" font-family="'TwCenMT-Bold'" font-size="10">TIS</tspan><tspan x="23.7" y="12" font-family="'TwCenMT-Bold'" font-size="10">F</tspan><tspan x="27.8" y="12" font-family="'TwCenMT-Bold'" font-size="10">A</tspan><tspan x="34.2" y="12" font-family="'TwCenMT-Bold'" font-size="10">C</tspan><tspan x="40" y="12" font-family="'TwCenMT-Bold'" font-size="10">T</tspan><tspan x="44.7" y="12" font-family="'TwCenMT-Bold'" font-size="10">O</tspan><tspan x="52.1" y="12" font-family="'TwCenMT-Bold'" font-size="10">R</tspan><tspan x="57.1" y="12" font-family="'TwCenMT-Bold'" font-size="10">Y</tspan></text>
			<text transform="matrix(1 0 0 1 52.3242 218.2912)"><tspan x="0" y="0" font-family="'TwCenMT-Bold'" font-size="10">VE</tspan><tspan x="11.1" y="0" font-family="'TwCenMT-Bold'" font-size="10">R</tspan><tspan x="16.1" y="0" font-family="'TwCenMT-Bold'" font-size="10">Y </tspan><tspan x="-25.5" y="12" font-family="'TwCenMT-Bold'" font-size="10">UNS</tspan><tspan x="-7.5" y="12" font-family="'TwCenMT-Bold'" font-size="10">A</tspan><tspan x="-1.2" y="12" font-family="'TwCenMT-Bold'" font-size="10">TIS</tspan><tspan x="10.9" y="12" font-family="'TwCenMT-Bold'" font-size="10">F</tspan><tspan x="15" y="12" font-family="'TwCenMT-Bold'" font-size="10">A</tspan><tspan x="21.4" y="12" font-family="'TwCenMT-Bold'" font-size="10">C</tspan><tspan x="27.2" y="12" font-family="'TwCenMT-Bold'" font-size="10">T</tspan><tspan x="31.9" y="12" font-family="'TwCenMT-Bold'" font-size="10">O</tspan><tspan x="39.3" y="12" font-family="'TwCenMT-Bold'" font-size="10">R</tspan><tspan x="44.2" y="12" font-family="'TwCenMT-Bold'" font-size="10">Y</tspan></text>
		</g>
	</g>
</g>
<g id="Amounts">
	<text transform="matrix(1 0 0 1 50.6581 187.5386)" font-family="'Verdana'" font-size="13">0.38</text>
	<text transform="matrix(1 0 0 1 137.9979 171.5282)" font-family="'Verdana'" font-size="13">1.07</text>
	<text transform="matrix(1 0 0 1 224.996 158.5201)" font-family="'Verdana'" font-size="13">1.71</text>
	<text transform="matrix(1 0 0 1 322.6699 100.4835)" font-family="'Verdana'" font-size="13">5.23</text>
	<text transform="matrix(1 0 0 1 473.6768 43.4476)" font-family="'Verdana'" font-size="13">8.76</text>
</g>
<g id="Horses">
	<g>
		<g>
			<defs>
				<rect id="SVGID_1_" x="130" y="165.6" width="44.2" height="48.8"/>
			</defs>
			<clipPath id="SVGID_2_">
				<use xlink:href="#SVGID_1_"  overflow="visible"/>
			</clipPath>
			<g clip-path="url(#SVGID_2_)">
				<defs>
					<rect id="SVGID_3_" x="130" y="165.6" width="44.2" height="48.8"/>
				</defs>
				<clipPath id="SVGID_4_">
					<use xlink:href="#SVGID_3_"  overflow="visible"/>
				</clipPath>
				<path clip-path="url(#SVGID_4_)" fill="#D01819" d="M143.4,196.4c0,1.5,0,3.1-0.1,4.6c0,0.4,0.1,0.5,0.4,0.5
					c1.6-0.1,1.3,0.3,1.5-1.5c0.1-0.9,0.2-1.7,0.4-2.5c0.2-0.8,0.4-1.7,0.6-2.5c0.1-0.5,0.4-1,0.7-1.4c0.2-0.2,0.3-0.3,0.6-0.2
					c0.6,0.2,1.2,0.4,1.8,0.6c0.2,0.1,0.3,0.1,0.4-0.1c0.1-0.2,0-0.3-0.1-0.4c0,0-0.1-0.1,0-0.1c0.2-0.6-0.5-1.1-0.2-1.7
					c0.1-0.2-0.1-0.3-0.2-0.4c-0.3-0.3-0.4-0.7-0.2-1.1c0.1-0.3,0.1-0.4-0.1-0.5c-0.4-0.3-0.6-0.7-0.7-1.2c0-0.2-0.1-0.3-0.3-0.2
					c-1.1,0.5-2-0.1-2.3-1.3c0-0.1,0-0.1,0-0.2c-0.1-0.2,0.1-0.6-0.2-0.6c-0.4,0-0.8,0-0.9,0.6c-0.6,2-1.1,4.1-1,6.2
					C143.4,194.1,143.4,195.2,143.4,196.4"/>
				<path clip-path="url(#SVGID_4_)" fill="#D01819" d="M158.5,196c0.1-1.4,0.1-2.8,0.1-4.2c0-0.5,0.1-1.1,0.2-1.6
					c0.1-0.5-0.1-0.7-0.6-0.6c-0.5,0.1-0.9,0.2-1.2-0.3c-0.1-0.1-0.2-0.1-0.3-0.1c-0.3,0.1-0.5-0.2-0.8-0.2c-0.6,0-1.1-0.1-1.7-0.4
					c-0.3-0.2-0.8,0.1-1.2-0.3c0,0,0,0,0,0c-0.1,0-0.2,0-0.2,0.1c-0.3,0.4-1,0.1-1.2,0.8c-0.1,0.2,0,0.3,0.1,0.4
					c0.3,0.4,0.3,0.8,0,1.2c-0.1,0.2-0.1,0.3,0.1,0.5c0.3,0.3,0.5,0.6,0.2,1c-0.1,0.1-0.1,0.3,0,0.4c0.2,0.3,0.2,0.6,0,1
					c-0.1,0.2-0.1,0.3,0,0.5c0.1,0.2,0.3,0.2,0.4,0.2c0.9,0,1.9-0.1,2.8-0.4c0.3-0.1,0.5,0,0.6,0.3c0.8,2,1,4,1,6.2c0,1.1,0,1.1,1,1
					c0.6,0,0.7-0.1,0.7-0.8C158.5,199.1,158.4,197.5,158.5,196"/>
				<path clip-path="url(#SVGID_4_)" fill="#D01819" d="M156.3,182.3c0,0.3-0.2,0.3-0.4,0.4c-0.4,0.2-0.8,0.6-1.3,0.6
					c1-0.7,0.2-1.5,0.2-2.3c0-0.1-0.1-0.1-0.2-0.1c-0.1,0-0.2,0.2-0.1,0.3c0.2,0.2,0,0.4-0.1,0.5c-0.1,0.1-0.3,0.3-0.1,0.5
					c0,0,0,0.1,0,0.2c-0.2,0.2-0.4,0.4,0,0.6c0.1,0.1,0,0.3-0.1,0.4c-0.2,0.2-0.1,0.4-0.1,0.6c0,0,0.1,0,0.1,0.1
					c-0.1,0.1-0.1,0-0.1-0.1c-0.1,0-0.2-0.1-0.1-0.1c0.1-0.5-0.1-1,0-1.5c0.1-0.2,0-0.3-0.1-0.4c-0.2-0.1-0.2,0.1-0.3,0.2
					c-0.6,0.9-0.9,2-1.8,2.6c-0.1,0.1-0.1,0.2,0,0.3c0.1,0.1,0.2,0.1,0.3,0.1c0.5,0.1,1.1,0.2,1.5,0.7c0.1,0.1,0.3,0,0.5,0
					c0.3,0,0.6,0,0.8,0.3c0.1,0.1,0.1,0.1,0.2,0.1c0.5-0.3,0.8-0.1,1.2,0.2c0.3,0.2,0.6-0.1,0.8,0.1c0.1,0.1,0.3,0.1,0.3,0.3l0,0
					c0.5-0.1,0.9-0.2,1.4,0.2c0.2,0.2,0.7,0,0.8-0.4c0.1-0.5,0.2-1,0.4-1.4c0.1-0.2,0-0.4,0-0.6c-0.1-0.3-0.1-0.5-0.2-0.8
					c-0.1-0.3,0-0.6-0.3-0.7c-0.4-0.1-0.8,0-1.1,0.3c-0.2,0.2-0.3,0.4-0.5,0.6c-0.9,1.2-2.6,1.6-3.9,0.9c-0.2-0.1-0.3-0.2-0.4-0.4
					c0-0.1,0.1-0.1,0.2-0.1c1.1,0.1,2.1-0.2,3.1-0.8c0.6-0.4,1.4-0.7,2.1-0.7c0.4,0,0.5-0.2,0.4-0.6c-0.2-1-0.2-2-0.4-3
					c-0.1-0.4-0.2-0.4-0.5-0.3c-0.1,0.1-0.2,0.1-0.4,0.1c-0.2,0-0.4,0.3-0.3,0.4c0.2,0.4,0.1,0.8,0.3,1.2c0.3,0.6,0.2,1.2-0.4,1.3
					c-0.4,0-0.6,0.2-0.8,0.6c-0.1,0.3-0.3,0.4-0.6,0.3c-0.2-0.1-0.3,0.2-0.5,0.1c0,0,0,0.1,0,0.1c0,0-0.1,0-0.1,0
					c-0.2,0.3-0.6,0.2-0.8,0.6c0,0.1-0.1,0.2-0.3,0.1c0.3-0.5,0.5-0.8,1.1-0.7c0-0.1,0-0.1,0.1-0.1c0.1-0.3,0.2-0.5,0.5-0.3
					c0.2,0.1,0.4-0.1,0.4-0.3c0.1-0.4,0.4-0.7,0.8-0.6c0.3,0,0.4-0.2,0.5-0.4c0.1-0.2,0-0.4-0.2-0.5c0,0-0.1,0-0.1-0.1
					c0.2-0.5-0.4-1-0.2-1.5c-0.3-0.1-0.6,0.1-0.9,0.1c0,0.2,0.1,0.2,0.2,0.3c0.6,0.5,0.7,0.7,0.2,1.4
					C157,181.9,156.8,182.2,156.3,182.3L156.3,182.3z"/>
				<path clip-path="url(#SVGID_4_)" fill="#D01819" d="M152.4,187c0.2,0.5-0.3,0.6-0.4,0.9c0.4,0,0.7-0.2,0.8-0.7
					c0.1-0.4,0.1-0.8-0.3-0.9c-0.4-0.1-0.6-0.4-0.8-0.7c-0.2-0.3-0.3-0.3-0.6-0.2c-0.2,0.1-0.4,0.1-0.1,0.3c0.2,0.1,0,0.2-0.1,0.2
					c-0.5,0.1-0.9,0.2-1.5,0.2c-0.3,0-0.5,0-0.8-0.2c-0.2-0.1-0.2,0.4-0.5,0.4c-0.1-0.2,0.2-0.3,0.1-0.5c-0.6,0.1-1.3,0.3-1.9-0.2
					c0.1-0.1,0.3-0.2,0.4-0.3c-0.5-0.1-1,0-1.4,0.2c0,0-0.1,0.1-0.1,0.2c0,0.1,0.1,0.2,0.2,0.1c0.4-0.1,0.3,0.2,0.4,0.5
					c0.2,0.6,0.5,1.1,1.1,1.4c0.5,0.2,0.9,0.1,1.3-0.6c0.2-0.3,0.3-0.4,0.4,0c0,0.1,0.1,0.2,0.1,0.3c0.3,0.5,0.6,0.9,1.1,0.8
					c0.6-0.1,0.8-0.5,1-1C151.6,187.8,152,187.7,152.4,187 M151.7,187.3c-0.3,0-0.4-0.1-0.4-0.4c0-0.3,0.2-0.4,0.5-0.5
					c0.3,0,0.4,0.2,0.4,0.4C152.1,187.2,151.9,187.3,151.7,187.3 M149.7,188c-0.4,0-0.5-0.1-0.6-0.4c0-0.4,0.3-0.3,0.5-0.4
					c0.2-0.1,0.4,0,0.4,0.3C150.1,187.8,149.9,187.9,149.7,188 M147,187.6c-0.2,0-0.4-0.2-0.4-0.4c0-0.3,0.2-0.4,0.4-0.4
					c0.2,0,0.4,0.2,0.4,0.4C147.4,187.4,147.2,187.5,147,187.6"/>
				<path clip-path="url(#SVGID_4_)" fill="#D01819" d="M159.2,179.4c0.2,0.6,0.2,1.2,0.6,1.7c0.7,0.9,1.4,1.9,2.2,2.6
					c0.2,0.2,0.4,0.1,0.5-0.1c0.1-0.2,0.5-0.3,0.2-0.7c-0.3-0.4-0.5-0.9-0.9-1.2c-0.9-0.8-0.9-1.8-0.7-2.9c0.1-0.3,0.1-0.5,0.2-0.8
					c0-0.3-0.2-0.5-0.4-0.4c-0.6,0.4-1,1-1.6,1.4C159.2,179.2,159.2,179.3,159.2,179.4"/>
				<path clip-path="url(#SVGID_4_)" fill="#D01819" d="M150.9,190.2c0,0.1-0.1,0.2-0.1,0.3c0,0.2,0.2,0.3,0.3,0.4
					c0.1,0.1,0.2-0.1,0.3-0.2c0.3-0.3,0.3-0.7,0-1.2c-0.2-0.2-0.3-0.4,0-0.6c0.2-0.2,0.2-0.4,0.2-0.7c-0.1-0.3-0.3-0.3-0.5-0.4
					c-0.1-0.1-0.2,0.1-0.2,0.2c-0.1,0.2-0.3,0.5-0.5,0.6c0.1,0.3,0.3,0.2,0.4,0.4c0,0.2-0.2,0.1-0.3,0.1c-0.3,0-0.5,0.1-0.5,0.4
					c-0.1,0.3-0.1,0.5,0.1,0.7c0.3,0.2,0.4,0.5,0.1,0.9c-0.1,0.1-0.1,0.3-0.1,0.3c0.3,0.4,0.2,0.9,0.4,1.3c0.1,0.2,0.1,0.4,0,0.6
					c-0.1,0.1-0.2,0.3,0,0.4c0.1,0.1,0.3,0.1,0.4,0c0.1-0.1,0.2-0.3,0.1-0.4c-0.1-0.2-0.1-0.3,0-0.5c0.1-0.2,0.1-0.3-0.1-0.5
					c-0.2-0.2-0.2-0.5,0-0.7c0.2-0.3,0.2-0.5,0-0.8C150.4,190.6,150.6,190.4,150.9,190.2"/>
				<path clip-path="url(#SVGID_4_)" fill="#D01819" d="M160.1,183.4c-0.3-0.1-0.4,0.1-0.3,0.4c0.1,0.4,0.2,0.8,0.3,1.2
					c0.1,0.3,0.3,0.3,0.5,0.3c0.3,0,0.6,0.3,0.8,0.2c0.2-0.1,0.2-0.5,0.3-0.8c0.3-0.7,0.3-0.8-0.4-1
					C161,183.6,160.6,183.4,160.1,183.4"/>
				<path clip-path="url(#SVGID_4_)" fill="#D01819" d="M151.1,194.3c0.1,0,0.3,0,0.4,0c0.2,0,0.4-0.1,0.2-0.3
					c-0.2-0.2,0-0.3,0.1-0.5c0.3-0.3,0.3-0.6,0-0.9c-0.2-0.2-0.1-0.3,0-0.4c0.2-0.2,0.2-0.4,0-0.7c-0.2-0.4-0.3-0.3-0.6,0
					c-0.2,0.4-0.2,0.6-0.1,1c0.1,0.3,0,0.8,0,1.2c0,0.4-0.4,0.4-0.7,0.3c-0.3-0.1-0.3-0.3-0.3-0.6c0.1-0.6,0-1.2-0.3-1.7
					c-0.1-0.2-0.3-0.1-0.3,0.1c-0.1,0.2-0.1,0.4,0,0.5c0.2,0.2,0.5,0.5,0.1,0.8c-0.1,0.1,0,0.2,0.1,0.3c0,0.1,0.1,0.1,0.1,0.2
					C150.2,194.3,150.3,194.4,151.1,194.3"/>
				<path clip-path="url(#SVGID_4_)" fill="#D01819" d="M157.4,187.1c-0.3-0.1-0.5-0.3-0.8-0.1c0,0-0.1,0-0.2,0
					c-0.4-0.3-0.8-0.5-1.3-0.2c-0.1,0.1-0.2-0.1-0.2-0.2c-0.1-0.2-0.3-0.3-0.5-0.3c-0.5,0-0.9,0.1-1.2-0.4c0-0.1-0.2-0.1-0.2,0
					c-0.1,0.1,0,0.2,0,0.2c0.2,0.8,0.3,0.9,0.9,0.5c0.3-0.2,0.6-0.1,0.8,0.2c0.2,0.3,0.4,0.4,0.7,0.2c0.2-0.2,0.4-0.1,0.5,0.1
					c0.2,0.2,0.4,0.3,0.7,0.2c0.3-0.2,0.5-0.1,0.7,0.2c0.1,0.2,0.2,0.3,0.5,0.3c0.4-0.1,0.6,0,1,0.3c0.3,0.2,0.5-0.1,0.8-0.4
					c-0.5,0.2-0.8-0.1-1.2-0.4c-0.2-0.1-0.4,0-0.5,0.1C157.5,187.5,157.4,187.4,157.4,187.1C157.4,187.1,157.4,187.1,157.4,187.1"/>
				<path clip-path="url(#SVGID_4_)" fill="#D01819" d="M163.4,184.4c0-0.1,0-0.3-0.1-0.4c-0.2-0.5-0.4-0.6-0.7-0.2
					c-0.4,0.5-0.7,0.9-0.8,1.6c0,0.2-0.2,0.3,0,0.5c0.2,0.1,0.4,0.3,0.6,0.1C162.9,185.6,163.4,185.2,163.4,184.4"/>
				<path clip-path="url(#SVGID_4_)" fill="#D01819" d="M150,188.9c-0.7,0.1-1.2-0.3-1.6-0.9c-0.1,0.7,0.1,1.2,0.7,1.6
					c0.2,0.2,0.4,0.2,0.1,0.5c-0.2,0.2-0.2,0.5-0.1,0.8c0.1,0.3,0.4,0.4,0.7,0.6c0.1,0.1,0.4-0.7,0.3-0.8
					C149.6,189.9,149.6,189.9,150,188.9"/>
				<path clip-path="url(#SVGID_4_)" fill="#D01819" d="M158.5,189.1c-0.4,0-0.7-0.1-0.9-0.5c-0.1-0.2-0.3-0.1-0.5-0.1
					c-0.2,0.1-0.4,0.1-0.6-0.1c-0.2-0.2-0.5-0.2-0.6-0.1c-0.4,0.3-0.6,0.1-0.9-0.2c-0.2-0.1-0.4-0.2-0.5-0.1c-0.1,0.2,0,0.4,0.2,0.5
					c0.2,0.2,0.5,0.4,0.9,0.1c0.2-0.1,0.3-0.2,0.5,0.1c0.1,0.2,0.4,0.3,0.5,0.2c0.3-0.2,0.4,0,0.6,0.2
					C157.5,189.7,158.1,189.7,158.5,189.1"/>
				<path clip-path="url(#SVGID_4_)" fill="#D01819" d="M154.4,185c1.3,0.6,2.5,0.2,3.6-1.3C156.7,184.2,155.7,185.1,154.4,185"/>
				<path clip-path="url(#SVGID_4_)" fill="#D01819" d="M155.4,182.7c0.6-0.2,0.7-0.7,0.4-1.3c-0.1-0.2-0.2-0.4-0.3-0.6
					c-0.1-0.2-0.1-0.4-0.2-0.6c-0.4,0.3-0.4,0.8-0.3,1.2C155.3,181.8,155.3,182.3,155.4,182.7L155.4,182.7z"/>
				<path clip-path="url(#SVGID_4_)" fill="#D01819" d="M159.6,181.5c0.1,0.5,0.1,1,0.2,1.4c0,0.2,0.1,0.2,0.2,0.3
					c0.4,0,0.7,0.1,1.1,0.1C160.6,182.6,160.1,182,159.6,181.5C159.6,181.4,159.6,181.4,159.6,181.5"/>
				<path clip-path="url(#SVGID_4_)" fill="#D01819" d="M155.7,188.1c0.4-0.2,0.7-0.2,1.1,0.2c0.2,0.2,0.3,0,0.5-0.1
					c0.1-0.1,0.1-0.2,0-0.3c-0.2-0.2-0.3-0.5-0.6-0.4c-0.4,0.2-0.6,0.1-0.9-0.2c-0.2-0.2-0.4-0.1-0.5,0c-0.1,0.1-0.2,0.2-0.1,0.3
					C155.2,188,155.4,188.2,155.7,188.1"/>
				<path clip-path="url(#SVGID_4_)" fill="#D01819" d="M156.3,182.3c0.2-0.3,0.4-0.5,0.4-0.8c0-0.2,0-0.4-0.3-0.4
					c-0.1,0-0.2,0-0.2-0.1c0.1-0.4-0.3-0.6-0.3-1c-0.3,0.4-0.3,0.9,0.1,1c0.3,0.1,0.1,0.2,0.1,0.4
					C156.1,181.7,155.9,182.1,156.3,182.3C156.3,182.3,156.3,182.3,156.3,182.3"/>
				<path clip-path="url(#SVGID_4_)" fill="#D01819" d="M151.8,188.3c0.4,0.2,0.7,0,1-0.3c0.2-0.2,0.2-0.3,0.4,0
					c0.2,0.4,0.6,0.4,1.2,0c-0.7,0-0.9-0.3-1.1-0.8c-0.1-0.2-0.3-0.3-0.3,0C152.8,187.9,152.4,188.1,151.8,188.3"/>
				<path clip-path="url(#SVGID_4_)" fill="#D01819" d="M159.1,189c0-0.2,0-0.5,0.1-0.7c-0.4,0.2-0.7,0.2-0.9-0.1
					c-0.1-0.2-0.2-0.2-0.7,0.1c0.2,0.4,0.4,0.9,1,0.4C158.8,188.4,158.8,188.9,159.1,189"/>
				<path clip-path="url(#SVGID_4_)" fill="#D01819" d="M154.1,187.8c0.2-0.1,0.6-0.1,0.5-0.4c0-0.3-0.2-0.6-0.6-0.6
					c-0.3,0-0.6,0.2-0.6,0.4C153.5,187.6,153.8,187.8,154.1,187.8"/>
				<path clip-path="url(#SVGID_4_)" fill="#D01819" d="M156.9,181.6c0.5-0.5,0.5-0.8,0.1-1.2c-0.1-0.1-0.3-0.3-0.4-0.4
					c-0.1-0.1-0.2-0.2-0.4-0.1c-0.2,0.2,0,0.3,0,0.4C156.6,180.6,156.9,181,156.9,181.6"/>
				<path clip-path="url(#SVGID_4_)" fill="#D01819" d="M149,185.3c0.3,0.5,0.9,0.8,1.3,0.6c0.1,0,0.2-0.1,0.1-0.2
					c0-0.2-0.2-0.2-0.3-0.3c-0.1-0.1-0.2-0.1-0.2,0c-0.2,0.6-0.4,0.1-0.5,0C149.3,185.4,149.2,185.1,149,185.3"/>
				<path clip-path="url(#SVGID_4_)" fill="#D01819" d="M150.5,188.2c-0.6,0.1-1.1,0.3-1.6-0.1C149.3,188.9,150,188.9,150.5,188.2"
					/>
				<path clip-path="url(#SVGID_4_)" fill="#D01819" d="M148,187.9c-0.5,0-1,0.2-1.5,0C146.8,188.4,147.4,188.4,148,187.9"/>
				<path clip-path="url(#SVGID_4_)" fill="#D01819" d="M147.8,185.7c0.2-0.1,0.5-0.1,0.5-0.4c0-0.1-0.1-0.1-0.2-0.1
					c-0.2,0.1-0.5,0.1-0.6,0.4C147.5,185.7,147.7,185.7,147.8,185.7"/>
				<path clip-path="url(#SVGID_4_)" fill="#D01819" d="M155.4,182.7L155.4,182.7C155.3,182.8,155.4,182.8,155.4,182.7
					C155.4,182.8,155.4,182.7,155.4,182.7C155.4,182.7,155.4,182.7,155.4,182.7"/>
				<path clip-path="url(#SVGID_4_)" fill="#EDEDED" d="M155.9,183.5c-0.6-0.1-0.8,0.2-1.1,0.7c0.2,0.1,0.3,0,0.3-0.1
					C155.2,183.7,155.7,183.8,155.9,183.5L155.9,183.5z"/>
				<path clip-path="url(#SVGID_4_)" fill="#EDEDED" d="M154.1,184.1c0,0.1,0.1,0.1,0.1,0.1C154.3,184.1,154.2,184.1,154.1,184.1
					C154.1,184.1,154.1,184.1,154.1,184.1"/>
				<path clip-path="url(#SVGID_4_)" fill="#EDEDED" d="M155.8,183.4C155.9,183.5,155.9,183.5,155.8,183.4c0.1,0,0.1-0.1,0.1-0.1
					c0,0,0,0,0,0C155.9,183.4,155.9,183.4,155.8,183.4L155.8,183.4"/>
				<path clip-path="url(#SVGID_4_)" fill="#EDEDED" d="M151.7,187.3c0.2,0,0.4-0.2,0.4-0.5c0-0.2-0.1-0.5-0.4-0.4
					c-0.3,0-0.5,0.1-0.5,0.5C151.3,187.2,151.4,187.3,151.7,187.3"/>
				<path clip-path="url(#SVGID_4_)" fill="#EDEDED" d="M149.7,188c0.2,0,0.3-0.2,0.3-0.5c0-0.3-0.3-0.4-0.4-0.3
					c-0.2,0-0.5,0-0.5,0.4C149.2,187.8,149.4,188,149.7,188"/>
				<path clip-path="url(#SVGID_4_)" fill="#EDEDED" d="M147,187.6c0.2,0,0.4-0.1,0.4-0.4c0-0.3-0.2-0.4-0.4-0.4
					c-0.2,0-0.4,0.2-0.4,0.4C146.6,187.4,146.8,187.5,147,187.6"/>
			</g>
		</g>
	</g>
	<g>
		<g>
			<defs>
				<rect id="SVGID_5_" x="58" y="188.4" width="16.3" height="18"/>
			</defs>
			<clipPath id="SVGID_6_">
				<use xlink:href="#SVGID_5_"  overflow="visible"/>
			</clipPath>
			<g clip-path="url(#SVGID_6_)">
				<defs>
					<rect id="SVGID_7_" x="58" y="188.4" width="16.3" height="18"/>
				</defs>
				<clipPath id="SVGID_8_">
					<use xlink:href="#SVGID_7_"  overflow="visible"/>
				</clipPath>
				<path clip-path="url(#SVGID_8_)" fill="#D01819" d="M62.9,199.7c0,0.6,0,1.1,0,1.7c0,0.1,0,0.2,0.2,0.2c0.6,0,0.5,0.1,0.5-0.6
					c0-0.3,0.1-0.6,0.2-0.9c0.1-0.3,0.1-0.6,0.2-0.9c0-0.2,0.2-0.4,0.3-0.5c0.1-0.1,0.1-0.1,0.2-0.1c0.2,0.1,0.4,0.1,0.6,0.2
					c0.1,0,0.1,0,0.2,0c0-0.1,0-0.1,0-0.2c0,0,0,0,0,0c0.1-0.2-0.2-0.4-0.1-0.6c0-0.1,0-0.1-0.1-0.1c-0.1-0.1-0.2-0.3-0.1-0.4
					c0-0.1,0-0.1,0-0.2c-0.1-0.1-0.2-0.3-0.2-0.5c0-0.1,0-0.1-0.1-0.1c-0.4,0.2-0.7,0-0.8-0.5c0,0,0,0,0-0.1c-0.1-0.1,0-0.2-0.1-0.2
					c-0.1,0-0.3,0-0.3,0.2c-0.2,0.7-0.4,1.5-0.4,2.3C62.9,198.9,62.9,199.3,62.9,199.7"/>
				<path clip-path="url(#SVGID_8_)" fill="#D01819" d="M68.5,199.6c0-0.5,0-1,0.1-1.6c0-0.2,0.1-0.4,0.1-0.6c0-0.2,0-0.3-0.2-0.2
					c-0.2,0.1-0.3,0.1-0.5-0.1c0-0.1-0.1-0.1-0.1,0c-0.1,0-0.2-0.1-0.3-0.1c-0.2,0-0.4-0.1-0.6-0.2c-0.1-0.1-0.3,0-0.4-0.1
					c0,0,0,0,0,0c0,0-0.1,0-0.1,0c-0.1,0.1-0.4,0-0.5,0.3c0,0.1,0,0.1,0,0.2c0.1,0.1,0.1,0.3,0,0.4c0,0.1,0,0.1,0,0.2
					c0.1,0.1,0.2,0.2,0.1,0.4c0,0,0,0.1,0,0.1c0.1,0.1,0.1,0.2,0,0.4c0,0.1-0.1,0.1,0,0.2c0,0.1,0.1,0.1,0.2,0.1c0.3,0,0.7,0,1-0.2
					c0.1,0,0.2,0,0.2,0.1c0.3,0.7,0.4,1.5,0.4,2.3c0,0.4,0,0.4,0.4,0.4c0.2,0,0.3,0,0.3-0.3C68.5,200.7,68.5,200.2,68.5,199.6"/>
				<path clip-path="url(#SVGID_8_)" fill="#D01819" d="M67.7,194.5c0,0.1-0.1,0.1-0.1,0.1c-0.1,0.1-0.3,0.2-0.5,0.2
					c0.4-0.3,0.1-0.6,0.1-0.8c0,0,0,0-0.1,0c0,0-0.1,0.1,0,0.1c0.1,0.1,0,0.1,0,0.2c-0.1,0.1-0.1,0.1,0,0.2c0,0,0,0.1,0,0.1
					c-0.1,0.1-0.1,0.2,0,0.2c0,0,0,0.1,0,0.2c-0.1,0.1,0,0.1,0,0.2c0,0,0,0,0,0c0,0,0,0,0,0c0,0-0.1,0-0.1,0c0-0.2-0.1-0.4,0-0.5
					c0-0.1,0-0.1,0-0.1c-0.1-0.1-0.1,0-0.1,0.1c-0.2,0.3-0.3,0.7-0.7,1c-0.1,0,0,0.1,0,0.1c0,0,0.1,0,0.1,0.1c0.2,0,0.4,0.1,0.5,0.3
					c0,0,0.1,0,0.2,0c0.1,0,0.2,0,0.3,0.1c0,0,0,0,0.1,0c0.2-0.1,0.3,0,0.4,0.1c0.1,0.1,0.2-0.1,0.3,0c0,0,0.1,0,0.1,0.1l0,0
					c0.2,0,0.3-0.1,0.5,0.1c0.1,0.1,0.2,0,0.3-0.1c0-0.2,0.1-0.4,0.2-0.5c0-0.1,0-0.1,0-0.2c0-0.1,0-0.2-0.1-0.3
					c0-0.1,0-0.2-0.1-0.3c-0.1,0-0.3,0-0.4,0.1c-0.1,0.1-0.1,0.1-0.2,0.2c-0.3,0.5-0.9,0.6-1.4,0.3c-0.1,0-0.1-0.1-0.1-0.2
					c0,0,0,0,0.1,0c0.4,0,0.8-0.1,1.2-0.3c0.2-0.1,0.5-0.3,0.8-0.3c0.1,0,0.2-0.1,0.1-0.2c-0.1-0.4-0.1-0.7-0.2-1.1
					c0-0.1-0.1-0.2-0.2-0.1c0,0-0.1,0-0.1,0c-0.1,0-0.1,0.1-0.1,0.1c0.1,0.1,0.1,0.3,0.1,0.4c0.1,0.2,0.1,0.5-0.2,0.5
					c-0.2,0-0.2,0.1-0.3,0.2c0,0.1-0.1,0.2-0.2,0.1c-0.1,0-0.1,0.1-0.2,0c0,0,0,0,0,0c0,0,0,0,0,0c-0.1,0.1-0.2,0.1-0.3,0.2
					c0,0-0.1,0.1-0.1,0c0.1-0.2,0.2-0.3,0.4-0.3c0,0,0,0,0,0c0-0.1,0.1-0.2,0.2-0.1c0.1,0,0.1,0,0.2-0.1c0.1-0.2,0.1-0.3,0.3-0.2
					c0.1,0,0.2-0.1,0.2-0.2c0-0.1,0-0.1-0.1-0.2c0,0,0,0,0,0c0.1-0.2-0.1-0.4-0.1-0.6c-0.1,0-0.2,0-0.3,0c0,0.1,0,0.1,0.1,0.1
					c0.2,0.2,0.2,0.3,0.1,0.5C68,194.4,67.9,194.5,67.7,194.5L67.7,194.5z"/>
				<path clip-path="url(#SVGID_8_)" fill="#D01819" d="M66.3,196.3c0.1,0.2-0.1,0.2-0.1,0.3c0.1,0,0.3-0.1,0.3-0.3
					c0-0.1,0-0.3-0.1-0.3c-0.2,0-0.2-0.2-0.3-0.3c-0.1-0.1-0.1-0.1-0.2-0.1c-0.1,0-0.1,0,0,0.1c0.1,0.1,0,0.1,0,0.1
					c-0.2,0-0.3,0.1-0.5,0.1c-0.1,0-0.2,0-0.3-0.1c-0.1,0-0.1,0.2-0.2,0.2c0-0.1,0.1-0.1,0-0.2c-0.2,0-0.5,0.1-0.7-0.1
					c0.1,0,0.1-0.1,0.2-0.1c-0.2,0-0.4,0-0.5,0.1c0,0,0,0,0,0.1c0,0,0,0.1,0.1,0.1c0.1,0,0.1,0.1,0.2,0.2c0.1,0.2,0.2,0.4,0.4,0.5
					c0.2,0.1,0.3,0,0.5-0.2c0.1-0.1,0.1-0.2,0.2,0c0,0,0,0.1,0.1,0.1c0.1,0.2,0.2,0.3,0.4,0.3c0.2,0,0.3-0.2,0.4-0.4
					C66,196.6,66.1,196.5,66.3,196.3 M66,196.4c-0.1,0-0.2-0.1-0.2-0.2c0-0.1,0.1-0.2,0.2-0.2c0.1,0,0.1,0.1,0.1,0.2
					C66.2,196.3,66.1,196.4,66,196.4 M65.3,196.6c-0.1,0-0.2,0-0.2-0.2c0-0.1,0.1-0.1,0.2-0.1c0.1,0,0.2,0,0.2,0.1
					C65.4,196.6,65.4,196.6,65.3,196.6 M64.3,196.5c-0.1,0-0.1-0.1-0.1-0.2c0-0.1,0.1-0.2,0.2-0.2c0.1,0,0.1,0.1,0.1,0.2
					C64.4,196.4,64.4,196.5,64.3,196.5"/>
				<path clip-path="url(#SVGID_8_)" fill="#D01819" d="M68.8,193.5c0.1,0.2,0.1,0.5,0.2,0.6c0.3,0.3,0.5,0.7,0.8,1
					c0.1,0.1,0.1,0.1,0.2,0c0.1-0.1,0.2-0.1,0.1-0.3c-0.1-0.1-0.2-0.3-0.3-0.4c-0.3-0.3-0.3-0.7-0.3-1.1c0-0.1,0.1-0.2,0.1-0.3
					c0-0.1-0.1-0.2-0.2-0.1C69.2,193,69,193.2,68.8,193.5C68.8,193.4,68.8,193.4,68.8,193.5"/>
				<path clip-path="url(#SVGID_8_)" fill="#D01819" d="M65.7,197.5c0,0,0,0.1,0,0.1c0,0.1,0.1,0.1,0.1,0.2c0.1,0,0.1,0,0.1-0.1
					c0.1-0.1,0.1-0.3,0-0.4c-0.1-0.1-0.1-0.1,0-0.2c0.1-0.1,0.1-0.2,0.1-0.2c0-0.1-0.1-0.1-0.2-0.1c0,0-0.1,0-0.1,0.1
					c-0.1,0.1-0.1,0.2-0.2,0.2c0,0.1,0.1,0.1,0.1,0.1c0,0.1-0.1,0-0.1,0c-0.1,0-0.2,0.1-0.2,0.1c0,0.1,0,0.2,0.1,0.3
					c0.1,0.1,0.2,0.2,0,0.3c0,0,0,0.1,0,0.1c0.1,0.1,0.1,0.3,0.1,0.5c0,0.1,0,0.1,0,0.2c0,0-0.1,0.1,0,0.1c0,0,0.1,0,0.1,0
					c0.1,0,0.1-0.1,0-0.2c-0.1-0.1,0-0.1,0-0.2c0-0.1,0-0.1,0-0.2c-0.1-0.1-0.1-0.2,0-0.3c0.1-0.1,0.1-0.2,0-0.3
					C65.5,197.6,65.6,197.5,65.7,197.5"/>
				<path clip-path="url(#SVGID_8_)" fill="#D01819" d="M69.1,194.9c-0.1,0-0.1,0-0.1,0.2c0,0.1,0.1,0.3,0.1,0.4
					c0,0.1,0.1,0.1,0.2,0.1c0.1,0,0.2,0.1,0.3,0.1c0.1,0,0.1-0.2,0.1-0.3c0.1-0.3,0.1-0.3-0.1-0.4C69.4,195,69.3,194.9,69.1,194.9"
					/>
				<path clip-path="url(#SVGID_8_)" fill="#D01819" d="M65.8,199c0,0,0.1,0,0.1,0c0.1,0,0.1,0,0.1-0.1c-0.1-0.1,0-0.1,0-0.2
					c0.1-0.1,0.1-0.2,0-0.3c-0.1-0.1,0-0.1,0-0.2c0.1-0.1,0.1-0.2,0-0.2c-0.1-0.1-0.1-0.1-0.2,0c-0.1,0.1-0.1,0.2,0,0.4
					c0,0.1,0,0.3,0,0.4c0,0.2-0.1,0.1-0.2,0.1c-0.1,0-0.1-0.1-0.1-0.2c0.1-0.2,0-0.4-0.1-0.6c0-0.1-0.1,0-0.1,0c0,0.1,0,0.1,0,0.2
					c0.1,0.1,0.2,0.2,0.1,0.3c0,0,0,0.1,0,0.1c0,0,0,0,0.1,0.1C65.5,199,65.5,199,65.8,199"/>
				<path clip-path="url(#SVGID_8_)" fill="#D01819" d="M68.1,196.3c-0.1,0-0.2-0.1-0.3,0c0,0-0.1,0-0.1,0c-0.2-0.1-0.3-0.2-0.5-0.1
					c0,0-0.1,0-0.1-0.1c0-0.1-0.1-0.1-0.2-0.1c-0.2,0-0.3,0-0.5-0.1c0,0-0.1,0-0.1,0c0,0,0,0.1,0,0.1c0.1,0.3,0.1,0.3,0.3,0.2
					c0.1-0.1,0.2,0,0.3,0.1c0.1,0.1,0.2,0.1,0.3,0.1c0.1-0.1,0.1,0,0.2,0c0.1,0.1,0.1,0.1,0.2,0.1c0.1-0.1,0.2,0,0.3,0.1
					c0,0.1,0.1,0.1,0.2,0.1c0.1,0,0.2,0,0.4,0.1c0.1,0.1,0.2-0.1,0.3-0.2c-0.2,0.1-0.3,0-0.4-0.1c-0.1,0-0.1,0-0.2,0
					C68.1,196.4,68.1,196.4,68.1,196.3C68.1,196.3,68.1,196.3,68.1,196.3"/>
				<path clip-path="url(#SVGID_8_)" fill="#D01819" d="M70.3,195.3c0,0,0-0.1,0-0.1c-0.1-0.2-0.1-0.2-0.3-0.1
					c-0.1,0.2-0.3,0.4-0.3,0.6c0,0.1-0.1,0.1,0,0.2c0.1,0,0.1,0.1,0.2,0.1C70.2,195.8,70.3,195.6,70.3,195.3"/>
				<path clip-path="url(#SVGID_8_)" fill="#D01819" d="M65.4,197c-0.3,0-0.4-0.1-0.6-0.3c-0.1,0.2,0,0.4,0.2,0.6
					c0.1,0.1,0.1,0.1,0,0.2c-0.1,0.1-0.1,0.2,0,0.3c0.1,0.1,0.2,0.2,0.3,0.2c0,0,0.2-0.3,0.1-0.3C65.3,197.3,65.3,197.3,65.4,197"/>
				<path clip-path="url(#SVGID_8_)" fill="#D01819" d="M68.5,197.1c-0.1,0-0.3-0.1-0.3-0.2c0-0.1-0.1,0-0.2,0c-0.1,0-0.2,0-0.2,0
					c-0.1-0.1-0.2-0.1-0.2,0c-0.1,0.1-0.2,0-0.3-0.1c-0.1-0.1-0.1-0.1-0.2,0c0,0.1,0,0.1,0.1,0.2c0.1,0.1,0.2,0.1,0.3,0.1
					c0.1-0.1,0.1-0.1,0.2,0c0,0.1,0.1,0.1,0.2,0.1c0.1-0.1,0.2,0,0.2,0.1C68.2,197.3,68.4,197.3,68.5,197.1"/>
				<path clip-path="url(#SVGID_8_)" fill="#D01819" d="M67,195.5c0.5,0.2,0.9,0.1,1.3-0.5C67.9,195.2,67.5,195.6,67,195.5"/>
				<path clip-path="url(#SVGID_8_)" fill="#D01819" d="M67.4,194.7c0.2-0.1,0.3-0.3,0.2-0.5c0-0.1-0.1-0.1-0.1-0.2
					c0-0.1,0-0.1-0.1-0.2c-0.2,0.1-0.2,0.3-0.1,0.4C67.3,194.4,67.4,194.5,67.4,194.7L67.4,194.7z"/>
				<path clip-path="url(#SVGID_8_)" fill="#D01819" d="M68.9,194.2c0,0.2,0,0.4,0.1,0.5c0,0.1,0,0.1,0.1,0.1c0.1,0,0.3,0,0.4,0
					C69.3,194.7,69.1,194.4,68.9,194.2C68.9,194.2,68.9,194.2,68.9,194.2"/>
				<path clip-path="url(#SVGID_8_)" fill="#D01819" d="M67.5,196.7c0.1-0.1,0.3-0.1,0.4,0.1c0.1,0.1,0.1,0,0.2,0c0,0,0-0.1,0-0.1
					c-0.1-0.1-0.1-0.2-0.2-0.1c-0.1,0.1-0.2,0.1-0.3-0.1c-0.1-0.1-0.1,0-0.2,0c0,0-0.1,0.1,0,0.1C67.3,196.6,67.4,196.7,67.5,196.7"
					/>
				<path clip-path="url(#SVGID_8_)" fill="#D01819" d="M67.7,194.5c0.1-0.1,0.1-0.2,0.1-0.3c0-0.1,0-0.2-0.1-0.2c0,0-0.1,0-0.1,0
					c0.1-0.2-0.1-0.2-0.1-0.4c-0.1,0.2-0.1,0.3,0,0.4c0.1,0,0,0.1,0,0.1C67.6,194.3,67.6,194.5,67.7,194.5
					C67.7,194.5,67.7,194.5,67.7,194.5"/>
				<path clip-path="url(#SVGID_8_)" fill="#D01819" d="M66.1,196.7c0.1,0.1,0.3,0,0.4-0.1c0.1-0.1,0.1-0.1,0.1,0
					c0.1,0.2,0.2,0.2,0.4,0c-0.2,0-0.3-0.1-0.4-0.3c0-0.1-0.1-0.1-0.1,0C66.4,196.6,66.3,196.7,66.1,196.7"/>
				<path clip-path="url(#SVGID_8_)" fill="#D01819" d="M68.8,197c0-0.1,0-0.2,0-0.3c-0.1,0.1-0.2,0.1-0.3-0.1
					c-0.1-0.1-0.1-0.1-0.2,0c0.1,0.2,0.2,0.3,0.4,0.2C68.6,196.8,68.7,197,68.8,197"/>
				<path clip-path="url(#SVGID_8_)" fill="#D01819" d="M66.9,196.6c0.1,0,0.2,0,0.2-0.1c0-0.1-0.1-0.2-0.2-0.2
					c-0.1,0-0.2,0.1-0.2,0.2C66.7,196.5,66.8,196.6,66.9,196.6"/>
				<path clip-path="url(#SVGID_8_)" fill="#D01819" d="M67.9,194.3c0.2-0.2,0.2-0.3,0-0.5c0-0.1-0.1-0.1-0.1-0.1
					c0-0.1-0.1-0.1-0.1,0c-0.1,0.1,0,0.1,0,0.2C67.8,193.9,67.9,194,67.9,194.3"/>
				<path clip-path="url(#SVGID_8_)" fill="#D01819" d="M65,195.6c0.1,0.2,0.3,0.3,0.5,0.2c0,0,0.1,0,0.1-0.1c0-0.1-0.1-0.1-0.1-0.1
					c0,0-0.1,0-0.1,0c-0.1,0.2-0.1,0-0.2,0C65.1,195.7,65.1,195.6,65,195.6"/>
				<path clip-path="url(#SVGID_8_)" fill="#D01819" d="M65.6,196.7c-0.2,0-0.4,0.1-0.6,0C65.1,197,65.4,197,65.6,196.7"/>
				<path clip-path="url(#SVGID_8_)" fill="#D01819" d="M64.6,196.6c-0.2,0-0.4,0.1-0.6,0C64.2,196.8,64.4,196.8,64.6,196.6"/>
				<path clip-path="url(#SVGID_8_)" fill="#D01819" d="M64.6,195.8c0.1,0,0.2,0,0.2-0.2c0,0,0,0-0.1,0c-0.1,0-0.2,0.1-0.2,0.2
					C64.5,195.8,64.5,195.8,64.6,195.8"/>
				<polyline clip-path="url(#SVGID_8_)" fill="#D01819" points="67.4,194.7 67.4,194.7 67.4,194.7 67.4,194.7 67.4,194.7 				"/>
				<path clip-path="url(#SVGID_8_)" fill="#EDEDED" d="M67.5,195c-0.2,0-0.3,0.1-0.4,0.3c0.1,0,0.1,0,0.1,0
					C67.3,195.1,67.5,195.1,67.5,195L67.5,195z"/>
				<path clip-path="url(#SVGID_8_)" fill="#EDEDED" d="M66.9,195.2C66.9,195.2,66.9,195.3,66.9,195.2
					C67,195.2,66.9,195.2,66.9,195.2C66.9,195.2,66.9,195.2,66.9,195.2"/>
				<path clip-path="url(#SVGID_8_)" fill="#EDEDED" d="M67.5,195C67.6,195,67.6,195,67.5,195C67.6,195,67.6,194.9,67.5,195
					C67.6,194.9,67.6,194.9,67.5,195C67.6,194.9,67.5,194.9,67.5,195L67.5,195"/>
				<path clip-path="url(#SVGID_8_)" fill="#EDEDED" d="M66,196.4c0.1,0,0.2-0.1,0.2-0.2c0-0.1,0-0.2-0.1-0.2c-0.1,0-0.2,0-0.2,0.2
					C65.9,196.3,65.9,196.4,66,196.4"/>
				<path clip-path="url(#SVGID_8_)" fill="#EDEDED" d="M65.3,196.6c0.1,0,0.1-0.1,0.1-0.2c0-0.1-0.1-0.1-0.2-0.1
					c-0.1,0-0.2,0-0.2,0.1C65.1,196.6,65.2,196.6,65.3,196.6"/>
				<path clip-path="url(#SVGID_8_)" fill="#EDEDED" d="M64.3,196.5c0.1,0,0.2,0,0.2-0.1c0-0.1-0.1-0.2-0.1-0.2
					c-0.1,0-0.1,0.1-0.2,0.2C64.1,196.4,64.2,196.5,64.3,196.5"/>
			</g>
		</g>
	</g>
	<g>
		<g>
			<defs>
				<rect id="SVGID_9_" x="202.5" y="144" width="74.7" height="78.6"/>
			</defs>
			<clipPath id="SVGID_10_">
				<use xlink:href="#SVGID_9_"  overflow="visible"/>
			</clipPath>
			<g clip-path="url(#SVGID_10_)">
				<defs>
					<rect id="SVGID_11_" x="202.5" y="144" width="74.7" height="78.6"/>
				</defs>
				<clipPath id="SVGID_12_">
					<use xlink:href="#SVGID_11_"  overflow="visible"/>
				</clipPath>
				<path clip-path="url(#SVGID_12_)" fill="#D01819" d="M225.1,193.6c0,2.5,0,4.9-0.1,7.4c0,0.6,0.2,0.9,0.8,0.8
					c2.7-0.2,2.2,0.4,2.5-2.4c0.1-1.4,0.4-2.7,0.7-4.1c0.3-1.4,0.6-2.7,1-4.1c0.2-0.9,0.7-1.6,1.2-2.2c0.3-0.4,0.6-0.4,1-0.3
					c1,0.3,2,0.6,3,1c0.3,0.1,0.5,0.2,0.7-0.1c0.2-0.3,0-0.5-0.1-0.7c0,0-0.1-0.1-0.1-0.1c0.4-1-0.8-1.7-0.4-2.8
					c0.1-0.3-0.2-0.4-0.4-0.6c-0.6-0.5-0.7-1.1-0.4-1.8c0.2-0.4,0.1-0.6-0.2-0.8c-0.6-0.5-1-1.2-1.1-2c-0.1-0.4-0.2-0.5-0.5-0.3
					c-1.8,0.8-3.4-0.1-3.8-2.1c0-0.1,0-0.2,0-0.2c-0.3-0.3,0.2-1-0.4-1c-0.6,0-1.3,0-1.6,0.9c-1,3.3-1.8,6.5-1.7,10
					C225.1,190,225.1,191.8,225.1,193.6"/>
				<path clip-path="url(#SVGID_12_)" fill="#D01819" d="M250.7,193.1c0.1-2.3,0.2-4.5,0.2-6.8c0-0.9,0.2-1.7,0.3-2.6
					c0.1-0.9-0.2-1.1-1-0.9c-0.8,0.2-1.6,0.4-2.1-0.5c-0.1-0.2-0.4-0.2-0.6-0.2c-0.5,0.1-0.9-0.3-1.3-0.3c-1,0-1.9-0.2-2.8-0.7
					c-0.5-0.3-1.4,0.2-2-0.5c0,0,0,0-0.1,0c-0.2-0.1-0.3,0-0.4,0.1c-0.6,0.6-1.8,0.1-2.1,1.2c-0.1,0.3,0,0.5,0.1,0.7
					c0.4,0.6,0.5,1.2,0.1,1.9c-0.2,0.3-0.2,0.5,0.1,0.8c0.5,0.5,0.8,1,0.3,1.6c-0.2,0.2-0.1,0.4,0,0.6c0.4,0.5,0.4,1,0,1.5
					c-0.2,0.3-0.2,0.5,0,0.8c0.2,0.3,0.5,0.3,0.8,0.3c1.6-0.1,3.1-0.2,4.7-0.7c0.6-0.2,0.8,0,1,0.6c1.4,3.2,1.7,6.5,1.7,9.9
					c0,1.7,0.1,1.8,1.7,1.7c1-0.1,1.1-0.2,1.2-1.3C250.6,198,250.5,195.5,250.7,193.1"/>
				<path clip-path="url(#SVGID_12_)" fill="#D01819" d="M247,171c0,0.5-0.4,0.4-0.6,0.6c-0.7,0.4-1.3,0.9-2.2,1
					c1.6-1.1,0.4-2.4,0.3-3.6c0-0.2-0.2-0.2-0.3-0.1c-0.2,0.1-0.3,0.2-0.2,0.4c0.3,0.4,0.1,0.6-0.2,0.8c-0.2,0.2-0.5,0.4-0.1,0.8
					c0,0,0,0.2,0,0.3c-0.3,0.4-0.6,0.7,0.1,1c0.2,0.1,0.1,0.5-0.1,0.7c-0.3,0.3-0.2,0.7-0.2,1c0.1,0,0.2,0,0.1,0.2
					c-0.1,0.1-0.2,0-0.2-0.1c-0.1,0-0.3-0.1-0.3-0.1c0.1-0.8-0.2-1.6,0-2.4c0.1-0.3,0.1-0.5-0.1-0.6c-0.3-0.2-0.3,0.1-0.4,0.3
					c-1,1.4-1.6,3.2-3,4.3c-0.2,0.2-0.2,0.4,0,0.5c0.1,0.1,0.3,0.2,0.4,0.2c0.9,0.2,1.8,0.4,2.5,1.1c0.1,0.1,0.5,0.1,0.8,0.1
					c0.5,0,1,0,1.3,0.4c0.1,0.1,0.2,0.2,0.3,0.1c0.8-0.5,1.4-0.1,2,0.3c0.4,0.3,0.9-0.2,1.4,0.1c0.2,0.2,0.5,0.2,0.4,0.5l0,0
					c0.8-0.1,1.6-0.3,2.3,0.4c0.4,0.4,1.1,0,1.3-0.6c0.2-0.8,0.4-1.6,0.7-2.3c0.2-0.3,0-0.6,0-0.9c-0.1-0.4-0.2-0.9-0.3-1.3
					c-0.1-0.4,0-1-0.4-1.2c-0.6-0.2-1.3,0-1.8,0.4c-0.3,0.3-0.6,0.6-0.8,0.9c-1.6,2-4.3,2.6-6.5,1.5c-0.3-0.1-0.5-0.4-0.7-0.7
					c0.1-0.2,0.2-0.2,0.3-0.1c1.9,0.2,3.6-0.3,5.3-1.3c1.1-0.6,2.3-1.1,3.6-1.2c0.6,0,0.8-0.3,0.7-0.9c-0.3-1.6-0.3-3.2-0.7-4.8
					c-0.2-0.6-0.4-0.7-0.8-0.5c-0.2,0.1-0.4,0.1-0.6,0.1c-0.4,0-0.6,0.5-0.5,0.6c0.4,0.6,0.3,1.3,0.6,1.9c0.6,0.9,0.3,2-0.7,2.1
					c-0.7,0.1-1.1,0.4-1.3,1c-0.2,0.4-0.5,0.7-1,0.5c-0.4-0.2-0.6,0.3-0.9,0.1c0,0.1,0,0.1,0,0.2c0,0-0.1,0-0.1,0
					c-0.3,0.5-1.1,0.4-1.3,1c-0.1,0.1-0.2,0.3-0.5,0.2c0.4-0.7,0.9-1.4,1.8-1.1c0-0.1,0.1-0.2,0.2-0.2c0.1-0.4,0.3-0.8,0.8-0.5
					c0.4,0.2,0.6-0.1,0.7-0.4c0.2-0.7,0.6-1.1,1.4-1c0.5,0.1,0.7-0.3,0.9-0.7c0.1-0.4,0-0.6-0.4-0.8c0,0-0.1-0.1-0.1-0.1
					c0.3-0.9-0.7-1.5-0.4-2.4c-0.5-0.2-1,0.1-1.5,0.2c-0.1,0.3,0.2,0.4,0.3,0.5c1,0.8,1.1,1.2,0.4,2.3
					C248.2,170.3,247.8,170.9,247,171L247,171z"/>
				<path clip-path="url(#SVGID_12_)" fill="#D01819" d="M240.4,178.6c0.3,0.8-0.5,0.9-0.7,1.4c0.6,0.1,1.2-0.4,1.4-1.1
					c0.1-0.6,0.1-1.3-0.6-1.5c-0.7-0.1-1.1-0.7-1.4-1.2c-0.3-0.4-0.6-0.5-1-0.4c-0.3,0.1-0.6,0.1-0.2,0.5c0.3,0.2,0.1,0.3-0.1,0.4
					c-0.8,0.2-1.6,0.4-2.5,0.3c-0.5-0.1-0.9-0.1-1.3-0.3c-0.4-0.2-0.4,0.7-0.9,0.7c-0.1-0.3,0.3-0.4,0.2-0.8
					c-1.1,0.2-2.2,0.4-3.3-0.3c0.3-0.2,0.5-0.4,0.7-0.5c-0.9-0.2-1.7-0.1-2.4,0.4c-0.1,0-0.2,0.2-0.2,0.2c0,0.2,0.2,0.3,0.3,0.2
					c0.6-0.1,0.6,0.4,0.7,0.7c0.3,1,0.9,1.8,1.8,2.2c0.9,0.4,1.5,0.1,2.2-0.9c0.3-0.4,0.5-0.7,0.7,0c0,0.2,0.2,0.3,0.2,0.4
					c0.4,0.7,0.9,1.4,1.9,1.3c1-0.1,1.3-0.9,1.7-1.7C239.1,179.9,239.7,179.7,240.4,178.6 M239.2,179.1c-0.4,0-0.7-0.2-0.8-0.7
					c0-0.5,0.4-0.7,0.8-0.7c0.5,0,0.6,0.3,0.6,0.7C239.9,178.8,239.6,179,239.2,179.1 M235.9,180.1c-0.6,0.1-0.9-0.2-1-0.7
					c-0.1-0.6,0.5-0.5,0.8-0.6c0.3-0.1,0.7,0.1,0.7,0.5C236.5,179.8,236.2,180,235.9,180.1 M231.2,179.4c-0.4,0-0.7-0.3-0.6-0.7
					c0-0.4,0.3-0.7,0.7-0.7c0.4,0,0.6,0.3,0.7,0.7C231.9,179.3,231.6,179.4,231.2,179.4"/>
				<path clip-path="url(#SVGID_12_)" fill="#D01819" d="M251.9,166.3c0.4,0.9,0.3,2,0.9,2.8c1.2,1.5,2.3,3,3.7,4.3
					c0.4,0.4,0.6,0.2,0.9-0.1c0.2-0.3,0.9-0.5,0.4-1.1c-0.5-0.6-0.9-1.4-1.5-1.9c-1.5-1.3-1.6-2.8-1.2-4.6c0.1-0.4,0.2-0.9,0.3-1.3
					c0.1-0.5-0.3-0.9-0.7-0.6c-1,0.6-1.7,1.6-2.7,2.2C251.9,165.9,251.9,166.1,251.9,166.3"/>
				<path clip-path="url(#SVGID_12_)" fill="#D01819" d="M237.9,183.7c-0.1,0.2-0.2,0.3-0.2,0.5c0,0.4,0.3,0.5,0.5,0.7
					c0.2,0.2,0.4-0.1,0.5-0.3c0.5-0.6,0.5-1.2,0-1.9c-0.3-0.3-0.5-0.6,0-0.9c0.3-0.3,0.4-0.7,0.3-1.1c-0.1-0.4-0.6-0.5-0.9-0.6
					c-0.2-0.1-0.3,0.1-0.4,0.3c-0.2,0.4-0.4,0.8-0.8,1c0.1,0.4,0.5,0.3,0.7,0.6c-0.1,0.3-0.3,0.1-0.5,0.1c-0.5,0-0.8,0.2-0.9,0.7
					c-0.1,0.4-0.1,0.8,0.3,1.1c0.5,0.4,0.7,0.8,0.2,1.4c-0.1,0.1-0.2,0.5-0.1,0.5c0.6,0.6,0.3,1.5,0.6,2.2c0.1,0.4,0.2,0.6,0,0.9
					c-0.1,0.2-0.3,0.5,0,0.6c0.2,0.1,0.4,0.1,0.6-0.1c0.2-0.2,0.3-0.4,0.1-0.7c-0.2-0.3-0.2-0.5,0-0.8c0.2-0.2,0.1-0.5-0.1-0.8
					c-0.4-0.4-0.4-0.8,0-1.1c0.4-0.4,0.4-0.9-0.1-1.2C237,184.3,237.3,184,237.9,183.7"/>
				<path clip-path="url(#SVGID_12_)" fill="#D01819" d="M253.5,172.8c-0.5-0.1-0.6,0.2-0.5,0.7c0.2,0.6,0.3,1.3,0.5,1.9
					c0.1,0.5,0.4,0.5,0.8,0.5c0.5,0.1,0.9,0.5,1.4,0.3c0.4-0.2,0.4-0.8,0.6-1.2c0.6-1.1,0.5-1.3-0.6-1.7
					C254.9,173.1,254.2,172.8,253.5,172.8"/>
				<path clip-path="url(#SVGID_12_)" fill="#D01819" d="M238.1,190.3c0.2,0,0.4,0,0.6,0c0.4,0,0.6-0.2,0.3-0.5
					c-0.4-0.4-0.1-0.5,0.1-0.7c0.4-0.5,0.5-1,0-1.5c-0.4-0.3-0.2-0.5,0-0.7c0.3-0.3,0.3-0.7,0.1-1.1c-0.4-0.6-0.6-0.6-1,0
					c-0.4,0.6-0.4,0.9-0.1,1.6c0.2,0.5,0.1,1.2,0.1,1.9c0,0.7-0.6,0.6-1.1,0.5c-0.5-0.1-0.6-0.4-0.5-1c0.2-1-0.1-2-0.6-2.8
					c-0.2-0.3-0.5-0.1-0.6,0.2c-0.1,0.3-0.1,0.6,0.1,0.8c0.4,0.4,0.8,0.7,0.3,1.3c-0.1,0.1,0,0.4,0.1,0.5c0.1,0.1,0.2,0.2,0.2,0.3
					C236.7,190.3,236.8,190.4,238.1,190.3"/>
				<path clip-path="url(#SVGID_12_)" fill="#D01819" d="M248.8,178.8c-0.5-0.2-0.9-0.5-1.4-0.2c-0.1,0-0.2,0.1-0.3,0
					c-0.7-0.5-1.4-0.9-2.3-0.3c-0.1,0.1-0.3-0.2-0.4-0.3c-0.2-0.3-0.5-0.5-0.8-0.5c-0.8,0.1-1.6,0.2-2.1-0.6c-0.1-0.1-0.3-0.1-0.4,0
					c-0.1,0.1,0,0.2,0,0.4c0.3,1.3,0.5,1.4,1.5,0.8c0.6-0.3,1-0.2,1.4,0.3c0.3,0.5,0.7,0.6,1.2,0.3c0.4-0.3,0.7-0.1,0.9,0.2
					c0.3,0.4,0.6,0.5,1.1,0.3c0.4-0.3,0.8-0.1,1.1,0.3c0.2,0.2,0.4,0.5,0.8,0.5c0.6-0.1,1.1,0,1.6,0.4c0.5,0.4,0.9-0.2,1.3-0.7
					c-0.8,0.3-1.4-0.2-2-0.6c-0.3-0.2-0.6-0.1-0.9,0.1C248.9,179.3,248.7,179.2,248.8,178.8C248.8,178.7,248.8,178.8,248.8,178.8"/>
				<path clip-path="url(#SVGID_12_)" fill="#D01819" d="M259,174.4c0-0.2,0-0.4-0.1-0.6c-0.3-0.9-0.6-0.9-1.2-0.3
					c-0.6,0.7-1.2,1.5-1.4,2.5c-0.1,0.2-0.3,0.5,0.1,0.7c0.3,0.2,0.7,0.5,1,0.2C258.2,176.3,259,175.6,259,174.4"/>
				<path clip-path="url(#SVGID_12_)" fill="#D01819" d="M236.3,181.7c-1.3,0.2-2-0.5-2.6-1.4c-0.3,1.1,0.1,1.9,1.1,2.6
					c0.4,0.3,0.6,0.4,0.1,0.8c-0.4,0.3-0.4,0.8-0.2,1.2c0.2,0.5,0.7,0.7,1.2,0.9c0.2,0.1,0.7-1.1,0.6-1.4
					C235.7,183.1,235.7,183.1,236.3,181.7"/>
				<path clip-path="url(#SVGID_12_)" fill="#D01819" d="M250.7,182c-0.7,0-1.2-0.2-1.6-0.9c-0.2-0.3-0.5-0.2-0.8-0.1
					c-0.4,0.2-0.7,0.1-1-0.2c-0.3-0.3-0.8-0.3-1-0.2c-0.6,0.4-1,0.1-1.4-0.3c-0.3-0.2-0.6-0.3-0.8-0.1c-0.2,0.2,0.1,0.6,0.3,0.8
					c0.4,0.4,0.9,0.6,1.4,0.2c0.3-0.2,0.5-0.3,0.8,0.1c0.2,0.3,0.6,0.5,0.9,0.3c0.5-0.3,0.7-0.1,1,0.4
					C249,182.9,250,182.9,250.7,182"/>
				<path clip-path="url(#SVGID_12_)" fill="#D01819" d="M243.8,175.4c2.1,1,4.2,0.3,6.2-2.1C247.7,174,246,175.6,243.8,175.4"/>
				<path clip-path="url(#SVGID_12_)" fill="#D01819" d="M245.4,171.7c0.9-0.4,1.2-1.1,0.7-2.1c-0.2-0.3-0.3-0.6-0.4-1
					c-0.1-0.3-0.2-0.6-0.3-1c-0.7,0.5-0.7,1.3-0.5,1.9C245.2,170.2,245.4,170.9,245.4,171.7L245.4,171.7z"/>
				<path clip-path="url(#SVGID_12_)" fill="#D01819" d="M252.5,169.6c0.1,0.8,0.2,1.5,0.3,2.3c0,0.3,0.2,0.4,0.4,0.4
					c0.6,0.1,1.2,0.1,1.9,0.2c-0.8-1-1.6-2-2.5-3C252.6,169.6,252.5,169.6,252.5,169.6"/>
				<path clip-path="url(#SVGID_12_)" fill="#D01819" d="M245.9,180.4c0.6-0.4,1.2-0.3,1.8,0.3c0.3,0.3,0.6-0.1,0.9-0.2
					c0.2-0.1,0.1-0.3,0-0.4c-0.3-0.3-0.6-0.9-1-0.6c-0.6,0.3-1,0.2-1.5-0.3c-0.3-0.3-0.6-0.2-0.9,0c-0.2,0.1-0.4,0.3-0.2,0.5
					C245.1,180.1,245.4,180.4,245.9,180.4"/>
				<path clip-path="url(#SVGID_12_)" fill="#D01819" d="M247,171c0.3-0.4,0.7-0.8,0.6-1.3c0-0.3,0-0.7-0.5-0.7
					c-0.1,0-0.3-0.1-0.3-0.2c0.2-0.7-0.5-1-0.5-1.5c-0.6,0.7-0.5,1.4,0.2,1.7c0.4,0.2,0.2,0.4,0.2,0.6
					C246.6,170.1,246.3,170.7,247,171C247,171,247,171,247,171"/>
				<path clip-path="url(#SVGID_12_)" fill="#D01819" d="M239.4,180.6c0.7,0.3,1.2,0,1.7-0.4c0.3-0.3,0.4-0.4,0.6,0.1
					c0.3,0.7,1,0.7,2.1,0.1c-1.1,0.1-1.6-0.5-1.9-1.3c-0.1-0.3-0.4-0.4-0.6,0C241,180,240.3,180.4,239.4,180.6"/>
				<path clip-path="url(#SVGID_12_)" fill="#D01819" d="M251.7,181.7c0-0.4,0.1-0.7,0.1-1.2c-0.7,0.4-1.1,0.3-1.6-0.2
					c-0.2-0.3-0.3-0.3-1.1,0.2c0.4,0.7,0.7,1.4,1.7,0.7C251.2,180.8,251.3,181.6,251.7,181.7"/>
				<path clip-path="url(#SVGID_12_)" fill="#D01819" d="M243.3,179.9c0.4-0.1,1-0.1,0.9-0.6c0-0.5-0.4-1-1-1
					c-0.4,0-0.9,0.2-0.9,0.7C242.3,179.5,242.8,179.9,243.3,179.9"/>
				<path clip-path="url(#SVGID_12_)" fill="#D01819" d="M248,169.8c0.8-0.9,0.8-1.3,0.2-2c-0.2-0.2-0.4-0.4-0.6-0.7
					c-0.2-0.2-0.4-0.4-0.6-0.2c-0.4,0.3,0,0.5,0.1,0.7C247.5,168.3,248,168.8,248,169.8"/>
				<path clip-path="url(#SVGID_12_)" fill="#D01819" d="M234.6,175.7c0.5,0.8,1.4,1.2,2.2,0.9c0.1,0,0.3-0.1,0.2-0.3
					c0-0.3-0.3-0.3-0.4-0.4c-0.1-0.1-0.3-0.2-0.4,0c-0.3,0.9-0.6,0.1-0.9,0C235.1,175.9,234.9,175.5,234.6,175.7"/>
				<path clip-path="url(#SVGID_12_)" fill="#D01819" d="M237.2,180.5c-1,0.2-1.8,0.5-2.7-0.1C235.2,181.6,236.3,181.6,237.2,180.5"
					/>
				<path clip-path="url(#SVGID_12_)" fill="#D01819" d="M232.9,180c-0.9,0.1-1.7,0.4-2.6-0.1C230.9,180.8,231.8,180.8,232.9,180"/>
				<path clip-path="url(#SVGID_12_)" fill="#D01819" d="M232.6,176.4c0.3-0.1,0.8-0.2,0.9-0.7c0-0.2-0.2-0.2-0.3-0.2
					c-0.4,0.1-0.9,0.2-1.1,0.7C232.1,176.4,232.4,176.4,232.6,176.4"/>
				<path clip-path="url(#SVGID_12_)" fill="#D01819" d="M245.4,171.7L245.4,171.7C245.3,171.7,245.4,171.7,245.4,171.7
					C245.4,171.7,245.4,171.7,245.4,171.7C245.4,171.7,245.4,171.7,245.4,171.7"/>
				<path clip-path="url(#SVGID_12_)" fill="#EDEDED" d="M246.2,172.8c-0.9-0.2-1.4,0.4-1.8,1.1c0.3,0.1,0.4,0,0.5-0.2
					C245.1,173.2,245.9,173.3,246.2,172.8L246.2,172.8z"/>
				<path clip-path="url(#SVGID_12_)" fill="#EDEDED" d="M243.3,173.9c0,0.1,0.1,0.2,0.2,0.1C243.6,173.9,243.4,173.9,243.3,173.9
					C243.3,173.9,243.3,173.9,243.3,173.9"/>
				<path clip-path="url(#SVGID_12_)" fill="#EDEDED" d="M246.2,172.8c0,0,0.1,0,0.1,0c0-0.1,0-0.1,0-0.2c0,0,0,0,0,0
					C246.3,172.7,246.2,172.7,246.2,172.8L246.2,172.8"/>
				<path clip-path="url(#SVGID_12_)" fill="#EDEDED" d="M239.2,179.1c0.4-0.1,0.7-0.3,0.7-0.7c0-0.4-0.2-0.7-0.6-0.7
					c-0.4,0-0.8,0.2-0.8,0.7C238.4,178.8,238.8,179,239.2,179.1"/>
				<path clip-path="url(#SVGID_12_)" fill="#EDEDED" d="M235.9,180.1c0.3-0.1,0.6-0.3,0.6-0.7c0-0.5-0.4-0.6-0.7-0.5
					c-0.3,0.1-0.9,0-0.8,0.6C235,179.9,235.3,180.2,235.9,180.1"/>
				<path clip-path="url(#SVGID_12_)" fill="#EDEDED" d="M231.2,179.4c0.4,0,0.7-0.2,0.7-0.6c0-0.4-0.3-0.7-0.7-0.7
					c-0.4,0-0.7,0.2-0.7,0.7C230.5,179.2,230.8,179.4,231.2,179.4"/>
			</g>
		</g>
	</g>
	<g>
		<g>
			<defs>
				<rect id="SVGID_13_" x="244.7" y="46.7" width="194.9" height="210.4"/>
			</defs>
			<clipPath id="SVGID_14_">
				<use xlink:href="#SVGID_13_"  overflow="visible"/>
			</clipPath>
			<g clip-path="url(#SVGID_14_)">
				<defs>
					<rect id="SVGID_15_" x="244.7" y="46.7" width="194.9" height="210.4"/>
				</defs>
				<clipPath id="SVGID_16_">
					<use xlink:href="#SVGID_15_"  overflow="visible"/>
				</clipPath>
				<path clip-path="url(#SVGID_16_)" fill="#D01819" d="M303.6,179.4c0.1,6.6-0.1,13.2-0.4,19.8c-0.1,1.7,0.4,2.4,2,2.2
					c7-0.5,5.8,1.1,6.4-6.4c0.3-3.7,1-7.3,1.8-10.8c0.8-3.7,1.7-7.3,2.5-10.9c0.5-2.3,1.9-4.2,3.2-6c0.7-1,1.5-1.1,2.6-0.7
					c2.6,0.9,5.2,1.7,7.8,2.6c0.7,0.2,1.3,0.4,1.9-0.3c0.6-0.7,0-1.2-0.3-1.8c-0.1-0.1-0.2-0.3-0.2-0.4c1-2.7-2-4.7-1.1-7.4
					c0.3-0.8-0.5-1.1-0.9-1.6c-1.5-1.4-1.9-3-0.9-4.8c0.6-1.1,0.3-1.6-0.5-2.2c-1.5-1.4-2.6-3.1-2.9-5.3c-0.1-1-0.4-1.2-1.4-0.8
					c-4.8,2.1-8.8-0.3-10-5.7c0-0.2,0-0.5-0.1-0.7c-0.7-0.8,0.5-2.7-1-2.6c-1.6,0.1-3.3-0.1-4.1,2.5c-2.5,8.7-4.7,17.5-4.4,26.8
					C303.7,169.6,303.6,174.5,303.6,179.4"/>
				<path clip-path="url(#SVGID_16_)" fill="#D01819" d="M370.3,178c0.2-6.1,0.5-12.1,0.6-18.2c0.1-2.3,0.6-4.6,0.9-6.9
					c0.3-2.3-0.5-3-2.5-2.4c-2,0.6-4.1,1-5.5-1.4c-0.3-0.6-1-0.6-1.5-0.5c-1.3,0.3-2.3-0.7-3.3-0.7c-2.6-0.1-4.9-0.6-7.4-1.9
					c-1.4-0.7-3.7,0.5-5.2-1.4c0-0.1-0.1-0.1-0.2-0.1c-0.4-0.1-0.7,0.1-0.9,0.4c-1.5,1.7-4.6,0.4-5.5,3.3c-0.3,0.8,0,1.3,0.4,1.8
					c1.1,1.6,1.3,3.3,0.1,5c-0.6,0.9-0.4,1.4,0.2,2.1c1.2,1.2,2,2.6,0.7,4.3c-0.4,0.6-0.3,1.1,0.1,1.6c1,1.4,0.9,2.8,0,4.1
					c-0.5,0.7-0.6,1.4-0.1,2.2c0.5,0.9,1.2,0.8,2,0.8c4.1-0.2,8.2-0.5,12.1-1.8c1.5-0.5,2.1,0.1,2.7,1.5c3.6,8.5,4.3,17.5,4.3,26.6
					c0,4.6,0.1,4.7,4.5,4.5c2.7-0.2,3-0.5,3.1-3.5C370.2,191,369.8,184.5,370.3,178"/>
				<path clip-path="url(#SVGID_16_)" fill="#D01819" d="M360.8,118.8c0.1,1.3-1,1.2-1.6,1.5c-1.8,1-3.3,2.5-5.8,2.6
					c4.2-3.1,1.1-6.5,0.8-9.7c0-0.4-0.5-0.5-0.8-0.3c-0.4,0.2-0.7,0.7-0.4,1.1c0.7,1,0.1,1.6-0.5,2.2c-0.6,0.6-1.4,1.2-0.4,2.2
					c0.1,0.1,0.1,0.6,0,0.8c-0.7,1-1.6,1.8,0.1,2.7c0.5,0.3,0.1,1.4-0.3,1.8c-0.9,0.8-0.6,1.7-0.6,2.7c0.2,0.1,0.6,0.1,0.3,0.5
					c-0.2,0.3-0.4,0-0.5-0.2c-0.2-0.1-0.7-0.3-0.7-0.4c0.3-2.2-0.6-4.3,0-6.4c0.3-0.8,0.2-1.3-0.4-1.7c-0.8-0.6-0.8,0.3-1.1,0.7
					c-2.6,3.8-4.2,8.4-7.8,11.4c-0.6,0.5-0.4,1,0.1,1.4c0.3,0.3,0.7,0.5,1.1,0.6c2.3,0.6,4.7,1,6.5,3c0.4,0.4,1.3,0.2,2,0.2
					c1.3,0,2.5,0,3.5,1.1c0.2,0.3,0.6,0.6,0.9,0.4c2-1.3,3.7-0.4,5.3,0.8c1.1,0.8,2.5-0.6,3.7,0.4c0.5,0.4,1.3,0.5,1.1,1.5l0-0.1
					c2.1-0.4,4.2-0.8,6,1.1c1,1,2.9,0,3.3-1.6c0.6-2.1,0.9-4.2,1.9-6.2c0.4-0.8,0.1-1.6-0.1-2.4c-0.2-1.2-0.5-2.3-0.9-3.5
					c-0.4-1.1,0-2.8-1.2-3.2c-1.6-0.5-3.3,0-4.7,1.2c-0.8,0.7-1.5,1.5-2.2,2.4c-4.1,5.3-11.3,7-17,4c-0.8-0.4-1.4-0.9-1.7-1.8
					c0.1-0.5,0.5-0.4,0.8-0.4c5,0.6,9.5-0.8,13.9-3.4c2.8-1.7,6-3.1,9.4-3.1c1.6,0,2.1-0.7,1.8-2.4c-0.7-4.2-0.7-8.5-1.8-12.7
					c-0.4-1.6-1-1.9-2.2-1.3c-0.5,0.3-1,0.4-1.6,0.4c-1,0-1.6,1.3-1.4,1.6c1,1.5,0.7,3.6,1.5,5c1.5,2.5,0.9,5.3-1.8,5.6
					c-1.9,0.2-2.8,1.1-3.5,2.8c-0.5,1.2-1.4,1.9-2.5,1.3c-1-0.5-1.4,0.9-2.3,0.4c0,0.2,0,0.4-0.1,0.5c-0.1,0-0.2-0.1-0.3-0.1
					c-0.8,1.4-2.8,1-3.5,2.7c-0.2,0.4-0.6,0.8-1.3,0.4c1.1-2,2.3-3.6,4.8-3.1c0-0.3,0.1-0.5,0.4-0.5c0.4-1.1,0.8-2.1,2.2-1.4
					c1,0.5,1.6-0.2,1.9-1.1c0.6-1.9,1.6-3,3.6-2.7c1.2,0.2,1.9-0.8,2.3-1.9c0.4-1-0.1-1.7-1-2.1c-0.1-0.1-0.3-0.2-0.3-0.2
					c0.7-2.3-1.8-4.1-0.9-6.5c-1.3-0.5-2.5,0.4-3.8,0.4c-0.1,0.8,0.4,1.1,0.8,1.4c2.7,2.3,2.9,3.2,1,6.2
					C363.9,116.9,362.8,118.5,360.8,118.8L360.8,118.8z"/>
				<path clip-path="url(#SVGID_16_)" fill="#D01819" d="M343.5,139.2c0.7,2.2-1.3,2.5-1.7,3.7c1.6,0.2,3.2-1.1,3.5-3.1
					c0.3-1.6,0.3-3.6-1.4-3.9c-1.9-0.4-2.8-1.8-3.7-3.1c-0.7-1.1-1.5-1.4-2.7-1c-0.7,0.2-1.6,0.3-0.5,1.3c0.7,0.6,0.2,0.9-0.3,1
					c-2.1,0.6-4.2,1.1-6.5,0.8c-1.2-0.1-2.3-0.1-3.5-0.7c-1.1-0.5-1.1,1.8-2.3,1.9c-0.3-0.7,0.8-1.1,0.4-2.1
					c-2.8,0.4-5.8,1.1-8.6-0.9c0.7-0.5,1.3-0.9,1.8-1.4c-2.3-0.5-4.3-0.2-6.3,0.9c-0.2,0.1-0.5,0.4-0.5,0.7
					c-0.1,0.5,0.4,0.7,0.7,0.6c1.6-0.3,1.5,0.9,1.9,2c0.9,2.6,2.3,4.9,4.7,5.9c2.4,1,4,0.2,5.8-2.4c0.7-1.1,1.4-1.9,1.9,0.1
					c0.1,0.4,0.4,0.8,0.6,1.2c1.1,2,2.4,3.7,4.9,3.5c2.5-0.3,3.5-2.3,4.4-4.5C340.2,142.6,341.8,142.2,343.5,139.2 M340.4,140.4
					c-1.1-0.1-1.9-0.6-2-1.8c0-1.4,1-1.9,2.1-2c1.2-0.1,1.6,0.9,1.7,1.8C342.3,139.7,341.5,140.2,340.4,140.4 M331.7,143.1
					c-1.6,0.2-2.4-0.6-2.5-1.8c-0.2-1.5,1.3-1.4,2.1-1.6c0.8-0.2,1.8,0.2,1.9,1.4C333.3,142.5,332.5,143,331.7,143.1 M319.6,141.4
					c-1-0.1-1.7-0.7-1.7-1.8c0.1-1.1,0.8-1.8,1.8-1.8c1,0,1.7,0.8,1.7,1.9C321.5,140.9,320.6,141.3,319.6,141.4"/>
				<path clip-path="url(#SVGID_16_)" fill="#D01819" d="M373.5,106.2c1,2.5,0.7,5.3,2.5,7.5c3.1,4,6.1,8,9.7,11.4
					c1.1,1,1.7,0.6,2.3-0.3c0.6-0.9,2.2-1.4,0.9-3c-1.4-1.7-2.4-3.8-3.9-5.2c-3.9-3.4-4.2-7.6-3.1-12.3c0.3-1.2,0.6-2.3,0.8-3.5
					c0.2-1.4-0.8-2.3-1.8-1.6c-2.6,1.7-4.4,4.3-7,6C373.7,105.3,373.6,105.8,373.5,106.2"/>
				<path clip-path="url(#SVGID_16_)" fill="#D01819" d="M337,152.8c-0.2,0.4-0.6,0.9-0.6,1.4c-0.1,0.9,0.7,1.4,1.3,1.8
					c0.6,0.4,1-0.3,1.3-0.7c1.3-1.5,1.4-3.2,0-5c-0.7-0.9-1.2-1.6,0-2.5c0.8-0.7,1-1.8,0.7-2.9c-0.4-1.1-1.5-1.2-2.3-1.7
					c-0.6-0.4-0.7,0.3-1,0.8c-0.6,1-1.1,2.1-2.1,2.7c0.3,1.1,1.4,0.7,1.7,1.5c-0.2,0.8-0.8,0.4-1.2,0.3c-1.3-0.1-2,0.6-2.4,1.7
					c-0.4,1.1-0.3,2.2,0.7,3c1.3,1.1,1.8,2.2,0.5,3.7c-0.3,0.3-0.5,1.2-0.4,1.4c1.5,1.7,0.8,4,1.6,5.8c0.4,0.9,0.5,1.6,0,2.5
					c-0.3,0.6-0.8,1.2,0,1.7c0.5,0.3,1.1,0.2,1.6-0.2c0.6-0.5,0.7-1.2,0.2-1.8c-0.6-0.8-0.6-1.4,0-2.1c0.5-0.7,0.3-1.4-0.2-2
					c-1-1-0.9-2,0-3.1c1.1-1.1,0.9-2.3-0.2-3.3C334.7,154.5,335.5,153.5,337,152.8"/>
				<path clip-path="url(#SVGID_16_)" fill="#D01819" d="M377.6,123.5c-1.4-0.2-1.6,0.5-1.2,1.9c0.5,1.7,0.9,3.5,1.3,5.2
					c0.3,1.3,1.1,1.3,2,1.4c1.2,0.1,2.5,1.3,3.6,0.8c1.1-0.5,0.9-2.2,1.5-3.3c1.5-3,1.3-3.4-1.6-4.4
					C381.4,124.5,379.7,123.5,377.6,123.5"/>
				<path clip-path="url(#SVGID_16_)" fill="#D01819" d="M337.6,170.4c0.6,0,1.1,0,1.7,0c1,0,1.6-0.4,0.7-1.4
					c-0.9-1-0.2-1.4,0.3-1.9c1.1-1.3,1.3-2.7-0.1-3.9c-0.9-0.8-0.6-1.3,0.1-1.9c0.8-0.9,0.8-1.8,0.2-2.8c-1.1-1.7-1.4-1.5-2.5,0.1
					c-1,1.5-1.1,2.5-0.3,4.3c0.6,1.3,0.2,3.3,0.2,5c0,1.8-1.7,1.7-2.9,1.4c-1.2-0.3-1.5-1.1-1.2-2.6c0.6-2.7-0.1-5.2-1.5-7.5
					c-0.5-0.9-1.3-0.3-1.5,0.5c-0.2,0.7-0.4,1.5,0.2,2.1c1.1,1,2.1,2,0.7,3.6c-0.3,0.4,0,1,0.3,1.5c0.2,0.3,0.5,0.6,0.6,0.9
					C333.8,170.6,334.2,170.8,337.6,170.4"/>
				<path clip-path="url(#SVGID_16_)" fill="#D01819" d="M365.4,139.6c-1.2-0.5-2.3-1.4-3.7-0.6c-0.2,0.1-0.6,0.1-0.8,0
					c-1.9-1.3-3.7-2.3-5.9-0.8c-0.3,0.2-0.7-0.4-0.9-0.8c-0.6-0.7-1.3-1.3-2.1-1.3c-2,0.2-4.1,0.6-5.5-1.7c-0.2-0.3-0.7-0.2-1,0
					c-0.4,0.3,0,0.7,0.1,1c0.8,3.5,1.2,3.8,4,2.2c1.5-0.8,2.7-0.4,3.7,0.9c0.9,1.3,1.9,1.7,3.2,0.8c0.9-0.7,1.7-0.3,2.4,0.6
					c0.8,1.1,1.7,1.4,2.9,0.7c1.1-0.7,2.1-0.3,3,0.7c0.6,0.6,1.1,1.4,2.1,1.2c1.6-0.3,2.8-0.1,4.3,1.1c1.2,1,2.4-0.6,3.4-1.9
					c-2.2,0.7-3.7-0.6-5.3-1.6c-0.8-0.5-1.6-0.1-2.4,0.2C365.8,141,365.3,140.6,365.4,139.6C365.4,139.5,365.4,139.6,365.4,139.6"/>
				<path clip-path="url(#SVGID_16_)" fill="#D01819" d="M392.2,127.9c-0.1-0.5-0.1-1.2-0.3-1.7c-0.7-2.3-1.7-2.5-3.2-0.7
					c-1.7,2-3.1,4.1-3.7,6.7c-0.2,0.7-0.7,1.5,0.2,2c0.8,0.5,1.7,1.4,2.7,0.6C390,133,392,131.1,392.2,127.9"/>
				<path clip-path="url(#SVGID_16_)" fill="#D01819" d="M332.9,147.4c-3.3,0.5-5.2-1.3-6.9-3.8c-0.7,2.8,0.3,5.2,3,7
					c1,0.7,1.7,1,0.3,2.1c-1,0.8-1,2.1-0.5,3.3c0.6,1.4,1.9,1.9,3.1,2.4c0.5,0.2,1.8-3.1,1.4-3.7
					C331.3,151.3,331.3,151.3,332.9,147.4"/>
				<path clip-path="url(#SVGID_16_)" fill="#D01819" d="M370.5,148.2c-1.8-0.1-3.2-0.6-4.1-2.4c-0.4-0.8-1.4-0.6-2.1-0.3
					c-1,0.5-1.9,0.3-2.6-0.5c-0.8-0.9-2-0.9-2.7-0.5c-1.6,1.1-2.7,0.3-3.8-0.7c-0.7-0.6-1.6-0.8-2-0.2c-0.5,0.6,0.2,1.6,0.7,2.1
					c1.1,1,2.4,1.6,3.8,0.6c0.8-0.6,1.4-0.7,2.1,0.3c0.5,0.9,1.6,1.2,2.4,0.7c1.3-0.8,1.8-0.1,2.5,0.9
					C366,150.6,368.7,150.6,370.5,148.2"/>
				<path clip-path="url(#SVGID_16_)" fill="#D01819" d="M352.3,130.5c5.6,2.6,11,0.7,16.1-5.6C362.7,126.9,358.1,131,352.3,130.5"
					/>
				<path clip-path="url(#SVGID_16_)" fill="#D01819" d="M356.6,120.6c2.5-1,3.1-3,1.9-5.5c-0.4-0.9-0.8-1.7-1.2-2.6
					c-0.3-0.8-0.4-1.7-0.7-2.7c-1.9,1.4-1.8,3.4-1.2,5C356.1,116.7,356.5,118.6,356.6,120.6L356.6,120.6z"/>
				<path clip-path="url(#SVGID_16_)" fill="#D01819" d="M375.1,115.1c0.3,2.1,0.6,4.1,0.9,6.2c0.1,0.7,0.4,1,1.1,1.1
					c1.6,0.2,3.1,0.3,4.9,0.5c-2.1-2.7-4.3-5.3-6.4-8C375.3,114.9,375.2,115,375.1,115.1"/>
				<path clip-path="url(#SVGID_16_)" fill="#D01819" d="M358,143.9c1.5-1,3.2-0.7,4.8,0.7c0.8,0.7,1.5-0.2,2.2-0.5
					c0.5-0.2,0.3-0.8,0-1.1c-0.8-0.8-1.4-2.3-2.7-1.6c-1.6,0.9-2.7,0.6-3.8-0.7c-0.8-0.9-1.6-0.6-2.4,0.1c-0.4,0.4-0.9,0.7-0.6,1.4
					C355.9,143.3,356.6,144,358,143.9"/>
				<path clip-path="url(#SVGID_16_)" fill="#D01819" d="M360.7,118.9c0.7-1.1,1.7-2.1,1.6-3.6c-0.1-0.9,0.1-1.9-1.2-1.8
					c-0.4,0-0.9-0.2-0.7-0.6c0.6-1.9-1.2-2.6-1.4-4.1c-1.5,1.9-1.3,3.8,0.5,4.5c1.1,0.4,0.6,1,0.5,1.7
					C359.8,116.3,358.8,117.9,360.7,118.9C360.8,118.8,360.7,118.9,360.7,118.9"/>
				<path clip-path="url(#SVGID_16_)" fill="#D01819" d="M341,144.6c1.8,0.7,3.2,0,4.4-1.2c0.8-0.8,1-1.2,1.7,0.2
					c0.9,1.8,2.5,1.9,5.4,0.2c-2.9,0.2-4.1-1.5-5-3.6c-0.4-0.9-1.2-1.1-1.5-0.1C345.2,142.8,343.4,143.9,341,144.6"/>
				<path clip-path="url(#SVGID_16_)" fill="#D01819" d="M373.2,147.5c0.1-1,0.2-2,0.3-3.2c-1.7,1-3,0.8-4.1-0.6
					c-0.6-0.8-0.8-0.7-2.9,0.5c1,1.9,1.8,3.7,4.4,1.8C371.9,145,371.9,147.3,373.2,147.5"/>
				<path clip-path="url(#SVGID_16_)" fill="#D01819" d="M351.2,142.6c0.9-0.3,2.5-0.4,2.4-1.5c-0.1-1.2-1.1-2.7-2.6-2.7
					c-1.1,0-2.5,0.7-2.5,1.9C348.5,141.7,349.7,142.5,351.2,142.6"/>
				<path clip-path="url(#SVGID_16_)" fill="#D01819" d="M363.4,115.7c2-2.4,2-3.6,0.4-5.3c-0.5-0.6-1.1-1.1-1.6-1.7
					c-0.5-0.6-1-1-1.6-0.5c-1,0.7-0.1,1.4,0.2,1.9C362,111.6,363.5,113,363.4,115.7"/>
				<path clip-path="url(#SVGID_16_)" fill="#D01819" d="M328.4,131.5c1.3,2.3,3.8,3.3,5.8,2.5c0.3-0.1,0.7-0.3,0.6-0.8
					c-0.1-0.7-0.7-0.8-1.1-1.2c-0.3-0.3-0.9-0.5-1,0.1c-0.7,2.4-1.7,0.3-2.4,0.1C329.7,132,329.3,130.8,328.4,131.5"/>
				<path clip-path="url(#SVGID_16_)" fill="#D01819" d="M335.2,144.2c-2.5,0.6-4.6,1.4-7.1-0.4C330,147.1,332.8,147.2,335.2,144.2"
					/>
				<path clip-path="url(#SVGID_16_)" fill="#D01819" d="M323.9,142.9c-2.4,0.1-4.4,0.9-6.8-0.2C318.9,145,321.2,145.1,323.9,142.9"
					/>
				<path clip-path="url(#SVGID_16_)" fill="#D01819" d="M323.3,133.3c0.9-0.4,2.1-0.4,2.4-1.9c0.1-0.4-0.5-0.5-0.8-0.4
					c-1.1,0.4-2.3,0.6-2.8,1.8C321.9,133.3,322.7,133.3,323.3,133.3"/>
				<path clip-path="url(#SVGID_16_)" fill="#D01819" d="M356.7,120.6l-0.3,0c0,0,0.1,0.1,0.1,0.1
					C356.6,120.7,356.6,120.6,356.7,120.6C356.6,120.6,356.7,120.6,356.7,120.6"/>
				<path clip-path="url(#SVGID_16_)" fill="#EDEDED" d="M358.7,123.7c-2.5-0.6-3.7,1.1-4.8,3.1c0.7,0.4,1.1-0.1,1.3-0.4
					C355.9,124.7,357.9,125.1,358.7,123.7L358.7,123.7z"/>
				<path clip-path="url(#SVGID_16_)" fill="#EDEDED" d="M351,126.6c0.1,0.2,0.3,0.5,0.5,0.2c0.3-0.3-0.1-0.4-0.3-0.5
					C351.2,126.4,351.1,126.5,351,126.6"/>
				<path clip-path="url(#SVGID_16_)" fill="#EDEDED" d="M358.7,123.7c0.1,0,0.2,0.1,0.3,0.1c0-0.2,0-0.4,0.1-0.5c0,0,0,0,0,0
					C358.9,123.3,358.7,123.4,358.7,123.7L358.7,123.7"/>
				<path clip-path="url(#SVGID_16_)" fill="#EDEDED" d="M340.4,140.4c1.1-0.2,1.9-0.7,1.8-2c-0.1-0.9-0.5-1.9-1.7-1.8
					c-1.1,0.1-2.1,0.6-2.1,2C338.4,139.8,339.3,140.3,340.4,140.4"/>
				<path clip-path="url(#SVGID_16_)" fill="#EDEDED" d="M331.7,143.1c0.8-0.1,1.5-0.7,1.5-2c-0.1-1.3-1.1-1.6-1.9-1.4
					c-0.8,0.2-2.2,0-2.1,1.6C329.4,142.6,330.2,143.3,331.7,143.1"/>
				<path clip-path="url(#SVGID_16_)" fill="#EDEDED" d="M319.6,141.4c1-0.1,1.9-0.5,1.9-1.7c0-1.1-0.7-1.9-1.7-1.9
					c-1,0-1.8,0.6-1.8,1.8C317.8,140.7,318.6,141.3,319.6,141.4"/>
			</g>
		</g>
	</g>
	<g>
		<g>
			<defs>
				<rect id="SVGID_17_" x="332.8" y="-58" width="327.1" height="353.1"/>
			</defs>
			<clipPath id="SVGID_18_">
				<use xlink:href="#SVGID_17_"  overflow="visible"/>
			</clipPath>
			<g clip-path="url(#SVGID_18_)">
				<defs>
					<rect id="SVGID_19_" x="332.8" y="-58" width="327.1" height="353.1"/>
				</defs>
				<clipPath id="SVGID_20_">
					<use xlink:href="#SVGID_19_"  overflow="visible"/>
				</clipPath>
				<path clip-path="url(#SVGID_20_)" fill="#D01819" d="M431.6,164.8c0.1,11.1-0.2,22.2-0.6,33.3c-0.1,2.8,0.7,4,3.3,3.8
					c11.8-0.9,9.7,1.9,10.8-10.8c0.5-6.2,1.7-12.2,3-18.2c1.3-6.1,2.8-12.2,4.2-18.3c0.9-3.9,3.1-7,5.3-10.1
					c1.1-1.6,2.6-1.8,4.3-1.2c4.3,1.6,8.7,2.9,13,4.4c1.2,0.4,2.3,0.7,3.2-0.5c0.9-1.2,0-2.1-0.4-3c-0.1-0.2-0.4-0.5-0.3-0.6
					c1.6-4.5-3.4-7.8-1.8-12.4c0.5-1.4-0.8-1.9-1.6-2.6c-2.5-2.3-3.2-5.1-1.6-8.1c1-1.8,0.4-2.7-0.8-3.7c-2.6-2.3-4.4-5.2-4.9-8.9
					c-0.2-1.7-0.7-2.1-2.3-1.4c-8,3.5-14.8-0.5-16.8-9.6c-0.1-0.4,0-0.9-0.2-1.1c-1.1-1.3,0.9-4.5-1.7-4.4c-2.6,0.1-5.6-0.1-6.8,4.2
					c-4.3,14.7-8,29.3-7.5,44.9C431.9,148.4,431.6,156.6,431.6,164.8"/>
				<path clip-path="url(#SVGID_20_)" fill="#D01819" d="M543.7,162.3c0.4-10.2,0.8-20.4,1.1-30.6c0.1-3.9,1.1-7.7,1.5-11.6
					c0.5-3.9-0.8-5-4.2-4c-3.4,1.1-6.9,1.7-9.2-2.4c-0.6-1-1.6-1.1-2.5-0.8c-2.1,0.5-3.9-1.1-5.6-1.2c-4.4-0.2-8.3-1-12.5-3.1
					c-2.3-1.2-6.2,0.9-8.8-2.3c-0.1-0.1-0.2-0.1-0.3-0.2c-0.7-0.3-1.2,0.2-1.5,0.6c-2.5,2.9-7.7,0.6-9.3,5.6
					c-0.4,1.4,0.1,2.2,0.6,3.1c1.9,2.8,2.1,5.6,0.2,8.4c-1,1.4-0.7,2.4,0.4,3.5c2,2,3.4,4.3,1.2,7.2c-0.7,0.9-0.5,1.9,0.1,2.8
					c1.6,2.3,1.6,4.7-0.1,6.9c-0.9,1.2-1,2.3-0.2,3.7c0.9,1.4,2,1.4,3.3,1.4c6.9-0.3,13.8-0.8,20.4-3c2.5-0.8,3.5,0.2,4.5,2.5
					c6,14.2,7.3,29.3,7.3,44.6c0,7.8,0.2,8,7.5,7.6c4.6-0.3,5-0.8,5.2-5.8C543.5,184.2,542.8,173.2,543.7,162.3"/>
				<path clip-path="url(#SVGID_20_)" fill="#D01819" d="M527.7,63.1c0.2,2.2-1.8,2-2.8,2.6c-2.9,1.7-5.6,4.2-9.8,4.4
					c7.1-5.1,1.8-10.9,1.4-16.3c-0.1-0.7-0.8-0.9-1.4-0.6c-0.7,0.4-1.2,1.1-0.7,1.8c1.2,1.7,0.2,2.7-0.8,3.7c-1,1-2.3,2-0.6,3.6
					c0.2,0.2,0.2,1.1-0.1,1.4c-1.2,1.6-2.6,3,0.2,4.6c0.9,0.5,0.2,2.4-0.5,3c-1.5,1.3-0.9,2.9-1,4.5c0.3,0.2,1,0.2,0.5,0.8
					c-0.4,0.5-0.7,0-0.9-0.4c-0.4-0.2-1.1-0.5-1.1-0.6c0.6-3.6-1.1-7.3,0-10.8c0.5-1.4,0.3-2.2-0.6-2.8c-1.3-1-1.4,0.5-1.9,1.2
					c-4.4,6.4-7,14.2-13.1,19.2c-1.1,0.9-0.7,1.7,0.2,2.4c0.6,0.4,1.2,0.8,1.9,1c3.9,1,7.9,1.7,10.9,5c0.6,0.7,2.2,0.3,3.4,0.3
					c2.1,0,4.2-0.1,5.8,1.8c0.4,0.5,1,0.9,1.5,0.6c3.4-2.1,6.2-0.6,9,1.4c1.9,1.4,4.1-1,6.2,0.7c0.9,0.7,2.2,0.8,1.9,2.5l-0.1-0.1
					c3.5-0.6,7-1.4,10.1,1.8c1.7,1.7,4.8,0,5.6-2.6c1-3.5,1.6-7.1,3.3-10.3c0.7-1.4,0.1-2.7-0.2-4c-0.4-2-0.8-3.9-1.5-5.8
					c-0.6-1.8,0-4.7-2-5.3c-2.7-0.8-5.6,0.1-7.9,2c-1.4,1.1-2.5,2.6-3.7,4c-6.9,8.9-18.9,11.7-28.6,6.7c-1.3-0.7-2.4-1.6-2.9-3
					c0.2-0.9,0.9-0.7,1.4-0.6c8.4,0.9,15.9-1.4,23.3-5.7c4.8-2.8,10-5.1,15.7-5.2c2.7,0,3.5-1.2,3-4c-1.2-7.1-1.3-14.3-3.1-21.4
					c-0.7-2.7-1.7-3.2-3.7-2.2c-0.9,0.4-1.7,0.6-2.7,0.7c-1.7,0-2.6,2.2-2.4,2.7c1.7,2.6,1.1,6,2.5,8.3c2.5,4.2,1.5,8.9-3,9.4
					c-3.2,0.3-4.8,1.8-5.9,4.6c-0.8,1.9-2.3,3.1-4.2,2.1c-1.6-0.8-2.4,1.5-3.8,0.7c0,0.3-0.1,0.6-0.1,0.9c-0.2,0-0.4-0.1-0.6-0.2
					c-1.4,2.4-4.6,1.7-5.8,4.5c-0.3,0.6-1,1.4-2.2,0.8c1.9-3.4,3.9-6.1,8.1-5.1c0-0.5,0.2-0.8,0.7-0.8c0.6-1.9,1.3-3.5,3.7-2.3
					c1.7,0.9,2.7-0.4,3.2-1.9c1-3.2,2.6-5.1,6.1-4.6c2,0.3,3.2-1.4,3.8-3.2c0.7-1.7-0.2-2.9-1.7-3.6c-0.2-0.1-0.6-0.3-0.6-0.4
					c1.3-3.9-2.9-6.9-1.6-11c-2.2-0.8-4.2,0.6-6.4,0.7c-0.2,1.3,0.7,1.8,1.4,2.4c4.6,3.8,4.9,5.3,1.7,10.4
					C533,59.8,531,62.6,527.7,63.1L527.7,63.1z"/>
				<path clip-path="url(#SVGID_20_)" fill="#D01819" d="M498.6,97.2c1.2,3.7-2.2,4.1-2.9,6.2c2.8,0.4,5.3-1.8,5.9-5.1
					c0.5-2.7,0.5-6-2.4-6.6c-3.2-0.6-4.7-3-6.2-5.3c-1.3-1.9-2.5-2.3-4.4-1.6c-1.2,0.4-2.7,0.5-0.8,2.2c1.2,1,0.3,1.5-0.6,1.7
					c-3.6,1-7,1.8-10.9,1.3c-2.1-0.2-3.8-0.2-5.8-1.2c-1.8-0.9-1.8,3-3.9,3.2c-0.5-1.2,1.4-1.9,0.7-3.5c-4.7,0.7-9.7,1.8-14.4-1.6
					c1.1-0.8,2.1-1.6,3.1-2.3c-3.8-0.8-7.3-0.3-10.6,1.6c-0.4,0.2-0.8,0.7-0.8,1.1c-0.1,0.8,0.7,1.1,1.2,1c2.6-0.5,2.6,1.6,3.1,3.3
					c1.5,4.4,3.8,8.2,7.9,9.9c3.9,1.7,6.8,0.4,9.8-4c1.3-1.8,2.3-3.2,3.3,0.2c0.2,0.7,0.7,1.3,1,2c1.9,3.3,4.1,6.3,8.2,5.8
					c4.2-0.5,5.9-3.9,7.4-7.5C493.1,102.9,495.9,102.3,498.6,97.2 M493.4,99.2c-1.9-0.1-3.3-1-3.3-3.1c0-2.4,1.6-3.1,3.5-3.3
					c2-0.2,2.6,1.5,2.8,3.1C496.7,98.1,495.2,98.9,493.4,99.2 M478.9,103.9c-2.7,0.3-4-1-4.2-3c-0.3-2.6,2.2-2.3,3.5-2.7
					c1.3-0.4,3,0.3,3.2,2.4C481.5,102.8,480.2,103.6,478.9,103.9 M458.5,100.9c-1.7-0.2-2.9-1.1-2.8-3.1c0.1-1.9,1.4-3,3.1-3
					c1.7,0,2.8,1.4,2.9,3.2C461.7,100.1,460.2,100.8,458.5,100.9"/>
				<path clip-path="url(#SVGID_20_)" fill="#D01819" d="M549.1,41.8c1.6,4.1,1.2,8.8,4.1,12.6c5.1,6.7,10.2,13.4,16.2,19.1
					c1.8,1.7,2.8,1.1,3.9-0.5c1.1-1.5,3.7-2.3,1.5-5.1c-2.3-2.9-3.9-6.4-6.6-8.7c-6.6-5.7-7-12.8-5.1-20.7c0.5-1.9,1-3.9,1.3-5.9
					c0.4-2.4-1.3-3.9-3.1-2.7c-4.3,2.8-7.4,7.3-11.7,10.1C549.3,40.4,549.3,41.2,549.1,41.8"/>
				<path clip-path="url(#SVGID_20_)" fill="#D01819" d="M487.8,120.1c-0.3,0.8-0.9,1.5-1,2.3c-0.1,1.6,1.2,2.4,2.2,3.1
					c1.1,0.8,1.6-0.6,2.2-1.2c2.2-2.5,2.3-5.3,0-8.5c-1.1-1.5-2-2.6-0.1-4.2c1.4-1.1,1.8-3,1.1-4.8c-0.6-1.8-2.5-2.1-3.8-2.9
					c-1-0.6-1.2,0.6-1.7,1.3c-1,1.7-1.9,3.5-3.5,4.5c0.5,1.8,2.4,1.2,2.9,2.6c-0.3,1.4-1.4,0.6-2,0.6c-2.1-0.1-3.4,1-4,2.9
					c-0.6,1.9-0.6,3.7,1.1,5.1c2.2,1.8,3,3.7,0.9,6.3c-0.5,0.6-0.9,2.1-0.6,2.4c2.5,2.8,1.4,6.7,2.6,9.7c0.7,1.6,0.9,2.7,0,4.1
					c-0.6,0.9-1.3,2,0,2.9c0.9,0.6,1.9,0.4,2.6-0.3c1-0.8,1.2-2,0.4-3c-1.1-1.3-1-2.3,0-3.6c0.8-1.1,0.6-2.4-0.4-3.4
					c-1.8-1.8-1.6-3.4,0-5.2c1.8-1.9,1.6-3.9-0.3-5.5C483.8,122.9,485.3,121.3,487.8,120.1"/>
				<path clip-path="url(#SVGID_20_)" fill="#D01819" d="M556,71c-2.3-0.4-2.6,0.9-2,3.1c0.8,2.9,1.5,5.8,2.1,8.7
					c0.4,2.1,1.9,2.3,3.4,2.4c2.1,0.2,4.1,2.1,6,1.3c1.8-0.8,1.5-3.7,2.5-5.6c2.5-5,2.2-5.7-2.8-7.4C562.3,72.5,559.4,70.9,556,71"
					/>
				<path clip-path="url(#SVGID_20_)" fill="#D01819" d="M488.7,149.7c0.9,0,1.9,0,2.8,0c1.7,0,2.8-0.7,1.3-2.3
					c-1.5-1.7-0.3-2.3,0.5-3.3c1.9-2.2,2.2-4.6-0.1-6.5c-1.5-1.3-0.9-2.1,0.1-3.2c1.4-1.4,1.4-3,0.3-4.7c-1.8-2.8-2.4-2.5-4.2,0.2
					c-1.7,2.6-1.8,4.2-0.4,7.2c1,2.2,0.4,5.6,0.3,8.4c0,3-2.8,2.9-4.9,2.4c-2-0.5-2.6-1.9-2-4.3c1.1-4.5-0.2-8.8-2.4-12.6
					c-0.8-1.4-2.1-0.6-2.6,0.8c-0.4,1.1-0.6,2.6,0.4,3.5c1.8,1.7,3.5,3.3,1.1,6c-0.6,0.7,0,1.7,0.5,2.4c0.3,0.5,0.8,1,1,1.5
					C482.4,150,483,150.3,488.7,149.7"/>
				<path clip-path="url(#SVGID_20_)" fill="#D01819" d="M535.5,97.9c-2-0.8-3.9-2.3-6.2-0.9c-0.4,0.2-1,0.2-1.4,0
					c-3.1-2.2-6.2-3.8-9.9-1.3c-0.6,0.4-1.1-0.7-1.6-1.3c-0.9-1.2-2.1-2.2-3.6-2.1c-3.4,0.3-6.9,1-9.2-2.8c-0.3-0.5-1.1-0.4-1.6,0
					c-0.6,0.6,0.1,1.1,0.2,1.6c1.3,5.9,2,6.3,6.6,3.8c2.5-1.3,4.6-0.7,6.2,1.5c1.5,2.1,3.1,2.9,5.4,1.3c1.6-1.1,2.9-0.5,4,0.9
					c1.3,1.8,2.8,2.4,4.8,1.1c1.9-1.2,3.6-0.4,5,1.2c1,1.1,1.8,2.4,3.5,2.1c2.7-0.5,4.8-0.1,7.1,1.9c2,1.7,4-1,5.7-3.1
					c-3.6,1.2-6.2-0.9-8.8-2.7c-1.3-0.9-2.7-0.2-4,0.4C536,100.4,535.3,99.7,535.5,97.9C535.4,97.8,535.5,97.9,535.5,97.9"/>
				<path clip-path="url(#SVGID_20_)" fill="#D01819" d="M580.4,78.3c-0.1-0.9-0.2-1.9-0.5-2.9c-1.2-3.8-2.8-4.2-5.3-1.3
					c-2.8,3.3-5.1,6.9-6.3,11.2c-0.3,1.1-1.2,2.4,0.3,3.3c1.4,0.8,2.9,2.4,4.5,1.1C576.7,86.9,580.1,83.8,580.4,78.3"/>
				<path clip-path="url(#SVGID_20_)" fill="#D01819" d="M480.8,111c-5.5,0.8-8.8-2.1-11.5-6.4c-1.1,4.8,0.5,8.7,5,11.7
					c1.7,1.2,2.8,1.7,0.5,3.5c-1.7,1.3-1.7,3.5-0.8,5.5c1,2.3,3.2,3.2,5.2,4.1c0.9,0.4,3-5.1,2.4-6.1
					C478.1,117.6,478.1,117.6,480.8,111"/>
				<path clip-path="url(#SVGID_20_)" fill="#D01819" d="M543.9,112.3c-3-0.1-5.4-1-6.9-4c-0.7-1.4-2.3-1-3.5-0.4
					c-1.7,0.8-3.2,0.5-4.4-0.9c-1.4-1.5-3.4-1.6-4.5-0.8c-2.7,1.9-4.5,0.5-6.3-1.2c-1.1-1.1-2.7-1.4-3.4-0.4
					c-0.8,1.1,0.4,2.7,1.2,3.5c1.8,1.6,4,2.7,6.3,1.1c1.4-1,2.4-1.2,3.5,0.6c0.9,1.4,2.6,2.1,4,1.2c2.2-1.3,3.1-0.2,4.3,1.6
					C536.5,116.4,540.9,116.3,543.9,112.3"/>
				<path clip-path="url(#SVGID_20_)" fill="#D01819" d="M513.4,82.7c9.4,4.3,18.4,1.2,27-9.4C530.8,76.6,523.3,83.5,513.4,82.7"/>
				<path clip-path="url(#SVGID_20_)" fill="#D01819" d="M520.7,66c4.1-1.7,5.2-5,3.2-9.3c-0.7-1.4-1.4-2.9-2-4.4
					c-0.5-1.3-0.7-2.8-1.1-4.5c-3.1,2.3-3,5.7-2.1,8.4C519.9,59.6,520.5,62.8,520.7,66L520.7,66z"/>
				<path clip-path="url(#SVGID_20_)" fill="#D01819" d="M551.6,56.8c0.5,3.5,1,6.9,1.4,10.4c0.2,1.2,0.7,1.7,1.8,1.9
					c2.6,0.3,5.3,0.6,8.2,0.9c-3.6-4.5-7.2-8.9-10.7-13.4C552.1,56.6,551.9,56.7,551.6,56.8"/>
				<path clip-path="url(#SVGID_20_)" fill="#D01819" d="M523,105.2c2.6-1.6,5.4-1.1,8,1.2c1.3,1.1,2.6-0.3,3.7-0.9
					c0.9-0.4,0.5-1.3-0.1-1.8c-1.3-1.3-2.4-3.8-4.5-2.6c-2.7,1.5-4.5,1-6.4-1.1c-1.3-1.5-2.7-0.9-4,0.1c-0.7,0.6-1.6,1.2-1,2.4
					C519.6,104.1,520.6,105.4,523,105.2"/>
				<path clip-path="url(#SVGID_20_)" fill="#D01819" d="M527.6,63.1c1.1-1.9,2.9-3.5,2.7-6c-0.1-1.4,0.2-3.3-2.1-3
					c-0.6,0.1-1.5-0.3-1.3-0.9c1.1-3.1-2-4.3-2.3-6.9c-2.6,3.2-2.2,6.3,0.9,7.5c1.9,0.7,1,1.6,0.8,2.8
					C526.1,58.9,524.4,61.6,527.6,63.1C527.7,63.1,527.6,63.1,527.6,63.1"/>
				<path clip-path="url(#SVGID_20_)" fill="#D01819" d="M494.5,106.3c2.9,1.3,5.3,0,7.3-2c1.3-1.3,1.7-2,2.8,0.3
					c1.5,3.1,4.2,3.2,9,0.3c-4.8,0.3-6.9-2.4-8.3-6c-0.6-1.5-2-1.9-2.5-0.1C501.6,103.3,498.5,105.2,494.5,106.3"/>
				<path clip-path="url(#SVGID_20_)" fill="#D01819" d="M548.5,111.1c0.1-1.8,0.3-3.3,0.4-5.4c-2.9,1.7-5,1.3-6.9-1.1
					c-1.1-1.4-1.3-1.2-4.9,0.9c1.7,3.2,3.1,6.2,7.3,3C546.3,107,546.4,110.8,548.5,111.1"/>
				<path clip-path="url(#SVGID_20_)" fill="#D01819" d="M511.6,103c1.6-0.4,4.2-0.6,4-2.6c-0.2-2.1-1.8-4.6-4.4-4.5
					c-1.9,0-4.2,1.1-4.1,3.2C507.1,101.5,509.1,102.9,511.6,103"/>
				<path clip-path="url(#SVGID_20_)" fill="#D01819" d="M532,57.9c3.4-4,3.4-6,0.7-9c-0.9-1-1.9-1.9-2.7-2.9
					c-0.8-1-1.6-1.6-2.7-0.9c-1.6,1.1-0.2,2.4,0.4,3.1C529.8,51,532.2,53.4,532,57.9"/>
				<path clip-path="url(#SVGID_20_)" fill="#D01819" d="M473.3,84.3c2.2,3.8,6.3,5.6,9.8,4.2c0.6-0.2,1.1-0.6,1.1-1.3
					c-0.1-1.2-1.3-1.3-1.9-2c-0.5-0.4-1.4-0.8-1.7,0.1c-1.2,4-2.8,0.5-4,0.1C475.5,85.2,474.9,83.2,473.3,84.3"/>
				<path clip-path="url(#SVGID_20_)" fill="#D01819" d="M484.8,105.7c-4.3,0.9-7.8,2.4-12-0.7C475.9,110.6,480.7,110.8,484.8,105.7
					"/>
				<path clip-path="url(#SVGID_20_)" fill="#D01819" d="M465.8,103.5c-4.1,0.2-7.4,1.6-11.4-0.3
					C457.3,107.1,461.3,107.1,465.8,103.5"/>
				<path clip-path="url(#SVGID_20_)" fill="#D01819" d="M464.8,87.4c1.5-0.6,3.6-0.7,4-3.1c0.1-0.7-0.8-0.9-1.3-0.7
					c-1.8,0.6-3.9,1.1-4.7,3.1C462.4,87.4,463.8,87.4,464.8,87.4"/>
				<path clip-path="url(#SVGID_20_)" fill="#D01819" d="M520.8,66.1l-0.4,0.1c0.1,0,0.1,0.1,0.2,0.1
					C520.6,66.2,520.7,66.1,520.8,66.1C520.7,66,520.8,66.1,520.8,66.1"/>
				<path clip-path="url(#SVGID_20_)" fill="#EDEDED" d="M524.2,71.3c-4.1-0.9-6.2,1.8-8.1,5.1c1.2,0.6,1.9-0.1,2.2-0.7
					C519.5,73,522.8,73.6,524.2,71.3L524.2,71.3z"/>
				<path clip-path="url(#SVGID_20_)" fill="#EDEDED" d="M511.3,76.1c0.2,0.4,0.5,0.9,0.9,0.4c0.5-0.6-0.2-0.6-0.5-0.8
					C511.6,75.9,511.4,76,511.3,76.1"/>
				<path clip-path="url(#SVGID_20_)" fill="#EDEDED" d="M524.2,71.2c0.2,0.1,0.4,0.1,0.6,0.2c0-0.3,0.1-0.6,0.1-0.9
					c0,0,0.1,0.1,0.1,0.1C524.4,70.6,524.2,70.8,524.2,71.2L524.2,71.2"/>
				<path clip-path="url(#SVGID_20_)" fill="#EDEDED" d="M493.4,99.2c1.8-0.3,3.3-1.2,3-3.4c-0.2-1.6-0.8-3.3-2.8-3.1
					c-1.9,0.2-3.6,1-3.5,3.3C490.1,98.2,491.5,99.1,493.4,99.2"/>
				<path clip-path="url(#SVGID_20_)" fill="#EDEDED" d="M478.9,103.9c1.3-0.2,2.6-1.1,2.5-3.3c-0.1-2.1-1.9-2.8-3.2-2.4
					c-1.3,0.4-3.7,0.1-3.5,2.7C475,102.9,476.3,104.2,478.9,103.9"/>
				<path clip-path="url(#SVGID_20_)" fill="#EDEDED" d="M458.5,100.9c1.7-0.2,3.2-0.8,3.1-2.8c0-1.8-1.1-3.2-2.9-3.2
					c-1.7,0-3,1.1-3.1,3C455.6,99.8,456.8,100.8,458.5,100.9"/>
			</g>
		</g>
	</g>
</g>
</svg>
