<?xml version="1.0" encoding="utf-8"?>
<!-- Generator: Adobe Illustrator 17.1.0, SVG Export Plug-In . SVG Version: 6.00 Build 0)  -->
<!DOCTYPE svg PUBLIC "-//W3C//DTD SVG 1.1//EN" "http://www.w3.org/Graphics/SVG/1.1/DTD/svg11.dtd">
<svg version="1.1" id="svg2" xmlns:svg="http://www.w3.org/2000/svg"
	 xmlns="http://www.w3.org/2000/svg" xmlns:xlink="http://www.w3.org/1999/xlink" x="0px" y="0px" viewBox="0 0 744.1 1052.4"
	 enable-background="new 0 0 744.1 1052.4" xml:space="preserve">
<g id="layer1">
	<path id="path1380" fill="none" stroke="#000000" stroke-width="3" d="M217.3,1027.7c-0.9-0.4-2.4-1.4-3.3-2.3
		c-3.7-3.2-6.1-3.8-9.5-2.4c-2.4,1-3.4,0.4-3.4-2.1c0-2.3,1.5-3.6,3.3-2.9c0.8,0.3,1.5,0.5,1.7,0.5c0.6,0-0.3-4-1.4-6.6l-1.2-2.7
		l1-1.4c0.7-0.9,1.8-1.6,3.1-1.8c1.1-0.2,2.4-0.9,2.9-1.5c1.8-2.2,1.1-3.6-3.6-7.4c-1.5-1.2-1.7-1.6-1.7-4.2c0-3.1-0.4-4.1-2.9-7.2
		c-1-1.2-1.7-2.5-1.7-3c0-0.5-3.9-10.7-4.6-11.9c-0.8-1.1-2.1-3.9-3.1-6.1c-0.9-2.2-1.9-4.1-2.2-4.3c-0.2-0.1-0.4-1.1-0.4-2.1
		c0-3.4,2.8-3,6.6,0.8c2.1,2.1,2.9,2.6,4.3,2.6c2.2,0,3-0.8,3-2.7c0-1.1-0.8-2.2-3.6-4.9c-3.2-3.1-3.6-3.7-3.9-5.9
		c-0.6-4.7,0.5-6.1,3.8-4.8c1,0.4,2.6,0.8,3.6,0.8c1.4,0,1.9-0.3,2.3-1.4c1.3-3.2,1.4-4.8,0.5-8.2c-0.8-3.3-0.9-3.5-2.3-3.3
		c-1.8,0.2-4-1-5.7-3c-1.2-1.4-1.3-1.9-1-4c0.3-2.2-9.3-12.9-9.8-13.2c-0.7-0.4-1.1-1.5-1.4-3.8c-0.3-2.2-5.6-14-5.6-14.5
		c0-1.6-1.6-4.7-3-5.9c-1.3-1.1-1.3-1.3-0.6-2.6c1-1.8,0.7-3.8-0.6-5.2c-0.9-1-1-1.3-0.4-2.7c0.5-1.1,0.5-1.8,0.1-2.1
		c-0.4-0.4-0.8,0-1.3,1.3c-0.6,1.5-1.1,1.9-2.1,1.9c-2.8,0-3.5-5.1-1.8-13c0.9-4.4,0.4-6.1-2.6-8.6c-1.7-1.5-2.7-2.8-3.2-4.2
		c-0.6-2-0.5-2.1,1.1-3.8l1.7-1.8l-2.1-2.3c-1.2-1.3-2.1-2.8-2.1-3.5c0-0.7,1-2.3,2.3-3.7c2.8-3.1,3.6-5.2,3.2-8.5
		c-0.3-2.5-0.1-3.6,2-9c0.9-2.4,1.1-3.9,1-6.2c-0.3-4.5-0.6-5.2-2.3-6.4c-2.2-1.6-4-1-8.1,2.7c-3.4,3.1-6.5,5-7.1,4.4
		c-0.7-0.7,0.6-3.3,2.9-5.7c1.4-1.4,2.4-2.8,2.2-3.1c-0.2-0.3-0.9,0.2-1.7,1.1c-1.5,1.8-2.8,2.1-3.6,0.8c-0.5-0.9-0.2-3.2,0.5-3.6
		c0.2-0.2,0.5-1.1,0.5-2.1c0-1.7-0.1-1.8-0.9-1.1c-2.1,1.8-3.7,2.2-5,1.5c-1.8-1-1.5-2.6,0.9-3.9c1.1-0.6,1.9-1.3,1.9-1.7
		s-0.6-1.8-1.3-3.1c-1.2-2.3-1.2-2.6-0.7-6c0.6-3.5,0.6-3.5-1.1-6.6c-1-1.7-1.7-3.8-1.7-4.8c0-2.5,0.6-5,1.5-6.1
		c0.9-1,0.9-0.8-1.2-6.7c-0.7-2-0.8-3-0.3-5.2c0.3-1.5,0.4-3.3,0.3-4.1c-0.4-1.8,0.9-3.3,3.2-3.8c0.9-0.2,2.1-0.8,2.6-1.3
		c0.8-0.9,4.3-2.7,4.6-2.4c0.1,0.1,0.4,2.3,0.7,5c0.3,2.7,1.1,6.2,1.7,7.9c1,2.7,1.2,3,2.7,3c3.5,0,3.8-0.3,4.8-4.6
		c0.7-3,1.3-4.4,2.6-5.8c1.6-1.7,1.7-2.1,1.9-6.4c0.1-2.6,0.6-5.5,1.1-6.6c1-2.3,0.8-3.7-1.9-16.6c-0.8-4-1.5-7.6-1.5-8
		c0-0.4,2.2-2.6,4.8-4.8l4.8-4.1l0.4-3.1c0.3-3,0.3-3.1-1.3-4.4l-1.6-1.3l2.6-2.2c2-1.7,3-2.2,4.5-2.2c3.2,0,5.9-1,8.9-3.2
		c3.9-2.9,8.2-7,9-8.6c0.4-0.8,0.8-4.5,1-9.5l0.4-8.2l2.2-2.3c2.1-2.2,2.2-2.5,2.7-6.9l0.5-4.5l-3.5-8.7c-2.9-7.2-3.8-10.2-5.4-18
		c-1.1-5.2-1.8-9.5-1.7-9.6c0.1-0.1,3.7-1.1,7.9-2c4.2-1,7.7-1.8,7.7-1.9c0.6-0.6,6.4-21.2,6.1-21.9c-0.2-0.5-2.1-3.7-4.3-7.2
		l-4-6.3l-2.7-0.6c-2.6-0.6-3-0.9-7.8-6.2l-5.1-5.7l1.7-10.7c0.9-5.9,2.3-14.7,3.1-19.7l1.4-9l-3.2-13.3l-3.2-13.3l1.8-3.1l1.8-3.1
		l-0.4-6.1l-0.4-6.1l2.4-4.5c1.3-2.5,2.3-4.9,2.2-5.3c-0.1-0.5-1.1-3.2-2.2-6c-3.8-10.4-3.9-13.6-0.5-17.9c1-1.2,2.7-3.9,3.9-6.1
		l2.1-3.9l-0.6-3.9c-0.5-3.2-0.5-4.2,0.2-6.1c1-2.9,3.7-6.8,7.8-11.5c1.8-2.1,5.6-6.9,8.4-10.8c2.8-3.8,5.5-7.3,6.1-7.8
		c1.4-1.2,5.6-2.5,9.8-3c3-0.4,4.7-0.2,10.8,1c4,0.8,9.1,1.9,11.3,2.5c2.3,0.6,4.3,0.8,4.4,0.7c0.2-0.2,1.3-3.1,2.4-6.4l2.1-6
		l-0.3-9.2l-0.3-9.2l-6.1-4.1c-3.3-2.3-6.1-4.3-6.1-4.6c0-0.3,3.4-6.4,7.6-13.7c4.2-7.3,9-15.7,10.8-18.9c3.3-5.7,3.7-6.8,4.8-12.2
		c0.5-2.5,0.8-3.1,2.5-4.2l1.9-1.3l0.6-13c0.4-8.2,1-15.3,1.7-19.2l1.1-6.1l-1.1-9.9c-0.6-5.4-1.1-10.6-1.1-11.5l0-1.6l5.9-0.2
		l5.9-0.2l7.5-5.1c4.1-2.8,7.5-5.2,7.5-5.4c0-0.2-0.4-3.4-0.8-7.3l-0.8-7l3.9-5.4c4.5-6.3,7.3-11,11.1-18.5
		c2.3-4.6,3.4-6.1,7.6-10.4l4.9-5l0.4-5.6c0.2-3.1,0.5-5.8,0.5-6.1s-1.8-4.4-4.1-9.2s-4.2-9.2-4.2-9.8l3.3-7.8l3.2-0.4l3.2-0.4
		l2.3-7.3c1.3-4,3.3-10.4,4.5-14.3l2.2-7l7.2-6.2c3.9-3.4,7.3-6.2,7.6-6.3c1.1-0.4,9.2,3.8,12.3,6.3l3.4,2.8l3.5-8.2l3.5-8.2
		l-1.5-7.9c-1.6-8.2-1.6-11-0.1-15.5c1.1-3.4,5.3-5.7,7.8-4.4l5.5,4.8l3.6-0.3c2-0.2,4.1-0.5,4.8-0.8c0.9-0.3,4,0.6,13.8,4.1
		c6.9,2.5,12.7,4.6,12.9,4.6l6.1-8.6c0,0-6.1-4.6-6.1-4.8c0-0.2,0.6-0.9,1.3-1.6c2.1-2,4.2-6.1,5.7-11.3c2.4-8.2,1.2-14.3-3.4-18.6
		c-3.5-3.2-3-5.7,1.2-5.7c1.2,0,3.5-0.3,5.3-0.6c4.4-0.8,8.3,0.3,11.2,3.2c1.8,1.8,2,2.3,1.7,3.6c-0.5,2.2,0.7,3.6,4.6,5.8
		c4,2.2,9.7,7.4,10.6,9.6c0.4,1,10.5,8.4,11.7,8.7c2,0.5,3.4,1.8,6,5.3c1.5,2.1,2.8,2.4,4.6,1.2c1.1-0.7,4.3,1.3,4.8,1.3
		c0.5,0,2.9,0.8,5.2,1.8c2.4,1,10.7,4.7,12.1,5.4c1.9,1,2.8,1.7,3.1,2.9c0.3,0.9,0.9,2,1.4,2.5c1,1,2,8,3.5,7.7
		c2-0.4,3.7,1.1,5.7,5.1c1.1,2.2,2.2,3.4,4.6,5.1c1.7,1.2,3.6,2.9,4.1,3.8l1,1.7l-1.1,2.5c-1,2.3-1.1,3.5-1.3,15.1
		c-0.1,6.9,0,13.5,0.2,14.6c0.4,2,0.5,2,3.1,2.1c3.3,0.2,5.1,1.3,6.2,3.8c1.2,2.8,0.6,6.4-1.5,10.9l-1.8,3.8c0,0,4.3,8,5.7,10.3
		c2.9,4.6,6,10.7,7.6,14.7c0.9,2.3,1.1,4,1.2,12.9c0.1,10.1,0.1,10.2-1.2,13.3c-1.9,4.4-2.2,6.8-1.2,10.6c1.1,4.1,2.5,6.7,7.6,13.6
		c4.4,5.9,7.1,11.1,7.1,13.4c0,0.7,0.9,3.4,2,5.9l2,4.6h-2.2c-1.4,0-2.5,0.3-2.9,0.8c-0.4,0.4-5.8,1.5-6.5,1c-1.3-0.9-3.4-0.9-6.9,0
		c-1.6,0.4-4.4,0.8-6.3,0.8l-3.5,0l0.8,1.3c1,1.6,0.5,2.7-2.2,4.8l-1.9,1.4l-1-1.4c-0.6-0.8-1.5-1.4-2.2-1.4c-0.8,0-2.4-1.3-4.8-3.9
		c-3.5-3.7-5.4-5-4.3-3c0.3,0.6,0.3,1.9,0,3.5l-0.5,2.6l-2.4,0c-2.3,0-2.5-0.1-3.8-2.2c-0.8-1.2-1.8-2.2-2.2-2.2
		c-0.7,0-0.8,0.4-0.5,2.3c0.3,1.8,0.1,2.7-0.6,3.8c-0.8,1.4-0.8,1.6-0.1,2.5c1.1,1.2,1.6,7.6,0.8,9c-0.4,0.8-0.5,1.1-0.1,1.3
		c1.5,0.6,2.4,1.6,2.1,2.5c-0.3,0.8-0.8,0.9-3.3,0.6c-2.7-0.3-2.9-0.3-2,0.5c0.6,0.4,1.6,0.8,2.3,0.8c1.4,0,2.6,0.8,2.6,1.9
		c0,0.4-0.9,1.1-2.1,1.7l-2.1,1.1l-1.2-1.3c-0.9-1-1.9-1.4-4.6-1.6c-1.9-0.2-3.8-0.1-4.3,0.2c-0.8,0.4-0.7,0.6,0.9,1.6
		c2.5,1.5,3.8,3.5,2.9,4.5c-0.4,0.4-3.1,2.4-3.8,3.1c-1.1,1.1-1.8,1.3-4.3,1.3c-3.4,0-5.1,0.5-6.4,1.8c-1.3,1.3-1.1,1.7,1.5,2.8
		c2.2,1,2.5,1,3.3,0.3c1.2-1.1,1.5-1,2.1,0.6c0.5,1.2,0.3,1.6-1,3c-4.1,4.4-4.5,5.7-2.4,8.1c1.6,1.9,1.7,3.5,0.3,3.5
		c-1.3,0-1.3,0.5-0.1,2.6c0.9,1.6,0.9,1.6-0.1,2.4c-0.6,0.4-1.5,0.7-2.2,0.7c-1.6,0-1.5,0.6,0.4,1.7c1.9,1.1,2,2,0.1,2
		c-1,0-2.2,0.8-4.2,2.7c-2.6,2.5-2.7,2.8-2.2,4.1c0.7,1.8,0.4,2.6-1,3.2c-0.6,0.3-1.6,1.3-2.1,2.2c-1.3,2.3-0.7,3.3,2.3,3.7
		c2.1,0.2,2.3,0.4,2.4,1.8c0.1,0.9-0.2,1.8-0.6,2.2c-0.6,0.5-0.6,0.9,0.4,2.6c1.1,2,1.1,2,0.1,2.8c-1,0.7-1,0.8,0.2,2.1
		c0.8,0.9,1.8,1.3,2.8,1.3c1.9,0,2.5,0.4,3.4,2c0.5,1,0.5,1.5,0,2.4c-0.6,1-0.4,1.5,0.7,3.5c1.4,2.3,1.4,2.3,2.8,1.6
		c2.8-1.4,2.9,1.1,0.3,4.4c-1.5,1.8-1.8,2.6-1.5,3.8c0.4,2.2-1.4,3.8-4.8,4.2c-2.6,0.3-2.7,0.4-3.2,2.4c-0.9,3.5-1.6,5-2.9,5.8
		c-2.5,1.6-3.3,4-4.3,12c-0.3,2.5-0.8,4.3-1.5,5.2c-1.5,1.9-3.1,5.6-3.4,8.1c-0.4,2.9-1.7,4.5-4.9,6.1c-3.7,1.9-4.6,2.9-4.6,5.6
		c0,1.7-0.2,2.4-1,2.8c-1.7,0.9-2,0.6-2.2-2.4c-0.2-4-1.4-4.4-1.3-0.5c0.1,1.9-0.2,3.3-0.8,4.2c-1.1,1.7-3.1,2.5-4.4,1.8
		c-1.8-1-2.5-0.6-3.1,1.5c-0.6,2.2-2.1,3.6-3.9,3.7c-0.7,0-1.6,0.9-2.6,2.5c-1.5,2.3-1.5,2.6-0.9,4.1c0.6,1.5,0.6,1.7-1.1,3.4
		c-1,1-2,1.7-2.3,1.5c-0.3-0.2-1.4-1.9-2.6-3.8c-2.1-3.6-3.9-5.7-4.5-5.1c-0.2,0.2,0.4,2.3,1.3,4.6c1.5,4,1.6,4.3,0.8,5.5l-0.8,1.2
		l-1.7-1.6c-1-1-2.2-1.6-3-1.6c-1.3,0-1.4,0.2-1.4,1.9c0,3.4-0.9,6-2.4,7.2c-0.8,0.6-2.2,2.7-3.2,4.6c-2.6,4.9-3,5-6.4,2.1
		c-2.1-1.8-3.1-2.4-3.9-2.1c-1.5,0.5-1.3,1.1,0.7,2.1c2.2,1,2,1.7-1.2,4.2c-1.7,1.3-2.8,1.8-3.8,1.6c-1.3-0.2-1.4,0-1.4,1.2
		c0,1.1-1,2.5-3.6,5.5c-2,2.3-3.9,4.3-4.3,4.5c-0.4,0.2,0.7,0.5,2.7,0.7c2.6,0.2,3.4,0.4,3.5,1.2c0.1,0.6-0.3,1.1-1.2,1.5
		c-1.5,0.7-1.8,1.5-0.6,1.5c0.4,0,0.8,0.4,0.8,0.8c0,1.2-3.5,5.7-4.6,6.1c-1.2,0.4-3.8-2.3-4.1-2.3c-0.9,0-0.6,1.8,0.5,2.8
		c1,0.9,1,1,0.2,1.9c-1,1.1-5.2,2.5-7.5,2.5c-0.9,0-4.1-3.1-4.3-3.1c-0.8,0-0.2,2.3,0.8,3c1.2,0.9,2,4,2,7.9c0,1.6,0.4,2.8,1.1,3.8
		l1.1,1.4c0,0-2.5,4.4-3,3.5c-0.5-1-0.6-1-1.2,0.3c-0.3,0.7-0.6,1.8-0.6,2.3c0,1.4-1.2,2.1-4,2.5c-2.4,0.4-2.5,0.4-2.4,2.2
		c0,1,0.2,2.5,0.3,3.3c0.2,1.4,0.1,1.5-1.1,1.4c-0.7-0.1-4-2.3-4.7-2.6c-1-0.4-1.6-1.2-2.1-2.7c-0.4-1.2-1.1-2.3-1.5-2.4
		c-0.4-0.1-1.6,1-2.7,2.3c-1.6,2.1-1.9,2.7-1.6,4.3c0.2,1,0.7,2.2,1.2,2.6c1.6,1.4,3.8,4.7,4.3,6.4c0.4,1.3,0.9,1.9,2.5,2.5
		c1.1,0.5,2.5,0.8,3.1,0.8c0.8,0,1,0.4,1,2c0,1.8-0.1,2-1,1.7c-0.6-0.1-2-1.2-2.6-1.2c-1.1,0-1.3,0.9-0.5,3.4
		c0.4,1.2,0.3,1.9-0.4,2.8c-0.5,0.7-1.1,3.4-1.5,6.3c-0.6,4.7-0.8,5.3-2.3,6.9c-1.6,1.6-1.7,1.9-1.7,5.6c0,3.8,0,3.9,1.1,3.7
		c0.9-0.2,1.2,0,1.2,0.8c0,0.6,0.8,2.8,1.8,5c1.8,4.1,2.2,7,1.3,8.8c-0.7,1.4-1.8,1.2-2.9-0.4c-0.5-0.8-2.1-2.5-3.4-3.8
		c-1.9-1.9-2.8-2.4-3.8-2.2l-1.3,0.2l1.6,1.7c1.6,1.6,1.6,1.7,0.6,2.3c-0.6,0.3-1.6,0.6-2.2,0.6c-0.9,0-0.9,2.4-1.3,2.9
		c-1.1,1.4-0.9,2.1,0.7,2.3c1.4,0.2,1.4,0.2,1.4,3.8c0,2-0.2,4-0.4,4.5c-0.3,0.6-0.1,1.1,0.5,1.6c1.2,0.8,0.7,2.4-0.8,2.4
		c-1.4,0-1.3,0.7,0.3,1.6c1.9,1,3.8,3.5,3.8,4.9c0,0.8-0.6,1.7-1.5,2.3c-1.3,0.9-1.4,1.3-1,2.3c0.4,0.9,0.3,1.4-0.8,2.5
		c-1.6,1.6-1.7,2.3-0.3,4.9c1.1,2.1,1.3,5.4,0.5,7.6c-0.5,1.2-0.4,1.3,0.8,1.3c1,0,1.3,0.3,1.3,1.3c0,0.7-2.2,3.8-1.8,5.9
		c0.3,2,0.5,2.1,2.1,2.1c2.2,0,2.6,0.9,1.8,3.7c-0.6,2-0.5,2.2,0.9,4c2.4,3,2.5,3.8,0.4,4.9c-2.1,1-2.2,1.4-0.6,3.1
		c1.5,1.6,3.8,2.1,8.8,2c4.5-0.1,4.5-0.2,3.1,3.7c-0.7,1.9-0.8,2.6-0.3,2.7c0.4,0.1,3,3.7,3.7,3.7c0.2,0,1.5-3.9,2-4.3
		c1.1-1,5.3-2.4,7.3-2.4c1.4,0,1.5,0,1.5,3c0,2.9,0.1,3.1,1.8,4.1c1.1,0.6,1.8,1.5,1.8,2.1c0,1.9,2.7,4.3,7,6.3
		c6.5,3,13.4,9.2,11.5,10.3c-1.4,0.9-3,0.4-5.4-1.6c-1.4-1.1-2.6-1.8-2.7-1.5c-0.1,0.3,1.5,3.1,3.6,6.2c3.2,4.7,3.8,5.4,4.1,4.5
		c0.3-1.3,1.3-1.3,4.2,0.2c2.3,1.2,2.5,1.2,2.5,0.3c0-0.4,0.3-0.8,0.8-1c0.9-0.3,1.8,1.1,1.8,2.9c0,1.9,1.2,4.7,3.5,8.6
		c1.7,2.7,2.6,3.8,4.2,4.5c2.8,1.3,3.3,2.4,1.8,3.8c-1.5,1.4-1.7,1.4-3.1-0.2c-1.2-1.3-2.4-1.7-2.4-0.7c0,0.3,0.7,1.3,1.6,2.2
		c2.5,2.6,1.9,3.6-2.1,4.2l-3.3,0.5c0,0,4.6,1.8,9.7,0c0.7-0.3,0.9,0.1,0.9,1.5c0,2.4-1.3,3.5-4.3,3.5c-2.4,0-4.4,0.7-7.1,2.7
		c-1.2,0.8-1.3,1.2-0.9,2c0.4,0.8,0.2,1.3-1.3,2.8c-1,1-2.3,3.1-3,3.3c-1.7,0.7-5.6,3.7-6.1,4.6c-0.2,0.4-0.6,1.4-0.9,2.2
		c-0.4,1.1-0.9,1.4-2.2,1.4c-2.2,0-2.8,0.4-3.2,2.2c-0.4,1.6-0.8,1.9-3.1,2.4c-1.6,0.4-1.7,0.3-1.9-1.1c-0.1-0.8,0.6-1.9,0.6-2.4
		c0-0.8-2.2,1.4-2.7,1.6c-1.4,0.5-1.3,4.3,0.1,4.8c0.6,0.2,3.6,1.1,3.6,0.8c0-0.8,4.4-2.6,6.4-2.6c1.6,0,2-0.2,2.5-1.4
		c1.4-3.2,3.4-3,6.9,0.8c3.8,4.1,3.8,4.5,0.8,8.4c-3.2,4.1-4.6,4.5-7,1.7c-3.8-4.4-5.2-5.6-5.4-5c-0.1,0.4,0.9,2.4,0.1,3.2
		c-0.9,1-0.9,1,0.5,1.5c0.8,0.3,1.8,0.5,2.4,0.5c0.9,0,1,0.4,1,3.5c0,3.1-0.2,3.7-1.3,4.8c-0.9,0.8-1.2,1.6-1,2.3
		c0.2,0.9-0.1,1.2-2.1,2c-2.2,0.8-2.4,0.8-2.9,0.1c-0.7-1.2-1.2-1.1-3.9,1.3c-2.8,2.6-4.8,6.5-4.8,9.4c0,1.5-0.5,2.8-1.8,4.9
		c-3.2,4.9-4.6,4.9-4,0.1c0.2-1.3-0.9-3.2-1.1-4.4c-0.5-3.4-1.3-6.1-1.8-6.1c-0.2,0-1.9,3.7-2.9,4.5c-1.6,1.3-1.8,1.7-1.8,4.1
		c0,3-0.6,3.8-2,2.5c-1.1-1-2.1-1.1-2.1-0.2c0,0.4,2.9,4.8,2.8,5c-0.2,0.2-1.1,0.3-2.2,0.3c-1.8,0-1.9,0.1-2.2,2.1l-0.3,2.1
		c0,0-6.7,0.3-8,0.5c-1.5,0.2-2.8,0.2-3.5-0.2c-1.1-0.6-0.3,1.8-0.8,2.8c-0.4,0.8-0.8,1.9-0.8,2.4c0,3-6.2,5.1-11.3,3.9
		c-1.6-0.4-6.3-1.1-10.5-1.7c-8.6-1.2-10.3-1-10.8,1.7c-0.3,1.8-0.2,1.9,1.7,0.8c1.3-0.7,2.5-0.8,5.6-0.6c5.5,0.4,13,1.3,13.2,1.5
		c0.1,0.1,7,6.6,7,7.1c0,1.4-3.4,4-6.4,4.9c-1.6,0.5-2.8,1-2.8,1.3c0,0.9,2.1,2.5,3.3,2.5c1.9,0,2,0.8,0.3,2.1c-1.9,1.4-2,1.9,0,2.3
		c2.4,0.5,2.9,1.5,1.3,2.8c-1.5,1.2-1.4,1.7,1.1,5.1c1.6,2.1,1.6,2.8,0.2,4.2c-0.9,0.9-1.5,1-3.3,0.8c-2.5-0.3-2.9,0.2-1,1.1
		c1.1,0.5,1.6,5.8,2.1,6.3c0.8,0.8,0.7,1-0.6,1.8c-0.8,0.5-1.5,1-1.6,1c-0.1,0.1,0.8,1.5,1.9,3.2c2.1,3.1,2.6,5,1.6,6.8
		c-0.8,1.4-1.3,1.3-4.4-1c-1.9-1.4-2.9-1.9-3.4-1.6l-1.9,2.6c0.6,1.2,2.3,3.1,3.6,4.4c1.8,1.7,2.3,2.4,1.7,2.6c-1,0.4-1,1.7-0.1,1.7
		c0.4,0,1.2,0.6,1.9,1.3l1.2,1.3l-6.4,8l1.7,2.5c1.5,2.3,1.7,2.8,1.6,6.6c0,4.7-0.8,6.9-2.9,7.9c-1,0.5-1.4,1.1-1.4,2.1
		c0,0.8-0.6,2.8-1.3,4.4c-1.6,3.5-1.5,7,0.2,10.6c0.6,1.3,1.2,3.5,1.3,4.9l0.1,2.6l-2.1,0.2c-3,0.2-3.7,1-2.3,2.5
		c0.8,0.9,1,1.6,0.8,2.9c-0.8,5-1.5,7.9-1.9,8.6c-0.3,0.6,0,1.3,1.1,2.5c0.8,0.9-0.2,2.4-0.2,2.6c0,0.8-2.7,3.8-3.6,4.9
		c-1,1.2-2.2,3.4-2.9,4.9c-0.6,1.6-3.1,8.7-3.6,9.4c-2.2,2.8-3.2,6-3.7,12.1c-0.3,3.3-0.8,6.5-1.1,7.2c-0.3,0.7-1.7,1.9-2.9,2.6
		c-1.9,1.1-2.5,1.8-3.1,3.7c-0.9,2.8-1.8,3.9-3.5,4.1c-1,0.1-1.3-0.2-2.1-2.1c-0.7-1.8-1.3-2.5-3.2-3.5c-2.8-1.5-4.3-1.3-8.8,0.9
		c-3.7,1.8-7.3,2.1-7.9,0.7c-0.3-0.7-0.8-0.8-3.2-0.5c-2.8,0.3-2.9,0.3-4.6-1.4c-1.9-1.9-2.3-1.9-2.3,0c0,1.2-0.1,1.2-5.8,1.2
		c-6,0-9.4,0.6-9.8,1.7c-0.4,1,1.5,4.5,3,5.8c1.2,1,1.2,1.1,0.5,2.2c-1.8,2.5-5.7,1.8-8-1.4c-1.1-1.5-1.2-1.5-2.5-0.8
		c-3.7,1.9-10.3,10.7-12.1,16c-1.5,4.4-1.1,6.6,2,12.2c1.5,2.8,2.9,5.7,3.1,6.6c0.4,2-0.5,5.5-1.7,6.9c-0.5,0.6-1.3,1.8-1.8,2.8
		c-1.3,2.6-2.2,3.1-5.8,3.1c-2.5,0-3.7-0.3-5-1.1c-1-0.6-1.7-1.3-1.7-1.5c0-0.2-0.6-0.8-1.3-1.2c-1.1-0.7-1.4-0.7-2.7-0.1
		c-0.8,0.4-1.8,0.8-2.3,0.8c-0.5,0-1.9,0.5-3.3,1.1c-1.4,0.6-4,1.2-6.4,1.3c-3.4,0.2-4.3,0.5-6.7,2.1
		C222.9,1028.3,219.8,1028.8,217.3,1027.7z M348.8,965.2c-0.3-0.5-0.4-6.8-0.2-11.2c0.1-1.4-0.3-13.9,0.5-15.7
		c0.5-1.2,1.1-2.9,1.2-3.8c0.6-3.3,1.4-5.6,3.3-9.7c1.1-2.3,2-4.7,2-5.2c0-1.5,0.9-2.8,2.7-3.8c1.7-1,2.3-1.9,3.5-5.2
		c0.4-0.9,6.7-15.5,6.3-16.1c-0.4-0.6,2.1-10.5,3.4-11.9c1.1-1.2,1.9-1.6,3.4-1.6c2.5-0.1,2.8,0.8,1.3,4c-0.6,1.3-1.1,3.3-1.1,4.5
		c0,1.3-0.4,2.8-1,3.8c-0.6,0.9-5.7,15.1-5.5,16.7c0.2,1.5-0.6,4.2-3.2,11.5c-1.9,5.3-3.6,11-3.8,12.7c-0.3,2.2-0.8,3.8-2.1,5.8
		c-1.4,2.2-3.3,10.7-3.3,12.6c0,1.9-3,8.9-3.7,10.3c-0.8,1.8-1.6,2.6-2.3,2.7C349.6,965.6,348.9,965.4,348.8,965.2z M416.8,911.9
		c-0.6-2.9-0.3-3.6,2-5.9c2.5-2.5,2.9-3.8,1.3-3.8c-0.9,0-1-0.3-1-2.2c0-1.8-0.3-2.5-1.5-3.7c-1.4-1.3-1.5-1.8-1.5-4.5
		c0-2.4-0.2-3.1-1-3.5c-1.3-0.7-1.3-1.3,0.3-3.3c2.1-2.8,2.4-4.5,1.1-7.1c-0.8-1.6-1-6.8-1.9-8c-1.8-2.4-1.1-4.2,3.1-7.9
		c3.8-3.4,7.2-8.8,7.9-12.4c0.4-2.5,2.7-5,6.1-7c1.5-0.8,3.2-2.1,3.9-2.9c0.7-0.7,1.7-1.3,2.2-1.3c0.9,0,1.2,0.5,1.7,3.7
		c0.6,3.7,2.3,2,2.3-2.3c0-1.8,0.1-1.9,1.5-1.9c0.9,0,1.7,0.4,2.1,0.9c0.5,0.9,0.6,0.9,1.1,0c0.4-0.7,0.8-0.8,1.5-0.4
		c1.6,0.8,1.9,0.6,3.6-2.3c0.9-1.6,2.2-3.2,2.8-3.6c1.1-0.7,1.4-0.7,2.8,0c0.9,0.4,2.4,0.8,3.4,0.8c2.2,0,2.4,1,0.5,2.5
		c-0.8,0.7-2.1,1.1-3.3,1.1c-1.9,0-2,0.1-2,1.8c0,1.9-8.9,11.6-9.1,12.4c-0.4,1.3-0.7,1.5-2.1,1.4c-1.9-0.2-2.5,0.8-3.2,6
		c-0.4,2.6,0.5,11.8,1.9,12.8c0.8,0.6,2.1,1.1,2.9,1.1c1.3,0,1.5,0.2,1.5,1.6c0,1.9-1.5,3.6-5.1,5.3c-3.8,1.9-5.6,4.9-3,4.9
		c0.7,0,1.4,0.2,1.6,0.5c0.5,0.9-3.9,5.1-8.1,7.9c-3,1.9-3.9,2.8-3.7,3.5c0.2,0.5-0.2,1.5-0.8,2.2c-0.6,0.7-1.5,2.4-2.1,3.8
		c-1,2.4-1.1,2.5-0.1,3.1c0.9,0.7,0.9,0.8-0.1,2.6c-1.3,2.2-6,5.8-7.7,5.8C417.4,913.5,417,913.2,416.8,911.9z M159.5,835.1
		c-1-1-0.7-2.6,1.2-6.7c2.1-4.6,3.4-5.4,5.3-3.2c1.5,1.7,1.5,3.9,0.2,5.2c-0.6,0.5-1.3,1.3-1.7,1.7
		C160.7,836.1,160.6,836.2,159.5,835.1z M156.9,823.6c-0.6-0.4-1.6-1.6-2.2-2.6c-1-1.6-1.1-2-0.5-3.1c0.4-0.7,2.2-2.3,4.2-3.6
		c2.1-1.4,3.7-3,4.1-3.9c0.5-1.3,0.9-1.5,2.6-1.5c2.2,0,3.7,1.2,4.9,4c1,2.4,0.4,4.8-2,7.6c-2.1,2.4-3.3,2.9-3.8,1.6
		c-0.5-1.3-3.1-1-4.1,0.5C159.1,824.2,158.2,824.5,156.9,823.6z M367.1,816.3c-0.3-0.8-1.5-4.8-1.9-5c-1-0.4-0.9-1.5,0.3-2.6
		c0.9-0.9,1.1-0.9,2.3-0.1c2.2,1.4,3.3,7.2,1.5,8.4C368,818,367.7,817.9,367.1,816.3z M413.7,767.4c-1.7-1.7,2.1-5.7,5.2-5.4
		c1.2,0.1,0.6,1.7-1.4,3.7C415.7,767.6,414.5,768.2,413.7,767.4z M418.5,758.4c0-2.5,4.2-7.1,5.9-6.4c1.1,0.4,0.9,1.4-0.6,3.4
		c-0.7,1-1.5,2.3-1.8,2.9C421.5,760,418.5,760,418.5,758.4z M425.2,726.7c-1.3-1.3-0.6-3,1.8-4.5c1.2-0.8,2.5-1.7,3-2
		c0.5-0.3,1.2-0.5,1.7-0.3c1.3,0.5,0.6,2.3-1.8,4.5c-1.1,1-2,2.1-2,2.4C427.8,727.8,426.1,727.7,425.2,726.7z M434.8,715.6
		c0.7-3.3,0.8-3.4,3.1-3.8c2.7-0.4,3.4-0.1,3.4,1.5c0,0.8-2,2-1.8,2.3c0.4,0.6-1.8,1.6-3.7,1.6C434.5,717.2,434.5,717.1,434.8,715.6
		z"/>
</g>
<g id="Favorite">
	<g>
		<path fill="#B91818" d="M380.8,620.8c0.5,0,1.1,0,1.7,0.1c3.7,0.4,8,3.7,8.6,10.2v2.1c-0.5,6.2-5.2,13.8-19,23.3
			c-13.8-9.5-18.5-17.2-19-23.3V631c0.5-6.4,4.8-9.8,8.6-10.2c0.6-0.1,1.2-0.1,1.7-0.1c4.3,0,6.4,1.8,8.7,4.6
			C374.4,622.6,376.5,620.8,380.8,620.8 M380.8,624.9c-2.5,0-3.5,0.7-5.6,3.1l-3.2,3.7l-3.2-3.7c-2-2.4-3.1-3.1-5.6-3.1
			c-0.4,0-0.8,0-1.3,0.1c-1.7,0.2-4.4,2-4.8,6.3v1.8c0.5,5.4,5.5,11.6,14.9,18.4c9.4-6.9,14.4-13.1,14.9-18.4v-1.8
			c-0.4-4.3-3.1-6.1-4.8-6.3C381.6,624.9,381.2,624.9,380.8,624.9L380.8,624.9z"/>
	</g>
</g>
</svg>
