<?xml version="1.0" encoding="utf-8"?>
<!-- Generator: Adobe Illustrator 17.1.0, SVG Export Plug-In . SVG Version: 6.00 Build 0)  -->
<!DOCTYPE svg PUBLIC "-//W3C//DTD SVG 1.1//EN" "http://www.w3.org/Graphics/SVG/1.1/DTD/svg11.dtd">
<svg version="1.1" id="Lager_1" xmlns="http://www.w3.org/2000/svg" xmlns:xlink="http://www.w3.org/1999/xlink" x="0px" y="0px"
	 viewBox="0 0 595.3 841.9" enable-background="new 0 0 595.3 841.9" xml:space="preserve">
<rect x="16.8" y="229.1" fill="none" stroke="#000000" stroke-miterlimit="10" width="558.8" height="383.7"/>
<line fill="none" stroke="#000000" stroke-miterlimit="10" x1="302.2" y1="250.8" x2="302.2" y2="600.3"/>
<line fill="none" stroke="#000000" stroke-width="0.9733" stroke-miterlimit="10" x1="313.7" y1="415" x2="566.8" y2="415"/>
<line fill="none" stroke="#000000" stroke-width="0.9733" stroke-miterlimit="10" x1="313.7" y1="466.4" x2="566.8" y2="466.4"/>
<line fill="none" stroke="#000000" stroke-width="0.9733" stroke-miterlimit="10" x1="313.7" y1="525.4" x2="566.8" y2="525.4"/>
<rect x="489" y="254.9" fill="none" stroke="#000000" stroke-miterlimit="10" width="60.5" height="66.8"/>
<text transform="matrix(1 0 0 1 318.6406 410.942)" font-family="'TwCenMT-Bold'" font-size="24.6549">GÖTEBORG</text>
<text transform="matrix(1 0 0 1 318.6406 460.2524)" font-family="'TwCenMT-Bold'" font-size="24.6549">Västra Götaland County</text>
<text transform="matrix(1 0 0 1 318.6406 520.5198)" font-family="'TwCenMT-Bold'" font-size="24.6549">Population 532,247</text>
<text transform="matrix(1 0 0 1 21.6397 288.2708)" font-family="'Verdana'" font-size="10.9578">HEJ FROM GÖTEBORG!</text>
<text transform="matrix(1 0 0 1 21.6397 321.7089)" enable-background="new    "><tspan x="0" y="0" font-family="'Verdana'" font-size="10.9578">Göteborg (eng. Gothenburg), situated in the </tspan><tspan x="0" y="13.1" font-family="'Verdana'" font-size="10.9578">west coast of Sweden, is country´s second</tspan><tspan x="0" y="26.3" font-family="'Verdana'" font-size="10.9578">largest city.</tspan><tspan x="0" y="52.6" font-family="'Verdana'" font-size="10.9578">Besides being an important city of business, arts,</tspan><tspan x="0" y="65.7" font-family="'Verdana'" font-size="10.9578">sports and academics, Göteburg also hosts </tspan><tspan x="0" y="78.9" font-family="'Verdana'" font-size="10.9578">Liseberg, Scandinavia´s largest amusement park </tspan><tspan x="0" y="92" font-family="'Verdana'" font-size="10.9578">and Sweden´s most popular tourist destination. </tspan><tspan x="0" y="118.3" font-family="'Verdana'" font-size="10.9578">So when in Göteborg, be prepared for wild rides!</tspan></text>
<text transform="matrix(1 0 0 1 21.6397 380.3159)" font-family="'Verdana'" font-size="10.9578"> </text>
<text transform="matrix(1 0 0 1 21.6397 419.7637)" font-family="'Verdana'" font-size="10.9578"> </text>
<text transform="matrix(1 0 0 1 26.2052 603.8637)" font-family="'Verdana'" font-size="8.2183">Photo: Göteborg harbour (Göran Assner)</text>
</svg>
