<?xml version="1.0" encoding="utf-8"?>
<!-- Generator: Adobe Illustrator 17.1.0, SVG Export Plug-In . SVG Version: 6.00 Build 0)  -->
<!DOCTYPE svg PUBLIC "-//W3C//DTD SVG 1.1//EN" "http://www.w3.org/Graphics/SVG/1.1/DTD/svg11.dtd">
<svg version="1.1" id="Lager_1" xmlns="http://www.w3.org/2000/svg" xmlns:xlink="http://www.w3.org/1999/xlink" x="0px" y="0px"
	 viewBox="0 0 434.6 309.7" enable-background="new 0 0 434.6 309.7" xml:space="preserve">
<rect x="12.3" y="14.8" fill="none" stroke="#000000" stroke-miterlimit="10" width="408" height="280.1"/>
<line fill="none" stroke="#000000" stroke-miterlimit="10" x1="220.6" y1="30.6" x2="220.6" y2="285.8"/>
<line fill="none" stroke="#000000" stroke-width="0.9733" stroke-miterlimit="10" x1="229" y1="150.5" x2="413.8" y2="150.5"/>
<line fill="none" stroke="#000000" stroke-width="0.9733" stroke-miterlimit="10" x1="229" y1="188" x2="413.8" y2="188"/>
<line fill="none" stroke="#000000" stroke-width="0.9733" stroke-miterlimit="10" x1="229" y1="231.1" x2="413.8" y2="231.1"/>
<rect x="357" y="33.6" fill="none" stroke="#000000" stroke-miterlimit="10" width="44.2" height="48.8"/>
<text transform="matrix(1 0 0 1 232.6321 147.5472)"><tspan x="0" y="0" font-family="'TwCenMT-Bold'" font-size="18">LEKSAND</tspan><tspan x="72.5" y="0" font-family="'TwCenMT-Bold'" font-size="18" letter-spacing="30">	</tspan></text>
<text transform="matrix(1 0 0 1 232.6321 183.5472)" font-family="'TwCenMT-Bold'" font-size="18">Dalarna county</text>
<text transform="matrix(1 0 0 1 232.6321 227.5472)" font-family="'TwCenMT-Bold'" font-size="18">Population 5,934</text>
<text transform="matrix(1 0 0 1 17.799 57.9876)"><tspan x="0" y="0" font-family="'Verdana'" font-size="8">HEJ FROM LEKSAND!</tspan><tspan x="0" y="19.2" font-family="'Verdana'" font-size="8">Located in Dalarna region, best known for the </tspan><tspan x="0" y="28.8" font-family="'Verdana'" font-size="8">traditional painted wooden horse.</tspan><tspan x="0" y="48" font-family="'Verdana'" font-size="8">Best place to meet people in Leksand is local</tspan><tspan x="0" y="57.6" font-family="'Verdana'" font-size="8">ice hockey team´s home matches. They attract </tspan><tspan x="0" y="67.2" font-family="'Verdana'" font-size="8">on average over 6000 spectators, which is more</tspan><tspan x="0" y="76.8" font-family="'Verdana'" font-size="8">people than there is inhabitants in the town!</tspan><tspan x="0" y="96" font-family="'Verdana'" font-size="8">Leksand is also a major producer of knäckebröd,</tspan><tspan x="0" y="105.6" font-family="'Verdana'" font-size="8">crunchy dry bread typical for Sweden. </tspan><tspan x="0" y="115.2" font-family="'Verdana'" font-size="8">Taste it, but just don´t crumble it in the bed!</tspan></text>
<text transform="matrix(1 0 0 1 17.799 285.8174)" font-family="'Verdana'" font-size="6">Photo: Lake Siljan (Jacques de Villiers)</text>
</svg>
