<?xml version="1.0" encoding="utf-8"?>
<!-- Generator: Adobe Illustrator 17.1.0, SVG Export Plug-In . SVG Version: 6.00 Build 0)  -->
<!DOCTYPE svg PUBLIC "-//W3C//DTD SVG 1.1//EN" "http://www.w3.org/Graphics/SVG/1.1/DTD/svg11.dtd">
<svg version="1.1" id="Lager_1" xmlns="http://www.w3.org/2000/svg" xmlns:xlink="http://www.w3.org/1999/xlink" x="0px" y="0px"
	 viewBox="0 0 434.6 309.7" enable-background="new 0 0 434.6 309.7" xml:space="preserve">
<rect x="12.3" y="14.8" fill="none" stroke="#000000" stroke-miterlimit="10" width="408" height="280.1"/>
<line fill="none" stroke="#000000" stroke-miterlimit="10" x1="220.6" y1="30.6" x2="220.6" y2="285.8"/>
<line fill="none" stroke="#000000" stroke-width="0.9733" stroke-miterlimit="10" x1="229" y1="150.5" x2="413.8" y2="150.5"/>
<line fill="none" stroke="#000000" stroke-width="0.9733" stroke-miterlimit="10" x1="229" y1="188" x2="413.8" y2="188"/>
<line fill="none" stroke="#000000" stroke-width="0.9733" stroke-miterlimit="10" x1="229" y1="231.1" x2="413.8" y2="231.1"/>
<rect x="357" y="33.6" fill="none" stroke="#000000" stroke-miterlimit="10" width="44.2" height="48.8"/>
<text transform="matrix(1 0 0 1 232.6321 147.5472)"><tspan x="0" y="0" font-family="'TwCenMT-Bold'" font-size="18">MALMÖ</tspan><tspan x="61.9" y="0" font-family="'TwCenMT-Bold'" font-size="18" letter-spacing="5">	</tspan></text>
<text transform="matrix(1 0 0 1 232.6321 183.5472)" font-family="'TwCenMT-Bold'" font-size="18">Skåne county</text>
<text transform="matrix(1 0 0 1 232.6321 227.5472)" font-family="'TwCenMT-Bold'" font-size="18">Population 303,873</text>
<text transform="matrix(1 0 0 1 17.799 57.9876)"><tspan x="0" y="0" font-family="'Verdana'" font-size="8">GREETINGS FROM MALMÖ!</tspan><tspan x="0" y="19.2" font-family="'Verdana'" font-size="8">Sweden&apos;s third largest city located in Skåne, </tspan><tspan x="0" y="28.8" font-family="'Verdana'" font-size="8">country´s most southern region. </tspan><tspan x="0" y="48" font-family="'Verdana'" font-size="8">Once a bustling industrial city, Malmö today is </tspan><tspan x="0" y="57.6" font-family="'Verdana'" font-size="8">a creative hub and a gateway to continental </tspan><tspan x="0" y="67.2" font-family="'Verdana'" font-size="8">Europe with a bridge connecting to Denmark. </tspan><tspan x="0" y="86.4" font-family="'Verdana'" font-size="8">Malmö is best known for Scandinavia&apos;s tallest </tspan><tspan x="0" y="96" font-family="'Verdana'" font-size="8">skyscraper Turning Torso and the beautiful </tspan><tspan x="0" y="105.6" font-family="'Verdana'" font-size="8">Ribersborg beach, which in the summer </tspan><tspan x="0" y="115.2" font-family="'Verdana'" font-size="8">provides plenty of fun in the sun! </tspan></text>
<text transform="matrix(1 0 0 1 22.9656 284.3953)" font-family="'Verdana'" font-size="6">Photo:Turning Torso and Malmö seaside (Justin Brown)</text>
</svg>
