<?xml version="1.0" encoding="utf-8"?>
<!-- Generator: Adobe Illustrator 17.1.0, SVG Export Plug-In . SVG Version: 6.00 Build 0)  -->
<!DOCTYPE svg PUBLIC "-//W3C//DTD SVG 1.1//EN" "http://www.w3.org/Graphics/SVG/1.1/DTD/svg11.dtd">
<svg version="1.1" id="Lager_1" xmlns="http://www.w3.org/2000/svg" xmlns:xlink="http://www.w3.org/1999/xlink" x="0px" y="0px"
	 viewBox="-11.396 186.116 1110.349 143.443" enable-background="new -11.396 186.116 1110.349 143.443" xml:space="preserve">
<path fill="none" d=""/>
<g id="Layer_1_2_">
	<path fill="none" stroke="#000000" stroke-width="0.013" stroke-miterlimit="10" d="M101.04,268.19
		c0.759-0.559,0.784-1.121,0.142-1.798c-0.379-0.4-0.209-0.723,0.164-1.074l28.594,0.135c0.153,0.335,0.266,0.977-0.284,1.304
		c-0.267,0.159-0.122,0.942,0.178,1.275c0.101,0.113,0.001,0.315,0.123,0.408c0.146,0.113,0.158,0.107,0.269,0.217
		C115.17,270.532,101.04,268.19,101.04,268.19z"/>
	<path fill="#C41223" stroke="#000000" stroke-width="0.013" stroke-miterlimit="10" d="M129.961,268.234
		c0.663,0.66,1.364,1.772,1.456,3.174c-0.048,0.262-0.036,0.536-0.036,0.805c-0.003,3.403,0.013,6.807-0.006,10.21
		c-0.023,4.055-0.073,8.11-0.115,12.165c-0.022,2.113-0.048,4.225-0.084,6.338c-0.022,1.28,0.091,2.591-0.145,3.833
		c-0.424,2.233-1.488,4.085-3.984,4.523c-2.038,0.357-4.088,0.726-6.148,0.865c-2.508,0.17-5.037,0.226-7.548,0.112
		c-3.235-0.148-6.494-0.206-9.67-0.974c-1.532-0.37-2.519-1.388-3.188-2.77c-0.758-1.566-0.878-3.197-0.83-4.931
		c0.145-5.24,0.156-10.484,0.182-15.727c0.013-2.671-0.061-5.342-0.079-8.012c-0.015-2.304,0.008-4.607-0.017-6.911
		c-0.012-1.138,0.353-2.047,1.292-2.738c0,0,6.671,0.825,14.488,1.076C120.559,269.431,125.454,268.925,129.961,268.234z"/>
	<path stroke="#000000" stroke-width="0.013" stroke-miterlimit="10" d="M101.385,265.318c-1.146-0.388-1.268-0.544-1.333-1.667
		c-0.018-0.307-0.01-0.614-0.013-0.921c-0.011-0.843,0.069-1.024,0.817-1.462c2.193-1.277,4.955-1.325,7.452-1.525
		c3.042-0.243,6.106-0.271,9.156-0.217c3.355,0.06,7.01-0.119,10.274,0.735c1.354,0.354,1.577,0.733,2.548,1.021
		c0.236,0.07,0.616,0.751,0.65,1.042c0.083,0.723,0.161,1.466,0.07,2.18c-0.048,0.372-0.353,0.735-1.026,0.948
		C115.69,267.243,101.385,265.318,101.385,265.318z"/>
</g>
<path d="M99.735,274.87c0,0,7.36,0.763,16.136,0.763c5.07,0,10.719-0.315,15.479-0.763l-0.133,26.798
	c1.054-0.027-8.545,0.828-15.712,0.828c-6.973,0-15.912-0.828-15.912-0.828L99.735,274.87z"/>
<g id="Add_lines_2_">
	<path fill="none" stroke="#FFFFFF" stroke-width="0.013" stroke-miterlimit="10" d="M100.1,262.847c0,0,17.238,2.542,30.607-0.059"
		/>
	<path fill="none" d="M131.244,301.667c-13.774,2.601-31.651,0.059-31.651,0.059l0.14-27.429c0,0,17.876,2.542,31.651-0.059
		L131.244,301.667z"/>
	
		<text transform="matrix(0.9994 0.0349 -0.0349 0.9994 100.5964 279.2221)" fill="#FFFFFF" font-family="'TwCenMT-Bold'" font-size="3.3163">LINGONSYLT</text>
	<path fill="none" d="M100.421,279.589c0,0,12.064,1.856,22.103,1.347"/>
</g>
<text transform="matrix(0.9994 0.0349 -0.0349 0.9994 100.9295 280.681)" fill="#FFFFFF" font-family="'Verdana'" font-size="1.0612">Swedish lingonberry preserves</text>
<g id="Layer_1_1_">
	<path fill="none" stroke="#000000" stroke-width="0.0034" stroke-miterlimit="10" d="M3.835,299.427
		c0.201-0.148,0.208-0.296,0.038-0.475c-0.1-0.106-0.055-0.192,0.044-0.284l7.561,0.036c0.041,0.088,0.07,0.258-0.075,0.345
		c-0.07,0.042-0.032,0.249,0.047,0.337c0.027,0.029,0.001,0.083,0.032,0.108c0.039,0.029,0.041,0.028,0.071,0.058
		C7.571,300.046,3.835,299.427,3.835,299.427z"/>
	<path fill="#C41223" stroke="#000000" stroke-width="0.0034" stroke-miterlimit="10" d="M11.483,299.438
		c0.175,0.175,0.361,0.469,0.385,0.839c-0.013,0.069-0.01,0.142-0.01,0.213c-0.001,0.9,0.004,1.8-0.001,2.7
		c-0.006,1.072-0.019,2.144-0.03,3.217c-0.006,0.559-0.013,1.118-0.022,1.676c-0.006,0.338,0.024,0.685-0.038,1.014
		c-0.112,0.591-0.394,1.081-1.054,1.196c-0.539,0.095-1.081,0.192-1.626,0.229c-0.663,0.045-1.332,0.06-1.996,0.029
		c-0.855-0.039-1.717-0.055-2.558-0.258c-0.406-0.098-0.666-0.367-0.843-0.733c-0.201-0.414-0.232-0.846-0.22-1.304
		c0.038-1.386,0.041-2.772,0.048-4.159c0.004-0.706-0.016-1.412-0.021-2.119c-0.004-0.609,0.002-1.218-0.004-1.828
		c-0.004-0.301,0.093-0.541,0.342-0.724c0,0,1.764,0.218,3.831,0.284C8.997,299.754,10.291,299.621,11.483,299.438z"/>
	<path stroke="#000000" stroke-width="0.0034" stroke-miterlimit="10" d="M3.926,298.667c-0.303-0.102-0.335-0.144-0.352-0.441
		c-0.005-0.081-0.003-0.162-0.004-0.243c-0.003-0.222,0.018-0.271,0.216-0.387c0.58-0.337,1.31-0.351,1.97-0.403
		c0.805-0.065,1.615-0.072,2.421-0.058c0.887,0.015,1.854-0.032,2.717,0.194c0.358,0.093,0.417,0.194,0.674,0.27
		c0.062,0.018,0.163,0.199,0.172,0.276c0.022,0.191,0.043,0.388,0.019,0.577c-0.013,0.098-0.093,0.194-0.272,0.25
		C7.709,299.176,3.926,298.667,3.926,298.667z"/>
</g>
<path d="M3.489,301.193c0,0,1.946,0.201,4.267,0.201c1.341,0,2.835-0.083,4.094-0.201l-0.035,7.087
	c0.279-0.007-2.259,0.219-4.155,0.219c-1.844,0-4.208-0.219-4.208-0.219L3.489,301.193z"/>
<g id="Add_lines_1_">
	<path fill="none" stroke="#FFFFFF" stroke-width="0.0034" stroke-miterlimit="10" d="M3.586,298.014c0,0,4.559,0.672,8.094-0.015"
		/>
	<path fill="none" d="M11.822,308.28c-3.642,0.688-8.369,0.015-8.369,0.015l0.037-7.253c0,0,4.727,0.672,8.369-0.015L11.822,308.28z
		"/>
	
		<text transform="matrix(0.9994 0.0349 -0.0349 0.9994 3.7176 302.3438)" fill="#FFFFFF" font-family="'TwCenMT-Bold'" font-size="0.877">LINGONSYLT</text>
	<path fill="none" d="M3.671,302.441c0,0,3.19,0.49,5.845,0.356"/>
</g>
<text transform="matrix(0.9994 0.0349 -0.0349 0.9994 3.8054 302.7294)" fill="#FFFFFF" font-family="'Verdana'" font-size="0.2806">Swedish lingonberry preserves</text>
<g id="Layer_1_3_">
	<path fill="none" stroke="#000000" stroke-width="0.0062" stroke-miterlimit="10" d="M48.725,290.417
		c0.359-0.264,0.37-0.53,0.067-0.849c-0.179-0.189-0.099-0.342,0.077-0.507l13.508,0.064c0.072,0.158,0.126,0.462-0.134,0.616
		c-0.126,0.075-0.058,0.446,0.084,0.602c0.048,0.053,0.001,0.149,0.058,0.193c0.069,0.053,0.074,0.051,0.127,0.102
		C55.4,291.523,48.725,290.417,48.725,290.417z"/>
	<path fill="#C41223" stroke="#000000" stroke-width="0.0062" stroke-miterlimit="10" d="M62.387,290.438
		c0.314,0.312,0.645,0.837,0.688,1.499c-0.023,0.124-0.017,0.253-0.018,0.38c-0.001,1.608,0.006,3.216-0.003,4.823
		c-0.011,1.916-0.034,3.831-0.055,5.747c-0.011,0.998-0.022,1.996-0.04,2.994c-0.011,0.605,0.043,1.224-0.068,1.811
		c-0.2,1.055-0.702,1.93-1.882,2.137c-0.963,0.169-1.931,0.343-2.904,0.409c-1.185,0.08-2.38,0.107-3.565,0.053
		c-1.528-0.07-3.068-0.098-4.569-0.46c-0.724-0.175-1.19-0.655-1.506-1.309c-0.358-0.74-0.415-1.51-0.392-2.33
		c0.068-2.475,0.074-4.953,0.086-7.43c0.006-1.262-0.029-2.523-0.037-3.785c-0.008-1.088,0.004-2.177-0.008-3.265
		c-0.006-0.537,0.167-0.967,0.61-1.293c0,0,3.152,0.39,6.844,0.508C57.947,291.003,60.259,290.764,62.387,290.438z"/>
	<path stroke="#000000" stroke-width="0.0062" stroke-miterlimit="10" d="M48.889,289.06c-0.541-0.183-0.599-0.257-0.629-0.788
		c-0.008-0.145-0.004-0.29-0.006-0.435c-0.006-0.398,0.032-0.483,0.386-0.69c1.036-0.603,2.341-0.626,3.52-0.721
		c1.437-0.115,2.885-0.128,4.325-0.102c1.585,0.028,3.312-0.056,4.853,0.347c0.639,0.167,0.745,0.347,1.204,0.483
		c0.112,0.033,0.291,0.355,0.307,0.493c0.039,0.342,0.076,0.693,0.033,1.03c-0.022,0.175-0.166,0.347-0.485,0.448
		C55.647,289.97,48.889,289.06,48.889,289.06z"/>
</g>
<path d="M48.109,293.572c0,0,3.477,0.361,7.622,0.361c2.395,0,5.064-0.149,7.313-0.361l-0.062,12.659
	c0.497-0.013-4.037,0.392-7.422,0.392c-3.294,0-7.517-0.392-7.517-0.392L48.109,293.572z"/>
<g id="Add_lines_3_">
	<path fill="none" stroke="#FFFFFF" stroke-width="0.0062" stroke-miterlimit="10" d="M48.282,287.893c0,0,8.143,1.201,14.459-0.028
		"/>
	<path fill="none" d="M62.994,306.232c-6.507,1.229-14.952,0.028-14.952,0.028l0.066-12.958c0,0,8.445,1.201,14.952-0.028
		L62.994,306.232z"/>
	
		<text transform="matrix(0.9994 0.0349 -0.0349 0.9994 48.5157 295.628)" fill="#FFFFFF" font-family="'TwCenMT-Bold'" font-size="1.5666">LINGONSYLT</text>
	<path fill="none" d="M48.433,295.801c0,0,5.699,0.876,10.441,0.636"/>
</g>
<text transform="matrix(0.9994 0.0349 -0.0349 0.9994 48.6724 296.3174)" fill="#FFFFFF" font-family="'Verdana'" font-size="0.5013">Swedish lingonberry preserves</text>
<g id="Layer_1_4_">
	<path fill="none" stroke="#000000" stroke-width="0.0069" stroke-miterlimit="10" d="M969.445,288.087
		c0.403-0.297,0.417-0.596,0.076-0.955c-0.201-0.213-0.111-0.384,0.087-0.571l15.196,0.072c0.081,0.178,0.141,0.52-0.151,0.693
		c-0.142,0.084-0.065,0.501,0.095,0.677c0.054,0.06,0.001,0.167,0.065,0.217c0.078,0.06,0.084,0.057,0.143,0.116
		C976.954,289.332,969.445,288.087,969.445,288.087z"/>
	<path fill="none" stroke="#000000" stroke-width="0.0069" stroke-miterlimit="10" d="M984.815,288.111
		c0.352,0.351,0.725,0.942,0.774,1.687c-0.026,0.139-0.019,0.285-0.02,0.428c-0.001,1.809,0.007,3.618-0.004,5.426
		c-0.012,2.155-0.039,4.31-0.061,6.465c-0.012,1.123-0.025,2.246-0.045,3.368c-0.012,0.68,0.048,1.377-0.076,2.037
		c-0.225,1.187-0.791,2.171-2.118,2.404c-1.083,0.19-2.172,0.386-3.267,0.46c-1.333,0.09-2.678,0.12-4.011,0.059
		c-1.719-0.079-3.451-0.109-5.139-0.518c-0.815-0.197-1.339-0.737-1.695-1.472c-0.403-0.832-0.467-1.699-0.441-2.621
		c0.076-2.785,0.083-5.572,0.097-8.358c0.007-1.419-0.032-2.839-0.042-4.258c-0.008-1.224,0.004-2.449-0.009-3.673
		c-0.006-0.605,0.188-1.088,0.687-1.455c0,0,3.545,0.439,7.7,0.572C979.818,288.747,982.42,288.478,984.815,288.111z"/>
	<path stroke="#000000" stroke-width="0.0069" stroke-miterlimit="10" d="M969.628,286.561c-0.609-0.206-0.674-0.289-0.709-0.886
		c-0.01-0.163-0.005-0.326-0.007-0.49c-0.006-0.448,0.036-0.544,0.434-0.777c1.166-0.679,2.633-0.704,3.96-0.81
		c1.617-0.129,3.245-0.144,4.866-0.115c1.783,0.032,3.726-0.063,5.46,0.391c0.719,0.188,0.838,0.389,1.354,0.542
		c0.126,0.037,0.328,0.399,0.345,0.554c0.044,0.384,0.086,0.78,0.037,1.158c-0.025,0.198-0.187,0.39-0.545,0.504
		C977.231,287.584,969.628,286.561,969.628,286.561z"/>
</g>
<path d="M968.751,291.638c0,0,3.911,0.406,8.575,0.406c2.694,0,5.697-0.168,8.226-0.406l-0.07,14.242
	c0.56-0.015-4.541,0.44-8.351,0.44c-3.706,0-8.456-0.44-8.456-0.44L968.751,291.638z"/>
<g id="Add_lines_4_">
	<path fill="none" stroke="#FFFFFF" stroke-width="0.0069" stroke-miterlimit="10" d="M968.945,285.248
		c0,0,9.161,1.351,16.266-0.032"/>
	<path fill="none" d="M985.496,305.88c-7.32,1.382-16.821,0.032-16.821,0.032l0.074-14.577c0,0,9.5,1.351,16.821-0.032
		L985.496,305.88z"/>
	
		<text transform="matrix(0.9994 0.0349 -0.0349 0.9994 969.2087 293.9507)" fill="#FFFFFF" font-family="'TwCenMT-Bold'" font-size="1.7625">LINGONSYLT</text>
	<path fill="none" d="M969.116,294.146c0,0,6.411,0.987,11.746,0.716"/>
</g>
<text transform="matrix(0.9994 0.0349 -0.0349 0.9994 969.3647 294.7998)" fill="#FFFFFF" font-family="'Verdana'" font-size="0.564">Swedish lingonberry preserves</text>
<g id="Layer_1_5_">
	<path fill="none" stroke="#000000" stroke-width="0.0255" stroke-miterlimit="10" d="M168.828,227.846
		c1.485-1.094,1.535-2.194,0.279-3.519c-0.742-0.783-0.41-1.417,0.321-2.103l55.975,0.264c0.3,0.655,0.52,1.914-0.557,2.553
		c-0.522,0.31-0.239,1.845,0.348,2.495c0.199,0.22,0.004,0.616,0.241,0.799c0.286,0.22,0.309,0.21,0.527,0.426
		C196.489,232.431,168.828,227.846,168.828,227.846z"/>
	<path fill="#C41223" stroke="#000000" stroke-width="0.0255" stroke-miterlimit="10" d="M225.444,227.933
		c1.298,1.292,2.671,3.468,2.849,6.213c-0.095,0.512-0.071,1.05-0.072,1.576c-0.005,6.662,0.025,13.325-0.012,19.988
		c-0.045,7.939-0.142,15.876-0.226,23.814c-0.044,4.136-0.093,8.272-0.165,12.408c-0.044,2.506,0.179,5.072-0.283,7.504
		c-0.829,4.373-2.912,7.997-7.8,8.854c-3.99,0.7-8.003,1.422-12.036,1.695c-4.91,0.332-9.862,0.442-14.775,0.218
		c-6.334-0.29-12.712-0.404-18.931-1.907c-3-0.726-4.931-2.717-6.241-5.422c-1.484-3.066-1.719-6.259-1.625-9.654
		c0.283-10.258,0.306-20.524,0.356-30.788c0.027-5.227-0.12-10.457-0.155-15.685c-0.031-4.51,0.016-9.02-0.032-13.53
		c-0.024-2.228,0.691-4.007,2.53-5.359c0,0,13.061,1.616,28.363,2.106C207.041,230.275,216.622,229.285,225.444,227.933z"/>
	<path stroke="#000000" stroke-width="0.0255" stroke-miterlimit="10" d="M169.504,222.225c-2.243-0.759-2.482-1.064-2.609-3.264
		c-0.035-0.6-0.019-1.202-0.027-1.804c-0.022-1.649,0.135-2.004,1.599-2.861c4.294-2.501,9.7-2.595,14.587-2.986
		c5.956-0.476,11.953-0.53,17.923-0.425c6.568,0.116,13.724-0.232,20.112,1.44c2.65,0.693,3.087,1.436,4.99,1.999
		c0.462,0.137,1.206,1.471,1.272,2.04c0.163,1.415,0.315,2.871,0.138,4.268c-0.093,0.728-0.69,1.438-2.008,1.856
		C197.51,225.993,169.504,222.225,169.504,222.225z"/>
</g>
<path d="M166.272,240.923c0,0,14.408,1.493,31.587,1.493c9.925,0,20.985-0.617,30.303-1.493l-0.26,52.461
	c2.063-0.053-16.728,1.621-30.759,1.621c-13.652,0-31.149-1.621-31.149-1.621L166.272,240.923z"/>
<g id="Add_lines_5_">
	<path fill="none" stroke="#FFFFFF" stroke-width="0.0255" stroke-miterlimit="10" d="M166.989,217.386
		c0,0,33.745,4.976,59.917-0.116"/>
	<path fill="none" d="M227.956,293.383c-26.966,5.092-61.961,0.116-61.961,0.116l0.273-53.696c0,0,34.994,4.976,61.961-0.116
		L227.956,293.383z"/>
	
		<text transform="matrix(0.9994 0.0349 -0.0349 0.9994 167.9617 249.4434)" fill="#FFFFFF" font-family="'TwCenMT-Bold'" font-size="6.4922">LINGONSYLT</text>
	<path fill="none" d="M167.616,250.161c0,0,23.616,3.633,43.268,2.638"/>
</g>
<text transform="matrix(0.9994 0.0349 -0.0349 0.9994 168.6116 252.2989)" fill="#FFFFFF" font-family="'Verdana'" font-size="2.0774">Swedish lingonberry preserves</text>
<g id="Layer_1_6_">
	<path fill="none" stroke="#000000" stroke-width="0.0238" stroke-miterlimit="10" d="M267.116,233.417
		c1.385-1.02,1.431-2.046,0.26-3.281c-0.693-0.73-0.382-1.321,0.3-1.961l52.195,0.246c0.279,0.61,0.485,1.784-0.519,2.381
		c-0.487,0.289-0.222,1.72,0.325,2.327c0.185,0.206,0.004,0.575,0.225,0.745c0.267,0.206,0.288,0.195,0.491,0.397
		C292.91,237.692,267.116,233.417,267.116,233.417z"/>
	<path fill="#C41223" stroke="#000000" stroke-width="0.0238" stroke-miterlimit="10" d="M319.909,233.498
		c1.21,1.204,2.49,3.233,2.657,5.794c-0.089,0.478-0.066,0.979-0.067,1.469c-0.005,6.213,0.024,12.425-0.011,18.638
		c-0.042,7.403-0.133,14.804-0.21,22.206c-0.041,3.857-0.086,7.713-0.154,11.57c-0.041,2.337,0.167,4.729-0.264,6.996
		c-0.773,4.077-2.715,7.457-7.273,8.256c-3.721,0.653-7.463,1.326-11.222,1.58c-4.578,0.309-9.196,0.412-13.777,0.203
		c-5.906-0.27-11.854-0.377-17.653-1.778c-2.798-0.676-4.598-2.533-5.82-5.056c-1.384-2.859-1.603-5.836-1.516-9.001
		c0.264-9.566,0.285-19.139,0.333-28.709c0.025-4.874-0.112-9.75-0.145-14.626c-0.029-4.205,0.015-8.411-0.03-12.616
		c-0.022-2.078,0.645-3.736,2.359-4.997c0,0,12.178,1.506,26.447,1.963C302.748,235.681,311.683,234.758,319.909,233.498z"/>
	<path stroke="#000000" stroke-width="0.0238" stroke-miterlimit="10" d="M267.747,228.175c-2.091-0.708-2.314-0.992-2.433-3.044
		c-0.032-0.56-0.018-1.121-0.025-1.683c-0.02-1.538,0.126-1.869,1.491-2.668c4.004-2.332,9.045-2.42,13.602-2.784
		c5.553-0.443,11.145-0.495,16.713-0.396c6.124,0.109,12.797-0.217,18.753,1.342c2.471,0.646,2.879,1.339,4.652,1.864
		c0.431,0.128,1.125,1.372,1.186,1.902c0.152,1.319,0.294,2.677,0.128,3.98c-0.086,0.679-0.644,1.341-1.873,1.731
		C293.86,231.689,267.747,228.175,267.747,228.175z"/>
</g>
<path d="M264.733,245.61c0,0,13.435,1.393,29.454,1.393c9.254,0,19.567-0.575,28.256-1.393l-0.242,48.917
	c1.923-0.05-15.597,1.511-28.681,1.511c-12.73,0-29.045-1.511-29.045-1.511L264.733,245.61z"/>
<g id="Add_lines_6_">
	<path fill="none" stroke="#FFFFFF" stroke-width="0.0238" stroke-miterlimit="10" d="M265.401,223.663c0,0,31.466,4.64,55.87-0.108
		"/>
	<path fill="none" d="M322.251,294.527c-25.144,4.748-57.776,0.108-57.776,0.108l0.255-50.07c0,0,32.631,4.64,57.776-0.108
		L322.251,294.527z"/>
	
		<text transform="matrix(0.9994 0.0349 -0.0349 0.9994 266.3089 253.5536)" fill="#FFFFFF" font-family="'TwCenMT-Bold'" font-size="6.0537">LINGONSYLT</text>
	<path fill="none" d="M265.986,254.224c0,0,22.021,3.388,40.346,2.459"/>
</g>
<text transform="matrix(0.9994 0.0349 -0.0349 0.9994 266.9155 256.218)" fill="#FFFFFF" font-family="'Verdana'" font-size="1.9372">Swedish lingonberry preserves</text>
<g id="Layer_1_7_">
	<path fill="none" stroke="#000000" stroke-width="0.0241" stroke-miterlimit="10" d="M359.118,232.498
		c1.402-1.032,1.448-2.071,0.262-3.32c-0.7-0.739-0.387-1.337,0.303-1.984l52.819,0.249c0.283,0.617,0.491,1.806-0.526,2.41
		c-0.493,0.293-0.225,1.741,0.328,2.355c0.187,0.208,0.004,0.582,0.227,0.754c0.27,0.208,0.292,0.198,0.497,0.401
		C385.22,236.823,359.118,232.498,359.118,232.498z"/>
	<path fill="#C41223" stroke="#000000" stroke-width="0.0241" stroke-miterlimit="10" d="M412.542,232.579
		c1.225,1.219,2.52,3.272,2.689,5.863c-0.09,0.483-0.067,0.991-0.067,1.487c-0.005,6.286,0.024,12.574-0.011,18.86
		c-0.043,7.491-0.134,14.981-0.213,22.471c-0.041,3.903-0.088,7.806-0.156,11.708c-0.042,2.365,0.168,4.786-0.267,7.081
		c-0.782,4.126-2.748,7.546-7.36,8.355c-3.766,0.66-7.552,1.342-11.356,1.598c-4.633,0.314-9.305,0.417-13.942,0.206
		c-5.976-0.273-11.996-0.382-17.863-1.8c-2.831-0.685-4.653-2.564-5.89-5.116c-1.401-2.893-1.622-5.906-1.534-9.109
		c0.267-9.68,0.288-19.367,0.337-29.052c0.025-4.933-0.113-9.868-0.146-14.801c-0.029-4.256,0.015-8.511-0.031-12.767
		c-0.022-2.102,0.653-3.781,2.387-5.058c0,0,12.324,1.525,26.763,1.987C395.175,234.789,404.217,233.854,412.542,232.579z"/>
	<path stroke="#000000" stroke-width="0.0241" stroke-miterlimit="10" d="M359.756,227.192c-2.116-0.716-2.342-1.004-2.462-3.08
		c-0.033-0.566-0.018-1.135-0.025-1.702c-0.021-1.556,0.127-1.891,1.509-2.699c4.052-2.36,9.153-2.449,13.765-2.817
		c5.62-0.449,11.279-0.5,16.913-0.401c6.197,0.11,12.95-0.22,18.978,1.358c2.5,0.654,2.913,1.354,4.708,1.886
		c0.436,0.129,1.138,1.389,1.201,1.925c0.154,1.335,0.298,2.709,0.13,4.028c-0.088,0.687-0.652,1.357-1.895,1.751
		C386.181,230.748,359.756,227.192,359.756,227.192z"/>
</g>
<path d="M356.707,244.836c0,0,13.595,1.409,29.805,1.409c9.365,0,19.801-0.582,28.594-1.409l-0.245,49.503
	c1.946-0.051-15.784,1.53-29.024,1.53c-12.881,0-29.393-1.53-29.393-1.53L356.707,244.836z"/>
<g id="Add_lines_7_">
	<path fill="none" stroke="#FFFFFF" stroke-width="0.0241" stroke-miterlimit="10" d="M357.382,222.627
		c0,0,31.842,4.696,56.538-0.109"/>
	<path fill="none" d="M414.912,294.338c-25.445,4.805-58.466,0.109-58.466,0.109l0.258-50.668c0,0,33.021,4.696,58.466-0.109
		L414.912,294.338z"/>
	
		<text transform="matrix(0.9994 0.0349 -0.0349 0.9994 358.3005 252.876)" fill="#FFFFFF" font-family="'TwCenMT-Bold'" font-size="6.126">LINGONSYLT</text>
	<path fill="none" d="M357.974,253.553c0,0,22.284,3.428,40.829,2.489"/>
</g>
<text transform="matrix(0.9994 0.0349 -0.0349 0.9994 358.914 255.5708)" fill="#FFFFFF" font-family="'Verdana'" font-size="1.9603">Swedish lingonberry preserves</text>
<g id="Layer_1_8_">
	<path fill="none" stroke="#000000" stroke-width="0.0197" stroke-miterlimit="10" d="M446.795,246.504
		c1.149-0.846,1.188-1.698,0.215-2.722c-0.575-0.606-0.317-1.096,0.248-1.627l43.312,0.204c0.232,0.507,0.403,1.481-0.431,1.976
		c-0.404,0.24-0.185,1.428,0.269,1.931c0.154,0.171,0.003,0.477,0.187,0.619c0.221,0.171,0.239,0.162,0.408,0.329
		C468.199,250.052,446.795,246.504,446.795,246.504z"/>
	<path fill="#C41223" stroke="#000000" stroke-width="0.0197" stroke-miterlimit="10" d="M490.604,246.571
		c1.005,0.999,2.066,2.683,2.205,4.808c-0.074,0.396-0.055,0.813-0.055,1.219c-0.004,5.155,0.02,10.311-0.009,15.465
		c-0.035,6.142-0.11,12.285-0.175,18.426c-0.034,3.2-0.072,6.401-0.128,9.6c-0.034,1.939,0.138,3.924-0.219,5.806
		c-0.641,3.383-2.253,6.188-6.035,6.851c-3.088,0.542-6.193,1.1-9.312,1.311c-3.799,0.257-7.631,0.342-11.433,0.168
		c-4.9-0.224-9.837-0.313-14.648-1.476c-2.322-0.561-3.816-2.102-4.83-4.195c-1.148-2.372-1.33-4.843-1.257-7.469
		c0.219-7.938,0.236-15.882,0.276-23.823c0.02-4.045-0.093-8.091-0.12-12.137c-0.024-3.489,0.013-6.979-0.025-10.469
		c-0.018-1.724,0.535-3.1,1.957-4.147c0,0,10.106,1.25,21.946,1.629C476.363,248.383,483.777,247.616,490.604,246.571z"/>
	<path stroke="#000000" stroke-width="0.0197" stroke-miterlimit="10" d="M447.318,242.154c-1.735-0.587-1.92-0.824-2.019-2.526
		c-0.027-0.465-0.015-0.93-0.02-1.396c-0.017-1.276,0.104-1.551,1.237-2.214c3.323-1.935,7.506-2.008,11.287-2.311
		c4.609-0.368,9.249-0.41,13.869-0.329c5.082,0.091,10.619-0.18,15.562,1.114c2.05,0.536,2.388,1.111,3.861,1.547
		c0.358,0.106,0.933,1.138,0.984,1.579c0.126,1.095,0.243,2.221,0.107,3.303c-0.072,0.563-0.534,1.113-1.554,1.436
		C468.988,245.07,447.318,242.154,447.318,242.154z"/>
</g>
<path d="M444.818,256.622c0,0,11.149,1.156,24.441,1.156c7.68,0,16.237-0.478,23.448-1.156l-0.201,40.593
	c1.596-0.041-12.943,1.255-23.8,1.255c-10.563,0-24.102-1.255-24.102-1.255L444.818,256.622z"/>
<g id="Add_lines_8_">
	<path fill="none" stroke="#FFFFFF" stroke-width="0.0197" stroke-miterlimit="10" d="M445.371,238.41c0,0,26.111,3.851,46.362-0.09
		"/>
	<path fill="none" d="M492.547,297.214c-20.865,3.941-47.943,0.09-47.943,0.09l0.211-41.549c0,0,27.077,3.851,47.943-0.09
		L492.547,297.214z"/>
	
		<text transform="matrix(0.9994 0.0349 -0.0349 0.9994 446.1253 263.2144)" fill="#FFFFFF" font-family="'TwCenMT-Bold'" font-size="5.0234">LINGONSYLT</text>
	<path fill="none" d="M445.857,263.77c0,0,18.273,2.811,33.48,2.041"/>
</g>
<text transform="matrix(0.9994 0.0349 -0.0349 0.9994 446.6286 265.4247)" fill="#FFFFFF" font-family="'Verdana'" font-size="1.6075">Swedish lingonberry preserves</text>
<g id="Layer_1_9_">
	<path fill="none" stroke="#000000" stroke-width="0.0117" stroke-miterlimit="10" d="M522.818,272.769
		c0.682-0.502,0.704-1.007,0.128-1.615c-0.341-0.359-0.188-0.65,0.147-0.966l25.694,0.121c0.138,0.3,0.239,0.878-0.255,1.172
		c-0.239,0.142-0.109,0.847,0.16,1.145c0.091,0.101,0.001,0.283,0.111,0.367c0.131,0.101,0.142,0.096,0.242,0.195
		C535.515,274.874,522.818,272.769,522.818,272.769z"/>
	<path fill="#C41223" stroke="#000000" stroke-width="0.0117" stroke-miterlimit="10" d="M548.806,272.809
		c0.596,0.593,1.226,1.592,1.308,2.852c-0.044,0.235-0.032,0.482-0.033,0.723c-0.002,3.058,0.012,6.116-0.006,9.174
		c-0.021,3.644-0.065,7.288-0.104,10.931c-0.02,1.899-0.043,3.797-0.076,5.695c-0.02,1.15,0.082,2.328-0.13,3.444
		c-0.38,2.007-1.337,3.671-3.58,4.064c-1.832,0.321-3.674,0.653-5.524,0.777c-2.254,0.152-4.526,0.203-6.782,0.1
		c-2.907-0.133-5.835-0.186-8.689-0.876c-1.377-0.333-2.264-1.247-2.865-2.489c-0.681-1.408-0.789-2.873-0.746-4.431
		c0.13-4.709,0.14-9.421,0.164-14.132c0.012-2.4-0.055-4.8-0.071-7.2c-0.014-2.07,0.008-4.141-0.015-6.21
		c-0.011-1.023,0.317-1.839,1.161-2.46c0,0,5.995,0.742,13.019,0.966C540.358,273.884,544.757,273.429,548.806,272.809z"/>
	<path stroke="#000000" stroke-width="0.0117" stroke-miterlimit="10" d="M523.129,270.189c-1.029-0.349-1.14-0.488-1.198-1.498
		c-0.016-0.276-0.008-0.552-0.012-0.828c-0.01-0.757,0.062-0.92,0.734-1.313c1.971-1.148,4.453-1.191,6.696-1.37
		c2.734-0.218,5.486-0.243,8.227-0.195c3.014,0.053,6.3-0.107,9.232,0.661c1.216,0.318,1.417,0.659,2.29,0.918
		c0.212,0.063,0.554,0.675,0.584,0.936c0.075,0.65,0.145,1.318,0.063,1.959c-0.043,0.334-0.317,0.66-0.922,0.852
		C535.983,271.919,523.129,270.189,523.129,270.189z"/>
</g>
<path d="M521.645,278.772c0,0,6.614,0.686,14.499,0.686c4.556,0,9.633-0.283,13.91-0.686l-0.119,24.081
	c0.947-0.025-7.678,0.744-14.119,0.744c-6.266,0-14.298-0.744-14.298-0.744L521.645,278.772z"/>
<g id="Add_lines_9_">
	<path fill="none" stroke="#FFFFFF" stroke-width="0.0117" stroke-miterlimit="10" d="M521.974,267.968
		c0,0,15.49,2.284,27.503-0.053"/>
	<path fill="none" d="M549.959,302.852c-12.377,2.337-28.441,0.053-28.441,0.053l0.126-24.647c0,0,16.063,2.284,28.441-0.053
		L549.959,302.852z"/>
	
		<text transform="matrix(0.9994 0.0349 -0.0349 0.9994 522.4209 282.6824)" fill="#FFFFFF" font-family="'TwCenMT-Bold'" font-size="2.98">LINGONSYLT</text>
	<path fill="none" d="M522.261,283.012c0,0,10.84,1.668,19.861,1.21"/>
</g>
<text transform="matrix(0.9994 0.0349 -0.0349 0.9994 522.7193 283.9934)" fill="#FFFFFF" font-family="'Verdana'" font-size="0.9536">Swedish lingonberry preserves</text>
<g id="Layer_1_10_">
	<path fill="none" stroke="#000000" stroke-width="0.0099" stroke-miterlimit="10" d="M579.353,279.218
		c0.575-0.423,0.594-0.849,0.108-1.361c-0.287-0.303-0.159-0.548,0.124-0.814l21.656,0.102c0.116,0.253,0.201,0.74-0.215,0.988
		c-0.202,0.12-0.092,0.714,0.135,0.965c0.076,0.086,0.001,0.239,0.093,0.309c0.111,0.086,0.119,0.081,0.204,0.165
		C590.055,280.992,579.353,279.218,579.353,279.218z"/>
	<path fill="#C41223" stroke="#000000" stroke-width="0.0099" stroke-miterlimit="10" d="M601.257,279.252
		c0.502,0.5,1.034,1.342,1.102,2.404c-0.037,0.199-0.027,0.406-0.027,0.61c-0.002,2.577,0.01,5.155-0.005,7.733
		c-0.018,3.071-0.055,6.142-0.087,9.213c-0.017,1.6-0.036,3.2-0.064,4.8c-0.017,0.97,0.069,1.962-0.109,2.903
		c-0.321,1.692-1.126,3.094-3.018,3.426c-1.544,0.271-3.096,0.55-4.656,0.655c-1.899,0.128-3.816,0.171-5.716,0.084
		c-2.45-0.112-4.918-0.156-7.324-0.738c-1.161-0.281-1.908-1.051-2.414-2.097c-0.574-1.186-0.665-2.421-0.629-3.735
		c0.109-3.969,0.119-7.941,0.138-11.911c0.01-2.022-0.046-4.046-0.06-6.069c-0.012-1.745,0.006-3.489-0.013-5.234
		c-0.009-0.862,0.267-1.55,0.979-2.073c0,0,5.053,0.625,10.973,0.815C594.137,280.158,597.844,279.775,601.257,279.252z"/>
	<path stroke="#000000" stroke-width="0.0099" stroke-miterlimit="10" d="M579.615,277.043c-0.868-0.294-0.96-0.412-1.01-1.263
		c-0.013-0.232-0.007-0.465-0.01-0.698c-0.008-0.638,0.052-0.775,0.619-1.107c1.662-0.968,3.753-1.004,5.644-1.155
		c2.304-0.184,4.625-0.205,6.935-0.164c2.541,0.045,5.31-0.09,7.781,0.557c1.025,0.268,1.194,0.555,1.93,0.773
		c0.179,0.053,0.467,0.569,0.492,0.789c0.063,0.547,0.122,1.111,0.053,1.651c-0.036,0.281-0.267,0.556-0.777,0.718
		C590.449,278.501,579.615,277.043,579.615,277.043z"/>
</g>
<path d="M578.364,284.277c0,0,5.574,0.577,12.22,0.577c3.839,0,8.118-0.239,11.724-0.577l-0.1,20.296
	c0.798-0.021-6.471,0.627-11.9,0.627c-5.281,0-12.051-0.627-12.051-0.627L578.364,284.277z"/>
<g id="Add_lines_10_">
	<path fill="none" stroke="#FFFFFF" stroke-width="0.0099" stroke-miterlimit="10" d="M578.641,275.171
		c0,0,13.056,1.925,23.181-0.045"/>
	<path fill="none" d="M602.229,304.573c-10.432,1.97-23.972,0.045-23.972,0.045l0.106-20.774c0,0,13.539,1.925,23.972-0.045
		L602.229,304.573z"/>
	
		<text transform="matrix(0.9994 0.0349 -0.0349 0.9994 579.019 287.5728)" fill="#FFFFFF" font-family="'TwCenMT-Bold'" font-size="2.5117">LINGONSYLT</text>
	<path fill="none" d="M578.884,287.851c0,0,9.136,1.405,16.74,1.02"/>
</g>
<text transform="matrix(0.9994 0.0349 -0.0349 0.9994 579.2707 288.6779)" fill="#FFFFFF" font-family="'Verdana'" font-size="0.8038">Swedish lingonberry preserves</text>
<g id="Layer_1_11_">
	<path fill="none" stroke="#000000" stroke-width="0.0051" stroke-miterlimit="10" d="M625.879,294.131
		c0.297-0.219,0.307-0.439,0.055-0.704c-0.149-0.156-0.082-0.283,0.064-0.42l11.195,0.053c0.06,0.131,0.104,0.383-0.112,0.511
		c-0.105,0.062-0.048,0.369,0.069,0.499c0.04,0.044,0.001,0.124,0.048,0.16c0.057,0.044,0.062,0.042,0.105,0.085
		C631.411,295.048,625.879,294.131,625.879,294.131z"/>
	<path fill="#C41223" stroke="#000000" stroke-width="0.0051" stroke-miterlimit="10" d="M637.203,294.148
		c0.26,0.258,0.534,0.693,0.57,1.243c-0.019,0.102-0.014,0.21-0.014,0.315c-0.001,1.332,0.005,2.665-0.002,3.997
		c-0.009,1.588-0.029,3.175-0.045,4.763c-0.008,0.827-0.018,1.655-0.033,2.482c-0.009,0.501,0.036,1.015-0.057,1.501
		c-0.166,0.874-0.582,1.599-1.56,1.771c-0.798,0.14-1.601,0.284-2.407,0.339c-0.982,0.067-1.972,0.088-2.955,0.043
		c-1.266-0.058-2.542-0.081-3.786-0.382c-0.6-0.145-0.987-0.543-1.248-1.084c-0.297-0.613-0.344-1.252-0.325-1.931
		c0.057-2.052,0.061-4.105,0.072-6.158c0.006-1.046-0.024-2.092-0.031-3.137c-0.006-0.902,0.003-1.804-0.006-2.706
		c-0.005-0.446,0.138-0.801,0.506-1.072c0,0,2.612,0.323,5.672,0.421C633.522,294.617,635.438,294.418,637.203,294.148z"/>
	<path stroke="#000000" stroke-width="0.0051" stroke-miterlimit="10" d="M626.014,293.007c-0.448-0.152-0.496-0.213-0.522-0.653
		c-0.007-0.12-0.003-0.241-0.006-0.361c-0.004-0.33,0.027-0.401,0.32-0.572c0.859-0.5,1.94-0.519,2.918-0.597
		c1.191-0.095,2.391-0.106,3.585-0.085c1.314,0.023,2.745-0.046,4.023,0.288c0.53,0.139,0.617,0.287,0.998,0.4
		c0.093,0.027,0.241,0.294,0.255,0.408c0.033,0.283,0.063,0.574,0.027,0.854c-0.018,0.145-0.138,0.288-0.401,0.371
		C631.615,293.76,626.014,293.007,626.014,293.007z"/>
</g>
<path d="M625.368,296.746c0,0,2.882,0.299,6.317,0.299c1.985,0,4.197-0.123,6.06-0.299l-0.052,10.492
	c0.413-0.011-3.346,0.324-6.151,0.324c-2.73,0-6.23-0.324-6.23-0.324L625.368,296.746z"/>
<g id="Add_lines_11_">
	<path fill="none" stroke="#FFFFFF" stroke-width="0.0051" stroke-miterlimit="10" d="M625.511,292.039
		c0,0,6.749,0.995,11.983-0.023"/>
	<path fill="none" d="M637.704,307.238c-5.393,1.018-12.392,0.023-12.392,0.023l0.055-10.739c0,0,6.999,0.995,12.392-0.023
		L637.704,307.238z"/>
	
		<text transform="matrix(0.9994 0.0349 -0.0349 0.9994 625.7062 298.4499)" fill="#FFFFFF" font-family="'TwCenMT-Bold'" font-size="1.2984">LINGONSYLT</text>
	<path fill="none" d="M625.636,298.594c0,0,4.723,0.727,8.654,0.528"/>
</g>
<text transform="matrix(0.9994 0.0349 -0.0349 0.9994 625.8222 299.0754)" fill="#FFFFFF" font-family="'Verdana'" font-size="0.4155">Swedish lingonberry preserves</text>
<g id="Layer_1_12_">
	<path fill="none" stroke="#000000" stroke-width="0.0026" stroke-miterlimit="10" d="M654.798,302.189
		c0.152-0.112,0.157-0.225,0.029-0.36c-0.076-0.08-0.042-0.145,0.033-0.215l5.726,0.027c0.031,0.067,0.053,0.196-0.057,0.261
		c-0.053,0.032-0.025,0.189,0.036,0.255c0.02,0.022,0,0.063,0.025,0.082c0.029,0.022,0.032,0.022,0.054,0.044
		C657.628,302.658,654.798,302.189,654.798,302.189z"/>
	<path fill="#C41223" stroke="#000000" stroke-width="0.0026" stroke-miterlimit="10" d="M660.589,302.198
		c0.133,0.132,0.273,0.355,0.291,0.636c-0.01,0.053-0.007,0.107-0.007,0.161c-0.001,0.681,0.003,1.363-0.001,2.045
		c-0.005,0.812-0.015,1.624-0.023,2.436c-0.004,0.423-0.01,0.846-0.017,1.269c-0.004,0.256,0.018,0.519-0.029,0.768
		c-0.085,0.448-0.297,0.818-0.798,0.906c-0.408,0.072-0.819,0.145-1.231,0.173c-0.502,0.034-1.009,0.045-1.511,0.022
		c-0.648-0.029-1.3-0.041-1.937-0.195c-0.307-0.074-0.504-0.278-0.638-0.554c-0.152-0.314-0.176-0.64-0.166-0.987
		c0.029-1.05,0.032-2.099,0.036-3.15c0.003-0.535-0.013-1.07-0.016-1.605c-0.003-0.462,0.001-0.923-0.004-1.384
		c-0.002-0.228,0.071-0.41,0.259-0.548c0,0,1.336,0.166,2.901,0.215C658.707,302.437,659.687,302.336,660.589,302.198z"/>
	<path stroke="#000000" stroke-width="0.0026" stroke-miterlimit="10" d="M654.867,301.614c-0.229-0.078-0.254-0.109-0.267-0.334
		c-0.004-0.062-0.002-0.123-0.003-0.185c-0.002-0.168,0.014-0.205,0.163-0.293c0.439-0.256,0.992-0.265,1.492-0.305
		c0.609-0.048,1.223-0.054,1.833-0.043c0.672,0.012,1.404-0.024,2.057,0.147c0.271,0.071,0.316,0.147,0.51,0.204
		c0.047,0.014,0.123,0.15,0.13,0.208c0.017,0.145,0.032,0.294,0.014,0.436c-0.01,0.074-0.071,0.147-0.206,0.19
		C657.731,301.999,654.867,301.614,654.867,301.614z"/>
</g>
<path d="M654.536,303.527c0,0,1.474,0.153,3.231,0.153c1.015,0,2.146-0.063,3.1-0.153l-0.027,5.366
	c0.211-0.006-1.711,0.166-3.146,0.166c-1.396,0-3.186-0.166-3.186-0.166L654.536,303.527z"/>
<g id="Add_lines_12_">
	<path fill="none" stroke="#FFFFFF" stroke-width="0.0026" stroke-miterlimit="10" d="M654.61,301.119c0,0,3.452,0.509,6.129-0.012"
		/>
	<path fill="none" d="M660.846,308.893c-2.758,0.521-6.338,0.012-6.338,0.012l0.028-5.493c0,0,3.58,0.509,6.338-0.012
		L660.846,308.893z"/>
	
		<text transform="matrix(0.9994 0.0349 -0.0349 0.9994 654.7087 304.3979)" fill="#FFFFFF" font-family="'TwCenMT-Bold'" font-size="0.6641">LINGONSYLT</text>
	<path fill="none" d="M654.674,304.472c0,0,2.416,0.372,4.426,0.27"/>
</g>
<text transform="matrix(0.9994 0.0349 -0.0349 0.9994 654.7676 304.718)" fill="#FFFFFF" font-family="'Verdana'" font-size="0.2125">Swedish lingonberry preserves</text>
<g id="Layer_1_13_">
	<path fill="none" stroke="#000000" stroke-width="0.0026" stroke-miterlimit="10" d="M689.195,302.189
		c0.152-0.112,0.157-0.225,0.029-0.36c-0.076-0.08-0.042-0.145,0.033-0.215l5.726,0.027c0.031,0.067,0.053,0.196-0.057,0.261
		c-0.053,0.032-0.025,0.189,0.036,0.255c0.02,0.022,0,0.063,0.025,0.082c0.029,0.022,0.032,0.022,0.054,0.044
		C692.024,302.658,689.195,302.189,689.195,302.189z"/>
	<path fill="#C41223" stroke="#000000" stroke-width="0.0026" stroke-miterlimit="10" d="M694.987,302.198
		c0.133,0.132,0.273,0.355,0.291,0.636c-0.01,0.053-0.007,0.107-0.007,0.161c-0.001,0.681,0.003,1.363-0.001,2.045
		c-0.005,0.812-0.015,1.624-0.023,2.436c-0.004,0.423-0.01,0.846-0.017,1.269c-0.004,0.256,0.018,0.519-0.029,0.768
		c-0.085,0.448-0.297,0.818-0.798,0.906c-0.408,0.072-0.819,0.145-1.231,0.173c-0.502,0.034-1.009,0.045-1.511,0.022
		c-0.648-0.029-1.3-0.041-1.937-0.195c-0.307-0.074-0.505-0.278-0.638-0.554c-0.152-0.314-0.176-0.64-0.166-0.987
		c0.029-1.05,0.032-2.099,0.036-3.15c0.003-0.535-0.013-1.07-0.016-1.605c-0.004-0.462,0.001-0.923-0.004-1.384
		c-0.002-0.228,0.071-0.41,0.259-0.548c0,0,1.336,0.166,2.901,0.215C693.104,302.437,694.084,302.336,694.987,302.198z"/>
	<path stroke="#000000" stroke-width="0.0026" stroke-miterlimit="10" d="M689.264,301.614c-0.229-0.078-0.254-0.109-0.267-0.334
		c-0.004-0.062-0.002-0.123-0.003-0.185c-0.002-0.168,0.014-0.205,0.164-0.293c0.439-0.256,0.992-0.265,1.492-0.305
		c0.609-0.048,1.223-0.054,1.833-0.043c0.672,0.012,1.404-0.024,2.057,0.147c0.271,0.071,0.316,0.147,0.51,0.204
		c0.047,0.014,0.124,0.15,0.13,0.208c0.017,0.145,0.032,0.294,0.014,0.436c-0.009,0.074-0.071,0.147-0.206,0.19
		C692.129,301.999,689.264,301.614,689.264,301.614z"/>
</g>
<path d="M688.933,303.527c0,0,1.474,0.153,3.231,0.153c1.015,0,2.146-0.063,3.1-0.153l-0.027,5.366
	c0.211-0.006-1.711,0.166-3.146,0.166c-1.396,0-3.186-0.166-3.186-0.166L688.933,303.527z"/>
<g id="Add_lines_13_">
	<path fill="none" stroke="#FFFFFF" stroke-width="0.0026" stroke-miterlimit="10" d="M689.006,301.119c0,0,3.452,0.509,6.129-0.012
		"/>
	<path fill="none" d="M695.244,308.893c-2.758,0.521-6.338,0.012-6.338,0.012l0.028-5.493c0,0,3.58,0.509,6.338-0.012
		L695.244,308.893z"/>
	
		<text transform="matrix(0.9994 0.0349 -0.0349 0.9994 689.1058 304.3979)" fill="#FFFFFF" font-family="'TwCenMT-Bold'" font-size="0.6641">LINGONSYLT</text>
	<path fill="none" d="M689.071,304.472c0,0,2.416,0.372,4.426,0.27"/>
</g>
<text transform="matrix(0.9994 0.0349 -0.0349 0.9994 689.1652 304.7181)" fill="#FFFFFF" font-family="'Verdana'" font-size="0.2125">Swedish lingonberry preserves</text>
<g id="Layer_1_14_">
	<path fill="none" stroke="#000000" stroke-width="0.0023" stroke-miterlimit="10" d="M720.96,303.108
		c0.135-0.1,0.14-0.2,0.025-0.321c-0.067-0.072-0.037-0.129,0.029-0.192l5.102,0.024c0.027,0.06,0.048,0.175-0.051,0.233
		c-0.048,0.028-0.022,0.168,0.032,0.227c0.018,0.02,0,0.056,0.022,0.073c0.026,0.02,0.028,0.019,0.048,0.039
		C723.482,303.526,720.96,303.108,720.96,303.108z"/>
	<path fill="#C41223" stroke="#000000" stroke-width="0.0023" stroke-miterlimit="10" d="M726.121,303.116
		c0.119,0.118,0.243,0.316,0.26,0.566c-0.008,0.047-0.006,0.095-0.006,0.144c-0.001,0.607,0.002,1.215-0.001,1.822
		c-0.004,0.723-0.013,1.447-0.02,2.17c-0.004,0.377-0.008,0.754-0.015,1.131c-0.004,0.228,0.016,0.462-0.026,0.684
		c-0.076,0.399-0.265,0.729-0.711,0.807c-0.363,0.064-0.73,0.13-1.097,0.154c-0.448,0.03-0.899,0.04-1.346,0.02
		c-0.577-0.027-1.158-0.037-1.725-0.174c-0.274-0.066-0.45-0.248-0.569-0.494c-0.135-0.279-0.156-0.57-0.148-0.88
		c0.026-0.935,0.028-1.871,0.032-2.806c0.002-0.476-0.011-0.953-0.014-1.43c-0.003-0.411,0.001-0.822-0.003-1.234
		c-0.002-0.203,0.063-0.365,0.231-0.488c0,0,1.191,0.147,2.585,0.192C724.443,303.329,725.317,303.239,726.121,303.116z"/>
	<path stroke="#000000" stroke-width="0.0023" stroke-miterlimit="10" d="M721.022,302.596c-0.204-0.069-0.226-0.097-0.238-0.298
		c-0.003-0.055-0.001-0.109-0.002-0.164c-0.002-0.15,0.012-0.182,0.146-0.261c0.392-0.228,0.884-0.236,1.33-0.272
		c0.543-0.043,1.09-0.048,1.633-0.039c0.599,0.01,1.251-0.021,1.833,0.131c0.241,0.063,0.281,0.131,0.455,0.182
		c0.042,0.013,0.11,0.134,0.116,0.186c0.015,0.129,0.029,0.262,0.013,0.389c-0.008,0.067-0.063,0.131-0.183,0.169
		C723.575,302.939,721.022,302.596,721.022,302.596z"/>
</g>
<path d="M720.727,304.3c0,0,1.314,0.136,2.879,0.136c0.904,0,1.913-0.056,2.762-0.136l-0.024,4.782
	c0.188-0.005-1.525,0.148-2.804,0.148c-1.244,0-2.839-0.148-2.839-0.148L720.727,304.3z"/>
<g id="Add_lines_14_">
	<path fill="none" stroke="#FFFFFF" stroke-width="0.0023" stroke-miterlimit="10" d="M720.792,302.155c0,0,3.076,0.453,5.461-0.011
		"/>
	<path fill="none" d="M726.35,309.082c-2.458,0.464-5.648,0.011-5.648,0.011l0.025-4.894c0,0,3.19,0.453,5.648-0.011L726.35,309.082
		z"/>
	
		<text transform="matrix(0.9994 0.0349 -0.0349 0.9994 720.8823 305.0765)" fill="#FFFFFF" font-family="'TwCenMT-Bold'" font-size="0.5917">LINGONSYLT</text>
	<path fill="none" d="M720.85,305.142c0,0,2.153,0.331,3.944,0.241"/>
</g>
<text transform="matrix(0.9994 0.0349 -0.0349 0.9994 720.9349 305.3617)" fill="#FFFFFF" font-family="'Verdana'" font-size="0.1894">Swedish lingonberry preserves</text>
<g id="Layer_1_15_">
	<path fill="none" stroke="#000000" stroke-width="0.0015" stroke-miterlimit="10" d="M752.862,305.758
		c0.088-0.065,0.091-0.13,0.016-0.208c-0.044-0.046-0.024-0.083,0.019-0.124l3.303,0.015c0.018,0.039,0.031,0.113-0.033,0.151
		c-0.031,0.018-0.014,0.109,0.02,0.147c0.012,0.013,0,0.036,0.014,0.047c0.017,0.013,0.018,0.013,0.031,0.025
		C754.495,306.029,752.862,305.758,752.862,305.758z"/>
	<path fill="#C41223" stroke="#000000" stroke-width="0.0015" stroke-miterlimit="10" d="M756.204,305.764
		c0.076,0.076,0.158,0.205,0.168,0.367c-0.006,0.03-0.004,0.062-0.004,0.093c0,0.393,0.001,0.787-0.001,1.18
		c-0.003,0.469-0.008,0.937-0.013,1.405c-0.003,0.244-0.006,0.488-0.01,0.733c-0.003,0.148,0.011,0.3-0.017,0.443
		c-0.049,0.258-0.172,0.472-0.46,0.523c-0.236,0.041-0.472,0.084-0.71,0.1c-0.29,0.02-0.582,0.026-0.872,0.013
		c-0.374-0.017-0.75-0.024-1.117-0.112c-0.177-0.043-0.291-0.161-0.368-0.32c-0.088-0.181-0.102-0.369-0.096-0.57
		c0.017-0.606,0.018-1.211,0.021-1.817c0.001-0.309-0.007-0.617-0.009-0.926c-0.002-0.266,0.001-0.533-0.002-0.798
		c-0.001-0.131,0.041-0.236,0.149-0.316c0,0,0.771,0.095,1.674,0.124C755.118,305.901,755.683,305.843,756.204,305.764z"/>
	<path stroke="#000000" stroke-width="0.0015" stroke-miterlimit="10" d="M752.903,305.426c-0.133-0.045-0.147-0.063-0.154-0.193
		c-0.002-0.035-0.001-0.071-0.001-0.107c-0.001-0.098,0.008-0.119,0.094-0.169c0.253-0.147,0.573-0.153,0.861-0.176
		c0.352-0.028,0.705-0.032,1.058-0.025c0.387,0.007,0.81-0.014,1.187,0.085c0.156,0.041,0.182,0.085,0.295,0.118
		c0.027,0.008,0.071,0.087,0.075,0.121c0.01,0.083,0.018,0.169,0.008,0.252c-0.006,0.043-0.041,0.085-0.119,0.109
		C754.555,305.648,752.903,305.426,752.903,305.426z"/>
</g>
<path d="M752.712,306.53c0,0,0.85,0.088,1.864,0.088c0.586,0,1.238-0.036,1.789-0.088l-0.015,3.096
	c0.122-0.004-0.987,0.095-1.815,0.095c-0.805,0-1.838-0.095-1.838-0.095L752.712,306.53z"/>
<g id="Add_lines_15_">
	<path fill="none" stroke="#FFFFFF" stroke-width="0.0015" stroke-miterlimit="10" d="M752.754,305.14c0,0,1.991,0.294,3.536-0.007"
		/>
	<path fill="none" d="M756.352,309.626c-1.591,0.3-3.656,0.007-3.656,0.007l0.016-3.169c0,0,2.065,0.294,3.656-0.007
		L756.352,309.626z"/>
	
		<text transform="matrix(0.9994 0.0349 -0.0349 0.9994 752.8122 307.0328)" fill="#FFFFFF" font-family="'TwCenMT-Bold'" font-size="0.3831">LINGONSYLT</text>
	<path fill="none" d="M752.791,307.075c0,0,1.394,0.215,2.553,0.156"/>
</g>
<text transform="matrix(0.9994 0.0349 -0.0349 0.9994 752.845 307.2167)" fill="#FFFFFF" font-family="'Verdana'" font-size="0.1226">Swedish lingonberry preserves</text>
<g id="Layer_1_16_">
	<path fill="none" stroke="#000000" stroke-width="9.372468e-04" stroke-miterlimit="10" d="M784.776,307.597
		c0.055-0.04,0.056-0.081,0.011-0.129c-0.027-0.029-0.015-0.052,0.012-0.077l2.055,0.01c0.011,0.024,0.019,0.07-0.02,0.094
		c-0.019,0.011-0.008,0.068,0.013,0.092c0.007,0.008,0,0.022,0.009,0.029c0.011,0.008,0.011,0.008,0.02,0.015
		C785.792,307.765,784.776,307.597,784.776,307.597z"/>
	<path fill="#C41223" stroke="#000000" stroke-width="9.372468e-04" stroke-miterlimit="10" d="M786.855,307.6
		c0.048,0.048,0.098,0.127,0.105,0.228c-0.003,0.019-0.003,0.039-0.003,0.058c0,0.245,0.001,0.489-0.001,0.734
		c-0.001,0.291-0.005,0.583-0.008,0.874c-0.001,0.152-0.004,0.304-0.006,0.455c-0.001,0.092,0.006,0.186-0.01,0.276
		c-0.03,0.161-0.107,0.294-0.286,0.325c-0.147,0.026-0.294,0.052-0.442,0.062c-0.18,0.012-0.362,0.016-0.542,0.008
		c-0.232-0.011-0.467-0.015-0.695-0.07c-0.11-0.027-0.181-0.1-0.229-0.199c-0.055-0.112-0.063-0.23-0.06-0.354
		c0.011-0.377,0.011-0.754,0.013-1.13c0.001-0.192-0.004-0.384-0.006-0.576c-0.001-0.166,0.001-0.331-0.001-0.497
		c-0.001-0.082,0.025-0.147,0.093-0.196c0,0,0.48,0.06,1.041,0.077C786.18,307.686,786.532,307.65,786.855,307.6z"/>
	<path stroke="#000000" stroke-width="9.372468e-04" stroke-miterlimit="10" d="M784.801,307.39
		c-0.082-0.028-0.091-0.039-0.096-0.12c-0.001-0.022-0.001-0.044-0.001-0.066c-0.001-0.06,0.005-0.074,0.059-0.105
		c0.158-0.092,0.356-0.095,0.535-0.109c0.219-0.018,0.439-0.02,0.658-0.015c0.241,0.004,0.504-0.008,0.738,0.053
		c0.098,0.025,0.114,0.053,0.183,0.074c0.017,0.005,0.044,0.054,0.047,0.075c0.006,0.052,0.011,0.105,0.005,0.156
		c-0.004,0.027-0.025,0.053-0.074,0.068C785.829,307.529,784.801,307.39,784.801,307.39z"/>
</g>
<path d="M784.683,308.077c0,0,0.529,0.055,1.16,0.055c0.364,0,0.77-0.022,1.113-0.055l-0.01,1.927c0.076-0.002-0.614,0.06-1.13,0.06
	c-0.501,0-1.144-0.06-1.144-0.06L784.683,308.077z"/>
<g id="Add_lines_16_">
	<path fill="none" stroke="#FFFFFF" stroke-width="9.372468e-04" stroke-miterlimit="10" d="M784.709,307.212
		c0,0,1.239,0.182,2.2-0.004"/>
	<path fill="none" d="M786.948,310.004c-0.99,0.187-2.276,0.004-2.276,0.004l0.01-1.972c0,0,1.285,0.182,2.275-0.004
		L786.948,310.004z"/>
	
		<text transform="matrix(0.9994 0.0349 -0.0349 0.9994 784.7457 308.3897)" fill="#FFFFFF" font-family="'TwCenMT-Bold'" font-size="0.2384">LINGONSYLT</text>
	<path fill="none" d="M784.732,308.417c0,0,0.867,0.133,1.589,0.097"/>
</g>
<text transform="matrix(0.9994 0.0349 -0.0349 0.9994 784.7662 308.5048)" fill="#FFFFFF" font-family="'Verdana'" font-size="0.0763">Swedish lingonberry preserves</text>
<g id="Layer_1_17_">
	<path fill="none" stroke="#000000" stroke-width="8.870371e-04" stroke-miterlimit="10" d="M816.974,307.759
		c0.052-0.038,0.053-0.076,0.01-0.122c-0.026-0.027-0.014-0.049,0.011-0.073l1.945,0.009c0.011,0.022,0.018,0.067-0.02,0.088
		c-0.018,0.011-0.008,0.064,0.012,0.087c0.007,0.008,0,0.022,0.008,0.028c0.01,0.008,0.01,0.007,0.018,0.015
		C817.935,307.918,816.974,307.759,816.974,307.759z"/>
	<path fill="#C41223" stroke="#000000" stroke-width="8.870371e-04" stroke-miterlimit="10" d="M818.941,307.762
		c0.045,0.045,0.093,0.121,0.099,0.216c-0.004,0.018-0.003,0.036-0.003,0.055c0,0.232,0.001,0.463,0,0.695
		c-0.001,0.276-0.005,0.552-0.008,0.828c-0.001,0.144-0.003,0.288-0.006,0.432c-0.001,0.087,0.006,0.176-0.01,0.261
		c-0.029,0.152-0.101,0.278-0.271,0.308c-0.139,0.025-0.278,0.049-0.418,0.059c-0.171,0.011-0.342,0.015-0.514,0.008
		c-0.22-0.01-0.442-0.014-0.658-0.066c-0.105-0.025-0.171-0.095-0.217-0.189c-0.051-0.107-0.06-0.218-0.056-0.335
		c0.01-0.356,0.011-0.714,0.013-1.07c0.001-0.182-0.004-0.363-0.006-0.545c-0.001-0.156,0.001-0.314-0.001-0.47
		c-0.001-0.077,0.024-0.139,0.088-0.186c0,0,0.454,0.056,0.986,0.073C818.302,307.843,818.635,307.809,818.941,307.762z"/>
	<path stroke="#000000" stroke-width="8.870371e-04" stroke-miterlimit="10" d="M816.998,307.563
		c-0.078-0.027-0.086-0.037-0.091-0.114c-0.001-0.021-0.001-0.042-0.001-0.062c-0.001-0.058,0.005-0.069,0.055-0.1
		c0.149-0.087,0.337-0.091,0.507-0.104c0.207-0.017,0.415-0.018,0.623-0.015c0.228,0.004,0.477-0.008,0.699,0.05
		c0.092,0.024,0.107,0.05,0.173,0.069c0.016,0.005,0.042,0.051,0.044,0.071c0.006,0.049,0.011,0.1,0.005,0.148
		c-0.004,0.025-0.024,0.05-0.069,0.065C817.971,307.695,816.998,307.563,816.998,307.563z"/>
</g>
<path d="M816.885,308.214c0,0,0.501,0.052,1.097,0.052c0.345,0,0.729-0.022,1.053-0.052l-0.009,1.823
	c0.072-0.002-0.582,0.056-1.069,0.056c-0.474,0-1.083-0.056-1.083-0.056L816.885,308.214z"/>
<g id="Add_lines_17_">
	<path fill="none" stroke="#FFFFFF" stroke-width="8.870371e-04" stroke-miterlimit="10" d="M816.91,307.396
		c0,0,1.173,0.173,2.083-0.004"/>
	<path fill="none" d="M819.029,310.037c-0.937,0.177-2.153,0.004-2.153,0.004l0.01-1.866c0,0,1.216,0.173,2.153-0.004
		L819.029,310.037z"/>
	
		<text transform="matrix(0.9994 0.0349 -0.0349 0.9994 816.9441 308.5097)" fill="#FFFFFF" font-family="'TwCenMT-Bold'" font-size="0.2257">LINGONSYLT</text>
	<path fill="none" d="M816.932,308.534c0,0,0.821,0.126,1.504,0.092"/>
</g>
<text transform="matrix(0.9994 0.0349 -0.0349 0.9994 816.9637 308.6183)" fill="#FFFFFF" font-family="'Verdana'" font-size="0.0722">Swedish lingonberry preserves</text>
<g id="Layer_1_18_">
	<path fill="none" stroke="#000000" stroke-width="6.025158e-04" stroke-miterlimit="10" d="M848.002,308.678
		c0.035-0.026,0.036-0.052,0.006-0.083c-0.018-0.018-0.01-0.034,0.008-0.05l1.321,0.006c0.007,0.015,0.013,0.045-0.013,0.06
		c-0.013,0.007-0.006,0.044,0.008,0.059c0.005,0.005,0,0.015,0.006,0.019c0.007,0.005,0.007,0.005,0.013,0.01
		C848.656,308.786,848.002,308.678,848.002,308.678z"/>
	<path fill="#C41223" stroke="#000000" stroke-width="6.025158e-04" stroke-miterlimit="10" d="M849.339,308.68
		c0.031,0.03,0.063,0.082,0.067,0.147c-0.002,0.012-0.001,0.025-0.001,0.037c0,0.157,0.001,0.314,0,0.472
		c-0.001,0.187-0.004,0.375-0.006,0.562c-0.001,0.098-0.002,0.195-0.004,0.293c-0.001,0.059,0.004,0.12-0.006,0.177
		c-0.02,0.103-0.069,0.189-0.184,0.209c-0.094,0.017-0.189,0.034-0.284,0.04c-0.116,0.008-0.233,0.011-0.349,0.005
		c-0.149-0.007-0.3-0.01-0.447-0.045c-0.071-0.017-0.116-0.064-0.147-0.128c-0.035-0.072-0.041-0.148-0.039-0.228
		c0.007-0.242,0.007-0.485,0.008-0.727c0.001-0.124-0.003-0.247-0.003-0.37c-0.001-0.107,0-0.213-0.001-0.319
		c-0.001-0.053,0.016-0.095,0.06-0.126c0,0,0.308,0.038,0.669,0.05C848.905,308.736,849.131,308.713,849.339,308.68z"/>
	<path stroke="#000000" stroke-width="6.025158e-04" stroke-miterlimit="10" d="M848.019,308.546
		c-0.053-0.018-0.058-0.025-0.062-0.077c-0.001-0.014-0.001-0.028-0.001-0.043c-0.001-0.039,0.004-0.047,0.038-0.067
		c0.102-0.059,0.229-0.061,0.344-0.07c0.14-0.011,0.282-0.013,0.423-0.01c0.155,0.003,0.324-0.006,0.475,0.034
		c0.062,0.016,0.073,0.034,0.118,0.047c0.011,0.004,0.029,0.034,0.03,0.048c0.003,0.034,0.008,0.068,0.003,0.101
		c-0.002,0.017-0.016,0.034-0.048,0.043C848.68,308.635,848.019,308.546,848.019,308.546z"/>
</g>
<path d="M847.942,308.987c0,0,0.34,0.035,0.746,0.035c0.234,0,0.495-0.015,0.716-0.035l-0.006,1.238
	c0.048-0.001-0.395,0.039-0.726,0.039c-0.322,0-0.735-0.039-0.735-0.039L847.942,308.987z"/>
<g id="Add_lines_18_">
	<path fill="none" stroke="#FFFFFF" stroke-width="6.025158e-04" stroke-miterlimit="10" d="M847.959,308.431
		c0,0,0.796,0.117,1.415-0.003"/>
	<path fill="none" d="M849.398,310.225c-0.636,0.12-1.463,0.003-1.463,0.003l0.006-1.268c0,0,0.826,0.117,1.463-0.003
		L849.398,310.225z"/>
	
		<text transform="matrix(0.9994 0.0349 -0.0349 0.9994 847.983 309.1879)" fill="#FFFFFF" font-family="'TwCenMT-Bold'" font-size="0.1532">LINGONSYLT</text>
	<path fill="none" d="M847.974,309.205c0,0,0.557,0.086,1.022,0.062"/>
</g>
<g id="Layer_1_19_">
	<path fill="none" stroke="#000000" stroke-width="3.849406e-04" stroke-miterlimit="10" d="M882.009,309.17
		c0.023-0.017,0.023-0.033,0.004-0.053c-0.011-0.012-0.006-0.021,0.005-0.032l0.844,0.008c0.004,0.01,0.008,0.029-0.009,0.039
		c-0.008,0.005-0.004,0.028,0.005,0.038c0.003,0.004,0,0.009,0.003,0.012c0.004,0.004,0.005,0.004,0.008,0.006
		C882.425,309.241,882.009,309.17,882.009,309.17z"/>
	<path fill="#C41223" stroke="#000000" stroke-width="3.849406e-04" stroke-miterlimit="10" d="M882.863,309.175
		c0.02,0.02,0.04,0.053,0.042,0.094c-0.001,0.008-0.001,0.016-0.001,0.024c0,0.1-0.001,0.201-0.001,0.302
		c-0.001,0.12-0.003,0.239-0.005,0.359c-0.001,0.062-0.002,0.125-0.004,0.187c-0.001,0.038,0.003,0.076-0.005,0.113
		c-0.013,0.066-0.045,0.121-0.118,0.133c-0.06,0.01-0.121,0.021-0.182,0.025c-0.074,0.005-0.149,0.006-0.223,0.003
		c-0.095-0.005-0.192-0.007-0.285-0.03c-0.045-0.011-0.074-0.041-0.094-0.082c-0.022-0.046-0.026-0.095-0.024-0.146
		c0.005-0.154,0.006-0.309,0.008-0.465c0-0.079-0.002-0.158-0.001-0.236c0-0.068,0.001-0.136,0-0.204
		c0-0.034,0.011-0.06,0.038-0.081c0,0,0.197,0.025,0.428,0.033C882.585,309.209,882.729,309.195,882.863,309.175z"/>
	<path stroke="#000000" stroke-width="3.849406e-04" stroke-miterlimit="10" d="M882.019,309.085
		c-0.034-0.011-0.037-0.016-0.039-0.049c-0.001-0.009,0-0.018-0.001-0.027c0-0.025,0.002-0.03,0.024-0.043
		c0.065-0.038,0.146-0.039,0.22-0.044c0.09-0.007,0.18-0.007,0.27-0.005c0.099,0.003,0.207-0.003,0.303,0.023
		c0.04,0.011,0.046,0.022,0.075,0.03c0.007,0.002,0.018,0.023,0.019,0.031c0.003,0.021,0.005,0.044,0.002,0.065
		c-0.001,0.011-0.011,0.022-0.03,0.028C882.441,309.144,882.019,309.085,882.019,309.085z"/>
</g>
<path d="M881.969,309.367c0,0,0.217,0.023,0.476,0.024c0.149,0.001,0.316-0.008,0.457-0.021l-0.007,0.791
	c0.031-0.001-0.252,0.024-0.464,0.023c-0.206-0.001-0.47-0.026-0.47-0.026L881.969,309.367z"/>
<g transform="matrix(0.9994 0.0349 -0.0349 0.9994 1076.4086 147.9822)">
	<path fill="none" stroke="#FFFFFF" stroke-width="3.849406e-04" stroke-miterlimit="10" d="M881.525,309.151
		c0,0,0.506,0.092,0.903,0.03"/>
	<path fill="none" d="M882.405,310.328c-0.409,0.062-0.934-0.031-0.934-0.031l0.032-0.809c0,0,0.525,0.093,0.934,0.031
		L882.405,310.328z"/>
</g>
<g id="Layer_1_21_">
	<path fill="none" stroke="#000000" stroke-width="0.0023" stroke-miterlimit="10" d="M922.307,302.968
		c0.136-0.101,0.14-0.202,0.024-0.323c-0.068-0.071-0.038-0.13,0.029-0.193l5.139,0.008c0.028,0.06,0.048,0.175-0.05,0.235
		c-0.048,0.029-0.021,0.169,0.033,0.229c0.018,0.02,0,0.057,0.023,0.074c0.026,0.02,0.028,0.019,0.049,0.039
		C924.848,303.381,922.307,302.968,922.307,302.968z"/>
	<path fill="#C41223" stroke="#000000" stroke-width="0.0023" stroke-miterlimit="10" d="M927.504,302.96
		c0.12,0.118,0.246,0.318,0.264,0.57c-0.008,0.047-0.006,0.096-0.006,0.145c0.001,0.612,0.006,1.223,0.005,1.835
		c-0.002,0.729-0.009,1.457-0.014,2.186c-0.003,0.38-0.006,0.759-0.012,1.139c-0.003,0.23,0.018,0.466-0.024,0.689
		c-0.075,0.402-0.265,0.735-0.714,0.815c-0.366,0.066-0.734,0.133-1.105,0.159c-0.45,0.032-0.905,0.044-1.356,0.025
		c-0.582-0.025-1.167-0.033-1.739-0.17c-0.276-0.066-0.453-0.248-0.575-0.496c-0.137-0.281-0.16-0.574-0.152-0.886
		c0.023-0.942,0.022-1.884,0.024-2.826c0.001-0.48-0.014-0.96-0.019-1.44c-0.004-0.414-0.001-0.828-0.007-1.242
		c-0.003-0.205,0.062-0.368,0.231-0.493c0,0,1.2,0.144,2.605,0.185C925.815,303.18,926.695,303.087,927.504,302.96z"/>
	<path stroke="#000000" stroke-width="0.0023" stroke-miterlimit="10" d="M922.367,302.452c-0.206-0.069-0.228-0.097-0.24-0.299
		c-0.004-0.055-0.002-0.11-0.003-0.166c-0.003-0.152,0.012-0.184,0.146-0.263c0.394-0.231,0.89-0.241,1.338-0.279
		c0.547-0.045,1.097-0.052,1.645-0.045c0.603,0.009,1.26-0.025,1.846,0.126c0.244,0.063,0.284,0.131,0.459,0.182
		c0.042,0.012,0.111,0.134,0.117,0.187c0.015,0.13,0.03,0.264,0.014,0.392c-0.008,0.067-0.063,0.132-0.184,0.171
		C924.939,302.79,922.367,302.452,922.367,302.452z"/>
</g>
<path d="M922.067,304.08c0,0,1.323,0.133,2.901,0.128c0.911-0.003,1.927-0.063,2.782-0.146l-0.009,4.816
	c0.189-0.006-1.535,0.154-2.823,0.158c-1.253,0.004-2.86-0.14-2.86-0.14L922.067,304.08z"/>
<g transform="matrix(0.9994 0.0349 -0.0349 0.9994 1098.1136 141.8957)">
	<path fill="none" stroke="#FFFFFF" stroke-width="0.0023" stroke-miterlimit="10" d="M920.994,303.167c0,0,3.059,0.672,5.488,0.373
		"/>
	<path fill="none" d="M926.091,310.518c-2.502,0.293-5.675-0.386-5.675-0.386l0.369-4.916c0,0,3.173,0.68,5.675,0.386
		L926.091,310.518z"/>
	<path fill="none" d="M911.309,302.326c0,0,2.122,0.558,3.925,0.656"/>
</g>
<g id="Layer_1_20_">
	<path fill="none" stroke="#000000" stroke-width="0.0037" stroke-miterlimit="10" d="M3037.663,768.119
		c0.232-0.136,0.255-0.294,0.094-0.505c-0.096-0.125-0.038-0.211,0.079-0.299l8.1,0.89c0.033,0.099,0.046,0.285-0.12,0.361
		c-0.08,0.037-0.062,0.264,0.012,0.367c0.025,0.035-0.009,0.089,0.023,0.12c0.038,0.036,0.041,0.035,0.07,0.069
		C3041.598,769.204,3037.663,768.119,3037.663,768.119z"/>
	<path fill="#C41223" stroke="#000000" stroke-width="0.0037" stroke-miterlimit="10" d="M3045.859,768.993
		c0.168,0.207,0.334,0.542,0.318,0.943c-0.022,0.072-0.026,0.151-0.034,0.227c-0.102,0.964-0.199,1.93-0.305,2.894
		c-0.127,1.149-0.263,2.297-0.395,3.445c-0.069,0.598-0.139,1.196-0.213,1.794c-0.044,0.362-0.051,0.737-0.155,1.082
		c-0.187,0.62-0.543,1.113-1.264,1.163c-0.588,0.04-1.18,0.084-1.768,0.062c-0.716-0.027-1.435-0.086-2.142-0.193
		c-0.913-0.138-1.834-0.252-2.711-0.564c-0.424-0.15-0.672-0.469-0.821-0.88c-0.168-0.466-0.154-0.932-0.088-1.422
		c0.197-1.481,0.356-2.967,0.52-4.452c0.083-0.757,0.142-1.515,0.216-2.273c0.065-0.654,0.139-1.305,0.201-1.959
		c0.03-0.323,0.161-0.569,0.448-0.737c0,0,1.866,0.433,4.074,0.737C3043.158,769.052,3044.561,769.054,3045.859,768.993z"/>
	<path stroke="#000000" stroke-width="0.0037" stroke-miterlimit="10" d="M3037.846,767.315c-0.313-0.144-0.343-0.192-0.328-0.512
		c0.004-0.088,0.016-0.174,0.024-0.261c0.022-0.239,0.05-0.288,0.275-0.39c0.66-0.297,1.443-0.228,2.157-0.21
		c0.87,0.022,1.739,0.105,2.602,0.211c0.949,0.117,1.99,0.175,2.89,0.515c0.373,0.141,0.426,0.255,0.692,0.366
		c0.065,0.027,0.152,0.231,0.153,0.315c0.002,0.208,0.002,0.421-0.044,0.62c-0.024,0.104-0.122,0.198-0.319,0.238
		C3041.844,768.287,3037.846,767.315,3037.846,767.315z"/>
</g>
<path d="M3037.094,769.974c0,0,2.063,0.436,4.55,0.697c1.437,0.151,3.048,0.23,4.41,0.245l-0.836,7.591
	c0.299,0.024-2.446-0.02-4.478-0.234c-1.976-0.208-4.486-0.708-4.486-0.708L3037.094,769.974z"/>
<g transform="matrix(0.9994 0.0349 -0.0349 0.9994 1132.4805 136.6583)">
	<path fill="none" stroke="#FFFFFF" stroke-width="0.0037" stroke-miterlimit="10" d="M3037.556,766.576c0,0,4.81,1.234,8.677,0.895
		"/>
	<path fill="none" d="M3045.226,778.507c-3.981,0.327-8.972-0.926-8.972-0.926l0.857-7.77c0,0,4.99,1.253,8.972,0.926
		L3045.226,778.507z"/>
	<path fill="none" d="M3810.718,976.883c0,0,3.331,1.002,6.184,1.257"/>
</g>
<text transform="matrix(1 0 0 1 -5.052 319.2979)"><tspan x="0" y="0" font-family="'TwCenMT-Bold'" font-size="7">12 years </tspan><tspan x="-4.999" y="8.4" font-family="'TwCenMT-Bold'" font-size="7">and younger</tspan></text>
<text transform="matrix(1 0 0 1 51.5896 319.3491)" font-family="'TwCenMT-Bold'" font-size="7">13</text>
<text transform="matrix(1 0 0 1 110.5647 319.1759)" font-family="'TwCenMT-Bold'" font-size="7">14</text>
<text transform="matrix(1 0 0 1 192.7189 319.2822)" font-family="'TwCenMT-Bold'" font-size="7">15</text>
<text transform="matrix(1 0 0 1 290.7619 319.7096)" font-family="'TwCenMT-Bold'" font-size="7">16</text>
<text transform="matrix(1 0 0 1 382.3795 319.6782)" font-family="'TwCenMT-Bold'" font-size="7">17</text>
<text transform="matrix(1 0 0 1 464.8677 319.2919)" font-family="'TwCenMT-Bold'" font-size="7">18</text>
<text transform="matrix(1 0 0 1 532.2129 319.3253)" font-family="'TwCenMT-Bold'" font-size="7">19</text>
<text transform="matrix(1 0 0 1 586.0424 319.5174)" font-family="'TwCenMT-Bold'" font-size="7">20</text>
<text transform="matrix(1 0 0 1 628.2443 319.3977)" font-family="'TwCenMT-Bold'" font-size="7">21</text>
<text transform="matrix(1 0 0 1 654.662 319.1389)" font-family="'TwCenMT-Bold'" font-size="7">22</text>
<text transform="matrix(1 0 0 1 688.4357 318.9448)" font-family="'TwCenMT-Bold'" font-size="7">23</text>
<text transform="matrix(1 0 0 1 720.011 319.2997)" font-family="'TwCenMT-Bold'" font-size="7">24</text>
<text transform="matrix(1 0 0 1 750.6855 319.0742)" font-family="'TwCenMT-Bold'" font-size="7">25</text>
<text transform="matrix(1 0 0 1 782.0444 319.0742)" font-family="'TwCenMT-Bold'" font-size="7">26</text>
<text transform="matrix(1 0 0 1 814.1443 319.0742)" font-family="'TwCenMT-Bold'" font-size="7">27</text>
<text transform="matrix(1 0 0 1 845.0424 319.1703)" font-family="'TwCenMT-Bold'" font-size="7">28</text>
<text transform="matrix(1 0 0 1 878.636 319.0348)" font-family="'TwCenMT-Bold'" font-size="7">29</text>
<text transform="matrix(0.9994 0.0349 -0.0349 0.9994 922.1664 304.8285)" fill="#FFFFFF" font-family="'TwCenMT-Bold'" font-size="0.6641">LINGONSYLT</text>
<text transform="matrix(0.9994 0.0349 -0.0349 0.9994 922.2258 305.1487)" fill="#FFFFFF" font-family="'Verdana'" font-size="0.2125">Swedish lingonberry preserves</text>
<text transform="matrix(1 0 0 1 912.4998 319.0973)"><tspan x="0" y="0" font-family="'TwCenMT-Bold'" font-size="7">30 years</tspan><tspan x="-1.273" y="8.4" font-family="'TwCenMT-Bold'" font-size="7">and older</tspan></text>
<text transform="matrix(1 0 0 1 960.4126 319.4086)"><tspan x="0" y="0" font-family="'TwCenMT-Bold'" font-size="7">havent had</tspan><tspan x="7.007" y="8.4" font-family="'TwCenMT-Bold'" font-size="7">sex yet</tspan></text>
<text transform="matrix(1 0 0 1 6.9189 294.875)" font-family="'Verdana'" font-size="2">2.1%</text>
<text transform="matrix(1 0 0 1 53.6879 284.1624)" font-family="'Verdana'" font-size="2">3.7%</text>
<text transform="matrix(1 0 0 1 113.4049 257.4237)" font-family="'Verdana'" font-size="2">7.8%</text>
<text transform="matrix(1 0 0 1 193.2559 208.0134)" font-family="'Verdana'" font-size="2">15.3%</text>
<text transform="matrix(1 0 0 1 287.3687 213.9415)" font-family="'Verdana'" font-size="2">14.2%</text>
<text transform="matrix(1 0 0 1 379.7375 213.768)" font-family="'Verdana'" font-size="2">14.4%</text>
<text transform="matrix(1 0 0 1 303.6753 251.6377)" font-family="'Verdana'" font-size="4.6075">11.8%</text>
<text transform="matrix(1 0 0 1 534.673 261.3555)" font-family="'Verdana'" font-size="2">7%</text>
<text transform="matrix(1 0 0 1 587.0046 269.6287)" font-family="'Verdana'" font-size="2">5.9%</text>
<text transform="matrix(1 0 0 1 629.3891 284.8582)" font-family="'Verdana'" font-size="2">3%</text>
<text transform="matrix(1 0 0 1 655.8927 293.2028)" font-family="'Verdana'" font-size="2">1.6%</text>
<text transform="matrix(1 0 0 1 452.251 298.1113)" font-family="'Verdana'" font-size="4.6075">1.6%</text>
<text transform="matrix(1 0 0 1 473.9062 298.1113)" font-family="'Verdana'" font-size="4.6075">1.4%</text>
<text transform="matrix(1 0 0 1 752.4028 301.4016)" font-family="'Verdana'" font-size="2">0.9%</text>
<text transform="matrix(1 0 0 1 783.0871 303.5278)" font-family="'Verdana'" font-size="2">0.6%</text>
<text transform="matrix(1 0 0 1 535.0186 302.7334)" font-family="'Verdana'" font-size="4.6075">0.5%</text>
<text transform="matrix(1 0 0 1 846.5328 304.1178)" font-family="'Verdana'" font-size="2">0.4%</text>
<text transform="matrix(1 0 0 1 578.4199 303.2461)" font-family="'Verdana'" font-size="4.6075">0.2%</text>
<text transform="matrix(1 0 0 1 923.5099 298.623)" font-family="'Verdana'" font-size="2">1.3%</text>
<text transform="matrix(1 0 0 1 974.7725 278.9043)" font-family="'Verdana'" font-size="2">4.1%</text>
<text transform="matrix(1 0 0 1 464.9254 228.8915)" font-family="'Verdana'" font-size="2">11.8%</text>
<text transform="matrix(1 0 0 1 689.8353 296.1527)" font-family="'Verdana'" font-size="2">1.6%</text>
<text transform="matrix(1 0 0 1 720.9105 298.1902)" font-family="'Verdana'" font-size="2">1.4%</text>
<text transform="matrix(1 0 0 1 815.2694 303.5653)" font-family="'Verdana'" font-size="2">0.5%</text>
<text transform="matrix(1 0 0 1 879.8356 304.9949)" font-family="'Verdana'" font-size="2">0.2%</text>
</svg>
