<?xml version="1.0" encoding="utf-8"?>
<!-- Generator: Adobe Illustrator 17.1.0, SVG Export Plug-In . SVG Version: 6.00 Build 0)  -->
<!DOCTYPE svg PUBLIC "-//W3C//DTD SVG 1.1//EN" "http://www.w3.org/Graphics/SVG/1.1/DTD/svg11.dtd">
<svg version="1.1" id="Lager_1" xmlns="http://www.w3.org/2000/svg" xmlns:xlink="http://www.w3.org/1999/xlink" x="0px" y="0px"
	 viewBox="0 0 1200 150" enable-background="new 0 0 1200 150" xml:space="preserve">
<g id="Layer_1_2_">
	<path fill="none" stroke="#000000" stroke-width="0.013" stroke-miterlimit="10" d="M99.819,88.81
		c1.082-0.796,1.118-1.597,0.203-2.562c-0.54-0.57-0.298-1.031,0.234-1.531l40.751,0.192c0.218,0.477,0.379,1.393-0.405,1.859
		c-0.38,0.226-0.174,1.343,0.254,1.817c0.144,0.161,0.002,0.449,0.175,0.582c0.208,0.161,0.225,0.152,0.384,0.31
		C119.957,92.148,99.819,88.81,99.819,88.81z"/>
	<path fill="#C41223" stroke="#000000" stroke-width="0.013" stroke-miterlimit="10" d="M141.037,88.873
		c0.945,0.94,1.944,2.525,2.075,4.524c-0.069,0.373-0.051,0.764-0.052,1.147c-0.004,4.85,0.019,9.701-0.009,14.551
		c-0.033,5.779-0.104,11.558-0.164,17.337c-0.032,3.011-0.068,6.022-0.12,9.033c-0.032,1.824,0.13,3.692-0.206,5.463
		c-0.604,3.183-2.12,5.822-5.678,6.446c-2.905,0.509-5.826,1.035-8.762,1.233c-3.575,0.242-7.179,0.322-10.757,0.159
		c-4.611-0.211-9.255-0.294-13.782-1.388c-2.184-0.528-3.59-1.978-4.544-3.947c-1.08-2.232-1.251-4.556-1.183-7.028
		c0.206-7.468,0.223-14.942,0.26-22.414c0.019-3.806-0.087-7.613-0.113-11.419c-0.022-3.283,0.012-6.566-0.024-9.85
		c-0.017-1.622,0.503-2.917,1.842-3.902c0,0,9.508,1.176,20.648,1.533C127.638,90.578,134.614,89.857,141.037,88.873z"/>
	<path stroke="#000000" stroke-width="0.013" stroke-miterlimit="10" d="M100.311,84.717c-1.633-0.553-1.807-0.775-1.9-2.376
		c-0.025-0.437-0.014-0.875-0.019-1.313c-0.016-1.201,0.098-1.459,1.164-2.083c3.126-1.82,7.062-1.889,10.62-2.174
		c4.336-0.346,8.702-0.386,13.049-0.309c4.781,0.085,9.991-0.169,14.642,1.048c1.929,0.505,2.247,1.045,3.632,1.455
		c0.337,0.1,0.878,1.071,0.926,1.485c0.119,1.03,0.229,2.09,0.1,3.107c-0.068,0.53-0.503,1.047-1.462,1.351
		C120.699,87.461,100.311,84.717,100.311,84.717z"/>
</g>
<path d="M97.959,98.33c0,0,10.489,1.087,22.996,1.087c7.225,0,15.277-0.449,22.061-1.087l-0.189,38.192
	c1.502-0.039-12.178,1.18-22.393,1.18c-9.938,0-22.677-1.18-22.677-1.18L97.959,98.33z"/>
<g id="Add_lines_2_">
	<path fill="none" stroke="#FFFFFF" stroke-width="0.013" stroke-miterlimit="10" d="M98.48,81.195c0,0,24.567,3.623,43.62-0.084"/>
	<path fill="none" d="M142.865,136.521c-19.631,3.707-45.108,0.084-45.108,0.084l0.199-39.091c0,0,25.476,3.623,45.108-0.084
		L142.865,136.521z"/>
	
		<text transform="matrix(0.9994 0.0349 -0.0349 0.9994 99.1875 104.5322)" fill="#FFFFFF" font-family="'TwCenMT-Bold'" font-size="4.7263">LINGONSYLT</text>
	<path fill="none" d="M98.937,105.055c0,0,17.193,2.645,31.5,1.92"/>
</g>
<text transform="matrix(0.9994 0.0349 -0.0349 0.9994 99.6621 106.6116)" fill="#FFFFFF" font-family="'Verdana'" font-size="1.5124">Swedish lingonberry preserves</text>
<g id="Layer_1_1_">
	<path fill="none" stroke="#000000" stroke-width="0.0034" stroke-miterlimit="10" d="M5.465,133.328
		c0.286-0.211,0.296-0.422,0.054-0.677c-0.143-0.151-0.079-0.273,0.062-0.405l10.776,0.051c0.058,0.126,0.1,0.368-0.107,0.492
		c-0.1,0.06-0.046,0.355,0.067,0.48c0.038,0.042,0.001,0.119,0.046,0.154c0.055,0.042,0.059,0.04,0.101,0.082
		C10.79,134.21,5.465,133.328,5.465,133.328z"/>
	<path fill="#C41223" stroke="#000000" stroke-width="0.0034" stroke-miterlimit="10" d="M16.365,133.344
		c0.25,0.249,0.514,0.668,0.549,1.196c-0.018,0.099-0.014,0.202-0.014,0.303c-0.001,1.283,0.005,2.565-0.002,3.848
		c-0.009,1.528-0.027,3.056-0.043,4.585c-0.008,0.796-0.018,1.593-0.032,2.389c-0.009,0.482,0.034,0.976-0.054,1.445
		c-0.16,0.842-0.561,1.54-1.502,1.704c-0.768,0.135-1.541,0.274-2.317,0.326c-0.945,0.064-1.899,0.085-2.844,0.042
		c-1.219-0.056-2.447-0.078-3.645-0.367c-0.578-0.14-0.949-0.523-1.202-1.044c-0.286-0.59-0.331-1.205-0.313-1.858
		c0.054-1.975,0.059-3.951,0.069-5.927c0.005-1.006-0.023-2.013-0.03-3.02c-0.006-0.868,0.003-1.736-0.006-2.605
		c-0.005-0.429,0.133-0.771,0.487-1.032c0,0,2.514,0.311,5.46,0.405C12.822,133.795,14.666,133.605,16.365,133.344z"/>
	<path stroke="#000000" stroke-width="0.0034" stroke-miterlimit="10" d="M5.595,132.245c-0.432-0.146-0.478-0.205-0.502-0.628
		c-0.007-0.116-0.004-0.231-0.005-0.347c-0.004-0.317,0.026-0.386,0.308-0.551c0.827-0.481,1.867-0.5,2.808-0.575
		c1.147-0.092,2.301-0.102,3.451-0.082c1.264,0.022,2.642-0.045,3.872,0.277c0.51,0.133,0.594,0.276,0.96,0.385
		c0.089,0.026,0.232,0.283,0.245,0.393c0.031,0.272,0.061,0.553,0.027,0.822c-0.018,0.14-0.133,0.277-0.387,0.357
		C10.987,132.971,5.595,132.245,5.595,132.245z"/>
</g>
<path d="M4.973,135.845c0,0,2.774,0.287,6.081,0.287c1.911,0,4.04-0.119,5.834-0.287l-0.05,10.1c0.397-0.01-3.22,0.312-5.922,0.312
	c-2.628,0-5.997-0.312-5.997-0.312L4.973,135.845z"/>
<g id="Add_lines_1_">
	<path fill="none" stroke="#FFFFFF" stroke-width="0.0034" stroke-miterlimit="10" d="M5.111,131.314c0,0,6.497,0.958,11.535-0.022"
		/>
	<path fill="none" d="M16.848,145.945c-5.191,0.98-11.928,0.022-11.928,0.022l0.053-10.337c0,0,6.737,0.958,11.928-0.022
		L16.848,145.945z"/>
	
		<text transform="matrix(0.9994 0.0349 -0.0349 0.9994 5.2982 137.4855)" fill="#FFFFFF" font-family="'TwCenMT-Bold'" font-size="1.2498">LINGONSYLT</text>
	<path fill="none" d="M5.232,137.624c0,0,4.546,0.699,8.33,0.508"/>
</g>
<text transform="matrix(0.9994 0.0349 -0.0349 0.9994 5.4226 138.0345)" fill="#FFFFFF" font-family="'Verdana'" font-size="0.3999">Swedish lingonberry preserves</text>
<g id="Layer_1_3_">
	<path fill="none" stroke="#000000" stroke-width="0.0062" stroke-miterlimit="10" d="M43.789,120.487
		c0.511-0.376,0.528-0.755,0.096-1.21c-0.255-0.269-0.141-0.487,0.11-0.723l19.251,0.091c0.103,0.225,0.179,0.658-0.191,0.878
		c-0.179,0.107-0.082,0.635,0.12,0.858c0.068,0.076,0.001,0.212,0.083,0.275c0.098,0.076,0.106,0.072,0.181,0.146
		C53.302,122.064,43.789,120.487,43.789,120.487z"/>
	<path fill="#C41223" stroke="#000000" stroke-width="0.0062" stroke-miterlimit="10" d="M63.26,120.517
		c0.447,0.444,0.919,1.193,0.98,2.137c-0.033,0.176-0.024,0.361-0.025,0.542c-0.002,2.291,0.009,4.583-0.004,6.874
		c-0.016,2.73-0.049,5.46-0.078,8.19c-0.015,1.422-0.032,2.845-0.057,4.267c-0.015,0.862,0.061,1.744-0.097,2.581
		c-0.285,1.504-1.001,2.75-2.682,3.045c-1.372,0.241-2.752,0.489-4.139,0.583c-1.689,0.114-3.392,0.152-5.081,0.075
		c-2.178-0.1-4.372-0.139-6.511-0.656c-1.032-0.249-1.696-0.934-2.147-1.865c-0.51-1.054-0.591-2.152-0.559-3.32
		c0.097-3.528,0.105-7.059,0.123-10.589c0.009-1.798-0.041-3.596-0.053-5.394c-0.011-1.551,0.006-3.102-0.011-4.653
		c-0.008-0.766,0.238-1.378,0.87-1.843c0,0,4.492,0.556,9.754,0.724C56.931,121.322,60.226,120.982,63.26,120.517z"/>
	<path stroke="#000000" stroke-width="0.0062" stroke-miterlimit="10" d="M44.022,118.554c-0.771-0.261-0.854-0.366-0.897-1.123
		c-0.012-0.206-0.006-0.413-0.009-0.62c-0.008-0.567,0.046-0.689,0.55-0.984c1.477-0.86,3.336-0.892,5.017-1.027
		c2.048-0.164,4.111-0.182,6.164-0.146c2.259,0.04,4.72-0.08,6.917,0.495c0.911,0.238,1.062,0.494,1.716,0.688
		c0.159,0.047,0.415,0.506,0.437,0.702c0.056,0.487,0.108,0.987,0.047,1.468c-0.032,0.25-0.237,0.495-0.691,0.638
		C53.653,119.85,44.022,118.554,44.022,118.554z"/>
</g>
<path d="M42.91,124.984c0,0,4.955,0.514,10.863,0.514c3.413,0,7.217-0.212,10.422-0.514l-0.089,18.042
	c0.709-0.018-5.753,0.558-10.578,0.558c-4.695,0-10.713-0.558-10.713-0.558L42.91,124.984z"/>
<g id="Add_lines_3_">
	<path fill="none" stroke="#FFFFFF" stroke-width="0.0062" stroke-miterlimit="10" d="M43.157,116.89c0,0,11.605,1.711,20.606-0.04"
		/>
	<path fill="none" d="M64.124,143.026c-9.274,1.751-21.309,0.04-21.309,0.04l0.094-18.467c0,0,12.035,1.711,21.309-0.04
		L64.124,143.026z"/>
	
		<text transform="matrix(0.9994 0.0349 -0.0349 0.9994 43.4904 127.9142)" fill="#FFFFFF" font-family="'TwCenMT-Bold'" font-size="2.2327">LINGONSYLT</text>
	<path fill="none" d="M43.372,128.161c0,0,8.122,1.249,14.88,0.907"/>
</g>
<text transform="matrix(0.9994 0.0349 -0.0349 0.9994 43.7141 128.8962)" fill="#FFFFFF" font-family="'Verdana'" font-size="0.7145">Swedish lingonberry preserves</text>
<g id="Layer_1_4_">
	<path fill="none" stroke="#000000" stroke-width="0.0069" stroke-miterlimit="10" d="M1170.731,117.379
		c0.575-0.423,0.594-0.849,0.108-1.361c-0.287-0.303-0.158-0.548,0.124-0.814l21.657,0.102c0.116,0.253,0.201,0.741-0.215,0.988
		c-0.202,0.12-0.092,0.714,0.135,0.965c0.077,0.085,0.001,0.238,0.093,0.309c0.111,0.085,0.12,0.081,0.204,0.165
		C1181.433,119.153,1170.731,117.379,1170.731,117.379z"/>
	<path fill="none" stroke="#000000" stroke-width="0.0069" stroke-miterlimit="10" d="M1192.636,117.413
		c0.502,0.5,1.033,1.342,1.103,2.404c-0.037,0.198-0.027,0.406-0.028,0.61c-0.002,2.578,0.01,5.156-0.005,7.733
		c-0.017,3.071-0.055,6.142-0.087,9.214c-0.017,1.6-0.036,3.201-0.064,4.8c-0.017,0.969,0.069,1.962-0.109,2.903
		c-0.321,1.692-1.127,3.094-3.018,3.426c-1.544,0.271-3.096,0.55-4.656,0.656c-1.9,0.128-3.816,0.171-5.717,0.084
		c-2.45-0.112-4.918-0.156-7.324-0.738c-1.161-0.281-1.908-1.051-2.415-2.098c-0.574-1.186-0.665-2.421-0.629-3.735
		c0.109-3.969,0.118-7.941,0.138-11.912c0.01-2.023-0.046-4.046-0.06-6.069c-0.012-1.745,0.006-3.49-0.013-5.235
		c-0.009-0.862,0.268-1.55,0.979-2.074c0,0,5.053,0.625,10.974,0.815C1185.515,118.319,1189.222,117.936,1192.636,117.413z"/>
	<path stroke="#000000" stroke-width="0.0069" stroke-miterlimit="10" d="M1170.992,115.204c-0.868-0.294-0.96-0.412-1.01-1.263
		c-0.014-0.232-0.007-0.465-0.01-0.698c-0.009-0.638,0.052-0.775,0.619-1.107c1.662-0.967,3.753-1.004,5.644-1.155
		c2.304-0.184,4.625-0.205,6.935-0.164c2.541,0.045,5.31-0.09,7.781,0.557c1.025,0.268,1.194,0.555,1.93,0.773
		c0.179,0.053,0.467,0.569,0.492,0.789c0.063,0.547,0.122,1.111,0.053,1.651c-0.036,0.282-0.267,0.556-0.777,0.718
		C1181.827,116.662,1170.992,115.204,1170.992,115.204z"/>
</g>
<path d="M1169.742,122.439c0,0,5.574,0.578,12.221,0.578c3.84,0,8.119-0.239,11.724-0.578l-0.1,20.297
	c0.798-0.021-6.472,0.627-11.901,0.627c-5.282,0-12.052-0.627-12.052-0.627L1169.742,122.439z"/>
<g id="Add_lines_4_">
	<path fill="none" stroke="#FFFFFF" stroke-width="0.0069" stroke-miterlimit="10" d="M1170.019,113.332
		c0,0,13.056,1.925,23.182-0.045"/>
	<path fill="none" d="M1193.607,142.736c-10.433,1.97-23.973,0.045-23.973,0.045l0.106-20.775c0,0,13.539,1.925,23.973-0.045
		L1193.607,142.736z"/>
	
		<text transform="matrix(0.9994 0.0349 -0.0349 0.9994 1170.3947 125.7351)" fill="#FFFFFF" font-family="'TwCenMT-Bold'" font-size="2.5118">LINGONSYLT</text>
	<path fill="none" d="M1170.262,126.013c0,0,9.137,1.406,16.74,1.021"/>
</g>
<text transform="matrix(0.9994 0.0349 -0.0349 0.9994 1170.6172 126.9448)" fill="#FFFFFF" font-family="'Verdana'" font-size="0.8038">Swedish lingonberry preserves</text>
<g id="Layer_1_5_">
	<path fill="none" stroke="#000000" stroke-width="0.0255" stroke-miterlimit="10" d="M189.304,31.313
		c2.117-1.559,2.188-3.127,0.397-5.015c-1.058-1.116-0.584-2.019,0.457-2.997l79.775,0.376c0.427,0.933,0.741,2.728-0.794,3.639
		c-0.744,0.442-0.34,2.629,0.496,3.556c0.283,0.314,0.005,0.878,0.343,1.139c0.408,0.314,0.44,0.299,0.751,0.607
		C228.726,37.847,189.304,31.313,189.304,31.313z"/>
	<path fill="#C41223" stroke="#000000" stroke-width="0.0255" stroke-miterlimit="10" d="M269.992,31.437
		c1.85,1.841,3.806,4.942,4.061,8.855c-0.136,0.73-0.101,1.496-0.102,2.246c-0.007,9.495,0.036,18.991-0.017,28.486
		c-0.064,11.314-0.203,22.626-0.322,33.939c-0.062,5.895-0.132,11.789-0.235,17.683c-0.063,3.571,0.255,7.228-0.403,10.694
		c-1.182,6.232-4.15,11.397-11.116,12.618c-5.687,0.997-11.406,2.026-17.153,2.415c-6.998,0.473-14.055,0.63-21.057,0.311
		c-9.027-0.413-18.117-0.576-26.98-2.718c-4.276-1.034-7.028-3.872-8.895-7.727c-2.115-4.369-2.45-8.92-2.316-13.758
		c0.403-14.62,0.436-29.251,0.508-43.879c0.038-7.45-0.171-14.903-0.221-22.354c-0.044-6.427,0.023-12.855-0.046-19.282
		c-0.034-3.175,0.985-5.71,3.605-7.638c0,0,18.614,2.303,40.422,3.001C243.764,34.774,257.419,33.363,269.992,31.437z"/>
	<path stroke="#000000" stroke-width="0.0255" stroke-miterlimit="10" d="M190.267,23.301c-3.196-1.082-3.537-1.517-3.719-4.652
		c-0.05-0.855-0.027-1.713-0.038-2.571c-0.032-2.35,0.192-2.856,2.279-4.077c6.12-3.564,13.824-3.698,20.789-4.255
		c8.488-0.678,17.035-0.756,25.544-0.605c9.36,0.166,19.559-0.331,28.663,2.052c3.776,0.988,4.4,2.046,7.111,2.849
		c0.659,0.195,1.719,2.097,1.813,2.907c0.233,2.017,0.449,4.092,0.197,6.083c-0.132,1.037-0.984,2.049-2.862,2.645
		C230.18,28.672,190.267,23.301,190.267,23.301z"/>
</g>
<path d="M185.661,49.95c0,0,20.534,2.128,45.017,2.128c14.145,0,29.907-0.88,43.187-2.128l-0.37,74.766
	c2.94-0.076-23.84,2.31-43.837,2.31c-19.456,0-44.393-2.31-44.393-2.31L185.661,49.95z"/>
<g id="Add_lines_5_">
	<path fill="none" stroke="#FFFFFF" stroke-width="0.0255" stroke-miterlimit="10" d="M186.682,16.405
		c0,0,48.093,7.092,85.392-0.165"/>
	<path fill="none" d="M273.572,124.715c-38.431,7.257-88.305,0.165-88.305,0.165l0.389-76.527c0,0,49.873,7.092,88.305-0.165
		L273.572,124.715z"/>
	
		<text transform="matrix(0.9994 0.0349 -0.0349 0.9994 188.069 62.0926)" fill="#FFFFFF" font-family="'TwCenMT-Bold'" font-size="9.2524">LINGONSYLT</text>
	<path fill="none" d="M187.576,63.115c0,0,33.657,5.178,61.665,3.759"/>
</g>
<text transform="matrix(0.9994 0.0349 -0.0349 0.9994 188.995 66.1621)" fill="#FFFFFF" font-family="'Verdana'" font-size="2.9607">Swedish lingonberry preserves</text>
<g id="Layer_1_6_">
	<path fill="none" stroke="#000000" stroke-width="0.0238" stroke-miterlimit="10" d="M329.382,39.252
		c1.974-1.454,2.04-2.916,0.37-4.676c-0.987-1.041-0.544-1.883,0.427-2.795l74.387,0.351c0.398,0.87,0.691,2.543-0.74,3.393
		c-0.694,0.412-0.317,2.452,0.463,3.316c0.264,0.293,0.005,0.819,0.32,1.062c0.38,0.293,0.411,0.278,0.7,0.566
		C366.142,45.345,329.382,39.252,329.382,39.252z"/>
	<path fill="#C41223" stroke="#000000" stroke-width="0.0238" stroke-miterlimit="10" d="M404.621,39.367
		c1.725,1.716,3.549,4.608,3.787,8.257c-0.127,0.681-0.094,1.395-0.095,2.094c-0.007,8.854,0.034,17.708-0.016,26.562
		c-0.06,10.55-0.189,21.098-0.3,31.647c-0.058,5.497-0.123,10.993-0.219,16.489c-0.059,3.33,0.238,6.74-0.376,9.971
		c-1.102,5.811-3.87,10.628-10.365,11.766c-5.303,0.93-10.636,1.89-15.994,2.252c-6.525,0.441-13.106,0.587-19.635,0.29
		c-8.417-0.385-16.894-0.537-25.158-2.534c-3.987-0.964-6.553-3.61-8.295-7.205c-1.972-4.074-2.284-8.317-2.16-12.828
		c0.376-13.633,0.406-27.276,0.474-40.915c0.035-6.947-0.16-13.896-0.206-20.845c-0.041-5.993,0.021-11.987-0.043-17.98
		c-0.032-2.961,0.919-5.325,3.362-7.122c0,0,17.356,2.147,37.692,2.798C380.164,42.479,392.897,41.163,404.621,39.367z"/>
	<path stroke="#000000" stroke-width="0.0238" stroke-miterlimit="10" d="M330.281,31.781c-2.98-1.009-3.298-1.414-3.468-4.338
		c-0.046-0.798-0.025-1.598-0.035-2.398c-0.029-2.192,0.179-2.663,2.125-3.802c5.707-3.323,12.891-3.449,19.385-3.968
		c7.914-0.632,15.884-0.705,23.819-0.565c8.728,0.155,18.238-0.309,26.727,1.913c3.521,0.921,4.103,1.908,6.63,2.657
		c0.614,0.182,1.603,1.955,1.69,2.711c0.217,1.88,0.419,3.815,0.183,5.672c-0.123,0.967-0.918,1.911-2.669,2.467
		C367.497,36.789,330.281,31.781,330.281,31.781z"/>
</g>
<path d="M325.986,56.63c0,0,19.147,1.985,41.977,1.985c13.189,0,27.887-0.82,40.27-1.985l-0.345,69.716
	c2.741-0.071-22.229,2.154-40.876,2.154c-18.142,0-41.395-2.154-41.395-2.154L325.986,56.63z"/>
<g id="Add_lines_6_">
	<path fill="none" stroke="#FFFFFF" stroke-width="0.0238" stroke-miterlimit="10" d="M326.937,25.351
		c0,0,44.845,6.613,79.624-0.154"/>
	<path fill="none" d="M407.959,126.345c-35.835,6.767-82.341,0.154-82.341,0.154l0.363-71.358c0,0,46.505,6.613,82.341-0.154
		L407.959,126.345z"/>
	
		<text transform="matrix(0.9994 0.0349 -0.0349 0.9994 328.2312 67.9507)" fill="#FFFFFF" font-family="'TwCenMT-Bold'" font-size="8.6275">LINGONSYLT</text>
	<path fill="none" d="M327.771,68.906c0,0,31.384,4.828,57.5,3.505"/>
</g>
<text transform="matrix(0.9994 0.0349 -0.0349 0.9994 329.0948 71.7478)" fill="#FFFFFF" font-family="'Verdana'" font-size="2.7608">Swedish lingonberry preserves</text>
<g id="Layer_1_7_">
	<path fill="none" stroke="#000000" stroke-width="0.0241" stroke-miterlimit="10" d="M460.501,37.942
		c1.998-1.471,2.064-2.951,0.374-4.732c-0.998-1.053-0.551-1.905,0.432-2.828l75.276,0.355c0.403,0.88,0.7,2.574-0.749,3.434
		c-0.702,0.417-0.321,2.481,0.468,3.356c0.267,0.297,0.005,0.829,0.324,1.075c0.385,0.297,0.416,0.282,0.709,0.572
		C497.7,44.107,460.501,37.942,460.501,37.942z"/>
	<path fill="#C41223" stroke="#000000" stroke-width="0.0241" stroke-miterlimit="10" d="M536.639,38.058
		c1.746,1.737,3.592,4.663,3.832,8.356c-0.128,0.689-0.095,1.412-0.096,2.119c-0.007,8.959,0.034,17.92-0.016,26.879
		c-0.061,10.676-0.191,21.35-0.303,32.025c-0.058,5.562-0.125,11.125-0.222,16.686c-0.06,3.37,0.24,6.821-0.38,10.091
		c-1.115,5.881-3.916,10.755-10.489,11.907c-5.367,0.941-10.763,1.912-16.185,2.278c-6.603,0.447-13.262,0.594-19.87,0.293
		c-8.517-0.389-17.096-0.544-25.458-2.565c-4.035-0.976-6.632-3.654-8.394-7.291c-1.996-4.123-2.312-8.417-2.186-12.982
		c0.38-13.796,0.411-27.602,0.48-41.404c0.035-7.03-0.161-14.063-0.208-21.094c-0.041-6.065,0.022-12.13-0.044-18.195
		c-0.032-2.996,0.93-5.388,3.402-7.208c0,0,17.564,2.173,38.142,2.832C511.889,41.207,524.775,39.875,536.639,38.058z"/>
	<path stroke="#000000" stroke-width="0.0241" stroke-miterlimit="10" d="M461.41,30.381c-3.016-1.021-3.338-1.431-3.509-4.39
		c-0.047-0.807-0.025-1.617-0.035-2.426c-0.03-2.218,0.181-2.695,2.15-3.847c5.775-3.363,13.045-3.49,19.617-4.015
		c8.009-0.64,16.074-0.713,24.104-0.571c8.832,0.157,18.456-0.313,27.047,1.936c3.563,0.932,4.152,1.93,6.71,2.688
		c0.622,0.184,1.622,1.979,1.711,2.743c0.22,1.903,0.424,3.861,0.185,5.74c-0.125,0.979-0.929,1.934-2.701,2.496
		C499.071,35.449,461.41,30.381,461.41,30.381z"/>
</g>
<path d="M457.064,55.527c0,0,19.376,2.008,42.478,2.008c13.347,0,28.22-0.83,40.752-2.008l-0.349,70.55
	c2.774-0.072-22.495,2.18-41.364,2.18c-18.358,0-41.89-2.18-41.89-2.18L457.064,55.527z"/>
<g id="Add_lines_7_">
	<path fill="none" stroke="#FFFFFF" stroke-width="0.0241" stroke-miterlimit="10" d="M458.026,23.874
		c0,0,45.381,6.692,80.576-0.156"/>
	<path fill="none" d="M540.017,126.076c-36.264,6.848-83.325,0.156-83.325,0.156l0.368-72.211c0,0,47.061,6.692,83.325-0.156
		L540.017,126.076z"/>
	
		<text transform="matrix(0.9994 0.0349 -0.0349 0.9994 459.3351 66.9846)" fill="#FFFFFF" font-family="'TwCenMT-Bold'" font-size="8.7306">LINGONSYLT</text>
	<path fill="none" d="M458.87,67.95c0,0,31.759,4.886,58.188,3.547"/>
</g>
<text transform="matrix(0.9994 0.0349 -0.0349 0.9994 460.2104 70.8251)" fill="#FFFFFF" font-family="'Verdana'" font-size="2.7938">Swedish lingonberry preserves</text>
<g id="Layer_1_8_">
	<path fill="none" stroke="#000000" stroke-width="0.0197" stroke-miterlimit="10" d="M585.456,57.904
		c1.638-1.206,1.693-2.42,0.307-3.88c-0.819-0.864-0.452-1.562,0.354-2.319l61.728,0.291c0.331,0.722,0.574,2.111-0.614,2.816
		c-0.576,0.342-0.263,2.035,0.384,2.752c0.219,0.243,0.004,0.68,0.266,0.882c0.315,0.243,0.341,0.231,0.581,0.469
		C615.96,62.96,585.456,57.904,585.456,57.904z"/>
	<path fill="#C41223" stroke="#000000" stroke-width="0.0197" stroke-miterlimit="10" d="M647.891,57.999
		c1.432,1.424,2.945,3.824,3.142,6.852c-0.105,0.565-0.078,1.158-0.079,1.738c-0.006,7.347,0.028,14.695-0.013,22.041
		c-0.05,8.754-0.157,17.508-0.249,26.261c-0.048,4.561-0.102,9.122-0.182,13.682c-0.049,2.763,0.197,5.593-0.312,8.274
		c-0.914,4.822-3.211,8.819-8.601,9.764c-4.401,0.772-8.826,1.568-13.272,1.868c-5.415,0.366-10.875,0.487-16.294,0.24
		c-6.984-0.319-14.019-0.446-20.876-2.103c-3.309-0.8-5.438-2.996-6.883-5.979c-1.636-3.381-1.896-6.902-1.792-10.645
		c0.312-11.313,0.337-22.634,0.393-33.952c0.029-5.765-0.132-11.531-0.171-17.297c-0.034-4.973,0.018-9.947-0.036-14.92
		c-0.026-2.457,0.762-4.418,2.789-5.91c0,0,14.403,1.782,31.277,2.322C627.596,60.581,638.162,59.489,647.891,57.999z"/>
	<path stroke="#000000" stroke-width="0.0197" stroke-miterlimit="10" d="M586.202,51.704c-2.473-0.837-2.737-1.174-2.878-3.6
		c-0.039-0.662-0.021-1.326-0.029-1.99c-0.024-1.819,0.148-2.21,1.763-3.155c4.736-2.758,10.697-2.862,16.086-3.293
		c6.568-0.525,13.181-0.585,19.766-0.469c7.243,0.129,15.134-0.256,22.179,1.588c2.922,0.764,3.404,1.583,5.502,2.205
		c0.51,0.151,1.33,1.622,1.403,2.25c0.18,1.56,0.347,3.166,0.152,4.707c-0.102,0.803-0.761,1.586-2.215,2.047
		C617.085,55.86,586.202,51.704,586.202,51.704z"/>
</g>
<path d="M582.638,72.324c0,0,15.889,1.647,34.833,1.647c10.945,0,23.141-0.681,33.417-1.647l-0.286,57.852
	c2.275-0.059-18.446,1.788-33.919,1.788c-15.054,0-34.35-1.788-34.35-1.788L582.638,72.324z"/>
<g id="Add_lines_8_">
	<path fill="none" stroke="#FFFFFF" stroke-width="0.0197" stroke-miterlimit="10" d="M583.427,46.368
		c0,0,37.213,5.488,66.074-0.128"/>
	<path fill="none" d="M650.661,130.175c-29.737,5.616-68.328,0.128-68.328,0.128l0.301-59.214c0,0,38.59,5.488,68.328-0.128
		L650.661,130.175z"/>
	
		<text transform="matrix(0.9994 0.0349 -0.0349 0.9994 584.5015 81.7188)" fill="#FFFFFF" font-family="'TwCenMT-Bold'" font-size="7.1592">LINGONSYLT</text>
	<path fill="none" d="M584.119,82.511c0,0,26.043,4.006,47.715,2.909"/>
</g>
<text transform="matrix(0.9994 0.0349 -0.0349 0.9994 585.2183 84.8688)" fill="#FFFFFF" font-family="'Verdana'" font-size="2.2909">Swedish lingonberry preserves</text>
<g id="Layer_1_9_">
	<path fill="none" stroke="#000000" stroke-width="0.0117" stroke-miterlimit="10" d="M693.803,95.336
		c0.972-0.716,1.004-1.435,0.182-2.302c-0.486-0.512-0.268-0.927,0.21-1.376l36.618,0.173c0.196,0.428,0.34,1.252-0.364,1.67
		c-0.341,0.203-0.156,1.207,0.228,1.632c0.13,0.144,0.002,0.403,0.158,0.523c0.187,0.144,0.202,0.137,0.345,0.278
		C711.898,98.336,693.803,95.336,693.803,95.336z"/>
	<path fill="#C41223" stroke="#000000" stroke-width="0.0117" stroke-miterlimit="10" d="M730.84,95.393
		c0.849,0.845,1.747,2.269,1.864,4.065c-0.062,0.335-0.046,0.687-0.047,1.031c-0.003,4.358,0.017,8.717-0.008,13.075
		c-0.03,5.193-0.093,10.386-0.148,15.578c-0.028,2.706-0.061,5.412-0.108,8.117c-0.029,1.639,0.117,3.318-0.185,4.909
		c-0.542,2.861-1.905,5.232-5.102,5.792c-2.611,0.458-5.236,0.93-7.873,1.108c-3.212,0.217-6.451,0.289-9.666,0.143
		c-4.143-0.189-8.316-0.265-12.384-1.248c-1.963-0.475-3.226-1.777-4.083-3.547c-0.971-2.006-1.125-4.094-1.063-6.315
		c0.185-6.711,0.2-13.427,0.233-20.141c0.017-3.42-0.079-6.841-0.101-10.261c-0.02-2.95,0.011-5.901-0.021-8.851
		c-0.016-1.458,0.452-2.621,1.655-3.506c0,0,8.544,1.057,18.554,1.377C718.8,96.925,725.069,96.277,730.84,95.393z"/>
	<path stroke="#000000" stroke-width="0.0117" stroke-miterlimit="10" d="M694.245,91.659c-1.467-0.497-1.624-0.696-1.707-2.135
		c-0.023-0.393-0.012-0.786-0.017-1.18c-0.014-1.079,0.088-1.311,1.046-1.871c2.809-1.636,6.346-1.698,9.543-1.953
		c3.896-0.311,7.819-0.347,11.725-0.278c4.296,0.076,8.978-0.152,13.157,0.942c1.733,0.453,2.02,0.939,3.264,1.308
		c0.302,0.09,0.789,0.962,0.832,1.334c0.107,0.926,0.206,1.878,0.09,2.792c-0.061,0.476-0.452,0.941-1.314,1.214
		C712.565,94.124,694.245,91.659,694.245,91.659z"/>
</g>
<path d="M692.13,103.891c0,0,9.426,0.977,20.664,0.977c6.493,0,13.728-0.404,19.824-0.977l-0.17,34.319
	c1.349-0.035-10.943,1.06-20.122,1.06c-8.93,0-20.377-1.06-20.377-1.06L692.13,103.891z"/>
<g id="Add_lines_9_">
	<path fill="none" stroke="#FFFFFF" stroke-width="0.0117" stroke-miterlimit="10" d="M692.599,88.493
		c0,0,22.076,3.255,39.196-0.076"/>
	<path fill="none" d="M732.483,138.209c-17.64,3.331-40.534,0.076-40.534,0.076l0.179-35.127c0,0,22.893,3.255,40.534-0.076
		L732.483,138.209z"/>
	
		<text transform="matrix(0.9994 0.0349 -0.0349 0.9994 693.2363 109.4646)" fill="#FFFFFF" font-family="'TwCenMT-Bold'" font-size="4.247">LINGONSYLT</text>
	<path fill="none" d="M693.009,109.934c0,0,15.449,2.377,28.305,1.725"/>
</g>
<text transform="matrix(0.9994 0.0349 -0.0349 0.9994 693.6616 111.3321)" fill="#FFFFFF" font-family="'Verdana'" font-size="1.359">Swedish lingonberry preserves</text>
<g id="Layer_1_10_">
	<path fill="none" stroke="#000000" stroke-width="0.0099" stroke-miterlimit="10" d="M774.375,104.527
		c0.819-0.603,0.846-1.21,0.154-1.94c-0.409-0.432-0.226-0.781,0.177-1.16l30.864,0.146c0.165,0.361,0.287,1.055-0.307,1.408
		c-0.288,0.171-0.131,1.017,0.192,1.376c0.109,0.122,0.002,0.34,0.133,0.441c0.158,0.122,0.17,0.115,0.291,0.235
		C789.627,107.055,774.375,104.527,774.375,104.527z"/>
	<path fill="#C41223" stroke="#000000" stroke-width="0.0099" stroke-miterlimit="10" d="M805.592,104.575
		c0.716,0.712,1.473,1.912,1.571,3.426c-0.053,0.283-0.039,0.579-0.039,0.869c-0.003,3.673,0.014,7.347-0.007,11.021
		c-0.025,4.377-0.078,8.754-0.124,13.13c-0.024,2.281-0.051,4.561-0.091,6.841c-0.024,1.382,0.099,2.796-0.156,4.137
		c-0.457,2.411-1.605,4.41-4.301,4.882c-2.2,0.386-4.413,0.784-6.636,0.934c-2.707,0.183-5.438,0.244-8.147,0.12
		c-3.492-0.16-7.009-0.223-10.438-1.052c-1.654-0.4-2.719-1.498-3.441-2.989c-0.818-1.69-0.948-3.451-0.896-5.323
		c0.156-5.656,0.169-11.317,0.197-16.976c0.015-2.882-0.066-5.766-0.085-8.649c-0.017-2.487,0.009-4.973-0.018-7.46
		c-0.013-1.229,0.381-2.209,1.395-2.955c0,0,7.201,0.891,15.639,1.161C795.445,105.866,800.728,105.32,805.592,104.575z"/>
	<path stroke="#000000" stroke-width="0.0099" stroke-miterlimit="10" d="M774.748,101.427c-1.237-0.419-1.368-0.587-1.439-1.8
		c-0.019-0.331-0.01-0.663-0.015-0.995c-0.012-0.909,0.074-1.105,0.882-1.577c2.368-1.379,5.348-1.431,8.043-1.646
		c3.284-0.262,6.591-0.292,9.883-0.234c3.621,0.064,7.567-0.128,11.089,0.794c1.461,0.382,1.702,0.791,2.751,1.102
		c0.255,0.076,0.665,0.811,0.701,1.125c0.09,0.78,0.174,1.583,0.076,2.353c-0.051,0.401-0.381,0.793-1.107,1.023
		C790.189,103.505,774.748,101.427,774.748,101.427z"/>
</g>
<path d="M772.966,111.737c0,0,7.944,0.823,17.416,0.823c5.472,0,11.57-0.34,16.709-0.823l-0.143,28.926
	c1.137-0.03-9.223,0.894-16.96,0.894c-7.527,0-17.175-0.894-17.175-0.894L772.966,111.737z"/>
<g id="Add_lines_10_">
	<path fill="none" stroke="#FFFFFF" stroke-width="0.0099" stroke-miterlimit="10" d="M773.36,98.759c0,0,18.607,2.744,33.037-0.064
		"/>
	<path fill="none" d="M806.977,140.662c-14.868,2.808-34.164,0.064-34.164,0.064l0.151-29.607c0,0,19.295,2.744,34.164-0.064
		L806.977,140.662z"/>
	
		<text transform="matrix(0.9994 0.0349 -0.0349 0.9994 773.8986 116.4338)" fill="#FFFFFF" font-family="'TwCenMT-Bold'" font-size="3.5796">LINGONSYLT</text>
	<path fill="none" d="M773.706,116.83c0,0,13.021,2.003,23.857,1.454"/>
</g>
<text transform="matrix(0.9994 0.0349 -0.0349 0.9994 774.2569 118.0088)" fill="#FFFFFF" font-family="'Verdana'" font-size="1.1455">Swedish lingonberry preserves</text>
<g id="Layer_1_11_">
	<path fill="none" stroke="#000000" stroke-width="0.0051" stroke-miterlimit="10" d="M840.683,125.78
		c0.423-0.312,0.438-0.625,0.079-1.003c-0.212-0.223-0.117-0.404,0.091-0.599l15.955,0.075c0.085,0.187,0.148,0.546-0.159,0.728
		c-0.149,0.088-0.068,0.526,0.099,0.711c0.057,0.063,0.001,0.176,0.069,0.228c0.082,0.063,0.088,0.06,0.15,0.121
		C848.567,127.087,840.683,125.78,840.683,125.78z"/>
	<path fill="#C41223" stroke="#000000" stroke-width="0.0051" stroke-miterlimit="10" d="M856.821,125.805
		c0.37,0.368,0.761,0.988,0.812,1.771c-0.027,0.146-0.02,0.299-0.02,0.449c-0.001,1.899,0.007,3.798-0.003,5.697
		c-0.013,2.263-0.041,4.525-0.064,6.788c-0.012,1.179-0.026,2.358-0.047,3.537c-0.013,0.714,0.051,1.446-0.081,2.139
		c-0.236,1.246-0.83,2.279-2.223,2.524c-1.137,0.199-2.281,0.405-3.43,0.483c-1.4,0.095-2.811,0.126-4.211,0.062
		c-1.805-0.083-3.623-0.115-5.396-0.544c-0.855-0.207-1.406-0.774-1.779-1.545c-0.423-0.874-0.49-1.784-0.463-2.752
		c0.081-2.924,0.087-5.85,0.102-8.776c0.008-1.49-0.034-2.981-0.044-4.471c-0.009-1.285,0.005-2.571-0.009-3.856
		c-0.007-0.635,0.197-1.142,0.721-1.528c0,0,3.723,0.461,8.084,0.6C851.575,126.473,854.306,126.19,856.821,125.805z"/>
	<path stroke="#000000" stroke-width="0.0051" stroke-miterlimit="10" d="M840.875,124.178c-0.639-0.216-0.707-0.303-0.744-0.93
		c-0.01-0.171-0.005-0.343-0.008-0.514c-0.006-0.47,0.038-0.571,0.456-0.815c1.224-0.713,2.765-0.74,4.158-0.851
		c1.698-0.136,3.407-0.151,5.109-0.121c1.872,0.033,3.912-0.066,5.733,0.41c0.755,0.198,0.88,0.409,1.422,0.57
		c0.132,0.039,0.344,0.419,0.363,0.581c0.047,0.403,0.09,0.818,0.039,1.217c-0.026,0.207-0.197,0.41-0.572,0.529
		C848.858,125.252,840.875,124.178,840.875,124.178z"/>
</g>
<path d="M839.954,129.508c0,0,4.107,0.426,9.003,0.426c2.829,0,5.981-0.176,8.637-0.426l-0.074,14.953
	c0.588-0.015-4.768,0.462-8.767,0.462c-3.891,0-8.879-0.462-8.879-0.462L839.954,129.508z"/>
<g id="Add_lines_11_">
	<path fill="none" stroke="#FFFFFF" stroke-width="0.0051" stroke-miterlimit="10" d="M840.158,122.799
		c0,0,9.619,1.418,17.078-0.033"/>
	<path fill="none" d="M857.536,144.461c-7.686,1.451-17.661,0.033-17.661,0.033l0.078-15.305c0,0,9.975,1.418,17.661-0.033
		L857.536,144.461z"/>
	
		<text transform="matrix(0.9994 0.0349 -0.0349 0.9994 840.4362 131.9358)" fill="#FFFFFF" font-family="'TwCenMT-Bold'" font-size="1.8505">LINGONSYLT</text>
	<path fill="none" d="M840.337,132.141c0,0,6.731,1.036,12.333,0.752"/>
</g>
<text transform="matrix(0.9994 0.0349 -0.0349 0.9994 840.6015 132.8269)" fill="#FFFFFF" font-family="'Verdana'" font-size="0.5921">Swedish lingonberry preserves</text>
<g id="Layer_1_12_">
	<path fill="none" stroke="#000000" stroke-width="0.0026" stroke-miterlimit="10" d="M881.897,137.264
		c0.217-0.16,0.224-0.32,0.041-0.513c-0.108-0.114-0.06-0.207,0.047-0.307l8.161,0.038c0.044,0.095,0.076,0.279-0.081,0.372
		c-0.076,0.045-0.035,0.269,0.051,0.364c0.029,0.032,0,0.09,0.035,0.117c0.042,0.032,0.045,0.031,0.077,0.062
		C885.93,137.933,881.897,137.264,881.897,137.264z"/>
	<path fill="#C41223" stroke="#000000" stroke-width="0.0026" stroke-miterlimit="10" d="M890.151,137.277
		c0.189,0.188,0.389,0.506,0.415,0.906c-0.014,0.075-0.01,0.153-0.01,0.23c-0.001,0.971,0.004,1.943-0.002,2.914
		c-0.007,1.157-0.021,2.315-0.033,3.472c-0.006,0.603-0.014,1.206-0.024,1.809c-0.006,0.365,0.026,0.739-0.041,1.094
		c-0.121,0.638-0.424,1.166-1.137,1.291c-0.582,0.102-1.167,0.207-1.755,0.247c-0.716,0.048-1.438,0.064-2.154,0.032
		c-0.923-0.042-1.853-0.059-2.76-0.278c-0.437-0.106-0.719-0.396-0.91-0.79c-0.216-0.447-0.251-0.912-0.237-1.407
		c0.041-1.496,0.045-2.992,0.052-4.489c0.004-0.762-0.018-1.525-0.023-2.287c-0.004-0.658,0.002-1.315-0.005-1.972
		c-0.003-0.325,0.101-0.584,0.369-0.781c0,0,1.904,0.236,4.135,0.307C887.468,137.618,888.865,137.474,890.151,137.277z"/>
	<path stroke="#000000" stroke-width="0.0026" stroke-miterlimit="10" d="M881.996,136.445c-0.327-0.111-0.362-0.155-0.38-0.476
		c-0.005-0.088-0.003-0.175-0.004-0.263c-0.003-0.24,0.02-0.292,0.233-0.417c0.626-0.365,1.414-0.378,2.127-0.435
		c0.868-0.069,1.743-0.077,2.613-0.062c0.958,0.017,2.001-0.034,2.932,0.21c0.386,0.101,0.45,0.209,0.727,0.291
		c0.067,0.02,0.176,0.214,0.185,0.297c0.024,0.206,0.046,0.419,0.02,0.622c-0.014,0.106-0.101,0.21-0.293,0.271
		C886.078,136.994,881.996,136.445,881.996,136.445z"/>
</g>
<path d="M881.524,139.171c0,0,2.101,0.218,4.605,0.218c1.447,0,3.059-0.09,4.418-0.218l-0.038,7.648
	c0.301-0.008-2.439,0.236-4.484,0.236c-1.99,0-4.541-0.236-4.541-0.236L881.524,139.171z"/>
<g id="Add_lines_12_">
	<path fill="none" stroke="#FFFFFF" stroke-width="0.0026" stroke-miterlimit="10" d="M881.629,135.739c0,0,4.92,0.726,8.735-0.017"
		/>
	<path fill="none" d="M890.517,146.819c-3.931,0.742-9.033,0.017-9.033,0.017l0.04-7.828c0,0,5.102,0.726,9.033-0.017
		L890.517,146.819z"/>
	
		<text transform="matrix(0.9994 0.0349 -0.0349 0.9994 881.7709 140.4128)" fill="#FFFFFF" font-family="'TwCenMT-Bold'" font-size="0.9465">LINGONSYLT</text>
	<path fill="none" d="M881.72,140.518c0,0,3.443,0.53,6.308,0.385"/>
</g>
<text transform="matrix(0.9994 0.0349 -0.0349 0.9994 881.8547 140.8691)" fill="#FFFFFF" font-family="'Verdana'" font-size="0.3029">Swedish lingonberry preserves</text>
<g id="Layer_1_13_">
	<path fill="none" stroke="#000000" stroke-width="0.0026" stroke-miterlimit="10" d="M918.093,137.264
		c0.217-0.16,0.224-0.32,0.041-0.513c-0.108-0.114-0.06-0.207,0.047-0.307l8.161,0.038c0.044,0.095,0.076,0.279-0.081,0.372
		c-0.076,0.045-0.035,0.269,0.051,0.364c0.029,0.032,0,0.09,0.035,0.117c0.042,0.032,0.045,0.031,0.077,0.062
		C922.125,137.933,918.093,137.264,918.093,137.264z"/>
	<path fill="#C41223" stroke="#000000" stroke-width="0.0026" stroke-miterlimit="10" d="M926.347,137.277
		c0.189,0.188,0.389,0.506,0.415,0.906c-0.014,0.075-0.01,0.153-0.01,0.23c-0.001,0.971,0.004,1.943-0.002,2.914
		c-0.007,1.157-0.021,2.315-0.033,3.472c-0.006,0.603-0.014,1.206-0.024,1.809c-0.006,0.365,0.026,0.739-0.041,1.094
		c-0.121,0.638-0.424,1.166-1.137,1.291c-0.582,0.102-1.167,0.207-1.755,0.247c-0.716,0.048-1.438,0.064-2.154,0.032
		c-0.923-0.042-1.853-0.059-2.76-0.278c-0.437-0.106-0.719-0.396-0.91-0.79c-0.216-0.447-0.251-0.912-0.237-1.407
		c0.041-1.496,0.045-2.992,0.052-4.489c0.004-0.762-0.018-1.525-0.023-2.287c-0.005-0.658,0.002-1.315-0.005-1.972
		c-0.003-0.325,0.101-0.584,0.369-0.781c0,0,1.904,0.236,4.135,0.307C923.664,137.618,925.061,137.474,926.347,137.277z"/>
	<path stroke="#000000" stroke-width="0.0026" stroke-miterlimit="10" d="M918.191,136.445c-0.327-0.111-0.362-0.155-0.38-0.476
		c-0.005-0.088-0.003-0.175-0.004-0.263c-0.003-0.24,0.02-0.292,0.233-0.417c0.626-0.365,1.414-0.378,2.127-0.435
		c0.868-0.069,1.743-0.077,2.613-0.062c0.958,0.017,2.001-0.034,2.932,0.21c0.386,0.101,0.45,0.209,0.727,0.291
		c0.067,0.02,0.176,0.214,0.185,0.297c0.024,0.206,0.046,0.419,0.02,0.622c-0.013,0.106-0.101,0.21-0.293,0.271
		C922.274,136.994,918.191,136.445,918.191,136.445z"/>
</g>
<path d="M917.72,139.171c0,0,2.101,0.218,4.605,0.218c1.447,0,3.059-0.09,4.418-0.218l-0.038,7.648
	c0.301-0.008-2.439,0.236-4.484,0.236c-1.99,0-4.541-0.236-4.541-0.236L917.72,139.171z"/>
<g id="Add_lines_13_">
	<path fill="none" stroke="#FFFFFF" stroke-width="0.0026" stroke-miterlimit="10" d="M917.824,135.739c0,0,4.92,0.726,8.735-0.017"
		/>
	<path fill="none" d="M926.713,146.819c-3.931,0.742-9.033,0.017-9.033,0.017l0.04-7.828c0,0,5.102,0.726,9.033-0.017
		L926.713,146.819z"/>
	
		<text transform="matrix(0.9994 0.0349 -0.0349 0.9994 917.9659 140.4129)" fill="#FFFFFF" font-family="'TwCenMT-Bold'" font-size="0.9465">LINGONSYLT</text>
	<path fill="none" d="M917.916,140.518c0,0,3.443,0.53,6.308,0.385"/>
</g>
<text transform="matrix(0.9994 0.0349 -0.0349 0.9994 918.0505 140.8692)" fill="#FFFFFF" font-family="'Verdana'" font-size="0.3029">Swedish lingonberry preserves</text>
<g id="Layer_1_14_">
	<path fill="none" stroke="#000000" stroke-width="0.0023" stroke-miterlimit="10" d="M950.537,138.575
		c0.193-0.142,0.199-0.285,0.036-0.457c-0.096-0.102-0.053-0.184,0.042-0.273l7.271,0.034c0.039,0.085,0.068,0.249-0.072,0.332
		c-0.068,0.04-0.031,0.24,0.045,0.324c0.026,0.029,0,0.08,0.031,0.104c0.037,0.029,0.04,0.027,0.068,0.055
		C954.131,139.17,950.537,138.575,950.537,138.575z"/>
	<path fill="#C41223" stroke="#000000" stroke-width="0.0023" stroke-miterlimit="10" d="M957.892,138.586
		c0.169,0.168,0.347,0.45,0.37,0.807c-0.012,0.067-0.009,0.136-0.009,0.205c-0.001,0.865,0.003,1.731-0.002,2.596
		c-0.006,1.031-0.018,2.062-0.029,3.093c-0.006,0.537-0.012,1.075-0.021,1.612c-0.006,0.325,0.023,0.659-0.037,0.975
		c-0.108,0.568-0.378,1.039-1.013,1.15c-0.518,0.091-1.04,0.185-1.563,0.22c-0.638,0.043-1.281,0.057-1.919,0.028
		c-0.823-0.038-1.651-0.053-2.459-0.248c-0.39-0.094-0.641-0.353-0.811-0.704c-0.193-0.398-0.223-0.813-0.211-1.254
		c0.037-1.333,0.04-2.666,0.046-3.999c0.003-0.679-0.016-1.358-0.02-2.038c-0.004-0.586,0.002-1.172-0.004-1.758
		c-0.003-0.289,0.09-0.52,0.329-0.696c0,0,1.697,0.21,3.684,0.274C955.501,138.89,956.746,138.761,957.892,138.586z"/>
	<path stroke="#000000" stroke-width="0.0023" stroke-miterlimit="10" d="M950.625,137.844c-0.291-0.099-0.322-0.138-0.339-0.424
		c-0.005-0.078-0.002-0.156-0.003-0.234c-0.003-0.214,0.017-0.26,0.208-0.372c0.558-0.325,1.26-0.337,1.895-0.388
		c0.774-0.062,1.553-0.069,2.328-0.055c0.853,0.015,1.783-0.03,2.613,0.187c0.344,0.09,0.401,0.186,0.648,0.26
		c0.06,0.018,0.157,0.191,0.165,0.265c0.021,0.184,0.041,0.373,0.018,0.554c-0.012,0.095-0.09,0.187-0.261,0.241
		C954.263,138.334,950.625,137.844,950.625,137.844z"/>
</g>
<path d="M950.205,140.273c0,0,1.872,0.194,4.103,0.194c1.289,0,2.726-0.08,3.936-0.194l-0.034,6.815
	c0.268-0.007-2.173,0.211-3.996,0.211c-1.773,0-4.046-0.211-4.046-0.211L950.205,140.273z"/>
<g id="Add_lines_14_">
	<path fill="none" stroke="#FFFFFF" stroke-width="0.0023" stroke-miterlimit="10" d="M950.298,137.216c0,0,4.384,0.646,7.783-0.015
		"/>
	<path fill="none" d="M958.218,147.088c-3.503,0.661-8.049,0.015-8.049,0.015l0.036-6.975c0,0,4.546,0.646,8.049-0.015
		L958.218,147.088z"/>
	
		<text transform="matrix(0.9994 0.0349 -0.0349 0.9994 950.4255 141.3798)" fill="#FFFFFF" font-family="'TwCenMT-Bold'" font-size="0.8433">LINGONSYLT</text>
	<path fill="none" d="M950.38,141.473c0,0,3.068,0.472,5.621,0.343"/>
</g>
<text transform="matrix(0.9994 0.0349 -0.0349 0.9994 950.5002 141.7864)" fill="#FFFFFF" font-family="'Verdana'" font-size="0.2699">Swedish lingonberry preserves</text>
<g id="Layer_1_15_">
	<path fill="none" stroke="#000000" stroke-width="0.0015" stroke-miterlimit="10" d="M983.177,142.351
		c0.125-0.092,0.129-0.185,0.023-0.296c-0.062-0.066-0.034-0.119,0.027-0.177l4.708,0.022c0.025,0.055,0.044,0.161-0.047,0.215
		c-0.044,0.026-0.02,0.155,0.029,0.21c0.017,0.019,0,0.052,0.02,0.067c0.024,0.019,0.026,0.018,0.044,0.036
		C985.503,142.737,983.177,142.351,983.177,142.351z"/>
	<path fill="#C41223" stroke="#000000" stroke-width="0.0015" stroke-miterlimit="10" d="M987.939,142.359
		c0.109,0.109,0.225,0.292,0.24,0.523c-0.008,0.043-0.006,0.088-0.006,0.133c0,0.56,0.002,1.121-0.001,1.681
		c-0.004,0.668-0.012,1.335-0.019,2.003c-0.004,0.348-0.008,0.696-0.014,1.044c-0.004,0.211,0.015,0.427-0.024,0.631
		c-0.07,0.368-0.245,0.673-0.656,0.745c-0.336,0.059-0.673,0.12-1.012,0.143c-0.413,0.028-0.829,0.037-1.243,0.018
		c-0.533-0.024-1.069-0.034-1.592-0.16c-0.252-0.061-0.415-0.229-0.525-0.456c-0.125-0.258-0.145-0.526-0.137-0.812
		c0.024-0.863,0.026-1.726,0.03-2.59c0.002-0.44-0.01-0.88-0.013-1.319c-0.003-0.379,0.001-0.759-0.003-1.138
		c-0.002-0.187,0.058-0.337,0.213-0.451c0,0,1.099,0.136,2.386,0.177C986.391,142.555,987.197,142.472,987.939,142.359z"/>
	<path stroke="#000000" stroke-width="0.0015" stroke-miterlimit="10" d="M983.234,141.878c-0.189-0.064-0.209-0.09-0.219-0.275
		c-0.003-0.05-0.002-0.101-0.002-0.152c-0.002-0.139,0.011-0.169,0.134-0.241c0.361-0.21,0.816-0.218,1.227-0.251
		c0.501-0.04,1.005-0.045,1.508-0.036c0.552,0.01,1.154-0.02,1.692,0.121c0.223,0.058,0.26,0.121,0.42,0.168
		c0.039,0.012,0.101,0.124,0.107,0.172c0.014,0.119,0.026,0.241,0.012,0.359c-0.008,0.061-0.058,0.121-0.169,0.156
		C985.589,142.195,983.234,141.878,983.234,141.878z"/>
</g>
<path d="M982.962,143.451c0,0,1.212,0.126,2.657,0.126c0.835,0,1.765-0.052,2.549-0.126l-0.022,4.412
	c0.174-0.005-1.407,0.136-2.587,0.136c-1.148,0-2.62-0.136-2.62-0.136L982.962,143.451z"/>
<g id="Add_lines_15_">
	<path fill="none" stroke="#FFFFFF" stroke-width="0.0015" stroke-miterlimit="10" d="M983.022,141.471c0,0,2.838,0.419,5.04-0.01"
		/>
	<path fill="none" d="M988.15,147.863c-2.268,0.428-5.211,0.01-5.211,0.01l0.023-4.516c0,0,2.943,0.419,5.211-0.01L988.15,147.863z"
		/>
	
		<text transform="matrix(0.9994 0.0349 -0.0349 0.9994 983.105 144.1679)" fill="#FFFFFF" font-family="'TwCenMT-Bold'" font-size="0.546">LINGONSYLT</text>
	<path fill="none" d="M983.075,144.228c0,0,1.986,0.306,3.639,0.222"/>
</g>
<text transform="matrix(0.9994 0.0349 -0.0349 0.9994 983.1525 144.4305)" fill="#FFFFFF" font-family="'Verdana'" font-size="0.1747">Swedish lingonberry preserves</text>
<g id="Layer_1_16_">
	<path fill="none" stroke="#000000" stroke-width="9.372468e-04" stroke-miterlimit="10" d="M1015.833,144.972
		c0.078-0.057,0.08-0.115,0.015-0.184c-0.039-0.041-0.021-0.074,0.017-0.11l2.929,0.014c0.016,0.034,0.027,0.1-0.029,0.134
		c-0.027,0.016-0.012,0.097,0.018,0.131c0.01,0.012,0,0.032,0.013,0.042c0.015,0.012,0.016,0.011,0.028,0.022
		C1017.281,145.212,1015.833,144.972,1015.833,144.972z"/>
	<path fill="#C41223" stroke="#000000" stroke-width="9.372468e-04" stroke-miterlimit="10" d="M1018.796,144.976
		c0.068,0.068,0.14,0.181,0.149,0.325c-0.005,0.027-0.004,0.055-0.004,0.082c0,0.349,0.001,0.697-0.001,1.046
		c-0.002,0.415-0.007,0.831-0.012,1.246c-0.002,0.216-0.005,0.433-0.009,0.649c-0.002,0.131,0.009,0.265-0.015,0.393
		c-0.043,0.229-0.152,0.419-0.408,0.463c-0.209,0.037-0.419,0.074-0.63,0.089c-0.257,0.017-0.516,0.023-0.773,0.011
		c-0.331-0.015-0.665-0.021-0.991-0.1c-0.157-0.038-0.258-0.142-0.327-0.284c-0.078-0.16-0.09-0.328-0.085-0.505
		c0.015-0.537,0.016-1.074,0.019-1.611c0.001-0.274-0.006-0.547-0.008-0.821c-0.002-0.236,0.001-0.472-0.002-0.708
		c-0.001-0.117,0.036-0.21,0.132-0.28c0,0,0.684,0.085,1.484,0.11C1017.833,145.099,1018.335,145.047,1018.796,144.976z"/>
	<path stroke="#000000" stroke-width="9.372468e-04" stroke-miterlimit="10" d="M1015.869,144.677
		c-0.117-0.04-0.13-0.056-0.137-0.171c-0.002-0.031-0.001-0.063-0.001-0.094c-0.001-0.086,0.007-0.105,0.084-0.15
		c0.225-0.131,0.508-0.136,0.763-0.156c0.312-0.025,0.626-0.028,0.938-0.022c0.344,0.006,0.718-0.012,1.052,0.075
		c0.139,0.036,0.162,0.075,0.261,0.105c0.024,0.007,0.063,0.077,0.067,0.107c0.009,0.074,0.016,0.15,0.007,0.223
		c-0.005,0.038-0.036,0.075-0.105,0.097C1017.334,144.875,1015.869,144.677,1015.869,144.677z"/>
</g>
<path d="M1015.7,145.656c0,0,0.754,0.078,1.653,0.078c0.519,0,1.098-0.032,1.586-0.078l-0.014,2.746
	c0.108-0.003-0.875,0.085-1.61,0.085c-0.714,0-1.63-0.085-1.63-0.085L1015.7,145.656z"/>
<g id="Add_lines_16_">
	<path fill="none" stroke="#FFFFFF" stroke-width="9.372468e-04" stroke-miterlimit="10" d="M1015.737,144.424
		c0,0,1.766,0.26,3.136-0.006"/>
	<path fill="none" d="M1018.928,148.402c-1.411,0.266-3.243,0.006-3.243,0.006l0.014-2.81c0,0,1.831,0.26,3.243-0.006
		L1018.928,148.402z"/>
	
		<text transform="matrix(0.9994 0.0349 -0.0349 0.9994 1015.7888 146.1018)" fill="#FFFFFF" font-family="'TwCenMT-Bold'" font-size="0.3398">LINGONSYLT</text>
	<path fill="none" d="M1015.77,146.14c0,0,1.236,0.19,2.264,0.138"/>
</g>
<text transform="matrix(0.9994 0.0349 -0.0349 0.9994 1015.8183 146.2655)" fill="#FFFFFF" font-family="'Verdana'" font-size="0.1087">Swedish lingonberry preserves</text>
<g id="Layer_1_17_">
	<path fill="none" stroke="#000000" stroke-width="8.870371e-04" stroke-miterlimit="10" d="M1041.768,145.203
		c0.074-0.054,0.076-0.109,0.014-0.174c-0.037-0.039-0.02-0.07,0.016-0.104l2.772,0.013c0.015,0.032,0.026,0.095-0.028,0.126
		c-0.026,0.015-0.012,0.091,0.017,0.124c0.01,0.011,0,0.031,0.012,0.04c0.014,0.011,0.015,0.01,0.026,0.021
		C1043.138,145.43,1041.768,145.203,1041.768,145.203z"/>
	<path fill="#C41223" stroke="#000000" stroke-width="8.870371e-04" stroke-miterlimit="10" d="M1044.572,145.207
		c0.064,0.064,0.132,0.172,0.141,0.308c-0.005,0.025-0.004,0.052-0.004,0.078c0,0.33,0.001,0.66,0,0.99
		c-0.002,0.393-0.007,0.786-0.011,1.18c-0.002,0.205-0.005,0.41-0.008,0.615c-0.002,0.124,0.009,0.251-0.014,0.372
		c-0.041,0.217-0.144,0.396-0.386,0.439c-0.198,0.035-0.396,0.07-0.596,0.084c-0.243,0.016-0.488,0.022-0.732,0.011
		c-0.314-0.014-0.63-0.02-0.938-0.094c-0.149-0.036-0.244-0.135-0.309-0.269c-0.073-0.152-0.085-0.31-0.08-0.478
		c0.014-0.508,0.015-1.017,0.018-1.525c0.001-0.259-0.006-0.518-0.008-0.777c-0.002-0.223,0.001-0.447-0.002-0.67
		c-0.001-0.11,0.034-0.198,0.125-0.265c0,0,0.647,0.08,1.405,0.104C1043.661,145.323,1044.135,145.274,1044.572,145.207z"/>
	<path stroke="#000000" stroke-width="8.870371e-04" stroke-miterlimit="10" d="M1041.802,144.924
		c-0.111-0.038-0.123-0.053-0.129-0.162c-0.002-0.03-0.001-0.06-0.001-0.089c-0.001-0.082,0.007-0.099,0.079-0.142
		c0.213-0.124,0.48-0.129,0.723-0.148c0.295-0.024,0.592-0.026,0.888-0.021c0.325,0.006,0.68-0.012,0.996,0.071
		c0.131,0.034,0.153,0.071,0.247,0.099c0.023,0.007,0.06,0.073,0.063,0.101c0.008,0.07,0.016,0.142,0.007,0.211
		c-0.005,0.036-0.034,0.071-0.099,0.092C1043.189,145.111,1041.802,144.924,1041.802,144.924z"/>
</g>
<path d="M1041.642,145.851c0,0,0.714,0.074,1.564,0.074c0.492,0,1.039-0.031,1.501-0.074l-0.013,2.598
	c0.102-0.003-0.829,0.08-1.524,0.08c-0.676,0-1.543-0.08-1.543-0.08L1041.642,145.851z"/>
<g id="Add_lines_17_">
	<path fill="none" stroke="#FFFFFF" stroke-width="8.870371e-04" stroke-miterlimit="10" d="M1041.677,144.685
		c0,0,1.672,0.246,2.968-0.006"/>
	<path fill="none" d="M1044.697,148.449c-1.336,0.252-3.069,0.006-3.069,0.006l0.014-2.66c0,0,1.733,0.246,3.069-0.006
		L1044.697,148.449z"/>
	
		<text transform="matrix(0.9994 0.0349 -0.0349 0.9994 1041.7264 146.2727)" fill="#FFFFFF" font-family="'TwCenMT-Bold'" font-size="0.3216">LINGONSYLT</text>
	<path fill="none" d="M1041.708,146.308c0,0,1.17,0.18,2.143,0.131"/>
</g>
<text transform="matrix(0.9994 0.0349 -0.0349 0.9994 1041.7543 146.4276)" fill="#FFFFFF" font-family="'Verdana'" font-size="0.1029">Swedish lingonberry preserves</text>
<g id="Layer_1_18_">
	<path fill="none" stroke="#000000" stroke-width="6.025158e-04" stroke-miterlimit="10" d="M1060.336,146.513
		c0.05-0.037,0.052-0.074,0.009-0.118c-0.025-0.026-0.014-0.048,0.011-0.071l1.883,0.009c0.01,0.022,0.018,0.064-0.019,0.086
		c-0.018,0.01-0.008,0.062,0.012,0.084c0.007,0.007,0,0.021,0.008,0.027c0.01,0.007,0.01,0.007,0.018,0.014
		C1061.267,146.667,1060.336,146.513,1060.336,146.513z"/>
	<path fill="#C41223" stroke="#000000" stroke-width="6.025158e-04" stroke-miterlimit="10" d="M1062.241,146.516
		c0.044,0.043,0.09,0.117,0.096,0.209c-0.003,0.017-0.002,0.035-0.002,0.053c0,0.224,0.001,0.448,0,0.672
		c-0.001,0.267-0.005,0.534-0.008,0.801c-0.001,0.139-0.003,0.278-0.006,0.417c-0.001,0.084,0.006,0.171-0.009,0.252
		c-0.028,0.147-0.098,0.269-0.262,0.298c-0.134,0.024-0.269,0.048-0.405,0.057c-0.165,0.011-0.332,0.015-0.497,0.007
		c-0.213-0.01-0.428-0.014-0.637-0.064c-0.101-0.024-0.166-0.091-0.21-0.182c-0.05-0.103-0.058-0.211-0.055-0.325
		c0.01-0.345,0.01-0.691,0.012-1.036c0.001-0.176-0.004-0.352-0.005-0.528c-0.001-0.152,0-0.303-0.001-0.455
		c-0.001-0.075,0.023-0.135,0.085-0.18c0,0,0.439,0.054,0.954,0.071C1061.622,146.595,1061.944,146.562,1062.241,146.516z"/>
	<path stroke="#000000" stroke-width="6.025158e-04" stroke-miterlimit="10" d="M1060.359,146.324
		c-0.075-0.026-0.083-0.036-0.088-0.11c-0.001-0.02-0.001-0.04-0.001-0.061c-0.001-0.055,0.005-0.067,0.054-0.096
		c0.145-0.084,0.326-0.087,0.491-0.1c0.2-0.016,0.402-0.018,0.603-0.014c0.221,0.004,0.462-0.008,0.677,0.048
		c0.089,0.023,0.104,0.048,0.168,0.067c0.016,0.005,0.041,0.049,0.043,0.069c0.005,0.048,0.011,0.097,0.005,0.144
		c-0.003,0.024-0.023,0.048-0.068,0.062C1061.301,146.451,1060.359,146.324,1060.359,146.324z"/>
</g>
<path d="M1060.25,146.953c0,0,0.485,0.05,1.063,0.05c0.334,0,0.706-0.021,1.02-0.05l-0.009,1.765
	c0.069-0.002-0.563,0.055-1.035,0.055c-0.459,0-1.048-0.055-1.048-0.055L1060.25,146.953z"/>
<g id="Add_lines_18_">
	<path fill="none" stroke="#FFFFFF" stroke-width="6.025158e-04" stroke-miterlimit="10" d="M1060.274,146.161
		c0,0,1.135,0.167,2.016-0.004"/>
	<path fill="none" d="M1062.325,148.718c-0.907,0.171-2.085,0.004-2.085,0.004l0.009-1.807c0,0,1.177,0.167,2.085-0.004
		L1062.325,148.718z"/>
	
		<text transform="matrix(0.9994 0.0349 -0.0349 0.9994 1060.3075 147.2391)" fill="#FFFFFF" font-family="'TwCenMT-Bold'" font-size="0.2184">LINGONSYLT</text>
	<path fill="none" d="M1060.295,147.264c0,0,0.794,0.122,1.456,0.089"/>
</g>
<text transform="matrix(0.9994 0.0349 -0.0349 0.9994 1060.3263 147.3454)" fill="#FFFFFF" font-family="'Verdana'" font-size="0.0699">Swedish lingonberry preserves</text>
<g id="Layer_1_19_">
	<path fill="none" stroke="#000000" stroke-width="3.849406e-04" stroke-miterlimit="10" d="M1076.427,147.518
		c0.032-0.024,0.033-0.047,0.006-0.076c-0.016-0.017-0.009-0.03,0.007-0.045l1.203,0.006c0.006,0.014,0.011,0.041-0.012,0.055
		c-0.011,0.007-0.005,0.04,0.007,0.054c0.004,0.005,0,0.013,0.005,0.017c0.006,0.005,0.007,0.005,0.011,0.009
		C1077.021,147.616,1076.427,147.518,1076.427,147.518z"/>
	<path fill="#C41223" stroke="#000000" stroke-width="3.849406e-04" stroke-miterlimit="10" d="M1077.644,147.52
		c0.028,0.028,0.057,0.075,0.061,0.134c-0.002,0.011-0.001,0.023-0.001,0.034c0,0.143,0,0.286,0,0.43
		c-0.001,0.171-0.003,0.341-0.005,0.512c-0.001,0.089-0.002,0.178-0.004,0.267c-0.001,0.054,0.004,0.109-0.006,0.161
		c-0.018,0.094-0.063,0.172-0.168,0.19c-0.086,0.015-0.172,0.031-0.259,0.036c-0.105,0.007-0.212,0.01-0.318,0.005
		c-0.136-0.006-0.273-0.009-0.407-0.041c-0.064-0.016-0.106-0.058-0.134-0.117c-0.032-0.066-0.037-0.135-0.035-0.208
		c0.006-0.22,0.007-0.441,0.008-0.662c0-0.112-0.003-0.225-0.003-0.337c-0.001-0.097,0-0.194-0.001-0.291
		c0-0.048,0.015-0.086,0.054-0.115c0,0,0.281,0.035,0.61,0.045C1077.248,147.57,1077.454,147.549,1077.644,147.52z"/>
	<path stroke="#000000" stroke-width="3.849406e-04" stroke-miterlimit="10" d="M1076.441,147.397
		c-0.048-0.016-0.053-0.023-0.056-0.07c-0.001-0.013,0-0.026-0.001-0.039c0-0.035,0.003-0.043,0.034-0.061
		c0.092-0.054,0.208-0.056,0.313-0.064c0.128-0.01,0.257-0.011,0.385-0.009c0.141,0.003,0.295-0.005,0.432,0.031
		c0.057,0.015,0.066,0.031,0.107,0.043c0.01,0.003,0.026,0.032,0.027,0.044c0.004,0.03,0.007,0.062,0.003,0.092
		c-0.002,0.016-0.015,0.031-0.043,0.04C1077.043,147.478,1076.441,147.397,1076.441,147.397z"/>
</g>
<path d="M1076.372,147.799c0,0,0.31,0.032,0.679,0.032c0.213,0,0.451-0.013,0.651-0.032l-0.006,1.128
	c0.044-0.001-0.359,0.035-0.661,0.035c-0.293,0-0.67-0.035-0.67-0.035L1076.372,147.799z"/>
<g id="Add_lines_19_">
	<path fill="none" stroke="#FFFFFF" stroke-width="3.849406e-04" stroke-miterlimit="10" d="M1076.387,147.293
		c0,0,0.725,0.107,1.288-0.002"/>
	<path fill="none" d="M1077.698,148.926c-0.58,0.109-1.332,0.002-1.332,0.002l0.006-1.154c0,0,0.752,0.107,1.332-0.002
		L1077.698,148.926z"/>
	
		<text transform="matrix(0.9994 0.0349 -0.0349 0.9994 1076.4086 147.9822)" fill="#FFFFFF" font-family="'TwCenMT-Bold'" font-size="0.1395">LINGONSYLT</text>
	<path fill="none" d="M1076.401,147.997c0,0,0.508,0.078,0.93,0.057"/>
</g>
<text transform="matrix(0.9994 0.0349 -0.0349 0.9994 1076.4209 148.05)" fill="#FFFFFF" font-family="'Verdana'" font-size="0.0407">Swedish lingonberry preserves</text>
<g id="Layer_1_21_">
	<path fill="none" stroke="#000000" stroke-width="0.0023" stroke-miterlimit="10" d="M1098.227,139.07
		c0.194-0.143,0.201-0.287,0.036-0.46c-0.097-0.102-0.054-0.185,0.042-0.275l7.324,0.035c0.039,0.086,0.068,0.25-0.073,0.334
		c-0.068,0.041-0.031,0.241,0.046,0.326c0.026,0.029,0,0.081,0.032,0.105c0.037,0.029,0.04,0.027,0.069,0.056
		C1101.846,139.67,1098.227,139.07,1098.227,139.07z"/>
	<path fill="#C41223" stroke="#000000" stroke-width="0.0023" stroke-miterlimit="10" d="M1105.634,139.082
		c0.17,0.169,0.349,0.454,0.373,0.813c-0.012,0.067-0.009,0.137-0.009,0.206c-0.001,0.872,0.003,1.743-0.001,2.615
		c-0.006,1.039-0.019,2.077-0.03,3.116c-0.006,0.541-0.012,1.082-0.022,1.623c-0.006,0.328,0.023,0.664-0.037,0.982
		c-0.109,0.572-0.381,1.046-1.021,1.158c-0.522,0.092-1.047,0.186-1.575,0.222c-0.642,0.043-1.29,0.058-1.933,0.029
		c-0.829-0.038-1.663-0.053-2.477-0.25c-0.393-0.095-0.645-0.355-0.817-0.709c-0.194-0.401-0.225-0.819-0.213-1.263
		c0.037-1.342,0.04-2.685,0.047-4.028c0.004-0.684-0.016-1.368-0.02-2.052c-0.004-0.59,0.002-1.18-0.004-1.77
		c-0.003-0.292,0.09-0.524,0.331-0.701c0,0,1.709,0.211,3.711,0.275C1103.226,139.388,1104.48,139.259,1105.634,139.082z"/>
	<path stroke="#000000" stroke-width="0.0023" stroke-miterlimit="10" d="M1098.315,138.335c-0.293-0.099-0.325-0.139-0.341-0.427
		c-0.005-0.079-0.002-0.157-0.003-0.236c-0.003-0.216,0.018-0.262,0.209-0.374c0.562-0.327,1.269-0.34,1.908-0.391
		c0.779-0.062,1.564-0.069,2.345-0.056c0.859,0.015,1.796-0.03,2.631,0.188c0.347,0.091,0.404,0.188,0.653,0.262
		c0.06,0.018,0.158,0.192,0.166,0.267c0.021,0.185,0.041,0.376,0.018,0.558c-0.012,0.095-0.09,0.188-0.263,0.243
		C1101.979,138.828,1098.315,138.335,1098.315,138.335z"/>
</g>
<path d="M1097.892,140.781c0,0,1.885,0.195,4.133,0.195c1.299,0,2.746-0.081,3.965-0.195l-0.034,6.864
	c0.27-0.007-2.189,0.212-4.024,0.212c-1.786,0-4.075-0.212-4.075-0.212L1097.892,140.781z"/>
<g id="Add_lines_21_">
	<path fill="none" stroke="#FFFFFF" stroke-width="0.0023" stroke-miterlimit="10" d="M1097.986,137.702
		c0,0,4.415,0.651,7.839-0.015"/>
	<path fill="none" d="M1105.963,147.645c-3.528,0.666-8.107,0.015-8.107,0.015l0.036-7.025c0,0,4.579,0.651,8.107-0.015
		L1105.963,147.645z"/>
	
		<text transform="matrix(0.9994 0.0349 -0.0349 0.9994 1098.1136 141.8957)" fill="#FFFFFF" font-family="'TwCenMT-Bold'" font-size="0.8494">LINGONSYLT</text>
	<path fill="none" d="M1098.068,141.99c0,0,3.09,0.475,5.661,0.345"/>
</g>
<text transform="matrix(0.9994 0.0349 -0.0349 0.9994 1098.1884 142.3043)" fill="#FFFFFF" font-family="'Verdana'" font-size="0.2718">Swedish lingonberry preserves</text>
<g id="Layer_1_20_">
	<path fill="none" stroke="#000000" stroke-width="0.0037" stroke-miterlimit="10" d="M1132.661,132.178
		c0.308-0.227,0.318-0.455,0.058-0.73c-0.154-0.163-0.085-0.294,0.067-0.436l11.613,0.055c0.062,0.136,0.108,0.397-0.116,0.53
		c-0.108,0.064-0.049,0.383,0.072,0.518c0.041,0.046,0.001,0.128,0.05,0.166c0.059,0.046,0.064,0.043,0.109,0.088
		C1138.399,133.129,1132.661,132.178,1132.661,132.178z"/>
	<path fill="#C41223" stroke="#000000" stroke-width="0.0037" stroke-miterlimit="10" d="M1144.407,132.196
		c0.269,0.268,0.554,0.719,0.591,1.289c-0.02,0.106-0.015,0.218-0.015,0.327c-0.001,1.382,0.005,2.765-0.002,4.147
		c-0.009,1.647-0.03,3.294-0.047,4.941c-0.009,0.858-0.019,1.716-0.034,2.574c-0.009,0.52,0.037,1.052-0.059,1.557
		c-0.172,0.907-0.604,1.659-1.618,1.837c-0.828,0.145-1.66,0.295-2.497,0.352c-1.019,0.069-2.046,0.092-3.065,0.045
		c-1.314-0.06-2.637-0.084-3.927-0.396c-0.623-0.15-1.023-0.564-1.295-1.125c-0.308-0.636-0.357-1.298-0.337-2.003
		c0.059-2.128,0.063-4.258,0.074-6.388c0.005-1.085-0.025-2.169-0.032-3.254c-0.006-0.936,0.003-1.871-0.007-2.807
		c-0.005-0.462,0.143-0.831,0.525-1.112c0,0,2.71,0.335,5.884,0.437C1140.588,132.681,1142.576,132.476,1144.407,132.196z"/>
	<path stroke="#000000" stroke-width="0.0037" stroke-miterlimit="10" d="M1132.801,131.011c-0.465-0.158-0.515-0.221-0.541-0.677
		c-0.007-0.125-0.004-0.249-0.005-0.374c-0.005-0.342,0.028-0.416,0.332-0.594c0.891-0.519,2.012-0.538,3.026-0.619
		c1.236-0.099,2.48-0.11,3.719-0.088c1.363,0.024,2.847-0.048,4.173,0.299c0.55,0.144,0.641,0.298,1.035,0.415
		c0.096,0.028,0.25,0.305,0.264,0.423c0.034,0.294,0.065,0.596,0.029,0.885c-0.019,0.151-0.143,0.298-0.417,0.385
		C1138.611,131.793,1132.801,131.011,1132.801,131.011z"/>
</g>
<path d="M1132.13,134.891c0,0,2.989,0.31,6.553,0.31c2.059,0,4.354-0.128,6.287-0.31l-0.054,10.884
	c0.428-0.011-3.47,0.336-6.381,0.336c-2.832,0-6.463-0.336-6.463-0.336L1132.13,134.891z"/>
<g id="Add_lines_20_">
	<path fill="none" stroke="#FFFFFF" stroke-width="0.0037" stroke-miterlimit="10" d="M1132.279,130.007
		c0,0,7.001,1.032,12.431-0.024"/>
	<path fill="none" d="M1144.928,145.774c-5.594,1.056-12.855,0.024-12.855,0.024l0.057-11.14c0,0,7.26,1.032,12.855-0.024
		L1144.928,145.774z"/>
	
		<text transform="matrix(0.9994 0.0349 -0.0349 0.9994 1132.4805 136.6583)" fill="#FFFFFF" font-family="'TwCenMT-Bold'" font-size="1.3469">LINGONSYLT</text>
	<path fill="none" d="M1132.409,136.807c0,0,4.9,0.754,8.977,0.547"/>
</g>
<text transform="matrix(0.9994 0.0349 -0.0349 0.9994 1132.6006 137.3064)" fill="#FFFFFF" font-family="'Verdana'" font-size="0.431">Swedish lingonberry preserves</text>
</svg>
