<?xml version="1.0" encoding="utf-8"?>
<!-- Generator: Adobe Illustrator 17.1.0, SVG Export Plug-In . SVG Version: 6.00 Build 0)  -->
<!DOCTYPE svg PUBLIC "-//W3C//DTD SVG 1.1//EN" "http://www.w3.org/Graphics/SVG/1.1/DTD/svg11.dtd">
<svg version="1.1" id="Lager_1" xmlns="http://www.w3.org/2000/svg" xmlns:xlink="http://www.w3.org/1999/xlink" x="0px" y="0px"
	 viewBox="558 375 75 120" enable-background="new 558 375 75 120" xml:space="preserve">
<g id="Layer_1">
	<path fill="none" stroke="#000000" stroke-width="0.0206" stroke-miterlimit="10" d="M591.372,481.916
		c0.236-0.174,0.244-0.348,0.044-0.558c-0.118-0.124-0.065-0.225,0.051-0.334l8.881,0.042c0.047,0.104,0.082,0.304-0.088,0.405
		c-0.083,0.049-0.038,0.293,0.055,0.396c0.032,0.035,0.001,0.098,0.038,0.127c0.045,0.035,0.049,0.033,0.084,0.068
		C595.761,482.643,591.372,481.916,591.372,481.916z"/>
	<path fill="#C41223" stroke="#000000" stroke-width="0.0206" stroke-miterlimit="10" d="M600.355,481.929
		c0.206,0.205,0.424,0.55,0.452,0.986c-0.015,0.081-0.011,0.167-0.011,0.25c-0.001,1.057,0.004,2.114-0.002,3.171
		c-0.007,1.259-0.023,2.519-0.036,3.778c-0.007,0.656-0.015,1.312-0.026,1.969c-0.007,0.398,0.028,0.805-0.045,1.19
		c-0.132,0.694-0.462,1.269-1.237,1.405c-0.633,0.111-1.27,0.226-1.91,0.269c-0.779,0.053-1.565,0.07-2.344,0.035
		c-1.005-0.046-2.017-0.064-3.004-0.303c-0.476-0.115-0.782-0.431-0.99-0.86c-0.235-0.486-0.273-0.993-0.258-1.532
		c0.045-1.628,0.048-3.256,0.057-4.885c0.004-0.829-0.019-1.659-0.025-2.489c-0.005-0.715,0.003-1.431-0.005-2.147
		c-0.004-0.353,0.11-0.636,0.401-0.85c0,0,2.072,0.256,4.5,0.334C597.435,482.301,598.955,482.144,600.355,481.929z"/>
	<path stroke="#000000" stroke-width="0.0206" stroke-miterlimit="10" d="M591.48,481.024c-0.356-0.121-0.394-0.169-0.414-0.518
		c-0.006-0.095-0.003-0.191-0.004-0.286c-0.004-0.262,0.021-0.318,0.254-0.454c0.681-0.397,1.539-0.412,2.314-0.474
		c0.945-0.075,1.896-0.084,2.844-0.067c1.042,0.019,2.177-0.037,3.191,0.228c0.42,0.11,0.49,0.228,0.792,0.317
		c0.073,0.022,0.191,0.233,0.202,0.324c0.026,0.224,0.05,0.456,0.022,0.677c-0.015,0.116-0.11,0.228-0.319,0.295
		C595.923,481.622,591.48,481.024,591.48,481.024z"/>
</g>
<path d="M590.967,483.99c0,0,2.286,0.237,5.012,0.237c1.575,0,3.329-0.098,4.808-0.237l-0.041,8.323
	c0.327-0.008-2.654,0.257-4.88,0.257c-2.166,0-4.942-0.257-4.942-0.257L590.967,483.99z"/>
<g id="Add_lines">
	<path fill="none" stroke="#FFFFFF" stroke-width="0.0206" stroke-miterlimit="10" d="M591.08,480.256c0,0,5.354,0.789,9.506-0.018"
		/>
	<path fill="none" d="M600.753,492.314c-4.278,0.808-9.831,0.018-9.831,0.018l0.043-8.519c0,0,5.552,0.789,9.831-0.018
		L600.753,492.314z"/>
	
		<text transform="matrix(0.9994 0.0349 -0.0349 0.9994 591.2351 485.3419)" fill="#FFFFFF" font-family="'TwCenMT-Bold'" font-size="1.03">LINGONSYLT</text>
	<path fill="none" d="M591.18,485.456c0,0,3.747,0.576,6.865,0.419"/>
</g>
<text transform="matrix(0.9994 0.0349 -0.0349 0.9994 591.3382 485.7946)" fill="#FFFFFF" font-family="'Verdana'" font-size="0.3296">Swedish lingonberry preserves</text>
</svg>
