<?xml version="1.0" encoding="utf-8"?>
<!-- Generator: Adobe Illustrator 17.1.0, SVG Export Plug-In . SVG Version: 6.00 Build 0)  -->
<!DOCTYPE svg PUBLIC "-//W3C//DTD SVG 1.1//EN" "http://www.w3.org/Graphics/SVG/1.1/DTD/svg11.dtd">
<svg version="1.1" id="Lager_1" xmlns="http://www.w3.org/2000/svg" xmlns:xlink="http://www.w3.org/1999/xlink" x="0px" y="0px"
	 viewBox="0 0 1191 870" enable-background="new 0 0 1191 870" xml:space="preserve">
<g id="Layer_1">
	<path fill="none" stroke="#000000" stroke-miterlimit="10" d="M377.774,182.03c11.444-8.423,11.82-16.895,2.144-27.1
		c-5.719-6.031-3.153-10.912,2.471-16.194l431.116,2.034c2.305,5.041,4.004,14.743-4.286,19.665
		c-4.019,2.387-1.836,14.211,2.683,19.217c1.531,1.697,0.026,4.747,1.858,6.158c2.203,1.697,2.382,1.615,4.059,3.282
		C590.814,217.342,377.774,182.03,377.774,182.03z"/>
	<path fill="#C41223" stroke="#000000" stroke-miterlimit="10" d="M813.825,182.702c10.001,9.949,20.57,26.707,21.95,47.859
		c-0.736,3.945-0.545,8.086-0.548,12.137c-0.037,51.313,0.197,102.627-0.094,153.938c-0.345,61.138-1.094,122.275-1.737,183.412
		c-0.336,31.854-0.712,63.71-1.275,95.562c-0.343,19.3,1.375,39.06-2.179,57.787c-6.388,33.679-22.427,61.593-60.07,68.191
		c-30.734,5.387-61.639,10.948-92.697,13.05c-37.814,2.56-75.951,3.403-113.796,1.676c-48.781-2.227-97.905-3.116-145.803-14.691
		c-23.109-5.584-37.982-20.927-48.069-41.76c-11.432-23.612-13.24-48.201-12.519-74.348c2.18-79.01,2.351-158.081,2.749-237.131
		c0.204-40.265-0.922-80.536-1.194-120.806c-0.235-34.732,0.127-69.471-0.249-104.202c-0.186-17.16,5.323-30.859,19.479-41.28
		c0,0,100.589,12.448,218.447,16.215C672.079,200.732,745.878,193.107,813.825,182.702z"/>
	<path stroke="#000000" stroke-miterlimit="10" d="M382.978,138.734c-17.275-5.852-19.112-8.195-20.1-25.143
		c-0.27-4.62-0.143-9.262-0.205-13.894c-0.171-12.704,1.034-15.439,12.312-22.03c33.076-19.262,74.71-19.987,112.348-22.994
		c45.868-3.664,92.056-4.087,138.048-3.269c50.582,0.9,105.701-1.789,154.897,11.086c20.405,5.34,23.774,11.058,38.424,15.399
		c3.563,1.056,9.293,11.329,9.798,15.71c1.256,10.896,2.429,22.112,1.063,32.874c-0.712,5.61-5.319,11.073-15.469,14.298
		C598.674,167.755,382.978,138.734,382.978,138.734z"/>
</g>
<path d="M358.091,282.746c0,0,110.973,11.505,243.28,11.505c76.438,0,161.621-4.754,233.391-11.505l-2,404.043
	c15.886-0.411-128.833,12.486-236.897,12.486c-105.14,0-239.91-12.486-239.91-12.486L358.091,282.746z"/>
<g id="Add_lines">
	<path fill="none" stroke="#FFFFFF" stroke-miterlimit="10" d="M363.603,101.47c0,0,259.899,38.325,461.472-0.891"/>
	<path fill="none" d="M833.167,686.788c-207.688,39.218-477.212,0.891-477.212,0.891l2.102-413.558
		c0,0,269.524,38.325,477.212-0.891L833.167,686.788z"/>
	
		<text transform="matrix(0.9994 0.0349 -0.0349 0.9994 371.0985 348.3629)" fill="#FFFFFF" font-family="'TwCenMT-Bold'" font-size="50">LINGONSYLT</text>
	<path fill="none" d="M368.438,353.891c0,0,181.886,27.981,333.247,20.316"/>
</g>
<text transform="matrix(0.9994 0.0349 -0.0349 0.9994 376.0985 370.3629)" fill="#FFFFFF" font-family="'Verdana'" font-size="16">Swedish lingonberry preserves</text>
</svg>
