<?xml version="1.0" encoding="utf-8"?>
<!-- Generator: Adobe Illustrator 17.1.0, SVG Export Plug-In . SVG Version: 6.00 Build 0)  -->
<!DOCTYPE svg PUBLIC "-//W3C//DTD SVG 1.1//EN" "http://www.w3.org/Graphics/SVG/1.1/DTD/svg11.dtd">
<svg version="1.1" id="Lager_1" xmlns="http://www.w3.org/2000/svg" xmlns:xlink="http://www.w3.org/1999/xlink" x="0px" y="0px"
	 viewBox="558 375 75 120" enable-background="new 558 375 75 120" xml:space="preserve">
<g id="Layer_1">
	<path fill="none" stroke="#000000" stroke-width="0.0779" stroke-miterlimit="10" d="M578.876,445.519
		c0.891-0.656,0.921-1.316,0.167-2.111c-0.445-0.47-0.246-0.85,0.193-1.262l33.584,0.158c0.18,0.393,0.312,1.148-0.334,1.532
		c-0.313,0.186-0.143,1.107,0.209,1.497c0.119,0.132,0.002,0.37,0.145,0.48c0.172,0.132,0.186,0.126,0.316,0.256
		C595.472,448.27,578.876,445.519,578.876,445.519z"/>
	<path fill="#C41223" stroke="#000000" stroke-width="0.0779" stroke-miterlimit="10" d="M612.844,445.571
		c0.779,0.775,1.602,2.08,1.71,3.728c-0.057,0.307-0.042,0.63-0.043,0.945c-0.003,3.997,0.015,7.995-0.007,11.992
		c-0.027,4.763-0.085,9.525-0.135,14.288c-0.026,2.481-0.055,4.963-0.099,7.444c-0.027,1.503,0.107,3.043-0.17,4.502
		c-0.498,2.624-1.747,4.798-4.679,5.312c-2.394,0.42-4.802,0.853-7.221,1.017c-2.946,0.199-5.917,0.265-8.865,0.131
		c-3.8-0.173-7.627-0.243-11.358-1.144c-1.8-0.435-2.959-1.63-3.745-3.253c-0.891-1.839-1.031-3.755-0.975-5.792
		c0.17-6.155,0.183-12.315,0.214-18.473c0.016-3.137-0.072-6.274-0.093-9.411c-0.018-2.706,0.01-5.412-0.019-8.117
		c-0.014-1.337,0.415-2.404,1.517-3.216c0,0,7.836,0.97,17.017,1.263C601.802,446.976,607.551,446.382,612.844,445.571z"/>
	<path stroke="#000000" stroke-width="0.0779" stroke-miterlimit="10" d="M579.281,442.146c-1.346-0.456-1.489-0.638-1.566-1.959
		c-0.021-0.36-0.011-0.722-0.016-1.082c-0.013-0.99,0.081-1.203,0.959-1.716c2.577-1.501,5.82-1.557,8.752-1.791
		c3.573-0.285,7.171-0.318,10.754-0.255c3.94,0.07,8.234-0.139,12.066,0.864c1.59,0.416,1.852,0.861,2.993,1.2
		c0.278,0.082,0.724,0.883,0.763,1.224c0.098,0.849,0.189,1.723,0.083,2.561c-0.055,0.437-0.414,0.863-1.205,1.114
		C596.084,444.407,579.281,442.146,579.281,442.146z"/>
</g>
<path d="M577.342,453.365c0,0,8.645,0.896,18.952,0.896c5.954,0,12.59-0.37,18.181-0.896l-0.156,31.475
	c1.238-0.032-10.036,0.973-18.454,0.973c-8.19,0-18.689-0.973-18.689-0.973L577.342,453.365z"/>
<g id="Add_lines">
	<path fill="none" stroke="#FFFFFF" stroke-width="0.0779" stroke-miterlimit="10" d="M577.772,439.243
		c0,0,20.246,2.986,35.949-0.069"/>
	<path fill="none" d="M614.351,484.84c-16.179,3.055-37.175,0.069-37.175,0.069l0.164-32.216c0,0,20.996,2.986,37.175-0.069
		L614.351,484.84z"/>
	
		<text transform="matrix(0.9994 0.0349 -0.0349 0.9994 578.3555 458.4759)" fill="#FFFFFF" font-family="'TwCenMT-Bold'" font-size="3.895">LINGONSYLT</text>
	<path fill="none" d="M578.148,458.907c0,0,14.169,2.18,25.96,1.583"/>
</g>
<text transform="matrix(0.9994 0.0349 -0.0349 0.9994 578.7452 460.1898)" fill="#FFFFFF" font-family="'Verdana'" font-size="1.2464">Swedish lingonberry preserves</text>
</svg>
