<?xml version="1.0" encoding="utf-8"?>
<!-- Generator: Adobe Illustrator 17.1.0, SVG Export Plug-In . SVG Version: 6.00 Build 0)  -->
<!DOCTYPE svg PUBLIC "-//W3C//DTD SVG 1.1//EN" "http://www.w3.org/Graphics/SVG/1.1/DTD/svg11.dtd">
<svg version="1.1" id="Lager_1" xmlns="http://www.w3.org/2000/svg" xmlns:xlink="http://www.w3.org/1999/xlink" x="0px" y="0px"
	 viewBox="558.274 372.561 75 120" enable-background="new 558.274 372.561 75 120" xml:space="preserve">
<g id="Layer_1">
	<path fill="none" stroke="#000000" stroke-width="0.1525" stroke-miterlimit="10" d="M562.606,395.69
		c1.745-1.285,1.803-2.577,0.327-4.133c-0.872-0.92-0.481-1.664,0.377-2.47l65.745,0.31c0.352,0.769,0.611,2.248-0.654,2.999
		c-0.613,0.364-0.28,2.167,0.409,2.931c0.233,0.259,0.004,0.724,0.283,0.939c0.336,0.259,0.363,0.246,0.619,0.5
		C595.095,401.075,562.606,395.69,562.606,395.69z"/>
	<path fill="#C41223" stroke="#000000" stroke-width="0.1525" stroke-miterlimit="10" d="M629.104,395.792
		c1.525,1.517,3.137,4.073,3.347,7.298c-0.112,0.602-0.083,1.233-0.084,1.851c-0.006,7.825,0.03,15.651-0.014,23.476
		c-0.053,9.324-0.167,18.647-0.265,27.97c-0.051,4.858-0.109,9.716-0.194,14.573c-0.052,2.943,0.21,5.957-0.332,8.813
		c-0.974,5.136-3.42,9.393-9.161,10.399c-4.687,0.822-9.4,1.67-14.136,1.99c-5.767,0.39-11.583,0.519-17.354,0.256
		c-7.439-0.34-14.931-0.475-22.235-2.24c-3.524-0.852-5.792-3.191-7.331-6.368c-1.743-3.601-2.019-7.351-1.909-11.338
		c0.332-12.049,0.359-24.107,0.419-36.162c0.031-6.14-0.141-12.282-0.182-18.423c-0.036-5.297,0.019-10.594-0.038-15.891
		c-0.028-2.617,0.812-4.706,2.971-6.295c0,0,15.34,1.898,33.313,2.473C607.488,398.542,618.742,397.379,629.104,395.792z"/>
	<path stroke="#000000" stroke-width="0.1525" stroke-miterlimit="10" d="M563.4,389.087c-2.634-0.892-2.915-1.25-3.065-3.834
		c-0.041-0.705-0.022-1.412-0.031-2.119c-0.026-1.937,0.158-2.354,1.878-3.36c5.044-2.937,11.393-3.048,17.133-3.507
		c6.995-0.559,14.039-0.623,21.052-0.499c7.714,0.137,16.119-0.273,23.622,1.691c3.112,0.814,3.626,1.686,5.86,2.348
		c0.543,0.161,1.417,1.728,1.494,2.396c0.192,1.662,0.37,3.372,0.162,5.013c-0.109,0.855-0.811,1.689-2.359,2.18
		C596.293,393.513,563.4,389.087,563.4,389.087z"/>
</g>
<path d="M559.604,411.049c0,0,16.923,1.754,37.1,1.754c11.657,0,24.647-0.725,35.592-1.754l-0.305,61.617
	c2.423-0.063-19.647,1.904-36.127,1.904c-16.034,0-36.586-1.904-36.586-1.904L559.604,411.049z"/>
<g id="Add_lines">
	<path fill="none" stroke="#FFFFFF" stroke-width="0.1525" stroke-miterlimit="10" d="M560.445,383.404
		c0,0,39.635,5.845,70.374-0.136"/>
	<path fill="none" d="M632.054,472.665c-31.672,5.981-72.775,0.136-72.775,0.136l0.321-63.068c0,0,41.102,5.845,72.775-0.136
		L632.054,472.665z"/>
	
		<text transform="matrix(0.9994 0.0349 -0.0349 0.9994 561.588 421.0562)" fill="#FFFFFF" font-family="'TwCenMT-Bold'" font-size="7.6251">LINGONSYLT</text>
	<path fill="none" d="M561.182,421.899c0,0,27.738,4.267,50.82,3.098"/>
</g>
<text transform="matrix(0.9994 0.0349 -0.0349 0.9994 562.3513 424.4109)" fill="#FFFFFF" font-family="'Verdana'" font-size="2.44">Swedish lingonberry preserves</text>
</svg>
