<?xml version="1.0" encoding="utf-8"?>
<!-- Generator: Adobe Illustrator 17.1.0, SVG Export Plug-In . SVG Version: 6.00 Build 0)  -->
<!DOCTYPE svg PUBLIC "-//W3C//DTD SVG 1.1//EN" "http://www.w3.org/Graphics/SVG/1.1/DTD/svg11.dtd">
<svg version="1.1" xmlns="http://www.w3.org/2000/svg" xmlns:xlink="http://www.w3.org/1999/xlink" x="0px" y="0px"
	 viewBox="-144 44 744 568" enable-background="new -144 44 744 568" xml:space="preserve">
<g id="Couch">
	<path fill="none" stroke="#231F20" stroke-width="3" stroke-linecap="round" stroke-linejoin="round" d="M427.5,185.5
		c0,0,151.1,22.3,151.7,22.8c0.5,0.5,15.4,0.5,13.5,19.2c-1.8,18.6-9.1,86.8-9.1,86.8s-2.2,21-2.2,21.6c0,0.5-0.9,9-0.9,9
		L30.7,566.6c0,0-2.7,1.6-8.8-2c-14-8.5-11.2-8.4-129.9-108.2c0,0-3.8-1.8-4.8-10.8l-19.6-149.5c0,0-2.4-16.6,11-19.6
		C-108,273.6-85,269-85,269s5.7-0.9,7.5-0.5c1.8,0.4,6,1.3,6,1.3s2.4-2.2,6.2-3.8c3.8-1.6,21.6-6.8,40.6-10.6
		c19-3.8,409.8-67.1,409.8-67.1s4.9-0.9,7.3-1.1c2.4-0.2,7.1,0.7,7.1,0.7l10.1-2.2l7-0.7c0,0,3.8-0.2,5.8-0.1
		C424.5,185,427.5,185.5,427.5,185.5z"/>
	<path fill="none" stroke="#231F20" stroke-width="3" stroke-linecap="round" stroke-linejoin="round" d="M400,188.7
		c0,0,15.8,3.5,19,4.8c3.3,1.3,12.1,6.9,14.4,13.7c2.3,6.7,6.3,18.6,8.3,26.4c2.1,8.3,4.4,19.4,4.8,24.1c0.4,5.2,0.4,12.7,0.4,13.3"
		/>
	<path fill="none" stroke="#231F20" stroke-width="3" stroke-linecap="round" stroke-linejoin="round" d="M562.9,303.2
		c0.5-6.5-0.6-19.5-15-25.4c-19.6-8.1-71.6-13.7-100.1-5.8c-28.5,7.9-371,95.2-371,95.2"/>
	<path fill="none" stroke="#231F20" stroke-width="3" stroke-linecap="round" stroke-linejoin="round" d="M561.2,351.7l5-44.8
		c0,0-2.5,0.4-3.3-3.6"/>
	<path fill="none" stroke="#231F20" stroke-width="3" stroke-linecap="round" stroke-linejoin="round" d="M83.8,451.8
		c-1.8-21.8-7.9-99-7.9-99s0.9-17.3-20.4-27.9C32.5,313.4-71,269.9-71,269.9"/>
	<path fill="none" stroke="#231F20" stroke-width="3" stroke-linecap="round" stroke-linejoin="round" d="M78.9,546.6l-4.9-69.9
		c0,0,11.5-4.1,9.9-23.2c0-0.5-0.1-1.1-0.1-1.7"/>
	<path fill="none" stroke="#231F20" stroke-width="3" stroke-linecap="round" stroke-linejoin="round" d="M27.5,566.1L2.1,371.7
		c0,0-3.9-18.3,15.4-23.3s45.7-11.4,45.7-11.4s7.4-1.1,10.6,6.6"/>
	<path fill="none" stroke="#231F20" stroke-width="3" stroke-linecap="round" stroke-linejoin="round" d="M54.5,558.5l1.7,32.5
		c0.1,2.5-4.2,4.8-9.6,5c-5.4,0.3-10-1.5-10.1-4l-1.4-25.6"/>
	<path fill="none" stroke="#231F20" stroke-width="3" stroke-linecap="round" stroke-linejoin="round" d="M-72.2,488.6
		c-0.6,1.4-3.1,2.5-6.2,2.7c-3.6,0.2-6.6-1-6.7-2.7l-0.6-11.5"/>
	<path fill="none" stroke="#231F20" stroke-width="3" stroke-linecap="round" stroke-linejoin="round" d="M567.1,352.1l-2.4,21.3
		c-0.2,1.7-2.8,2.7-5.9,2.4c-3.1-0.3-5.4-2-5.2-3.6l1.7-14.7"/>
	<path fill="none" stroke="#231F20" stroke-width="3" stroke-linecap="round" stroke-linejoin="round" d="M587.5,214l-13,3.2
		c0,0-3.4,1-3.6,5.3c-0.2,4.3-6.9,74.5-6.9,74.5"/>
	
		<line fill="none" stroke="#231F20" stroke-width="3" stroke-linecap="round" stroke-linejoin="round" x1="571.3" y1="219.3" x2="423" y2="195.5"/>
	
		<line fill="none" stroke="#231F20" stroke-width="3" stroke-linecap="round" stroke-linejoin="round" x1="560.7" y1="296.5" x2="86" y2="454.7"/>
	
		<line fill="none" stroke="#231F20" stroke-width="3" stroke-linecap="round" stroke-linejoin="round" x1="418.7" y1="194.9" x2="-39.6" y2="278.7"/>
	
		<line fill="none" stroke="#231F20" stroke-width="3" stroke-linecap="round" stroke-linejoin="round" x1="-126.3" y1="287.7" x2="-2.9" y2="355.5"/>
</g>
<g id="Layer_6">
	<polygon fill="#FFFFFF" points="219.9,340 146.9,355.1 146.8,349 192.8,328 161.1,245 171.1,216.9 215.4,206.7 348.3,184.5 
		380.6,207.5 407.3,281.7 385.6,325.8 400,328.4 408.4,345.9 400,384.7 386.7,429.9 312.8,468.1 282,458.4 293.9,428.2 298,382.7 	
		"/>
</g>
<g id="Lager_1">
	<g>
		<g>
			<path fill="none" d="M146.8,345.2c0,0,44.3-1.9,26.9-40.4c-8.6-19.1-20.1-49.1-7.7-78.9s36.2-52.4,76.9-42.8
				c0,0-26.9-52-22.2-85.9c2.9-20.9,29.7-43,60.7-35.5c18.8,4.5,42.9,16.3,72.6,50.3l-14.8,7.4l-3,57.7c0,0,52.8,23.4,65.1,62.2
				c10.4,32.6,10.9,55-31.1,106.6"/>
			<g>
				<path d="M146.8,349c8.6-0.4,17.6-3,24.6-8.1c16-11.7,9-29.8,2.8-44.8c-5.7-13.6-9.5-27.8-9.7-42.6c-0.2-15.3,5.5-29.8,13.8-42.5
					c14.4-22.3,38.4-29.8,63.7-24.2c3.4,0.7,5.9-2.6,4.3-5.6c-6-11.7-10.9-24.1-15-36.7c-6.5-20-13.4-45.9,1.4-63.8
					c15.5-18.7,40-19.3,61-11.1c22.9,9,41.6,26.9,57.5,45.1c0.3-2,0.5-4,0.8-6c-4.9,2.5-9.9,4.9-14.8,7.4c-1.2,0.6-1.8,2-1.9,3.3
					c-1,19.2-2,38.5-3,57.7c-0.1,1.2,0.8,2.8,1.9,3.3c25.8,11.6,54.1,32.2,63.4,59.9c4.8,14.3,7.5,29.2,4.1,44.1
					c-5,22.1-20.3,41.6-34.2,58.8c-3.1,3.8,2.3,9.3,5.4,5.4c14.7-18.2,29.6-37.8,35.8-60.7c4.4-16.2,1.6-32.5-3.2-48.2
					c-9.4-30.4-39.2-53.4-67.4-66c0.6,1.1,1.3,2.2,1.9,3.3c1-19.2,2-38.5,3-57.7c-0.6,1.1-1.3,2.2-1.9,3.3c4.9-2.5,9.9-4.9,14.8-7.4
					c2.3-1.2,2.3-4.3,0.8-6c-29.4-33.5-86.6-78.1-128.1-35.5c-17.2,17.7-12.9,43.4-7,65c4.3,15.8,10.5,31.6,18,46.2
					c1.4-1.9,2.9-3.8,4.3-5.6c-22.3-5-44.1-1.5-61.3,14.3c-18.4,16.9-27.5,43.4-25.6,67.9c1,13.4,5.3,26.3,10.4,38.6
					c3.8,9,9.4,19.4,4.4,29c-4.4,8.4-16.3,11.8-25.1,12.2C141.9,341.6,141.9,349.3,146.8,349L146.8,349z"/>
			</g>
		</g>
		<g>
			<g>
				<path d="M353.1,305.5c-3.5-27.9-8.6-77.4-17.5-104.2c-1.6-4.7-9-2.7-7.4,2l0,0c8.7,26.2,13.7,74.9,17.3,102.2"/>
				<path d="M223.2,355.7c3.6-28.5,5.1-34.1,7.3-62.8c1.7-21.6,3.5-43.8,1.5-65.4c-0.2-2.1-1.6-3.8-3.8-3.8
					c-12.4,0-24,7.7-29.4,18.7c-8.2,16.9-2.1,35.6,3.9,52c5.4,15,12.6,31.8,9.1,48.1c-5.3,24.2-35.7,32.7-56.3,37.6
					c-4.8,1.1-2.8,8.5,2,7.4c21.3-5,46.7-12.9,58.1-33.4c8-14.4,4.6-31.6-0.1-46.5c-4.7-14.9-12.5-29.6-12.8-45.5
					c-0.3-15.3,9-30.7,25.6-30.8c-1.3-1.3-2.6-2.6-3.8-3.8c2,21.1,0.3,42.7-1.3,63.8c-2.2,28.6-3.7,34.2-7.2,62.7"/>
			</g>
		</g>
		<g>
			<line fill="none" x1="370.3" y1="313.4" x2="352.6" y2="335.6"/>
			<g>
				<path d="M367.6,310.7c-5.9,7.4-11.8,14.8-17.8,22.2c-3.1,3.8,2.3,9.3,5.4,5.4c5.9-7.4,11.8-14.8,17.8-22.2
					C376.1,312.3,370.7,306.8,367.6,310.7L367.6,310.7z"/>
			</g>
		</g>
		<g>
			<g>
				<path d="M340.3,244.1c5.8,3.6,10.9,8.4,15.2,13.6c10.9,13.1-2.1,44.5-15.3,54c-4,2.9-0.1,9.5,3.9,6.6
					c13.9-10.1,30.4-42,22.2-58.4c-4.7-9.2-13.4-17.1-22-22.5C339.9,234.9,336.1,241.5,340.3,244.1L340.3,244.1z"/>
			</g>
		</g>
		<g>
			<g>
				<path d="M256.7,146.7c12.7,29.3,48.1,10.4,75.9,6.6c4.9-0.7,4.4-8.3-0.5-7.7c-24.6,3.3-57.4,23.3-68.1-1.5c-2-4.5-9.3-3-7.3,1.5
					L256.7,146.7z"/>
			</g>
		</g>
		<g>
			<ellipse fill="#FFFFFF" cx="304.1" cy="111.7" rx="0.5" ry="0.6"/>
			<g>
				<path d="M300.7,111.7c0.1-0.5,0.2-1,0.3-1.4c0.5-0.5,0.9-0.9,1.4-1.4c0.2-0.1,0.4-0.2,0.6-0.3c0.7,0,1.4,0,2,0
					c0.2,0.1,0.4,0.2,0.6,0.3c0.5,0.5,0.9,0.9,1.4,1.4c0.4,1,0.4,1.9,0,2.9c-0.5,0.5-0.9,0.9-1.4,1.4c-0.2,0.1-0.4,0.2-0.6,0.3
					c-0.7,0-1.4,0-2,0c-0.2-0.1-0.4-0.2-0.6-0.3c-0.5-0.5-0.9-0.9-1.4-1.4C300.9,112.7,300.8,112.2,300.7,111.7
					c0.1,1.1,0.3,1.9,1.1,2.7c0.7,0.7,1.7,1.1,2.7,1.1c1.9,0,4.1-1.8,3.8-3.8c-0.1-0.9-0.2-1.7-0.7-2.4c-0.9-1.2-2-2-3.6-2
					c-1.1,0-2.2,0.5-3,1.2c-0.9,0.9-1.2,2-1.3,3.2c-0.1,0.7,0.3,1.9,0.7,2.4c0.9,1.2,2,2,3.6,2c1.1,0,2.2-0.5,3-1.2
					c0.9-0.9,1.2-2,1.3-3.2c0.3-2.1-1.9-3.8-3.8-3.8c-1,0-2,0.4-2.7,1.1C301.1,109.8,300.9,110.7,300.7,111.7z"/>
			</g>
		</g>
		<g>
			<ellipse fill="#FFFFFF" cx="261.8" cy="233.2" rx="0.5" ry="0.6"/>
			<g>
				<path d="M258.4,233.2c0.1-0.5,0.2-1,0.3-1.4c0.5-0.5,0.9-0.9,1.4-1.4c0.2-0.1,0.4-0.2,0.6-0.3c0.7,0,1.4,0,2,0
					c0.2,0.1,0.4,0.2,0.6,0.3c0.5,0.5,0.9,0.9,1.4,1.4c0.4,1,0.4,1.9,0,2.9c-0.5,0.5-0.9,0.9-1.4,1.4c-0.2,0.1-0.4,0.2-0.6,0.3
					c-0.7,0-1.4,0-2,0c-0.2-0.1-0.4-0.2-0.6-0.3c-0.5-0.5-0.9-0.9-1.4-1.4C258.6,234.1,258.5,233.7,258.4,233.2
					c0.1,1.1,0.3,1.9,1.1,2.7c0.7,0.7,1.7,1.1,2.7,1.1c1.9,0,4.1-1.8,3.8-3.8c-0.1-0.9-0.2-1.7-0.7-2.4c-0.9-1.2-2-2-3.6-2
					c-1.1,0-2.2,0.5-3,1.2c-0.9,0.9-1.2,2-1.3,3.2c-0.1,0.7,0.3,1.9,0.7,2.4c0.9,1.2,2,2,3.6,2c1.1,0,2.2-0.5,3-1.2
					c0.9-0.9,1.2-2,1.3-3.2c0.3-2.1-1.9-3.8-3.8-3.8c-1,0-2,0.4-2.7,1.1C258.8,231.3,258.5,232.1,258.4,233.2z"/>
			</g>
		</g>
		<g>
			<ellipse fill="#FFFFFF" cx="312.3" cy="234.1" rx="0.5" ry="0.6"/>
			<g>
				<path d="M308.9,234.1c0.1-0.5,0.2-1,0.3-1.4c0.5-0.5,0.9-0.9,1.4-1.4c0.2-0.1,0.4-0.2,0.6-0.3c0.7,0,1.4,0,2,0
					c0.2,0.1,0.4,0.2,0.6,0.3c0.5,0.5,0.9,0.9,1.4,1.4c0.4,1,0.4,1.9,0,2.9c-0.5,0.5-0.9,0.9-1.4,1.4c-0.2,0.1-0.4,0.2-0.6,0.3
					c-0.7,0-1.4,0-2,0c-0.2-0.1-0.4-0.2-0.6-0.3c-0.5-0.5-0.9-0.9-1.4-1.4C309.2,235.1,309.1,234.6,308.9,234.1
					c0.1,1.1,0.3,1.9,1.1,2.7c0.7,0.7,1.7,1.1,2.7,1.1c1.9,0,4.1-1.8,3.8-3.8c-0.1-0.9-0.2-1.7-0.7-2.4c-0.9-1.2-2-2-3.6-2
					c-1.1,0-2.2,0.5-3,1.2c-0.9,0.9-1.2,2-1.3,3.2c-0.1,0.7,0.3,1.9,0.7,2.4c0.9,1.2,2,2,3.6,2c1.1,0,2.2-0.5,3-1.2
					c0.9-0.9,1.2-2,1.3-3.2c0.3-2.1-1.9-3.8-3.8-3.8c-1,0-2,0.4-2.7,1.1C309.3,232.2,309.1,233,308.9,234.1z"/>
			</g>
		</g>
	</g>
	<g>
		<g>
			<path d="M150.6,368.9c11.3-0.9,23-8.5,32.5-13.8c4.3-2.4,0.5-9-3.9-6.6c-7.4,4.1-14.9,8.1-22.9,11c-1.6,0.6-3.1,1.1-4.8,1.5
				c-0.6,0.2-2.4,0.4-1,0.3C145.7,361.6,145.6,369.3,150.6,368.9L150.6,368.9z"/>
		</g>
	</g>
</g>
<g id="Layer_3">
</g>
<g id="Layer_2">
	<path fill="none" stroke="#000000" stroke-width="7" stroke-miterlimit="10" d="M385.6,325.8c0,0,13.6-2.7,20.5,8.8
		c9,15.1-11.6,68.5-11.6,68.5l-8.9,30.8l35.1,21l-80.2-4.1"/>
	<path fill="none" stroke="#000000" stroke-width="7" stroke-miterlimit="10" d="M331.5,470c53.3-106.7,11-132,11-132l-70.9,6.6"/>
	<path fill="none" stroke="#000000" stroke-width="7" stroke-miterlimit="10" d="M221.5,350c0,0-27.8,62.8,35.3,43.3
		c79.2-24.4,41-10.8,41-10.8s-0.3,25.8-2.1,46.7c-0.6,7-12.5,23.4-12.5,23.4s-6.1,14,67.9,38.2c0,0-10.5-11.6-20.5-23.9"/>
	<path fill="none" stroke="#000000" stroke-width="7" stroke-miterlimit="10" d="M463,551"/>
</g>
<g id="Layer_4">
</g>
</svg>
