<?xml version="1.0" encoding="utf-8"?>
<!-- Generator: Adobe Illustrator 17.0.2, SVG Export Plug-In . SVG Version: 6.00 Build 0)  -->
<!DOCTYPE svg PUBLIC "-//W3C//DTD SVG 1.1//EN" "http://www.w3.org/Graphics/SVG/1.1/DTD/svg11.dtd">
<svg version="1.1" id="Lager_1" xmlns="http://www.w3.org/2000/svg" xmlns:xlink="http://www.w3.org/1999/xlink" x="0px" y="0px"
	 width="712.735px" height="496.33px" viewBox="0 250.092 712.735 496.33" enable-background="new 0 250.092 712.735 496.33"
	 xml:space="preserve">
<g>
	<g>
		<path fill="#FFFFFF" d="M8.458,673.277c0,0,19.699-0.804,11.991-16.871c-3.823-7.97-8.943-20.502-3.426-32.94
			c5.518-12.437,16.109-21.877,34.226-17.86c0,0-11.971-21.705-9.882-35.844c1.288-8.725,13.195-17.956,27.012-14.832
			c8.356,1.889,19.106,6.798,32.283,21.012l-6.588,3.09l-1.317,24.102c0,0,23.503,9.785,28.989,25.956
			c4.612,13.596,4.837,22.939-13.835,44.496"/>
		<g>
			<path d="M8.458,675.271c3.896-0.178,8.036-1.286,11.192-3.464c7.303-5.041,4.209-12.739,1.329-19.234
				c-2.432-5.487-4.092-11.234-4.251-17.197c-0.168-6.312,2.258-12.243,5.784-17.513c6.283-9.39,16.865-12.685,28.17-10.333
				c1.86,0.387,3.27-1.345,2.401-2.93c-2.689-4.901-4.847-10.086-6.655-15.324c-2.773-8.035-5.837-18.606,0.347-25.876
				c6.837-8.038,17.863-8.181,27.255-4.659c9.987,3.745,18.149,11.168,25.126,18.612c0.143-1.044,0.287-2.088,0.43-3.132
				c-2.196,1.03-4.392,2.06-6.588,3.09c-0.682,0.32-1.016,1.047-1.053,1.722c-0.439,8.034-0.879,16.068-1.317,24.102
				c-0.035,0.634,0.415,1.454,1.053,1.722c11.396,4.781,23.895,13.306,28.011,24.764c2.081,5.791,3.271,11.828,1.893,17.882
				c-2.111,9.271-8.992,17.476-15.181,24.673c-1.704,1.982,1.285,4.823,3.007,2.821c6.627-7.706,13.405-16.046,16.113-25.792
				c1.867-6.721,0.621-13.487-1.514-20c-4.199-12.806-17.542-22.489-30.181-27.792c0.351,0.574,0.702,1.148,1.053,1.722
				c0.439-8.034,0.879-16.068,1.317-24.102c-0.351,0.574-0.702,1.148-1.053,1.722c2.196-1.03,4.392-2.06,6.588-3.09
				c1.295-0.608,1.28-2.226,0.43-3.132c-13.301-14.192-39.246-32.936-57.796-14.597c-7.51,7.424-5.678,18.06-3.095,27.068
				c1.929,6.729,4.738,13.41,8.14,19.609c0.8-0.977,1.601-1.953,2.401-2.93c-10.17-2.117-20.057-0.596-27.818,6.197
				c-8.287,7.255-12.302,18.516-11.309,28.939c0.533,5.594,2.448,11.018,4.79,16.155c1.653,3.628,3.961,7.842,1.638,11.668
				c-1.935,3.188-7.058,4.476-10.658,4.641C5.729,671.408,5.716,675.397,8.458,675.271L8.458,675.271z"/>
		</g>
	</g>
	<g>
		<path fill="#FFFFFF" d="M90.778,613.64c0,0,19.765,55.62,2.636,107.532l14.494,4.944l-74.447,4.944
			c0,0,13.835-82.194,11.2-106.914c0,0-13.737-0.062-13.078,15.388c0.659,15.45,26.368,40.139-18.843,49.811"/>
		<g>
			<path d="M88.728,614.17c3.798,10.737,6.017,22.127,7.602,33.31c3.453,24.358,2.696,49.547-4.966,73.161
				c-0.358,1.102,0.42,2.09,1.485,2.453c4.832,1.648,9.663,3.296,14.494,4.944c0.189-1.306,0.377-2.612,0.566-3.917
				c-24.816,1.648-49.631,3.296-74.447,4.944c0.683,0.842,1.367,1.683,2.05,2.524c2.458-14.616,4.606-29.283,6.564-43.964
				c1.58-11.85,2.998-23.725,4.014-35.63c0.784-9.195,1.636-18.636,0.698-27.85c-0.11-1.078-0.884-1.999-2.126-1.994
				c-5.555,0.021-10.779,3.165-13.301,7.74c-3.943,7.151-1.177,15.229,1.526,22.238c2.363,6.125,5.522,12.972,4.115,19.615
				c-2.148,10.143-15.709,13.671-24.826,15.677c-2.669,0.587-1.537,4.433,1.13,3.846c9.61-2.115,21.122-5.494,26.154-14.238
				c3.47-6.031,2.057-13.163-0.017-19.371c-2.09-6.253-5.601-12.447-5.756-19.11c-0.143-6.172,3.835-12.381,10.974-12.408
				c-0.709-0.665-1.417-1.33-2.126-1.994c0.891,8.748,0.121,17.688-0.58,26.422c-0.954,11.88-2.379,23.727-3.932,35.549
				c-1.949,14.833-4.129,29.649-6.612,44.412c-0.199,1.184,0.544,2.624,2.05,2.525c24.816-1.648,49.631-3.296,74.447-4.944
				c2.438-0.162,2.84-3.142,0.566-3.917c-4.832-1.648-9.663-3.296-14.494-4.944c0.495,0.818,0.99,1.635,1.485,2.453
				c7.688-23.693,8.492-48.85,5.245-73.302c-1.573-11.844-3.861-23.928-7.88-35.29C91.969,610.681,87.862,611.722,88.728,614.17
				L88.728,614.17z"/>
		</g>
	</g>
	<g>
		<line fill="none" x1="71.014" y1="678.53" x2="65.743" y2="727.97"/>
		<g>
			<path d="M68.888,678.53c-1.757,16.48-3.514,32.96-5.27,49.44c-0.273,2.559,3.982,2.534,4.252,0
				c1.757-16.48,3.514-32.96,5.27-49.44C73.412,675.971,69.158,675.996,68.888,678.53L68.888,678.53z"/>
		</g>
	</g>
	<g>
		<line fill="none" x1="107.907" y1="659.99" x2="100.002" y2="669.26"/>
		<g>
			<path d="M106.404,658.58c-2.636,3.09-5.27,6.18-7.906,9.27c-1.694,1.987,1.293,4.829,3.007,2.821
				c2.636-3.09,5.27-6.18,7.906-9.27C111.106,659.413,108.117,656.571,106.404,658.58L106.404,658.58z"/>
		</g>
	</g>
	<g>
		<g>
			<path d="M94.317,631.43c2.509,1.487,4.731,3.437,6.635,5.56c4.728,5.273,3.011,10.615-2.682,14.48
				c-2.198,1.492-0.079,4.955,2.146,3.444c6.375-4.328,9.783-10.314,6.032-17.338c-2.088-3.911-6.078-7.274-9.985-9.59
				C94.137,626.608,92.006,630.06,94.317,631.43L94.317,631.43z"/>
		</g>
	</g>
	<g>
		<g>
			<path d="M57.105,578.945c4.813,12.751,21.644,16.452,34.333,15.678c2.722-0.166,2.739-4.155,0-3.989
				c-8.685,0.53-17.865-0.556-24.732-5.997c-1.693-1.341-3.151-2.925-4.333-4.681c-0.381-0.566-0.719-1.157-1.026-1.761
				c-0.298-0.584,0.054,0.207-0.142-0.311C60.296,575.477,56.187,576.514,57.105,578.945L57.105,578.945z"/>
		</g>
	</g>
	<g>
		<ellipse fill="#FFFFFF" cx="78.433" cy="575.829" rx="0.209" ry="0.261"/>
		<g>
			<path d="M76.516,575.829c-0.004,0.027-0.007,0.055-0.011,0.082c0.026-0.177,0.05-0.354,0.076-0.53
				c-0.01,0.024-0.02,0.048-0.03,0.072c0.072-0.159,0.143-0.318,0.214-0.477c-0.015,0.019-0.03,0.038-0.045,0.057
				c0.254-0.239,0.508-0.477,0.763-0.715c-0.019,0.013-0.038,0.025-0.057,0.037c0.169-0.067,0.339-0.134,0.508-0.201
				c-0.022,0.005-0.044,0.009-0.066,0.013c0.377,0,0.753,0,1.13,0c-0.022-0.005-0.044-0.009-0.066-0.013
				c0.169,0.067,0.339,0.134,0.508,0.201c-0.019-0.013-0.038-0.025-0.057-0.037c0.254,0.239,0.509,0.477,0.763,0.715
				c-0.015-0.019-0.03-0.038-0.045-0.057c0.072,0.159,0.143,0.318,0.214,0.477c-0.01-0.024-0.02-0.048-0.03-0.072
				c0.026,0.177,0.05,0.354,0.076,0.53c-0.014-0.055-0.014-0.11,0-0.165c-0.026,0.177-0.05,0.354-0.076,0.53
				c0.01-0.024,0.02-0.048,0.03-0.072c-0.072,0.159-0.143,0.318-0.214,0.477c0.015-0.019,0.03-0.038,0.045-0.057
				c-0.254,0.239-0.509,0.477-0.763,0.715c0.019-0.013,0.038-0.025,0.057-0.037c-0.169,0.067-0.339,0.134-0.508,0.201
				c0.022-0.005,0.044-0.009,0.066-0.013c-0.377,0-0.753,0-1.13,0c0.022,0.005,0.044,0.009,0.066,0.013
				c-0.169-0.067-0.339-0.134-0.508-0.201c0.019,0.013,0.038,0.025,0.057,0.037c-0.254-0.239-0.508-0.477-0.763-0.715
				c0.015,0.019,0.03,0.038,0.045,0.057c-0.072-0.159-0.143-0.318-0.214-0.477c0.01,0.024,0.02,0.048,0.03,0.072
				c-0.026-0.177-0.05-0.354-0.076-0.53C76.509,575.774,76.513,575.802,76.516,575.829c0.071,0.551,0.187,1.002,0.623,1.41
				c0.397,0.372,0.942,0.584,1.503,0.584s1.106-0.212,1.503-0.584c0.358-0.336,0.686-0.917,0.623-1.41
				c-0.055-0.431-0.084-0.854-0.376-1.217c-0.49-0.614-1.108-1.038-1.959-1.038c-0.602,0-1.202,0.236-1.626,0.635
				c-0.493,0.462-0.628,0.998-0.708,1.621c-0.044,0.343,0.157,0.943,0.376,1.217c0.49,0.614,1.108,1.038,1.959,1.038
				c0.602,0,1.202-0.236,1.626-0.635c0.493-0.462,0.628-0.998,0.708-1.621c0.064-0.493-0.265-1.075-0.623-1.41
				c-0.397-0.372-0.942-0.584-1.503-0.584s-1.106,0.212-1.503,0.584C76.704,574.827,76.587,575.278,76.516,575.829z"/>
		</g>
	</g>
</g>
<g>
	<g>
		<path d="M10.12,683.543c5.102-0.4,10.373-3.566,14.693-5.813c2.398-1.247,0.254-4.692-2.146-3.444
			c-3.266,1.698-6.586,3.354-10.098,4.562c-0.693,0.239-1.399,0.444-2.114,0.616c-0.346,0.083-1.166,0.156-0.334,0.09
			C7.407,679.768,7.385,683.758,10.12,683.543L10.12,683.543z"/>
	</g>
</g>
<g>
	<g>
		<path stroke="#000000" stroke-width="2" stroke-miterlimit="10" d="M702.055,495.888c-0.108,57.116-22.233,111.67-59.694,153.39
			c-38.765,43.172-91.929,70.724-147.945,80.137c-58.686,9.862-120.361-0.526-172.62-29.908
			c-48.211-27.106-87.753-70.724-107.92-123.74c-20.261-53.262-19.199-113.658,2.567-166.237
			c21.707-52.437,62.539-94.567,111.32-120.527c53.024-28.217,115.161-36.627,173.657-25.381
			c55.658,10.701,107.719,39.938,145.313,83.863C681.702,388.343,701.952,441.244,702.055,495.888c0.005,2.503,3.762,2.504,3.757,0
			c-0.106-56.411-21.32-110.418-57.502-152.405c-37.387-43.385-89.203-72.123-144.15-83.26
			c-57.84-11.724-119.04-3.988-172.224,22.314c-49.182,24.323-90.824,65.083-114.72,115.939
			c-23.906,50.879-28.144,110.172-11.802,164.14c16.219,53.562,52.048,99.005,97.219,129.573
			c48.906,33.096,108.196,47.884,166.35,44.058c56.965-3.748,112.399-26.056,155.938-64.345
			c41.164-36.199,70.053-86.694,78.369-142.083c1.685-11.225,2.501-22.575,2.522-33.932
			C705.817,493.385,702.061,493.385,702.055,495.888z"/>
	</g>
</g>
<g>
	<g>
		<path d="M127.895,550.821c-0.377,6.57-10.489,6.57-10.866,0C116.651,544.247,127.519,544.282,127.895,550.821
			c0.147,2.558,4.399,2.571,4.252,0c-0.295-5.137-4.209-8.808-9.685-9.085c-5.465-0.276-9.414,4.363-9.685,9.085
			c-0.294,5.126,4.652,8.831,9.685,9.085c5.465,0.276,9.414-4.363,9.685-9.085C132.295,548.25,128.041,548.264,127.895,550.821z"/>
	</g>
</g>
<g>
	<g>
		<path d="M177.639,538.976c-0.232,6.988-5.897,12.302-13.346,12.519c-7.447,0.217-13.126-5.859-13.346-12.519
			c-0.232-6.985,6.246-12.312,13.346-12.519C171.74,526.239,177.418,532.315,177.639,538.976c0.085,2.566,4.337,2.573,4.252,0
			c-0.305-9.192-7.799-16.222-17.598-16.508c-9.795-0.286-17.308,7.746-17.598,16.508c-0.305,9.188,8.257,16.235,17.598,16.508
			c9.795,0.286,17.308-7.746,17.598-16.508C181.976,536.402,177.724,536.41,177.639,538.976z"/>
	</g>
</g>
</svg>
