<?xml version="1.0" encoding="utf-8"?>
<!-- Generator: Adobe Illustrator 17.0.2, SVG Export Plug-In . SVG Version: 6.00 Build 0)  -->
<!DOCTYPE svg PUBLIC "-//W3C//DTD SVG 1.1//EN" "http://www.w3.org/Graphics/SVG/1.1/DTD/svg11.dtd">
<svg version="1.1" id="Lager_1" xmlns="http://www.w3.org/2000/svg" xmlns:xlink="http://www.w3.org/1999/xlink" x="0px" y="0px"
	 width="1191px" height="870px" viewBox="0 0 1191 870" enable-background="new 0 0 1191 870" xml:space="preserve">
<g>
	<g>
		<path fill="#FFFFFF" d="M83,639c0,0,46-2,28-42c-8.928-19.841-20.885-51.038-8-82s37.615-54.462,79.923-44.462
			c0,0-27.953-54.032-23.077-89.231c3.009-21.721,30.811-44.699,63.077-36.923c19.512,4.702,44.615,16.923,75.385,52.308
			l-15.385,7.692l-3.077,60c0,0,54.884,24.359,67.692,64.615c10.769,33.846,11.295,57.105-32.308,110.769"/>
		<g>
			<path d="M83,643.5c8.355-0.39,17.167-2.839,24.214-7.36c14.979-9.611,14.098-26.714,7.672-41.411
				c-11.332-25.918-18.618-53.845-6.481-80.951c8.399-18.758,22.458-34.896,43.09-39.758c9.924-2.339,20.395-1.38,30.232,0.858
				c3.938,0.896,6.918-3.051,5.082-6.611c-5.996-11.626-10.855-23.922-14.962-36.325c-6.045-18.255-13.599-43.237-3.497-61.291
				c5.484-9.8,15.3-16.94,25.745-20.638c11.076-3.921,22.508-3.009,33.567,0.335c20.121,6.085,37.394,19.091,52.349,33.493
				c5.292,5.097,10.278,10.505,15.116,16.032c0.304-2.356,0.607-4.712,0.911-7.068c-5.128,2.564-10.256,5.128-15.385,7.692
				c-1.444,0.722-2.151,2.362-2.229,3.886c-1.026,20-2.051,40-3.077,60c-0.073,1.429,0.879,3.284,2.229,3.886
				c9.754,4.349,19.009,10.104,27.708,16.253c16.12,11.395,31.603,26.516,37.916,45.673c4.885,14.824,7.789,30.111,4.236,45.56
				c-5.257,22.854-20.962,43.002-35.386,60.831c-3.615,4.468,2.712,10.878,6.364,6.364c14.805-18.3,29.785-38.033,36.661-60.89
				c4.649-15.454,3.299-31.251-0.908-46.616c-5.404-19.738-16.348-35.458-31.726-48.839c-11.297-9.831-24.106-18.143-37.524-24.778
				c-0.925-0.458-1.856-0.908-2.798-1.329c0.743,1.295,1.486,2.59,2.229,3.886c1.026-20,2.051-40,3.077-60
				c-0.743,1.295-1.486,2.59-2.229,3.886c5.128-2.564,10.256-5.128,15.385-7.692c2.745-1.373,2.704-5.019,0.911-7.068
				c-27.113-30.974-71.99-69.245-116.113-49.629c-9.904,4.403-18.388,12.081-24.175,21.185c-5.431,8.544-6.685,18.369-6.36,28.293
				c0.686,20.935,7.814,41.705,15.758,60.882c2.598,6.273,5.324,12.53,8.438,18.568c1.694-2.203,3.388-4.407,5.082-6.61
				c-22.005-5.008-43.888-2.071-61.536,12.623c-17.634,14.683-28.398,38.938-29.655,61.489c-0.769,13.792,2.333,27.721,6.776,40.691
				c3.451,10.075,9.967,20.035,10.903,30.78c1.141,13.107-10.188,19.409-21.365,21.831c-2.951,0.639-3.524,0.76-6.242,0.887
				C77.222,634.77,77.196,643.771,83,643.5L83,643.5z"/>
		</g>
	</g>
	<g>
		<path fill="#FFFFFF" d="M275.231,490.538c0,0,46.154,138.462,6.154,267.692l33.846,12.308l-173.846,12.308
			c0,0,32.308-204.615,26.154-266.154c0,0-32.077-0.154-30.538,38.308s61.573,99.922-44,124"/>
		<g>
			<path d="M270.892,491.735c7.795,23.448,12.535,48.184,16.273,72.548c8.236,53.678,8.821,109.262-2.3,162.56
				c-2.125,10.182-4.773,20.249-7.82,30.193c-0.762,2.485,0.893,4.717,3.143,5.536c11.282,4.103,22.564,8.205,33.846,12.308
				c0.399-2.946,0.798-5.893,1.196-8.839c-49.749,3.522-99.499,7.044-149.248,10.566c-8.199,0.581-16.399,1.161-24.598,1.741
				c1.446,1.899,2.893,3.798,4.339,5.696c8.458-53.598,15.701-107.466,21.304-161.436c2.099-20.221,3.916-40.482,5.007-60.784
				c0.805-14.974,1.458-30.173,0.004-45.13c-0.237-2.44-1.867-4.501-4.5-4.5c-8.96,0.005-18.116,4.123-24.448,10.311
				c-11.664,11.399-12.307,29.973-8.682,44.895c5.653,23.269,23.156,49.071,14.016,73.555
				c-8.005,21.443-36.986,29.153-56.621,33.708c-5.653,1.311-3.255,9.989,2.393,8.678c19.417-4.504,41.067-11.147,54.776-26.561
				c9.036-10.158,12.003-23.38,10.456-36.658c-1.559-13.388-6.564-26.001-11.095-38.593c-4.773-13.264-9.12-26.644-5.468-40.815
				c2.055-7.974,7.36-13.972,14.787-17.323c2.313-1.044,4.936-1.612,7.43-2.017c1.342-0.218-0.876,0.096,0.315-0.039
				c0.383-0.044,0.767-0.074,1.151-0.101c0.329-0.023,0.66-0.04,0.99-0.04c-1.5-1.5-3-3-4.5-4.5
				c2.959,30.418-0.751,61.903-3.641,92.181c-3.552,37.22-8.242,74.334-13.358,111.368c-2.831,20.492-5.769,40.975-8.994,61.409
				c-0.422,2.672,1.152,5.922,4.339,5.696c49.749-3.522,99.499-7.044,149.248-10.566c8.199-0.58,16.399-1.161,24.598-1.741
				c5.16-0.365,6.01-7.089,1.196-8.839c-11.282-4.103-22.564-8.205-33.846-12.308c1.048,1.845,2.095,3.69,3.143,5.536
				c16.659-54.371,19.429-112.132,13.812-168.47c-3.291-33.008-9.201-66.136-18.81-97.926c-0.373-1.233-0.75-2.466-1.156-3.689
				C277.749,483.863,269.055,486.211,270.892,491.735L270.892,491.735z"/>
		</g>
	</g>
	<g>
		<line fill="#FFFFFF" x1="229.077" y1="652.077" x2="216.769" y2="775.154"/>
		<g>
			<path d="M224.577,652.077c-4.103,41.026-8.205,82.051-12.308,123.077c-0.577,5.774,8.428,5.718,9,0
				c4.103-41.026,8.205-82.051,12.308-123.077C234.154,646.303,225.149,646.358,224.577,652.077L224.577,652.077z"/>
		</g>
	</g>
	<g>
		<line fill="#FFFFFF" x1="315.231" y1="605.923" x2="296.769" y2="629"/>
		<g>
			<path d="M312.049,602.741c-6.154,7.692-12.308,15.385-18.462,23.077c-3.587,4.484,2.738,10.896,6.364,6.364
				c6.154-7.692,12.308-15.385,18.462-23.077C322,604.621,315.675,598.209,312.049,602.741L312.049,602.741z"/>
		</g>
	</g>
	<g>
		<g>
			<path d="M283.729,534.424c6.459,4.063,12.494,9.573,16.975,15.733c3.479,4.781,5.887,10.192,5.652,16.186
				c-0.316,8.064-7.328,14.457-13.396,18.772c-4.687,3.333-0.199,11.143,4.542,7.771c7.927-5.637,15.2-12.745,17.342-22.58
				c1.64-7.531-0.603-15.135-4.379-21.65c-5.138-8.867-13.551-16.565-22.194-22.003
				C283.343,523.553,278.831,531.343,283.729,534.424L283.729,534.424z"/>
		</g>
	</g>
	<g>
		<g>
			<path d="M197.045,404.042c2.969,8.46,9.337,15.97,16.076,21.663c17.58,14.851,41.313,18.566,63.648,17.025
				c5.757-0.397,5.796-9.4,0-9c-20.218,1.395-41.893-1.387-57.887-14.898c-4.069-3.437-7.606-7.464-10.426-11.98
				c-0.864-1.384-1.644-2.822-2.344-4.295c-0.763-1.606,0.117,0.533-0.388-0.908C203.815,396.211,195.118,398.551,197.045,404.042
				L197.045,404.042z"/>
		</g>
	</g>
	<g>
		<ellipse fill="#FFFFFF" cx="246.403" cy="396.41" rx="0.488" ry="0.651"/>
		<g>
			<path d="M242.391,396.41c-0.004,0.05-0.009,0.099-0.013,0.149c0.054-0.399,0.107-0.798,0.161-1.196
				c-0.012,0.046-0.024,0.091-0.037,0.137c0.151-0.358,0.302-0.717,0.454-1.075c-0.03,0.083-0.074,0.157-0.133,0.222
				c0.235-0.304,0.469-0.607,0.704-0.911c-0.03,0.026-0.06,0.051-0.091,0.077c0.304-0.235,0.607-0.469,0.911-0.704
				c-0.034,0.016-0.068,0.033-0.103,0.049c0.358-0.151,0.717-0.302,1.075-0.454c-0.037,0.006-0.075,0.011-0.112,0.017
				c0.798,0,1.595,0,2.393,0c-0.037-0.006-0.075-0.011-0.112-0.017c0.358,0.151,0.717,0.302,1.075,0.454
				c-0.034-0.016-0.068-0.033-0.103-0.049c0.304,0.235,0.607,0.469,0.911,0.704c-0.03-0.026-0.06-0.051-0.091-0.077
				c0.235,0.304,0.469,0.607,0.704,0.911c-0.059-0.065-0.103-0.139-0.133-0.222c0.151,0.358,0.302,0.717,0.454,1.075
				c-0.012-0.046-0.024-0.091-0.037-0.137c0.054,0.399,0.107,0.798,0.161,1.196c-0.017-0.099-0.017-0.199,0-0.298
				c-0.054,0.399-0.107,0.798-0.161,1.196c0.012-0.046,0.024-0.091,0.037-0.137c-0.151,0.358-0.302,0.717-0.454,1.075
				c0.03-0.083,0.074-0.157,0.133-0.222c-0.235,0.304-0.469,0.607-0.704,0.911c0.03-0.026,0.06-0.051,0.091-0.077
				c-0.304,0.235-0.607,0.469-0.911,0.704c0.034-0.016,0.068-0.033,0.103-0.049c-0.358,0.151-0.717,0.302-1.075,0.454
				c0.037-0.006,0.075-0.011,0.112-0.017c-0.798,0-1.595,0-2.393,0c0.037,0.006,0.075,0.011,0.112,0.017
				c-0.358-0.151-0.717-0.302-1.075-0.454c0.034,0.016,0.068,0.033,0.103,0.049c-0.304-0.235-0.607-0.469-0.911-0.704
				c0.03,0.026,0.06,0.051,0.091,0.077c-0.235-0.304-0.469-0.607-0.704-0.911c0.059,0.065,0.103,0.139,0.133,0.222
				c-0.151-0.358-0.302-0.717-0.454-1.075c0.012,0.046,0.024,0.091,0.037,0.137c-0.054-0.399-0.107-0.798-0.161-1.196
				C242.383,396.311,242.387,396.361,242.391,396.41c0.106,1.231,0.419,2.283,1.318,3.182c0.84,0.84,1.993,1.318,3.182,1.318
				c1.189,0,2.342-0.478,3.182-1.318c0.781-0.781,1.416-2.046,1.318-3.182c-0.083-0.958-0.196-1.977-0.797-2.779
				c-0.477-0.636-0.952-1.332-1.705-1.691c-0.875-0.417-1.498-0.681-2.486-0.681c-1.386,0-2.462,0.592-3.487,1.461
				c-1.058,0.897-1.389,2.396-1.501,3.69c-0.072,0.833,0.296,2.11,0.797,2.779c0.477,0.636,0.952,1.332,1.705,1.691
				c0.875,0.417,1.498,0.68,2.486,0.68c1.386,0,2.462-0.592,3.487-1.461c1.058-0.897,1.389-2.396,1.501-3.69
				c0.098-1.136-0.537-2.401-1.318-3.182c-0.84-0.84-1.993-1.318-3.182-1.318c-1.189,0-2.342,0.478-3.182,1.318
				C242.81,394.127,242.498,395.179,242.391,396.41z"/>
		</g>
	</g>
</g>
<g>
	<g>
		<path d="M86.881,664.093c2.703-0.217,5.329-1.084,7.872-1.967c9.124-3.171,17.784-7.762,26.203-12.438
			c5.074-2.818,0.536-10.591-4.542-7.771c-7.54,4.188-15.22,8.265-23.322,11.268c-1.802,0.668-3.637,1.255-5.503,1.714
			c-0.924,0.227-2.227,0.317-0.708,0.195C81.137,655.555,81.092,664.558,86.881,664.093L86.881,664.093z"/>
	</g>
</g>
<g>
	<g>
		<path d="M1100.5,380c-0.216,88.53-45.105,170.52-115.116,223.602c-74.921,56.804-173.242,77.911-265.37,61.418
			c-88.048-15.762-169.364-67.112-216.443-143.853c-46.133-75.199-52.667-169.848-16.768-250.505
			c36.245-81.436,110.643-140.885,195.096-166.524c90.256-27.401,191.115-16.113,272.554,31.593
			c75.503,44.229,130.858,119.805,143.495,207.06C1099.731,355.098,1100.47,367.57,1100.5,380c0.014,5.803,9.014,5.804,9,0
			c-0.215-88.083-43.228-170.156-111.377-225.002C925.4,96.47,829.31,71.807,737.105,83.327
			c-89.24,11.149-173.072,57.042-226.924,129.595c-52.363,70.547-69.164,163.088-43.796,247.317
			c25.352,84.175,90.522,151.787,169.704,187.946c85.661,39.117,186.768,41.522,274.427,7.353
			c81.645-31.825,149.95-95.734,181.28-178.197c11.78-31.006,17.622-64.197,17.703-97.339
			C1109.514,374.196,1100.514,374.197,1100.5,380z"/>
	</g>
</g>
<g>
	<g>
		<path d="M332.5,361c-0.428,7.956-11.905,7.956-12.333,0C319.738,353.039,332.074,353.083,332.5,361c0.311,5.772,9.312,5.802,9,0
			c-0.462-8.57-6.597-14.705-15.167-15.167c-8.551-0.461-14.742,7.289-15.167,15.167c-0.461,8.551,7.289,14.742,15.167,15.167
			c8.551,0.461,14.742-7.289,15.167-15.167C341.812,355.198,332.811,355.228,332.5,361z"/>
	</g>
</g>
<g>
	<g>
		<path d="M414.833,343.833c-0.301,9.681-7.653,17.032-17.333,17.333c-9.678,0.301-17.046-8.106-17.333-17.333
			c-0.301-9.678,8.106-17.046,17.333-17.333C407.178,326.199,414.546,334.606,414.833,343.833c0.18,5.789,9.181,5.807,9,0
			c-0.456-14.658-11.676-25.877-26.333-26.333c-14.651-0.456-25.899,12.362-26.333,26.333
			c-0.456,14.651,12.362,25.899,26.333,26.333c14.651,0.456,25.899-12.362,26.333-26.333
			C424.014,338.026,415.013,338.044,414.833,343.833z"/>
	</g>
</g>
</svg>
