<?xml version="1.0" encoding="utf-8"?>
<!-- Generator: Adobe Illustrator 17.0.2, SVG Export Plug-In . SVG Version: 6.00 Build 0)  -->
<!DOCTYPE svg PUBLIC "-//W3C//DTD SVG 1.1//EN" "http://www.w3.org/Graphics/SVG/1.1/DTD/svg11.dtd">
<svg version="1.1" id="Lager_1" xmlns="http://www.w3.org/2000/svg" xmlns:xlink="http://www.w3.org/1999/xlink" x="0px" y="0px"
	 width="478.091px" height="518.527px" viewBox="572.135 131.733 478.091 518.527"
	 enable-background="new 572.135 131.733 478.091 518.527" xml:space="preserve">
<g>
	<g>
		<g>
			<path fill="#FFFFFF" d="M579.426,301.795c0,0,15.697-0.682,9.555-14.332c-3.047-6.77-7.127-17.416-2.73-27.981
				c4.397-10.565,12.836-18.584,27.273-15.172c0,0-9.539-18.438-7.875-30.449c1.027-7.412,10.514-15.253,21.524-12.599
				c6.658,1.605,15.224,5.775,25.724,17.849l-5.25,2.625l-1.05,20.474c0,0,18.728,8.312,23.099,22.049
				c3.675,11.549,3.854,19.486-11.025,37.798"/>
			<g>
				<path d="M579.426,303.295c8.554-0.453,14.429-6.298,11.514-14.989c-1.387-4.135-3.317-7.938-4.353-12.218
					c-1.619-6.686-0.54-13.217,2.576-19.264c4.842-9.394,13.753-13.216,23.961-11.067c1.311,0.276,2.31-1.002,1.694-2.203
					c-4.659-9.085-11.692-24.503-5.796-34.154c5.042-8.253,15.586-8.158,23.435-4.773c7.688,3.316,13.908,9.373,19.378,15.546
					c0.101-0.785,0.202-1.571,0.304-2.356c-1.75,0.875-3.5,1.75-5.25,2.625c-0.481,0.241-0.717,0.787-0.743,1.295
					c-0.35,6.825-0.7,13.649-1.05,20.474c-0.024,0.478,0.293,1.093,0.743,1.295c9.213,4.145,18.965,11.348,22.41,21.153
					c4.995,14.217-1.794,25.315-10.639,36.339c-1.198,1.493,0.911,3.63,2.121,2.121c6.844-8.53,14.175-18.257,13.469-29.771
					c-0.641-10.461-6.228-18.955-14.279-25.311c-3.128-2.47-6.542-4.583-10.083-6.403c-2.018-1.037-0.687-0.481-0.729,0.332
					c0.082-1.591,0.163-3.182,0.245-4.772c0.219-4.266,0.437-8.531,0.656-12.797c0.03-0.575,0.059-1.15,0.089-1.726
					c0.08-1.566,0.244-0.109-0.515,0.271c1.69-0.845,3.38-1.69,5.07-2.535c0.911-0.456,0.906-1.676,0.304-2.356
					c-10.622-11.986-29.552-26.893-44.896-13.303c-11.078,9.812-2.307,29.647,3.167,40.32c0.565-0.734,1.129-1.469,1.694-2.203
					c-7.05-1.484-14.533-1.016-20.303,3.76c-6.445,5.335-10.171,13.325-10.774,21.597c-0.324,4.437,0.784,9,2.115,13.188
					c1.309,4.118,4.037,8.016,3.92,12.447c-0.117,4.42-5.821,6.248-9.454,6.441C577.501,300.397,577.492,303.398,579.426,303.295
					L579.426,303.295z"/>
			</g>
		</g>
		<g>
			<path fill="#FFFFFF" d="M645.021,251.135c0,0,15.749,47.248,2.1,91.346l11.549,4.2l-59.322,4.2c0,0,11.024-69.822,8.925-90.821
				c0,0-10.946-0.052-10.421,13.072c0.525,13.124,21.011,34.097-15.014,42.313"/>
			<g>
				<path d="M643.575,251.534c9.407,28.451,10.71,61.891,2.1,90.548c-0.249,0.83,0.294,1.571,1.048,1.845
					c3.85,1.4,7.7,2.8,11.549,4.2c0.133-0.982,0.266-1.964,0.399-2.946c-19.774,1.4-39.548,2.8-59.322,4.2
					c0.482,0.633,0.964,1.266,1.446,1.899c1.959-12.425,3.67-24.892,5.233-37.372c2.194-17.514,5.376-36.158,3.745-53.847
					c-0.074-0.807-0.626-1.51-1.5-1.5c-12.569,0.138-12.989,14.267-9.923,23.182c1.896,5.514,4.457,11.044,4.247,16.997
					c-0.348,9.888-12.383,13.396-20.158,15.259c-1.881,0.451-1.083,3.343,0.798,2.893c7.46-1.787,15.655-4.373,20.169-11.039
					c3.007-4.442,2.436-10.167,1.17-15.075c-1.409-5.461-4.072-10.546-5.074-16.118c-1.076-5.982,2.006-13.025,8.772-13.099
					c-0.5-0.5-1-1-1.5-1.5c1.598,17.331-1.492,35.556-3.605,52.721c-1.55,12.592-3.29,25.168-5.266,37.701
					c-0.14,0.891,0.384,1.974,1.446,1.899c19.774-1.4,39.548-2.8,59.322-4.2c1.72-0.122,2.003-2.363,0.399-2.946
					c-3.85-1.4-7.7-2.8-11.549-4.2c0.349,0.615,0.698,1.23,1.048,1.845c8.757-29.149,7.468-63.206-2.1-92.143
					C645.864,248.909,642.966,249.692,643.575,251.534L643.575,251.534z"/>
			</g>
		</g>
		<g>
			<line fill="none" x1="629.272" y1="306.258" x2="625.072" y2="348.256"/>
			<g>
				<path d="M627.772,306.258c-1.4,13.999-2.8,27.999-4.2,41.998c-0.192,1.925,2.809,1.906,3,0c1.4-13.999,2.8-27.999,4.2-41.998
					C630.965,304.333,627.963,304.351,627.772,306.258L627.772,306.258z"/>
			</g>
		</g>
		<g>
			<line fill="none" x1="658.671" y1="290.508" x2="652.371" y2="298.383"/>
			<g>
				<path d="M657.61,289.448c-2.1,2.625-4.2,5.25-6.3,7.875c-1.196,1.495,0.913,3.632,2.121,2.121c2.1-2.625,4.2-5.25,6.3-7.875
					C660.927,290.074,658.819,287.937,657.61,289.448L657.61,289.448z"/>
			</g>
		</g>
		<g>
			<g>
				<path d="M647.939,266.08c1.919,1.218,3.609,2.787,5.104,4.488c4.049,4.605,2.808,9.362-1.954,12.871
					c-1.539,1.134-0.046,3.74,1.514,2.59c4.948-3.646,7.605-8.431,4.806-14.331c-1.595-3.362-4.852-6.239-7.955-8.209
					C647.815,262.449,646.311,265.046,647.939,266.08L647.939,266.08z"/>
			</g>
		</g>
		<g>
			<g>
				<path d="M618.376,221.61c3.884,10.78,17.089,13.754,27.17,13.176c1.923-0.11,1.934-3.111,0-3
					c-8.605,0.494-20.935-1.696-24.277-10.973C620.618,219.007,617.719,219.786,618.376,221.61L618.376,221.61z"/>
			</g>
		</g>
		<g>
			<ellipse fill="#FFFFFF" cx="635.185" cy="219.015" rx="0.166" ry="0.222"/>
			<g>
				<path d="M633.905,218.617c0.023-0.056,0.046-0.111,0.069-0.167c0.299-0.23,0.598-0.46,0.896-0.689
					c-0.028,0.01-0.056,0.02-0.084,0.03c0.266,0,0.532,0,0.798,0c-0.028-0.01-0.056-0.02-0.084-0.03
					c0.299,0.23,0.598,0.46,0.896,0.689c0.023,0.056,0.046,0.111,0.069,0.167c0,0.266,0,0.532,0,0.798
					c-0.023,0.056-0.046,0.111-0.069,0.167c-0.299,0.23-0.598,0.46-0.896,0.689c0.028-0.01,0.056-0.02,0.084-0.03
					c-0.266,0-0.532,0-0.798,0c0.028,0.01,0.056,0.02,0.084,0.03c-0.299-0.23-0.598-0.46-0.896-0.689
					c-0.023-0.056-0.046-0.111-0.069-0.167c0.163,0.802,1.098,1.253,1.845,1.048c0.828-0.228,1.21-1.045,1.048-1.845
					c-0.151-0.746-0.847-1.323-1.613-1.323c-0.926,0-1.667,0.815-1.667,1.722c0,0.816,0.53,1.402,1.268,1.668
					c0.869,0.313,1.843-0.436,2.012-1.27c0.162-0.801-0.22-1.617-1.048-1.845C635.003,217.363,634.067,217.815,633.905,218.617z"/>
			</g>
		</g>
	</g>
	<g>
		<g>
			<path d="M580.75,310.322c4.025-0.337,8.205-3.024,11.61-4.911c1.692-0.938,0.179-3.529-1.514-2.59
				c-2.617,1.451-5.279,2.863-8.093,3.895c-0.552,0.202-1.115,0.377-1.685,0.523c-0.244,0.062-0.894,0.132-0.318,0.084
				C578.837,307.482,578.821,310.484,580.75,310.322L580.75,310.322z"/>
		</g>
	</g>
</g>
<g>
	<ellipse fill="#FFFFFF" cx="640.211" cy="266.856" rx="0.166" ry="0.222"/>
	<g>
		<path d="M638.931,266.458c0.023-0.056,0.046-0.111,0.069-0.167c0.299-0.23,0.598-0.46,0.896-0.689
			c-0.028,0.01-0.056,0.02-0.084,0.03c0.266,0,0.532,0,0.797,0c-0.028-0.01-0.056-0.02-0.084-0.03
			c0.299,0.23,0.598,0.46,0.896,0.689c0.023,0.056,0.046,0.111,0.069,0.167c0,0.266,0,0.532,0,0.798
			c-0.023,0.056-0.046,0.111-0.069,0.167c-0.299,0.23-0.598,0.46-0.896,0.689c0.028-0.01,0.056-0.02,0.084-0.03
			c-0.266,0-0.532,0-0.797,0c0.028,0.01,0.056,0.02,0.084,0.03c-0.299-0.23-0.598-0.46-0.896-0.689
			c-0.023-0.056-0.046-0.111-0.069-0.167c0.163,0.802,1.098,1.253,1.845,1.048c0.828-0.228,1.21-1.045,1.048-1.845
			c-0.151-0.746-0.847-1.323-1.613-1.323c-0.926,0-1.667,0.815-1.667,1.722c0,0.816,0.53,1.403,1.268,1.668
			c0.869,0.313,1.843-0.436,2.012-1.27c0.162-0.801-0.22-1.617-1.048-1.845C640.029,265.204,639.093,265.656,638.931,266.458z"/>
	</g>
</g>
<g>
	<ellipse fill="#FFFFFF" cx="621.152" cy="267.3" rx="0.166" ry="0.222"/>
	<g>
		<path d="M619.872,266.901c0.023-0.056,0.046-0.111,0.069-0.167c0.299-0.23,0.598-0.46,0.896-0.689
			c-0.028,0.01-0.056,0.02-0.084,0.03c0.266,0,0.532,0,0.797,0c-0.028-0.01-0.056-0.02-0.084-0.03
			c0.299,0.23,0.598,0.46,0.896,0.689c0.023,0.056,0.046,0.111,0.069,0.167c0,0.266,0,0.532,0,0.798
			c-0.023,0.056-0.046,0.111-0.069,0.167c-0.299,0.23-0.598,0.46-0.896,0.689c0.028-0.01,0.056-0.02,0.084-0.03
			c-0.266,0-0.532,0-0.797,0c0.028,0.01,0.056,0.02,0.084,0.03c-0.299-0.23-0.598-0.46-0.896-0.689
			c-0.023-0.056-0.046-0.111-0.069-0.167c0.163,0.802,1.098,1.253,1.845,1.048c0.828-0.228,1.21-1.045,1.048-1.845
			c-0.151-0.746-0.847-1.323-1.613-1.323c-0.926,0-1.667,0.815-1.667,1.722c0,0.816,0.531,1.402,1.268,1.668
			c0.869,0.313,1.843-0.436,2.012-1.27c0.162-0.801-0.22-1.617-1.048-1.845C620.97,265.648,620.035,266.1,619.872,266.901z"/>
	</g>
</g>
<g>
	<g>
		<g>
			<path fill="#FFFFFF" d="M702.186,240.013c0,0,15.697-0.682,9.555-14.332c-3.047-6.77-7.127-17.416-2.73-27.981
				c4.397-10.565,12.836-18.584,27.273-15.172c0,0-9.539-18.438-7.875-30.449c1.027-7.412,10.514-15.253,21.524-12.599
				c6.658,1.605,15.224,5.775,25.724,17.849l-5.25,2.625l-1.05,20.474c0,0,18.728,8.312,23.099,22.049
				c3.675,11.549,3.854,19.486-11.025,37.798"/>
			<g>
				<path d="M702.186,241.513c8.554-0.453,14.429-6.298,11.514-14.989c-1.387-4.135-3.317-7.938-4.353-12.218
					c-1.619-6.686-0.54-13.217,2.576-19.264c4.842-9.394,13.753-13.216,23.961-11.067c1.311,0.276,2.31-1.002,1.694-2.203
					c-4.659-9.085-11.692-24.503-5.796-34.154c5.042-8.253,15.586-8.158,23.435-4.773c7.688,3.316,13.908,9.373,19.378,15.546
					c0.101-0.785,0.202-1.571,0.304-2.356c-1.75,0.875-3.5,1.75-5.25,2.625c-0.481,0.241-0.717,0.787-0.743,1.295
					c-0.35,6.825-0.7,13.649-1.05,20.474c-0.024,0.478,0.293,1.093,0.743,1.295c9.213,4.145,18.965,11.348,22.41,21.153
					c4.995,14.217-1.794,25.315-10.639,36.339c-1.198,1.493,0.911,3.63,2.121,2.121c6.844-8.53,14.175-18.257,13.469-29.771
					c-0.641-10.461-6.228-18.955-14.279-25.311c-3.128-2.47-6.542-4.583-10.083-6.403c-2.018-1.037-0.687-0.481-0.729,0.332
					c0.082-1.591,0.163-3.182,0.245-4.772c0.219-4.266,0.437-8.531,0.656-12.797c0.03-0.575,0.059-1.15,0.089-1.726
					c0.08-1.566,0.244-0.109-0.515,0.271c1.69-0.845,3.38-1.69,5.07-2.535c0.911-0.456,0.906-1.676,0.304-2.356
					c-10.622-11.986-29.552-26.893-44.896-13.303c-11.078,9.812-2.307,29.647,3.167,40.32c0.565-0.734,1.129-1.469,1.694-2.204
					c-7.05-1.484-14.533-1.016-20.303,3.76c-6.445,5.335-10.171,13.325-10.774,21.597c-0.324,4.437,0.784,9,2.115,13.188
					c1.309,4.118,4.037,8.016,3.92,12.447c-0.117,4.42-5.821,6.248-9.454,6.441C700.262,238.615,700.252,241.616,702.186,241.513
					L702.186,241.513z"/>
			</g>
		</g>
		<g>
			<path fill="#FFFFFF" d="M767.782,189.353c0,0,15.749,47.248,2.1,91.346l11.549,4.2l-59.322,4.2c0,0,11.024-69.822,8.925-90.821
				c0,0-10.946-0.053-10.421,13.072c0.525,13.124,21.011,34.097-15.014,42.313"/>
			<g>
				<path d="M766.336,189.752c9.407,28.451,10.71,61.891,2.1,90.548c-0.249,0.83,0.294,1.571,1.048,1.845
					c3.85,1.4,7.7,2.8,11.549,4.2c0.133-0.982,0.266-1.964,0.399-2.946c-19.774,1.4-39.548,2.8-59.322,4.2
					c0.482,0.633,0.964,1.266,1.446,1.899c1.959-12.425,3.67-24.892,5.233-37.372c2.194-17.514,5.376-36.158,3.745-53.847
					c-0.074-0.807-0.626-1.51-1.5-1.5c-12.569,0.138-12.989,14.267-9.923,23.182c1.896,5.514,4.457,11.044,4.247,16.997
					c-0.348,9.888-12.383,13.396-20.158,15.259c-1.881,0.451-1.083,3.343,0.798,2.893c7.46-1.787,15.655-4.373,20.169-11.039
					c3.007-4.442,2.436-10.167,1.17-15.075c-1.409-5.46-4.072-10.546-5.074-16.118c-1.076-5.982,2.006-13.025,8.772-13.099
					c-0.5-0.5-1-1-1.5-1.5c1.598,17.331-1.492,35.556-3.605,52.721c-1.55,12.592-3.29,25.168-5.266,37.701
					c-0.14,0.891,0.384,1.974,1.446,1.899c19.774-1.4,39.548-2.8,59.322-4.2c1.72-0.122,2.003-2.363,0.399-2.946
					c-3.85-1.4-7.7-2.8-11.549-4.2c0.349,0.615,0.698,1.23,1.048,1.845c8.757-29.149,7.468-63.206-2.1-92.143
					C768.624,187.127,765.727,187.91,766.336,189.752L766.336,189.752z"/>
			</g>
		</g>
		<g>
			<line fill="none" x1="752.033" y1="244.476" x2="747.833" y2="286.474"/>
			<g>
				<path d="M750.533,244.476c-1.4,13.999-2.8,27.999-4.2,41.998c-0.192,1.925,2.809,1.906,3,0c1.4-13.999,2.8-27.999,4.2-41.998
					C753.725,242.551,750.723,242.57,750.533,244.476L750.533,244.476z"/>
			</g>
		</g>
		<g>
			<line fill="none" x1="781.432" y1="228.726" x2="775.132" y2="236.601"/>
			<g>
				<path d="M780.371,227.666c-2.1,2.625-4.2,5.25-6.3,7.875c-1.196,1.495,0.913,3.632,2.121,2.121c2.1-2.625,4.2-5.25,6.3-7.875
					C783.688,228.292,781.579,226.155,780.371,227.666L780.371,227.666z"/>
			</g>
		</g>
		<g>
			<g>
				<path d="M770.7,204.298c1.919,1.218,3.609,2.787,5.104,4.488c4.049,4.605,2.808,9.362-1.954,12.871
					c-1.539,1.134-0.046,3.74,1.514,2.59c4.948-3.646,7.605-8.431,4.806-14.331c-1.595-3.362-4.852-6.239-7.955-8.209
					C770.575,200.667,769.072,203.265,770.7,204.298L770.7,204.298z"/>
			</g>
		</g>
		<g>
			<g>
				<path d="M741.137,159.828c3.884,10.78,17.089,13.754,27.17,13.176c1.923-0.11,1.934-3.111,0-3
					c-8.605,0.494-20.935-1.696-24.277-10.973C743.379,157.225,740.479,158.004,741.137,159.828L741.137,159.828z"/>
			</g>
		</g>
		<g>
			<ellipse fill="#FFFFFF" cx="757.945" cy="157.233" rx="0.166" ry="0.222"/>
			<g>
				<path d="M756.665,156.835c0.023-0.056,0.046-0.111,0.069-0.167c0.299-0.23,0.598-0.46,0.896-0.689
					c-0.028,0.01-0.056,0.02-0.084,0.03c0.266,0,0.532,0,0.798,0c-0.028-0.01-0.056-0.02-0.084-0.03
					c0.299,0.23,0.598,0.46,0.896,0.689c0.023,0.056,0.046,0.111,0.069,0.167c0,0.266,0,0.532,0,0.798
					c-0.023,0.056-0.046,0.111-0.069,0.167c-0.299,0.23-0.598,0.46-0.896,0.689c0.028-0.01,0.056-0.02,0.084-0.03
					c-0.266,0-0.532,0-0.798,0c0.028,0.01,0.056,0.02,0.084,0.03c-0.299-0.23-0.598-0.46-0.896-0.689
					c-0.023-0.056-0.046-0.111-0.069-0.167c0.163,0.802,1.098,1.253,1.845,1.048c0.828-0.228,1.21-1.045,1.048-1.845
					c-0.151-0.746-0.847-1.323-1.613-1.323c-0.926,0-1.667,0.815-1.667,1.722c0,0.816,0.53,1.402,1.268,1.668
					c0.869,0.313,1.843-0.436,2.012-1.27c0.162-0.801-0.22-1.617-1.048-1.845C757.764,155.581,756.828,156.033,756.665,156.835z"/>
			</g>
		</g>
	</g>
	<g>
		<g>
			<path d="M703.511,248.54c4.025-0.337,8.205-3.024,11.61-4.911c1.692-0.938,0.179-3.529-1.514-2.59
				c-2.617,1.451-5.279,2.863-8.093,3.895c-0.552,0.202-1.115,0.377-1.685,0.523c-0.244,0.062-0.894,0.132-0.318,0.084
				C701.597,245.7,701.582,248.702,703.511,248.54L703.511,248.54z"/>
		</g>
	</g>
</g>
<g>
	<ellipse fill="#FFFFFF" cx="762.971" cy="205.074" rx="0.166" ry="0.222"/>
	<g>
		<path d="M761.691,204.676c0.023-0.056,0.046-0.111,0.069-0.167c0.299-0.23,0.598-0.46,0.896-0.689
			c-0.028,0.01-0.056,0.02-0.084,0.03c0.266,0,0.532,0,0.797,0c-0.028-0.01-0.056-0.02-0.084-0.03
			c0.299,0.23,0.598,0.46,0.896,0.689c0.023,0.056,0.046,0.111,0.069,0.167c0,0.266,0,0.532,0,0.798
			c-0.023,0.056-0.046,0.111-0.069,0.167c-0.299,0.23-0.598,0.46-0.896,0.689c0.028-0.01,0.056-0.02,0.084-0.03
			c-0.266,0-0.532,0-0.797,0c0.028,0.01,0.056,0.02,0.084,0.03c-0.299-0.23-0.598-0.46-0.896-0.689
			c-0.023-0.056-0.046-0.111-0.069-0.167c0.163,0.802,1.098,1.253,1.845,1.048c0.828-0.228,1.21-1.045,1.048-1.845
			c-0.151-0.746-0.847-1.323-1.613-1.323c-0.926,0-1.667,0.815-1.667,1.722c0,0.816,0.53,1.403,1.268,1.668
			c0.869,0.313,1.843-0.436,2.012-1.27c0.162-0.801-0.22-1.617-1.048-1.845C762.79,203.422,761.854,203.874,761.691,204.676z"/>
	</g>
</g>
<g>
	<ellipse fill="#FFFFFF" cx="743.913" cy="205.518" rx="0.166" ry="0.222"/>
	<g>
		<path d="M742.633,205.12c0.023-0.056,0.046-0.111,0.069-0.167c0.299-0.23,0.598-0.46,0.896-0.689
			c-0.028,0.01-0.056,0.02-0.084,0.03c0.266,0,0.532,0,0.797,0c-0.028-0.01-0.056-0.02-0.084-0.03
			c0.299,0.23,0.598,0.46,0.896,0.689c0.023,0.056,0.046,0.111,0.069,0.167c0,0.266,0,0.532,0,0.798
			c-0.023,0.056-0.046,0.111-0.069,0.167c-0.299,0.23-0.598,0.46-0.896,0.689c0.028-0.01,0.056-0.02,0.084-0.03
			c-0.266,0-0.532,0-0.797,0c0.028,0.01,0.056,0.02,0.084,0.03c-0.299-0.23-0.598-0.46-0.896-0.689
			c-0.023-0.056-0.046-0.111-0.069-0.167c0.163,0.802,1.098,1.253,1.845,1.048c0.828-0.228,1.21-1.045,1.048-1.845
			c-0.151-0.746-0.847-1.323-1.613-1.323c-0.926,0-1.667,0.815-1.667,1.722c0,0.816,0.531,1.403,1.268,1.668
			c0.869,0.313,1.843-0.436,2.012-1.27c0.162-0.801-0.22-1.617-1.048-1.845C743.731,203.866,742.795,204.318,742.633,205.12z"/>
	</g>
</g>
<g>
	<g>
		<g>
			<path fill="#FFFFFF" d="M808.247,279.358c0,0,15.697-0.682,9.555-14.332c-3.047-6.77-7.127-17.416-2.73-27.981
				c4.397-10.565,12.836-18.584,27.273-15.172c0,0-9.539-18.438-7.875-30.449c1.027-7.412,10.514-15.253,21.524-12.599
				c6.658,1.605,15.224,5.775,25.724,17.849l-5.25,2.625l-1.05,20.474c0,0,18.728,8.312,23.099,22.049
				c3.675,11.549,3.854,19.486-11.025,37.798"/>
			<g>
				<path d="M808.247,280.858c8.554-0.453,14.429-6.298,11.514-14.989c-1.387-4.135-3.317-7.938-4.353-12.218
					c-1.619-6.686-0.54-13.217,2.576-19.264c4.842-9.394,13.753-13.216,23.961-11.067c1.311,0.276,2.31-1.002,1.694-2.203
					c-4.659-9.085-11.692-24.503-5.796-34.154c5.042-8.253,15.586-8.158,23.435-4.773c7.688,3.316,13.908,9.373,19.378,15.546
					c0.101-0.785,0.202-1.571,0.304-2.356c-1.75,0.875-3.5,1.75-5.25,2.625c-0.481,0.241-0.717,0.787-0.743,1.295
					c-0.35,6.825-0.7,13.649-1.05,20.474c-0.024,0.478,0.293,1.093,0.743,1.295c9.213,4.145,18.965,11.348,22.41,21.153
					c4.995,14.217-1.794,25.315-10.639,36.339c-1.198,1.493,0.911,3.63,2.121,2.121c6.844-8.53,14.175-18.257,13.469-29.771
					c-0.641-10.461-6.228-18.955-14.279-25.311c-3.128-2.47-6.542-4.583-10.083-6.403c-2.018-1.037-0.687-0.481-0.729,0.332
					c0.082-1.591,0.163-3.182,0.245-4.772c0.219-4.266,0.437-8.531,0.656-12.797c0.03-0.575,0.059-1.15,0.089-1.726
					c0.08-1.566,0.244-0.109-0.515,0.271c1.69-0.845,3.38-1.69,5.07-2.535c0.911-0.456,0.906-1.676,0.304-2.356
					c-10.622-11.986-29.552-26.893-44.896-13.303c-11.078,9.812-2.307,29.647,3.167,40.32c0.565-0.734,1.129-1.469,1.694-2.203
					c-7.05-1.484-14.533-1.016-20.303,3.76c-6.445,5.335-10.171,13.325-10.774,21.597c-0.324,4.437,0.784,9,2.115,13.188
					c1.309,4.118,4.037,8.016,3.92,12.447c-0.117,4.42-5.821,6.248-9.454,6.441C806.323,277.96,806.313,280.961,808.247,280.858
					L808.247,280.858z"/>
			</g>
		</g>
		<g>
			<path fill="#FFFFFF" d="M873.843,228.698c0,0,15.749,47.248,2.1,91.346l11.549,4.2l-59.322,4.2c0,0,11.024-69.822,8.925-90.821
				c0,0-10.946-0.052-10.421,13.072c0.525,13.124,21.011,34.097-15.014,42.313"/>
			<g>
				<path d="M872.396,229.097c9.407,28.451,10.71,61.891,2.1,90.548c-0.249,0.83,0.294,1.571,1.048,1.845
					c3.85,1.4,7.7,2.8,11.549,4.2c0.133-0.982,0.266-1.964,0.399-2.946c-19.774,1.4-39.548,2.8-59.322,4.2
					c0.482,0.633,0.964,1.266,1.446,1.899c1.959-12.425,3.67-24.892,5.233-37.372c2.194-17.514,5.376-36.158,3.745-53.847
					c-0.074-0.807-0.626-1.51-1.5-1.5c-12.569,0.138-12.989,14.267-9.923,23.182c1.896,5.514,4.457,11.044,4.247,16.997
					c-0.348,9.888-12.383,13.396-20.158,15.259c-1.881,0.451-1.083,3.343,0.798,2.893c7.46-1.787,15.655-4.373,20.169-11.039
					c3.007-4.442,2.436-10.167,1.17-15.075c-1.409-5.46-4.072-10.546-5.074-16.118c-1.076-5.982,2.006-13.025,8.772-13.099
					c-0.5-0.5-1-1-1.5-1.5c1.598,17.331-1.492,35.556-3.605,52.721c-1.55,12.592-3.29,25.168-5.266,37.701
					c-0.14,0.891,0.384,1.974,1.446,1.899c19.774-1.4,39.548-2.8,59.322-4.2c1.72-0.122,2.003-2.363,0.399-2.946
					c-3.85-1.4-7.7-2.8-11.549-4.2c0.349,0.615,0.698,1.23,1.048,1.845c8.757-29.149,7.468-63.206-2.1-92.143
					C874.685,226.472,871.787,227.255,872.396,229.097L872.396,229.097z"/>
			</g>
		</g>
		<g>
			<line fill="none" x1="858.094" y1="283.821" x2="853.894" y2="325.819"/>
			<g>
				<path d="M856.594,283.821c-1.4,13.999-2.8,27.999-4.2,41.998c-0.192,1.925,2.809,1.906,3,0c1.4-13.999,2.8-27.999,4.2-41.998
					C859.786,281.896,856.784,281.915,856.594,283.821L856.594,283.821z"/>
			</g>
		</g>
		<g>
			<line fill="none" x1="887.492" y1="268.071" x2="881.193" y2="275.946"/>
			<g>
				<path d="M886.432,267.011c-2.1,2.625-4.2,5.25-6.3,7.875c-1.196,1.495,0.913,3.632,2.121,2.121c2.1-2.625,4.2-5.25,6.3-7.875
					C889.749,267.638,887.64,265.5,886.432,267.011L886.432,267.011z"/>
			</g>
		</g>
		<g>
			<g>
				<path d="M876.761,243.643c1.919,1.218,3.609,2.787,5.104,4.488c4.049,4.605,2.808,9.362-1.954,12.871
					c-1.539,1.134-0.046,3.74,1.514,2.59c4.948-3.646,7.605-8.431,4.806-14.331c-1.595-3.362-4.852-6.239-7.955-8.209
					C876.636,240.012,875.132,242.61,876.761,243.643L876.761,243.643z"/>
			</g>
		</g>
		<g>
			<g>
				<path d="M847.198,199.173c3.884,10.78,17.089,13.754,27.17,13.176c1.923-0.11,1.934-3.111,0-3
					c-8.605,0.494-20.935-1.696-24.277-10.973C849.44,196.57,846.54,197.349,847.198,199.173L847.198,199.173z"/>
			</g>
		</g>
		<g>
			<ellipse fill="#FFFFFF" cx="864.006" cy="196.578" rx="0.166" ry="0.222"/>
			<g>
				<path d="M862.726,196.18c0.023-0.056,0.046-0.111,0.069-0.167c0.299-0.23,0.598-0.46,0.896-0.689
					c-0.028,0.01-0.056,0.02-0.084,0.03c0.266,0,0.532,0,0.798,0c-0.028-0.01-0.056-0.02-0.084-0.03
					c0.299,0.23,0.598,0.46,0.896,0.689c0.023,0.056,0.046,0.111,0.069,0.167c0,0.266,0,0.532,0,0.798
					c-0.023,0.056-0.046,0.111-0.069,0.167c-0.299,0.23-0.598,0.46-0.896,0.689c0.028-0.01,0.056-0.02,0.084-0.03
					c-0.266,0-0.532,0-0.798,0c0.028,0.01,0.056,0.02,0.084,0.03c-0.299-0.23-0.598-0.46-0.896-0.689
					c-0.023-0.056-0.046-0.111-0.069-0.167c0.163,0.802,1.098,1.253,1.845,1.048c0.828-0.228,1.21-1.045,1.048-1.845
					c-0.151-0.746-0.847-1.323-1.613-1.323c-0.926,0-1.667,0.815-1.667,1.722c0,0.816,0.53,1.402,1.268,1.668
					c0.869,0.313,1.843-0.436,2.012-1.27c0.162-0.801-0.22-1.617-1.048-1.845C863.824,194.927,862.889,195.378,862.726,196.18z"/>
			</g>
		</g>
	</g>
	<g>
		<g>
			<path d="M809.571,287.885c4.025-0.337,8.205-3.024,11.61-4.911c1.692-0.938,0.179-3.529-1.514-2.59
				c-2.617,1.451-5.279,2.863-8.093,3.895c-0.552,0.202-1.115,0.377-1.685,0.523c-0.244,0.062-0.894,0.132-0.318,0.084
				C807.658,285.045,807.642,288.047,809.571,287.885L809.571,287.885z"/>
		</g>
	</g>
</g>
<g>
	<ellipse fill="#FFFFFF" cx="869.032" cy="244.419" rx="0.166" ry="0.222"/>
	<g>
		<path d="M867.752,244.021c0.023-0.056,0.046-0.111,0.069-0.167c0.299-0.23,0.598-0.46,0.896-0.689
			c-0.028,0.01-0.056,0.02-0.084,0.03c0.266,0,0.532,0,0.797,0c-0.028-0.01-0.056-0.02-0.084-0.03
			c0.299,0.23,0.598,0.46,0.896,0.689c0.023,0.056,0.046,0.111,0.069,0.167c0,0.266,0,0.532,0,0.798
			c-0.023,0.056-0.046,0.111-0.069,0.167c-0.299,0.23-0.598,0.46-0.896,0.689c0.028-0.01,0.056-0.02,0.084-0.03
			c-0.266,0-0.532,0-0.797,0c0.028,0.01,0.056,0.02,0.084,0.03c-0.299-0.23-0.598-0.46-0.896-0.689
			c-0.023-0.056-0.046-0.111-0.069-0.167c0.163,0.802,1.098,1.253,1.845,1.048c0.828-0.228,1.21-1.045,1.048-1.845
			c-0.151-0.746-0.847-1.323-1.613-1.323c-0.926,0-1.667,0.815-1.667,1.722c0,0.816,0.53,1.402,1.268,1.668
			c0.869,0.313,1.843-0.436,2.012-1.27c0.162-0.801-0.22-1.617-1.048-1.845C868.85,242.768,867.915,243.219,867.752,244.021z"/>
	</g>
</g>
<g>
	<ellipse fill="#FFFFFF" cx="849.973" cy="244.863" rx="0.166" ry="0.222"/>
	<g>
		<path d="M848.693,244.465c0.023-0.056,0.046-0.111,0.069-0.167c0.299-0.23,0.598-0.46,0.896-0.689
			c-0.028,0.01-0.056,0.02-0.084,0.03c0.266,0,0.532,0,0.797,0c-0.028-0.01-0.056-0.02-0.084-0.03
			c0.299,0.23,0.598,0.46,0.896,0.689c0.023,0.056,0.046,0.111,0.069,0.167c0,0.266,0,0.532,0,0.798
			c-0.023,0.056-0.046,0.111-0.069,0.167c-0.299,0.23-0.598,0.46-0.896,0.689c0.028-0.01,0.056-0.02,0.084-0.03
			c-0.266,0-0.532,0-0.797,0c0.028,0.01,0.056,0.02,0.084,0.03c-0.299-0.23-0.598-0.46-0.896-0.689
			c-0.023-0.056-0.046-0.111-0.069-0.167c0.163,0.802,1.098,1.253,1.845,1.048c0.828-0.228,1.21-1.045,1.048-1.845
			c-0.151-0.746-0.847-1.323-1.613-1.323c-0.926,0-1.667,0.815-1.667,1.722c0,0.816,0.531,1.402,1.268,1.668
			c0.869,0.313,1.843-0.436,2.012-1.27c0.162-0.801-0.22-1.617-1.048-1.845C849.792,243.212,848.856,243.663,848.693,244.465z"/>
	</g>
</g>
<g>
	<g>
		<g>
			<path fill="#FFFFFF" d="M929.704,298.176c0,0,15.697-0.682,9.555-14.332c-3.047-6.77-7.127-17.416-2.73-27.981
				c4.397-10.565,12.836-18.584,27.273-15.172c0,0-9.539-18.438-7.875-30.449c1.027-7.412,10.514-15.253,21.524-12.599
				c6.658,1.605,15.224,5.775,25.724,17.849l-5.25,2.625l-1.05,20.474c0,0,18.728,8.312,23.099,22.049
				c3.675,11.549,3.854,19.486-11.025,37.798"/>
			<g>
				<path d="M929.704,299.676c8.554-0.453,14.429-6.298,11.514-14.989c-1.387-4.135-3.317-7.938-4.353-12.218
					c-1.619-6.686-0.54-13.217,2.576-19.264c4.842-9.394,13.753-13.216,23.961-11.067c1.311,0.276,2.31-1.002,1.694-2.203
					c-4.659-9.085-11.692-24.503-5.796-34.154c5.042-8.253,15.586-8.158,23.435-4.773c7.688,3.316,13.908,9.373,19.378,15.546
					c0.101-0.785,0.202-1.571,0.304-2.356c-1.75,0.875-3.5,1.75-5.25,2.625c-0.481,0.241-0.717,0.787-0.743,1.295
					c-0.35,6.825-0.7,13.649-1.05,20.474c-0.024,0.478,0.293,1.093,0.743,1.295c9.213,4.145,18.965,11.348,22.41,21.153
					c4.995,14.217-1.794,25.315-10.639,36.339c-1.198,1.493,0.911,3.63,2.121,2.121c6.844-8.53,14.175-18.257,13.469-29.771
					c-0.641-10.461-6.228-18.955-14.279-25.311c-3.128-2.47-6.542-4.583-10.083-6.403c-2.018-1.037-0.687-0.481-0.729,0.332
					c0.082-1.591,0.163-3.182,0.245-4.772c0.219-4.266,0.437-8.531,0.656-12.797c0.03-0.575,0.059-1.15,0.089-1.726
					c0.08-1.566,0.244-0.109-0.515,0.271c1.69-0.845,3.38-1.69,5.07-2.535c0.911-0.456,0.906-1.676,0.304-2.356
					c-10.622-11.986-29.552-26.893-44.896-13.303c-11.078,9.812-2.307,29.647,3.167,40.32c0.565-0.734,1.129-1.469,1.694-2.203
					c-7.05-1.484-14.533-1.016-20.303,3.76c-6.445,5.335-10.171,13.325-10.774,21.597c-0.324,4.437,0.784,9,2.115,13.188
					c1.309,4.118,4.037,8.016,3.92,12.447c-0.117,4.42-5.821,6.248-9.454,6.441C927.779,296.778,927.769,299.778,929.704,299.676
					L929.704,299.676z"/>
			</g>
		</g>
		<g>
			<path fill="#FFFFFF" d="M995.299,247.515c0,0,15.749,47.248,2.1,91.346l11.549,4.2l-59.322,4.2c0,0,11.024-69.822,8.925-90.821
				c0,0-10.946-0.052-10.421,13.072c0.525,13.124,21.011,34.097-15.014,42.313"/>
			<g>
				<path d="M993.853,247.914c9.407,28.451,10.71,61.891,2.1,90.548c-0.249,0.83,0.294,1.571,1.048,1.845
					c3.85,1.4,7.7,2.8,11.549,4.2c0.133-0.982,0.266-1.964,0.399-2.946c-19.774,1.4-39.548,2.8-59.322,4.2
					c0.482,0.633,0.964,1.266,1.446,1.899c1.959-12.425,3.67-24.892,5.233-37.372c2.194-17.514,5.376-36.158,3.745-53.847
					c-0.074-0.807-0.626-1.51-1.5-1.5c-12.569,0.138-12.989,14.267-9.923,23.182c1.896,5.514,4.457,11.044,4.247,16.997
					c-0.348,9.888-12.383,13.396-20.158,15.259c-1.881,0.451-1.083,3.343,0.798,2.893c7.46-1.787,15.655-4.373,20.169-11.039
					c3.007-4.442,2.436-10.167,1.17-15.075c-1.409-5.461-4.072-10.546-5.074-16.118c-1.076-5.982,2.006-13.025,8.772-13.099
					c-0.5-0.5-1-1-1.5-1.5c1.598,17.331-1.492,35.556-3.605,52.721c-1.55,12.592-3.29,25.168-5.266,37.701
					c-0.14,0.891,0.384,1.974,1.446,1.899c19.774-1.4,39.548-2.8,59.322-4.2c1.72-0.122,2.003-2.363,0.399-2.946
					c-3.85-1.4-7.7-2.8-11.549-4.2c0.349,0.615,0.698,1.23,1.048,1.845c8.757-29.149,7.468-63.206-2.1-92.143
					C996.141,245.289,993.244,246.072,993.853,247.914L993.853,247.914z"/>
			</g>
		</g>
		<g>
			<line fill="none" x1="979.55" y1="302.638" x2="975.35" y2="344.636"/>
			<g>
				<path d="M978.05,302.638c-1.4,13.999-2.8,27.999-4.2,41.998c-0.192,1.925,2.809,1.906,3,0c1.4-13.999,2.8-27.999,4.2-41.998
					C981.243,300.713,978.241,300.732,978.05,302.638L978.05,302.638z"/>
			</g>
		</g>
		<g>
			<line fill="none" x1="1008.949" y1="286.889" x2="1002.649" y2="294.763"/>
			<g>
				<path d="M1007.888,285.828c-2.1,2.625-4.2,5.25-6.3,7.875c-1.196,1.495,0.913,3.632,2.121,2.121c2.1-2.625,4.2-5.25,6.3-7.875
					C1011.205,286.455,1009.097,284.317,1007.888,285.828L1007.888,285.828z"/>
			</g>
		</g>
		<g>
			<g>
				<path d="M998.217,262.46c1.919,1.218,3.609,2.787,5.104,4.488c4.049,4.605,2.808,9.362-1.954,12.871
					c-1.539,1.134-0.046,3.74,1.514,2.59c4.948-3.646,7.605-8.431,4.806-14.331c-1.595-3.362-4.852-6.239-7.955-8.209
					C998.093,258.83,996.589,261.427,998.217,262.46L998.217,262.46z"/>
			</g>
		</g>
		<g>
			<g>
				<path d="M968.654,217.991c3.884,10.78,17.089,13.754,27.17,13.176c1.923-0.11,1.934-3.111,0-3
					c-8.605,0.494-20.935-1.696-24.277-10.973C970.896,215.387,967.997,216.166,968.654,217.991L968.654,217.991z"/>
			</g>
		</g>
		<g>
			<ellipse fill="#FFFFFF" cx="985.462" cy="215.396" rx="0.166" ry="0.222"/>
			<g>
				<path d="M984.182,214.997c0.023-0.056,0.046-0.111,0.069-0.167c0.299-0.23,0.598-0.46,0.896-0.689
					c-0.028,0.01-0.056,0.02-0.084,0.03c0.266,0,0.532,0,0.798,0c-0.028-0.01-0.056-0.02-0.084-0.03
					c0.299,0.23,0.598,0.46,0.896,0.689c0.023,0.056,0.046,0.111,0.069,0.167c0,0.266,0,0.532,0,0.798
					c-0.023,0.056-0.046,0.111-0.069,0.167c-0.299,0.23-0.598,0.46-0.896,0.689c0.028-0.01,0.056-0.02,0.084-0.03
					c-0.266,0-0.532,0-0.798,0c0.028,0.01,0.056,0.02,0.084,0.03c-0.299-0.23-0.598-0.46-0.896-0.689
					c-0.023-0.056-0.046-0.111-0.069-0.167c0.163,0.802,1.098,1.253,1.845,1.048c0.828-0.228,1.21-1.045,1.048-1.845
					c-0.151-0.746-0.847-1.323-1.613-1.323c-0.926,0-1.667,0.815-1.667,1.722c0,0.816,0.53,1.402,1.268,1.668
					c0.869,0.313,1.843-0.436,2.012-1.27c0.162-0.801-0.22-1.617-1.048-1.845C985.281,213.744,984.345,214.195,984.182,214.997z"/>
			</g>
		</g>
	</g>
	<g>
		<g>
			<path d="M931.028,306.703c4.025-0.337,8.205-3.024,11.61-4.911c1.692-0.938,0.179-3.529-1.514-2.59
				c-2.617,1.451-5.279,2.863-8.093,3.895c-0.552,0.202-1.115,0.377-1.685,0.523c-0.244,0.062-0.894,0.132-0.318,0.084
				C929.114,303.863,929.099,306.864,931.028,306.703L931.028,306.703z"/>
		</g>
	</g>
</g>
<g>
	<ellipse fill="#FFFFFF" cx="990.489" cy="263.237" rx="0.166" ry="0.222"/>
	<g>
		<path d="M989.209,262.838c0.023-0.056,0.046-0.111,0.069-0.167c0.299-0.23,0.598-0.46,0.896-0.689
			c-0.028,0.01-0.056,0.02-0.084,0.03c0.266,0,0.532,0,0.797,0c-0.028-0.01-0.056-0.02-0.084-0.03
			c0.299,0.23,0.598,0.46,0.896,0.689c0.023,0.056,0.046,0.111,0.069,0.167c0,0.266,0,0.532,0,0.798
			c-0.023,0.056-0.046,0.111-0.069,0.167c-0.299,0.23-0.598,0.46-0.896,0.689c0.028-0.01,0.056-0.02,0.084-0.03
			c-0.266,0-0.532,0-0.797,0c0.028,0.01,0.056,0.02,0.084,0.03c-0.299-0.23-0.598-0.46-0.896-0.689
			c-0.023-0.056-0.046-0.111-0.069-0.167c0.163,0.802,1.098,1.253,1.845,1.048c0.828-0.228,1.21-1.045,1.048-1.845
			c-0.151-0.746-0.847-1.323-1.613-1.323c-0.926,0-1.667,0.815-1.667,1.722c0,0.816,0.53,1.403,1.268,1.668
			c0.869,0.313,1.843-0.436,2.012-1.27c0.162-0.801-0.22-1.617-1.048-1.845C990.307,261.585,989.371,262.036,989.209,262.838z"/>
	</g>
</g>
<g>
	<ellipse fill="#FFFFFF" cx="971.43" cy="263.681" rx="0.166" ry="0.222"/>
	<g>
		<path d="M970.15,263.282c0.023-0.056,0.046-0.111,0.069-0.167c0.299-0.23,0.598-0.46,0.896-0.689
			c-0.028,0.01-0.056,0.02-0.084,0.03c0.266,0,0.532,0,0.797,0c-0.028-0.01-0.056-0.02-0.084-0.03
			c0.299,0.23,0.598,0.46,0.896,0.689c0.023,0.056,0.046,0.111,0.069,0.167c0,0.266,0,0.532,0,0.798
			c-0.023,0.056-0.046,0.111-0.069,0.167c-0.299,0.23-0.598,0.46-0.896,0.689c0.028-0.01,0.056-0.02,0.084-0.03
			c-0.266,0-0.532,0-0.797,0c0.028,0.01,0.056,0.02,0.084,0.03c-0.299-0.23-0.598-0.46-0.896-0.689
			c-0.023-0.056-0.046-0.111-0.069-0.167c0.163,0.802,1.098,1.253,1.845,1.048c0.828-0.228,1.21-1.045,1.048-1.845
			c-0.151-0.746-0.847-1.323-1.613-1.323c-0.926,0-1.667,0.815-1.667,1.722c0,0.816,0.531,1.402,1.268,1.668
			c0.869,0.313,1.843-0.436,2.012-1.27c0.162-0.801-0.22-1.617-1.048-1.845C971.248,262.029,970.313,262.48,970.15,263.282z"/>
	</g>
</g>
<g>
	<g>
		<g>
			<path fill="#FFFFFF" d="M685.08,433.317c0,0,15.697-0.682,9.555-14.332c-3.047-6.77-7.127-17.416-2.73-27.981
				c4.397-10.565,12.836-18.584,27.273-15.172c0,0-9.539-18.438-7.875-30.449c1.027-7.412,10.514-15.253,21.524-12.599
				c6.658,1.605,15.224,5.775,25.724,17.849l-5.25,2.625l-1.05,20.474c0,0,18.728,8.312,23.099,22.049
				c3.675,11.549,3.854,19.486-11.025,37.798"/>
			<g>
				<path d="M685.08,434.817c8.554-0.453,14.429-6.298,11.514-14.989c-1.387-4.135-3.317-7.938-4.353-12.218
					c-1.619-6.686-0.54-13.217,2.576-19.264c4.842-9.394,13.753-13.216,23.961-11.067c1.311,0.276,2.31-1.002,1.694-2.203
					c-4.659-9.085-11.692-24.503-5.796-34.154c5.042-8.253,15.586-8.158,23.435-4.773c7.688,3.316,13.908,9.373,19.378,15.546
					c0.101-0.785,0.202-1.571,0.304-2.356c-1.75,0.875-3.5,1.75-5.25,2.625c-0.481,0.241-0.717,0.787-0.743,1.295
					c-0.35,6.825-0.7,13.649-1.05,20.474c-0.024,0.478,0.293,1.093,0.743,1.295c9.213,4.145,18.965,11.348,22.41,21.153
					c4.995,14.217-1.794,25.315-10.639,36.339c-1.198,1.493,0.911,3.63,2.121,2.121c6.844-8.53,14.175-18.257,13.469-29.771
					c-0.641-10.461-6.228-18.955-14.279-25.311c-3.128-2.47-6.542-4.583-10.083-6.403c-2.018-1.037-0.687-0.481-0.729,0.332
					c0.082-1.591,0.163-3.182,0.245-4.772c0.219-4.266,0.437-8.531,0.656-12.797c0.03-0.575,0.059-1.15,0.089-1.726
					c0.08-1.566,0.244-0.109-0.515,0.271c1.69-0.845,3.38-1.69,5.07-2.535c0.911-0.456,0.906-1.676,0.304-2.356
					c-10.622-11.986-29.552-26.893-44.896-13.303c-11.078,9.812-2.307,29.647,3.167,40.32c0.565-0.734,1.129-1.469,1.694-2.203
					c-7.05-1.484-14.533-1.016-20.303,3.76c-6.445,5.335-10.171,13.325-10.774,21.597c-0.324,4.437,0.784,9,2.115,13.188
					c1.309,4.118,4.037,8.016,3.92,12.447c-0.117,4.42-5.821,6.248-9.454,6.441C683.156,431.919,683.146,434.92,685.08,434.817
					L685.08,434.817z"/>
			</g>
		</g>
		<g>
			<path fill="#FFFFFF" d="M750.676,382.657c0,0,15.749,47.248,2.1,91.346l11.549,4.2l-59.322,4.2c0,0,11.024-69.822,8.925-90.821
				c0,0-10.946-0.052-10.421,13.072c0.525,13.124,21.011,34.097-15.014,42.313"/>
			<g>
				<path d="M749.229,383.056c9.407,28.451,10.71,61.891,2.1,90.548c-0.249,0.83,0.294,1.571,1.048,1.845
					c3.85,1.4,7.7,2.8,11.549,4.2c0.133-0.982,0.266-1.964,0.399-2.946c-19.774,1.4-39.548,2.8-59.322,4.2
					c0.482,0.633,0.964,1.266,1.446,1.899c1.959-12.425,3.67-24.892,5.233-37.372c2.194-17.514,5.376-36.158,3.745-53.847
					c-0.074-0.807-0.626-1.51-1.5-1.5c-12.569,0.138-12.989,14.267-9.923,23.182c1.896,5.514,4.457,11.044,4.247,16.997
					c-0.348,9.888-12.383,13.396-20.158,15.259c-1.881,0.451-1.083,3.343,0.798,2.893c7.46-1.787,15.655-4.373,20.169-11.039
					c3.007-4.442,2.436-10.167,1.17-15.075c-1.409-5.461-4.072-10.546-5.074-16.118c-1.076-5.982,2.006-13.025,8.772-13.099
					c-0.5-0.5-1-1-1.5-1.5c1.598,17.331-1.492,35.556-3.605,52.721c-1.55,12.592-3.29,25.168-5.266,37.701
					c-0.14,0.891,0.384,1.974,1.446,1.899c19.774-1.4,39.548-2.8,59.322-4.2c1.72-0.122,2.003-2.363,0.399-2.946
					c-3.85-1.4-7.7-2.8-11.549-4.2c0.349,0.615,0.698,1.23,1.048,1.845c8.757-29.149,7.468-63.206-2.1-92.143
					C751.518,380.431,748.62,381.214,749.229,383.056L749.229,383.056z"/>
			</g>
		</g>
		<g>
			<line fill="none" x1="734.926" y1="437.78" x2="730.726" y2="479.778"/>
			<g>
				<path d="M733.426,437.78c-1.4,13.999-2.8,27.999-4.2,41.998c-0.192,1.925,2.809,1.906,3,0c1.4-13.999,2.8-27.999,4.2-41.998
					C736.619,435.855,733.617,435.874,733.426,437.78L733.426,437.78z"/>
			</g>
		</g>
		<g>
			<line fill="none" x1="764.325" y1="422.03" x2="758.025" y2="429.905"/>
			<g>
				<path d="M763.264,420.97c-2.1,2.625-4.2,5.25-6.3,7.875c-1.196,1.495,0.913,3.632,2.121,2.121c2.1-2.625,4.2-5.25,6.3-7.875
					C766.581,421.597,764.473,419.459,763.264,420.97L763.264,420.97z"/>
			</g>
		</g>
		<g>
			<g>
				<path d="M753.593,397.602c1.919,1.218,3.609,2.787,5.104,4.488c4.049,4.605,2.808,9.362-1.954,12.871
					c-1.539,1.134-0.046,3.74,1.514,2.59c4.948-3.646,7.605-8.431,4.806-14.331c-1.595-3.362-4.852-6.239-7.955-8.209
					C753.469,393.971,751.965,396.569,753.593,397.602L753.593,397.602z"/>
			</g>
		</g>
		<g>
			<g>
				<path d="M724.03,353.132c3.884,10.78,17.089,13.754,27.17,13.176c1.923-0.11,1.934-3.111,0-3
					c-8.605,0.494-20.935-1.696-24.277-10.973C726.273,350.529,723.373,351.308,724.03,353.132L724.03,353.132z"/>
			</g>
		</g>
		<g>
			<ellipse fill="#FFFFFF" cx="740.839" cy="350.537" rx="0.166" ry="0.222"/>
			<g>
				<path d="M739.559,350.139c0.023-0.056,0.046-0.111,0.069-0.167c0.299-0.23,0.598-0.46,0.896-0.689
					c-0.028,0.01-0.056,0.02-0.084,0.03c0.266,0,0.532,0,0.798,0c-0.028-0.01-0.056-0.02-0.084-0.03
					c0.299,0.23,0.598,0.46,0.896,0.689c0.023,0.056,0.046,0.111,0.069,0.167c0,0.266,0,0.532,0,0.798
					c-0.023,0.056-0.046,0.111-0.069,0.167c-0.299,0.23-0.598,0.46-0.896,0.689c0.028-0.01,0.056-0.02,0.084-0.03
					c-0.266,0-0.532,0-0.798,0c0.028,0.01,0.056,0.02,0.084,0.03c-0.299-0.23-0.598-0.46-0.896-0.689
					c-0.023-0.056-0.046-0.111-0.069-0.167c0.163,0.802,1.098,1.253,1.845,1.048c0.828-0.228,1.21-1.045,1.048-1.845
					c-0.151-0.746-0.847-1.323-1.613-1.323c-0.926,0-1.667,0.815-1.667,1.722c0,0.816,0.53,1.402,1.268,1.668
					c0.869,0.313,1.843-0.436,2.012-1.27c0.162-0.801-0.22-1.617-1.048-1.845C740.657,348.886,739.721,349.337,739.559,350.139z"/>
			</g>
		</g>
	</g>
	<g>
		<g>
			<path d="M686.404,441.844c4.025-0.337,8.205-3.024,11.61-4.911c1.692-0.938,0.179-3.529-1.514-2.59
				c-2.617,1.451-5.279,2.863-8.093,3.895c-0.552,0.202-1.115,0.377-1.685,0.523c-0.244,0.062-0.894,0.132-0.318,0.084
				C684.491,439.004,684.475,442.006,686.404,441.844L686.404,441.844z"/>
		</g>
	</g>
</g>
<g>
	<ellipse fill="#FFFFFF" cx="745.865" cy="398.378" rx="0.166" ry="0.222"/>
	<g>
		<path d="M744.585,397.98c0.023-0.056,0.046-0.111,0.069-0.167c0.299-0.23,0.598-0.46,0.896-0.689
			c-0.028,0.01-0.056,0.02-0.084,0.03c0.266,0,0.532,0,0.797,0c-0.028-0.01-0.056-0.02-0.084-0.03
			c0.299,0.23,0.598,0.46,0.896,0.689c0.023,0.056,0.046,0.111,0.069,0.167c0,0.266,0,0.532,0,0.798
			c-0.023,0.056-0.046,0.111-0.069,0.167c-0.299,0.23-0.598,0.46-0.896,0.689c0.028-0.01,0.056-0.02,0.084-0.03
			c-0.266,0-0.532,0-0.797,0c0.028,0.01,0.056,0.02,0.084,0.03c-0.299-0.23-0.598-0.46-0.896-0.689
			c-0.023-0.056-0.046-0.111-0.069-0.167c0.163,0.802,1.098,1.253,1.845,1.048c0.828-0.228,1.21-1.045,1.048-1.845
			c-0.151-0.746-0.847-1.323-1.613-1.323c-0.926,0-1.667,0.815-1.667,1.722c0,0.816,0.53,1.403,1.268,1.668
			c0.869,0.313,1.843-0.436,2.012-1.27c0.162-0.801-0.22-1.617-1.048-1.845C745.683,396.727,744.747,397.178,744.585,397.98z"/>
	</g>
</g>
<g>
	<ellipse fill="#FFFFFF" cx="726.806" cy="398.822" rx="0.166" ry="0.222"/>
	<g>
		<path d="M725.526,398.424c0.023-0.056,0.046-0.111,0.069-0.167c0.299-0.23,0.598-0.46,0.896-0.689
			c-0.028,0.01-0.056,0.02-0.084,0.03c0.266,0,0.532,0,0.797,0c-0.028-0.01-0.056-0.02-0.084-0.03
			c0.299,0.23,0.598,0.46,0.896,0.689c0.023,0.056,0.046,0.111,0.069,0.167c0,0.266,0,0.532,0,0.798
			c-0.023,0.056-0.046,0.111-0.069,0.167c-0.299,0.23-0.598,0.46-0.896,0.689c0.028-0.01,0.056-0.02,0.084-0.03
			c-0.266,0-0.532,0-0.797,0c0.028,0.01,0.056,0.02,0.084,0.03c-0.299-0.23-0.598-0.46-0.896-0.689
			c-0.023-0.056-0.046-0.111-0.069-0.167c0.163,0.802,1.098,1.253,1.845,1.048c0.828-0.228,1.21-1.045,1.048-1.845
			c-0.151-0.746-0.847-1.323-1.613-1.323c-0.926,0-1.667,0.815-1.667,1.722c0,0.816,0.531,1.402,1.268,1.668
			c0.869,0.313,1.843-0.436,2.012-1.27c0.162-0.801-0.22-1.617-1.048-1.845C726.625,397.171,725.689,397.622,725.526,398.424z"/>
	</g>
</g>
<g>
	<g>
		<g>
			<path fill="#FFFFFF" d="M947.136,490.999c0,0,15.697-0.682,9.555-14.332c-3.047-6.77-7.127-17.416-2.73-27.981
				s12.836-18.584,27.273-15.172c0,0-9.539-18.438-7.875-30.449c1.027-7.412,10.514-15.253,21.524-12.599
				c6.658,1.605,15.224,5.775,25.724,17.849l-5.25,2.625l-1.05,20.474c0,0,18.728,8.312,23.099,22.049
				c3.675,11.549,3.854,19.486-11.025,37.798"/>
			<g>
				<path d="M947.136,492.499c8.554-0.453,14.429-6.298,11.514-14.989c-1.387-4.135-3.317-7.938-4.353-12.218
					c-1.619-6.686-0.54-13.217,2.576-19.264c4.842-9.394,13.753-13.216,23.961-11.067c1.311,0.276,2.31-1.002,1.694-2.203
					c-4.659-9.085-11.692-24.503-5.796-34.154c5.042-8.253,15.586-8.158,23.435-4.773c7.688,3.316,13.908,9.373,19.378,15.546
					c0.101-0.785,0.202-1.571,0.304-2.356c-1.75,0.875-3.5,1.75-5.25,2.625c-0.481,0.241-0.717,0.787-0.743,1.295
					c-0.35,6.825-0.7,13.649-1.05,20.474c-0.025,0.478,0.293,1.093,0.743,1.295c9.213,4.145,18.965,11.348,22.41,21.153
					c4.995,14.217-1.794,25.315-10.639,36.339c-1.198,1.493,0.911,3.63,2.121,2.121c6.844-8.53,14.175-18.257,13.469-29.771
					c-0.641-10.461-6.228-18.955-14.279-25.311c-3.128-2.47-6.542-4.583-10.083-6.403c-2.018-1.037-0.687-0.481-0.729,0.332
					c0.082-1.591,0.163-3.182,0.245-4.772c0.219-4.266,0.438-8.531,0.656-12.797c0.029-0.575,0.059-1.15,0.089-1.726
					c0.08-1.566,0.244-0.109-0.515,0.271c1.69-0.845,3.38-1.69,5.07-2.535c0.911-0.456,0.906-1.676,0.304-2.356
					c-10.622-11.986-29.552-26.893-44.896-13.303c-11.078,9.812-2.307,29.647,3.167,40.32c0.565-0.734,1.129-1.469,1.694-2.204
					c-7.05-1.484-14.533-1.016-20.303,3.76c-6.445,5.335-10.171,13.325-10.774,21.597c-0.323,4.437,0.784,9,2.115,13.188
					c1.309,4.118,4.037,8.016,3.92,12.447c-0.117,4.42-5.821,6.248-9.454,6.441C945.212,489.601,945.202,492.602,947.136,492.499
					L947.136,492.499z"/>
			</g>
		</g>
		<g>
			<path fill="#FFFFFF" d="M1012.732,440.339c0,0,15.749,47.248,2.1,91.346l11.549,4.2l-59.322,4.2c0,0,11.025-69.822,8.925-90.821
				c0,0-10.946-0.053-10.421,13.072s21.011,34.097-15.014,42.313"/>
			<g>
				<path d="M1011.286,440.738c9.407,28.451,10.709,61.891,2.1,90.548c-0.249,0.83,0.294,1.571,1.048,1.845
					c3.85,1.4,7.7,2.8,11.549,4.2c0.133-0.982,0.266-1.964,0.399-2.946c-19.774,1.4-39.548,2.8-59.322,4.2
					c0.482,0.633,0.964,1.266,1.446,1.899c1.959-12.425,3.67-24.892,5.233-37.372c2.194-17.514,5.376-36.158,3.745-53.847
					c-0.074-0.807-0.626-1.51-1.5-1.5c-12.569,0.138-12.989,14.267-9.923,23.182c1.896,5.514,4.457,11.044,4.247,16.997
					c-0.348,9.888-12.383,13.396-20.158,15.259c-1.881,0.451-1.083,3.343,0.797,2.893c7.46-1.787,15.655-4.373,20.169-11.039
					c3.007-4.442,2.436-10.167,1.17-15.075c-1.409-5.46-4.072-10.546-5.074-16.118c-1.076-5.982,2.006-13.025,8.772-13.099
					c-0.5-0.5-1-1-1.5-1.5c1.598,17.331-1.492,35.556-3.605,52.721c-1.55,12.592-3.29,25.168-5.266,37.701
					c-0.14,0.891,0.384,1.974,1.446,1.899c19.774-1.4,39.548-2.8,59.322-4.2c1.72-0.122,2.003-2.363,0.399-2.946
					c-3.85-1.4-7.7-2.8-11.549-4.2c0.349,0.615,0.698,1.23,1.048,1.845c8.757-29.149,7.468-63.206-2.1-92.143
					C1013.574,438.113,1010.677,438.896,1011.286,440.738L1011.286,440.738z"/>
			</g>
		</g>
		<g>
			<line fill="none" x1="996.983" y1="495.462" x2="992.783" y2="537.46"/>
			<g>
				<path d="M995.483,495.462c-1.4,13.999-2.8,27.999-4.2,41.998c-0.192,1.925,2.809,1.906,3,0c1.4-13.999,2.8-27.999,4.2-41.998
					C998.675,493.537,995.674,493.555,995.483,495.462L995.483,495.462z"/>
			</g>
		</g>
		<g>
			<line fill="none" x1="1026.382" y1="479.712" x2="1020.082" y2="487.587"/>
			<g>
				<path d="M1025.321,478.652c-2.1,2.625-4.2,5.25-6.3,7.875c-1.196,1.495,0.913,3.632,2.121,2.121c2.1-2.625,4.2-5.25,6.3-7.875
					C1028.638,479.278,1026.53,477.141,1025.321,478.652L1025.321,478.652z"/>
			</g>
		</g>
		<g>
			<g>
				<path d="M1015.65,455.284c1.919,1.218,3.609,2.786,5.104,4.488c4.049,4.605,2.808,9.362-1.954,12.871
					c-1.54,1.134-0.046,3.74,1.514,2.59c4.948-3.646,7.605-8.431,4.806-14.331c-1.595-3.362-4.852-6.239-7.955-8.209
					C1015.526,451.653,1014.022,454.25,1015.65,455.284L1015.65,455.284z"/>
			</g>
		</g>
		<g>
			<g>
				<path d="M986.087,410.814c3.884,10.78,17.089,13.754,27.17,13.176c1.923-0.11,1.934-3.111,0-3
					c-8.605,0.494-20.935-1.696-24.277-10.973C988.329,408.211,985.43,408.99,986.087,410.814L986.087,410.814z"/>
			</g>
		</g>
		<g>
			<ellipse fill="#FFFFFF" cx="1002.895" cy="408.219" rx="0.166" ry="0.222"/>
			<g>
				<path d="M1001.615,407.82c0.023-0.056,0.046-0.111,0.069-0.167c0.299-0.23,0.598-0.46,0.896-0.689
					c-0.028,0.01-0.056,0.02-0.084,0.03c0.266,0,0.532,0,0.798,0c-0.028-0.01-0.056-0.02-0.084-0.03
					c0.299,0.23,0.598,0.46,0.896,0.689c0.023,0.056,0.046,0.111,0.069,0.167c0,0.266,0,0.532,0,0.798
					c-0.023,0.056-0.046,0.111-0.069,0.167c-0.299,0.23-0.598,0.46-0.896,0.689c0.028-0.01,0.056-0.02,0.084-0.03
					c-0.266,0-0.532,0-0.798,0c0.028,0.01,0.056,0.02,0.084,0.03c-0.299-0.23-0.598-0.46-0.896-0.689
					c-0.023-0.056-0.046-0.111-0.069-0.167c0.163,0.802,1.098,1.253,1.845,1.048c0.828-0.228,1.21-1.045,1.048-1.845
					c-0.151-0.746-0.847-1.323-1.613-1.323c-0.926,0-1.666,0.815-1.666,1.722c0,0.816,0.53,1.402,1.268,1.668
					c0.869,0.313,1.843-0.436,2.012-1.27c0.162-0.801-0.22-1.617-1.048-1.845C1002.714,406.567,1001.778,407.019,1001.615,407.82z"
					/>
			</g>
		</g>
	</g>
	<g>
		<g>
			<path d="M948.461,499.526c4.025-0.337,8.205-3.024,11.61-4.911c1.692-0.938,0.179-3.529-1.514-2.59
				c-2.617,1.451-5.279,2.863-8.093,3.895c-0.552,0.202-1.115,0.377-1.685,0.523c-0.244,0.062-0.894,0.132-0.318,0.084
				C946.547,496.686,946.532,499.688,948.461,499.526L948.461,499.526z"/>
		</g>
	</g>
</g>
<g>
	<ellipse fill="#FFFFFF" cx="1008.34" cy="458.378" rx="0.166" ry="0.222"/>
	<g>
		<path d="M1007.06,457.979c0.023-0.056,0.046-0.111,0.069-0.167c0.299-0.23,0.598-0.46,0.896-0.689
			c-0.028,0.01-0.056,0.02-0.084,0.03c0.266,0,0.532,0,0.798,0c-0.028-0.01-0.056-0.02-0.084-0.03
			c0.299,0.23,0.598,0.46,0.896,0.689c0.023,0.056,0.046,0.111,0.069,0.167c0,0.266,0,0.532,0,0.798
			c-0.023,0.056-0.046,0.111-0.069,0.167c-0.299,0.23-0.598,0.46-0.896,0.689c0.028-0.01,0.056-0.02,0.084-0.03
			c-0.266,0-0.532,0-0.798,0c0.028,0.01,0.056,0.02,0.084,0.03c-0.299-0.23-0.598-0.46-0.896-0.689
			c-0.023-0.056-0.046-0.111-0.069-0.167c0.163,0.802,1.098,1.253,1.845,1.048c0.828-0.228,1.21-1.045,1.048-1.845
			c-0.151-0.746-0.847-1.323-1.613-1.323c-0.926,0-1.667,0.815-1.667,1.722c0,0.816,0.53,1.402,1.268,1.668
			c0.869,0.313,1.843-0.436,2.012-1.27c0.162-0.801-0.22-1.617-1.048-1.845C1008.158,456.726,1007.222,457.178,1007.06,457.979z"/>
	</g>
</g>
<g>
	<ellipse fill="#FFFFFF" cx="988.79" cy="459.128" rx="0.166" ry="0.222"/>
	<g>
		<path d="M987.51,458.729c0.023-0.056,0.046-0.111,0.069-0.167c0.299-0.23,0.598-0.46,0.896-0.689
			c-0.028,0.01-0.056,0.02-0.084,0.03c0.266,0,0.532,0,0.798,0c-0.028-0.01-0.056-0.02-0.084-0.03
			c0.299,0.23,0.598,0.46,0.896,0.689c0.023,0.056,0.046,0.111,0.069,0.167c0,0.266,0,0.532,0,0.798
			c-0.023,0.056-0.046,0.111-0.069,0.167c-0.299,0.23-0.598,0.46-0.896,0.689c0.028-0.01,0.056-0.02,0.084-0.03
			c-0.266,0-0.532,0-0.798,0c0.028,0.01,0.056,0.02,0.084,0.03c-0.299-0.23-0.598-0.46-0.896-0.689
			c-0.023-0.056-0.046-0.111-0.069-0.167c0.163,0.802,1.098,1.253,1.845,1.048c0.828-0.228,1.21-1.045,1.048-1.845
			c-0.151-0.746-0.847-1.323-1.613-1.323c-0.926,0-1.667,0.815-1.667,1.722c0,0.816,0.53,1.402,1.268,1.668
			c0.869,0.313,1.843-0.436,2.012-1.27c0.162-0.801-0.22-1.617-1.048-1.845C988.608,457.476,987.672,457.927,987.51,458.729z"/>
	</g>
</g>
<g>
	<g>
		<g>
			<path fill="#FFFFFF" d="M825.354,481.216c0,0,15.697-0.682,9.555-14.332c-3.047-6.77-7.127-17.416-2.73-27.981
				c4.397-10.565,12.836-18.584,27.273-15.172c0,0-9.539-18.438-7.875-30.449c1.027-7.412,10.514-15.253,21.524-12.599
				c6.658,1.605,15.224,5.775,25.724,17.849l-5.25,2.625l-1.05,20.474c0,0,18.728,8.312,23.099,22.049
				c3.675,11.549,3.854,19.486-11.024,37.798"/>
			<g>
				<path d="M825.354,482.716c8.554-0.453,14.429-6.298,11.514-14.989c-1.387-4.135-3.317-7.938-4.353-12.218
					c-1.619-6.686-0.54-13.217,2.576-19.264c4.842-9.394,13.753-13.216,23.961-11.067c1.311,0.276,2.31-1.002,1.694-2.203
					c-4.659-9.085-11.692-24.503-5.796-34.154c5.042-8.253,15.586-8.158,23.435-4.773c7.688,3.316,13.908,9.373,19.378,15.546
					c0.101-0.785,0.202-1.571,0.304-2.356c-1.75,0.875-3.5,1.75-5.25,2.625c-0.481,0.241-0.717,0.787-0.743,1.295
					c-0.35,6.825-0.7,13.649-1.05,20.474c-0.025,0.478,0.293,1.093,0.743,1.295c9.213,4.145,18.964,11.348,22.41,21.153
					c4.996,14.217-1.794,25.315-10.639,36.339c-1.198,1.493,0.911,3.63,2.121,2.121c6.844-8.53,14.175-18.257,13.469-29.771
					c-0.641-10.461-6.228-18.955-14.279-25.311c-3.128-2.47-6.542-4.583-10.083-6.403c-2.018-1.037-0.687-0.481-0.729,0.332
					c0.082-1.591,0.163-3.182,0.245-4.772c0.219-4.266,0.438-8.531,0.656-12.797c0.029-0.575,0.059-1.15,0.089-1.726
					c0.08-1.566,0.244-0.109-0.515,0.271c1.69-0.845,3.38-1.69,5.07-2.535c0.911-0.456,0.906-1.676,0.304-2.356
					c-10.622-11.986-29.552-26.893-44.896-13.303c-11.078,9.812-2.307,29.647,3.167,40.32c0.565-0.734,1.129-1.469,1.694-2.203
					c-7.05-1.484-14.533-1.016-20.303,3.76c-6.445,5.335-10.171,13.325-10.774,21.597c-0.323,4.437,0.784,9,2.115,13.188
					c1.309,4.118,4.037,8.016,3.92,12.447c-0.117,4.42-5.821,6.248-9.454,6.441C823.429,479.818,823.419,482.818,825.354,482.716
					L825.354,482.716z"/>
			</g>
		</g>
		<g>
			<path fill="#FFFFFF" d="M890.949,430.556c0,0,15.749,47.248,2.1,91.346l11.549,4.2l-59.322,4.2c0,0,11.025-69.822,8.925-90.821
				c0,0-10.946-0.052-10.421,13.072c0.525,13.124,21.011,34.097-15.014,42.313"/>
			<g>
				<path d="M889.503,430.954c9.407,28.451,10.709,61.891,2.1,90.548c-0.249,0.83,0.294,1.571,1.048,1.845
					c3.85,1.4,7.7,2.8,11.549,4.2c0.133-0.982,0.266-1.964,0.399-2.946c-19.774,1.4-39.548,2.8-59.322,4.2
					c0.482,0.633,0.964,1.266,1.446,1.899c1.959-12.425,3.67-24.892,5.233-37.372c2.194-17.514,5.376-36.158,3.745-53.847
					c-0.074-0.807-0.626-1.51-1.5-1.5c-12.569,0.138-12.989,14.267-9.923,23.182c1.896,5.514,4.457,11.044,4.247,16.997
					c-0.348,9.888-12.383,13.396-20.158,15.259c-1.881,0.451-1.083,3.343,0.797,2.893c7.46-1.787,15.655-4.373,20.169-11.039
					c3.007-4.442,2.436-10.167,1.17-15.075c-1.409-5.461-4.072-10.546-5.074-16.118c-1.076-5.982,2.006-13.025,8.772-13.099
					c-0.5-0.5-1-1-1.5-1.5c1.598,17.331-1.492,35.556-3.605,52.721c-1.55,12.592-3.29,25.168-5.266,37.701
					c-0.14,0.891,0.384,1.974,1.446,1.899c19.774-1.4,39.548-2.8,59.322-4.2c1.72-0.122,2.003-2.363,0.399-2.946
					c-3.85-1.4-7.7-2.8-11.549-4.2c0.349,0.615,0.698,1.23,1.048,1.845c8.757-29.149,7.468-63.206-2.1-92.143
					C891.791,428.329,888.894,429.112,889.503,430.954L889.503,430.954z"/>
			</g>
		</g>
		<g>
			<line fill="none" x1="875.2" y1="485.678" x2="871" y2="527.676"/>
			<g>
				<path d="M873.7,485.678c-1.4,13.999-2.8,27.999-4.2,41.998c-0.193,1.925,2.809,1.906,3,0c1.4-13.999,2.8-27.999,4.2-41.998
					C876.893,483.753,873.891,483.772,873.7,485.678L873.7,485.678z"/>
			</g>
		</g>
		<g>
			<line fill="none" x1="904.599" y1="469.929" x2="898.299" y2="477.803"/>
			<g>
				<path d="M903.538,468.868c-2.1,2.625-4.2,5.25-6.3,7.875c-1.196,1.495,0.913,3.632,2.121,2.121c2.1-2.625,4.2-5.25,6.3-7.875
					C906.855,469.495,904.747,467.357,903.538,468.868L903.538,468.868z"/>
			</g>
		</g>
		<g>
			<g>
				<path d="M893.867,445.5c1.919,1.218,3.609,2.787,5.104,4.488c4.049,4.605,2.808,9.362-1.954,12.871
					c-1.54,1.134-0.046,3.74,1.514,2.59c4.948-3.646,7.605-8.431,4.806-14.331c-1.595-3.362-4.852-6.239-7.955-8.209
					C893.743,441.87,892.239,444.467,893.867,445.5L893.867,445.5z"/>
			</g>
		</g>
		<g>
			<g>
				<path d="M864.304,401.031c3.884,10.78,17.089,13.754,27.17,13.176c1.923-0.11,1.934-3.111,0-3
					c-8.605,0.494-20.935-1.696-24.277-10.973C866.546,398.427,863.647,399.206,864.304,401.031L864.304,401.031z"/>
			</g>
		</g>
		<g>
			<ellipse fill="#FFFFFF" cx="881.112" cy="398.436" rx="0.166" ry="0.222"/>
			<g>
				<path d="M879.833,398.037c0.023-0.056,0.046-0.111,0.069-0.167c0.299-0.23,0.598-0.46,0.896-0.689
					c-0.028,0.01-0.056,0.02-0.084,0.03c0.266,0,0.532,0,0.798,0c-0.028-0.01-0.056-0.02-0.084-0.03
					c0.299,0.23,0.598,0.46,0.896,0.689c0.023,0.056,0.046,0.111,0.069,0.167c0,0.266,0,0.532,0,0.798
					c-0.023,0.056-0.046,0.111-0.069,0.167c-0.299,0.23-0.598,0.46-0.896,0.689c0.028-0.01,0.056-0.02,0.084-0.03
					c-0.266,0-0.532,0-0.798,0c0.028,0.01,0.056,0.02,0.084,0.03c-0.299-0.23-0.598-0.46-0.896-0.689
					c-0.023-0.056-0.046-0.111-0.069-0.167c0.163,0.802,1.098,1.253,1.845,1.048c0.828-0.228,1.21-1.045,1.048-1.845
					c-0.151-0.746-0.847-1.323-1.613-1.323c-0.926,0-1.667,0.815-1.667,1.722c0,0.816,0.531,1.402,1.268,1.668
					c0.869,0.313,1.843-0.436,2.012-1.27c0.162-0.801-0.22-1.617-1.048-1.845C880.931,396.784,879.995,397.235,879.833,398.037z"/>
			</g>
		</g>
	</g>
	<g>
		<g>
			<path d="M826.678,489.743c4.025-0.337,8.205-3.024,11.61-4.911c1.692-0.938,0.179-3.529-1.514-2.59
				c-2.617,1.451-5.279,2.863-8.093,3.895c-0.552,0.202-1.115,0.377-1.685,0.523c-0.244,0.062-0.894,0.132-0.318,0.084
				C824.764,486.903,824.749,489.904,826.678,489.743L826.678,489.743z"/>
		</g>
	</g>
</g>
<g>
	<ellipse fill="#FFFFFF" cx="886.139" cy="446.277" rx="0.166" ry="0.222"/>
	<g>
		<path d="M884.859,445.878c0.023-0.056,0.046-0.111,0.069-0.167c0.299-0.23,0.598-0.46,0.896-0.689
			c-0.028,0.01-0.056,0.02-0.084,0.03c0.266,0,0.532,0,0.798,0c-0.028-0.01-0.056-0.02-0.084-0.03
			c0.299,0.23,0.598,0.46,0.896,0.689c0.023,0.056,0.046,0.111,0.069,0.167c0,0.266,0,0.532,0,0.798
			c-0.023,0.056-0.046,0.111-0.069,0.167c-0.299,0.23-0.598,0.46-0.896,0.689c0.028-0.01,0.056-0.02,0.084-0.03
			c-0.266,0-0.532,0-0.798,0c0.028,0.01,0.056,0.02,0.084,0.03c-0.299-0.23-0.598-0.46-0.896-0.689
			c-0.023-0.056-0.046-0.111-0.069-0.167c0.163,0.802,1.098,1.253,1.845,1.048c0.828-0.228,1.21-1.045,1.048-1.845
			c-0.151-0.746-0.847-1.323-1.613-1.323c-0.926,0-1.666,0.815-1.666,1.722c0,0.816,0.53,1.403,1.268,1.668
			c0.869,0.313,1.843-0.436,2.012-1.27c0.162-0.801-0.22-1.617-1.048-1.845C885.957,444.625,885.021,445.076,884.859,445.878z"/>
	</g>
</g>
<g>
	<ellipse fill="#FFFFFF" cx="867.08" cy="446.721" rx="0.166" ry="0.222"/>
	<g>
		<path d="M865.8,446.322c0.023-0.056,0.046-0.111,0.069-0.167c0.299-0.23,0.598-0.46,0.896-0.689
			c-0.028,0.01-0.056,0.02-0.084,0.03c0.266,0,0.532,0,0.798,0c-0.028-0.01-0.056-0.02-0.084-0.03
			c0.299,0.23,0.598,0.46,0.896,0.689c0.023,0.056,0.046,0.111,0.069,0.167c0,0.266,0,0.532,0,0.798
			c-0.023,0.056-0.046,0.111-0.069,0.167c-0.299,0.23-0.598,0.46-0.896,0.689c0.028-0.01,0.056-0.02,0.084-0.03
			c-0.266,0-0.532,0-0.798,0c0.028,0.01,0.056,0.02,0.084,0.03c-0.299-0.23-0.598-0.46-0.896-0.689
			c-0.023-0.056-0.046-0.111-0.069-0.167c0.163,0.802,1.098,1.253,1.845,1.048c0.828-0.228,1.21-1.045,1.048-1.845
			c-0.151-0.746-0.847-1.323-1.613-1.323c-0.926,0-1.667,0.815-1.667,1.722c0,0.816,0.53,1.402,1.268,1.668
			c0.869,0.313,1.843-0.436,2.012-1.27c0.162-0.801-0.22-1.617-1.048-1.845C866.898,445.069,865.963,445.52,865.8,446.322z"/>
	</g>
</g>
<g>
	<g>
		<g>
			<path fill="#FFFFFF" d="M585.862,508.586c0,0,15.697-0.682,9.555-14.332c-3.047-6.77-7.127-17.416-2.73-27.981
				c4.397-10.565,12.836-18.584,27.273-15.172c0,0-9.539-18.438-7.875-30.449c1.027-7.412,10.514-15.253,21.524-12.599
				c6.658,1.605,15.224,5.775,25.724,17.849l-5.25,2.625l-1.05,20.474c0,0,18.728,8.312,23.099,22.049
				c3.675,11.549,3.854,19.486-11.024,37.798"/>
			<g>
				<path d="M585.862,510.086c8.554-0.453,14.429-6.298,11.514-14.989c-1.387-4.135-3.317-7.938-4.353-12.218
					c-1.619-6.686-0.54-13.217,2.577-19.264c4.842-9.394,13.753-13.216,23.961-11.067c1.311,0.276,2.31-1.002,1.694-2.203
					c-4.659-9.085-11.692-24.503-5.796-34.154c5.042-8.253,15.586-8.158,23.435-4.773c7.688,3.316,13.908,9.373,19.378,15.546
					c0.101-0.785,0.202-1.571,0.304-2.356c-1.75,0.875-3.5,1.75-5.25,2.625c-0.481,0.241-0.717,0.787-0.743,1.295
					c-0.35,6.825-0.7,13.649-1.05,20.474c-0.024,0.478,0.293,1.093,0.743,1.295c9.213,4.145,18.964,11.348,22.41,21.153
					c4.996,14.217-1.794,25.315-10.639,36.339c-1.198,1.493,0.911,3.63,2.121,2.121c6.844-8.53,14.175-18.257,13.469-29.771
					c-0.641-10.461-6.228-18.955-14.279-25.311c-3.128-2.47-6.542-4.583-10.083-6.403c-2.018-1.037-0.687-0.481-0.729,0.332
					c0.082-1.591,0.163-3.182,0.245-4.772c0.219-4.266,0.438-8.531,0.656-12.797c0.029-0.575,0.059-1.15,0.089-1.726
					c0.08-1.566,0.244-0.109-0.515,0.271c1.69-0.845,3.38-1.69,5.07-2.535c0.911-0.456,0.906-1.676,0.304-2.356
					c-10.622-11.986-29.552-26.893-44.896-13.303c-11.078,9.812-2.307,29.647,3.167,40.32c0.565-0.734,1.129-1.469,1.694-2.203
					c-7.05-1.484-14.533-1.016-20.303,3.76c-6.445,5.335-10.171,13.325-10.774,21.597c-0.324,4.437,0.784,9,2.115,13.188
					c1.309,4.118,4.037,8.016,3.92,12.447c-0.117,4.42-5.821,6.248-9.454,6.441C583.938,507.188,583.928,510.189,585.862,510.086
					L585.862,510.086z"/>
			</g>
		</g>
		<g>
			<path fill="#FFFFFF" d="M651.458,457.926c0,0,15.749,47.248,2.1,91.346l11.549,4.2l-59.322,4.2c0,0,11.024-69.822,8.925-90.821
				c0,0-10.946-0.052-10.421,13.072c0.525,13.124,21.011,34.097-15.014,42.313"/>
			<g>
				<path d="M650.011,458.325c9.407,28.451,10.709,61.891,2.1,90.548c-0.249,0.83,0.294,1.571,1.048,1.845
					c3.85,1.4,7.7,2.8,11.549,4.2c0.133-0.982,0.266-1.964,0.399-2.946c-19.774,1.4-39.548,2.8-59.322,4.2
					c0.482,0.633,0.964,1.266,1.446,1.899c1.959-12.425,3.67-24.892,5.233-37.372c2.194-17.514,5.376-36.158,3.745-53.847
					c-0.074-0.807-0.626-1.51-1.5-1.5c-12.569,0.138-12.989,14.267-9.923,23.182c1.896,5.514,4.457,11.044,4.247,16.997
					c-0.348,9.888-12.383,13.396-20.158,15.259c-1.881,0.451-1.083,3.343,0.798,2.893c7.46-1.787,15.655-4.373,20.168-11.039
					c3.007-4.442,2.436-10.167,1.17-15.075c-1.409-5.461-4.072-10.546-5.074-16.118c-1.076-5.982,2.006-13.025,8.772-13.099
					c-0.5-0.5-1-1-1.5-1.5c1.598,17.331-1.492,35.556-3.605,52.721c-1.55,12.592-3.29,25.168-5.266,37.701
					c-0.14,0.891,0.384,1.974,1.446,1.899c19.774-1.4,39.548-2.8,59.322-4.2c1.72-0.122,2.003-2.363,0.399-2.946
					c-3.85-1.4-7.7-2.8-11.549-4.2c0.349,0.615,0.698,1.23,1.048,1.845c8.757-29.149,7.468-63.206-2.1-92.143
					C652.3,455.7,649.402,456.483,650.011,458.325L650.011,458.325z"/>
			</g>
		</g>
		<g>
			<line fill="none" x1="635.708" y1="513.049" x2="631.508" y2="555.047"/>
			<g>
				<path d="M634.208,513.049c-1.4,13.999-2.8,27.999-4.2,41.998c-0.192,1.925,2.809,1.906,3,0c1.4-13.999,2.8-27.999,4.2-41.998
					C637.401,511.124,634.399,511.142,634.208,513.049L634.208,513.049z"/>
			</g>
		</g>
		<g>
			<line fill="none" x1="665.107" y1="497.299" x2="658.807" y2="505.174"/>
			<g>
				<path d="M664.046,496.239c-2.1,2.625-4.2,5.25-6.3,7.875c-1.196,1.495,0.913,3.632,2.121,2.121c2.1-2.625,4.2-5.25,6.3-7.875
					C667.363,496.865,665.255,494.728,664.046,496.239L664.046,496.239z"/>
			</g>
		</g>
		<g>
			<g>
				<path d="M654.375,472.871c1.919,1.218,3.609,2.787,5.104,4.488c4.049,4.605,2.808,9.362-1.954,12.871
					c-1.539,1.134-0.046,3.74,1.514,2.59c4.948-3.646,7.605-8.431,4.806-14.331c-1.595-3.362-4.852-6.239-7.955-8.209
					C654.251,469.24,652.747,471.837,654.375,472.871L654.375,472.871z"/>
			</g>
		</g>
		<g>
			<g>
				<path d="M624.812,428.401c3.884,10.78,17.089,13.754,27.17,13.176c1.923-0.11,1.934-3.111,0-3
					c-8.605,0.494-20.935-1.696-24.277-10.973C627.055,425.798,624.155,426.577,624.812,428.401L624.812,428.401z"/>
			</g>
		</g>
		<g>
			<ellipse fill="#FFFFFF" cx="641.621" cy="425.806" rx="0.166" ry="0.222"/>
			<g>
				<path d="M640.341,425.408c0.023-0.056,0.046-0.111,0.069-0.167c0.299-0.23,0.598-0.46,0.896-0.689
					c-0.028,0.01-0.056,0.02-0.084,0.03c0.266,0,0.532,0,0.798,0c-0.028-0.01-0.056-0.02-0.084-0.03
					c0.299,0.23,0.598,0.46,0.896,0.689c0.023,0.056,0.046,0.111,0.069,0.167c0,0.266,0,0.532,0,0.798
					c-0.023,0.056-0.046,0.111-0.069,0.167c-0.299,0.23-0.598,0.46-0.896,0.689c0.028-0.01,0.056-0.02,0.084-0.03
					c-0.266,0-0.532,0-0.798,0c0.028,0.01,0.056,0.02,0.084,0.03c-0.299-0.23-0.598-0.46-0.896-0.689
					c-0.023-0.056-0.046-0.111-0.069-0.167c0.163,0.802,1.098,1.253,1.845,1.048c0.828-0.228,1.21-1.045,1.048-1.845
					c-0.151-0.746-0.847-1.323-1.613-1.323c-0.926,0-1.667,0.815-1.667,1.722c0,0.816,0.53,1.402,1.268,1.668
					c0.869,0.313,1.843-0.436,2.012-1.27c0.162-0.801-0.22-1.617-1.048-1.845C641.439,424.154,640.503,424.606,640.341,425.408z"/>
			</g>
		</g>
	</g>
	<g>
		<g>
			<path d="M587.186,517.113c4.025-0.337,8.205-3.024,11.61-4.911c1.692-0.938,0.179-3.529-1.514-2.59
				c-2.617,1.451-5.279,2.863-8.093,3.895c-0.552,0.202-1.115,0.377-1.685,0.523c-0.244,0.062-0.894,0.132-0.318,0.084
				C585.273,514.273,585.257,517.275,587.186,517.113L587.186,517.113z"/>
		</g>
	</g>
</g>
<g>
	<ellipse fill="#FFFFFF" cx="646.647" cy="473.647" rx="0.166" ry="0.222"/>
	<g>
		<path d="M645.367,473.249c0.023-0.056,0.046-0.111,0.069-0.167c0.299-0.23,0.598-0.46,0.896-0.689
			c-0.028,0.01-0.056,0.02-0.084,0.03c0.266,0,0.532,0,0.798,0c-0.028-0.01-0.056-0.02-0.084-0.03
			c0.299,0.23,0.598,0.46,0.896,0.689c0.023,0.056,0.046,0.111,0.069,0.167c0,0.266,0,0.532,0,0.798
			c-0.023,0.056-0.046,0.111-0.069,0.167c-0.299,0.23-0.598,0.46-0.896,0.689c0.028-0.01,0.056-0.02,0.084-0.03
			c-0.266,0-0.532,0-0.798,0c0.028,0.01,0.056,0.02,0.084,0.03c-0.299-0.23-0.598-0.46-0.896-0.689
			c-0.023-0.056-0.046-0.111-0.069-0.167c0.163,0.802,1.098,1.253,1.845,1.048c0.828-0.228,1.21-1.045,1.048-1.845
			c-0.151-0.746-0.847-1.323-1.613-1.323c-0.926,0-1.667,0.815-1.667,1.722c0,0.816,0.53,1.403,1.268,1.668
			c0.869,0.313,1.843-0.436,2.012-1.27c0.162-0.801-0.22-1.617-1.048-1.845C646.465,471.995,645.529,472.447,645.367,473.249z"/>
	</g>
</g>
<g>
	<ellipse fill="#FFFFFF" cx="627.588" cy="474.091" rx="0.166" ry="0.222"/>
	<g>
		<path d="M626.308,473.693c0.023-0.056,0.046-0.111,0.069-0.167c0.299-0.23,0.598-0.46,0.896-0.689
			c-0.028,0.01-0.056,0.02-0.084,0.03c0.266,0,0.532,0,0.797,0c-0.028-0.01-0.056-0.02-0.084-0.03
			c0.299,0.23,0.598,0.46,0.896,0.689c0.023,0.056,0.046,0.111,0.069,0.167c0,0.266,0,0.532,0,0.798
			c-0.023,0.056-0.046,0.111-0.069,0.167c-0.299,0.23-0.598,0.46-0.896,0.689c0.028-0.01,0.056-0.02,0.084-0.03
			c-0.266,0-0.532,0-0.797,0c0.028,0.01,0.056,0.02,0.084,0.03c-0.299-0.23-0.598-0.46-0.896-0.689
			c-0.023-0.056-0.046-0.111-0.069-0.167c0.163,0.802,1.098,1.253,1.845,1.048c0.828-0.228,1.21-1.045,1.048-1.845
			c-0.151-0.746-0.847-1.323-1.613-1.323c-0.926,0-1.667,0.815-1.667,1.722c0,0.816,0.53,1.402,1.268,1.668
			c0.869,0.313,1.843-0.436,2.012-1.27c0.162-0.801-0.22-1.617-1.048-1.845C627.406,472.439,626.471,472.891,626.308,473.693z"/>
	</g>
</g>
<g>
	<g>
		<g>
			<path fill="#FFFFFF" d="M736.399,592.408c0,0,15.697-0.682,9.555-14.332c-3.047-6.77-7.127-17.416-2.73-27.981
				c4.397-10.565,12.836-18.584,27.273-15.172c0,0-9.539-18.438-7.875-30.449c1.027-7.412,10.514-15.253,21.524-12.599
				c6.658,1.605,15.224,5.775,25.724,17.849l-5.25,2.625l-1.05,20.474c0,0,18.728,8.312,23.099,22.049
				c3.675,11.549,3.854,19.486-11.024,37.798"/>
			<g>
				<path d="M736.399,593.908c8.554-0.453,14.429-6.298,11.514-14.989c-1.387-4.135-3.317-7.938-4.353-12.218
					c-1.619-6.686-0.54-13.217,2.576-19.264c4.842-9.394,13.753-13.216,23.961-11.067c1.311,0.276,2.31-1.002,1.694-2.203
					c-4.659-9.085-11.692-24.503-5.796-34.154c5.042-8.253,15.586-8.158,23.435-4.773c7.688,3.316,13.908,9.373,19.378,15.546
					c0.101-0.785,0.202-1.571,0.304-2.356c-1.75,0.875-3.5,1.75-5.25,2.625c-0.481,0.241-0.717,0.787-0.743,1.295
					c-0.35,6.825-0.7,13.649-1.05,20.474c-0.025,0.478,0.293,1.093,0.743,1.295c9.213,4.145,18.964,11.348,22.41,21.153
					c4.996,14.217-1.794,25.315-10.639,36.339c-1.198,1.493,0.911,3.63,2.121,2.121c6.844-8.53,14.175-18.257,13.469-29.771
					c-0.641-10.461-6.228-18.955-14.279-25.311c-3.128-2.47-6.542-4.583-10.083-6.403c-2.018-1.037-0.687-0.481-0.729,0.332
					c0.082-1.591,0.163-3.182,0.245-4.772c0.219-4.266,0.438-8.531,0.656-12.797c0.029-0.575,0.059-1.15,0.089-1.726
					c0.08-1.566,0.244-0.109-0.515,0.271c1.69-0.845,3.38-1.69,5.07-2.535c0.911-0.456,0.906-1.676,0.304-2.356
					c-10.622-11.986-29.552-26.893-44.896-13.303c-11.078,9.812-2.307,29.647,3.167,40.32c0.565-0.734,1.129-1.469,1.694-2.203
					c-7.05-1.484-14.533-1.016-20.303,3.76c-6.445,5.335-10.171,13.325-10.774,21.597c-0.323,4.437,0.784,9,2.115,13.188
					c1.309,4.118,4.037,8.016,3.92,12.447c-0.117,4.42-5.821,6.248-9.454,6.441C734.475,591.01,734.465,594.011,736.399,593.908
					L736.399,593.908z"/>
			</g>
		</g>
		<g>
			<path fill="#FFFFFF" d="M801.995,541.748c0,0,15.749,47.248,2.1,91.346l11.549,4.2l-59.322,4.2c0,0,11.025-69.822,8.925-90.821
				c0,0-10.946-0.053-10.421,13.072c0.525,13.124,21.011,34.097-15.014,42.313"/>
			<g>
				<path d="M800.549,542.147c9.407,28.451,10.709,61.891,2.1,90.548c-0.249,0.83,0.294,1.571,1.048,1.845
					c3.85,1.4,7.7,2.8,11.549,4.2c0.133-0.982,0.266-1.964,0.399-2.946c-19.774,1.4-39.548,2.8-59.322,4.2
					c0.482,0.633,0.964,1.266,1.446,1.899c1.959-12.425,3.67-24.892,5.233-37.372c2.194-17.514,5.376-36.158,3.745-53.847
					c-0.074-0.807-0.626-1.51-1.5-1.5c-12.569,0.138-12.989,14.267-9.923,23.182c1.896,5.514,4.457,11.044,4.247,16.997
					c-0.348,9.888-12.383,13.396-20.158,15.259c-1.881,0.451-1.083,3.343,0.797,2.893c7.46-1.787,15.655-4.373,20.169-11.039
					c3.007-4.442,2.436-10.167,1.17-15.075c-1.409-5.461-4.072-10.546-5.074-16.118c-1.076-5.982,2.006-13.025,8.772-13.099
					c-0.5-0.5-1-1-1.5-1.5c1.598,17.331-1.492,35.556-3.605,52.721c-1.55,12.592-3.29,25.168-5.266,37.701
					c-0.14,0.891,0.384,1.974,1.446,1.899c19.774-1.4,39.548-2.8,59.322-4.2c1.72-0.122,2.003-2.363,0.399-2.946
					c-3.85-1.4-7.7-2.8-11.549-4.2c0.349,0.615,0.698,1.23,1.048,1.845c8.757-29.149,7.468-63.206-2.1-92.143
					C802.837,539.522,799.94,540.305,800.549,542.147L800.549,542.147z"/>
			</g>
		</g>
		<g>
			<line fill="none" x1="786.246" y1="596.871" x2="782.046" y2="638.869"/>
			<g>
				<path d="M784.746,596.871c-1.4,13.999-2.8,27.999-4.2,41.998c-0.193,1.925,2.809,1.906,3,0c1.4-13.999,2.8-27.999,4.2-41.998
					C787.938,594.946,784.937,594.965,784.746,596.871L784.746,596.871z"/>
			</g>
		</g>
		<g>
			<line fill="none" x1="815.645" y1="581.121" x2="809.345" y2="588.996"/>
			<g>
				<path d="M814.584,580.061c-2.1,2.625-4.2,5.25-6.3,7.875c-1.196,1.495,0.913,3.632,2.121,2.121c2.1-2.625,4.2-5.25,6.3-7.875
					C817.901,580.688,815.793,578.55,814.584,580.061L814.584,580.061z"/>
			</g>
		</g>
		<g>
			<g>
				<path d="M804.913,556.693c1.919,1.218,3.609,2.786,5.104,4.488c4.049,4.605,2.808,9.362-1.954,12.871
					c-1.54,1.134-0.046,3.74,1.514,2.59c4.948-3.646,7.605-8.431,4.806-14.331c-1.595-3.362-4.852-6.239-7.955-8.209
					C804.788,553.062,803.285,555.66,804.913,556.693L804.913,556.693z"/>
			</g>
		</g>
		<g>
			<g>
				<path d="M775.35,512.223c3.884,10.78,17.089,13.754,27.17,13.176c1.923-0.11,1.934-3.111,0-3
					c-8.605,0.494-20.935-1.696-24.277-10.973C777.592,509.62,774.693,510.399,775.35,512.223L775.35,512.223z"/>
			</g>
		</g>
		<g>
			<ellipse fill="#FFFFFF" cx="792.158" cy="509.628" rx="0.166" ry="0.222"/>
			<g>
				<path d="M790.878,509.23c0.023-0.056,0.046-0.111,0.069-0.167c0.299-0.23,0.598-0.46,0.896-0.689
					c-0.028,0.01-0.056,0.02-0.084,0.03c0.266,0,0.532,0,0.798,0c-0.028-0.01-0.056-0.02-0.084-0.03
					c0.299,0.23,0.598,0.46,0.896,0.689c0.023,0.056,0.046,0.111,0.069,0.167c0,0.266,0,0.532,0,0.798
					c-0.023,0.056-0.046,0.111-0.069,0.167c-0.299,0.23-0.598,0.46-0.896,0.689c0.028-0.01,0.056-0.02,0.084-0.03
					c-0.266,0-0.532,0-0.798,0c0.028,0.01,0.056,0.02,0.084,0.03c-0.299-0.23-0.598-0.46-0.896-0.689
					c-0.023-0.056-0.046-0.111-0.069-0.167c0.163,0.802,1.098,1.253,1.845,1.048c0.828-0.228,1.21-1.045,1.048-1.845
					c-0.151-0.746-0.847-1.323-1.613-1.323c-0.926,0-1.667,0.815-1.667,1.722c0,0.816,0.531,1.402,1.268,1.668
					c0.869,0.313,1.843-0.436,2.012-1.27c0.162-0.801-0.22-1.617-1.048-1.845C791.977,507.977,791.041,508.428,790.878,509.23z"/>
			</g>
		</g>
	</g>
	<g>
		<g>
			<path d="M737.724,600.935c4.025-0.337,8.205-3.024,11.61-4.911c1.692-0.938,0.179-3.529-1.514-2.59
				c-2.617,1.451-5.279,2.863-8.093,3.895c-0.552,0.202-1.115,0.377-1.685,0.523c-0.244,0.062-0.894,0.132-0.318,0.084
				C735.81,598.095,735.795,601.097,737.724,600.935L737.724,600.935z"/>
		</g>
	</g>
</g>
<g>
	<ellipse fill="#FFFFFF" cx="797.184" cy="557.469" rx="0.166" ry="0.222"/>
	<g>
		<path d="M795.905,557.071c0.023-0.056,0.046-0.111,0.069-0.167c0.299-0.23,0.598-0.46,0.896-0.689
			c-0.028,0.01-0.056,0.02-0.084,0.03c0.266,0,0.532,0,0.798,0c-0.028-0.01-0.056-0.02-0.084-0.03
			c0.299,0.23,0.598,0.46,0.896,0.689c0.023,0.056,0.046,0.111,0.069,0.167c0,0.266,0,0.532,0,0.798
			c-0.023,0.056-0.046,0.111-0.069,0.167c-0.299,0.23-0.598,0.46-0.896,0.689c0.028-0.01,0.056-0.02,0.084-0.03
			c-0.266,0-0.532,0-0.798,0c0.028,0.01,0.056,0.02,0.084,0.03c-0.299-0.23-0.598-0.46-0.896-0.689
			c-0.023-0.056-0.046-0.111-0.069-0.167c0.163,0.802,1.098,1.253,1.845,1.048c0.828-0.228,1.21-1.045,1.048-1.845
			c-0.151-0.746-0.847-1.323-1.613-1.323c-0.926,0-1.666,0.815-1.666,1.722c0,0.815,0.53,1.402,1.268,1.668
			c0.869,0.313,1.843-0.436,2.012-1.27c0.162-0.801-0.22-1.617-1.048-1.845C797.003,555.818,796.067,556.269,795.905,557.071z"/>
	</g>
</g>
<g>
	<ellipse fill="#FFFFFF" cx="778.126" cy="557.913" rx="0.166" ry="0.222"/>
	<g>
		<path d="M776.846,557.515c0.023-0.056,0.046-0.111,0.069-0.167c0.299-0.23,0.598-0.46,0.896-0.689
			c-0.028,0.01-0.056,0.02-0.084,0.03c0.266,0,0.532,0,0.798,0c-0.028-0.01-0.056-0.02-0.084-0.03
			c0.299,0.23,0.598,0.46,0.896,0.689c0.023,0.056,0.046,0.111,0.069,0.167c0,0.266,0,0.532,0,0.797
			c-0.023,0.056-0.046,0.111-0.069,0.167c-0.299,0.23-0.598,0.46-0.896,0.689c0.028-0.01,0.056-0.02,0.084-0.03
			c-0.266,0-0.532,0-0.798,0c0.028,0.01,0.056,0.02,0.084,0.03c-0.299-0.23-0.598-0.46-0.896-0.689
			c-0.023-0.056-0.046-0.111-0.069-0.167c0.163,0.802,1.098,1.253,1.845,1.048c0.828-0.228,1.21-1.045,1.048-1.845
			c-0.151-0.746-0.847-1.323-1.613-1.323c-0.926,0-1.667,0.815-1.667,1.722c0,0.815,0.53,1.403,1.268,1.668
			c0.869,0.313,1.843-0.436,2.012-1.27c0.162-0.801-0.22-1.617-1.048-1.845C777.944,556.262,777.008,556.713,776.846,557.515z"/>
	</g>
</g>
</svg>
