<?xml version="1.0" encoding="utf-8"?>
<!-- Generator: Adobe Illustrator 17.0.2, SVG Export Plug-In . SVG Version: 6.00 Build 0)  -->
<!DOCTYPE svg PUBLIC "-//W3C//DTD SVG 1.1//EN" "http://www.w3.org/Graphics/SVG/1.1/DTD/svg11.dtd">
<svg version="1.1" id="Lager_1" xmlns="http://www.w3.org/2000/svg" xmlns:xlink="http://www.w3.org/1999/xlink" x="0px" y="0px"
	 width="202.47px" height="300.152px" viewBox="688.277 224.509 202.47 300.152"
	 enable-background="new 688.277 224.509 202.47 300.152" xml:space="preserve">
<g>
	<g>
		<path fill="#FFFFFF" d="M704.873,419.614c0,0,28.855-1.255,17.564-26.346c-5.601-12.446-13.1-32.015-5.018-51.437
			s23.595-34.163,50.134-27.89c0,0-17.535-33.893-14.476-55.973c1.888-13.625,19.327-28.039,39.567-23.161
			c12.239,2.95,27.986,10.616,47.287,32.812l-9.65,4.825l-1.93,37.637c0,0,34.427,15.28,42.462,40.532
			c6.755,21.231,7.085,35.821-20.266,69.483"/>
		<g>
			<path d="M704.873,422.114c5.58-0.271,11.494-1.972,16.024-5.28c10.42-7.609,5.884-19.418,1.796-29.218
				c-3.692-8.851-6.186-18.127-6.319-27.756c-0.139-10.001,3.616-19.449,8.974-27.728c9.394-14.516,25.031-19.453,41.541-15.78
				c2.187,0.487,3.845-1.688,2.823-3.672c-3.936-7.645-7.1-15.732-9.754-23.9c-4.241-13.054-8.705-29.897,0.927-41.555
				c10.093-12.215,26.073-12.604,39.775-7.234c14.926,5.85,27.107,17.564,37.504,29.396c0.169-1.309,0.337-2.618,0.506-3.926
				c-3.217,1.608-6.434,3.217-9.65,4.825c-0.802,0.401-1.195,1.312-1.238,2.159c-0.643,12.546-1.287,25.091-1.93,37.637
				c-0.041,0.795,0.489,1.824,1.238,2.159c16.841,7.529,35.247,20.99,41.313,39.038c3.138,9.336,4.856,19.017,2.657,28.751
				c-3.249,14.38-13.238,27.095-22.28,38.3c-2.005,2.484,1.51,6.046,3.536,3.536c9.552-11.836,19.288-24.627,23.327-39.547
				c2.856-10.55,1.039-21.167-2.116-31.408c-6.105-19.818-25.57-34.785-43.913-42.987c0.413,0.72,0.826,1.439,1.238,2.159
				c0.643-12.546,1.287-25.091,1.93-37.637c-0.413,0.72-0.826,1.439-1.238,2.159c3.217-1.608,6.434-3.217,9.65-4.825
				c1.523-0.762,1.505-2.79,0.506-3.926c-19.179-21.826-56.472-50.906-83.503-23.107c-11.21,11.529-8.401,28.264-4.563,42.348
				c2.814,10.329,6.856,20.584,11.761,30.11c0.941-1.224,1.882-2.448,2.823-3.672c-14.557-3.238-28.755-0.982-39.936,9.316
				c-11.973,11.027-17.902,28.271-16.67,44.24c0.673,8.717,3.459,17.145,6.804,25.164c2.45,5.872,6.117,12.612,2.838,18.904
				c-2.839,5.448-10.644,7.68-16.38,7.959C701.664,417.271,701.648,422.271,704.873,422.114L704.873,422.114z"/>
		</g>
	</g>
	<g>
		<path fill="#FFFFFF" d="M825.455,326.487c0,0,28.951,86.854,3.86,167.918l21.231,7.72l-109.05,7.72
			c0,0,20.266-128.351,16.406-166.953c0,0-20.121-0.097-19.156,24.03c0.965,24.126,38.624,62.679-27.6,77.783"/>
		<g>
			<path d="M823.044,327.152c5.657,17.046,8.927,35.138,11.25,52.895c4.952,37.86,3.785,77.002-7.39,113.693
				c-0.421,1.382,0.494,2.62,1.746,3.075c7.077,2.573,14.154,5.147,21.231,7.72c0.222-1.637,0.443-3.274,0.665-4.911
				c-36.35,2.573-72.7,5.147-109.05,7.72c0.804,1.055,1.607,2.11,2.411,3.165c3.624-22.971,6.79-46.023,9.669-69.098
				c2.319-18.584,4.398-37.207,5.87-55.879c1.11-14.081,2.305-28.533,0.956-42.64c-0.129-1.352-1.039-2.505-2.5-2.5
				c-8.092,0.03-15.654,5.016-19.152,12.205c-5.356,11.006-1.358,23.182,2.514,33.878c3.547,9.801,8.222,20.722,5.916,31.332
				c-3.431,15.784-23.26,21.338-36.699,24.486c-3.139,0.735-1.807,5.556,1.329,4.821c13.858-3.247,30.463-8.388,37.836-21.748
				c5.186-9.398,2.987-20.612-0.08-30.293c-3.07-9.69-8.121-19.295-8.353-29.629c-0.225-9.979,5.839-20.013,16.689-20.053
				c-0.833-0.833-1.667-1.667-2.5-2.5c1.316,13.761,0.169,27.828-0.873,41.567c-1.414,18.653-3.518,37.254-5.812,55.817
				c-2.844,23.013-6.018,45.999-9.632,68.904c-0.234,1.484,0.64,3.29,2.411,3.165c36.35-2.573,72.7-5.147,109.05-7.72
				c2.867-0.203,3.339-3.938,0.665-4.911c-7.077-2.573-14.154-5.147-21.231-7.72c0.582,1.025,1.164,2.05,1.746,3.075
				c11.322-37.175,12.43-76.668,7.568-115.023c-2.307-18.2-5.633-36.763-11.429-54.225
				C826.855,322.778,822.026,324.083,823.044,327.152L823.044,327.152z"/>
		</g>
	</g>
	<g>
		<line fill="none" x1="796.504" y1="427.817" x2="788.783" y2="505.021"/>
		<g>
			<path d="M794.004,427.817c-2.573,25.735-5.147,51.469-7.72,77.204c-0.321,3.208,4.682,3.177,5,0
				c2.573-25.735,5.147-51.469,7.72-77.204C799.325,424.609,794.322,424.64,794.004,427.817L794.004,427.817z"/>
		</g>
	</g>
	<g>
		<line fill="none" x1="850.546" y1="398.866" x2="838.966" y2="413.342"/>
		<g>
			<path d="M848.779,397.098c-3.86,4.825-7.72,9.65-11.581,14.476c-1.993,2.491,1.521,6.053,3.536,3.536
				c3.86-4.825,7.72-9.65,11.581-14.476C854.307,398.143,850.793,394.58,848.779,397.098L848.779,397.098z"/>
		</g>
	</g>
	<g>
		<g>
			<path d="M830.949,353.737c3.75,2.369,7.085,5.476,9.918,8.87c7.129,8.542,4.499,17.25-4.128,23.484
				c-2.587,1.869-0.095,6.21,2.524,4.317c9.082-6.563,13.972-15.66,8.575-26.31c-3.032-5.984-8.742-11.127-14.365-14.679
				C830.737,347.693,828.231,352.021,830.949,353.737L830.949,353.737z"/>
		</g>
	</g>
	<g>
		<g>
			<path d="M776.722,272.145c6.946,19.636,31.431,25.227,49.698,24.031c3.2-0.209,3.221-5.211,0-5
				c-16.14,1.057-39.011-3.779-44.877-20.361C780.476,267.797,775.644,269.097,776.722,272.145L776.722,272.145z"/>
		</g>
	</g>
	<g>
		<ellipse fill="#FFFFFF" cx="807.372" cy="267.443" rx="0.306" ry="0.408"/>
		<g>
			<path d="M805.178,267.443c0.072-0.311,0.144-0.622,0.216-0.932c0.299-0.299,0.598-0.598,0.897-0.897
				c0.139-0.058,0.278-0.116,0.416-0.173c0.443,0,0.886,0,1.329,0c0.139,0.058,0.278,0.116,0.416,0.173
				c0.299,0.299,0.598,0.598,0.897,0.897c0.288,0.622,0.288,1.243,0,1.865c-0.299,0.299-0.598,0.598-0.897,0.897
				c-0.139,0.058-0.278,0.116-0.416,0.173c-0.443,0-0.886,0-1.329,0c-0.139-0.058-0.278-0.116-0.416-0.173
				c-0.299-0.299-0.598-0.598-0.897-0.897C805.322,268.064,805.25,267.754,805.178,267.443c0.084,0.691,0.22,1.256,0.732,1.768
				c0.467,0.467,1.107,0.732,1.768,0.732c1.239,0,2.664-1.144,2.5-2.5c-0.068-0.566-0.109-1.114-0.467-1.591
				c-0.584-0.778-1.328-1.317-2.339-1.317c-0.719,0-1.441,0.303-1.949,0.811c-0.596,0.596-0.76,1.293-0.858,2.097
				c-0.056,0.46,0.192,1.225,0.467,1.591c0.584,0.778,1.328,1.317,2.339,1.317c0.719,0,1.441-0.303,1.949-0.811
				c0.596-0.596,0.76-1.293,0.857-2.097c0.164-1.356-1.261-2.5-2.5-2.5c-0.66,0-1.301,0.266-1.768,0.732
				C805.399,266.187,805.262,266.752,805.178,267.443z"/>
		</g>
	</g>
	<g>
		<ellipse fill="#FFFFFF" cx="779.796" cy="346.599" rx="0.306" ry="0.408"/>
		<g>
			<path d="M777.602,346.599c0.072-0.311,0.144-0.622,0.216-0.932c0.299-0.299,0.598-0.598,0.897-0.897
				c0.139-0.058,0.278-0.116,0.416-0.173c0.443,0,0.886,0,1.329,0c0.139,0.058,0.278,0.116,0.416,0.173
				c0.299,0.299,0.598,0.598,0.897,0.897c0.288,0.622,0.288,1.243,0,1.865c-0.299,0.299-0.598,0.598-0.897,0.897
				c-0.139,0.058-0.278,0.116-0.416,0.173c-0.443,0-0.886,0-1.329,0c-0.139-0.058-0.278-0.116-0.416-0.173
				c-0.299-0.299-0.598-0.598-0.897-0.897C777.746,347.22,777.674,346.91,777.602,346.599c0.084,0.691,0.22,1.256,0.732,1.768
				c0.467,0.467,1.107,0.732,1.768,0.732c1.239,0,2.664-1.144,2.5-2.5c-0.068-0.566-0.109-1.114-0.467-1.591
				c-0.584-0.778-1.328-1.317-2.339-1.317c-0.719,0-1.441,0.303-1.949,0.811c-0.596,0.596-0.76,1.293-0.858,2.097
				c-0.056,0.46,0.192,1.225,0.467,1.591c0.584,0.778,1.328,1.317,2.339,1.317c0.719,0,1.441-0.303,1.948-0.811
				c0.596-0.596,0.76-1.293,0.858-2.097c0.164-1.356-1.261-2.5-2.5-2.5c-0.66,0-1.301,0.266-1.768,0.732
				C777.822,345.343,777.685,345.907,777.602,346.599z"/>
		</g>
	</g>
	<g>
		<ellipse fill="#FFFFFF" cx="812.73" cy="347.198" rx="0.306" ry="0.408"/>
		<g>
			<path d="M810.536,347.198c0.072-0.311,0.144-0.622,0.216-0.932c0.299-0.299,0.598-0.598,0.897-0.897
				c0.139-0.058,0.278-0.116,0.416-0.173c0.443,0,0.886,0,1.329,0c0.139,0.058,0.278,0.116,0.417,0.173
				c0.299,0.299,0.598,0.598,0.897,0.897c0.288,0.622,0.288,1.243,0,1.865c-0.299,0.299-0.598,0.598-0.897,0.897
				c-0.139,0.058-0.278,0.116-0.417,0.173c-0.443,0-0.886,0-1.329,0c-0.139-0.058-0.278-0.116-0.416-0.173
				c-0.299-0.299-0.598-0.598-0.897-0.897C810.68,347.82,810.608,347.509,810.536,347.198c0.084,0.691,0.22,1.256,0.732,1.768
				c0.467,0.467,1.107,0.732,1.768,0.732c1.239,0,2.664-1.144,2.5-2.5c-0.068-0.566-0.109-1.114-0.467-1.591
				c-0.584-0.778-1.328-1.317-2.339-1.317c-0.719,0-1.441,0.303-1.949,0.811c-0.596,0.596-0.76,1.293-0.858,2.097
				c-0.056,0.46,0.192,1.225,0.467,1.591c0.584,0.778,1.328,1.317,2.339,1.317c0.719,0,1.441-0.303,1.948-0.811
				c0.596-0.596,0.76-1.293,0.858-2.097c0.164-1.356-1.261-2.5-2.5-2.5c-0.66,0-1.301,0.266-1.768,0.732
				C810.756,345.942,810.619,346.507,810.536,347.198z"/>
		</g>
	</g>
</g>
<g>
	<g>
		<path d="M707.307,435.032c7.344-0.614,15.002-5.55,21.212-8.992c2.82-1.563,0.299-5.882-2.524-4.317
			c-4.831,2.677-9.744,5.281-14.939,7.185c-1.015,0.372-2.049,0.694-3.097,0.961c-0.409,0.104-1.59,0.242-0.653,0.163
			C704.118,430.298,704.092,435.301,707.307,435.032L707.307,435.032z"/>
	</g>
</g>
</svg>
