<?xml version="1.0" encoding="utf-8"?>
<!-- Generator: Adobe Illustrator 17.0.2, SVG Export Plug-In . SVG Version: 6.00 Build 0)  -->
<!DOCTYPE svg PUBLIC "-//W3C//DTD SVG 1.1//EN" "http://www.w3.org/Graphics/SVG/1.1/DTD/svg11.dtd">
<svg version="1.1" id="Lager_1" xmlns="http://www.w3.org/2000/svg" xmlns:xlink="http://www.w3.org/1999/xlink" x="0px" y="0px"
	 width="231.248px" height="298.97px" viewBox="704.06 227.573 231.248 298.97"
	 enable-background="new 704.06 227.573 231.248 298.97" xml:space="preserve">
<g>
	<g>
		<path d="M771.24,281.277c7.024,19.857,31.659,25.611,50.18,24.399c3.84-0.251,3.865-6.253,0-6
			c-12.604,0.825-25.95-0.827-35.998-9.134c-2.584-2.136-4.818-4.676-6.615-7.502c-0.715-1.125-1.758-3.291-1.781-3.358
			C775.745,276.061,769.946,277.62,771.24,281.277L771.24,281.277z"/>
	</g>
</g>
<g>
	<g>
		<path d="M747.816,407.632c-3.491,36.931-8.434,73.775-14.212,110.417c-0.281,1.781,0.768,3.948,2.893,3.797
			c36.35-2.573,72.7-5.147,109.05-7.72c3.44-0.244,4.007-4.726,0.797-5.893c-7.077-2.573-14.154-5.147-21.231-7.72
			c0.698,1.23,1.397,2.46,2.095,3.69c14.699-48.204,12.777-100.223,5.106-149.509c-1.197-7.69-2.593-15.348-4.094-22.984
			c-0.621-3.158-1.854-8.526-2.034-10.528c-0.468-5.188,0.698-11.052,0.966-16.254c0.375-7.277,0.719-14.556,1.054-21.835
			c0.025-0.549,0.05-1.099,0.075-1.648c-0.495,0.863-0.991,1.727-1.486,2.59c3.217-1.608,6.434-3.217,9.651-4.825
			c1.828-0.914,1.806-3.348,0.607-4.712c-19.382-22.057-56.956-51.136-84.21-23.107c-11.347,11.67-8.58,28.563-4.692,42.835
			c2.825,10.369,6.888,20.667,11.811,30.23c1.129-1.469,2.259-2.938,3.388-4.407c-7.651-1.725-15.789-2.734-23.307,0.092
			c-5.851,2.2-10.062,6.792-13.326,11.966c-9.343,14.81-14.655,33.032-7.492,49.734c2.835,6.611,6.042,13.278,12.301,17.172
			c7.672,4.772,17.762,6.553,26.648,5.696c9.635-0.929,19.116-5.81,27.378-10.564c4.719-2.716,9.714-5.715,13.809-9.352
			c2.899-2.574-1.36-6.802-4.243-4.243c-9.038,8.026-21.736,14.239-33.253,17.387c-8.271,2.261-17.476,0.645-25.139-2.937
			c-5.997-2.803-8.524-8.124-11.286-13.851c-7.297-15.128-2.193-30.359,5.419-44.24c2.54-4.632,5.821-8.577,10.632-10.913
			c6.123-2.973,13.967-1.581,20.264-0.161c2.626,0.592,4.612-2.03,3.388-4.407c-3.917-7.607-7.063-15.653-9.704-23.781
			c-4.172-12.841-8.693-29.581,0.798-41.068c9.989-12.089,25.74-12.416,39.288-7.105c14.838,5.816,26.951,17.508,37.284,29.267
			c0.202-1.571,0.405-3.141,0.607-4.712c-3.217,1.608-6.434,3.217-9.65,4.825c-0.959,0.479-1.44,1.576-1.486,2.59
			c-0.576,12.685-1.015,25.401-1.973,38.064c-0.213,2.811,0.475,5.505,1.024,8.26c1.264,6.347,2.509,12.696,3.629,19.07
			c8.517,48.448,11.306,99.729-1.227,147.719c-0.706,2.701-1.497,5.38-2.311,8.05c-0.505,1.658,0.594,3.144,2.095,3.69
			c7.077,2.573,14.154,5.147,21.231,7.72c0.266-1.964,0.532-3.929,0.798-5.893c-36.35,2.573-72.7,5.147-109.05,7.72
			c0.964,1.266,1.929,2.532,2.893,3.798c5.862-37.169,10.886-74.549,14.427-112.012C754.18,403.779,748.177,403.814,747.816,407.632
			L747.816,407.632z"/>
	</g>
</g>
<g>
	<g>
		<path d="M831.15,383.26c5.999,6.576,15.815,12.368,24.983,10.566c14.052-2.762,20.005-17.987,21.685-30.601
			c1.884-14.142,0.563-28.533-1.387-42.594c-0.816-5.883-1.846-11.735-2.979-17.565c-0.349-1.797-0.714-3.59-1.078-5.384
			c-0.129-0.636-0.497-3.158-0.446-2.235c-0.213-3.847-6.214-3.868-6,0c0.341,6.153,2.412,12.495,3.444,18.561
			c2.124,12.484,3.519,25.155,3.309,37.833c-0.203,12.231-2.033,27.649-13.561,34.638c-8.013,4.858-18.242-1.448-23.728-7.46
			C832.78,376.153,828.549,380.408,831.15,383.26L831.15,383.26z"/>
	</g>
</g>
<g>
	<g>
		<path d="M826.613,347.697c4.971,6.273,12.16,13.945,20.396,15.335c10.053,1.696,11.561-8.637,11.613-16.029
			c0.127-17.949-4.054-36.476-8.164-53.88c-0.889-3.765-6.674-2.168-5.786,1.595c3.426,14.506,6.305,29.331,7.579,44.19
			c0.326,3.797,2.664,18.162-3.659,18.294c-6.677,0.139-13.965-8.987-17.736-13.747
			C828.453,340.423,824.237,344.699,826.613,347.697L826.613,347.697z"/>
	</g>
</g>
<g>
	<g>
		<path d="M812.072,264.332c3.869,0,3.869-6,0-6S808.203,264.332,812.072,264.332L812.072,264.332z"/>
	</g>
</g>
<g>
	<g>
		<path fill="#FFFFFF" d="M915.047,282.726c-2.695,0-4.88-10.005-4.88-22.348c0-12.342,2.185-22.348,4.88-22.348
			s4.88,10.005,4.88,22.348S917.742,282.726,915.047,282.726"/>
		<g>
			<path d="M915.845,279.833c-0.376-0.073-1.281-4.134-1.492-5.101c-0.887-4.06-1.052-8.285-1.168-12.425
				c-0.186-6.637-0.462-15.485,2.834-21.503c-0.648,0-1.295,0-1.943,0c0.334,0.536,0.589,1.107,0.766,1.715
				c0.567,1.569,0.852,3.248,1.156,4.882c0.791,4.257,0.89,8.661,0.93,12.977c0.04,4.334-0.256,8.696-0.93,12.977
				c-0.178,1.128-1.174,6.366-1.748,6.477c-3.796,0.739-2.184,6.522,1.595,5.786c7.898-1.539,7.033-19.895,7.083-25.24
				c0.045-4.882,0.67-25.348-7.88-25.348c-8.186,0-7.728,18.64-7.862,23.419c-0.179,6.393,0.295,12.9,1.661,19.153
				c0.639,2.927,1.972,7.347,5.404,8.015C918.029,286.355,919.64,280.573,915.845,279.833L915.845,279.833z"/>
		</g>
	</g>
	<g>
		<path fill="#FFFFFF" d="M810.849,286.377c1.062-3.179,1.722-7.625,1.722-12.545c0-4.842-0.639-9.225-1.672-12.393"/>
		<g>
			<path d="M813.742,287.175c2.554-8.425,2.549-18.095,0.05-26.533c-1.096-3.701-6.887-2.124-5.786,1.595
				c2.204,7.443,2.202,15.912-0.05,23.343C806.831,289.292,812.623,290.867,813.742,287.175L813.742,287.175z"/>
		</g>
	</g>
	<g>
		<path fill="#FFFFFF" d="M812.105,287.257c1.265,2.975-2.893,6.048-4.435,6.048c-3.141,0-6.653-8.882-6.653-18.547
			s3.311-22.78,6.451-22.78c1.567,0,4.637,6.854,3.913,10.461C811.382,262.439,807.098,275.483,812.105,287.257z"/>
		<g>
			<path d="M809.212,288.054c0.295,1.393-1.919,1.661-1.201,2.246c-1.32-1.076-1.892-3.265-2.409-4.782
				c-1.328-3.895-1.627-8.079-1.562-12.162c0.058-3.647,0.651-7.268,1.421-10.824c0.365-1.686,0.872-3.333,1.43-4.962
				c0.253-0.719,0.567-1.409,0.943-2.071c0.888-0.971,0.354-1.263-1.602-0.875c3.571,2.98,1.79,8.25,1.143,11.905
				C806.094,273.762,806.555,281.187,809.212,288.054c1.381,3.568,7.184,2.019,5.786-1.595c-2.432-6.284-2.818-12.799-1.649-19.405
				c0.627-3.54,1.404-6.04,0.581-9.728c-0.654-2.927-2.74-8.348-6.461-8.348c-3.648,0-5.277,4.199-6.364,6.997
				c-3.953,10.176-4.799,24.424-0.035,34.423c1.614,3.388,3.97,6.49,8.083,5.663c4.257-0.857,6.666-5.726,5.845-9.6
				C814.197,282.675,808.413,284.28,809.212,288.054z"/>
		</g>
	</g>
	<g>
		<ellipse fill="#FFFFFF" cx="917.918" cy="275.709" rx="5.023" ry="23"/>
		<g>
			<path d="M919.941,275.709c-0.056,6.342,0.272,14.617-3.026,20.313c0.669,0,1.337,0,2.006,0c-0.317-0.486-0.569-1.005-0.756-1.557
				c-0.564-1.469-0.857-3.05-1.168-4.586c-0.938-4.636-1.06-9.457-1.102-14.171c-0.055-6.285-0.237-14.678,3.026-20.313
				c-0.669,0-1.337,0-2.006,0c0.317,0.486,0.569,1.005,0.756,1.557c0.564,1.469,0.857,3.05,1.168,4.586
				C919.777,266.174,919.899,270.995,919.941,275.709c0.034,3.867,6.034,3.871,6,0c-0.044-4.993,0.745-26-8.023-26
				s-7.979,21.007-8.023,26c-0.044,4.983-0.69,26,8.023,26c8.768,0,7.979-21.007,8.023-26
				C925.975,271.838,919.975,271.841,919.941,275.709z"/>
		</g>
	</g>
	<g>
		<path fill="#FFFFFF" d="M811.685,286.371c0,0-1.828-5.322-1.546-11.252c0.205-4.312-0.249-7.21,1.546-11.746l102.365-10.261
			c0,0-4.976,32.905,2.133,45.643L811.685,286.371z"/>
		<g>
			<path d="M814.578,285.573c-2.144-6.525-2.281-14.918,0-21.403c-0.964,0.734-1.929,1.468-2.893,2.202
				c34.122-3.42,68.244-6.841,102.365-10.261c-0.964-1.266-1.929-2.532-2.893-3.798c-0.96,6.428-1.492,12.93-1.727,19.422
				c-0.339,9.367-0.293,20.026,4.162,28.533c0.863-1.505,1.727-3.009,2.59-4.514c-34.833-4.128-69.665-8.256-104.498-12.384
				c-3.838-0.455-3.794,5.55,0,6c34.833,4.128,69.665,8.256,104.498,12.384c2.413,0.286,3.533-2.715,2.59-4.514
				c-4.107-7.842-3.611-18.075-3.301-26.66c0.201-5.559,0.648-11.166,1.47-16.672c0.259-1.734-0.756-4.012-2.893-3.798
				c-34.122,3.42-68.244,6.841-102.365,10.261c-1.424,0.143-2.41,0.83-2.893,2.202c-2.623,7.458-2.465,17.092,0,24.593
				C809.994,290.826,815.789,289.259,814.578,285.573z"/>
		</g>
	</g>
	<g>
		<path fill="#FFFFFF" d="M813.22,261.129c0,0,0.942-5.645-1.546-6.352L913.143,238.5c0,0-2.606,8.969-2.103,13.969L813.22,261.129z
			"/>
		<g>
			<path d="M816.113,261.926c0.522-3.473,0.588-7.843-2.925-9.74c-0.239,1.828-0.478,3.655-0.717,5.483
				c33.823-5.426,67.646-10.851,101.469-16.277c-1.23-1.23-2.46-2.46-3.69-3.69c-1.349,4.725-2.496,9.832-2.21,14.766c1-1,2-2,3-3
				c-32.606,2.887-65.213,5.773-97.819,8.66c-3.823,0.338-3.856,6.341,0,6c32.606-2.887,65.213-5.773,97.819-8.66
				c1.552-0.137,3.101-1.262,3-3c-0.257-4.437,0.783-8.922,1.996-13.171c0.682-2.389-1.526-4.038-3.69-3.69
				c-33.823,5.426-67.646,10.851-101.469,16.277c-2.612,0.419-2.856,4.328-0.717,5.483c0.426,0.23,0.16,3.018,0.168,2.964
				C809.759,264.115,815.539,265.742,816.113,261.926z"/>
		</g>
	</g>
</g>
<g>
	<path fill="#FFFFFF" d="M815.476,324.238l13.591-39.152l19.216,0.957c0,0-15.011,52.06-25.818,59.101L815.476,324.238z"/>
	<g>
		<path fill="#FFFFFF" d="M818.369,325.035c4.53-13.051,9.06-26.102,13.591-39.152c-0.964,0.734-1.929,1.468-2.893,2.202
			c6.405,0.319,12.811,0.638,19.216,0.957c-0.964-1.266-1.929-2.532-2.893-3.798c-2.422,8.38-5.175,16.675-8.12,24.884
			c-2.43,6.775-5.059,13.488-8.161,19.986c-1.95,4.084-4.301,9.742-8.159,12.438c1.469,0.598,2.938,1.195,4.407,1.793
			c-2.329-6.969-4.659-13.937-6.988-20.906c-1.22-3.65-7.016-2.085-5.786,1.595c2.329,6.969,4.659,13.937,6.988,20.906
			c0.571,1.707,2.734,2.962,4.407,1.793c4.152-2.901,6.73-7.624,9.027-12.014c3.348-6.4,6.014-13.181,8.558-19.932
			c3.582-9.506,6.792-19.188,9.613-28.949c0.564-1.95-0.98-3.702-2.893-3.798c-6.405-0.319-12.811-0.638-19.216-0.957
			c-1.388-0.069-2.468,0.979-2.893,2.202c-4.53,13.051-9.06,26.102-13.591,39.152C811.311,327.106,817.109,328.667,818.369,325.035z
			"/>
	</g>
</g>
<g>
	<g>
		<path d="M753.791,345.273c-4.324,4.932-4.763,9.581-4.547,16.125c0.11,3.339,1.644,6.56,4.956,7.718
			c8.333,2.911,18.802-5.976,24.671-10.634c24.281-19.27,45.736-49.542,49.632-80.798c0.478-3.833-5.528-3.787-6,0
			c-3.378,27.105-21.414,52.127-40.813,70.417c-6.344,5.981-14.137,13.021-22.821,15.254c-6.946,1.787-3.779-10.483-0.836-13.84
			C760.573,346.62,756.346,342.358,753.791,345.273L753.791,345.273z"/>
	</g>
</g>
<g>
	<g>
		<path d="M802.428,382.493c29.686-26.111,45.717-64.353,53.029-102.51c0.724-3.78-5.058-5.393-5.786-1.595
			c-7.134,37.225-22.512,74.378-51.486,99.862C795.275,380.81,799.535,385.037,802.428,382.493L802.428,382.493z"/>
	</g>
</g>
<g>
	<g>
		<path d="M836.591,274.7c0.178-1.342-0.238,1.587-0.298,1.977c-0.34,2.215-0.737,4.419-1.161,6.619
			c-0.896,4.644-1.866,9.564-3.965,13.835c-1.7,3.459,3.474,6.501,5.181,3.028c3.827-7.787,5.111-16.927,6.243-25.459
			C843.099,270.874,837.092,270.923,836.591,274.7L836.591,274.7z"/>
	</g>
</g>
<g>
	<line fill="none" x1="791.504" y1="436.817" x2="783.783" y2="514.021"/>
	<g>
		<path d="M788.504,436.817c-2.573,25.735-5.147,51.469-7.72,77.204c-0.385,3.849,5.619,3.812,6,0
			c2.573-25.735,5.147-51.469,7.72-77.204C794.889,432.968,788.885,433.005,788.504,436.817L788.504,436.817z"/>
	</g>
</g>
<g>
	<path fill="#FFFFFF" d="M791.683,271.332c0.152,0,0.274,0.164,0.274,0.366s-0.123,0.366-0.274,0.366"/>
	<g>
		<path d="M790.886,274.225c0.036,0.01,0.071,0.019,0.107,0.029c-0.441-0.257-0.883-0.514-1.324-0.772
			c-0.108-0.137-0.215-0.275-0.323-0.412c-0.101-0.239-0.202-0.478-0.302-0.717c0.007,0.047,0.014,0.095,0.022,0.142
			c0-0.532,0-1.063,0-1.595c-0.007,0.047-0.014,0.095-0.022,0.142c0.101-0.239,0.202-0.478,0.302-0.717
			c0.108-0.137,0.215-0.275,0.323-0.412c0.441-0.257,0.883-0.514,1.324-0.772c-0.036,0.01-0.071,0.019-0.107,0.029
			c-1.578,0.425-2.527,2.121-2.095,3.69c0.435,1.582,2.112,2.52,3.69,2.095c1.463-0.394,2.477-1.746,2.477-3.259
			s-1.014-2.865-2.477-3.259c-1.578-0.425-3.255,0.513-3.69,2.095C788.359,272.104,789.307,273.8,790.886,274.225L790.886,274.225z"
			/>
	</g>
</g>
</svg>
