<?xml version="1.0" encoding="utf-8"?>
<!-- Generator: Adobe Illustrator 17.0.2, SVG Export Plug-In . SVG Version: 6.00 Build 0)  -->
<!DOCTYPE svg PUBLIC "-//W3C//DTD SVG 1.1//EN" "http://www.w3.org/Graphics/SVG/1.1/DTD/svg11.dtd">
<svg version="1.1" id="Lager_1" xmlns="http://www.w3.org/2000/svg" xmlns:xlink="http://www.w3.org/1999/xlink" x="0px" y="0px"
	 width="180.874px" height="312.245px" viewBox="743.341 236.15 180.874 312.245"
	 enable-background="new 743.341 236.15 180.874 312.245" xml:space="preserve">
<g>
	<g>
		<path fill="#FFFFFF" d="M750.873,429.614c0,0,28.855-1.255,17.564-26.346c-5.601-12.446-13.1-32.015-5.018-51.437
			s23.595-34.163,50.134-27.89c0,0-17.535-33.893-14.476-55.973c1.888-13.625,19.327-28.039,39.567-23.161
			c12.239,2.95,27.986,10.616,47.287,32.812l-9.65,4.825l-1.93,37.637c0,0,34.427,15.28,42.462,40.532
			c6.755,21.231,7.085,35.821-20.266,69.483"/>
		<g>
			<path d="M750.873,432.114c5.58-0.271,11.494-1.972,16.024-5.28c10.42-7.609,5.884-19.418,1.796-29.218
				c-3.692-8.851-6.186-18.127-6.319-27.756c-0.139-10.001,3.616-19.449,8.974-27.728c9.394-14.516,25.031-19.453,41.541-15.78
				c2.187,0.487,3.845-1.688,2.823-3.672c-3.936-7.645-7.1-15.732-9.754-23.9c-4.241-13.054-8.705-29.897,0.927-41.555
				c10.093-12.215,26.073-12.604,39.775-7.234c14.926,5.85,27.107,17.564,37.504,29.396c0.169-1.309,0.337-2.618,0.506-3.926
				c-3.217,1.608-6.434,3.217-9.65,4.825c-0.802,0.401-1.195,1.312-1.238,2.159c-0.643,12.546-1.287,25.091-1.93,37.637
				c-0.041,0.795,0.489,1.824,1.238,2.159c16.841,7.529,35.247,20.99,41.313,39.038c3.138,9.336,4.856,19.017,2.657,28.751
				c-3.249,14.38-13.238,27.095-22.28,38.3c-2.005,2.484,1.51,6.046,3.536,3.536c9.552-11.836,19.288-24.627,23.327-39.547
				c2.856-10.55,1.039-21.167-2.116-31.408c-6.105-19.818-25.57-34.785-43.913-42.987c0.413,0.72,0.826,1.439,1.238,2.159
				c0.643-12.546,1.287-25.091,1.93-37.637c-0.413,0.72-0.826,1.439-1.238,2.159c3.217-1.608,6.434-3.217,9.65-4.825
				c1.523-0.762,1.505-2.79,0.506-3.926c-19.179-21.826-56.472-50.906-83.503-23.107c-11.21,11.529-8.401,28.264-4.563,42.348
				c2.814,10.329,6.856,20.584,11.761,30.11c0.941-1.224,1.882-2.448,2.823-3.672c-14.557-3.238-28.755-0.982-39.936,9.316
				c-11.973,11.027-17.902,28.271-16.67,44.24c0.673,8.717,3.459,17.145,6.804,25.164c2.45,5.872,6.117,12.612,2.838,18.904
				c-2.839,5.448-10.644,7.68-16.38,7.959C747.664,427.271,747.648,432.271,750.873,432.114L750.873,432.114z"/>
		</g>
	</g>
	<g>
		<path fill="#FFFFFF" d="M787.496,519.846c0,0,20.266-128.351,16.406-166.953c0,0-20.121-0.097-19.156,24.03
			c0.965,24.126,38.624,62.679-27.6,77.783"/>
		<g>
			<path d="M789.907,520.511c3.624-22.971,6.79-46.023,9.669-69.098c2.319-18.584,4.398-37.207,5.87-55.879
				c1.11-14.081,2.305-28.533,0.956-42.64c-0.129-1.352-1.039-2.505-2.5-2.5c-8.092,0.03-15.654,5.016-19.152,12.205
				c-5.356,11.006-1.358,23.182,2.514,33.878c3.547,9.801,8.222,20.722,5.916,31.332c-3.431,15.784-23.26,21.338-36.699,24.486
				c-3.139,0.735-1.807,5.556,1.329,4.821c13.858-3.247,30.463-8.388,37.836-21.748c5.186-9.398,2.987-20.612-0.08-30.293
				c-3.07-9.69-8.121-19.295-8.353-29.629c-0.225-9.979,5.839-20.013,16.689-20.053c-0.833-0.833-1.667-1.667-2.5-2.5
				c1.316,13.761,0.169,27.828-0.873,41.567c-1.414,18.653-3.518,37.254-5.812,55.817c-2.844,23.013-6.018,45.999-9.632,68.904
				C784.588,522.335,789.406,523.689,789.907,520.511L789.907,520.511z"/>
		</g>
	</g>
	<g>
		<path fill="#FFFFFF" d="M787.496,519.846"/>
		<g>
			<path d="M787.496,522.346c3.224,0,3.224-5,0-5S784.272,522.346,787.496,522.346L787.496,522.346z"/>
		</g>
	</g>
	<g>
		<path fill="#FFFFFF" d="M871.455,336.487c0,0,28.951,86.854,3.86,167.918l21.231,7.72"/>
		<g>
			<path d="M869.044,337.152c5.657,17.046,8.927,35.138,11.25,52.895c4.952,37.86,3.785,77.002-7.39,113.693
				c-0.421,1.382,0.494,2.62,1.746,3.075c7.077,2.573,14.154,5.147,21.231,7.72c3.037,1.104,4.334-3.729,1.329-4.821
				c-7.077-2.573-14.154-5.147-21.231-7.72c0.582,1.025,1.164,2.05,1.746,3.075c11.322-37.175,12.43-76.668,7.568-115.023
				c-2.307-18.2-5.633-36.763-11.429-54.225C872.855,332.778,868.026,334.083,869.044,337.152L869.044,337.152z"/>
		</g>
	</g>
	<g>
		<path d="M849.669,451.9l-52.823,10.455l-7.852,61.555c0,0,62.559,15.983,61.629,7.697c-0.929-8.285-12.624-13.984-12.624-13.984
			L849.669,451.9z"/>
		<g>
			<path d="M849.004,449.489c-17.608,3.485-35.215,6.97-52.823,10.455c-1.179,0.233-1.701,1.354-1.835,2.411
				c-2.617,20.518-5.234,41.037-7.852,61.555c-0.136,1.07,0.862,2.162,1.835,2.411c15.191,3.874,30.611,7.352,46.161,9.401
				c4.669,0.615,14.462,2.788,17.946-1.76c2.243-2.928-0.896-8.001-2.753-10.261c-2.798-3.407-6.469-6.268-10.423-8.237
				c0.383,0.941,0.766,1.882,1.149,2.823c3.89-21.908,7.78-43.815,11.67-65.723c0.56-3.152-4.258-4.5-4.821-1.329
				c-3.89,21.908-7.78,43.815-11.669,65.723c-0.188,1.058,0.089,2.296,1.149,2.823c2.936,1.461,5.587,3.431,7.914,5.731
				c0.94,0.928,1.683,1.995,2.374,3.113c0.626,1.011,0.754,3.542,1.24,2.624c0.362-0.683-0.395-0.005-1.299,0.109
				c-6.805,0.862-14.221-0.796-20.891-1.944c-12.232-2.106-24.391-4.848-36.417-7.915c0.612,0.804,1.224,1.607,1.835,2.411
				c2.617-20.518,5.234-41.037,7.852-61.555c-0.612,0.804-1.224,1.607-1.835,2.411c17.608-3.485,35.215-6.97,52.823-10.455
				C853.495,453.685,852.153,448.866,849.004,449.489z"/>
		</g>
	</g>
	<g>
		<path d="M843.144,514.436l-1.978-53.732c0,0,41.824-9.904,49.522-9.904c0,0-5.798,45.595-11.009,50.467
			c0,0,32.958,16.291,22.71,20.055C894.647,524.166,843.144,514.436,843.144,514.436l0.016,0.181"/>
		<g>
			<path d="M845.644,514.436c-0.659-17.911-1.318-35.821-1.978-53.732c-0.612,0.804-1.224,1.607-1.835,2.411
				c7.1-1.68,14.219-3.284,21.348-4.838c8.868-1.933,18.38-4.81,27.509-4.977c-0.833-0.833-1.667-1.667-2.5-2.5
				c-0.949,7.43-2.098,14.839-3.37,22.22c-0.93,5.394-1.968,10.773-3.245,16.096c-0.736,3.069-1.374,7.991-3.662,10.383
				c-1.052,1.1-0.977,3.191,0.506,3.926c5.992,2.972,11.875,6.285,17.379,10.088c1.534,1.06,2.987,2.212,4.344,3.491
				c0.555,0.523,1.056,1.083,1.476,1.717c0.607,0.917-0.09,0.388,0.448-0.009c-2.047,1.509-6.67,0.608-8.972,0.474
				c-16.509-0.957-33.05-4.102-49.283-7.163c-1.46-0.275-3.323,0.673-3.165,2.411c0.005,0.06,0.011,0.12,0.016,0.181
				c0.289,3.184,5.292,3.212,5,0C845.655,514.556,845.649,514.496,845.644,514.436c-1.055,0.804-2.11,1.607-3.165,2.411
				c7.667,1.446,15.363,2.743,23.07,3.951c11.028,1.729,22.609,3.985,33.817,3.5c3.05-0.132,6.054-0.871,7.333-3.917
				c1.328-3.161-2.606-6.627-4.626-8.34c-6.244-5.295-13.823-9.308-21.133-12.932c0.169,1.309,0.337,2.618,0.506,3.926
				c2.467-2.579,3.371-6.658,4.283-9.985c1.588-5.798,2.676-11.742,3.727-17.656c1.45-8.161,2.682-16.371,3.732-24.594
				c0.171-1.338-1.266-2.523-2.5-2.5c-9.239,0.17-18.808,2.991-27.784,4.927c-7.483,1.614-14.952,3.304-22.402,5.066
				c-1.048,0.248-1.875,1.335-1.835,2.411c0.659,17.911,1.318,35.821,1.978,53.732C840.762,517.65,845.763,517.662,845.644,514.436
				L845.644,514.436z"/>
		</g>
	</g>
	<g>
		<line fill="none" x1="896.546" y1="408.866" x2="884.966" y2="423.342"/>
		<g>
			<path d="M894.779,407.098c-3.86,4.825-7.72,9.65-11.581,14.476c-1.993,2.491,1.521,6.053,3.536,3.536
				c3.86-4.825,7.72-9.65,11.581-14.476C900.307,408.143,896.793,404.58,894.779,407.098L894.779,407.098z"/>
		</g>
	</g>
	<g>
		<g>
			<path d="M876.949,363.737c3.75,2.369,7.085,5.476,9.918,8.87c7.129,8.542,4.499,17.25-4.128,23.484
				c-2.587,1.869-0.095,6.21,2.524,4.317c9.082-6.563,13.972-15.66,8.575-26.31c-3.032-5.984-8.742-11.127-14.365-14.679
				C876.737,357.693,874.231,362.021,876.949,363.737L876.949,363.737z"/>
		</g>
	</g>
	<g>
		<g>
			<path d="M822.722,282.145c6.946,19.636,31.431,25.227,49.698,24.031c3.2-0.209,3.221-5.211,0-5
				c-16.14,1.057-39.011-3.779-44.877-20.361C826.476,277.797,821.644,279.097,822.722,282.145L822.722,282.145z"/>
		</g>
	</g>
	<g>
		<ellipse fill="#FFFFFF" cx="853.372" cy="277.443" rx="0.306" ry="0.408"/>
		<g>
			<path d="M851.178,277.443c0.072-0.311,0.144-0.622,0.216-0.932c0.299-0.299,0.598-0.598,0.897-0.897
				c0.139-0.058,0.278-0.116,0.416-0.173c0.443,0,0.886,0,1.329,0c0.139,0.058,0.278,0.116,0.416,0.173
				c0.299,0.299,0.598,0.598,0.897,0.897c0.288,0.622,0.288,1.243,0,1.865c-0.299,0.299-0.598,0.598-0.897,0.897
				c-0.139,0.058-0.278,0.116-0.416,0.173c-0.443,0-0.886,0-1.329,0c-0.139-0.058-0.278-0.116-0.416-0.173
				c-0.299-0.299-0.598-0.598-0.897-0.897C851.322,278.064,851.25,277.754,851.178,277.443c0.084,0.691,0.22,1.256,0.732,1.768
				c0.467,0.467,1.107,0.732,1.768,0.732c1.239,0,2.664-1.144,2.5-2.5c-0.068-0.566-0.109-1.114-0.467-1.591
				c-0.584-0.778-1.328-1.317-2.339-1.317c-0.719,0-1.441,0.303-1.949,0.811c-0.596,0.596-0.76,1.293-0.858,2.097
				c-0.056,0.46,0.192,1.225,0.467,1.591c0.584,0.778,1.328,1.317,2.339,1.317c0.719,0,1.441-0.303,1.949-0.811
				c0.596-0.596,0.76-1.293,0.857-2.097c0.164-1.356-1.261-2.5-2.5-2.5c-0.66,0-1.301,0.266-1.768,0.732
				C851.399,276.187,851.262,276.752,851.178,277.443z"/>
		</g>
	</g>
</g>
<g>
	<g>
		<path d="M753.307,445.032c7.344-0.614,15.002-5.55,21.212-8.992c2.82-1.563,0.299-5.882-2.524-4.317
			c-4.831,2.677-9.744,5.281-14.939,7.185c-1.015,0.372-2.049,0.694-3.097,0.961c-0.409,0.104-1.59,0.242-0.653,0.163
			C750.118,440.298,750.092,445.301,753.307,445.032L753.307,445.032z"/>
	</g>
</g>
<g>
	<path d="M802.955,418.802c0,0,30.592-3.858,37.705,17.905l4.052,0.096c0,0,13.565-19.88,38.296-16.913
		c0,0,3.957-11.87,0.989-14.838c0,0-60.342-6.924-80.126-2.968C803.871,402.084,800.977,414.845,802.955,418.802z"/>
	<g>
		<path d="M802.955,421.802c13.095-1.594,29.927,1.852,34.812,15.702c0.457,1.296,1.481,2.169,2.893,2.202
			c2.379,0.056,5.147,0.731,6.713-1.49c1.102-1.562,2.885-3.375,4.458-4.875c8.448-8.051,19.622-11.629,31.176-10.451
			c1.354,0.138,2.508-1.026,2.893-2.202c1.397-4.267,5.397-17.809-2.093-18.657c-6.139-0.696-12.292-1.283-18.446-1.83
			c-11.263-1.001-22.551-1.793-33.853-2.173c-9.411-0.316-19.139-0.602-28.436,1.163c-0.966,0.183-1.885,1.151-2.095,2.095
			c-1.224,5.491-3.072,12.892-0.916,18.313c1.412,3.55,7.217,2.004,5.786-1.595c-1.765-4.439-0.089-10.613,0.916-15.122
			c-0.698,0.698-1.397,1.397-2.095,2.095c15.044-2.856,31.542-0.947,46.684,0.107c10.896,0.758,21.791,1.726,32.644,2.968
			c-0.863-0.495-1.727-0.991-2.59-1.486c2.235,2.922-0.251,9.346-1.292,12.526c0.964-0.734,1.929-1.468,2.893-2.202
			c-15.543-1.585-31.884,5.387-40.886,18.399c0.863-0.495,1.727-0.991,2.59-1.486c-1.351-0.032-2.701-0.064-4.052-0.096
			c0.964,0.734,1.929,1.468,2.893,2.202c-5.808-16.465-24.527-22.064-40.598-20.107C799.165,416.263,799.12,422.269,802.955,421.802
			z"/>
	</g>
</g>
<g>
	<ellipse fill="#FFFFFF" cx="822.031" cy="354.519" rx="0.306" ry="0.408"/>
	<g>
		<path d="M819.837,354.519c0.072-0.311,0.144-0.622,0.216-0.932c0.299-0.299,0.598-0.598,0.897-0.897
			c0.139-0.058,0.278-0.116,0.416-0.173c0.443,0,0.886,0,1.329,0c0.139,0.058,0.278,0.116,0.416,0.173
			c0.299,0.299,0.598,0.598,0.897,0.897c0.288,0.622,0.288,1.243,0,1.865c-0.299,0.299-0.598,0.598-0.897,0.897
			c-0.139,0.058-0.278,0.116-0.416,0.173c-0.443,0-0.886,0-1.329,0c-0.139-0.058-0.278-0.116-0.416-0.173
			c-0.299-0.299-0.598-0.598-0.897-0.897C819.981,355.141,819.909,354.83,819.837,354.519c0.084,0.691,0.22,1.256,0.732,1.768
			c0.467,0.467,1.107,0.732,1.768,0.732c1.239,0,2.664-1.144,2.5-2.5c-0.068-0.566-0.109-1.114-0.467-1.591
			c-0.584-0.778-1.328-1.317-2.339-1.317c-0.719,0-1.441,0.303-1.949,0.811c-0.596,0.596-0.76,1.293-0.858,2.097
			c-0.056,0.46,0.192,1.225,0.467,1.591c0.584,0.778,1.328,1.317,2.339,1.317c0.719,0,1.441-0.303,1.948-0.811
			c0.596-0.596,0.76-1.293,0.858-2.097c0.164-1.356-1.261-2.5-2.5-2.5c-0.66,0-1.301,0.266-1.768,0.732
			C820.057,353.263,819.92,353.828,819.837,354.519z"/>
	</g>
</g>
<g>
	<ellipse fill="#FFFFFF" cx="859.461" cy="354.525" rx="0.306" ry="0.408"/>
	<g>
		<path d="M857.267,354.525c0.072-0.311,0.144-0.622,0.216-0.932c0.299-0.299,0.598-0.598,0.897-0.897
			c0.139-0.058,0.278-0.116,0.416-0.173c0.443,0,0.886,0,1.329,0c0.139,0.058,0.278,0.116,0.416,0.173
			c0.299,0.299,0.598,0.598,0.897,0.897c0.288,0.622,0.288,1.243,0,1.865c-0.299,0.299-0.598,0.598-0.897,0.897
			c-0.139,0.058-0.278,0.116-0.416,0.173c-0.443,0-0.886,0-1.329,0c-0.139-0.058-0.278-0.116-0.416-0.173
			c-0.299-0.299-0.598-0.598-0.897-0.897C857.411,355.147,857.339,354.836,857.267,354.525c0.084,0.691,0.22,1.256,0.732,1.768
			c0.467,0.467,1.107,0.732,1.768,0.732c1.239,0,2.664-1.144,2.5-2.5c-0.068-0.566-0.109-1.114-0.467-1.591
			c-0.584-0.778-1.328-1.317-2.339-1.317c-0.719,0-1.441,0.303-1.948,0.811c-0.596,0.596-0.76,1.293-0.858,2.097
			c-0.056,0.46,0.192,1.225,0.467,1.591c0.584,0.778,1.328,1.317,2.339,1.317c0.719,0,1.441-0.303,1.949-0.811
			c0.596-0.596,0.76-1.293,0.858-2.097c0.164-1.356-1.261-2.5-2.5-2.5c-0.66,0-1.301,0.266-1.768,0.732
			C857.487,353.27,857.351,353.834,857.267,354.525z"/>
	</g>
</g>
<g>
	<line fill="none" x1="842.882" y1="438.205" x2="842.035" y2="455.228"/>
	<g>
		<path d="M839.882,438.205c-0.283,5.674-0.565,11.349-0.848,17.023c-0.193,3.869,5.808,3.85,6,0
			c0.283-5.674,0.565-11.349,0.848-17.023C846.075,434.336,840.074,434.354,839.882,438.205L839.882,438.205z"/>
	</g>
</g>
</svg>
