<?xml version="1.0" encoding="utf-8"?>
<!-- Generator: Adobe Illustrator 17.0.2, SVG Export Plug-In . SVG Version: 6.00 Build 0)  -->
<!DOCTYPE svg PUBLIC "-//W3C//DTD SVG 1.1//EN" "http://www.w3.org/Graphics/SVG/1.1/DTD/svg11.dtd">
<svg version="1.1" id="Lager_1" xmlns="http://www.w3.org/2000/svg" xmlns:xlink="http://www.w3.org/1999/xlink" x="0px" y="0px"
	 width="600px" height="600px" viewBox="-113.282 -150 600 600" enable-background="new -113.282 -150 600 600"
	 xml:space="preserve">
<g>
	<g>
		<g>
			<path fill="#FFFFFF" d="M64.458,248.499c0,0,58.013-2.523,35.313-52.969C88.51,170.507,73.433,131.163,89.682,92.115
				s47.438-68.685,100.795-56.073c0,0-35.254-68.143-29.104-112.535c3.796-27.393,38.857-56.373,79.55-46.566
				c24.607,5.931,56.266,21.344,95.071,65.969l-19.401,9.701l-3.88,75.67c0,0,69.216,30.721,85.371,81.49
				c13.581,42.685,14.245,72.019-40.745,139.697"/>
			<g>
				<path d="M64.422,253.527c11.235-0.547,23.139-3.959,32.261-10.62c20.936-15.288,11.824-39.014,3.611-58.703
					c-7.421-17.791-12.443-36.447-12.713-55.804c-0.279-20.133,7.268-39.141,18.054-55.808
					c18.883-29.179,50.345-39.08,83.515-31.702c4.409,0.981,7.712-3.414,5.664-7.395c-7.907-15.358-14.267-31.599-19.599-48.009
					c-8.537-26.275-17.508-60.141,1.876-83.599c20.286-24.55,52.422-25.316,79.958-14.522
					c30.011,11.764,54.507,35.327,75.413,59.119c0.33-2.636,0.659-5.274,0.991-7.909c-6.468,3.233-12.936,6.468-19.401,9.701
					c-1.588,0.794-2.397,2.62-2.483,4.3c-1.293,25.224-2.588,50.446-3.88,75.67c-0.084,1.631,0.977,3.701,2.515,4.389
					c33.827,15.123,70.843,42.183,83.028,78.438c6.313,18.784,9.773,38.264,5.348,57.849c-6.532,28.917-26.633,54.485-44.812,77.013
					c-4.027,4.99,3.068,12.125,7.147,7.071c19.2-23.792,38.763-49.513,46.883-79.5c5.738-21.197,2.091-42.527-4.248-63.102
					c-12.284-39.875-51.409-69.97-88.32-86.472c0.838,1.464,1.677,2.925,2.515,4.389c1.293-25.224,2.587-50.446,3.88-75.67
					c-0.828,1.434-1.655,2.867-2.483,4.3c6.468-3.233,12.936-6.468,19.401-9.701c3.08-1.54,2.998-5.625,0.991-7.909
					c-38.572-43.896-113.534-102.315-167.884-46.419c-22.516,23.157-16.87,56.801-9.164,85.089
					c5.662,20.779,13.792,41.417,23.658,60.581c1.888-2.465,3.776-4.93,5.664-7.395c-29.285-6.514-57.816-1.96-80.304,18.75
					c-24.05,22.15-35.972,56.815-33.495,88.891c1.353,17.53,6.946,34.468,13.672,50.593c4.936,11.832,12.306,25.391,5.702,38.067
					c-5.694,10.923-21.386,15.419-32.884,15.978C58.034,243.786,57.948,253.843,64.422,253.527L64.422,253.527z"/>
			</g>
		</g>
		<g>
			<path fill="#FFFFFF" d="M306.89,61.265c0,0,58.206,174.622,7.761,337.602l42.685,15.521L138.089,429.91
				c0,0,40.745-258.052,32.985-335.662c0,0-40.454-0.195-38.514,48.313c1.94,48.506,77.654,126.017-55.49,156.384"/>
			<g>
				<path d="M302.035,62.568c11.229,33.833,17.687,69.685,22.435,104.913c10.312,76.504,7.917,155.902-14.669,230.062
					c-0.846,2.781,1.007,5.262,3.522,6.176c14.228,5.173,28.457,10.348,42.685,15.521c0.454-3.291,0.909-6.584,1.363-9.876
					c-73.082,5.173-146.165,10.348-219.247,15.521c1.604,2.119,3.209,4.236,4.813,6.355c7.284-46.168,13.651-92.5,19.44-138.877
					c4.662-37.363,8.842-74.805,11.802-112.346c2.232-28.31,4.636-57.366,1.922-85.729c-0.259-2.702-2.047-5.075-4.992-5.064
					c-16.299,0.06-31.507,10.079-38.554,24.562c-10.756,22.104-2.716,46.574,5.058,68.054c7.137,19.717,16.541,41.692,11.9,63.038
					c-6.894,31.714-46.745,42.886-73.746,49.213c-6.319,1.48-3.697,11.186,2.602,9.711c27.892-6.536,61.281-16.87,76.118-43.757
					c10.414-18.871,5.991-41.407-0.167-60.844c-6.17-19.476-16.333-38.797-16.802-59.57c-0.45-20.043,11.695-40.273,33.517-40.353
					c-1.665-1.689-3.327-3.376-4.992-5.064c2.646,27.667,0.34,55.949-1.755,83.571c-2.843,37.502-7.073,74.9-11.685,112.221
					c-5.72,46.282-12.097,92.512-19.365,138.579c-0.464,2.949,1.279,6.605,4.813,6.355c73.082-5.173,146.165-10.348,219.247-15.521
					c5.782-0.41,6.781-7.905,1.363-9.876c-14.228-5.173-28.457-10.348-42.685-15.521c1.174,2.059,2.348,4.118,3.522,6.176
					c22.759-74.731,24.989-154.108,15.216-231.21c-4.638-36.593-11.317-73.911-22.97-109.02
					C309.713,53.84,299.992,56.408,302.035,62.568L302.035,62.568z"/>
			</g>
		</g>
		<g>
			<line fill="none" x1="248.684" y1="264.991" x2="233.161" y2="420.211"/>
			<g>
				<path d="M243.655,264.955c-5.173,51.741-10.348,103.479-15.521,155.22c-0.645,6.462,9.415,6.458,10.055,0.072
					c5.173-51.741,10.348-103.479,15.521-155.22C254.357,258.565,244.295,258.569,243.655,264.955L243.655,264.955z"/>
			</g>
		</g>
		<g>
			<line fill="none" x1="357.336" y1="206.784" x2="334.054" y2="235.889"/>
			<g>
				<path d="M353.764,203.248c-7.761,9.701-15.521,19.401-23.284,29.104c-4.003,5.004,3.09,12.142,7.147,7.071
					c7.761-9.701,15.521-19.401,23.284-29.104C364.914,205.315,357.819,198.177,353.764,203.248L353.764,203.248z"/>
			</g>
		</g>
		<g>
			<g>
				<path d="M317.96,116.066c7.537,4.761,14.243,11.022,19.936,17.841c14.329,17.168,8.999,34.679-8.326,47.199
					c-5.199,3.758-0.173,12.475,5.091,8.671c18.266-13.199,28.079-31.489,17.228-52.901c-6.102-12.041-17.588-22.371-28.901-29.516
					C317.494,103.89,312.49,112.61,317.96,116.066L317.96,116.066z"/>
			</g>
		</g>
		<g>
			<ellipse fill="#FFFFFF" cx="270.534" cy="-57.444" rx="0.615" ry="0.82"/>
			<g>
				<path d="M266.123-57.48c0.141-0.605,0.281-1.21,0.422-1.815c0.603-0.607,1.204-1.214,1.807-1.824
					c0.294-0.121,0.587-0.241,0.881-0.362c0.877,0.002,1.751,0.004,2.628,0.006c0.273,0.113,0.549,0.225,0.822,0.338
					c0.607,0.603,1.214,1.204,1.824,1.807c0.581,1.247,0.587,2.491,0.018,3.734c-0.603,0.607-1.204,1.214-1.807,1.824
					c-0.294,0.121-0.587,0.241-0.881,0.362c-0.877-0.002-1.751-0.004-2.628-0.006c-0.273-0.113-0.549-0.225-0.822-0.338
					c-0.607-0.603-1.214-1.204-1.822-1.807C266.417-56.201,266.27-56.841,266.123-57.48c0.171,1.409,0.438,2.569,1.492,3.611
					c0.927,0.915,2.195,1.446,3.5,1.454c2.473,0.016,5.394-2.266,5.065-4.992c-0.141-1.156-0.211-2.268-0.943-3.243
					c-1.162-1.548-2.654-2.628-4.662-2.64c-1.464-0.01-2.947,0.609-3.973,1.651c-1.168,1.182-1.514,2.573-1.705,4.162
					c-0.113,0.937,0.386,2.501,0.943,3.243c1.162,1.548,2.654,2.628,4.662,2.64c1.464,0.01,2.947-0.609,3.973-1.651
					c1.168-1.182,1.514-2.573,1.705-4.162c0.33-2.724-2.487-5.046-4.992-5.064c-1.345-0.008-2.664,0.535-3.611,1.492
					C266.577-59.967,266.288-58.841,266.123-57.48z"/>
			</g>
		</g>
	</g>
	<g>
		<g>
			<path d="M69.315,279.497c14.785-1.236,30.186-11.154,42.691-18.085c5.668-3.14,0.581-11.816-5.091-8.671
				c-9.697,5.374-19.562,10.609-29.993,14.434c-2.041,0.748-4.12,1.395-6.227,1.932c-0.818,0.209-3.199,0.493-1.311,0.336
				C62.972,269.979,62.862,280.038,69.315,279.497L69.315,279.497z"/>
		</g>
	</g>
</g>
<g>
	<path d="M182.487,14.84c0,0,85.779,18.438,129.871,6.414l4.009,18.438c0,0-38.481,15.232-136.285-4.009L182.487,14.84z"/>
	<g>
		<path d="M181.161,19.69c16.394,3.502,33.053,5.937,49.692,7.895c27.07,3.183,56.126,5.428,82.807-1.476
			c-2.053-1.184-4.103-2.368-6.156-3.555c1.337,6.146,2.672,12.292,4.009,18.438c1.184-2.053,2.37-4.103,3.555-6.156
			c-9.102,3.543-19.653,4.288-29.261,4.982c-34.876,2.511-70.239-2.37-104.396-8.983c1.232,1.629,2.467,3.257,3.699,4.886
			c0.802-6.948,1.602-13.897,2.405-20.843c0.744-6.448-9.321-6.434-10.055-0.072c-0.802,6.948-1.602,13.897-2.405,20.843
			c-0.241,2.087,1.681,4.494,3.699,4.886c34.551,6.689,69.968,11.444,105.231,9.453c10.961-0.619,23.304-1.399,33.684-5.438
			c2.652-1.031,4.186-3.251,3.555-6.156c-1.337-6.146-2.672-12.292-4.009-18.438c-0.587-2.696-3.601-4.216-6.156-3.555
			c-25.815,6.679-53.952,4.083-80.133,1.13c-15.777-1.779-31.577-4.218-47.11-7.537C177.489,8.64,174.819,18.335,181.161,19.69z"/>
	</g>
</g>
<g>
	<ellipse fill="#FFFFFF" cx="200.586" cy="27.786" rx="3.553" ry="3.094"/>
	<g>
		<path fill="#FFFFFF" d="M199.112,27.75c0.008-0.4,0.113-0.772,0.314-1.116c0.452-0.527,0.487-0.591,0.101-0.195
			c0.251-0.31,0.571-0.507,0.959-0.593c-0.557,0.133-0.511,0.135,0.139,0.008c0.603,0.131,0.635,0.131,0.092-0.002
			c0.358,0.086,0.655,0.269,0.895,0.549c-0.392-0.398-0.352-0.332,0.121,0.201c0.223,0.376,0.334,0.784,0.33,1.22
			c-0.008,0.4-0.113,0.772-0.314,1.116c-0.452,0.527-0.487,0.591-0.1,0.195c-0.251,0.31-0.571,0.507-0.959,0.593
			c0.557-0.133,0.511-0.135-0.139-0.008c-0.603-0.131-0.635-0.131-0.092,0.002c-0.358-0.086-0.655-0.269-0.895-0.549
			c0.392,0.398,0.352,0.332-0.121-0.201C199.219,28.594,199.108,28.188,199.112,27.75c0.181,2.73,2.105,5.044,4.992,5.064
			c2.586,0.018,5.245-2.256,5.065-4.992c-0.316-4.763-3.836-7.921-8.545-8.157c-4.666-0.235-8.324,3.655-8.617,8.084
			c-0.316,4.751,4.309,7.944,8.545,8.157c4.666,0.235,8.324-3.655,8.617-8.084c0.181-2.734-2.374-5.046-4.992-5.064
			C201.312,22.74,199.293,25.019,199.112,27.75z"/>
	</g>
</g>
<g>
	<ellipse cx="313.929" cy="-6.011" rx="28.023" ry="27.021"/>
	<g>
		<path d="M336.923-6.047c-1.405,28.491-44.583,28.58-45.989,0.072C289.529-34.476,335.524-34.446,336.923-6.047
			c0.318,6.458,10.374,6.546,10.055,0.072c-0.909-18.434-14.789-31.249-33.013-32.086c-18.169-0.832-32.237,14.801-33.085,32.011
			c-0.907,18.404,16.161,31.312,33.013,32.084c18.169,0.832,32.237-14.801,33.085-32.011C347.3-12.469,337.241-12.495,336.923-6.047
			z"/>
	</g>
</g>
<g>
	<g>
		<path d="M285.943-14.674c-40.216,1.228-86.135-1.427-122.732-19.269c-8.953-4.365-41.543-24.13-47.086-3.74
			c-5.127,18.867,23.531,15.736,32.902,12.218c-1.624-2.797-3.249-5.593-4.876-8.39c-6.671,6.582-26.336,24.295-16.993,34.476
			c6.603,7.194,21.498-0.806,26.448-6.184c5.553-6.03,6.351-14.602,6.162-22.381c-0.157-6.48-10.211-6.552-10.055-0.072
			c0.097,4.011-0.018,7.694-1.21,11.575c-1.204,3.912-4.481,6.655-8.157,8.145c-1.743,0.607-3.534,1.003-5.372,1.192
			c-2.708,0.277-0.416,2.322,0.131,0.569c2.362-7.56,10.668-14.797,16.191-20.248c3.374-3.329-0.052-10.201-4.876-8.39
			c-5.394,2.025-15.159,5.812-20.312,1.182c-2.71-2.435,9.361-1.703,10.475-1.454c10.431,2.34,19.299,9.572,29.112,13.621
			c10.008,4.13,20.354,7.081,30.914,9.429c28.943,6.434,59.622,8.679,89.257,7.775C292.346-4.817,292.423-14.871,285.943-14.674
			L285.943-14.674z"/>
	</g>
</g>
<g>
	<ellipse fill="#FFFFFF" cx="282.82" cy="121.345" rx="0.615" ry="0.82"/>
	<g>
		<path d="M278.409,121.309c0.141-0.605,0.282-1.21,0.422-1.815c0.603-0.607,1.204-1.214,1.807-1.824
			c0.294-0.121,0.587-0.241,0.881-0.362c0.877,0.002,1.751,0.004,2.628,0.006c0.273,0.113,0.549,0.225,0.822,0.338
			c0.607,0.603,1.214,1.204,1.822,1.807c0.581,1.247,0.587,2.491,0.018,3.734c-0.603,0.607-1.204,1.214-1.807,1.824
			c-0.294,0.121-0.587,0.241-0.881,0.362c-0.877-0.002-1.751-0.004-2.628-0.006c-0.273-0.113-0.549-0.225-0.822-0.338
			c-0.607-0.603-1.214-1.204-1.824-1.807C278.703,122.588,278.556,121.949,278.409,121.309c0.171,1.409,0.438,2.569,1.492,3.611
			c0.927,0.915,2.195,1.446,3.498,1.454c2.473,0.016,5.394-2.266,5.065-4.992c-0.141-1.156-0.211-2.268-0.943-3.243
			c-1.162-1.548-2.654-2.628-4.662-2.64c-1.464-0.01-2.947,0.611-3.973,1.651c-1.168,1.182-1.514,2.573-1.705,4.162
			c-0.113,0.937,0.386,2.501,0.943,3.243c1.162,1.548,2.654,2.628,4.662,2.64c1.464,0.01,2.947-0.609,3.973-1.651
			c1.168-1.182,1.514-2.573,1.705-4.162c0.33-2.724-2.487-5.046-4.992-5.064c-1.345-0.008-2.664,0.535-3.611,1.492
			C278.864,118.822,278.574,119.948,278.409,121.309z"/>
	</g>
</g>
<g>
	<ellipse fill="#FFFFFF" cx="215.277" cy="120.616" rx="0.615" ry="0.82"/>
	<g>
		<path d="M210.864,120.579c0.141-0.605,0.281-1.21,0.422-1.815c0.603-0.607,1.204-1.214,1.807-1.824
			c0.294-0.121,0.587-0.241,0.881-0.362c0.877,0.002,1.751,0.004,2.628,0.006c0.273,0.113,0.549,0.225,0.822,0.338
			c0.607,0.603,1.214,1.204,1.824,1.807c0.581,1.247,0.587,2.491,0.018,3.734c-0.603,0.607-1.204,1.214-1.807,1.824
			c-0.294,0.121-0.587,0.241-0.881,0.362c-0.877-0.002-1.751-0.004-2.628-0.006c-0.273-0.113-0.549-0.225-0.822-0.338
			c-0.607-0.603-1.214-1.204-1.824-1.807C211.157,121.86,211.011,121.219,210.864,120.579c0.171,1.409,0.438,2.569,1.492,3.611
			c0.927,0.915,2.196,1.446,3.5,1.454c2.473,0.016,5.394-2.266,5.065-4.992c-0.139-1.156-0.211-2.268-0.943-3.243
			c-1.162-1.548-2.654-2.628-4.662-2.64c-1.464-0.01-2.947,0.609-3.973,1.651c-1.168,1.182-1.514,2.573-1.705,4.162
			c-0.113,0.937,0.386,2.501,0.943,3.243c1.162,1.548,2.654,2.628,4.662,2.64c1.464,0.01,2.947-0.609,3.973-1.651
			c1.168-1.182,1.514-2.573,1.705-4.162c0.33-2.724-2.485-5.046-4.992-5.064c-1.345-0.008-2.664,0.535-3.611,1.492
			C211.318,118.092,211.029,119.218,210.864,120.579z"/>
	</g>
</g>
<g>
	<ellipse fill="#FFFFFF" cx="232.664" cy="33.027" rx="3.553" ry="3.094"/>
	<g>
		<path fill="#FFFFFF" d="M231.188,32.991c0.008-0.4,0.113-0.772,0.314-1.116c0.452-0.527,0.487-0.591,0.1-0.195
			c0.251-0.31,0.571-0.507,0.959-0.593c-0.557,0.133-0.511,0.135,0.139,0.008c0.603,0.131,0.635,0.131,0.092-0.002
			c0.358,0.086,0.655,0.269,0.895,0.549c-0.392-0.398-0.352-0.332,0.121,0.201c0.223,0.376,0.334,0.784,0.33,1.22
			c-0.008,0.4-0.113,0.772-0.314,1.116c-0.452,0.527-0.487,0.591-0.101,0.195c-0.251,0.31-0.571,0.507-0.959,0.593
			c0.557-0.133,0.511-0.135-0.139-0.008c-0.603-0.131-0.635-0.131-0.092,0.002c-0.358-0.086-0.655-0.269-0.895-0.549
			c0.392,0.398,0.352,0.332-0.121-0.201C231.295,33.836,231.186,33.429,231.188,32.991c0.181,2.73,2.105,5.044,4.992,5.064
			c2.586,0.018,5.245-2.256,5.065-4.992c-0.316-4.763-3.836-7.921-8.545-8.157c-4.666-0.235-8.324,3.655-8.617,8.084
			c-0.316,4.751,4.309,7.944,8.545,8.157c4.666,0.235,8.324-3.655,8.617-8.084c0.181-2.734-2.374-5.046-4.992-5.064
			C233.39,27.981,231.369,30.259,231.188,32.991z"/>
	</g>
</g>
<g>
	<ellipse fill="#FFFFFF" cx="263.447" cy="36.005" rx="3.553" ry="3.094"/>
	<g>
		<path fill="#FFFFFF" d="M261.973,35.969c0.008-0.4,0.113-0.772,0.314-1.116c0.452-0.527,0.487-0.591,0.101-0.195
			c0.251-0.31,0.571-0.507,0.959-0.593c-0.557,0.133-0.511,0.135,0.139,0.008c0.603,0.131,0.635,0.131,0.092-0.002
			c0.358,0.086,0.655,0.269,0.895,0.549c-0.392-0.398-0.352-0.332,0.121,0.201c0.223,0.376,0.334,0.784,0.33,1.22
			c-0.008,0.4-0.113,0.772-0.314,1.116c-0.452,0.527-0.487,0.591-0.1,0.195c-0.251,0.31-0.571,0.507-0.959,0.593
			c0.557-0.133,0.511-0.135-0.139-0.008c-0.603-0.131-0.635-0.131-0.092,0.002c-0.358-0.086-0.655-0.269-0.895-0.549
			c0.392,0.398,0.352,0.332-0.121-0.201C262.08,36.813,261.969,36.407,261.973,35.969c0.181,2.73,2.105,5.044,4.992,5.064
			c2.586,0.018,5.245-2.256,5.065-4.992c-0.316-4.763-3.836-7.921-8.545-8.157c-4.666-0.235-8.324,3.655-8.617,8.084
			c-0.316,4.751,4.309,7.944,8.545,8.157c4.666,0.235,8.324-3.655,8.617-8.084c0.181-2.734-2.374-5.046-4.992-5.064
			C264.173,30.959,262.154,33.236,261.973,35.969z"/>
	</g>
</g>
<g>
	<ellipse fill="#FFFFFF" cx="294.924" cy="35.148" rx="3.553" ry="3.094"/>
	<g>
		<path fill="#FFFFFF" d="M293.45,35.112c0.008-0.4,0.113-0.772,0.314-1.116c0.452-0.527,0.487-0.591,0.101-0.195
			c0.251-0.31,0.571-0.507,0.959-0.593c-0.557,0.133-0.511,0.135,0.139,0.008c0.603,0.131,0.635,0.131,0.092-0.002
			c0.358,0.086,0.655,0.269,0.895,0.549c-0.392-0.398-0.352-0.332,0.121,0.201c0.223,0.376,0.334,0.784,0.33,1.22
			c-0.008,0.4-0.113,0.772-0.314,1.116c-0.452,0.527-0.487,0.591-0.101,0.195c-0.251,0.31-0.571,0.507-0.959,0.593
			c0.557-0.133,0.511-0.135-0.139-0.008c-0.603-0.131-0.635-0.131-0.092,0.002c-0.358-0.086-0.655-0.269-0.895-0.549
			c0.392,0.398,0.352,0.332-0.121-0.201C293.557,35.957,293.446,35.551,293.45,35.112c0.181,2.73,2.105,5.044,4.992,5.064
			c2.586,0.018,5.245-2.256,5.065-4.992c-0.316-4.763-3.836-7.921-8.545-8.157c-4.666-0.235-8.324,3.655-8.617,8.084
			c-0.316,4.751,4.309,7.944,8.545,8.157c4.666,0.235,8.324-3.655,8.617-8.084c0.181-2.734-2.374-5.046-4.992-5.064
			C295.65,30.102,293.631,32.382,293.45,35.112z"/>
	</g>
</g>
<g>
	<g>
		<path d="M177.42,19.204c-19.153-4.234-38.645-7.194-58.096-9.637C84.58,5.203,48.47,2.557,13.759,8.528
			c-13.962,2.402-28.498,6.695-39.737,15.658c-14.948,11.922-17.647,34.665-17.558,52.53c0.13,25.995,11.775,49.223,25.736,70.46
			c12.2,18.558,26.479,35.63,40.576,52.749c4.184,5.08,8.635,10.136,12.057,15.782c4.708,7.766,6.55,18.43,7.279,27.344
			c1.617,19.797-4.955,39.018-15.138,55.745c-9.473,15.56-22.287,29.039-36.364,40.51c-8.795,7.168-19.285,15.198-30.392,18.353
			c-6.638,1.885-14.201-2.812-15.881-10.038c-1.819-7.825,2.915-16.606,6.677-23.063c3.15-5.407,7.685-9.056,13.188-11.912
			c11.115-5.769,24.591-7.138,36.925-7.167c5.076-0.012,10.202,0.286,15.205,1.17c1.737,0.307,3.458,0.72,5.13,1.285
			c0.569,0.192,0.223,0.043,0.924,0.419c0.562,0.302-0.248-0.408-0.162-0.21c2.056,4.719,8.947,0.642,6.908-4.038
			c-1.649-3.785-7.872-4.676-11.366-5.293c-7.486-1.323-15.172-1.53-22.75-1.188c-16.375,0.739-35.79,4.457-47.084,17.436
			c-10.785,12.395-18.888,36.709-2.133,47.663c9.565,6.254,19.673,2.245,28.643-2.693c29.174-16.058,55.593-43.72,68.318-74.576
			c7.667-18.591,9.689-38.708,4.732-58.283c-1.834-7.241-4.437-14.043-8.856-20.058c-4.791-6.522-10.074-12.69-15.224-18.927
			C8.629,170.28-5.923,152.084-17.821,132.085c-6.183-10.392-11.5-21.328-14.722-33.014c-3.882-14.084-3.87-29.296-1.025-43.563
			c1.591-7.979,3.959-16.932,9.933-22.79c4.471-4.384,10.169-7.577,15.914-9.971c14.727-6.137,31.06-8.123,46.861-9.042
			c30.177-1.756,60.678,1.033,90.55,5.242c15.262,2.15,30.546,4.643,45.603,7.971C180.321,28.029,182.457,20.317,177.42,19.204
			L177.42,19.204z"/>
	</g>
</g>
</svg>
