<?xml version="1.0" encoding="utf-8"?>
<!-- Generator: Adobe Illustrator 17.0.2, SVG Export Plug-In . SVG Version: 6.00 Build 0)  -->
<!DOCTYPE svg PUBLIC "-//W3C//DTD SVG 1.1//EN" "http://www.w3.org/Graphics/SVG/1.1/DTD/svg11.dtd">
<svg version="1.1" id="Lager_1" xmlns="http://www.w3.org/2000/svg" xmlns:xlink="http://www.w3.org/1999/xlink" x="0px" y="0px"
	 width="373.436px" height="312.099px" viewBox="555.723 218.995 373.436 312.099"
	 enable-background="new 555.723 218.995 373.436 312.099" xml:space="preserve">
<g>
	<g>
		<g>
			<path fill="#FFFFFF" d="M750.873,429.614c0,0,28.855-1.255,17.564-26.346c-5.601-12.446-13.1-32.015-5.018-51.437
				s23.595-34.163,50.134-27.89c0,0-17.535-33.893-14.476-55.973c1.888-13.625,19.327-28.039,39.567-23.161
				c12.239,2.95,27.986,10.616,47.287,32.812l-9.65,4.825l-1.93,37.637c0,0,34.427,15.28,42.462,40.532
				c6.755,21.231,7.085,35.821-20.266,69.483"/>
			<g>
				<path d="M750.855,432.115c5.588-0.272,11.509-1.969,16.046-5.282c10.413-7.604,5.881-19.405,1.796-29.198
					c-3.691-8.849-6.189-18.128-6.323-27.756c-0.139-10.014,3.615-19.468,8.98-27.758c9.392-14.513,25.041-19.438,41.539-15.768
					c2.193,0.488,3.836-1.698,2.817-3.678c-3.933-7.639-7.096-15.717-9.748-23.879c-4.246-13.069-8.708-29.913,0.933-41.581
					c10.09-12.211,26.074-12.592,39.77-7.223c14.927,5.851,27.111,17.571,37.509,29.405c0.164-1.311,0.328-2.623,0.493-3.934
					c-3.217,1.608-6.434,3.217-9.65,4.825c-0.79,0.395-1.192,1.303-1.235,2.139c-0.643,12.546-1.287,25.091-1.93,37.637
					c-0.042,0.811,0.486,1.841,1.251,2.183c16.825,7.522,35.236,20.981,41.297,39.014c3.14,9.343,4.861,19.032,2.66,28.773
					c-3.249,14.383-13.247,27.1-22.289,38.305c-2.003,2.482,1.526,6.031,3.555,3.517c9.55-11.834,19.28-24.627,23.319-39.542
					c2.854-10.543,1.04-21.152-2.113-31.386c-6.11-19.833-25.57-34.802-43.929-43.01c0.417,0.728,0.834,1.455,1.251,2.183
					c0.643-12.546,1.287-25.091,1.93-37.637c-0.412,0.713-0.823,1.426-1.235,2.139c3.217-1.608,6.434-3.217,9.65-4.825
					c1.532-0.766,1.491-2.798,0.493-3.934c-19.185-21.833-56.47-50.89-83.503-23.088c-11.199,11.518-8.391,28.252-4.558,42.322
					c2.816,10.335,6.86,20.6,11.767,30.132c0.939-1.226,1.878-2.452,2.817-3.678c-14.566-3.24-28.757-0.975-39.942,9.326
					c-11.962,11.017-17.892,28.259-16.66,44.213c0.673,8.719,3.455,17.144,6.8,25.164c2.455,5.885,6.121,12.629,2.836,18.934
					c-2.832,5.433-10.637,7.669-16.356,7.947C747.678,427.27,747.635,432.272,750.855,432.115L750.855,432.115z"/>
			</g>
		</g>
		<g>
			<path fill="#FFFFFF" d="M871.455,336.487c0,0,28.951,86.854,3.86,167.918l21.231,7.72l-109.05,7.72
				c0,0,20.266-128.351,16.406-166.953c0,0-20.121-0.097-19.156,24.03c0.965,24.126,38.624,62.679-27.6,77.783"/>
			<g>
				<path d="M869.04,337.135c5.585,16.828,8.797,34.66,11.159,52.182c5.129,38.052,3.938,77.543-7.296,114.429
					c-0.421,1.383,0.501,2.617,1.752,3.072c7.077,2.573,14.154,5.147,21.231,7.72c0.226-1.637,0.452-3.275,0.678-4.912
					c-36.35,2.573-72.7,5.147-109.05,7.72c0.798,1.054,1.596,2.107,2.394,3.161c3.623-22.963,6.79-46.008,9.669-69.075
					c2.319-18.584,4.398-37.207,5.87-55.879c1.11-14.081,2.306-28.533,0.956-42.64c-0.129-1.344-1.018-2.524-2.483-2.519
					c-8.107,0.03-15.671,5.013-19.176,12.217c-5.35,10.994-1.351,23.165,2.516,33.849c3.55,9.807,8.227,20.737,5.919,31.354
					c-3.429,15.774-23.25,21.331-36.68,24.478c-3.143,0.736-1.839,5.564,1.294,4.83c13.873-3.251,30.48-8.391,37.86-21.764
					c5.18-9.386,2.98-20.595-0.083-30.263c-3.069-9.687-8.124-19.297-8.357-29.629c-0.224-9.969,5.817-20.031,16.671-20.071
					c-0.828-0.84-1.655-1.679-2.483-2.519c1.316,13.761,0.169,27.828-0.873,41.567c-1.414,18.653-3.518,37.254-5.812,55.817
					c-2.845,23.02-6.017,46.014-9.632,68.927c-0.231,1.467,0.636,3.285,2.394,3.161c36.35-2.573,72.7-5.147,109.05-7.72
					c2.876-0.204,3.373-3.932,0.678-4.912c-7.077-2.573-14.154-5.147-21.231-7.72c0.584,1.024,1.168,2.048,1.752,3.072
					c11.32-37.17,12.429-76.651,7.568-115c-2.307-18.201-5.629-36.762-11.425-54.225
					C872.859,332.794,868.024,334.071,869.04,337.135L869.04,337.135z"/>
			</g>
		</g>
		<g>
			<line fill="none" x1="842.504" y1="437.817" x2="834.783" y2="515.021"/>
			<g>
				<path d="M840.003,437.799c-2.573,25.735-5.147,51.469-7.72,77.204c-0.321,3.214,4.683,3.212,5.001,0.036
					c2.573-25.735,5.147-51.469,7.72-77.204C845.326,434.621,840.321,434.623,840.003,437.799L840.003,437.799z"/>
			</g>
		</g>
		<g>
			<line fill="none" x1="896.546" y1="408.866" x2="884.966" y2="423.342"/>
			<g>
				<path d="M894.769,407.107c-3.86,4.825-7.72,9.65-11.581,14.476c-1.991,2.489,1.537,6.039,3.555,3.517
					c3.86-4.825,7.72-9.65,11.581-14.476C900.315,408.135,896.786,404.585,894.769,407.107L894.769,407.107z"/>
			</g>
		</g>
		<g>
			<g>
				<path d="M876.961,363.744c3.749,2.368,7.084,5.482,9.916,8.874c7.127,8.539,4.476,17.249-4.141,23.476
					c-2.586,1.869-0.086,6.205,2.532,4.313c9.085-6.565,13.966-15.662,8.569-26.312c-3.035-5.989-8.748-11.127-14.375-14.681
					C876.729,357.688,874.24,362.025,876.961,363.744L876.961,363.744z"/>
			</g>
		</g>
		<g>
			<ellipse fill="#FFFFFF" cx="853.372" cy="277.443" rx="0.306" ry="0.408"/>
			<g>
				<path d="M851.178,277.425c0.07-0.301,0.14-0.602,0.21-0.903c0.3-0.302,0.599-0.604,0.899-0.907
					c0.146-0.06,0.292-0.12,0.438-0.18c0.436,0.001,0.871,0.002,1.307,0.003c0.136,0.056,0.273,0.112,0.409,0.168
					c0.302,0.3,0.604,0.599,0.907,0.899c0.289,0.62,0.292,1.239,0.009,1.857c-0.3,0.302-0.599,0.604-0.899,0.907
					c-0.146,0.06-0.292,0.12-0.438,0.18c-0.436-0.001-0.871-0.002-1.307-0.003c-0.136-0.056-0.273-0.112-0.409-0.168
					c-0.302-0.3-0.604-0.599-0.906-0.899C851.324,278.061,851.251,277.743,851.178,277.425c0.085,0.701,0.218,1.278,0.742,1.796
					c0.461,0.455,1.092,0.719,1.741,0.723c1.23,0.008,2.683-1.127,2.519-2.483c-0.07-0.575-0.105-1.128-0.469-1.613
					c-0.578-0.77-1.32-1.307-2.319-1.313c-0.728-0.005-1.466,0.303-1.976,0.821c-0.581,0.588-0.753,1.28-0.848,2.07
					c-0.056,0.466,0.192,1.244,0.469,1.613c0.578,0.77,1.32,1.307,2.319,1.313c0.728,0.005,1.466-0.303,1.976-0.821
					c0.581-0.588,0.753-1.28,0.848-2.07c0.164-1.355-1.237-2.51-2.483-2.519c-0.669-0.004-1.325,0.266-1.796,0.742
					C851.404,276.188,851.26,276.748,851.178,277.425z"/>
			</g>
		</g>
	</g>
	<g>
		<g>
			<path d="M753.289,445.032c7.354-0.615,15.014-5.548,21.234-8.995c2.819-1.562,0.289-5.877-2.532-4.313
				c-4.823,2.673-9.73,5.277-14.918,7.179c-1.015,0.372-2.049,0.694-3.097,0.961c-0.407,0.104-1.591,0.245-0.652,0.167
				C750.134,440.298,750.079,445.301,753.289,445.032L753.289,445.032z"/>
		</g>
	</g>
</g>
<g>
	<path d="M809.579,313.396c0,0,42.665,9.171,64.596,3.19l1.994,9.171c0,0-19.14,7.576-67.786-1.994L809.579,313.396z"/>
	<g>
		<path d="M808.919,315.808c8.154,1.742,16.44,2.953,24.716,3.927c13.464,1.583,27.916,2.7,41.187-0.734
			c-1.021-0.589-2.041-1.178-3.062-1.768c0.665,3.057,1.329,6.114,1.994,9.171c0.589-1.021,1.179-2.041,1.768-3.062
			c-4.527,1.762-9.775,2.133-14.554,2.478c-17.347,1.249-34.936-1.179-51.925-4.468c0.613,0.81,1.227,1.62,1.84,2.43
			c0.399-3.456,0.797-6.912,1.196-10.367c0.37-3.207-4.636-3.2-5.001-0.036c-0.399,3.456-0.797,6.912-1.196,10.367
			c-0.12,1.038,0.836,2.235,1.84,2.43c17.185,3.327,34.801,5.692,52.34,4.702c5.452-0.308,11.591-0.696,16.754-2.705
			c1.319-0.513,2.082-1.617,1.768-3.062c-0.665-3.057-1.329-6.114-1.994-9.171c-0.292-1.341-1.791-2.097-3.062-1.768
			c-12.84,3.322-26.835,2.031-39.857,0.562c-7.847-0.885-15.706-2.098-23.432-3.749
			C807.093,310.312,805.765,315.134,808.919,315.808z"/>
	</g>
</g>
<g>
	<ellipse fill="#FFFFFF" cx="818.581" cy="319.835" rx="1.767" ry="1.539"/>
	<g>
		<path fill="#FFFFFF" d="M817.848,319.817c0.004-0.199,0.056-0.384,0.156-0.555c0.225-0.262,0.242-0.294,0.05-0.097
			c0.125-0.154,0.284-0.252,0.477-0.295c-0.277,0.066-0.254,0.067,0.069,0.004c0.3,0.065,0.316,0.065,0.046-0.001
			c0.178,0.043,0.326,0.134,0.445,0.273c-0.195-0.198-0.175-0.165,0.06,0.1c0.111,0.187,0.166,0.39,0.164,0.607
			c-0.004,0.199-0.056,0.384-0.156,0.555c-0.225,0.262-0.242,0.294-0.05,0.097c-0.125,0.154-0.284,0.252-0.477,0.295
			c0.277-0.066,0.254-0.067-0.069-0.004c-0.3-0.065-0.316-0.065-0.046,0.001c-0.178-0.043-0.326-0.134-0.445-0.273
			c0.195,0.198,0.175,0.165-0.06-0.1C817.901,320.237,817.846,320.035,817.848,319.817c0.09,1.358,1.047,2.509,2.483,2.519
			c1.286,0.009,2.609-1.122,2.519-2.483c-0.157-2.369-1.908-3.94-4.25-4.057c-2.321-0.117-4.14,1.818-4.286,4.021
			c-0.157,2.363,2.143,3.951,4.25,4.057c2.321,0.117,4.14-1.818,4.286-4.021c0.09-1.36-1.181-2.51-2.483-2.519
			C818.942,317.325,817.938,318.459,817.848,319.817z"/>
	</g>
</g>
<g>
	<g>
		<path d="M806.257,313.482c-27.338,3.896-65.246-1.3-84-25.439c-6.767-8.71-12.395-18.276-16.549-28.493
			c-2.405-5.915-4.453-12.015-8.476-17.077c-4.861-6.116-12.294-11.683-19.469-14.715c-5.715-2.415-12.457-2.16-18.514-1.726
			c-19.231,1.378-38.391,7.382-55.966,15.068c-9.01,3.94-17.739,8.706-25.556,14.697c-5.488,4.206-12.105,9.87-14.494,16.609
			c-4.52,12.751,15.721,8.243,21.381,6.567c6.09-1.803,12.162-4.256,17.633-7.5c5.742-3.405,7.416-8.306,9.969-14.329
			c2.47-5.824,4.812-11.707,7.071-17.616c1.154-3.018-3.684-4.301-4.823-1.32c-2.822,7.381-5.747,14.735-8.974,21.949
			c-2.45,5.476-6.022,7.43-11.414,9.945c-5.984,2.792-12.458,4.903-18.977,5.982c-3.575,0.592-9.081,1.412-6.467-3.484
			c4.002-7.495,11.969-13.138,18.938-17.597c8.799-5.63,18.432-9.96,28.197-13.61c16.643-6.221,35.803-11.812,53.769-10.427
			c7.157,0.552,13.347,5.046,18.74,9.483c5.158,4.243,8.288,9.593,10.744,15.708c6.91,17.2,15.82,35.24,31.126,46.496
			c21.291,15.657,51.687,19.325,77.407,15.659C810.739,317.858,809.407,313.033,806.257,313.482L806.257,313.482z"/>
	</g>
</g>
<g>
	<ellipse cx="874.956" cy="303.025" rx="13.938" ry="13.44"/>
	<g>
		<path d="M886.393,303.007c-0.699,14.171-22.175,14.215-22.874,0.036C862.82,288.867,885.697,288.882,886.393,303.007
			c0.158,3.212,5.16,3.256,5.001,0.036c-0.452-9.169-7.356-15.543-16.42-15.959c-9.037-0.414-16.034,7.362-16.456,15.922
			c-0.451,9.154,8.038,15.574,16.42,15.958c9.037,0.414,16.034-7.362,16.456-15.922C891.554,299.813,886.551,299.8,886.393,303.007z
			"/>
	</g>
</g>
<g>
	<g>
		<path d="M861.036,298.716c-20.003,0.611-42.842-0.71-61.045-9.584c-4.453-2.171-20.663-12.002-23.42-1.86
			c-2.55,9.384,11.704,7.827,16.365,6.077c-0.808-1.391-1.616-2.782-2.425-4.173c-3.318,3.274-13.099,12.084-8.452,17.148
			c3.284,3.578,10.693-0.401,13.155-3.076c2.762-2.999,3.159-7.263,3.065-11.132c-0.078-3.223-5.079-3.259-5.001-0.036
			c0.048,1.995-0.009,3.827-0.602,5.757c-0.599,1.946-2.229,3.31-4.057,4.051c-0.867,0.302-1.758,0.499-2.672,0.593
			c-1.347,0.138-0.207,1.155,0.065,0.283c1.175-3.76,5.306-7.36,8.053-10.071c1.678-1.656-0.026-5.074-2.425-4.173
			c-2.683,1.007-7.54,2.891-10.103,0.588c-1.348-1.211,4.656-0.847,5.21-0.723c5.188,1.164,9.599,4.761,14.48,6.775
			c4.978,2.054,10.124,3.522,15.376,4.69c14.396,3.2,29.655,4.317,44.395,3.867C864.221,303.619,864.259,298.618,861.036,298.716
			L861.036,298.716z"/>
	</g>
</g>
<g>
	<ellipse fill="#FFFFFF" cx="859.483" cy="366.37" rx="0.306" ry="0.408"/>
	<g>
		<path d="M857.289,366.352c0.07-0.301,0.14-0.602,0.21-0.903c0.3-0.302,0.599-0.604,0.899-0.907c0.146-0.06,0.292-0.12,0.438-0.18
			c0.436,0.001,0.871,0.002,1.307,0.003c0.136,0.056,0.273,0.112,0.409,0.168c0.302,0.3,0.604,0.599,0.906,0.899
			c0.289,0.62,0.292,1.239,0.009,1.857c-0.3,0.302-0.599,0.604-0.899,0.907c-0.146,0.06-0.292,0.12-0.438,0.18
			c-0.436-0.001-0.871-0.002-1.307-0.003c-0.136-0.056-0.273-0.112-0.409-0.168c-0.302-0.3-0.604-0.599-0.907-0.899
			C857.435,366.988,857.362,366.67,857.289,366.352c0.085,0.701,0.218,1.278,0.742,1.796c0.461,0.455,1.092,0.719,1.74,0.723
			c1.23,0.008,2.683-1.127,2.519-2.483c-0.07-0.575-0.105-1.128-0.469-1.613c-0.578-0.77-1.32-1.307-2.319-1.313
			c-0.728-0.005-1.466,0.304-1.976,0.821c-0.581,0.588-0.753,1.28-0.848,2.07c-0.056,0.466,0.192,1.244,0.469,1.613
			c0.578,0.77,1.32,1.307,2.319,1.313c0.728,0.005,1.466-0.303,1.976-0.821c0.581-0.588,0.753-1.28,0.848-2.07
			c0.164-1.355-1.237-2.51-2.483-2.519c-0.669-0.004-1.325,0.266-1.796,0.742C857.515,365.115,857.371,365.675,857.289,366.352z"/>
	</g>
</g>
<g>
	<ellipse fill="#FFFFFF" cx="825.888" cy="366.007" rx="0.306" ry="0.408"/>
	<g>
		<path d="M823.693,365.989c0.07-0.301,0.14-0.602,0.21-0.903c0.3-0.302,0.599-0.604,0.899-0.907c0.146-0.06,0.292-0.12,0.438-0.18
			c0.436,0.001,0.871,0.002,1.307,0.003c0.136,0.056,0.273,0.112,0.409,0.168c0.302,0.3,0.604,0.599,0.907,0.899
			c0.289,0.62,0.292,1.239,0.009,1.857c-0.3,0.302-0.599,0.604-0.899,0.907c-0.146,0.06-0.292,0.12-0.438,0.18
			c-0.436-0.001-0.871-0.002-1.307-0.003c-0.136-0.056-0.273-0.112-0.409-0.168c-0.302-0.3-0.604-0.599-0.907-0.899
			C823.839,366.626,823.766,366.307,823.693,365.989c0.085,0.701,0.218,1.278,0.742,1.796c0.461,0.455,1.092,0.719,1.741,0.723
			c1.23,0.008,2.683-1.127,2.519-2.483c-0.069-0.575-0.105-1.128-0.469-1.613c-0.578-0.77-1.32-1.307-2.319-1.313
			c-0.728-0.005-1.466,0.303-1.976,0.821c-0.581,0.588-0.753,1.28-0.848,2.07c-0.056,0.466,0.192,1.244,0.469,1.613
			c0.578,0.77,1.32,1.307,2.319,1.313c0.728,0.005,1.466-0.303,1.976-0.821c0.581-0.588,0.753-1.28,0.848-2.07
			c0.164-1.355-1.236-2.51-2.483-2.519c-0.669-0.004-1.325,0.266-1.796,0.742C823.919,364.752,823.775,365.312,823.693,365.989z"/>
	</g>
</g>
<g>
	<ellipse fill="#FFFFFF" cx="834.536" cy="322.442" rx="1.767" ry="1.539"/>
	<g>
		<path fill="#FFFFFF" d="M833.802,322.424c0.004-0.199,0.056-0.384,0.156-0.555c0.225-0.262,0.242-0.294,0.05-0.097
			c0.125-0.154,0.284-0.252,0.477-0.295c-0.277,0.066-0.254,0.067,0.069,0.004c0.3,0.065,0.316,0.065,0.046-0.001
			c0.178,0.043,0.326,0.134,0.445,0.273c-0.195-0.198-0.175-0.165,0.06,0.1c0.111,0.187,0.166,0.39,0.164,0.607
			c-0.004,0.199-0.056,0.384-0.156,0.555c-0.225,0.262-0.242,0.294-0.05,0.097c-0.125,0.154-0.284,0.252-0.477,0.295
			c0.277-0.066,0.254-0.067-0.069-0.004c-0.3-0.065-0.316-0.065-0.046,0.001c-0.178-0.043-0.326-0.134-0.445-0.273
			c0.195,0.198,0.175,0.165-0.06-0.1C833.855,322.844,833.801,322.642,833.802,322.424c0.09,1.358,1.047,2.509,2.483,2.519
			c1.286,0.009,2.609-1.122,2.519-2.483c-0.157-2.369-1.908-3.94-4.25-4.057c-2.321-0.117-4.14,1.818-4.286,4.021
			c-0.157,2.363,2.143,3.951,4.25,4.057c2.321,0.117,4.14-1.818,4.286-4.021c0.09-1.36-1.181-2.51-2.483-2.519
			C834.897,319.932,833.892,321.065,833.802,322.424z"/>
	</g>
</g>
<g>
	<ellipse fill="#FFFFFF" cx="849.847" cy="323.923" rx="1.767" ry="1.539"/>
	<g>
		<path fill="#FFFFFF" d="M849.114,323.905c0.004-0.199,0.056-0.384,0.156-0.555c0.225-0.262,0.242-0.294,0.05-0.097
			c0.125-0.154,0.284-0.252,0.477-0.295c-0.277,0.066-0.254,0.067,0.069,0.004c0.3,0.065,0.316,0.065,0.046-0.001
			c0.178,0.043,0.326,0.134,0.445,0.273c-0.195-0.198-0.175-0.165,0.06,0.1c0.111,0.187,0.166,0.39,0.164,0.607
			c-0.004,0.199-0.056,0.384-0.156,0.555c-0.225,0.262-0.242,0.294-0.05,0.097c-0.125,0.154-0.284,0.252-0.477,0.295
			c0.277-0.066,0.254-0.067-0.069-0.004c-0.3-0.065-0.316-0.065-0.046,0.001c-0.178-0.043-0.326-0.134-0.445-0.273
			c0.195,0.198,0.175,0.165-0.06-0.1C849.167,324.325,849.112,324.123,849.114,323.905c0.09,1.358,1.047,2.509,2.483,2.519
			c1.286,0.009,2.609-1.122,2.519-2.483c-0.157-2.369-1.908-3.94-4.25-4.057c-2.321-0.117-4.14,1.818-4.286,4.021
			c-0.157,2.363,2.143,3.951,4.25,4.057c2.321,0.117,4.14-1.818,4.286-4.021c0.09-1.36-1.181-2.51-2.483-2.519
			C850.208,321.413,849.204,322.546,849.114,323.905z"/>
	</g>
</g>
<g>
	<ellipse fill="#FFFFFF" cx="865.503" cy="323.497" rx="1.767" ry="1.539"/>
	<g>
		<path fill="#FFFFFF" d="M864.77,323.479c0.004-0.199,0.056-0.384,0.156-0.555c0.225-0.262,0.242-0.294,0.05-0.097
			c0.125-0.154,0.284-0.252,0.477-0.295c-0.277,0.066-0.254,0.067,0.069,0.004c0.3,0.065,0.316,0.065,0.046-0.001
			c0.178,0.043,0.326,0.134,0.445,0.273c-0.195-0.198-0.175-0.165,0.06,0.1c0.111,0.187,0.166,0.39,0.164,0.607
			c-0.004,0.199-0.056,0.384-0.156,0.555c-0.225,0.262-0.242,0.294-0.05,0.097c-0.125,0.154-0.284,0.252-0.477,0.295
			c0.277-0.066,0.254-0.067-0.069-0.004c-0.3-0.065-0.316-0.065-0.046,0.001c-0.178-0.043-0.326-0.134-0.445-0.273
			c0.195,0.198,0.175,0.165-0.06-0.1C864.823,323.899,864.768,323.697,864.77,323.479c0.09,1.358,1.047,2.509,2.483,2.519
			c1.286,0.009,2.609-1.122,2.519-2.483c-0.157-2.369-1.908-3.94-4.25-4.057c-2.321-0.117-4.14,1.818-4.286,4.021
			c-0.157,2.363,2.143,3.951,4.25,4.057c2.321,0.117,4.14-1.818,4.286-4.021c0.09-1.36-1.181-2.51-2.483-2.519
			C865.864,320.987,864.86,322.121,864.77,323.479z"/>
	</g>
</g>
</svg>
