<?xml version="1.0" encoding="utf-8"?>
<!-- Generator: Adobe Illustrator 17.0.2, SVG Export Plug-In . SVG Version: 6.00 Build 0)  -->
<!DOCTYPE svg PUBLIC "-//W3C//DTD SVG 1.1//EN" "http://www.w3.org/Graphics/SVG/1.1/DTD/svg11.dtd">
<svg version="1.1" id="Lager_1" xmlns="http://www.w3.org/2000/svg" xmlns:xlink="http://www.w3.org/1999/xlink" x="0px" y="0px"
	 width="185.815px" height="294.381px" viewBox="740.601 233.858 185.815 294.381"
	 enable-background="new 740.601 233.858 185.815 294.381" xml:space="preserve">
<g>
	<g>
		<path fill="#FFFFFF" d="M749.873,429.614c0,0,28.855-1.255,17.564-26.346c-5.601-12.446-13.1-32.015-5.018-51.437
			s23.595-34.163,50.134-27.89c0,0-17.535-33.893-14.476-55.973c1.888-13.625,19.327-28.039,39.567-23.161
			c12.239,2.95,27.986,10.616,47.287,32.812l-9.65,4.825l-1.93,37.637c0,0,34.427,15.28,42.462,40.532
			c6.755,21.231,7.085,35.821-20.266,69.483"/>
		<g>
			<path d="M749.873,432.114c5.58-0.271,11.494-1.972,16.024-5.28c10.42-7.609,5.884-19.418,1.796-29.218
				c-3.692-8.851-6.186-18.127-6.319-27.756c-0.139-10.001,3.616-19.449,8.974-27.728c9.394-14.516,25.031-19.453,41.541-15.78
				c2.187,0.487,3.845-1.688,2.823-3.672c-3.936-7.645-7.1-15.732-9.754-23.9c-4.241-13.054-8.705-29.897,0.927-41.555
				c10.093-12.215,26.073-12.604,39.775-7.234c14.926,5.85,27.107,17.564,37.504,29.396c0.169-1.309,0.337-2.618,0.506-3.926
				c-3.217,1.608-6.434,3.217-9.65,4.825c-0.802,0.401-1.195,1.312-1.238,2.159c-0.643,12.546-1.287,25.091-1.93,37.637
				c-0.041,0.795,0.489,1.824,1.238,2.159c16.841,7.529,35.247,20.99,41.313,39.038c3.138,9.336,4.856,19.017,2.657,28.751
				c-3.249,14.38-13.238,27.095-22.28,38.3c-2.005,2.484,1.51,6.046,3.536,3.536c9.552-11.836,19.288-24.627,23.327-39.547
				c2.856-10.55,1.039-21.167-2.116-31.408c-6.105-19.818-25.57-34.785-43.913-42.987c0.413,0.72,0.826,1.439,1.238,2.159
				c0.643-12.546,1.287-25.091,1.93-37.637c-0.413,0.72-0.826,1.439-1.238,2.159c3.217-1.608,6.434-3.217,9.65-4.825
				c1.523-0.762,1.505-2.79,0.506-3.926c-19.179-21.826-56.472-50.906-83.503-23.107c-11.21,11.529-8.401,28.264-4.563,42.348
				c2.814,10.329,6.856,20.584,11.761,30.11c0.941-1.224,1.882-2.448,2.823-3.672c-14.557-3.238-28.755-0.982-39.936,9.316
				c-11.973,11.027-17.902,28.271-16.67,44.24c0.673,8.717,3.459,17.145,6.804,25.164c2.45,5.872,6.117,12.612,2.838,18.904
				c-2.839,5.448-10.644,7.68-16.38,7.959C746.664,427.271,746.648,432.271,749.873,432.114L749.873,432.114z"/>
		</g>
	</g>
	<g>
		<path fill="#FFFFFF" d="M870.455,336.487c0,0,28.951,86.854,3.86,167.918l21.231,7.72l-109.05,7.72
			c0,0,20.266-128.351,16.406-166.953c0,0-20.121-0.097-19.156,24.03c0.965,24.126,38.624,62.679-27.6,77.783"/>
		<g>
			<path d="M868.044,337.152c5.657,17.046,8.927,35.138,11.25,52.895c4.952,37.86,3.785,77.002-7.39,113.693
				c-0.421,1.382,0.494,2.62,1.746,3.075c7.077,2.573,14.154,5.147,21.231,7.72c0.222-1.637,0.443-3.274,0.665-4.911
				c-36.35,2.573-72.7,5.147-109.05,7.72c0.804,1.055,1.607,2.11,2.411,3.165c3.624-22.971,6.79-46.023,9.669-69.098
				c2.319-18.584,4.398-37.207,5.87-55.879c1.11-14.081,2.305-28.533,0.956-42.64c-0.129-1.352-1.039-2.505-2.5-2.5
				c-8.092,0.03-15.654,5.016-19.152,12.205c-5.356,11.006-1.358,23.182,2.514,33.878c3.547,9.801,8.222,20.722,5.916,31.332
				c-3.431,15.784-23.26,21.338-36.699,24.486c-3.139,0.735-1.807,5.556,1.329,4.821c13.858-3.247,30.463-8.388,37.836-21.748
				c5.186-9.398,2.987-20.612-0.08-30.293c-3.07-9.69-8.121-19.295-8.353-29.629c-0.225-9.979,5.839-20.013,16.689-20.053
				c-0.833-0.833-1.667-1.667-2.5-2.5c1.316,13.761,0.169,27.828-0.873,41.567c-1.414,18.653-3.518,37.254-5.812,55.817
				c-2.844,23.013-6.018,45.999-9.632,68.904c-0.234,1.484,0.64,3.29,2.411,3.165c36.35-2.573,72.7-5.147,109.05-7.72
				c2.867-0.203,3.339-3.938,0.665-4.911c-7.077-2.573-14.154-5.147-21.231-7.72c0.582,1.025,1.164,2.05,1.746,3.075
				c11.322-37.175,12.43-76.668,7.568-115.023c-2.307-18.2-5.633-36.763-11.429-54.225
				C871.855,332.778,867.026,334.083,868.044,337.152L868.044,337.152z"/>
		</g>
	</g>
	<g>
		<line fill="none" x1="841.504" y1="437.817" x2="833.783" y2="515.021"/>
		<g>
			<path d="M839.004,437.817c-2.573,25.735-5.147,51.469-7.72,77.204c-0.321,3.208,4.682,3.177,5,0
				c2.573-25.735,5.147-51.469,7.72-77.204C844.325,434.609,839.322,434.64,839.004,437.817L839.004,437.817z"/>
		</g>
	</g>
	<g>
		<line fill="none" x1="895.546" y1="408.866" x2="883.966" y2="423.342"/>
		<g>
			<path d="M893.779,407.098c-3.86,4.825-7.72,9.65-11.581,14.476c-1.993,2.491,1.521,6.053,3.536,3.536
				c3.86-4.825,7.72-9.65,11.581-14.476C899.307,408.143,895.793,404.58,893.779,407.098L893.779,407.098z"/>
		</g>
	</g>
	<g>
		<g>
			<path d="M875.949,363.737c3.75,2.369,7.085,5.476,9.918,8.87c7.129,8.542,4.499,17.25-4.128,23.484
				c-2.587,1.869-0.095,6.21,2.524,4.317c9.082-6.563,13.972-15.66,8.575-26.31c-3.032-5.984-8.742-11.127-14.365-14.679
				C875.737,357.693,873.231,362.021,875.949,363.737L875.949,363.737z"/>
		</g>
	</g>
	<g>
		<g>
			<path d="M820.508,295.262c2.065,3.656,6.159,6.322,9.735,8.243c11.913,6.4,26.57,6.754,39.711,5.858c3.199-0.218,3.22-5.22,0-5
				c-12.183,0.831-25.307,0.614-36.521-4.834c-3.124-1.518-7.138-4.188-8.608-6.79C823.24,289.931,818.92,292.451,820.508,295.262
				L820.508,295.262z"/>
		</g>
	</g>
	<g>
		<ellipse fill="#FFFFFF" cx="852.372" cy="277.443" rx="0.306" ry="0.408"/>
		<g>
			<path d="M850.178,277.443c0.072-0.311,0.144-0.622,0.216-0.932c0.299-0.299,0.598-0.598,0.897-0.897
				c0.139-0.058,0.278-0.116,0.416-0.173c0.443,0,0.886,0,1.329,0c0.139,0.058,0.278,0.116,0.416,0.173
				c0.299,0.299,0.598,0.598,0.897,0.897c0.288,0.622,0.288,1.243,0,1.865c-0.299,0.299-0.598,0.598-0.897,0.897
				c-0.139,0.058-0.278,0.116-0.416,0.173c-0.443,0-0.886,0-1.329,0c-0.139-0.058-0.278-0.116-0.416-0.173
				c-0.299-0.299-0.598-0.598-0.897-0.897C850.322,278.064,850.25,277.754,850.178,277.443c0.084,0.691,0.22,1.256,0.732,1.768
				c0.467,0.467,1.107,0.732,1.768,0.732c1.239,0,2.664-1.144,2.5-2.5c-0.068-0.566-0.109-1.114-0.467-1.591
				c-0.584-0.778-1.328-1.317-2.339-1.317c-0.719,0-1.441,0.303-1.949,0.811c-0.596,0.596-0.76,1.293-0.858,2.097
				c-0.056,0.46,0.192,1.225,0.467,1.591c0.584,0.778,1.328,1.317,2.339,1.317c0.719,0,1.441-0.303,1.949-0.811
				c0.596-0.596,0.76-1.293,0.857-2.097c0.164-1.356-1.261-2.5-2.5-2.5c-0.66,0-1.301,0.266-1.768,0.732
				C850.399,276.187,850.262,276.752,850.178,277.443z"/>
		</g>
	</g>
	<g>
		<ellipse fill="#020202" cx="827.974" cy="360.444" rx="1.397" ry="1.863"/>
		<g>
			<path d="M826.872,360.444c0.027-0.582-0.166,0.363,0.091-0.197c-0.149,0.245-0.135,0.231,0.042-0.041
				c0.251-0.267,0.574-0.4,0.969-0.398c0.582-0.048,0.834,0.24,1.114,0.612c-0.135-0.241-0.137-0.23-0.007,0.033
				c-0.067-0.283-0.068-0.286-0.005-0.009c-0.016,0.069-0.031,0.137-0.047,0.206c0.083-0.283,0.068-0.286-0.044-0.008
				c0.15-0.245,0.135-0.231-0.042,0.041c-0.251,0.267-0.574,0.4-0.969,0.398c-0.582,0.048-0.834-0.24-1.114-0.612
				c0.135,0.241,0.137,0.23,0.007-0.033C826.934,360.718,826.936,360.721,826.872,360.444c0.063,1.361,1.089,2.5,2.5,2.5
				c1.315,0,2.563-1.138,2.5-2.5c-0.108-2.317-1.501-4.165-3.897-4.363c-0.986-0.082-2.041,0.514-2.696,1.202
				c-0.817,0.86-1.148,2.002-1.202,3.161c-0.108,2.31,1.669,4.179,3.897,4.363c0.986,0.082,2.041-0.514,2.696-1.202
				c0.818-0.86,1.148-2.002,1.202-3.161c0.063-1.362-1.185-2.5-2.5-2.5C827.961,357.944,826.935,359.083,826.872,360.444z"/>
		</g>
	</g>
	<g>
		<ellipse fill="#020202" cx="856.827" cy="361.235" rx="1.397" ry="1.863"/>
		<g>
			<path d="M855.724,361.235c0.027-0.582-0.166,0.363,0.091-0.197c-0.15,0.245-0.135,0.231,0.042-0.041
				c0.251-0.267,0.574-0.4,0.969-0.398c0.582-0.048,0.834,0.24,1.114,0.612c-0.135-0.241-0.137-0.23-0.007,0.033
				c-0.067-0.283-0.068-0.286-0.005-0.009c-0.016,0.069-0.031,0.137-0.047,0.206c0.083-0.283,0.068-0.286-0.044-0.009
				c0.15-0.245,0.135-0.231-0.042,0.041c-0.251,0.267-0.574,0.4-0.969,0.398c-0.582,0.048-0.834-0.24-1.114-0.612
				c0.135,0.241,0.137,0.23,0.007-0.033C855.787,361.509,855.788,361.512,855.724,361.235c0.063,1.361,1.089,2.5,2.5,2.5
				c1.315,0,2.563-1.138,2.5-2.5c-0.108-2.317-1.501-4.165-3.897-4.363c-0.986-0.082-2.041,0.514-2.696,1.202
				c-0.818,0.86-1.148,2.002-1.202,3.161c-0.108,2.31,1.669,4.179,3.897,4.363c0.986,0.082,2.041-0.514,2.696-1.202
				c0.818-0.86,1.148-2.002,1.202-3.161c0.063-1.362-1.185-2.5-2.5-2.5C856.814,358.735,855.788,359.874,855.724,361.235z"/>
		</g>
	</g>
</g>
<g>
	<g>
		<path d="M752.307,445.032c7.344-0.614,15.002-5.55,21.212-8.992c2.82-1.563,0.299-5.882-2.524-4.317
			c-4.831,2.677-9.744,5.281-14.939,7.185c-1.015,0.372-2.049,0.694-3.097,0.961c-0.409,0.104-1.59,0.242-0.653,0.163
			C749.118,440.298,749.092,445.301,752.307,445.032L752.307,445.032z"/>
	</g>
</g>
<g>
	<path d="M801.754,268.53c0,0,42.358,30.074,70.737,27.956l2.118-14.402l9.319-4.236l-11.86-11.86l-69.467-5.93L801.754,268.53z"/>
	<g>
		<path d="M800.493,270.689c8.16,5.775,16.923,10.798,25.821,15.33c14.012,7.136,30.138,13.928,46.178,12.968
			c1.011-0.061,2.245-0.708,2.411-1.835c0.644-4.382,1.289-8.764,1.933-13.146c0.287-1.949,0.42-0.39-0.86,0.191
			c0.948-0.431,1.896-0.862,2.844-1.293c2.123-0.965,4.247-1.93,6.37-2.896c1.492-0.678,1.558-2.875,0.506-3.926
			c-2.649-2.649-5.298-5.298-7.946-7.946c-1.635-1.635-3.496-4.459-5.976-4.671c-6.805-0.581-13.61-1.162-20.415-1.743
			c-16.252-1.387-32.505-2.775-48.757-4.162c-1.455-0.124-2.374,1.238-2.5,2.5c-0.282,2.824-0.565,5.648-0.847,8.472
			c-0.321,3.208,4.682,3.177,5,0c0.282-2.824,0.565-5.648,0.847-8.472c-0.833,0.833-1.667,1.667-2.5,2.5
			c15.635,1.335,31.269,2.669,46.904,4.004c7.138,0.609,14.276,1.219,21.415,1.828c1.881,0.161,0.463,0.448-0.568-0.583
			c1.076,1.076,2.152,2.152,3.228,3.228c2.86,2.86,5.72,5.72,8.581,8.581c0.169-1.309,0.337-2.618,0.506-3.926
			c-2.234,1.015-10.061,2.963-10.48,5.816c-0.702,4.772-1.403,9.543-2.105,14.315c0.804-0.612,1.607-1.224,2.411-1.835
			c-16.007,0.958-31.933-6.218-45.83-13.401c-8.144-4.209-16.156-8.913-23.646-14.214
			C800.378,264.504,797.884,268.842,800.493,270.689z"/>
	</g>
</g>
<g>
	<g>
		<ellipse fill="#FFFFFF" cx="853.931" cy="278.154" rx="3.317" ry="4.423"/>
		<g>
			<path fill="#FFFFFF" d="M854.748,278.154c-0.028,0.593-0.324,1.882-0.817,1.923c-0.483,0.04-0.792-1.395-0.817-1.923
				c-0.028-0.596,0.361-1.885,0.817-1.923C854.414,276.191,854.724,277.626,854.748,278.154c0.15,3.21,5.15,3.225,5,0
				c-0.163-3.508-2.097-6.615-5.817-6.923c-3.703-0.307-5.676,3.888-5.817,6.923c-0.163,3.498,2.338,6.635,5.817,6.923
				c3.703,0.307,5.676-3.888,5.817-6.923C859.899,274.929,854.898,274.944,854.748,278.154z"/>
		</g>
	</g>
	<g>
		<ellipse fill="#FFFFFF" cx="853.372" cy="277.443" rx="0.306" ry="0.408"/>
		<g>
			<path d="M851.178,277.443c0.072-0.311,0.144-0.622,0.216-0.932c0.299-0.299,0.598-0.598,0.897-0.897
				c0.139-0.058,0.278-0.116,0.416-0.173c0.443,0,0.886,0,1.329,0c0.139,0.058,0.278,0.116,0.416,0.173
				c0.299,0.299,0.598,0.598,0.897,0.897c0.288,0.622,0.288,1.243,0,1.865c-0.299,0.299-0.598,0.598-0.897,0.897
				c-0.139,0.058-0.278,0.116-0.416,0.173c-0.443,0-0.886,0-1.329,0c-0.139-0.058-0.278-0.116-0.416-0.173
				c-0.299-0.299-0.598-0.598-0.897-0.897C851.322,278.064,851.25,277.754,851.178,277.443c0.084,0.691,0.22,1.256,0.732,1.768
				c0.467,0.467,1.107,0.732,1.768,0.732c1.239,0,2.664-1.144,2.5-2.5c-0.068-0.566-0.109-1.114-0.467-1.591
				c-0.584-0.778-1.328-1.317-2.339-1.317c-0.719,0-1.441,0.303-1.949,0.811c-0.596,0.596-0.76,1.293-0.858,2.097
				c-0.056,0.46,0.192,1.225,0.467,1.591c0.584,0.778,1.328,1.317,2.339,1.317c0.719,0,1.441-0.303,1.949-0.811
				c0.596-0.596,0.76-1.293,0.857-2.097c0.164-1.356-1.261-2.5-2.5-2.5c-0.66,0-1.301,0.266-1.768,0.732
				C851.399,276.187,851.262,276.752,851.178,277.443z"/>
		</g>
	</g>
</g>
<g>
	<path fill="#020202" d="M799.663,259.176c0,0-7.5-19.499-28.499-13.499C771.165,245.676,784.664,265.175,799.663,259.176z"/>
	<g>
		<path d="M802.074,258.511c-5.115-12.98-18.375-18.7-31.574-15.245c-1.47,0.385-2.426,2.343-1.494,3.672
			c6.832,9.741,18.91,19.065,31.322,14.648c3.015-1.073,1.716-5.905-1.329-4.821c-10.151,3.612-20.088-4.383-25.675-12.35
			c-0.498,1.224-0.996,2.448-1.494,3.673c7.302-1.911,14.323-1.058,20.001,4.146c1.626,1.49,2.949,3.26,4.101,5.13
			c0.356,0.578,1.542,3.039,1.321,2.478C798.421,262.804,803.258,261.514,802.074,258.511z"/>
	</g>
</g>
<g>
	<path fill="#020202" d="M798.129,261.363c0,0-13.499-4.5-22.499,6C775.63,267.363,787.629,277.862,798.129,261.363z"/>
	<g>
		<path d="M798.793,258.952c-8.844-2.845-18.716-0.146-24.931,6.643c-0.864,0.943-1.069,2.622,0,3.536
			c2.685,2.294,5.985,3.511,9.453,3.963c7.399,0.963,13.228-4.876,16.973-10.468c1.8-2.688-2.533-5.188-4.317-2.524
			c-3.086,4.608-7.448,8.978-13.442,7.851c-1.739-0.327-4.347-1.688-5.13-2.357c0,1.178,0,2.357,0,3.536
			c5.081-5.549,12.849-7.678,20.067-5.357C800.542,264.764,801.85,259.936,798.793,258.952z"/>
	</g>
</g>
</svg>
