<?xml version="1.0" encoding="utf-8"?>
<!-- Generator: Adobe Illustrator 17.0.2, SVG Export Plug-In . SVG Version: 6.00 Build 0)  -->
<!DOCTYPE svg PUBLIC "-//W3C//DTD SVG 1.1//EN" "http://www.w3.org/Graphics/SVG/1.1/DTD/svg11.dtd">
<svg version="1.1" id="Lager_1" xmlns="http://www.w3.org/2000/svg" xmlns:xlink="http://www.w3.org/1999/xlink" x="0px" y="0px"
	 width="600px" height="600px" viewBox="-207.092 -152.81 600 600" enable-background="new -207.092 -152.81 600 600"
	 xml:space="preserve">
<g>
	<g>
		<path fill="#FFFFFF" d="M-71.634,245.228c0,0,48.77-2.566,25.687-53.863C-57.398,165.92-72.73,125.912-56.206,86.204
			S-7.97,16.36,46.288,29.184c0,0-35.85-69.293-29.596-114.434c3.86-27.856,39.513-57.324,80.893-47.352
			c25.022,6.031,57.216,21.704,96.676,67.083l-19.729,9.864l-3.946,76.947c0,0,70.384,31.239,86.812,82.866
			c13.81,43.406,14.485,73.234-41.433,142.055"/>
		<g>
			<path d="M-71.634,250.339c11.408-0.554,13.277-4.032,22.538-10.795c21.303-15.556,12.03-39.699,3.672-59.735
				c-7.548-18.095-12.647-37.06-12.919-56.746c-0.284-20.447,7.393-39.763,18.347-56.689c19.206-29.677,51.175-39.771,84.929-32.261
				c4.471,0.996,7.861-3.451,5.771-7.507c-8.047-15.63-14.516-32.163-19.942-48.862c-8.671-26.688-17.797-61.123,1.895-84.957
				c20.635-24.973,53.305-25.768,81.318-14.79c30.516,11.96,55.419,35.909,76.675,60.099c0.346-2.676,0.689-5.352,1.034-8.027
				c-6.577,3.287-13.154,6.577-19.729,9.864c-1.64,0.82-2.443,2.682-2.531,4.414c-1.315,25.65-2.631,51.297-3.946,76.947
				c-0.084,1.625,1,3.729,2.531,4.414c34.431,15.393,72.061,42.913,84.463,79.811c6.416,19.087,9.928,38.879,5.432,58.78
				c-6.642,29.399-27.064,55.394-45.55,78.303c-4.099,5.078,3.087,12.361,7.229,7.229c19.529-24.198,39.433-50.349,47.691-80.852
				c5.839-21.569,2.124-43.275-4.326-64.212c-12.481-40.517-52.277-71.116-89.778-87.885c0.844,1.472,1.689,2.942,2.531,4.414
				c1.315-25.65,2.631-51.297,3.946-76.947c-0.844,1.472-1.689,2.942-2.531,4.414c6.577-3.287,13.154-6.577,19.729-9.864
				c3.114-1.558,3.077-5.704,1.034-8.027c-39.213-44.622-115.456-104.075-170.72-47.241C4.242-92.798,9.985-58.584,17.831-29.79
				c5.753,21.117,14.017,42.083,24.045,61.559c1.924-2.502,3.848-5.005,5.771-7.507C17.887,17.641-11.141,22.254-34,43.308
				c-24.478,22.544-36.6,57.799-34.081,90.447c1.376,17.822,7.072,35.052,13.91,51.447c5.009,12.005,12.506,25.785,5.802,38.648
				c-5.804,11.138-11.539,15.701-23.266,16.272C-78.195,240.438-78.227,250.66-71.634,250.339L-71.634,250.339z"/>
		</g>
	</g>
	<g>
		<path fill="#FFFFFF" d="M164.668,54.834c0,0,59.189,177.569,7.892,343.301l43.406,15.783L-6.982,429.701
			c0,0,41.433-262.408,33.541-341.328c0,0-41.136-0.198-39.164,49.128c1.973,49.325,78.965,128.144-56.427,159.024"/>
		<g>
			<path d="M159.739,56.194c11.565,34.85,18.251,71.838,23,108.141c10.124,77.403,7.738,157.427-15.109,232.44
				c-0.861,2.825,1.01,5.356,3.57,6.287c14.469,5.26,28.937,10.523,43.406,15.783c0.454-3.347,0.906-6.694,1.36-10.04
				c-74.316,5.26-148.632,10.523-222.948,15.783c1.644,2.157,3.285,4.314,4.929,6.471c7.409-46.963,13.882-94.092,19.768-141.268
				c4.741-37.994,8.992-76.068,12.001-114.242c2.269-28.788,4.712-58.334,1.955-87.176c-0.264-2.764-2.124-5.121-5.111-5.111
				c-16.544,0.061-32.004,10.255-39.155,24.953c-10.95,22.501-2.776,47.395,5.14,69.262c7.252,20.038,16.81,42.365,12.095,64.057
				c-7.015,32.27-47.554,43.625-75.029,50.061c-6.418,1.503-3.694,11.359,2.717,9.856c28.332-6.638,62.28-17.149,77.354-44.463
				c10.603-19.214,6.107-42.14-0.164-61.933C3.24,175.244-7.086,155.607-7.561,134.48c-0.46-20.402,11.938-40.916,34.12-40.997
				c-1.703-1.703-3.408-3.408-5.111-5.111c2.691,28.134,0.346,56.893-1.785,84.982c-2.891,38.135-7.192,76.164-11.882,114.115
				C1.966,334.518-4.523,381.511-11.911,428.34c-0.478,3.034,1.308,6.726,4.929,6.471c74.316-5.26,148.632-10.523,222.948-15.783
				c5.861-0.415,6.826-8.051,1.36-10.04c-14.469-5.26-28.937-10.523-43.406-15.783c1.19,2.096,2.38,4.191,3.57,6.287
				c23.147-76.003,25.413-156.744,15.472-235.159c-4.717-37.209-11.516-75.16-23.366-110.861
				C167.53,47.251,157.658,49.919,159.739,56.194L159.739,56.194z"/>
		</g>
	</g>
	<g>
		<line fill="none" x1="105.479" y1="261.999" x2="89.694" y2="419.839"/>
		<g>
			<path d="M100.368,261.999c-5.26,52.614-10.523,105.226-15.783,157.84c-0.656,6.559,9.572,6.495,10.222,0
				c5.26-52.614,10.523-105.226,15.783-157.84C111.247,255.44,101.018,255.503,100.368,261.999L100.368,261.999z"/>
		</g>
	</g>
	<g>
		<line fill="none" x1="215.966" y1="202.81" x2="192.291" y2="232.405"/>
		<g>
			<path d="M217.04,190.989c-8.076,10.095-15.64,19.55-23.677,29.596c-4.075,5.093,3.11,12.375,7.229,7.229
				c7.892-9.864,15.783-19.729,23.677-29.596C228.342,193.126,221.157,185.841,217.04,190.989L217.04,190.989z"/>
		</g>
	</g>
	<g>
		<g>
			<path d="M175.9,110.546c7.667,4.843,14.485,11.195,20.277,18.134c14.575,17.464,9.198,35.267-8.44,48.012
				c-5.289,3.821-0.194,12.696,5.16,8.826c18.568-13.418,28.565-32.016,17.531-53.79c-6.199-12.234-17.873-22.749-29.369-30.011
				C175.467,98.189,170.344,107.037,175.9,110.546L175.9,110.546z"/>
		</g>
	</g>
	<g>
		<g>
			<path d="M62.554-29.448c4.222,7.475,12.592,12.925,19.903,16.852C106.812,0.488,136.778,1.212,163.644-0.62
				c6.54-0.446,6.583-10.672,0-10.222c-24.908,1.699-51.739,1.255-74.665-9.883c-6.387-3.103-14.593-8.562-17.599-13.882
				C68.139-40.347,59.307-35.195,62.554-29.448L62.554-29.448z"/>
		</g>
	</g>
	<g>
		<ellipse fill="#FFFFFF" cx="127.698" cy="-65.879" rx="0.626" ry="0.834"/>
		<g>
			<path d="M123.211-65.879c0.147-0.636,0.294-1.272,0.442-1.905c0.611-0.611,1.223-1.223,1.834-1.834
				c0.284-0.119,0.568-0.237,0.85-0.354c0.906,0,1.811,0,2.717,0c0.284,0.119,0.568,0.237,0.85,0.354
				c0.611,0.611,1.223,1.223,1.834,1.834c0.589,1.272,0.589,2.541,0,3.813c-0.611,0.611-1.223,1.223-1.834,1.834
				c-0.284,0.119-0.568,0.237-0.85,0.354c-0.906,0-1.811,0-2.717,0c-0.284-0.119-0.568-0.237-0.85-0.354
				c-0.611-0.611-1.223-1.223-1.834-1.834C123.507-64.609,123.36-65.243,123.211-65.879c0.172,1.413,0.45,2.568,1.497,3.615
				c0.955,0.955,2.263,1.497,3.615,1.497c2.533,0,5.446-2.339,5.111-5.111c-0.139-1.157-0.223-2.278-0.955-3.253
				c-1.194-1.591-2.715-2.693-4.782-2.693c-1.47,0-2.946,0.619-3.985,1.658c-1.218,1.218-1.554,2.643-1.754,4.287
				c-0.114,0.94,0.393,2.504,0.955,3.253c1.194,1.591,2.715,2.693,4.782,2.693c1.47,0,2.946-0.619,3.985-1.658
				c1.219-1.218,1.554-2.643,1.752-4.287c0.335-2.772-2.578-5.111-5.111-5.111c-1.349,0-2.66,0.544-3.615,1.497
				C123.665-68.446,123.385-67.291,123.211-65.879z"/>
		</g>
	</g>
	<g>
		<ellipse fill="#020202" cx="81.103" cy="107.495" rx="1.679" ry="2.24"/>
		<g>
			<path d="M79.778,107.495c0.032-0.7-0.2,0.436,0.109-0.237c-0.179,0.295-0.162,0.278,0.05-0.049
				c0.302-0.321,0.69-0.481,1.165-0.478c0.7-0.058,1.003,0.289,1.339,0.736c-0.162-0.29-0.165-0.276-0.008,0.04
				c-0.081-0.34-0.082-0.344-0.006-0.011c-0.019,0.083-0.037,0.165-0.056,0.248c0.1-0.34,0.082-0.344-0.053-0.01
				c0.18-0.295,0.162-0.278-0.05,0.049c-0.302,0.321-0.69,0.481-1.165,0.478c-0.7,0.058-1.003-0.288-1.339-0.736
				c0.162,0.29,0.165,0.276,0.008-0.04C79.853,107.824,79.854,107.828,79.778,107.495c0.076,1.636,1.309,3.005,3.005,3.005
				c1.581,0,3.081-1.368,3.005-3.005c-0.13-2.785-1.804-5.007-4.685-5.245c-1.185-0.099-2.453,0.618-3.241,1.445
				c-0.982,1.034-1.38,2.407-1.445,3.8c-0.13,2.777,2.006,5.024,4.685,5.245c1.185,0.099,2.453-0.618,3.241-1.445
				c0.983-1.034,1.38-2.407,1.445-3.8c0.076-1.637-1.424-3.005-3.005-3.005C81.088,104.489,79.854,105.859,79.778,107.495z"/>
		</g>
	</g>
	<g>
		<ellipse fill="#020202" cx="147.382" cy="108.817" rx="1.679" ry="2.24"/>
		<g>
			<path d="M146.058,108.817c0.032-0.7-0.2,0.436,0.109-0.237c-0.179,0.295-0.162,0.278,0.05-0.049
				c0.302-0.321,0.69-0.481,1.165-0.478c0.7-0.058,1.003,0.288,1.339,0.736c-0.162-0.29-0.165-0.276-0.008,0.04
				c-0.081-0.34-0.082-0.344-0.006-0.011c-0.019,0.083-0.037,0.165-0.057,0.248c0.1-0.34,0.082-0.344-0.053-0.01
				c0.18-0.295,0.162-0.278-0.05,0.049c-0.302,0.321-0.69,0.481-1.165,0.478c-0.7,0.058-1.003-0.289-1.339-0.736
				c0.162,0.29,0.165,0.276,0.008-0.04C146.132,109.147,146.133,109.15,146.058,108.817c0.076,1.636,1.309,3.005,3.005,3.005
				c1.581,0,3.081-1.368,3.005-3.005c-0.13-2.785-1.804-5.007-4.685-5.245c-1.185-0.099-2.453,0.618-3.241,1.445
				c-0.982,1.034-1.38,2.407-1.445,3.8c-0.13,2.777,2.006,5.024,4.685,5.245c1.185,0.099,2.453-0.618,3.241-1.445
				c0.983-1.034,1.38-2.407,1.445-3.8c0.076-1.637-1.424-3.005-3.005-3.005C147.367,105.812,146.133,107.181,146.058,108.817z"/>
		</g>
	</g>
</g>
<g>
	<g>
		<path d="M-68.092,274.922c15.014-1.255,21.882-9.519,34.579-16.556c5.765-3.195,0.611-12.025-5.16-8.826
			c-9.877,5.473-19.921,10.797-30.542,14.689c-1.038,0.38-2.153,4.205-1.613,6.783S-68.092,274.922-68.092,274.922z"/>
	</g>
</g>
<g>
	<path d="M24.212-84.101c0,0,86.599,61.485,144.619,57.155l4.33-29.444l19.052-8.66l-24.247-24.247L25.944-101.421L24.212-84.101z"
		/>
	<g>
		<path d="M21.634-79.687c16.683,11.807,34.598,22.076,52.79,31.341c28.647,14.589,61.616,28.475,94.409,26.512
			c2.067-0.125,4.59-1.447,4.929-3.752c1.317-8.959,2.635-17.918,3.952-26.876c0.587-3.985,0.859-0.797-1.758,0.39
			c1.938-0.881,3.876-1.762,5.814-2.643c4.34-1.973,8.683-3.946,13.023-5.921c3.05-1.386,3.185-5.878,1.034-8.027
			c-5.416-5.416-10.832-10.832-16.245-16.245c-3.343-3.343-7.147-9.116-12.218-9.55c-13.913-1.188-27.825-2.376-41.738-3.563
			c-33.226-2.836-66.455-5.673-99.681-8.509c-2.975-0.254-4.854,2.531-5.111,5.111c-0.577,5.774-1.155,11.547-1.732,17.321
			c-0.656,6.559,9.572,6.495,10.222,0c0.577-5.774,1.155-11.547,1.732-17.321c-1.703,1.703-3.408,3.408-5.111,5.111
			c31.965,2.729,63.928,5.457,95.893,8.186c14.593,1.245,29.187,2.492,43.782,3.737c3.846,0.329,0.947,0.916-1.161-1.192
			c2.2,2.2,4.4,4.4,6.599,6.6c5.847,5.847,11.694,11.694,17.543,17.543c0.346-2.676,0.689-5.352,1.035-8.027
			c-4.567,2.075-20.569,6.058-21.426,11.891c-1.435,9.756-2.868,19.51-4.304,29.266c1.644-1.251,3.285-2.502,4.929-3.752
			c-32.726,1.959-65.286-12.712-93.697-27.398c-16.65-8.605-33.03-18.222-48.343-29.06C21.399-92.332,16.298-83.463,21.634-79.687z"
			/>
	</g>
</g>
<g>
	<g>
		<ellipse fill="#FFFFFF" cx="130.886" cy="-64.425" rx="6.781" ry="9.043"/>
		<g>
			<path fill="#FFFFFF" d="M132.556-64.425c-0.057,1.212-0.662,3.848-1.67,3.931c-0.987,0.082-1.619-2.852-1.67-3.931
				c-0.057-1.218,0.738-3.854,1.67-3.931C131.873-68.438,132.507-65.504,132.556-64.425c0.307,6.563,10.529,6.593,10.222,0
				c-0.333-7.172-4.287-13.524-11.893-14.154c-7.571-0.628-11.604,7.949-11.893,14.154c-0.333,7.152,4.78,13.565,11.893,14.154
				c7.571,0.628,11.604-7.949,11.893-14.154C143.087-71.018,132.863-70.988,132.556-64.425z"/>
		</g>
	</g>
	<g>
		<ellipse fill="#FFFFFF" cx="129.743" cy="-65.879" rx="0.626" ry="0.834"/>
		<g>
			<path d="M125.255-65.879c0.147-0.636,0.294-1.272,0.442-1.905c0.611-0.611,1.223-1.223,1.834-1.834
				c0.284-0.119,0.568-0.237,0.85-0.354c0.906,0,1.811,0,2.717,0c0.284,0.119,0.568,0.237,0.85,0.354
				c0.611,0.611,1.223,1.223,1.834,1.834c0.589,1.272,0.589,2.541,0,3.813c-0.611,0.611-1.223,1.223-1.834,1.834
				c-0.284,0.119-0.568,0.237-0.85,0.354c-0.906,0-1.811,0-2.717,0c-0.284-0.119-0.568-0.237-0.85-0.354
				c-0.611-0.611-1.223-1.223-1.834-1.834C125.552-64.609,125.404-65.243,125.255-65.879c0.172,1.413,0.45,2.568,1.497,3.615
				c0.955,0.955,2.263,1.497,3.615,1.497c2.533,0,5.446-2.339,5.111-5.111c-0.139-1.157-0.223-2.278-0.955-3.253
				c-1.194-1.591-2.715-2.693-4.782-2.693c-1.47,0-2.946,0.619-3.985,1.658c-1.218,1.218-1.554,2.643-1.754,4.287
				c-0.114,0.94,0.393,2.504,0.955,3.253c1.194,1.591,2.715,2.693,4.782,2.693c1.47,0,2.946-0.619,3.985-1.658
				c1.218-1.218,1.554-2.643,1.752-4.287c0.335-2.772-2.578-5.111-5.111-5.111c-1.349,0-2.66,0.544-3.615,1.497
				C125.709-68.446,125.429-67.291,125.255-65.879z"/>
		</g>
	</g>
</g>
<g>
	<path fill="#020202" d="M19.937-103.225c0,0-15.333-39.865-58.265-27.598C-38.328-130.825-10.728-90.96,19.937-103.225z"/>
	<g>
		<path d="M24.864-104.584c-10.457-26.537-37.567-38.231-64.552-31.168c-3.005,0.787-4.96,4.79-3.054,7.507
			c13.968,19.915,38.661,38.978,64.036,29.947c6.164-2.194,3.508-12.073-2.717-9.856c-20.753,7.385-41.069-8.961-52.491-25.249
			c-1.018,2.502-2.036,5.005-3.054,7.509c14.929-3.907,29.283-2.163,40.891,8.476c3.324,3.046,6.029,6.665,8.384,10.488
			c0.728,1.182,3.153,6.213,2.701,5.066C17.398-95.807,27.287-98.445,24.864-104.584z"/>
	</g>
</g>
<g>
	<path fill="#020202" d="M16.801-98.753c0,0-27.598-9.2-45.998,12.267C-29.197-86.487-4.666-65.022,16.801-98.753z"/>
	<g>
		<path d="M18.158-103.683c-18.081-5.816-38.264-0.298-50.97,13.581c-1.766,1.928-2.186,5.361,0,7.229
			c5.489,4.69,12.236,7.178,19.326,8.102c15.127,1.969,27.044-9.969,34.701-21.401c3.68-5.495-5.179-10.607-8.826-5.16
			C6.08-91.911-2.838-82.976-15.093-85.28c-3.555-0.669-8.887-3.451-10.488-4.819c0,2.408,0,4.819,0,7.229
			c10.388-11.345,26.269-15.697,41.026-10.952C21.734-91.8,24.406-101.671,18.158-103.683z"/>
	</g>
</g>
</svg>
